<?xml version="1.0" encoding="utf-8"?>
<!-- Generator: Adobe Illustrator 24.0.2, SVG Export Plug-In . SVG Version: 6.00 Build 0)  -->
<svg version="1.1" id="圖層_1" xmlns="http://www.w3.org/2000/svg" xmlns:xlink="http://www.w3.org/1999/xlink" x="0px" y="0px"
	 viewBox="0 0 30 30" style="enable-background:new 0 0 30 30;" xml:space="preserve">
<style type="text/css">
	.st0{fill:#FFFFFF;}
</style>
<g>
	<path class="st0" d="M19.6,21.5h-3.3c-0.3,0-0.5-0.2-0.5-0.5c0-0.3,0.2-0.5,0.5-0.5h3.3c0.3,0,0.5,0.2,0.5,0.5
		C20.1,21.3,19.9,21.5,19.6,21.5z"/>
	<path class="st0" d="M10.1,25.8c-0.1,0-0.2,0-0.3-0.1c0,0-0.1-0.1-0.1-0.1l-5.3-3.9c-0.1-0.1-0.2-0.2-0.2-0.4
		c0-0.1,0.1-0.3,0.2-0.4l2.6-2.3c0.7-0.6,1.6-1.1,2.5-1.4c0.9-0.3,1.8-0.3,2.7-0.2l5.3,0.6c1.4,0.2,2.5,1.3,2.7,2.6l6.7-3
		c0.9-0.4,1.9-0.1,2.4,0.7c0.3,0.5,0.4,1,0.2,1.6c-0.2,0.5-0.5,1-1,1.2l-6.6,3.2c-1.6,0.7-3.4,1-5.1,0.8l-2.6-0.3
		c-1.4-0.2-2.7,0.3-3.6,1.2C10.4,25.7,10.2,25.8,10.1,25.8z M5.4,21.3l4.6,3.4c1.1-0.9,2.6-1.4,4.1-1.2l2.6,0.3
		c1.6,0.2,3.1-0.1,4.6-0.8l6.6-3.2c0.2-0.1,0.4-0.3,0.5-0.6c0.1-0.3,0-0.5-0.1-0.8c-0.2-0.4-0.8-0.5-1.2-0.3l-7.3,3.3
		c-0.2,0.1-0.3,0.1-0.5-0.1c-0.1-0.1-0.2-0.3-0.2-0.5c0.1-0.6-0.1-1.1-0.5-1.6c-0.4-0.4-0.9-0.7-1.4-0.8L12,18
		c-0.8-0.1-1.5,0-2.3,0.2c-0.8,0.2-1.5,0.6-2.1,1.2L5.4,21.3z"/>
	<path class="st0" d="M8.9,29.6c-0.3,0-0.7-0.1-1-0.3l-7.3-5.2c-0.4-0.3-0.6-0.6-0.7-1.1c-0.1-0.4,0-0.9,0.3-1.3L0.9,21
		c0.8-1.1,2.4-1.4,3.5-0.5l5.8,4.3c0.5,0.4,0.9,1,1,1.7c0.1,0.7-0.1,1.3-0.5,1.9l-0.4,0.6c-0.3,0.4-0.6,0.6-1.1,0.7
		C9.1,29.6,9,29.6,8.9,29.6z M2.9,21c-0.5,0-0.9,0.2-1.2,0.6l-0.5,0.8C1,22.5,1,22.7,1,22.9c0,0.2,0.1,0.3,0.3,0.4l7.3,5.2
		c0.2,0.1,0.3,0.1,0.5,0.1c0.2,0,0.3-0.1,0.4-0.3l0.5-0.6c0.2-0.3,0.3-0.7,0.3-1.2c-0.1-0.4-0.3-0.8-0.6-1l-5.8-4.3
		C3.5,21.1,3.2,21,2.9,21z"/>
	<path class="st0" d="M21.5,15.8h-8.8c-0.3,0-0.5-0.2-0.5-0.5v-0.2c0-2.7,2.2-4.9,4.9-4.9c2.7,0,4.9,2.2,4.9,4.9v0.2
		C22,15.6,21.8,15.8,21.5,15.8z M13.2,14.8H21c-0.2-2-1.8-3.6-3.9-3.6C15,11.2,13.3,12.8,13.2,14.8z"/>
	<path class="st0" d="M17.1,9.7c-1.4,0-2.6-1.2-2.6-2.6c0-1.4,1.2-2.6,2.6-2.6c1.4,0,2.6,1.2,2.6,2.6C19.7,8.5,18.5,9.7,17.1,9.7z
		 M17.1,5.5c-0.9,0-1.6,0.7-1.6,1.6c0,0.9,0.7,1.6,1.6,1.6c0.9,0,1.6-0.7,1.6-1.6C18.7,6.2,18,5.5,17.1,5.5z"/>
	<path class="st0" d="M24.6,6.5c-1.6,0-2.8-1.3-2.8-2.8s1.3-2.8,2.8-2.8c1.6,0,2.8,1.3,2.8,2.8S26.2,6.5,24.6,6.5z M24.6,1.8
		c-1,0-1.8,0.8-1.8,1.8c0,1,0.8,1.8,1.8,1.8c1,0,1.8-0.8,1.8-1.8C26.4,2.7,25.6,1.8,24.6,1.8z"/>
	<path class="st0" d="M11.2,13.3H4.6c-0.3,0-0.5-0.2-0.5-0.5v-0.2c0-3,2.4-5.4,5.4-5.4c1.7,0,3.2,0.7,4.2,2.1
		c0.2,0.2,0.1,0.5-0.1,0.7c-0.2,0.2-0.5,0.1-0.7-0.1c-0.8-1.1-2.1-1.7-3.5-1.7c-2.3,0-4.3,1.8-4.4,4.1h6.1c0.3,0,0.5,0.2,0.5,0.5
		C11.7,13.1,11.5,13.3,11.2,13.3z"/>
	<path class="st0" d="M29.5,13.3h-6.6c-0.3,0-0.5-0.2-0.5-0.5c0-0.3,0.2-0.5,0.5-0.5H29c-0.1-2.3-2.1-4.1-4.4-4.1
		c-1.4,0-2.6,0.6-3.5,1.7c-0.2,0.2-0.5,0.3-0.7,0.1c-0.2-0.2-0.2-0.5-0.1-0.7c1-1.3,2.6-2.1,4.2-2.1c3,0,5.4,2.4,5.4,5.4v0.2
		C30,13.1,29.8,13.3,29.5,13.3z"/>
	<path class="st0" d="M9.6,6.5C8,6.5,6.7,5.2,6.7,3.7S8,0.9,9.6,0.9s2.8,1.3,2.8,2.8S11.1,6.5,9.6,6.5z M9.6,1.8
		c-1,0-1.8,0.8-1.8,1.8c0,1,0.8,1.8,1.8,1.8s1.8-0.8,1.8-1.8C11.4,2.7,10.6,1.8,9.6,1.8z"/>
</g>
</svg>
