<?xml version="1.0" encoding="utf-8"?>
<!-- Generator: Adobe Illustrator 24.0.2, SVG Export Plug-In . SVG Version: 6.00 Build 0)  -->
<svg version="1.1" id="圖層_1" xmlns="http://www.w3.org/2000/svg" xmlns:xlink="http://www.w3.org/1999/xlink" x="0px" y="0px"
	 viewBox="0 0 270.8 64" style="enable-background:new 0 0 270.8 64;" xml:space="preserve">
<style type="text/css">
	.st0{fill:#13488B;}
</style>
<g>
	<path class="st0" d="M23.5,16.9c-0.3,0.2-0.4,0.4-0.6,0.5c-4.9,4.1-9.8,8.3-14.7,12.4c-1,0.8-1.2,1.7-1.1,2.9
		c0.5,4.8,0.9,9.6,1.4,14.4c0.3,3.1,0.6,6.3,0.9,9.4c0.1,0.7,0.3,1,1.1,1c2.8,0,5.6,0,8.4,0c0.6,0,1-0.1,1-0.9
		c0.5-6.2,1.1-12.3,1.6-18.5C22.2,31.1,22.9,24.1,23.5,16.9z"/>
	<path class="st0" d="M116.6,15c0.1,0.2,0.2,0.3,0.3,0.5c0.6-0.2,1.2-0.3,1.7-0.6c1.4-0.7,2-0.6,3.1,0.9c-2.9,0-5.8,0-8.7,0
		c-0.1-0.4-0.1-0.9-0.2-1.4c0.8,0,1.5,0.1,2.2,0c0.4-0.1,0.7-0.5,1-0.8c-0.3-0.2-0.6-0.6-1-0.6c-0.8-0.1-1.5,0-2.3,0
		c-0.3-1.4-0.3-1.5,0.9-1.5c0.3,0,0.7,0.1,1,0c0.3-0.1,0.6-0.5,0.9-0.7c-0.3-0.2-0.6-0.6-1-0.6c-0.7-0.1-1.4,0-2.1,0
		c-0.1-0.1-0.1-0.3-0.2-0.4c0.3-0.3,0.5-0.7,0.8-0.8c0.4-0.2,0.9-0.2,1.2-0.5c0.3-0.2,0.4-0.6,0.6-0.9c-0.3-0.1-0.6-0.4-0.9-0.4
		c-0.8,0.1-1.5,0.2-2.3,0.4c-1.7,0.4-1.9,0.9-1.5,2.6c0.5,1.9,0.7,3.9,1.1,5.9c-1,0.1-1.7,0.2-2.4,0.3c-0.8,0.1-1.5,0.4-1.7,1.3
		c-0.3,1.5-0.5,2.9-0.5,4.4c0,0.3,0.6,0.9,0.9,0.9c0.3,0,0.8-0.5,1-0.9c0.2-0.7,0.2-1.5,0.2-2.2c0-0.8,0.4-1.4,1.2-1.6
		c0.6-0.2,1.2-0.3,1.8-0.4c2.2-0.1,4.5-0.3,6.7-0.3c3.1,0,6.1,0.2,9.2,0.3c1.7,0.1,2.1,0.6,2.5,2.3c0.1,0.6,0.3,1.2,0.6,1.7
		c0.4,0.7,1,0.8,1.4,0c0.2-0.5,0.3-1.1,0.3-1.6c0-0.4-0.2-0.9-0.3-1.3c0-1-0.5-1.7-1.4-2.1c-0.8-0.4-1.8-0.6-2.9-1.1
		c0.6-1.8,1.1-3.8,1.8-5.7c0.2-0.7,0.5-1.4-0.3-1.8c-1.2-0.5-2.4-0.8-3.7-1.1c-0.3-0.1-0.7,0.5-1,0.7c0.3,0.3,0.5,0.8,0.8,1
		c0.4,0.2,1,0,1.5,0.2c0.3,0.1,0.6,0.5,0.6,0.8c0,0.1-0.4,0.6-0.7,0.6c-0.6,0.1-1.3-0.1-1.9-0.1c-0.3,0-0.6,0.4-0.9,0.6
		c0.3,0.2,0.5,0.6,0.8,0.7c0.7,0.2,1.4,0.2,2.1,0.3c0.1,0.9-0.2,1.4-1.1,1.2c-0.5-0.1-1-0.1-1.5,0c-0.3,0-0.5,0.3-0.8,0.5
		c0.2,0.2,0.4,0.6,0.6,0.6c0.7,0.2,1.4,0.2,2.1,0.3c0.1,1-0.2,1.5-1.3,1.4c-0.8-0.1-1.5,0-2,0c-0.8-1-1.3-1.7-2-2.6
		c0.3-0.2,0.7-0.3,0.8-0.6c0.1-0.3,0-0.8,0-1.2c-0.3,0.1-0.7,0-1,0.2c-0.4,0.2-0.7,0.6-0.9,0.8c-0.5-0.3-1-0.6-1.4-0.7
		c-0.3-0.1-0.7,0.2-1,0.4c-0.1,0.1,0.2,0.6,0.3,0.8c0.2,0.2,0.5,0.3,0.8,0.5C117.8,14,117.2,14.5,116.6,15z"/>
	<path class="st0" d="M13.7,2c-2,1.7-3.9,3.3-5.8,4.9c-1.2,1-1.2,2.5-0.1,3.5c0.7,0.6,1.4,1.2,2.1,1.8c1.7-1.5,3.5-2.9,5.2-4.3
		c1.3,1.1,2.6,2.1,3.8,3.3c0.4,0.4,0.7,1.2,0.8,1.8c0.1,1-0.1,2.1-0.2,3.1c0,0.8-0.1,1.6-0.1,2.4c0.1,0,0.2,0.1,0.3,0.1
		c1-0.9,2.1-1.8,3-2.8c1.6-1.8,1.5-4.6-0.4-6.3C19.6,7,16.7,4.6,13.7,2z"/>
	<path class="st0" d="M162.9,18.4c-0.5-0.1-0.8-0.2-1.2-0.2c-3.8,0-7.7-0.1-11.5,0c-0.6,0-1.2,0.4-1.6,0.8c-0.2,0.2-0.3,0.9-0.2,1.2
		c0.1,0.2,0.7,0.4,1,0.4c0.9-0.1,1.7-0.3,2.7-0.4c0,0.6,0,1.1-0.1,1.6c-0.6,2.5-2.2,4.1-4.6,5.1c-0.7,0.3-1.4,0.5-1.9,0.9
		c-0.3,0.2-0.7,0.9-0.6,1.2c0.2,0.4,0.8,0.6,1.2,0.8c0.3,0.1,0.7,0,1-0.1c3.5-1.2,5.7-3.6,6.5-7.2c0.1-0.6,0.3-1.3,0.4-1.9
		c0.1-0.9,0.9-0.6,1.3-0.6c0.2,0,0.6,0.5,0.6,0.8c0,1.1-0.1,2.2-0.3,3.2c-0.4,2.9,0.3,4.2,2.9,5.4c1.2,0.5,2.5,1,3.7,1.4
		c2.4,0.7,4.8-1.4,4.3-4.1c-0.4,0.1-0.7,0.3-1,0.4c-2,0.9-4,1.1-6.2,0.5c-1.6-0.5-2.2-1.2-2.1-2.9c0.1-1.6,0.5-3.1,0.8-4.7
		C159.8,19.8,161.8,20.8,162.9,18.4z"/>
	<path class="st0" d="M119.4,22.6c-1.1,0-2,0-2.9,0c-1.4,0-2.8,0.1-4.3,0.2c-0.4,0-0.9,0.3-1.1,0.6c-0.3,0.4-0.4,1-0.3,1.5
		c0,0.2,0.7,0.3,1.1,0.4c0.3,0,0.5,0,0.8-0.1c2-0.3,4.1-0.6,6.1-0.9c1.9-0.2,2.3,0.3,1.7,2.2c-0.4,1.2-1.2,2.1-2.5,2.3
		c-0.7,0.1-1.5,0.2-2.2,0c-1.1-0.2-2.2-0.5-3.3-0.8c0.1,1.5,1.5,3.2,2.9,3.5c2.4,0.4,6.1-1.2,6.5-4.4c0.1-0.9,0.1-1.9,0.2-3
		c1.5,0.1,3,0.2,4.5,0.4c1.5,0.2,2.5-0.3,3.1-1.9c-2.8,0-5.5,0-8.1,0c0-0.1,0-0.2,0-0.3c0.8-0.4,1.6-0.6,2.2-1.1
		c0.6-0.4,1-1.1,1.4-1.7c-0.6-0.4-1.2-1.1-1.9-1.1c-2.6-0.1-5.2,0-7.8,0c-0.1,0-0.3,0-0.4,0.1c-0.4,0.4-0.8,0.9-1.3,1.3
		c0.6,0.2,1.1,0.3,1.7,0.5c0.1,0,0.2,0,0.3,0c1.6-0.3,3.3-0.6,4.9-0.7c0.4,0,0.9,0.4,1.4,0.6c-0.3,0.4-0.6,0.8-1,1.2
		c-0.1,0.1-0.5,0-0.7-0.1c-0.4-0.1-0.7-0.4-1-0.3c-0.5,0.1-1,0.3-1.5,0.5c0.3,0.3,0.6,0.6,1,0.9C119.1,22.3,119.2,22.3,119.4,22.6z"
		/>
	<path class="st0" d="M7.3,11.6c0.5,5.5,1,10.7,1.6,16.2c3-2.6,5.8-5,8.8-7.4C14.2,17.4,10.9,14.5,7.3,11.6z"/>
	<path class="st0" d="M85.7,10.2c-0.5,0-0.9,0-1.3,0c-2.3,0.1-4.7,0.1-7,0.2c-0.9,0-2.1,0.1-2.4,1.2c-0.5,1.8-0.7,3.6-1,5.5
		c-0.1,0.7,0.3,1.2,1,1.3c0.8,0.1,1.2-0.4,1.3-1.1c0.1-0.6,0-1.2,0.1-1.7c0.1-2.5,0.5-3.2,3-3.3C84.1,12,88.7,12,93.4,12
		c0.6,0,1.2,0.2,1.8,0.2c0.9,0.1,1.5,0.6,1.7,1.5c0.2,1,0.4,1.9,0.7,2.9c0.1,0.4,0.7,0.7,1,1c0.3-0.4,0.9-0.7,0.9-1.1
		c-0.1-1.6-0.4-3.1-0.7-4.6c0-0.3-0.4-0.5-0.7-0.7c-0.9-0.3-1.8-0.8-2.8-0.9c-2.2-0.2-4.3-0.2-6.5-0.2c-0.3,0-0.6,0-1.1,0
		c0.2-0.6,0.5-1,0.4-1.3c-0.1-0.6-0.2-1.4-0.5-1.6c-0.5-0.3-1.3-0.3-1.9-0.2C85,7.3,85.3,8,85.4,8.6C85.5,9.1,85.6,9.5,85.7,10.2z"
		/>
	<path class="st0" d="M154.2,9.8C154.2,9.9,154.2,9.9,154.2,9.8c-1.3,0.1-2.5,0.2-3.6,0.3c-0.8,0.1-1.6,0.3-2.2,0.7
		c-0.7,0.5-1.2,3.9-0.8,4.6c0.2,0.3,0.6,0.6,0.9,0.6c0.3,0,0.7-0.4,0.8-0.7c0.2-0.4,0.2-0.9,0.2-1.4c0.1-1.5,0.4-2,1.9-2.1
		c2.9-0.2,5.8-0.2,8.6-0.2c0.8,0,1.3,0.5,1.5,1.3c0.2,0.7,0.3,1.4,0.5,2.1c0.1,0.4,0.5,0.6,0.8,0.9c0.3-0.3,0.8-0.6,0.8-0.9
		c0.3-2.4,0.4-4.3-2.5-4.8c-0.3,0-0.6-0.1-0.9-0.1c-1.3-0.1-2.7-0.2-4-0.3c0-2-0.1-2.2-1.2-2.2C154.2,7.7,154.1,8,154.2,9.8z"/>
	<path class="st0" d="M11,13.1c1.3,1.1,2.6,2.2,4,3.4c1.1-0.9,2.2-1.9,3.3-2.8c0.6-0.5,0.6-1.1,0-1.6c-1-0.9-2-1.7-3-2.6
		C13.8,10.7,12.4,11.9,11,13.1z"/>
	<path class="st0" d="M47.7,25.5c-0.6,0-0.9-0.1-1.1,0c-1.6,0.5-3.3,1-4.9,1.5c-0.7,0.2-1.5,0.5-1.4,1.4c0.1,0.7,0.5,1.5,1,1.8
		c0.4,0.2,1.3-0.1,1.9-0.5c1.3-0.9,2.5-2,3.7-3C47.1,26.4,47.3,26,47.7,25.5z"/>
	<path class="st0" d="M14.6,61.4c2.9,0,5.8,0,8.7,0c0.3,0,0.7-0.3,1-0.4c-0.3-0.1-0.7-0.4-1-0.4c-5.8,0-11.6,0-17.3,0
		c-0.3,0-0.6,0.3-0.9,0.4c0.3,0.1,0.7,0.4,1,0.4C8.9,61.4,11.8,61.4,14.6,61.4z"/>
	<path class="st0" d="M122.9,11.3c0.1-0.1,0.2-0.2,0.3-0.3c-0.6-0.6-1.1-1.2-1.7-1.9c0.2-0.2,0.4-0.3,0.6-0.5
		c0.4-0.4,0.9-0.8,0.4-1.4c-0.6-0.6-1-0.1-1.4,0.3c-0.6,0.6-1.2,0.9-2,0.2c-0.2-0.2-0.6-0.3-0.9-0.3c-0.3,0-0.7,0.2-0.8,0.5
		c-0.1,0.2,0.1,0.6,0.3,0.8c0.2,0.2,0.6,0.4,1,0.6c-0.7,0.5-1.3,1-1.9,1.5c0.1,0.1,0.1,0.3,0.2,0.4c0.5-0.1,1.1-0.2,1.5-0.5
		c1.2-0.9,2.3-0.7,3.4,0.1C122.1,11,122.5,11.1,122.9,11.3z"/>
	<path class="st0" d="M156.8,15.7C156.8,15.8,156.8,15.8,156.8,15.7c0.6,0.1,1.3,0.2,1.8,0.1c0.4-0.1,0.6-0.5,1-0.8
		c-0.3-0.2-0.7-0.7-1-0.7c-1-0.1-2.1,0-3.1-0.1c-0.7,0-1.5-0.2-2.2-0.2c-0.9,0-1.9,1-1.7,1.7c0.3,1,1.1,0.5,1.7,0.4
		C154.4,16,155.6,15.9,156.8,15.7z"/>
	<path class="st0" d="M46,13.8c0.2-0.1,0.6-0.2,0.7-0.4c0.1-0.2-0.1-0.6-0.3-0.8c-0.6-0.6-1.4-1.2-2-1.8c-0.8-0.9-2.2-0.9-2.9,0
		c-0.6,0.7-0.5,1.4,0.4,1.7C43.2,13,44.6,13.4,46,13.8z"/>
	<path class="st0" d="M41.2,20.5c0-0.1,0.1-0.1,0.1-0.2c0.9-0.1,1.8-0.1,2.7-0.3c0.3-0.1,0.6-0.4,0.9-0.6c-0.2-0.3-0.4-0.6-0.7-0.8
		c-0.6-0.4-1.4-0.6-2-0.9c-0.8-0.4-1.5-0.4-2,0.2c-0.4,0.4-0.8,1.2-0.6,1.6C39.8,20,40.7,20.2,41.2,20.5z"/>
	<path class="st0" d="M20,59.4c0.2-0.9-0.3-0.8-0.8-0.8c-2.6,0-5.2,0-7.7,0c-0.5,0-1.1,0-1.6,0c-0.2,0-0.3,0.3-0.5,0.5
		c0.2,0.1,0.3,0.3,0.5,0.3C13.2,59.4,16.6,59.4,20,59.4z"/>
	<path class="st0" d="M23.5,16.9c-0.7,7.2-1.3,14.3-2,21.3c-0.6,6.1-1.1,12.3-1.6,18.5c-0.1,0.8-0.4,0.9-1,0.9c-2.8,0-5.6,0-8.4,0
		c-0.8,0-1.1-0.3-1.1-1c-0.3-3.1-0.6-6.3-0.9-9.4c-0.4-4.8-0.9-9.6-1.4-14.4c-0.1-1.2,0.1-2,1.1-2.9c5-4.1,9.8-8.3,14.7-12.4
		C23.1,17.2,23.2,17.1,23.5,16.9z"/>
	<path class="st0" d="M159.3,53.9c-1.6,0.4-2.1,0.1-2.4-1.6c-0.5,0.5-1,1-1.5,1.5c-0.6,0.5-1.3,0.9-2,0.3c-0.7-0.6-0.8-1.4-0.4-2.1
		c0.4-0.7,0.9-1.4,1.3-2.1c0.3-0.5,0.6-1,0.8-1.5c-0.1-0.1-0.2-0.2-0.3-0.3c-0.4,0.2-1,0.4-1.2,0.7c-1.1,1.3-2.1,2.7-3,4.1
		c-0.9,1.2-0.8,1.3-2.4,1.2c1.1-1.9,2.1-3.8,3.2-5.6c-0.1-0.1-0.2-0.2-0.4-0.3c-0.3,0.2-0.7,0.4-0.9,0.7c-1,1.4-2.1,2.7-3,4.2
		c-0.6,1-1.2,1.3-2.4,1c1.1-1.9,2.2-3.7,3.3-5.6c-0.2-0.2-0.4-0.3-0.6-0.5c-0.1,0.3-0.2,0.7-0.4,0.9c-1.1,1.2-2.3,2.5-3.5,3.6
		c-0.6,0.6-1.3,1.1-2.1,1.4c-1.6,0.7-2.7,0.1-3.1-1.6c0-0.1-0.1-0.2-0.1-0.3c-0.5,0.5-1,0.9-1.5,1.4c-0.6,0.5-1.3,1.1-2,0.6
		c-0.5-0.3-0.7-1.1-1.1-1.7c-0.1,0.1-0.3,0.4-0.5,0.7c-0.5,0.6-1.1,1.3-2,1.1c-1-0.2-1.2-1-1.3-1.9c-0.1-0.1-0.3-0.2-0.4-0.3
		c-0.2,0.4-0.4,0.8-0.7,1.1c-0.5,0.4-1,0.9-1.6,1.1c-0.9,0.3-1.4-0.2-1.8-1.6c-0.8,0.9-1.5,2.1-2.8,1.6c-0.6-0.2-1-1.1-1.5-1.8
		c-0.2,0.1-0.5,0.6-0.9,0.8c-0.7,0.4-1.5,0.9-2.3,1.1c-1.2,0.2-1.8-0.5-2.2-2.2c-0.1-0.1-0.2-0.2-0.4-0.4c-0.2,0.3-0.3,0.7-0.5,1
		c-1.2,1.3-2.7,1.9-4.4,1.8c-1.1-0.1-2.1,0-3.2,0c-0.3,0-0.6-0.1-0.9-0.1c0-0.1,0-0.3-0.1-0.4c0.4-0.1,0.7-0.3,1.1-0.2
		c2.3,0.3,3.8-0.8,5-2.6c0.7-1.1,1.5-2.2,2.4-3.6c-1.5,0-2.7,0-4,0c-0.3,0-0.5,0.4-0.8,0.6c-1.7,1.5-3.4,3.2-5.3,4.5
		c-2.1,1.5-4.5,2.3-7.1,1.5c-0.9-0.3-1.8-0.9-2.4-1.6c-0.7-0.9-0.3-2.2,0.7-2.5c0.4-0.1,1,0,1.4,0.2c0.1,0,0.2,0.7,0.1,0.8
		c-0.3,0.3-0.8,0.5-1.2,0.7c-0.1,0.1-0.4,0-0.7-0.1c0.1,1.1,0.8,1.7,1.7,2c1.5,0.7,3.1,0.6,4.5-0.2c1.4-0.7,2.6-1.7,3.8-2.6
		c1.1-0.9,2.1-2,3.2-3c-0.1-0.1-0.1-0.2-0.2-0.3c-0.5,0-1-0.1-1.6-0.1c0-0.1,0-0.2,0-0.2c0.3,0,0.6-0.2,0.9-0.1c1,0.2,1.7-0.2,2.3-1
		c0.4-0.5,1-1,1.6-1.6c-0.3,0-0.5,0-0.6,0c-1.5,0.1-2.3-0.9-1.9-2.3c0.2-0.6,0.5-1.1,0.7-1.7c0.5-1.1,0.3-1.8-1-2
		c-0.7-0.1-1.6-0.1-2.3,0.1c-2.7,0.8-4.6,2.4-5.2,5.3c-0.5,2.3,1.2,3.8,3.5,3c1.2-0.4,2.2-1.2,2.9-2.3c0.2-0.3,0.4-0.4,0.7-0.6
		c-0.2,2-3.4,4.4-6,3.3c-1.3-0.5-1.9-2-1.6-3.6c0.6-3.4,4.9-6.3,8.2-5.7c1.5,0.3,2.2,1.6,1.8,3.2c-0.2,0.6-0.5,1.1-0.6,1.7
		c-0.1,0.3-0.1,0.9,0.1,1c0.3,0.2,0.8,0.2,1.1,0c0.7-0.4,1.2-1,1.9-1.6c0.1,0.2,0.3,0.4,0.4,0.6c5-2.8,10.7-3.9,12.3-2.3
		c-0.5,0-0.8,0.2-1.1,0.1c-2.5-0.8-4.3,0.3-5.7,2.3c-1,1.4-1.9,2.9-2.7,4.4c-1.5,2.8-3.2,5.3-6.4,6.5c0,0-0.1,0.1-0.1,0.2
		c1.6,0.1,2.9-0.2,4-1.3c0.7-0.6,1.2-1.4,1.9-2c1.2-1.2,2.4-2.3,4.1-2.8c0.5-0.1,1.2-0.1,1.5,0.2c0.3,0.3,0.3,1.1,0.2,1.5
		c-0.2,0.6-0.7,1.1-1.2,1.5c-0.2,0.1-0.6,0-0.9,0c0-0.3,0-0.8,0.1-1c0.3-0.3,0.7-0.5,1-0.8c0.2-0.2,0.3-0.6,0.4-0.9
		c-0.3,0-0.7-0.1-0.9,0c-1.4,1.1-2.6,2.4-2.9,4.2c-0.2,1,0.4,1.5,1.3,1c1.2-0.8,2.2-1.8,3.2-2.7c0.8-0.7,1.6-1.5,2.5-2.1
		c1.3-1,2.9-1.1,4.5-1c0.3,0,0.6,0,1,0c-0.8,2-2.5,3.6-3,5.8c0.1,0.1,0.2,0.2,0.4,0.3c0.7-0.7,1.6-1.4,2.2-2.2
		c1-1.3,2.2-2.4,3.7-3.2c0.5-0.3,1.1-0.5,1.6-0.7c0.8-0.3,1.4-0.1,1.8,0.8c0.9-1.7,1.9-3.3,2.7-5c0.5-1.1,1.2-1.4,2.4-1.1
		c-0.2,0.4-0.4,0.8-0.7,1.1c-1.7,2.8-3.4,5.5-5,8.3c-0.3,0.5-0.5,1.1-0.6,1.8c1.3-0.3,2-1.3,2.7-2.2c1.1-1.5,2.6-2.5,4.3-3.3
		c0.4-0.2,0.9-0.4,1.4-0.4c0.5,0.1,1,0.5,1.5,0.7c-0.2,0.5-0.3,1.1-0.7,1.3c-1,0.5-2.1,0.9-3.2,1.2c-0.8,0.3-1.5,1.1-1.4,1.9
		c0.1,0.6,0.5,1,1,0.8c0.7-0.3,1.4-0.6,1.9-1.1c1.3-1.1,2.4-2.4,3.6-3.6c0.1-0.1,0.2-0.3,0.3-0.4c1.3-1.4,2-1.2,2.6,0.4
		c0.6-0.4,1.3-1.2,2-1.3c1.1-0.1,1.2,0.9,1.3,1.9c0.5-0.6,0.9-1.1,1.4-1.4c0.5-0.3,1.2-0.5,1.6-0.3c0.4,0.2,0.8,1,0.7,1.5
		c-0.2,0.9-0.8,1.8-1.2,2.6c-0.3,0.5-0.5,1.1-0.8,1.6c0.1,0.1,0.2,0.2,0.3,0.2c0.3-0.1,0.6-0.2,0.8-0.4c0.4-0.3,0.7-0.7,1-1
		c1.1-1.4,2.2-3,3.4-4.3c0.3-0.4,1.1-0.4,1.7-0.6c0.1,0.1,0.1,0.2,0.2,0.3c-0.6,1-1.2,1.9-1.8,2.9c-0.5,0.9-1.3,1.8-1.4,2.9
		c0.1,0.1,0.2,0.2,0.3,0.2c0.4-0.3,1-0.6,1.3-1c0.9-1.3,1.8-2.6,2.6-3.9c0.8-1.3,0.8-1.3,2.4-1.1c-1.2,2-2.4,4-3.6,6
		c0.1,0.1,0.2,0.2,0.3,0.2c1.4-1.3,2.7-2.6,4.1-3.9c0.1,0,0.1,0.1,0.2,0.1c-0.1,0.2-0.2,0.5-0.4,0.7c-1.1,1-2.2,2.1-3.4,3
		c-0.7,0.5-1.3,1.1-1.8,1.9c-1.1,1.9-2.4,3.7-4.3,4.8c-0.7,0.4-1.6,0.7-2.4,0.8c-0.9,0.1-1.5-0.5-1.2-1.3c0.3-0.8,0.8-1.7,1.4-2.2
		c1.4-1,3-1.8,4.4-2.7c0.5-0.3,0.9-0.7,1.3-1.1C159.4,54.1,159.4,54,159.3,53.9z M120.3,40.5c-4.1,0.7-6.8,3.4-9.5,6.3
		c1.1,0.1,2.3,0.1,3.4,0.1c0.2,0,0.5-0.2,0.6-0.4C116.2,44.2,118,42.1,120.3,40.5z M158.4,56c-0.1-0.2-0.3-0.3-0.4-0.5
		c-1.5,1-3,2-4.3,3.1c-0.9,0.7-1.2,1.9-0.7,2.2c0.9,0.6,1.7,0,2.2-0.6C156.4,58.9,157.4,57.4,158.4,56z M122.6,53.1
		c0.1,0.2,0.2,0.5,0.3,0.5c0.3,0,0.6-0.1,0.8-0.3c1.1-1.3,2.2-2.6,3.2-3.9c0.2-0.3,0.2-0.7,0.2-1.1c-0.4,0.1-1,0-1.2,0.2
		c-1.1,1.1-2,2.3-3,3.5C122.7,52.3,122.7,52.7,122.6,53.1z M131,53.6c0.1,0,0.2,0.1,0.3,0.1c0.3-0.2,0.7-0.3,1-0.6
		c1-1.2,1.9-2.5,2.9-3.8c0.2-0.3,0.1-0.7,0.1-1c-0.4,0.1-0.9,0-1.1,0.2c-1,1.2-2,2.4-2.9,3.7C130.9,52.6,131,53.1,131,53.6z
		 M140.6,50.5c1.3-0.4,2.6-0.8,3.1-2.3C142.3,48.4,141.5,49.5,140.6,50.5z"/>
	<path class="st0" d="M55.6,19.6c0-1.5,0-2.8,0-4.3c-1.3,0.1-2.5,0.3-3.8,0.4c-0.6,0.1-1.2,0.2-1.8,0.1c-0.4-0.1-0.7-0.4-1.1-0.7
		c0.3-0.4,0.4-0.9,0.8-1c0.8-0.3,1.6-0.4,2.4-0.5c1.1-0.1,2.3,0,3.6,0c-0.1-1.5-0.2-2.8-0.3-4c0-0.1,0-0.2,0-0.3
		c-0.2-1.3,0.2-1.9,1-2c1-0.1,1.7,0.8,1.7,1.9c-0.1,1.2-0.1,2.4-0.2,3.6c-0.1,0.6,0.2,0.8,0.8,0.8c1.4,0,2.7,0.1,4.1,0.2
		c0.6,0,1.1,0.1,1.1,0.9c0,0.8-0.5,1.2-1.2,1.2c-0.9-0.1-1.9-0.3-2.8-0.4c-0.6-0.1-1.2-0.1-1.9-0.1c0,1.4,0,2.7,0,4
		c3.7,0.4,7.3,0.7,11,1.1c-0.9,2.4-2.1,2.9-4.2,2.3c-2.1-0.6-4.3-0.9-6.4-1.3c-0.3-0.1-0.7,0-1.1,0.1c0,0.1-0.1,0.2-0.1,0.3
		c0.6,0.5,1.2,1,1.7,1.5c1.6,1.4,3.2,2.7,4.7,4.2c0.4,0.4,0.7,1.3,0.5,1.8c-0.1,0.4-1,0.6-1.6,0.7c-3.2,0.2-6.4,0.3-9.7,0.5
		c-0.2,0-0.5,0.1-0.7,0c-0.5-0.2-1.3-0.3-1.5-0.6c-0.2-0.4,0-1.1,0.3-1.5c1-1.4,2.2-2.7,3.3-4.1c0.6-0.8,1.2-1.5,1.9-2.5
		c-2.8-0.2-5.3,0.2-7.7,1.3c-0.5,0.2-1,0.4-1.5,0.4c-0.8,0-1.2-0.6-1-1.4c0.3-1,1.1-1.5,2.2-1.6C50.5,20,53,19.8,55.6,19.6z
		 M61.3,28.1c-0.4-1-1.3-1.8-2.7-2.6c-2.2-1.3-2.4-1.2-4,0.8c-0.2,0.3-0.4,0.5-0.6,0.8c-0.6,0.9-0.5,1.2,0.6,1.3
		c1.9,0.1,3.8,0,5.7,0C60.7,28.3,61,28.1,61.3,28.1z"/>
	<path class="st0" d="M72.7,53.9c-1.7,0.6-2.3,0.3-3-1.9c-0.3,0.4-0.5,0.9-0.9,1.2c-0.6,0.6-1.3,1.3-2.1,0.9
		c-0.5-0.3-0.8-1.1-1.2-1.6c-2.5,2.3-3.2,2.3-3.9-0.2c-0.7,0.6-1.4,1.3-2.2,1.7c-0.9,0.5-1.4,0.2-2.1-1.2c-0.3,0.3-0.6,0.8-1,0.9
		c-0.5,0.2-1.2,0.4-1.7,0.2c-0.4-0.2-0.6-0.9-0.6-1.5c0-0.4,0.2-0.8,0.4-1.2c0.4-0.8,0.9-1.5,1.4-2.3c0.7-1.2,0.7-1.2,2.3-1.2
		c-0.8,2-2.4,3.6-2.8,5.8c0.1,0.1,0.2,0.2,0.4,0.2c0.4-0.4,0.9-0.7,1.3-1.2c0.8-1.1,1.6-2.3,2.2-3.5c0.6-1.1,1.2-1.6,2.5-1.2
		c-1,1.9-2,3.8-3,5.6c0.1,0.1,0.3,0.2,0.4,0.4c0.5-0.4,1-0.8,1.4-1.2c0.9-1,1.6-2.1,2.6-2.9c1-0.8,2.2-1.3,3.3-1.9
		c0.8-0.4,1.2-0.1,1.8,0.7c0.7-1.3,1.4-2.6,2.1-3.9c0.2-0.3,0.4-0.7,0.5-1c0.9-1.7,0.3-1.3,2.4-1.3c-0.2,0.4-0.4,0.7-0.6,1
		c-1.7,2.7-3.4,5.5-5.1,8.2c-0.3,0.6-0.6,1.2-0.8,1.9c0.1,0.1,0.2,0.2,0.4,0.3c0.5-0.4,1-0.7,1.4-1.1c1-1,1.8-2.2,2.9-3.1
		c1-0.8,2.2-1.4,3.5-1.8c0.9-0.3,2-0.1,3.3-0.1c-1.2,2.1-2.4,4.1-3.6,6c0.1,0.1,0.2,0.1,0.2,0.2c1-1,1.9-2,2.9-2.9
		c1.6-1.4,3.3-2.8,5.4-3.3c0.7-0.2,1.5-0.1,1.7,0.7c0.1,0.4-0.4,1.2-0.8,1.4c-0.9,0.5-1.9,0.8-2.9,1.1c-1,0.2-1.3,0.8-1.5,1.7
		c-0.1,0.9,0.3,1.3,1.2,1c1.2-0.4,2.2-1.1,2.8-2.2c0.4-0.7,1-1.2,1.8-1.6c0.9-0.5,1.5-1.7,2.2-2.6c0.3-0.4,0.4-0.9,0.7-1.2
		c0.3-0.2,0.7-0.2,1.1-0.4c0.1,0.1,0.1,0.2,0.2,0.4c-0.3,0.4-0.6,0.9-1,1.2c-0.6,0.5-0.8,1.1-0.5,1.8c0.2,0.5,0.3,1,0.5,1.4
		c0.5,1.4,0.2,2.3-1.1,3c-0.8,0.4-1.8,0.6-2.6,0.6c-0.6,0-1.2-0.7-1.8-1.1c-2.4,1.9-4.6,1.8-4.9-1.1c-1.3,0.9-2.6,1.8-3.8,2.7
		c-0.4,0.3-0.6,0.8-0.8,1.2c-1.1,1.9-2.4,3.7-4.3,4.8c-0.8,0.5-1.7,0.8-2.5,0.9c-1,0.1-1.6-0.7-1.2-1.6c0.4-0.8,0.9-1.6,1.6-2.1
		c1.3-0.9,2.8-1.6,4.2-2.5c0.5-0.3,0.9-0.8,1.4-1.2C72.9,54,72.8,53.9,72.7,53.9z M71.8,56c-0.1-0.1-0.2-0.2-0.3-0.2
		c-1.7,0.8-3.3,1.6-4.6,3c-0.3,0.4-0.6,0.9-0.7,1.3c-0.2,0.7,0.2,1.1,0.9,0.9c0.7-0.3,1.5-0.6,1.9-1.2C70.1,58.6,70.9,57.3,71.8,56z
		 M71.4,53.1c0.1,0.2,0.2,0.5,0.3,0.6c0.3,0,0.6,0,0.8-0.2c1.1-1.3,2.2-2.7,3.3-4.1c0.2-0.2,0-0.7,0.1-1c-0.3,0.1-0.8,0-1,0.2
		c-1.1,1.2-2.1,2.5-3.1,3.8C71.5,52.4,71.5,52.7,71.4,53.1z M63,53.1c0.1,0.2,0.2,0.5,0.3,0.5c0.3,0,0.6-0.1,0.8-0.3
		c1.1-1.4,2.1-2.8,3.1-4.2c0.1-0.2,0-0.6,0-0.9c-0.3,0.1-0.8,0-0.9,0.2c-1.1,1.2-2.1,2.5-3.1,3.8C63.2,52.5,63.1,52.8,63,53.1z
		 M87.8,48.6c-0.1,0-0.3,0-0.4-0.1c-0.3,0.6-0.9,1.1-1,1.7c-0.1,0.8-0.4,1.1-1,1.4c-0.4,0.2-0.8,0.7-1.1,1.2
		c-0.1,0.2,0.3,0.9,0.4,0.9c0.5,0,1.1-0.1,1.5-0.4c0.4-0.3,0.9-0.8,1-1.2C87.5,50.8,87.6,49.7,87.8,48.6z M80.9,50.6
		c1.3-0.5,2.6-0.8,3.2-2.2C82.6,48.4,81.8,49.6,80.9,50.6z"/>
	<path class="st0" d="M116.6,15c0.6-0.5,1.2-1,1.9-1.6c-0.3-0.2-0.6-0.3-0.8-0.5c-0.2-0.2-0.4-0.7-0.3-0.8c0.3-0.2,0.7-0.5,1-0.4
		c0.5,0.1,0.9,0.4,1.4,0.7c0.3-0.3,0.6-0.6,0.9-0.8c0.3-0.2,0.6-0.1,1-0.2c0,0.4,0.2,0.8,0,1.2c-0.1,0.3-0.6,0.5-0.8,0.6
		c0.7,0.9,1.3,1.6,2,2.6c0.4,0,1.2-0.1,2,0c1.1,0.1,1.4-0.4,1.3-1.4c-0.7-0.1-1.4-0.2-2.1-0.3c-0.2-0.1-0.4-0.4-0.6-0.6
		c0.3-0.2,0.5-0.4,0.8-0.5c0.5-0.1,1-0.1,1.5,0c0.9,0.1,1.2-0.3,1.1-1.2c-0.7-0.1-1.4-0.1-2.1-0.3c-0.3-0.1-0.6-0.4-0.8-0.7
		c0.3-0.2,0.6-0.5,0.9-0.6c0.6-0.1,1.3,0.1,1.9,0.1c0.3,0,0.7-0.4,0.7-0.6c-0.1-0.3-0.4-0.7-0.6-0.8c-0.5-0.2-1.1,0-1.5-0.2
		c-0.4-0.1-0.6-0.6-0.8-1c0.3-0.2,0.7-0.8,1-0.7c1.2,0.3,2.5,0.6,3.7,1.1c0.8,0.3,0.5,1.1,0.3,1.8c-0.7,1.9-1.2,3.8-1.8,5.7
		c1.2,0.4,2.1,0.7,2.9,1.1c0.8,0.4,1.3,1.1,1.4,2.1c0,0.4,0.3,0.9,0.3,1.3c0,0.5,0,1.2-0.3,1.6c-0.4,0.7-1,0.7-1.4,0
		c-0.3-0.5-0.5-1.1-0.6-1.7c-0.4-1.7-0.8-2.2-2.5-2.3c-3-0.2-6.1-0.3-9.2-0.3c-2.2,0-4.5,0.2-6.7,0.3c-0.6,0-1.2,0.2-1.8,0.4
		c-0.8,0.2-1.1,0.8-1.2,1.6c0,0.7,0,1.5-0.2,2.2c-0.1,0.4-0.7,0.9-1,0.9c-0.3,0-0.9-0.6-0.9-0.9c0.1-1.5,0.3-2.9,0.5-4.4
		c0.2-0.9,0.9-1.1,1.7-1.3c0.7-0.1,1.5-0.2,2.4-0.3c-0.4-2-0.6-4-1.1-5.9c-0.4-1.7-0.2-2.2,1.5-2.6c0.8-0.2,1.5-0.3,2.3-0.4
		c0.3,0,0.6,0.3,0.9,0.4c-0.2,0.3-0.3,0.7-0.6,0.9c-0.3,0.2-0.9,0.2-1.2,0.5c-0.3,0.2-0.5,0.6-0.8,0.8c0.1,0.1,0.1,0.3,0.2,0.4
		c0.7,0,1.4-0.1,2.1,0c0.3,0.1,0.6,0.4,1,0.6c-0.3,0.2-0.6,0.6-0.9,0.7c-0.3,0.1-0.7,0-1,0c-1.2,0-1.2,0.1-0.9,1.5
		c0.7,0,1.5-0.1,2.3,0c0.4,0,0.7,0.4,1,0.6c-0.3,0.3-0.6,0.7-1,0.8c-0.7,0.1-1.4,0-2.2,0c0.1,0.6,0.1,1,0.2,1.4c2.9,0,5.8,0,8.7,0
		c-1-1.5-1.7-1.6-3.1-0.9c-0.5,0.3-1.1,0.4-1.7,0.6C116.8,15.3,116.7,15.2,116.6,15z"/>
	<path class="st0" d="M80.5,22.7c0-1.9,0-3.9,0-5.8c0-1.7,0.4-2.2,2.1-2.1c2.9,0.1,5.9,0.2,8.8,0.4c1.6,0.1,1.9,0.6,1.6,2.1
		c-0.1,0.6-0.1,1.2-0.1,1.8c-0.1,1.2-0.6,1.7-1.8,1.8c-1.4,0.1-2.9,0-4.3,0.1c-1.1,0-2.2,0.1-3.3,0.2c-0.6,0-1,0.4-0.8,0.9
		c0.1,0.3,0.5,0.7,0.8,0.7c2.2,0.2,4.4,0.3,6.6,0.4c0.6,0,1.2,0,1.8,0.1c1.9,0.1,2.2,0.5,2.2,2.4c0,0.6,0,1.3,0,1.9
		c-0.1,1.8-0.9,2.6-2.7,2.6c-1.8,0-3.7-0.1-5.5,0c-0.9,0-1.9,0.3-2.8,0.5c-1.9,0.4-2.6-0.1-2.6-1.9C80.5,26.8,80.5,24.8,80.5,22.7
		C80.5,22.7,80.5,22.7,80.5,22.7z M88.3,28.4C88.3,28.3,88.3,28.3,88.3,28.4c0.7-0.1,1.4-0.1,2.1,0c0.9,0.1,1.4-0.2,1.4-1.2
		c0-1.5-0.2-2-1.3-2.1c-2.3,0-4.5,0-6.8,0.2c-1.1,0.1-1,1-1.1,1.8c0,0.8,0.2,1.4,1.1,1.4C85.3,28.4,86.8,28.4,88.3,28.4z M86.2,19.1
		c0,0.1,0,0.1,0,0.2c1.1-0.1,2.2-0.2,3.4-0.2c0.9,0,1-0.6,1.1-1.3c0.1-0.7-0.2-1.2-1-1.3c-2,0-4,0-6,0c-0.9,0-0.9,0.8-0.9,1.4
		c0,0.7,0.3,1.1,1,1.1C84.6,19.1,85.4,19.1,86.2,19.1z"/>
	<path class="st0" d="M13.7,2c2.9,2.5,5.9,4.9,8.7,7.5c1.8,1.7,2,4.4,0.4,6.3c-0.9,1-2,1.9-3,2.8c-0.1,0-0.2-0.1-0.3-0.1
		c0-0.8,0.1-1.6,0.1-2.4c0.1-1,0.3-2.1,0.2-3.1c0-0.6-0.4-1.3-0.8-1.8c-1.2-1.1-2.5-2.1-3.8-3.3c-1.7,1.4-3.4,2.9-5.2,4.3
		c-0.7-0.6-1.5-1.2-2.1-1.8C6.8,9.4,6.8,8,8,6.9C9.8,5.3,11.7,3.7,13.7,2z"/>
	<path class="st0" d="M162.9,18.4c-1.1,2.4-3.1,1.4-4.9,1.5c-0.3,1.6-0.6,3.1-0.8,4.7c-0.1,1.6,0.5,2.4,2.1,2.9
		c2.1,0.6,4.2,0.4,6.2-0.5c0.3-0.1,0.7-0.3,1-0.4c0.5,2.6-1.9,4.8-4.3,4.1c-1.3-0.4-2.5-0.8-3.7-1.4c-2.7-1.2-3.3-2.5-2.9-5.4
		c0.2-1.1,0.3-2.2,0.3-3.2c0-0.3-0.3-0.8-0.6-0.8c-0.5,0-1.2-0.3-1.3,0.6c-0.1,0.6-0.3,1.3-0.4,1.9c-0.8,3.6-3.1,6-6.5,7.2
		c-0.3,0.1-0.7,0.2-1,0.1c-0.5-0.2-1.1-0.4-1.2-0.8c-0.1-0.3,0.2-1,0.6-1.2c0.6-0.4,1.3-0.6,1.9-0.9c2.4-0.9,4-2.5,4.6-5.1
		c0.1-0.5,0.1-1,0.1-1.6c-1,0.2-1.9,0.4-2.7,0.4c-0.3,0-0.9-0.2-1-0.4c-0.1-0.3-0.1-1,0.2-1.2c0.4-0.4,1.1-0.8,1.6-0.8
		c3.8-0.1,7.7,0,11.5,0C162,18.1,162.4,18.3,162.9,18.4z"/>
	<path class="st0" d="M119.4,22.6c-0.2-0.3-0.3-0.3-0.4-0.4c-0.3-0.3-0.6-0.6-1-0.9c0.5-0.2,1-0.4,1.5-0.5c0.3,0,0.7,0.2,1,0.3
		c0.2,0.1,0.6,0.2,0.7,0.1c0.4-0.3,0.7-0.8,1-1.2c-0.5-0.2-0.9-0.7-1.4-0.6c-1.6,0.2-3.3,0.5-4.9,0.7c-0.1,0-0.2,0.1-0.3,0
		c-0.6-0.1-1.1-0.3-1.7-0.5c0.4-0.4,0.8-0.9,1.3-1.3c0.1-0.1,0.3-0.1,0.4-0.1c2.6,0,5.2-0.1,7.8,0c0.6,0,1.3,0.7,1.9,1.1
		c-0.5,0.6-0.9,1.3-1.4,1.7c-0.7,0.5-1.5,0.7-2.2,1.1c0,0.1,0,0.2,0,0.3c2.7,0,5.4,0,8.1,0c-0.6,1.5-1.6,2.1-3.1,1.9
		c-1.5-0.2-3-0.3-4.5-0.4c-0.1,1.1,0,2.1-0.2,3c-0.5,3.2-4.2,4.8-6.5,4.4c-1.4-0.2-2.8-1.9-2.9-3.5c1.1,0.3,2.2,0.6,3.3,0.8
		c0.7,0.1,1.5,0.1,2.2,0c1.3-0.2,2.1-1.1,2.5-2.3c0.6-1.9,0.2-2.4-1.7-2.2c-2,0.2-4.1,0.6-6.1,0.9c-0.3,0-0.6,0.1-0.8,0.1
		c-0.4-0.1-1.1-0.2-1.1-0.4c-0.1-0.5,0.1-1.1,0.3-1.5c0.2-0.3,0.7-0.5,1.1-0.6c1.4-0.1,2.8-0.2,4.3-0.2
		C117.4,22.6,118.3,22.6,119.4,22.6z"/>
	<path class="st0" d="M140.2,21.6c0,1.9,0,3.7,0,5.5c0,0.6,0,1.3-0.2,1.9c-0.1,0.4-0.5,0.7-0.8,1c-0.3-0.3-0.7-0.6-0.8-1
		c-0.2-1-0.3-2-0.3-3c0-3.9,0.1-7.8,0.2-11.7c0-1.3-0.1-2.6-0.2-4c0-0.3-0.1-0.6-0.3-0.8c-0.5-0.8-0.4-1.4,0.4-1.7
		c0.8-0.2,1.7-0.3,2.5-0.2c1.2,0.1,2.4,0.4,3.6,0.7c0.4,0.1,0.9,0.2,1.3,0.3c1.1,0.5,1.3,1.4,0.7,2.3c-0.2,0.3-0.5,0.6-0.7,0.9
		c-1.6,1.5-1.5,1.5-0.3,3.3c0.4,0.6,0.8,1.4,1,2.1c0.3,1.1,0,2-0.9,2.8C143.8,21.4,142.2,21.9,140.2,21.6z M140.1,20.6
		c1.8-0.2,3.4-1.3,4-2.8c0.4-0.9,0-1.6-0.6-2.2c-0.3-0.3-0.8-0.4-1.2-0.5c-0.3-0.1-0.7,0-1,0c0.1-0.4,0.2-0.9,0.4-1.3
		c0.4-0.5,1-0.9,1.3-1.4c0.4-0.7,0.6-1.6,0.8-2.4c-0.8-0.2-1.6-0.6-2.4-0.7c-0.9-0.2-1.4,0.3-1.4,1.2c0,3.2-0.1,6.4-0.1,9.6
		C140,20.2,140.1,20.4,140.1,20.6z"/>
	<path class="st0" d="M7.3,11.6c3.5,3,6.9,5.8,10.3,8.7c-2.9,2.5-5.7,4.9-8.8,7.4C8.4,22.3,7.9,17,7.3,11.6z"/>
	<path class="st0" d="M85.7,10.2c-0.1-0.6-0.2-1.1-0.3-1.6C85.3,8,85,7.3,85.7,7.1c0.6-0.2,1.4-0.1,1.9,0.2c0.4,0.2,0.5,1,0.5,1.6
		c0,0.4-0.2,0.7-0.4,1.3c0.5,0,0.8,0,1.1,0c2.2,0.1,4.4,0,6.5,0.2c0.9,0.1,1.9,0.5,2.8,0.9c0.3,0.1,0.7,0.4,0.7,0.7
		c0.3,1.5,0.5,3.1,0.7,4.6c0,0.3-0.6,0.7-0.9,1.1c-0.3-0.3-0.9-0.6-1-1c-0.3-0.9-0.5-1.9-0.7-2.9c-0.2-0.9-0.7-1.4-1.7-1.5
		C94.6,12.1,94,12,93.4,12c-4.7,0-9.3,0-13.9,0.1c-2.5,0.1-2.9,0.7-3,3.3c0,0.6,0,1.2-0.1,1.7c-0.1,0.7-0.5,1.2-1.3,1.1
		c-0.8-0.1-1.1-0.6-1-1.3c0.3-1.8,0.5-3.7,1-5.5c0.3-1.1,1.5-1.1,2.4-1.2c2.3-0.1,4.7-0.1,7-0.2C84.8,10.2,85.2,10.2,85.7,10.2z"/>
	<path class="st0" d="M50.7,48.5c-1.9-0.8-2.7-2.2-2.4-4.2c0.4-2.1,1.9-3.2,3.7-3.8c1.4-0.4,2.9-0.5,4.4-0.8
		c1.1-0.3,2.2-0.7,3.2-1.1c0.7-0.2,1.4-0.5,2.1-0.7c0.1,0.1,0.1,0.3,0.2,0.4c-0.5,0.3-1.1,0.7-1.6,0.8c-1.4,0.3-2.4,1.1-3.1,2.1
		c-1.5,2.2-2.9,4.4-4.3,6.7c-0.1,0.1-0.1,0.2-0.1,0.4c1.8,0,3.1-0.9,3.8-2.6c0.1-0.3,0.4-0.5,0.5-0.7c0,0.3,0.2,0.7,0.1,1
		c-0.7,1.6-2.1,2.5-3.9,2.8c-0.7,0.1-1,0.4-1.3,0.9c-0.6,1.2-1.2,2.5-2,3.6c-2.1,3.1-5,4.7-8.8,4.6c-0.8,0-1.7-0.4-2.4-0.8
		c-0.8-0.5-1-1.6-0.6-2.4c0.3-0.6,0.9-0.8,1.5-0.5c0.3,0.1,0.6,0.7,0.5,0.9c-0.2,0.4-0.7,0.6-1,0.9c-0.1,0.1-0.3,0-0.4,0.1
		c0.2,0.9,0.9,1.2,1.7,1.4c2,0.4,3.9-0.1,5.3-1.6c1-0.9,1.7-2.1,2.5-3.2C49.1,51.4,49.9,49.9,50.7,48.5z M50.9,48.2
		c1.8-3.2,3.8-6,6.7-8.2c-1.4,0.3-2.8,0.6-4.2,1c-1.8,0.6-3.2,1.7-4,3.5C48.8,46.1,49.3,47.5,50.9,48.2z"/>
	<path class="st0" d="M154.2,9.8c-0.2-1.9-0.1-2.1,0.9-2.1c1.1,0,1.2,0.2,1.2,2.2c1.3,0.1,2.7,0.2,4,0.3c0.3,0,0.6,0.1,0.9,0.1
		c2.9,0.5,2.9,2.3,2.5,4.8c0,0.3-0.5,0.6-0.8,0.9c-0.3-0.3-0.7-0.6-0.8-0.9c-0.3-0.7-0.4-1.4-0.5-2.1c-0.2-0.8-0.6-1.3-1.5-1.3
		c-2.9,0.1-5.8,0.1-8.6,0.2c-1.5,0.1-1.8,0.5-1.9,2.1c0,0.5,0,1-0.2,1.4c-0.1,0.3-0.5,0.7-0.8,0.7c-0.3,0-0.8-0.3-0.9-0.6
		c-0.5-0.8,0-4.1,0.8-4.6c0.6-0.4,1.4-0.6,2.2-0.7C151.8,10,153,10,154.2,9.8C154.2,9.9,154.2,9.9,154.2,9.8z"/>
	<path class="st0" d="M11,13.1c1.4-1.2,2.8-2.4,4.3-3.6c1,0.9,2,1.7,3,2.6c0.6,0.5,0.5,1.1,0,1.6c-1.1,0.9-2.2,1.8-3.3,2.8
		C13.6,15.3,12.3,14.2,11,13.1z"/>
	<path class="st0" d="M47.7,25.5c-0.4,0.6-0.6,0.9-0.9,1.2c-1.2,1-2.4,2.1-3.7,3c-0.5,0.4-1.4,0.7-1.9,0.5c-0.5-0.3-0.9-1.2-1-1.8
		c-0.1-0.8,0.7-1.2,1.4-1.4c1.6-0.5,3.3-1,4.9-1.5C46.8,25.4,47.1,25.5,47.7,25.5z"/>
	<path class="st0" d="M14.6,61.4c-2.9,0-5.7,0-8.6,0c-0.3,0-0.7-0.3-1-0.4c0.3-0.1,0.6-0.4,0.9-0.4c5.8,0,11.6,0,17.3,0
		c0.3,0,0.7,0.2,1,0.4c-0.3,0.2-0.7,0.4-1,0.4C20.4,61.4,17.5,61.4,14.6,61.4z"/>
	<path class="st0" d="M122.9,11.3c-0.4-0.2-0.8-0.2-1.1-0.5c-1.1-0.8-2.2-1-3.4-0.1c-0.4,0.3-1,0.3-1.5,0.5
		c-0.1-0.1-0.1-0.3-0.2-0.4c0.6-0.5,1.2-1,1.9-1.5c-0.4-0.2-0.8-0.3-1-0.6c-0.2-0.2-0.4-0.6-0.3-0.8c0.1-0.2,0.5-0.5,0.8-0.5
		c0.3,0,0.7,0.1,0.9,0.3c0.8,0.6,1.4,0.4,2-0.2c0.4-0.4,0.8-0.9,1.4-0.3c0.5,0.6,0,1-0.4,1.4c-0.2,0.2-0.4,0.3-0.6,0.5
		c0.6,0.7,1.2,1.3,1.7,1.9C123.1,11.1,123,11.2,122.9,11.3z"/>
	<path class="st0" d="M156.8,15.7c-1.2,0.1-2.3,0.3-3.5,0.4c-0.6,0-1.4,0.5-1.7-0.4c-0.2-0.7,0.7-1.7,1.7-1.7c0.7,0,1.5,0.1,2.2,0.2
		c1,0,2.1,0,3.1,0.1c0.4,0,0.7,0.5,1,0.7c-0.3,0.3-0.6,0.7-1,0.8C158,15.9,157.4,15.8,156.8,15.7C156.8,15.8,156.8,15.8,156.8,15.7z
		"/>
	<path class="st0" d="M46,13.8c-1.4-0.4-2.8-0.8-4.1-1.3c-0.8-0.3-0.9-1-0.4-1.7c0.7-0.9,2.1-0.9,2.9,0c0.6,0.7,1.4,1.2,2,1.8
		c0.2,0.2,0.4,0.6,0.3,0.8C46.7,13.6,46.3,13.7,46,13.8z"/>
	<path class="st0" d="M41.2,20.5c-0.5-0.3-1.4-0.5-1.6-0.9c-0.2-0.4,0.2-1.2,0.6-1.6c0.5-0.6,1.3-0.6,2-0.2c0.6,0.4,1.4,0.6,2,0.9
		c0.3,0.2,0.5,0.5,0.7,0.8C44.7,19.6,44.4,20,44,20c-0.9,0.1-1.8,0.2-2.7,0.3C41.3,20.4,41.2,20.4,41.2,20.5z"/>
	<path class="st0" d="M20,59.4c-3.4,0-6.8,0-10.1,0c-0.2,0-0.3-0.2-0.5-0.3c0.2-0.2,0.3-0.5,0.5-0.5c0.5-0.1,1.1,0,1.6,0
		c2.6,0,5.2,0,7.7,0C19.7,58.6,20.2,58.5,20,59.4z"/>
</g>
</svg>
