<?xml version="1.0" encoding="utf-8"?>
<!-- Generator: Adobe Illustrator 24.0.2, SVG Export Plug-In . SVG Version: 6.00 Build 0)  -->
<svg version="1.1" id="圖層_1" xmlns="http://www.w3.org/2000/svg" xmlns:xlink="http://www.w3.org/1999/xlink" x="0px" y="0px"
	 viewBox="0 0 30 30" style="enable-background:new 0 0 30 30;" xml:space="preserve">
<style type="text/css">
	.st0{fill:#FFFFFF;}
</style>
<g id="XMLID_342_">
	<g id="XMLID_170_">
		<g id="XMLID_172_">
			<path id="XMLID_754_" class="st0" d="M13.1,4.5c-0.2,0-0.3-0.1-0.4-0.3c-0.1-0.3-0.1-0.5-0.1-0.8C12.6,2.1,13.6,1,15,1
				s2.4,1.1,2.4,2.4c0,0.3,0,0.5-0.1,0.8c-0.1,0.2-0.3,0.3-0.5,0.3c-0.2-0.1-0.3-0.3-0.3-0.5c0.1-0.2,0.1-0.3,0.1-0.5
				c0-0.9-0.7-1.5-1.5-1.5c-0.9,0-1.5,0.7-1.5,1.5c0,0.2,0,0.4,0.1,0.5c0.1,0.2,0,0.5-0.3,0.5C13.2,4.5,13.2,4.5,13.1,4.5z"/>
		</g>
		<g id="XMLID_208_">
			<g id="XMLID_171_">
				<path id="XMLID_751_" class="st0" d="M15,9l-2.1-0.7C12,8,11.1,8,10.1,8.3C8.1,9,5.8,9,5.7,9H5C4.6,9,4.1,8.8,3.8,8.4
					C3.5,8.1,3.3,7.6,3.3,7.1c0-0.9,0.8-1.6,1.8-1.6l0.5,0C7.7,5.8,9.3,5.6,10,4.9c2.2-2.2,4.1-1,4.8-0.4c0.1,0.1,0.2,0.1,0.3,0
					c0.7-0.6,2.7-1.7,4.8,0.4c0.7,0.7,2.3,1,4.4,0.6l0.1,0h0.4c1,0,1.8,0.7,1.8,1.6c0,0.5-0.1,0.9-0.5,1.3C25.8,8.8,25.4,9,24.9,9
					h-0.6c-0.1,0-2.5,0-4.5-0.7C18.9,8,17.9,8,17,8.3L15,9z M18.4,7.2c0.6,0,1.1,0.1,1.7,0.3c1.9,0.6,4.2,0.6,4.2,0.6h0.6
					c0.2,0,0.5-0.1,0.6-0.3c0.2-0.2,0.3-0.4,0.2-0.7c0-0.5-0.5-0.8-1-0.8h-0.4c-2.4,0.4-4.2,0.1-5.1-0.9c-1.5-1.5-2.8-1-3.7-0.4
					c-0.4,0.3-1,0.3-1.4,0c-0.8-0.7-2.2-1.2-3.7,0.4c-1,1-2.7,1.2-5.1,0.9H5.1c-0.5,0-0.9,0.4-1,0.8c0,0.2,0.1,0.5,0.2,0.7
					C4.6,8,4.8,8.1,5,8.1h0.6c0,0,2.3,0,4.2-0.6c1.1-0.4,2.2-0.4,3.3,0L15,8.1l1.8-0.6C17.3,7.3,17.8,7.2,18.4,7.2z"/>
			</g>
			<g id="XMLID_178_">
				<g id="XMLID_177_">
					<g id="XMLID_174_">
						<g id="XMLID_261_">
							<path id="XMLID_748_" class="st0" d="M25.8,20.9h-4c-1.7,0-3.1-1.4-3.1-3.1v-1.5h10.2v1.5C28.9,19.5,27.5,20.9,25.8,20.9z
								 M19.5,17.1v0.7c0,1.3,1,2.3,2.3,2.3h4c1.3,0,2.3-1,2.3-2.3v-0.7H19.5z"/>
						</g>
						<g id="XMLID_173_">
							<path id="XMLID_747_" class="st0" d="M28.5,18.5h-6.9c-0.2,0-0.4-0.2-0.4-0.4c0-0.2,0.2-0.4,0.4-0.4h6.9
								c0.2,0,0.4,0.2,0.4,0.4C28.9,18.3,28.7,18.5,28.5,18.5z"/>
						</g>
					</g>
					<g id="XMLID_175_">
						<path id="XMLID_746_" class="st0" d="M20,17.1c0,0-0.1,0-0.1,0c-0.2-0.1-0.3-0.3-0.3-0.5l3-8.1c0.1-0.2,0.3-0.3,0.5-0.3
							c0.2,0.1,0.3,0.3,0.3,0.5l-3,8.1C20.3,17,20.2,17.1,20,17.1z"/>
					</g>
					<g id="XMLID_176_">
						<path id="XMLID_745_" class="st0" d="M27.7,17.1c-0.2,0-0.3-0.1-0.4-0.3l-3.2-8.1c-0.1-0.2,0-0.5,0.2-0.6
							c0.2-0.1,0.5,0,0.6,0.2l3.2,8.1c0.1,0.2,0,0.5-0.2,0.6C27.8,17.1,27.8,17.1,27.7,17.1z"/>
					</g>
				</g>
				<g id="XMLID_179_">
					<g id="XMLID_205_">
						<g id="XMLID_260_">
							<path id="XMLID_742_" class="st0" d="M8.1,20.9h-4c-1.7,0-3.1-1.4-3.1-3.1v-1.5h10.2v1.5C11.3,19.5,9.9,20.9,8.1,20.9z
								 M1.9,17.1v0.7c0,1.3,1,2.3,2.3,2.3h4c1.3,0,2.3-1,2.3-2.3v-0.7H1.9z"/>
						</g>
						<g id="XMLID_206_">
							<path id="XMLID_741_" class="st0" d="M10.8,18.5H3.9c-0.2,0-0.4-0.2-0.4-0.4c0-0.2,0.2-0.4,0.4-0.4h6.9
								c0.2,0,0.4,0.2,0.4,0.4C11.3,18.3,11.1,18.5,10.8,18.5z"/>
						</g>
					</g>
					<g id="XMLID_204_">
						<path id="XMLID_740_" class="st0" d="M2.3,17.1c0,0-0.1,0-0.1,0C2,17,1.8,16.8,1.9,16.5l3-8.1c0.1-0.2,0.3-0.3,0.5-0.3
							c0.2,0.1,0.3,0.3,0.3,0.5l-3,8.1C2.7,17,2.5,17.1,2.3,17.1z"/>
					</g>
					<g id="XMLID_203_">
						<path id="XMLID_739_" class="st0" d="M10.1,17.1c-0.2,0-0.3-0.1-0.4-0.3L6.5,8.7c-0.1-0.2,0-0.5,0.2-0.6
							c0.2-0.1,0.5,0,0.6,0.2l3.2,8.1c0.1,0.2,0,0.5-0.2,0.6C10.2,17.1,10.1,17.1,10.1,17.1z"/>
					</g>
				</g>
			</g>
			<g id="XMLID_259_">
				<path id="XMLID_738_" class="st0" d="M16.7,20.9h-3.4V8.2c0-0.2,0.2-0.4,0.4-0.4c0.2,0,0.4,0.2,0.4,0.4v11.9h1.7V8.2
					c0-0.2,0.2-0.4,0.4-0.4s0.4,0.2,0.4,0.4V20.9z"/>
			</g>
			<g id="XMLID_230_">
				<g id="XMLID_232_">
					<path id="XMLID_735_" class="st0" d="M21.3,25.5H8.6v-1.7c0-1,0.8-1.8,1.8-1.8h9.1c1,0,1.8,0.8,1.8,1.8V25.5z M9.5,24.6h11
						v-0.8c0-0.5-0.4-0.9-0.9-0.9h-9.1c-0.5,0-0.9,0.4-0.9,0.9V24.6z"/>
				</g>
				<g id="XMLID_231_">
					<path id="XMLID_732_" class="st0" d="M19.8,22.8h-9.6v-1.1c0-0.9,0.7-1.7,1.7-1.7h6.3c0.9,0,1.7,0.7,1.7,1.7V22.8z M11,22h7.9
						v-0.3c0-0.4-0.4-0.8-0.8-0.8h-6.3c-0.4,0-0.8,0.4-0.8,0.8V22z"/>
				</g>
			</g>
		</g>
	</g>
	<g id="XMLID_207_">
		<path id="XMLID_729_" class="st0" d="M29,29.1H0.9v-4.5H29V29.1z M1.8,28.3h26.4v-2.8H1.8V28.3z"/>
	</g>
</g>
</svg>
