<?xml version="1.0" encoding="utf-8"?>
<!-- Generator: Adobe Illustrator 24.0.2, SVG Export Plug-In . SVG Version: 6.00 Build 0)  -->
<svg version="1.1" id="圖層_1" xmlns="http://www.w3.org/2000/svg" xmlns:xlink="http://www.w3.org/1999/xlink" x="0px" y="0px"
	 viewBox="0 0 30 30" style="enable-background:new 0 0 30 30;" xml:space="preserve">
<style type="text/css">
	.st0{fill:#FFFFFF;}
</style>
<g id="XMLID_52_">
	<g id="XMLID_696_">
		<g id="XMLID_697_">
			<g id="XMLID_700_">
				<g id="XMLID_702_">
					<path id="XMLID_813_" class="st0" d="M8,30c-0.3,0-0.5-0.1-0.7-0.3l-7-7c-0.4-0.4-0.4-1,0-1.4L3,18.6c0.4-0.4,1.1-0.4,1.4,0
						l7,7c0.4,0.4,0.4,1,0,1.4l-2.7,2.7C8.5,29.9,8.3,30,8,30z M3.7,19.2C3.7,19.2,3.6,19.2,3.7,19.2L3.7,19.2l-2.8,2.7
						c0,0,0,0.1,0,0.2l7,7c0.1,0.1,0.1,0.1,0.2,0l2.7-2.7c0,0,0-0.1,0-0.2L3.7,19.2C3.7,19.2,3.7,19.2,3.7,19.2z"/>
				</g>
				<g id="XMLID_701_">
					<path id="XMLID_812_" class="st0" d="M4.7,23.5c-0.1,0-0.2,0-0.3-0.1l-1.6-1.6c-0.2-0.2-0.2-0.5,0-0.6C3,21,3.3,21,3.5,21.1
						L5,22.7c0.2,0.2,0.2,0.5,0,0.6C5,23.4,4.8,23.5,4.7,23.5z"/>
				</g>
			</g>
			<g id="XMLID_699_">
				<path id="XMLID_811_" class="st0" d="M21.5,21.3h-7.3c-0.2,0-0.5-0.2-0.5-0.5c0-0.2,0.2-0.5,0.5-0.5h6.4
					C20.4,19,19.2,18,17.8,18h-1.3c-0.6,0-1.2-0.3-1.7-0.7c-0.3-0.3-0.7-0.4-1.1-0.4H9c-0.4,0-0.8,0.2-1.1,0.4L5.2,20
					c-0.2,0.2-0.5,0.2-0.6,0s-0.2-0.5,0-0.6l2.7-2.7c0.5-0.5,1.1-0.7,1.7-0.7h4.7c0.6,0,1.2,0.3,1.7,0.7c0.3,0.3,0.7,0.4,1.1,0.4
					h1.3c2.1,0,3.7,1.7,3.7,3.7V21.3z"/>
			</g>
			<g id="XMLID_698_">
				<path id="XMLID_810_" class="st0" d="M10.5,25.8c-0.1,0-0.2,0-0.3-0.1c-0.2-0.2-0.2-0.5,0-0.6l1.3-1.3h9.1
					c4.3-2.3,7.4-7.4,8.2-9c-3.2-1.2-4.7,1.7-4.7,1.9l-0.1,0.2l-4.2,1.7c-0.2,0.1-0.5,0-0.6-0.2c-0.1-0.2,0-0.5,0.2-0.6l3.9-1.6
					c0.4-0.7,2.5-3.8,6.3-1.9l0.4,0.2l-0.2,0.4c-0.1,0.3-3.6,7.1-8.9,9.8l-0.1,0.1h-8.9l-1,1C10.7,25.7,10.6,25.8,10.5,25.8z"/>
			</g>
		</g>
	</g>
	<g id="XMLID_506_">
		<g id="XMLID_511_">
			<path id="XMLID_807_" class="st0" d="M25.8,8.2c-2.2,0-4-1.8-4-4c0-2.2,1.8-4,4-4c2.2,0,4,1.8,4,4C29.8,6.4,28,8.2,25.8,8.2z
				 M25.8,1.1c-1.7,0-3.1,1.4-3.1,3.1s1.4,3.1,3.1,3.1c1.7,0,3.1-1.4,3.1-3.1S27.5,1.1,25.8,1.1z"/>
		</g>
		<g id="XMLID_507_">
			<g id="XMLID_510_">
				<path id="XMLID_806_" class="st0" d="M25.7,6.4c-0.3,0-0.7-0.1-1.1-0.2c-0.2-0.1-0.3-0.4-0.2-0.6c0.1-0.2,0.4-0.3,0.6-0.2
					c0.5,0.2,0.8,0.2,1.1,0.1c0.2-0.1,0.3-0.3,0.3-0.3c0-0.1,0-0.4-0.6-0.6c-0.8-0.3-1.3-0.7-1.3-1.3c0-0.5,0.2-0.8,0.4-0.9
					c0.6-0.4,1.6,0,1.8,0c0.2,0.1,0.3,0.4,0.2,0.6c-0.1,0.2-0.4,0.3-0.6,0.2C26,3,25.5,2.9,25.4,3c0,0,0,0.1,0,0.2
					c0,0.1,0.2,0.3,0.7,0.4c1.2,0.4,1.3,1.3,1.2,1.7c0,0.1-0.2,0.6-0.7,0.9C26.2,6.3,26,6.4,25.7,6.4z"/>
			</g>
			<g id="XMLID_509_">
				<path id="XMLID_805_" class="st0" d="M25.7,7.1c-0.2,0-0.5-0.2-0.5-0.5V5.9c0-0.2,0.2-0.5,0.5-0.5c0.2,0,0.5,0.2,0.5,0.5v0.7
					C26.1,6.9,25.9,7.1,25.7,7.1z"/>
			</g>
			<g id="XMLID_508_">
				<path id="XMLID_804_" class="st0" d="M25.7,3c-0.2,0-0.5-0.2-0.5-0.5V1.8c0-0.2,0.2-0.5,0.5-0.5c0.2,0,0.5,0.2,0.5,0.5v0.7
					C26.1,2.8,25.9,3,25.7,3z"/>
			</g>
		</g>
	</g>
	<g id="XMLID_43_">
		<path id="XMLID_803_" class="st0" d="M11.6,15c-0.1,0-0.2,0-0.3-0.1c-0.2-0.2-0.2-0.5,0-0.6l3.9-3.9l2.1,2.1L21.8,8
			c0.2-0.2,0.5-0.2,0.6,0c0.2,0.2,0.2,0.5,0,0.6l-5.1,5.1l-2.1-2.1l-3.2,3.2C11.8,14.9,11.7,15,11.6,15z"/>
	</g>
	<g id="XMLID_44_">
		<path id="XMLID_802_" class="st0" d="M22.4,10.2c-0.2,0-0.5-0.2-0.5-0.5V8.4h-1.4c-0.2,0-0.5-0.2-0.5-0.5c0-0.2,0.2-0.5,0.5-0.5
			h2.3v2.3C22.9,10,22.7,10.2,22.4,10.2z"/>
	</g>
	<g id="XMLID_42_">
		<path id="XMLID_801_" class="st0" d="M17.5,15H7.9c-0.2,0-0.5-0.2-0.5-0.5c0-0.2,0.2-0.5,0.5-0.5h9.6c0.2,0,0.5,0.2,0.5,0.5
			C17.9,14.8,17.7,15,17.5,15z"/>
	</g>
	<g id="XMLID_45_">
		<path id="XMLID_800_" class="st0" d="M20.9,15h-2c-0.2,0-0.5-0.2-0.5-0.5c0-0.2,0.2-0.5,0.5-0.5h2c0.2,0,0.5,0.2,0.5,0.5
			C21.4,14.8,21.1,15,20.9,15z"/>
	</g>
	<g id="XMLID_51_">
		<path id="XMLID_799_" class="st0" d="M22.8,15h-0.6c-0.2,0-0.5-0.2-0.5-0.5c0-0.2,0.2-0.5,0.5-0.5h0.6c0.2,0,0.5,0.2,0.5,0.5
			C23.3,14.8,23.1,15,22.8,15z"/>
	</g>
</g>
</svg>
