<?xml version="1.0" encoding="utf-8"?>
<!-- Generator: Adobe Illustrator 24.0.2, SVG Export Plug-In . SVG Version: 6.00 Build 0)  -->
<svg version="1.1" id="圖層_1" xmlns="http://www.w3.org/2000/svg" xmlns:xlink="http://www.w3.org/1999/xlink" x="0px" y="0px"
	 viewBox="0 0 30 30" style="enable-background:new 0 0 30 30;" xml:space="preserve">
<style type="text/css">
	.st0{fill:#FFFFFF;}
</style>
<g id="XMLID_263_">
	<g id="XMLID_271_">
		<path id="XMLID_877_" class="st0" d="M10.3,19.1l-0.9-0.9H8.1v-1.3l-0.9-0.9L8.1,15v-1.3h1.3l0.9-0.9l0.9,0.9h1.3V15l0.9,0.9
			l-0.9,0.9v1.3h-1.3L10.3,19.1z M9,17.3h0.8l0.6,0.6l0.6-0.6h0.8v-0.8l0.6-0.6l-0.6-0.6v-0.8h-0.8L10.3,14l-0.6,0.6H9v0.8l-0.6,0.6
			L9,16.5V17.3z"/>
	</g>
	<g id="XMLID_270_">
		<polygon id="XMLID_876_" class="st0" points="29,22.5 13.5,22.5 13.5,21.6 28.1,21.6 28.1,2.4 1.7,2.4 1.7,21.6 7.4,21.6 
			7.4,22.5 0.8,22.5 0.8,1.5 29,1.5 		"/>
	</g>
	<g id="XMLID_269_">
		<path id="XMLID_875_" class="st0" d="M24.7,20.8H13.5v-0.9h10.4c0.2-1.3,1.2-2.3,2.5-2.5V6.6c-1.3-0.2-2.3-1.2-2.5-2.5h-18
			C5.7,5.4,4.7,6.4,3.4,6.6v10.8c1.3,0.2,2.3,1.2,2.5,2.5h1.5v0.9H5.1v-0.4c0-1.2-1-2.1-2.1-2.1H2.5V5.8h0.4c1.2,0,2.1-1,2.1-2.1
			V3.2h19.6v0.4c0,1.2,1,2.1,2.1,2.1h0.4v12.4h-0.4c-1.2,0-2.1,1-2.1,2.1V20.8z"/>
	</g>
	<g id="XMLID_268_">
		<path id="XMLID_872_" class="st0" d="M10.3,20.2C8,20.2,6,18.3,6,15.9s1.9-4.3,4.3-4.3c2.4,0,4.3,1.9,4.3,4.3S12.7,20.2,10.3,20.2
			z M10.3,12.4c-1.9,0-3.5,1.6-3.5,3.5c0,1.9,1.6,3.5,3.5,3.5c1.9,0,3.5-1.6,3.5-3.5C13.8,14,12.3,12.4,10.3,12.4z"/>
	</g>
	<g id="XMLID_267_">
		<path id="XMLID_869_" class="st0" d="M12.6,28l-2.3-1.4L8.1,28v-9.4l0.6,0.3c1,0.6,2.3,0.6,3.3,0l0.6-0.3V28z M10.3,25.6l1.4,0.9
			V20c-0.9,0.3-2,0.3-2.9,0v6.5L10.3,25.6z"/>
	</g>
	<g id="XMLID_266_">
		<rect id="XMLID_868_" x="14.2" y="7.7" class="st0" width="9.3" height="0.9"/>
	</g>
	<g id="XMLID_265_">
		<rect id="XMLID_867_" x="14.2" y="9.8" class="st0" width="9.3" height="0.9"/>
	</g>
	<g id="XMLID_264_">
		<rect id="XMLID_866_" x="18.9" y="11.9" class="st0" width="4.6" height="0.9"/>
	</g>
</g>
</svg>
