<?xml version="1.0" encoding="utf-8"?>
<!-- Generator: Adobe Illustrator 24.0.2, SVG Export Plug-In . SVG Version: 6.00 Build 0)  -->
<svg version="1.1" id="圖層_1" xmlns="http://www.w3.org/2000/svg" xmlns:xlink="http://www.w3.org/1999/xlink" x="0px" y="0px"
	 viewBox="0 0 30 30" style="enable-background:new 0 0 30 30;" xml:space="preserve">
<style type="text/css">
	.st0{fill:#FFFFFF;}
</style>
<path class="st0" d="M29.5,14.1c0,0.1,0,0.2,0,0.3c-0.1,0.1-0.2,0.2-0.3,0.3c-0.6,0.6-1.2,1.2-1.8,1.8c-0.3,0.3-0.5,0.3-0.9,0
	c-0.2-0.2-0.4-0.3-0.6-0.5c0,2.8,0,5.5,0,8.3c0.3,0,0.6,0,0.9,0c0.4,0,0.6,0.2,0.6,0.6c0,0.7,0,1.5,0,2.2c0,0.3-0.1,0.6-0.3,0.8
	c-8.1,0-16.2,0-24.4,0c-0.2-0.2-0.3-0.5-0.3-0.8c0-0.7,0-1.4,0-2.2c0-0.4,0.2-0.6,0.6-0.6c0.3,0,0.6,0,0.9,0c0-2.8,0-5.5,0-8.2
	c0,0-0.1,0-0.1,0c-0.2,0.1-0.4,0.3-0.5,0.4c-0.4,0.3-0.6,0.3-0.9-0.1c-0.6-0.6-1.2-1.2-1.8-1.8c-0.4-0.4-0.4-0.7,0.1-1.1
	c2.1-1.7,4.3-3.4,6.4-5c1.7-1.4,3.5-2.7,5.2-4.1c1.4-1.2,3.8-1.2,5.2,0c0.9,0.7,1.8,1.5,2.7,2.2c0.1,0.1,0.2,0.1,0.3,0.2
	c0-0.6,0-1.1,0-1.6c0-0.6,0.2-0.8,0.7-0.8c1.4,0,2.8,0,4.2,0c0.6,0,0.7,0.2,0.7,0.7c0,1.9,0,3.9,0,5.8c0,0.2,0.1,0.4,0.2,0.5
	c0.9,0.7,1.8,1.4,2.7,2.1C29.2,13.8,29.4,13.9,29.5,14.1z M5,24.4c6.6,0,13.2,0,19.8,0c0-0.2,0-0.3,0-0.5c0-2.7,0-5.5,0-8.2
	c0-0.3-0.1-0.5-0.3-0.7c-3-2.3-6-4.6-9-7c-0.6-0.5-0.6-0.5-1.3,0c-3,2.3-6,4.7-9,7C5.1,15.2,5,15.4,5,15.6c0,2.8,0,5.6,0,8.3
	C5,24.1,5,24.2,5,24.4z M2.9,15.5c0.1-0.1,0.2-0.1,0.3-0.2c1.6-1.3,3.3-2.5,4.9-3.8c2-1.6,4-3.2,6-4.7c0.5-0.4,1.2-0.4,1.7,0.1
	C16,7,16.1,7.1,16.3,7.3c2.7,2.1,5.4,4.2,8.2,6.4c0.8,0.6,1.6,1.3,2.4,1.9c0.4-0.4,0.8-0.9,1.2-1.3c-0.1-0.1-0.1-0.1-0.2-0.2
	c-1.8-1.4-3.7-2.9-5.5-4.3c-1.8-1.5-3.7-2.9-5.5-4.4c-0.7-0.6-1.5-0.8-2.4-0.6c-0.7,0.1-1.3,0.6-1.9,1C9,8.5,5.5,11.3,2,14
	c-0.1,0.1-0.2,0.2-0.3,0.2C2.1,14.7,2.5,15.1,2.9,15.5z M3.5,26.9c7.6,0,15.2,0,22.8,0c0-0.5,0-0.9,0-1.4c-7.6,0-15.2,0-22.8,0
	C3.5,26,3.5,26.4,3.5,26.9z M21.6,5.6c0,0.7,0,1.4,0,2c0,0.1,0.1,0.2,0.2,0.3c1,0.8,2.1,1.6,3.1,2.5c0.1,0,0.1,0.1,0.2,0.1
	c0-1.7,0-3.3,0-4.9C23.9,5.6,22.8,5.6,21.6,5.6z"/>
<path class="st0" d="M14.9,12.8c0.6-0.6,1.3-1,2.1-1.2c2.8-0.6,5.2,2,4.6,4.8c-0.3,1.5-1.1,2.8-2,3.9c-1.2,1.5-2.7,2.7-4.3,3.8
	c-0.2,0.1-0.4,0.2-0.7,0c-2-1.4-3.9-3-5.3-5.1c-0.6-0.9-1-2-1.2-3.1c-0.3-2.2,1.4-4.3,3.6-4.4C13,11.5,14,11.9,14.9,12.8z
	 M12.3,12.6c-2,0-3.3,1.6-3.1,3.4c0.2,1.2,0.7,2.2,1.4,3.1c1.1,1.5,2.5,2.8,4.1,3.9c0.2,0.1,0.3,0.1,0.4,0c1.2-0.8,2.2-1.7,3.2-2.8
	c1-1.1,1.9-2.4,2.2-3.9c0.3-1.4-0.3-2.8-1.6-3.4c-1.3-0.6-2.7-0.2-3.6,1c-0.3,0.5-0.7,0.5-1,0C13.8,13,13.1,12.6,12.3,12.6z"/>
<path class="st0" d="M9.9,15.5c0-1,0.6-1.8,1.4-2.1c0.4-0.1,0.7,0,0.8,0.4c0,0.3-0.1,0.4-0.3,0.6c-0.8,0.4-1,0.9-0.7,1.7
	c0.1,0.4,0.4,0.8,0.6,1.2c0.2,0.4,0.2,0.6-0.1,0.8c-0.3,0.2-0.6,0.1-0.8-0.2C10.3,17.2,9.9,16.5,9.9,15.5z"/>
</svg>
