<?xml version="1.0" encoding="utf-8"?>
<!-- Generator: Adobe Illustrator 24.0.2, SVG Export Plug-In . SVG Version: 6.00 Build 0)  -->
<svg version="1.1" id="圖層_1" xmlns="http://www.w3.org/2000/svg" xmlns:xlink="http://www.w3.org/1999/xlink" x="0px" y="0px"
	 viewBox="0 0 30 30" style="enable-background:new 0 0 30 30;" xml:space="preserve">
<style type="text/css">
	.st0{fill:#FFFFFF;}
</style>
<g>
	<path class="st0" d="M7.4,6.6c-1.8,0-3.3-1.5-3.3-3.3S5.6,0,7.4,0c1.8,0,3.3,1.5,3.3,3.3S9.2,6.6,7.4,6.6z M7.4,1
		C6.1,1,5.1,2,5.1,3.3s1,2.3,2.3,2.3c1.3,0,2.3-1,2.3-2.3S8.6,1,7.4,1z"/>
	<path class="st0" d="M11.3,30H6.4c-0.3,0-0.5-0.2-0.5-0.5v-10c-0.7-0.2-1.2-1-1.2-1.8V9.7c0-1.2,1-2.2,2.2-2.2h0.8
		c1,0,1.8,0.8,1.8,1.8v0.6l2.4,2.2h4c0.9,0,1.7,0.8,1.7,1.7c0,0.9-0.8,1.7-1.7,1.7h-4.6c-0.4,0-0.8-0.2-1.1-0.4l-0.7-0.6v12.2h0.2
		c1.1,0,2.1,0.9,2.1,2.1v0.7C11.8,29.8,11.5,30,11.3,30z M6.9,29h3.9v-0.3c0-0.6-0.5-1.1-1.1-1.1H9c-0.3,0-0.5-0.2-0.5-0.5V13.4
		c0-0.2,0.1-0.4,0.3-0.4c0.2-0.1,0.4,0,0.5,0.1l1.5,1.3c0.1,0.1,0.3,0.2,0.5,0.2h4.6c0.4,0,0.7-0.3,0.7-0.7c0-0.4-0.3-0.7-0.7-0.7
		h-4.2c-0.1,0-0.2,0-0.3-0.1l-2.7-2.4c-0.1-0.1-0.2-0.2-0.2-0.4V9.3c0-0.5-0.4-0.8-0.8-0.8H6.9C6.2,8.5,5.7,9,5.7,9.7v8.1
		c0,0.5,0.4,0.9,0.7,0.9c0.3,0,0.5,0.2,0.5,0.5V29z"/>
	<path class="st0" d="M9,13.9c-0.1,0-0.2,0-0.3-0.1l-1.3-1.2c-0.2-0.2-0.2-0.5,0-0.7c0.2-0.2,0.5-0.2,0.7,0L9.3,13
		c0.2,0.2,0.2,0.5,0,0.7C9.3,13.8,9.1,13.9,9,13.9z"/>
	<path class="st0" d="M18,25.2c-0.3,0-0.5-0.2-0.5-0.5c0-1.4,0.7-2.8,1.8-3.5c0.6-0.4,0.9-1.1,0.9-1.9c-0.1-1.1-1-2-2-2
		c-0.6,0-1.2,0.2-1.6,0.6c-0.4,0.4-0.7,1-0.7,1.6c0,0.3-0.2,0.5-0.5,0.5c-0.3,0-0.5-0.2-0.5-0.5c0-0.9,0.3-1.7,1-2.3
		c0.6-0.6,1.4-0.9,2.3-0.9c1.6,0.1,2.9,1.4,3,3c0,1.1-0.4,2.1-1.3,2.7c-0.8,0.6-1.3,1.6-1.3,2.7C18.5,24.9,18.2,25.2,18,25.2z"/>
	<path class="st0" d="M18,28.2c-0.7,0-1.3-0.6-1.3-1.3c0-0.7,0.6-1.3,1.3-1.3c0.7,0,1.3,0.6,1.3,1.3C19.2,27.6,18.7,28.2,18,28.2z
		 M18,26.7c-0.2,0-0.3,0.1-0.3,0.3c0,0.2,0.1,0.3,0.3,0.3s0.3-0.1,0.3-0.3C18.3,26.8,18.1,26.7,18,26.7z"/>
	<path class="st0" d="M18,30c-4.3,0-7.8-3.5-7.8-7.8s3.5-7.8,7.8-7.8c4.3,0,7.8,3.5,7.8,7.8S22.3,30,18,30z M18,15.4
		c-3.7,0-6.8,3-6.8,6.8s3,6.8,6.8,6.8s6.8-3,6.8-6.8S21.7,15.4,18,15.4z"/>
	<path class="st0" d="M24.9,30H5.1c-0.3,0-0.5-0.2-0.5-0.5c0-0.3,0.2-0.5,0.5-0.5h19.8c0.3,0,0.5,0.2,0.5,0.5
		C25.4,29.8,25.2,30,24.9,30z"/>
</g>
</svg>
