<?xml version="1.0" encoding="utf-8"?>
<!-- Generator: Adobe Illustrator 24.0.2, SVG Export Plug-In . SVG Version: 6.00 Build 0)  -->
<svg version="1.1" id="圖層_1" xmlns="http://www.w3.org/2000/svg" xmlns:xlink="http://www.w3.org/1999/xlink" x="0px" y="0px"
	 viewBox="0 0 30 30" style="enable-background:new 0 0 30 30;" xml:space="preserve">
<style type="text/css">
	.st0{fill:#FFFFFF;}
</style>
<g>
	<path class="st0" d="M17.2,30h-5.7c-0.3,0-0.5-0.2-0.5-0.5V1.1c0-0.3,0.2-0.5,0.5-0.5h5.7c0.3,0,0.5,0.2,0.5,0.5v28.4
		C17.7,29.8,17.5,30,17.2,30z M12,29h4.7V1.6H12V29z"/>
	<path class="st0" d="M17.2,28.2h-5.7c-0.3,0-0.5-0.2-0.5-0.5v-2.1c0-0.3,0.2-0.5,0.5-0.5h5.7c0.3,0,0.5,0.2,0.5,0.5v2.1
		C17.7,28,17.5,28.2,17.2,28.2z M12,27.2h4.7v-1.2H12V27.2z"/>
	<path class="st0" d="M19.8,30c-0.3,0-0.5-0.2-0.5-0.4L16.9,1.2c0-0.3,0.2-0.5,0.4-0.5L25.5,0c0.1,0,0.3,0,0.4,0.1
		C26,0.2,26,0.3,26,0.4l2.4,28.3c0,0.1,0,0.3-0.1,0.4c-0.1,0.1-0.2,0.2-0.3,0.2L19.8,30C19.8,30,19.8,30,19.8,30z M17.9,1.6L20.2,29
		l7.2-0.6L25.1,1L17.9,1.6z"/>
	<path class="st0" d="M20.8,21.1c-0.1,0-0.2,0-0.3-0.1c-0.1-0.1-0.2-0.2-0.2-0.3L19.1,6.3c0-0.3,0.2-0.5,0.4-0.5l4.6-0.4
		c0.1,0,0.3,0,0.4,0.1c0.1,0.1,0.2,0.2,0.2,0.3l1.2,14.4c0,0.3-0.2,0.5-0.4,0.5L20.8,21.1C20.8,21.1,20.8,21.1,20.8,21.1z M20.1,6.7
		l1.1,13.4l3.7-0.3L23.8,6.4L20.1,6.7z"/>
	<path class="st0" d="M23.4,25.6c-0.5,0-0.9-0.2-1.2-0.5c-0.4-0.3-0.6-0.8-0.7-1.3c-0.1-1.1,0.7-2,1.8-2.1c1.1-0.1,2,0.7,2.1,1.8
		c0,0.5-0.1,1-0.4,1.4c-0.3,0.4-0.8,0.6-1.3,0.7C23.5,25.6,23.5,25.6,23.4,25.6z M23.4,22.7C23.4,22.7,23.3,22.7,23.4,22.7
		c-0.6,0-1,0.5-1,1c0,0.3,0.1,0.5,0.3,0.7c0.2,0.2,0.4,0.2,0.7,0.2c0.3,0,0.5-0.1,0.7-0.3c0.2-0.2,0.2-0.4,0.2-0.7
		C24.3,23.1,23.9,22.7,23.4,22.7z"/>
	<path class="st0" d="M21.2,9.7c-0.3,0-0.5-0.2-0.5-0.4c0-0.3,0.2-0.5,0.4-0.5l2-0.2c0.3,0,0.5,0.2,0.5,0.4c0,0.3-0.2,0.5-0.4,0.5
		L21.2,9.7C21.2,9.7,21.2,9.7,21.2,9.7z"/>
	<path class="st0" d="M21.4,11.8c-0.3,0-0.5-0.2-0.5-0.4c0-0.3,0.2-0.5,0.4-0.5l2-0.2c0.3,0,0.5,0.2,0.5,0.4c0,0.3-0.2,0.5-0.4,0.5
		L21.4,11.8C21.4,11.8,21.4,11.8,21.4,11.8z"/>
	<path class="st0" d="M21.5,13.8c-0.3,0-0.5-0.2-0.5-0.4c0-0.3,0.2-0.5,0.4-0.5l2-0.2c0.3,0,0.5,0.2,0.5,0.4c0,0.3-0.2,0.5-0.4,0.5
		L21.5,13.8C21.6,13.8,21.6,13.8,21.5,13.8z"/>
	<path class="st0" d="M14.6,16.8h-0.5c-0.3,0-0.5-0.2-0.5-0.5c0-0.3,0.2-0.5,0.5-0.5h0.5c0.3,0,0.5,0.2,0.5,0.5
		C15.1,16.6,14.9,16.8,14.6,16.8z"/>
	<path class="st0" d="M14.6,9.1h-0.5c-0.3,0-0.5-0.2-0.5-0.5c0-0.3,0.2-0.5,0.5-0.5h0.5c0.3,0,0.5,0.2,0.5,0.5
		C15.1,8.8,14.9,9.1,14.6,9.1z"/>
	<path class="st0" d="M14.6,18.9h-0.5c-0.3,0-0.5-0.2-0.5-0.5c0-0.3,0.2-0.5,0.5-0.5h0.5c0.3,0,0.5,0.2,0.5,0.5
		C15.1,18.7,14.9,18.9,14.6,18.9z"/>
	<path class="st0" d="M10.2,30H2c-0.3,0-0.5-0.2-0.5-0.5V1.1c0-0.3,0.2-0.5,0.5-0.5h8.2c0.3,0,0.5,0.2,0.5,0.5v28.4
		C10.7,29.8,10.4,30,10.2,30z M2.5,29h7.2V1.6H2.5V29z"/>
	<path class="st0" d="M8.4,21.2H3.7c-0.3,0-0.5-0.2-0.5-0.5V6.3c0-0.3,0.2-0.5,0.5-0.5h4.7c0.3,0,0.5,0.2,0.5,0.5v14.4
		C8.9,21,8.7,21.2,8.4,21.2z M4.2,20.2h3.7V6.8H4.2V20.2z"/>
	<path class="st0" d="M6.1,27.7c-1.1,0-1.9-0.9-1.9-1.9c0-1.1,0.9-1.9,1.9-1.9c1.1,0,1.9,0.9,1.9,1.9C8,26.8,7.1,27.7,6.1,27.7z
		 M6.1,24.8c-0.5,0-1,0.4-1,1c0,0.5,0.4,1,1,1s1-0.4,1-1C7,25.2,6.6,24.8,6.1,24.8z"/>
	<path class="st0" d="M7.1,16.8h-2c-0.3,0-0.5-0.2-0.5-0.5c0-0.3,0.2-0.5,0.5-0.5h2c0.3,0,0.5,0.2,0.5,0.5
		C7.5,16.6,7.3,16.8,7.1,16.8z"/>
	<path class="st0" d="M7.1,9.1h-2c-0.3,0-0.5-0.2-0.5-0.5c0-0.3,0.2-0.5,0.5-0.5h2c0.3,0,0.5,0.2,0.5,0.5C7.5,8.8,7.3,9.1,7.1,9.1z"
		/>
	<path class="st0" d="M7.1,18.9h-2c-0.3,0-0.5-0.2-0.5-0.5c0-0.3,0.2-0.5,0.5-0.5h2c0.3,0,0.5,0.2,0.5,0.5
		C7.5,18.7,7.3,18.9,7.1,18.9z"/>
	<path class="st0" d="M29,30H1c-0.3,0-0.5-0.2-0.5-0.5C0.5,29.2,0.7,29,1,29h28c0.3,0,0.5,0.2,0.5,0.5C29.5,29.8,29.3,30,29,30z"/>
</g>
</svg>
