<?xml version="1.0" encoding="utf-8"?>
<!-- Generator: Adobe Illustrator 24.0.2, SVG Export Plug-In . SVG Version: 6.00 Build 0)  -->
<svg version="1.1" id="圖層_1" xmlns="http://www.w3.org/2000/svg" xmlns:xlink="http://www.w3.org/1999/xlink" x="0px" y="0px"
	 viewBox="0 0 270.8 64" style="enable-background:new 0 0 270.8 64;" xml:space="preserve">
<style type="text/css">
	.st0{fill:#333333;}
	.st1{fill:#005BAB;}
</style>
<g>
	<path class="st0" d="M91.7,15.2v1.5h-9.4v1h7.6V19H72.6v-1.4H80v-1h-9.2v-1.5H80v-1.3h2.3v1.3H91.7z M82.3,33.8h9.4v1.6H70.8v-1.6
		H80v-1.1h-6.9v-1.4H80v-1c-4.4,0.1-5.1,0.2-5.6,0.3c-0.1-0.3-0.3-1.1-0.5-1.5c0.4,0,0.8-0.1,1.3-0.3c0.3-0.1,1.2-0.5,2-1h-3.7v-1.3
		h15.2v1.3h-2.3c1.2,0.7,2.3,1.5,3.1,2.1l-1.3,1.1c-0.3-0.3-0.7-0.6-1.2-1l-4.7,0.1v1h7.2v1.4h-7.2V33.8z M71.2,24.3h20.2v3.5h-2.1
		v-2H73.2v2h-2V24.3z M89,19.9v3.5H73.6v-3.5H89z M86.8,21.1H75.7v1.2h11.1V21.1z M79.8,27.9c-0.7,0.5-1.4,0.8-2.1,1.2l7.6-0.1
		c-0.5-0.3-1.1-0.6-1.6-0.9l0.2-0.1H79.8z"/>
	<path class="st0" d="M98.7,24.5c-0.7-0.8-2.2-1.8-3.4-2.5l1.2-1.5c1.2,0.6,2.8,1.6,3.5,2.3L98.7,24.5z M95.8,34.5
		c0.9-1.8,2.1-4.9,3-7.6l1.8,1.2c-0.8,2.5-1.8,5.4-2.8,7.6L95.8,34.5z M99.1,18.3c-0.6-0.8-2.1-1.9-3.3-2.7l1.3-1.5
		c1.2,0.6,2.7,1.7,3.4,2.4L99.1,18.3z M102,22.9c-0.2,1.2-0.6,2.4-1,3.2c-0.2-0.2-0.7-0.5-1-0.7c0.5-0.8,0.7-1.8,0.9-2.8L102,22.9z
		 M105.1,21.9c0-0.2-0.1-0.5-0.2-0.7c-3.1,0.4-3.7,0.5-4.1,0.7c-0.1-0.2-0.3-0.7-0.5-1c0.4,0,0.7-0.4,1.1-0.8
		c0.2-0.2,0.8-0.9,1.3-1.7c-1.4,0.1-1.8,0.2-2.1,0.3c-0.1-0.2-0.3-0.8-0.5-1c0.3,0,0.5-0.3,0.8-0.6c0.2-0.4,1.1-1.7,1.4-3l1.3,0.5
		c-0.4,0.9-1,1.9-1.6,2.7l1.4-0.1c0.2-0.4,0.4-0.7,0.6-1.1l1.3,0.5c-0.8,1.3-1.8,2.6-2.8,3.7l1.8-0.2c-0.1-0.2-0.3-0.5-0.4-0.7
		l1-0.4c0.5,0.7,0.9,1.8,1.1,2.4L105.1,21.9z M116.4,31c0,0,0,0.6-0.1,0.8c-0.4,2-0.9,3-1.5,3.5c-0.6,0.4-1.1,0.5-2,0.6
		c-0.7,0-2.2,0-3.7-0.1c0-0.5-0.3-1.2-0.6-1.7c1.5,0.1,3,0.2,3.6,0.2c0.5,0,0.8,0,1-0.2c0.3-0.2,0.6-0.8,0.9-1.7h-12.4
		c0.4-1.1,0.8-2.5,1.1-3.8h10.5v-1h-11.3v-1.3h13.4V30h-10.8l-0.3,1H116.4z M102.8,25.7c0-0.8-0.2-2-0.5-2.9l1.1-0.3
		c0.3,0.9,0.5,2,0.6,2.8L102.8,25.7z M104.9,25.1c-0.1-0.7-0.4-1.8-0.7-2.6l1-0.3c0.4,0.8,0.7,1.8,0.8,2.5L104.9,25.1z M111.5,17.5
		h-5.7v-1.2h2.4c-0.2-0.5-0.6-1.3-0.8-1.8l1.5-0.3c0.4,0.6,0.8,1.4,1,1.9l-1.1,0.3h2.8V17.5z M106.4,21.9h4.5v3.5h-4.5V21.9z
		 M110.9,19.4h-4.5v-1.1h4.5V19.4z M106.4,20h4.5v1.1h-4.5V20z M107.8,24.4h1.7v-1.3h-1.7V24.4z M113.1,22.8c-0.2,1.2-0.6,2.4-1,3.2
		c-0.2-0.2-0.7-0.6-1-0.7c0.5-0.8,0.7-1.8,0.9-2.8L113.1,22.8z M116.3,21.9c-0.1-0.2-0.2-0.5-0.3-0.8c-3.1,0.4-3.7,0.6-4.1,0.7
		c-0.1-0.2-0.3-0.7-0.5-1c0.3,0,0.7-0.3,1.1-0.8c0.2-0.2,0.8-0.9,1.3-1.7c-1.4,0.1-1.8,0.2-2.1,0.3c-0.1-0.2-0.3-0.8-0.5-1
		c0.3,0,0.5-0.3,0.8-0.6c0.2-0.3,1.1-1.7,1.4-3l1.3,0.5c-0.4,0.9-1,1.9-1.5,2.7l1.4-0.1c0.2-0.4,0.4-0.7,0.6-1.1l1.3,0.6
		c-0.8,1.3-1.7,2.6-2.8,3.7l1.8-0.2c-0.1-0.2-0.3-0.5-0.4-0.7l1-0.4c0.5,0.8,1,1.8,1.2,2.5L116.3,21.9z M114,25.9
		c0-0.8-0.2-2.1-0.5-3.1l1.1-0.3c0.3,1,0.5,2.2,0.6,3L114,25.9z M116.3,22.1c0.5,1,0.9,2.2,1,3l-1,0.5c-0.1-0.8-0.5-2.1-0.9-3.1
		L116.3,22.1z"/>
	<path class="st0" d="M124.6,29.2c-0.6,1.7-1.6,3.6-2.4,4.8c-0.4-0.3-1.1-0.8-1.5-1.1c0.9-1.1,1.7-2.8,2.2-4.3L124.6,29.2z
		 M127.7,27.6v8.1h-2.2v-8.1h-4.6v-1.9h4.6v-2.2h-4.8v-1.9h2.6c-0.1-0.8-0.4-2.1-0.8-3l1.8-0.5c0.4,0.9,0.8,2.2,0.9,3l-1.8,0.5h3.8
		c0.4-1,0.9-2.5,1.2-3.5l2.1,0.4c-0.4,1.1-0.8,2.2-1.2,3h2.8v1.9h-4.4v2.2h4.1v1.9H127.7z M131.7,18.2h-10.6v-1.8h4.4
		c-0.3-0.7-0.6-1.4-0.9-2l2.2-0.6c0.4,0.8,0.9,1.8,1.2,2.6h3.6V18.2z M130,28.5c0.8,1.1,1.6,2.6,2,3.6l-1.6,0.9
		c-0.4-1-1.2-2.6-1.9-3.7L130,28.5z M142.6,23.9h-2.4v11.9H138V23.9h-2.8v0.6c0,3.5-0.3,8.3-2.4,11.3c-0.3-0.4-1.2-1.1-1.7-1.3
		c1.9-2.8,2.1-6.8,2.1-10v-8.3c2.7-0.5,5.6-1.2,7.3-1.9l1.8,1.6c-2,0.8-4.6,1.3-7,1.8v4.2h7.4V23.9z"/>
	<path class="st0" d="M156.1,29.6l0.4,2c-3.4,1.4-7.1,3-9.9,4.1l-1-2.3c1.7-0.6,4.1-1.4,6.6-2.3v-9.1h-5.8v-2.2h5.8v-5.4h2.3v15.9
		L156.1,29.6z M164,32.8c1,0,1.1-1.1,1.3-5.6c0.6,0.5,1.5,0.9,2.1,1.1c-0.2,4.9-0.7,6.7-3.2,6.7h-3c-2.3,0-3-0.8-3-3.6V14.3h2.3v5.4
		h6.5v2.2h-6.5v9.5c0,1.2,0.1,1.4,1,1.4H164z"/>
	<path class="st0" d="M178.5,26.7l0.5,2c-2.5,1.2-5.2,2.4-7.3,3.4l-0.9-2.2c0.9-0.3,2-0.7,3.2-1.2v-6.9h-2.7v-2.1h2.7v-5.3h2.1v5.3
		h2.4v2.1h-2.4v6L178.5,26.7z M189.5,33.4c1.3,0,1.6-0.6,1.8-3.2c0.5,0.3,1.4,0.7,2,0.8c-0.3,3.3-1,4.4-3.6,4.4h-5.5
		c-3,0-3.8-0.7-3.8-3.6v-6.9l-1.7,0.7l-0.8-2l2.5-1.1v-6.4h2.1v5.5l2.7-1.1v-6.6h2.1v5.7l3.2-1.4l1.7,0.6l-0.1,0.4
		c-0.2,3.3-0.6,7.7-1.2,10.5l-1.8-0.5c0.4-2.1,0.6-5.4,0.7-8.3l-2.5,1.1v8.6h-2.1v-7.7l-2.7,1.2v7.9c0,1.3,0.3,1.6,1.8,1.6H189.5z"
		/>
	<path class="st0" d="M205.6,20c-0.1,1.1-0.1,2.3-0.3,3.4h10.2c0,0,0,0.7-0.1,1c-0.5,6.6-0.9,9.3-1.9,10.2c-0.6,0.6-1.3,0.8-2.3,0.9
		c-0.9,0.1-2.4,0-4.1,0c0-0.6-0.3-1.6-0.8-2.2c1.7,0.1,3.3,0.2,4,0.2c0.5,0,0.8,0,1.2-0.3c0.7-0.6,1.1-2.8,1.5-7.7H205
		c-0.8,4.1-2.5,8-7,10.4c-0.3-0.6-1-1.4-1.6-1.8c6-3,6.5-8.9,6.7-14.1h-6.3v-2.2h10.3c-0.3-1-1-2.3-1.5-3.4l2.2-0.8
		c0.6,1.1,1.4,2.5,1.7,3.5l-1.6,0.7h9.9V20H205.6z"/>
	<path class="st0" d="M225.9,24.8c-0.9-0.8-2.9-1.9-4.4-2.6l1.2-1.7c1.5,0.6,3.5,1.6,4.5,2.4L225.9,24.8z M222.3,34.1
		c1.3-1.8,3.1-4.9,4.5-7.6l1.6,1.5c-1.2,2.5-2.8,5.4-4.2,7.6L222.3,34.1z M224.1,14.1c1.5,0.6,3.5,1.7,4.5,2.4l-1.3,1.8
		c-0.9-0.8-2.9-2-4.5-2.7L224.1,14.1z M241.1,35.9c-0.2-0.6-0.5-1.4-1-2.3c-8.5,1-9.6,1.2-10.3,1.6c-0.1-0.5-0.5-1.6-0.8-2.2
		c0.5-0.1,1-0.7,1.5-1.6c0.5-0.7,1.9-3,3-5.5h-4.9v-2.1h5.9v-3.9h-4.9v-2.1h4.9v-3.9h2.3v3.9h5.1v2.1h-5.1v3.9h6v2.1h-6.6
		c-1.1,2.4-2.5,4.7-3.8,6.6l6.7-0.7c-0.6-1-1.2-1.9-1.9-2.8l1.8-0.9c1.7,2.1,3.4,4.9,4.1,6.8L241.1,35.9z"/>
	<path class="st0" d="M254.7,15.6c-0.7,2-1.5,4.3-2.2,6.2c1.6,2,1.9,3.7,1.9,5.1c0,1.4-0.3,2.4-1,2.9c-0.4,0.3-0.8,0.4-1.3,0.5
		c-0.4,0-1,0-1.6,0c0-0.6-0.2-1.4-0.5-1.9c0.5,0,0.9,0,1.2,0c0.3,0,0.5-0.1,0.7-0.2c0.3-0.3,0.5-0.9,0.5-1.6c0-1.2-0.4-2.8-2-4.6
		c0.6-1.6,1.2-3.6,1.7-5.2h-2.6v19h-2v-21h5.4l0.3-0.1L254.7,15.6z M266.4,33.7c0.5,0,0.6-0.4,0.6-3c0.5,0.4,1.3,0.7,1.9,0.8
		c-0.2,3.2-0.7,4-2.2,4h-1.9c-1.8,0-2.3-0.6-2.3-2.6v-5.7h-2.1c-0.4,4.2-1.5,7-6.1,8.6c-0.2-0.6-0.8-1.4-1.3-1.8
		c4-1.3,4.9-3.4,5.2-6.8H255v-2h13.5v2h-4v5.6c0,0.6,0.1,0.7,0.5,0.7H266.4z M256.8,21.2h-1.9v-4.4h5.8c-0.3-0.8-0.7-1.8-1.1-2.5
		l2.1-0.6c0.6,1,1.2,2.2,1.5,3.1h5.2v4.4h-1.9V23h-9.7V21.2z M257,18.7V21h9.3v-2.4H257z"/>
</g>
<g>
	<path class="st0" d="M71.8,43.3v-0.8h4.7v0.8h-1.9v7.8h-0.9v-7.8H71.8z"/>
	<path class="st0" d="M84.3,44.7v6.4h-0.8V50c-0.3,0.4-0.7,0.7-1.2,0.9s-0.9,0.3-1.4,0.3c-0.9,0-1.7-0.3-2.3-1s-1-1.5-1-2.4
		c0-0.9,0.3-1.7,1-2.4s1.4-1,2.3-1c0.5,0,1,0.1,1.4,0.3s0.8,0.6,1.1,1v-1.2H84.3z M81,45.3c-0.5,0-0.9,0.1-1.3,0.3
		c-0.4,0.2-0.7,0.5-0.9,0.9c-0.2,0.4-0.3,0.8-0.3,1.3c0,0.4,0.1,0.9,0.3,1.3c0.2,0.4,0.5,0.7,0.9,1c0.4,0.2,0.8,0.3,1.2,0.3
		c0.4,0,0.9-0.1,1.3-0.3c0.4-0.2,0.7-0.5,0.9-0.9c0.2-0.4,0.3-0.8,0.3-1.3c0-0.7-0.2-1.4-0.7-1.8C82.3,45.6,81.7,45.3,81,45.3z"/>
	<path class="st0" d="M86.7,42.1c0.2,0,0.3,0.1,0.5,0.2c0.1,0.1,0.2,0.3,0.2,0.5c0,0.2-0.1,0.3-0.2,0.5c-0.1,0.1-0.3,0.2-0.5,0.2
		c-0.2,0-0.3-0.1-0.5-0.2s-0.2-0.3-0.2-0.5c0-0.2,0.1-0.3,0.2-0.5S86.5,42.1,86.7,42.1z M86.3,44.7h0.8v6.4h-0.8V44.7z"/>
	<path class="st0" d="M88.3,44.7h0.8l2,4.6l2-4.6h0.1l2,4.6l2-4.6h0.9l-2.8,6.4h-0.2l-2-4.6l-2,4.6H91L88.3,44.7z"/>
	<path class="st0" d="M105.8,44.7v6.4H105V50c-0.3,0.4-0.7,0.7-1.2,0.9s-0.9,0.3-1.4,0.3c-0.9,0-1.7-0.3-2.3-1s-1-1.5-1-2.4
		c0-0.9,0.3-1.7,1-2.4s1.4-1,2.3-1c0.5,0,1,0.1,1.4,0.3s0.8,0.6,1.1,1v-1.2H105.8z M102.5,45.3c-0.5,0-0.9,0.1-1.3,0.3
		c-0.4,0.2-0.7,0.5-0.9,0.9c-0.2,0.4-0.3,0.8-0.3,1.3c0,0.4,0.1,0.9,0.3,1.3c0.2,0.4,0.5,0.7,0.9,1c0.4,0.2,0.8,0.3,1.2,0.3
		c0.4,0,0.9-0.1,1.3-0.3c0.4-0.2,0.7-0.5,0.9-0.9c0.2-0.4,0.3-0.8,0.3-1.3c0-0.7-0.2-1.4-0.7-1.8C103.8,45.6,103.2,45.3,102.5,45.3z
		"/>
	<path class="st0" d="M107.9,44.7h0.8v1.1c0.3-0.4,0.7-0.8,1.1-1s0.8-0.3,1.3-0.3c0.5,0,0.9,0.1,1.3,0.4s0.6,0.6,0.8,1
		s0.3,1,0.3,1.9v3.3h-0.8v-3c0-0.7,0-1.2-0.1-1.5c-0.1-0.4-0.3-0.7-0.5-1s-0.6-0.3-1.1-0.3c-0.5,0-0.9,0.2-1.3,0.5s-0.7,0.7-0.8,1.2
		c-0.1,0.3-0.1,0.9-0.1,1.7v2.3h-0.8V44.7z"/>
	<path class="st0" d="M119.3,51.1v-8.6h0.2l5.7,6.6v-6.6h0.8v8.6h-0.2l-5.7-6.5v6.5H119.3z"/>
	<path class="st0" d="M133.7,49l0.7,0.4c-0.2,0.4-0.5,0.8-0.8,1.1c-0.3,0.3-0.6,0.5-1,0.6c-0.4,0.1-0.8,0.2-1.3,0.2
		c-1,0-1.9-0.3-2.4-1c-0.6-0.7-0.9-1.5-0.9-2.3c0-0.8,0.2-1.5,0.7-2.2c0.6-0.8,1.5-1.2,2.5-1.2c1.1,0,2,0.4,2.6,1.2
		c0.5,0.6,0.7,1.3,0.7,2.2h-5.7c0,0.7,0.3,1.3,0.7,1.8c0.5,0.5,1,0.7,1.7,0.7c0.3,0,0.6-0.1,0.9-0.2c0.3-0.1,0.6-0.3,0.8-0.4
		C133.2,49.7,133.5,49.4,133.7,49z M133.7,47.2c-0.1-0.4-0.3-0.8-0.5-1c-0.2-0.3-0.5-0.5-0.8-0.6c-0.3-0.2-0.7-0.2-1.1-0.2
		c-0.6,0-1.2,0.2-1.6,0.6c-0.3,0.3-0.6,0.7-0.7,1.3H133.7z"/>
	<path class="st0" d="M135.6,44.7h0.8l2,4.6l2-4.6h0.1l2,4.6l2-4.6h0.9l-2.8,6.4h-0.2l-2-4.6l-2,4.6h-0.2L135.6,44.7z"/>
	<path class="st0" d="M149.6,43.3v-0.8h4.7v0.8h-1.9v7.8h-0.9v-7.8H149.6z"/>
	<path class="st0" d="M162.1,44.7v6.4h-0.8V50c-0.3,0.4-0.7,0.7-1.2,0.9s-0.9,0.3-1.4,0.3c-0.9,0-1.7-0.3-2.3-1s-1-1.5-1-2.4
		c0-0.9,0.3-1.7,1-2.4s1.4-1,2.3-1c0.5,0,1,0.1,1.4,0.3s0.8,0.6,1.1,1v-1.2H162.1z M158.8,45.3c-0.5,0-0.9,0.1-1.3,0.3
		c-0.4,0.2-0.7,0.5-0.9,0.9c-0.2,0.4-0.3,0.8-0.3,1.3c0,0.4,0.1,0.9,0.3,1.3c0.2,0.4,0.5,0.7,0.9,1c0.4,0.2,0.8,0.3,1.2,0.3
		c0.4,0,0.9-0.1,1.3-0.3c0.4-0.2,0.7-0.5,0.9-0.9c0.2-0.4,0.3-0.8,0.3-1.3c0-0.7-0.2-1.4-0.7-1.8C160.1,45.6,159.5,45.3,158.8,45.3z
		"/>
	<path class="st0" d="M164.5,42.1c0.2,0,0.3,0.1,0.5,0.2c0.1,0.1,0.2,0.3,0.2,0.5c0,0.2-0.1,0.3-0.2,0.5c-0.1,0.1-0.3,0.2-0.5,0.2
		c-0.2,0-0.3-0.1-0.5-0.2s-0.2-0.3-0.2-0.5c0-0.2,0.1-0.3,0.2-0.5S164.3,42.1,164.5,42.1z M164.1,44.7h0.8v6.4h-0.8V44.7z"/>
	<path class="st0" d="M166.9,44.7h0.8v1.2c0.3-0.4,0.7-0.8,1.1-1c0.4-0.2,0.9-0.3,1.4-0.3c0.9,0,1.7,0.3,2.3,1s1,1.4,1,2.4
		c0,0.9-0.3,1.7-1,2.4s-1.4,1-2.3,1c-0.5,0-1-0.1-1.4-0.3c-0.4-0.2-0.8-0.5-1.2-0.9v3.4h-0.8V44.7z M170.2,45.3
		c-0.7,0-1.3,0.2-1.8,0.7c-0.5,0.5-0.7,1.1-0.7,1.8c0,0.5,0.1,0.9,0.3,1.3c0.2,0.4,0.5,0.7,0.9,0.9c0.4,0.2,0.8,0.3,1.3,0.3
		c0.4,0,0.9-0.1,1.2-0.3c0.4-0.2,0.7-0.5,0.9-1c0.2-0.4,0.3-0.8,0.3-1.3c0-0.5-0.1-0.9-0.3-1.3c-0.2-0.4-0.5-0.7-0.9-0.9
		S170.7,45.3,170.2,45.3z"/>
	<path class="st0" d="M180.8,49l0.7,0.4c-0.2,0.4-0.5,0.8-0.8,1.1c-0.3,0.3-0.6,0.5-1,0.6c-0.4,0.1-0.8,0.2-1.3,0.2
		c-1,0-1.9-0.3-2.4-1c-0.6-0.7-0.9-1.5-0.9-2.3c0-0.8,0.2-1.5,0.7-2.2c0.6-0.8,1.5-1.2,2.5-1.2c1.1,0,2,0.4,2.6,1.2
		c0.5,0.6,0.7,1.3,0.7,2.2H176c0,0.7,0.3,1.3,0.7,1.8c0.5,0.5,1,0.7,1.7,0.7c0.3,0,0.6-0.1,0.9-0.2c0.3-0.1,0.6-0.3,0.8-0.4
		C180.3,49.7,180.5,49.4,180.8,49z M180.8,47.2c-0.1-0.4-0.3-0.8-0.5-1c-0.2-0.3-0.5-0.5-0.8-0.6c-0.3-0.2-0.7-0.2-1.1-0.2
		c-0.6,0-1.2,0.2-1.6,0.6c-0.3,0.3-0.6,0.7-0.7,1.3H180.8z"/>
	<path class="st0" d="M183.8,42.1c0.2,0,0.3,0.1,0.5,0.2c0.1,0.1,0.2,0.3,0.2,0.5c0,0.2-0.1,0.3-0.2,0.5c-0.1,0.1-0.3,0.2-0.5,0.2
		c-0.2,0-0.3-0.1-0.5-0.2s-0.2-0.3-0.2-0.5c0-0.2,0.1-0.3,0.2-0.5S183.6,42.1,183.8,42.1z M183.4,44.7h0.8v6.4h-0.8V44.7z"/>
	<path class="st0" d="M190,51.1v-8.6h1.8c1.3,0,2.2,0.1,2.8,0.3c0.8,0.3,1.5,0.8,2,1.5s0.7,1.6,0.7,2.6c0,0.9-0.2,1.6-0.6,2.3
		s-0.9,1.1-1.5,1.5s-1.4,0.5-2.5,0.5H190z M190.8,50.3h1c1.2,0,2-0.1,2.5-0.2c0.6-0.2,1.2-0.6,1.5-1.1c0.4-0.5,0.6-1.2,0.6-2
		c0-0.8-0.2-1.5-0.6-2.1s-1-1-1.7-1.2c-0.5-0.2-1.4-0.2-2.7-0.2h-0.6V50.3z"/>
	<path class="st0" d="M199.4,42.1c0.2,0,0.3,0.1,0.5,0.2c0.1,0.1,0.2,0.3,0.2,0.5c0,0.2-0.1,0.3-0.2,0.5c-0.1,0.1-0.3,0.2-0.5,0.2
		c-0.2,0-0.3-0.1-0.5-0.2s-0.2-0.3-0.2-0.5c0-0.2,0.1-0.3,0.2-0.5S199.2,42.1,199.4,42.1z M199,44.7h0.8v6.4H199V44.7z"/>
	<path class="st0" d="M205,45.4l-0.5,0.5c-0.4-0.4-0.9-0.6-1.3-0.6c-0.3,0-0.5,0.1-0.7,0.3c-0.2,0.2-0.3,0.4-0.3,0.6
		c0,0.2,0.1,0.4,0.2,0.6c0.2,0.2,0.5,0.4,1,0.7c0.6,0.3,1,0.6,1.2,0.9c0.2,0.3,0.3,0.6,0.3,1c0,0.5-0.2,1-0.6,1.3s-0.8,0.5-1.4,0.5
		c-0.4,0-0.7-0.1-1.1-0.2c-0.3-0.2-0.6-0.4-0.8-0.7l0.5-0.6c0.4,0.5,0.9,0.7,1.3,0.7c0.3,0,0.6-0.1,0.8-0.3c0.2-0.2,0.3-0.5,0.3-0.7
		c0-0.2-0.1-0.4-0.2-0.6c-0.2-0.2-0.5-0.4-1-0.7c-0.6-0.3-1-0.6-1.2-0.9c-0.2-0.3-0.3-0.6-0.3-1c0-0.5,0.2-0.9,0.5-1.2
		c0.3-0.3,0.7-0.5,1.3-0.5C203.8,44.5,204.4,44.8,205,45.4z"/>
	<path class="st0" d="M207.4,42.3h0.8v2.4h1.3v0.7h-1.3v5.7h-0.8v-5.7h-1.1v-0.7h1.1V42.3z"/>
	<path class="st0" d="M210.8,44.7h0.8v0.9c0.2-0.4,0.5-0.6,0.8-0.8s0.6-0.3,0.9-0.3c0.2,0,0.5,0.1,0.7,0.2l-0.4,0.7
		c-0.2-0.1-0.3-0.1-0.4-0.1c-0.3,0-0.5,0.1-0.8,0.3s-0.4,0.6-0.6,1c-0.1,0.4-0.2,1.1-0.2,2.2v2.2h-0.8V44.7z"/>
	<path class="st0" d="M215.3,42.1c0.2,0,0.3,0.1,0.5,0.2c0.1,0.1,0.2,0.3,0.2,0.5c0,0.2-0.1,0.3-0.2,0.5c-0.1,0.1-0.3,0.2-0.5,0.2
		c-0.2,0-0.3-0.1-0.5-0.2s-0.2-0.3-0.2-0.5c0-0.2,0.1-0.3,0.2-0.5S215.1,42.1,215.3,42.1z M214.9,44.7h0.8v6.4h-0.8V44.7z"/>
	<path class="st0" d="M223.9,46l-0.7,0.4c-0.6-0.7-1.3-1.1-2.3-1.1c-0.8,0-1.4,0.2-1.9,0.7c-0.5,0.5-0.8,1.1-0.8,1.8
		c0,0.5,0.1,0.9,0.4,1.3c0.2,0.4,0.6,0.7,1,1c0.4,0.2,0.9,0.3,1.4,0.3c0.9,0,1.7-0.4,2.3-1.1l0.7,0.4c-0.3,0.5-0.7,0.8-1.2,1.1
		c-0.5,0.3-1.1,0.4-1.8,0.4c-1,0-1.8-0.3-2.5-1s-1-1.4-1-2.3c0-0.6,0.2-1.2,0.5-1.7s0.7-0.9,1.3-1.2s1.2-0.4,1.8-0.4
		c0.4,0,0.8,0.1,1.2,0.2s0.7,0.3,1,0.5S223.7,45.7,223.9,46z"/>
	<path class="st0" d="M226.5,42.3h0.8v2.4h1.3v0.7h-1.3v5.7h-0.8v-5.7h-1.1v-0.7h1.1V42.3z"/>
	<path class="st0" d="M241.9,44.1l-0.7,0.5c-0.4-0.5-0.8-0.9-1.4-1.1s-1.1-0.4-1.7-0.4c-0.7,0-1.3,0.2-1.9,0.5s-1,0.8-1.4,1.3
		s-0.5,1.2-0.5,1.9c0,1.1,0.4,1.9,1.1,2.6s1.6,1.1,2.7,1.1c1.2,0,2.2-0.5,3-1.4l0.7,0.5c-0.4,0.5-1,1-1.6,1.3s-1.4,0.4-2.2,0.4
		c-1.5,0-2.7-0.5-3.6-1.5c-0.7-0.8-1.1-1.9-1.1-3.1c0-1.3,0.4-2.3,1.3-3.2s2-1.3,3.3-1.3c0.8,0,1.5,0.2,2.2,0.5
		S241.5,43.5,241.9,44.1z"/>
	<path class="st0" d="M246.8,44.5c1,0,1.8,0.4,2.4,1.1c0.6,0.6,0.9,1.4,0.9,2.3c0,0.9-0.3,1.7-0.9,2.3s-1.4,1-2.4,1
		c-1,0-1.8-0.3-2.4-1s-0.9-1.4-0.9-2.3c0-0.9,0.3-1.6,0.9-2.3C245,44.9,245.9,44.5,246.8,44.5z M246.8,45.3c-0.7,0-1.3,0.3-1.8,0.8
		c-0.5,0.5-0.7,1.1-0.7,1.8c0,0.5,0.1,0.9,0.3,1.3s0.5,0.7,0.9,0.9c0.4,0.2,0.8,0.3,1.3,0.3s0.9-0.1,1.3-0.3
		c0.4-0.2,0.7-0.5,0.9-0.9s0.3-0.8,0.3-1.3c0-0.7-0.2-1.3-0.7-1.8S247.5,45.3,246.8,45.3z"/>
	<path class="st0" d="M251.9,44.7h0.8v3c0,0.7,0,1.2,0.1,1.5c0.1,0.4,0.3,0.7,0.7,0.9c0.3,0.2,0.7,0.3,1.2,0.3s0.8-0.1,1.2-0.3
		c0.3-0.2,0.5-0.5,0.7-0.9c0.1-0.2,0.1-0.8,0.1-1.6v-3h0.8v3.1c0,0.9-0.1,1.5-0.3,2s-0.5,0.8-0.9,1s-0.9,0.4-1.5,0.4
		s-1.1-0.1-1.6-0.4s-0.7-0.6-0.9-1.1s-0.3-1.1-0.3-2V44.7z"/>
	<path class="st0" d="M259.3,44.7h0.8v0.9c0.2-0.4,0.5-0.6,0.8-0.8s0.6-0.3,0.9-0.3c0.2,0,0.5,0.1,0.7,0.2l-0.4,0.7
		c-0.2-0.1-0.3-0.1-0.4-0.1c-0.3,0-0.5,0.1-0.8,0.3s-0.4,0.6-0.6,1c-0.1,0.4-0.2,1.1-0.2,2.2v2.2h-0.8V44.7z"/>
	<path class="st0" d="M264.2,42.3h0.8v2.4h1.3v0.7H265v5.7h-0.8v-5.7h-1.1v-0.7h1.1V42.3z"/>
</g>
<g>
	<path class="st1" d="M31.6,35.3l-0.7,0l-4.1,0l0,12.1c0,1.3,1.1,2.4,2.5,2.4c1.3,0,2.4-1.1,2.4-2.4C31.6,47.4,31.6,35.3,31.6,35.3z
		"/>
	<path class="st1" d="M33.4,50.2h-8.5c-0.6,0-1.1,0.4-1.1,0.9v1.1c0,0.5,0.5,1,1.1,1h8.5c0.6,0,1.1-0.4,1.1-1v-1.1
		C34.5,50.7,34,50.2,33.4,50.2z"/>
	<path class="st1" d="M35.1,54.5H23.4c-0.8,0-1.4,0.4-1.4,1v1.1c0,0.6,0.6,1,1.4,1h11.7c0.8,0,1.4-0.4,1.4-1v-1.1
		C36.5,54.9,35.9,54.5,35.1,54.5z"/>
	<path class="st1" d="M53,19.9c0-0.4-0.3-0.7-0.6-0.9c-0.6-0.4-1.5-0.3-2,0.2c-1.6,1.6-3.9,2.4-6.4,2.4c-2.4,0-4.7-0.9-6.3-2.3
		c-2.1-2-5.2-3.1-8.4-3.1c-3,0-6,1-8.1,2.8l0.1-0.1L21,19.2l0.1-0.1c-1.6,1.6-3.9,2.5-6.4,2.5c-2.5,0-4.8-0.9-6.4-2.5
		c-0.3-0.3-0.6-0.4-1-0.4c-0.3,0-0.7,0.1-1,0.3c-0.3,0.2-0.5,0.6-0.6,0.9l0,0V20c0,0.3,0.1,0.6,0.4,0.9c2.2,2.1,5.3,3.3,8.7,3.3
		c3.1,0,5.9-1,8-2.8l0,0c0,0,0,0,0,0c0,0,0.2-0.2,0.2-0.2c1.6-1.6,3.9-2.5,6.4-2.5c2.4,0,4.7,0.9,6.3,2.3c2.1,2,5.2,3.1,8.4,3.1
		c3.4,0,6.5-1.2,8.6-3.3c0.2-0.2,0.4-0.6,0.4-0.9C53,20,53,19.9,53,19.9z M53,19.9C53,19.9,53,19.9,53,19.9C53,19.9,53,19.9,53,19.9
		L53,19.9z"/>
	<path class="st1" d="M34.3,10.7c0,2.8-2.3,5.1-5.1,5.1c-2.8,0-5.1-2.3-5.1-5.1c0-2.8,2.3-5.1,5.1-5.1C32,5.7,34.3,7.9,34.3,10.7z"
		/>
	<path class="st1" d="M21.7,42c0,0-7.8-17.6-7.8-17.6c-0.1-0.3-0.4-0.5-0.8-0.5c-0.3,0-0.6,0.2-0.8,0.5l0,0L4.6,42
		c-0.1,0.3-0.1,0.6,0,0.9c1.4,2.8,4.8,4.6,8.5,4.6c3.7,0,7.1-1.8,8.5-4.6C21.8,42.7,21.8,42.3,21.7,42z M13.2,27
		c0.5,1,6.3,14.3,6.8,15.3H6.4c0.4-0.8,4.5-10.2,4.5-10.2S12.8,27.9,13.2,27z"/>
	<path class="st1" d="M53.9,42c0,0-7.8-17.6-7.8-17.6c-0.1-0.3-0.4-0.5-0.8-0.5c-0.3,0-0.6,0.2-0.8,0.5l0,0L36.8,42
		c-0.1,0.3-0.1,0.6,0,0.9c1.4,2.8,4.8,4.6,8.5,4.6c3.7,0,7.1-1.8,8.5-4.6C54,42.7,54,42.3,53.9,42z M45.4,27
		c0.5,1,6.3,14.3,6.8,15.3H38.6c0.3-0.7,2.9-6.6,2.9-6.6S44.9,28,45.4,27z"/>
	<path class="st1" d="M37.4,23c-1.4,0-1.3,1.3-1.3,1.3h-1.7v-0.8H24.1v0.8h-1.7c0,0,0.1-1.3-1.3-1.3c0,0-1.1,0-1.1,1.5v6.4
		c0,1.6,1.1,1.5,1.1,1.5c1.4,0,1.3-1.3,1.3-1.3h1.7v0.8h2.7l0,2.3l4.8,0v-2.3h2.8v-0.8h1.7c0,0-0.1,1.3,1.3,1.3c0,0,1.1,0,1.1-1.5
		v-6.4C38.5,23,37.4,23,37.4,23z"/>
</g>
</svg>
