<?xml version="1.0" encoding="utf-8"?>
<!-- Generator: Adobe Illustrator 24.0.2, SVG Export Plug-In . SVG Version: 6.00 Build 0)  -->
<svg version="1.1" id="圖層_1" xmlns="http://www.w3.org/2000/svg" xmlns:xlink="http://www.w3.org/1999/xlink" x="0px" y="0px"
	 viewBox="0 0 272 64" style="enable-background:new 0 0 272 64;" xml:space="preserve">
<style type="text/css">
	.st0{fill:#333333;}
	.st1{fill:#FFFFFF;}
	.st2{fill:url(#SVGID_1_);}
	.st3{fill:#B7A246;}
	.st4{fill:#005BAB;}
	.st5{fill:none;stroke:#FFFFFF;stroke-width:0.25;stroke-miterlimit:10;}
</style>
<g>
	<path class="st0" d="M90.3,15.2v1.5h-9.4v1h7.6V19H71.2v-1.4h7.4v-1h-9.2v-1.5h9.2v-1.3h2.3v1.3L90.3,15.2L90.3,15.2z M80.9,33.8
		h9.4v1.6H69.4v-1.6h9.2v-1.1h-6.9v-1.4h6.9v-1c-4.4,0.1-5.1,0.2-5.6,0.3c-0.1-0.3-0.3-1.1-0.5-1.5c0.4,0,0.8-0.1,1.3-0.3
		c0.3-0.1,1.2-0.5,2-1h-3.7v-1.3h15.2v1.3H85c1.2,0.7,2.3,1.5,3.1,2.1L86.8,31c-0.3-0.3-0.7-0.6-1.2-1l-4.7,0.1v1h7.2v1.4h-7.2
		C80.9,32.5,80.9,33.8,80.9,33.8z M69.8,24.3H90v3.5h-2.1v-2H71.8v2h-2V24.3z M87.6,19.9v3.5H72.2v-3.5H87.6z M85.4,21.1H74.3v1.2
		h11.1C85.4,22.3,85.4,21.1,85.4,21.1z M78.4,27.9c-0.7,0.5-1.4,0.8-2.1,1.2l7.6-0.1c-0.5-0.3-1.1-0.6-1.6-0.9l0.2-0.1h-4.1V27.9z"
		/>
	<path class="st0" d="M97.3,24.5c-0.7-0.8-2.2-1.8-3.4-2.5l1.2-1.5c1.2,0.6,2.8,1.6,3.5,2.3L97.3,24.5z M94.4,34.5
		c0.9-1.8,2.1-4.9,3-7.6l1.8,1.2c-0.8,2.5-1.8,5.4-2.8,7.6L94.4,34.5z M97.7,18.3c-0.6-0.8-2.1-1.9-3.3-2.7l1.3-1.5
		c1.2,0.6,2.7,1.7,3.4,2.4L97.7,18.3z M100.6,22.9c-0.2,1.2-0.6,2.4-1,3.2c-0.2-0.2-0.7-0.5-1-0.7c0.5-0.8,0.7-1.8,0.9-2.8
		L100.6,22.9z M103.7,21.9c0-0.2-0.1-0.5-0.2-0.7c-3.1,0.4-3.7,0.5-4.1,0.7c-0.1-0.2-0.3-0.7-0.5-1c0.4,0,0.7-0.4,1.1-0.8
		c0.2-0.2,0.8-0.9,1.3-1.7c-1.4,0.1-1.8,0.2-2.1,0.3c-0.1-0.2-0.3-0.8-0.5-1c0.3,0,0.5-0.3,0.8-0.6c0.2-0.4,1.1-1.7,1.4-3l1.3,0.5
		c-0.4,0.9-1,1.9-1.6,2.7l1.4-0.1c0.2-0.4,0.4-0.7,0.6-1.1l1.3,0.5c-0.8,1.3-1.8,2.6-2.8,3.7l1.8-0.2c-0.1-0.2-0.3-0.5-0.4-0.7
		l1-0.4c0.5,0.7,0.9,1.8,1.1,2.4L103.7,21.9z M115,31c0,0,0,0.6-0.1,0.8c-0.4,2-0.9,3-1.5,3.5c-0.6,0.4-1.1,0.5-2,0.6
		c-0.7,0-2.2,0-3.7-0.1c0-0.5-0.3-1.2-0.6-1.7c1.5,0.1,3,0.2,3.6,0.2c0.5,0,0.8,0,1-0.2c0.3-0.2,0.6-0.8,0.9-1.7h-12.4
		c0.4-1.1,0.8-2.5,1.1-3.8h10.5v-1h-11.3v-1.3h13.4V30h-10.8l-0.3,1H115z M101.4,25.7c0-0.8-0.2-2-0.5-2.9l1.1-0.3
		c0.3,0.9,0.5,2,0.6,2.8L101.4,25.7z M103.5,25.1c-0.1-0.7-0.4-1.8-0.7-2.6l1-0.3c0.4,0.8,0.7,1.8,0.8,2.5L103.5,25.1z M110.1,17.5
		h-5.7v-1.2h2.4c-0.2-0.5-0.6-1.3-0.8-1.8l1.5-0.3c0.4,0.6,0.8,1.4,1,1.9l-1.1,0.3h2.8v1.1C110.2,17.5,110.1,17.5,110.1,17.5z
		 M105,21.9h4.5v3.5H105V21.9z M109.5,19.4H105v-1.1h4.5V19.4z M105,20h4.5v1.1H105V20z M106.4,24.4h1.7v-1.3h-1.7V24.4z
		 M111.7,22.8c-0.2,1.2-0.6,2.4-1,3.2c-0.2-0.2-0.7-0.6-1-0.7c0.5-0.8,0.7-1.8,0.9-2.8L111.7,22.8z M114.9,21.9
		c-0.1-0.2-0.2-0.5-0.3-0.8c-3.1,0.4-3.7,0.6-4.1,0.7c-0.1-0.2-0.3-0.7-0.5-1c0.3,0,0.7-0.3,1.1-0.8c0.2-0.2,0.8-0.9,1.3-1.7
		c-1.4,0.1-1.8,0.2-2.1,0.3c-0.1-0.2-0.3-0.8-0.5-1c0.3,0,0.5-0.3,0.8-0.6c0.2-0.3,1.1-1.7,1.4-3l1.3,0.5c-0.4,0.9-1,1.9-1.5,2.7
		l1.4-0.1c0.2-0.4,0.4-0.7,0.6-1.1l1.3,0.6c-0.8,1.3-1.7,2.6-2.8,3.7l1.8-0.2c-0.1-0.2-0.3-0.5-0.4-0.7l1-0.4c0.5,0.8,1,1.8,1.2,2.5
		L114.9,21.9z M112.6,25.9c0-0.8-0.2-2.1-0.5-3.1l1.1-0.3c0.3,1,0.5,2.2,0.6,3L112.6,25.9z M114.9,22.1c0.5,1,0.9,2.2,1,3l-1,0.5
		c-0.1-0.8-0.5-2.1-0.9-3.1L114.9,22.1z"/>
	<path class="st0" d="M123.2,29.2c-0.6,1.7-1.6,3.6-2.4,4.8c-0.4-0.3-1.1-0.8-1.5-1.1c0.9-1.1,1.7-2.8,2.2-4.3L123.2,29.2z
		 M126.3,27.6v8.1h-2.2v-8.1h-4.6v-1.9h4.6v-2.2h-4.8v-1.9h2.6c-0.1-0.8-0.4-2.1-0.8-3l1.8-0.5c0.4,0.9,0.8,2.2,0.9,3l-1.8,0.5h3.8
		c0.4-1,0.9-2.5,1.2-3.5l2.1,0.4c-0.4,1.1-0.8,2.2-1.2,3h2.8v1.9h-4.4v2.2h4.1v1.9h-4.1C126.3,27.5,126.3,27.6,126.3,27.6z
		 M130.3,18.2h-10.6v-1.8h4.4c-0.3-0.7-0.6-1.4-0.9-2l2.2-0.6c0.4,0.8,0.9,1.8,1.2,2.6h3.6v1.8H130.3z M128.6,28.5
		c0.8,1.1,1.6,2.6,2,3.6L129,33c-0.4-1-1.2-2.6-1.9-3.7L128.6,28.5z M141.2,23.9h-2.4v11.9h-2.2V23.9h-2.8v0.6
		c0,3.5-0.3,8.3-2.4,11.3c-0.3-0.4-1.2-1.1-1.7-1.3c1.9-2.8,2.1-6.8,2.1-10v-8.3c2.7-0.5,5.6-1.2,7.3-1.9l1.8,1.6
		c-2,0.8-4.6,1.3-7,1.8v4.2h7.4v2C141.3,23.9,141.2,23.9,141.2,23.9z"/>
	<path class="st0" d="M154.7,29.6l0.4,2c-3.4,1.4-7.1,3-9.9,4.1l-1-2.3c1.7-0.6,4.1-1.4,6.6-2.3V22H145v-2.2h5.8v-5.4h2.3v15.9
		L154.7,29.6z M162.6,32.8c1,0,1.1-1.1,1.3-5.6c0.6,0.5,1.5,0.9,2.1,1.1c-0.2,4.9-0.7,6.7-3.2,6.7h-3c-2.3,0-3-0.8-3-3.6V14.3h2.3
		v5.4h6.5v2.2h-6.5v9.5c0,1.2,0.1,1.4,1,1.4C160.1,32.8,162.6,32.8,162.6,32.8z"/>
	<path class="st0" d="M177.1,26.7l0.5,2c-2.5,1.2-5.2,2.4-7.3,3.4l-0.9-2.2c0.9-0.3,2-0.7,3.2-1.2v-6.9h-2.7v-2.1h2.7v-5.3h2.1v5.3
		h2.4v2.1h-2.4v6L177.1,26.7z M188.1,33.4c1.3,0,1.6-0.6,1.8-3.2c0.5,0.3,1.4,0.7,2,0.8c-0.3,3.3-1,4.4-3.6,4.4h-5.5
		c-3,0-3.8-0.7-3.8-3.6v-6.9l-1.7,0.7l-0.8-2l2.5-1.1v-6.4h2.1v5.5l2.7-1.1v-6.6h2.1v5.7l3.2-1.4l1.7,0.6l-0.1,0.4
		c-0.2,3.3-0.6,7.7-1.2,10.5l-1.8-0.5c0.4-2.1,0.6-5.4,0.7-8.3l-2.5,1.1v8.6h-2.1v-7.7l-2.7,1.2V32c0,1.3,0.3,1.6,1.8,1.6h5.2
		L188.1,33.4L188.1,33.4z"/>
	<path class="st0" d="M204.2,20c-0.1,1.1-0.1,2.3-0.3,3.4h10.2c0,0,0,0.7-0.1,1c-0.5,6.6-0.9,9.3-1.9,10.2c-0.6,0.6-1.3,0.8-2.3,0.9
		c-0.9,0.1-2.4,0-4.1,0c0-0.6-0.3-1.6-0.8-2.2c1.7,0.1,3.3,0.2,4,0.2c0.5,0,0.8,0,1.2-0.3c0.7-0.6,1.1-2.8,1.5-7.7h-8
		c-0.8,4.1-2.5,8-7,10.4c-0.3-0.6-1-1.4-1.6-1.8c6-3,6.5-8.9,6.7-14.1h-6.3v-2.2h10.3c-0.3-1-1-2.3-1.5-3.4l2.2-0.8
		c0.6,1.1,1.4,2.5,1.7,3.5l-1.6,0.7h9.9V20H204.2z"/>
	<path class="st0" d="M224.5,24.8c-0.9-0.8-2.9-1.9-4.4-2.6l1.2-1.7c1.5,0.6,3.5,1.6,4.5,2.4L224.5,24.8z M220.9,34.1
		c1.3-1.8,3.1-4.9,4.5-7.6L227,28c-1.2,2.5-2.8,5.4-4.2,7.6L220.9,34.1z M222.7,14.1c1.5,0.6,3.5,1.7,4.5,2.4l-1.3,1.8
		c-0.9-0.8-2.9-2-4.5-2.7L222.7,14.1z M239.7,35.9c-0.2-0.6-0.5-1.4-1-2.3c-8.5,1-9.6,1.2-10.3,1.6c-0.1-0.5-0.5-1.6-0.8-2.2
		c0.5-0.1,1-0.7,1.5-1.6c0.5-0.7,1.9-3,3-5.5h-4.9v-2.1h5.9v-3.9h-4.9v-2.1h4.9v-3.9h2.3v3.9h5.1v2.1h-5.1v3.9h6v2.1h-6.6
		c-1.1,2.4-2.5,4.7-3.8,6.6l6.7-0.7c-0.6-1-1.2-1.9-1.9-2.8l1.8-0.9c1.7,2.1,3.4,4.9,4.1,6.8L239.7,35.9z"/>
	<path class="st0" d="M253.3,15.6c-0.7,2-1.5,4.3-2.2,6.2c1.6,2,1.9,3.7,1.9,5.1s-0.3,2.4-1,2.9c-0.4,0.3-0.8,0.4-1.3,0.5
		c-0.4,0-1,0-1.6,0c0-0.6-0.2-1.4-0.5-1.9c0.5,0,0.9,0,1.2,0s0.5-0.1,0.7-0.2c0.3-0.3,0.5-0.9,0.5-1.6c0-1.2-0.4-2.8-2-4.6
		c0.6-1.6,1.2-3.6,1.7-5.2h-2.6v19h-2v-21h5.4l0.3-0.1L253.3,15.6z M265,33.7c0.5,0,0.6-0.4,0.6-3c0.5,0.4,1.3,0.7,1.9,0.8
		c-0.2,3.2-0.7,4-2.2,4h-1.9c-1.8,0-2.3-0.6-2.3-2.6v-5.7H259c-0.4,4.2-1.5,7-6.1,8.6c-0.2-0.6-0.8-1.4-1.3-1.8
		c4-1.3,4.9-3.4,5.2-6.8h-3.2v-2h13.5v2h-4v5.6c0,0.6,0.1,0.7,0.5,0.7h1.4L265,33.7L265,33.7z M255.4,21.2h-1.9v-4.4h5.8
		c-0.3-0.8-0.7-1.8-1.1-2.5l2.1-0.6c0.6,1,1.2,2.2,1.5,3.1h5.2v4.4h-1.9V23h-9.7L255.4,21.2L255.4,21.2z M255.6,18.7V21h9.3v-2.4
		h-9.3L255.6,18.7L255.6,18.7z"/>
</g>
<g>
	<path class="st0" d="M70.4,43.3v-0.8h4.7v0.8h-1.9v7.8h-0.9v-7.8H70.4z"/>
	<path class="st0" d="M82.9,44.7v6.4h-0.8V50c-0.3,0.4-0.7,0.7-1.2,0.9s-0.9,0.3-1.4,0.3c-0.9,0-1.7-0.3-2.3-1s-1-1.5-1-2.4
		s0.3-1.7,1-2.4s1.4-1,2.3-1c0.5,0,1,0.1,1.4,0.3s0.8,0.6,1.1,1v-1.2h0.9V44.7z M79.6,45.3c-0.5,0-0.9,0.1-1.3,0.3s-0.7,0.5-0.9,0.9
		c-0.2,0.4-0.3,0.8-0.3,1.3c0,0.4,0.1,0.9,0.3,1.3c0.2,0.4,0.5,0.7,0.9,1c0.4,0.2,0.8,0.3,1.2,0.3c0.4,0,0.9-0.1,1.3-0.3
		s0.7-0.5,0.9-0.9c0.2-0.4,0.3-0.8,0.3-1.3c0-0.7-0.2-1.4-0.7-1.8C80.9,45.6,80.3,45.3,79.6,45.3z"/>
	<path class="st0" d="M85.3,42.1c0.2,0,0.3,0.1,0.5,0.2c0.1,0.1,0.2,0.3,0.2,0.5s-0.1,0.3-0.2,0.5c-0.1,0.1-0.3,0.2-0.5,0.2
		s-0.3-0.1-0.5-0.2s-0.2-0.3-0.2-0.5s0.1-0.3,0.2-0.5S85.1,42.1,85.3,42.1z M84.9,44.7h0.8v6.4h-0.8V44.7z"/>
	<path class="st0" d="M86.9,44.7h0.8l2,4.6l2-4.6h0.1l2,4.6l2-4.6h0.9l-2.8,6.4h-0.2l-2-4.6l-2,4.6h-0.1L86.9,44.7z"/>
	<path class="st0" d="M104.4,44.7v6.4h-0.8V50c-0.3,0.4-0.7,0.7-1.2,0.9s-0.9,0.3-1.4,0.3c-0.9,0-1.7-0.3-2.3-1s-1-1.5-1-2.4
		s0.3-1.7,1-2.4s1.4-1,2.3-1c0.5,0,1,0.1,1.4,0.3s0.8,0.6,1.1,1v-1.2h0.9V44.7z M101.1,45.3c-0.5,0-0.9,0.1-1.3,0.3
		s-0.7,0.5-0.9,0.9c-0.2,0.4-0.3,0.8-0.3,1.3c0,0.4,0.1,0.9,0.3,1.3c0.2,0.4,0.5,0.7,0.9,1c0.4,0.2,0.8,0.3,1.2,0.3
		c0.4,0,0.9-0.1,1.3-0.3s0.7-0.5,0.9-0.9c0.2-0.4,0.3-0.8,0.3-1.3c0-0.7-0.2-1.4-0.7-1.8C102.4,45.6,101.8,45.3,101.1,45.3z"/>
	<path class="st0" d="M106.5,44.7h0.8v1.1c0.3-0.4,0.7-0.8,1.1-1s0.8-0.3,1.3-0.3s0.9,0.1,1.3,0.4s0.6,0.6,0.8,1s0.3,1,0.3,1.9v3.3
		h-0.8v-3c0-0.7,0-1.2-0.1-1.5c-0.1-0.4-0.3-0.7-0.5-1s-0.6-0.3-1.1-0.3s-0.9,0.2-1.3,0.5s-0.7,0.7-0.8,1.2
		c-0.1,0.3-0.1,0.9-0.1,1.7V51h-0.8v-6.3H106.5z"/>
	<path class="st0" d="M117.9,51.1v-8.6h0.2l5.7,6.6v-6.6h0.8v8.6h-0.2l-5.7-6.5v6.5H117.9z"/>
	<path class="st0" d="M132.3,49l0.7,0.4c-0.2,0.4-0.5,0.8-0.8,1.1s-0.6,0.5-1,0.6s-0.8,0.2-1.3,0.2c-1,0-1.9-0.3-2.4-1
		c-0.6-0.7-0.9-1.5-0.9-2.3s0.2-1.5,0.7-2.2c0.6-0.8,1.5-1.2,2.5-1.2c1.1,0,2,0.4,2.6,1.2c0.5,0.6,0.7,1.3,0.7,2.2h-5.7
		c0,0.7,0.3,1.3,0.7,1.8c0.5,0.5,1,0.7,1.7,0.7c0.3,0,0.6-0.1,0.9-0.2c0.3-0.1,0.6-0.3,0.8-0.4C131.8,49.7,132.1,49.4,132.3,49z
		 M132.3,47.2c-0.1-0.4-0.3-0.8-0.5-1c-0.2-0.3-0.5-0.5-0.8-0.6c-0.3-0.2-0.7-0.2-1.1-0.2c-0.6,0-1.2,0.2-1.6,0.6
		c-0.3,0.3-0.6,0.7-0.7,1.3L132.3,47.2L132.3,47.2z"/>
	<path class="st0" d="M134.2,44.7h0.8l2,4.6l2-4.6h0.1l2,4.6l2-4.6h0.9l-2.8,6.4H141l-2-4.6l-2,4.6h-0.2L134.2,44.7z"/>
	<path class="st0" d="M148.2,43.3v-0.8h4.7v0.8H151v7.8h-0.9v-7.8H148.2z"/>
	<path class="st0" d="M160.7,44.7v6.4h-0.8V50c-0.3,0.4-0.7,0.7-1.2,0.9s-0.9,0.3-1.4,0.3c-0.9,0-1.7-0.3-2.3-1s-1-1.5-1-2.4
		s0.3-1.7,1-2.4s1.4-1,2.3-1c0.5,0,1,0.1,1.4,0.3s0.8,0.6,1.1,1v-1.2h0.9V44.7z M157.4,45.3c-0.5,0-0.9,0.1-1.3,0.3
		c-0.4,0.2-0.7,0.5-0.9,0.9s-0.3,0.8-0.3,1.3c0,0.4,0.1,0.9,0.3,1.3c0.2,0.4,0.5,0.7,0.9,1c0.4,0.2,0.8,0.3,1.2,0.3s0.9-0.1,1.3-0.3
		c0.4-0.2,0.7-0.5,0.9-0.9s0.3-0.8,0.3-1.3c0-0.7-0.2-1.4-0.7-1.8C158.7,45.6,158.1,45.3,157.4,45.3z"/>
	<path class="st0" d="M163.1,42.1c0.2,0,0.3,0.1,0.5,0.2c0.1,0.1,0.2,0.3,0.2,0.5s-0.1,0.3-0.2,0.5c-0.1,0.1-0.3,0.2-0.5,0.2
		s-0.3-0.1-0.5-0.2s-0.2-0.3-0.2-0.5s0.1-0.3,0.2-0.5S162.9,42.1,163.1,42.1z M162.7,44.7h0.8v6.4h-0.8V44.7z"/>
	<path class="st0" d="M165.5,44.7h0.8v1.2c0.3-0.4,0.7-0.8,1.1-1c0.4-0.2,0.9-0.3,1.4-0.3c0.9,0,1.7,0.3,2.3,1s1,1.4,1,2.4
		c0,0.9-0.3,1.7-1,2.4s-1.4,1-2.3,1c-0.5,0-1-0.1-1.4-0.3s-0.8-0.5-1.2-0.9v3.4h-0.8L165.5,44.7L165.5,44.7z M168.8,45.3
		c-0.7,0-1.3,0.2-1.8,0.7s-0.7,1.1-0.7,1.8c0,0.5,0.1,0.9,0.3,1.3c0.2,0.4,0.5,0.7,0.9,0.9s0.8,0.3,1.3,0.3c0.4,0,0.9-0.1,1.2-0.3
		c0.4-0.2,0.7-0.5,0.9-1c0.2-0.4,0.3-0.8,0.3-1.3s-0.1-0.9-0.3-1.3c-0.2-0.4-0.5-0.7-0.9-0.9S169.3,45.3,168.8,45.3z"/>
	<path class="st0" d="M179.4,49l0.7,0.4c-0.2,0.4-0.5,0.8-0.8,1.1s-0.6,0.5-1,0.6s-0.8,0.2-1.3,0.2c-1,0-1.9-0.3-2.4-1
		c-0.6-0.7-0.9-1.5-0.9-2.3s0.2-1.5,0.7-2.2c0.6-0.8,1.5-1.2,2.5-1.2c1.1,0,2,0.4,2.6,1.2c0.5,0.6,0.7,1.3,0.7,2.2h-5.6
		c0,0.7,0.3,1.3,0.7,1.8c0.5,0.5,1,0.7,1.7,0.7c0.3,0,0.6-0.1,0.9-0.2c0.3-0.1,0.6-0.3,0.8-0.4C178.9,49.7,179.1,49.4,179.4,49z
		 M179.4,47.2c-0.1-0.4-0.3-0.8-0.5-1c-0.2-0.3-0.5-0.5-0.8-0.6c-0.3-0.2-0.7-0.2-1.1-0.2c-0.6,0-1.2,0.2-1.6,0.6
		c-0.3,0.3-0.6,0.7-0.7,1.3L179.4,47.2L179.4,47.2z"/>
	<path class="st0" d="M182.4,42.1c0.2,0,0.3,0.1,0.5,0.2c0.1,0.1,0.2,0.3,0.2,0.5s-0.1,0.3-0.2,0.5c-0.1,0.1-0.3,0.2-0.5,0.2
		s-0.3-0.1-0.5-0.2s-0.2-0.3-0.2-0.5s0.1-0.3,0.2-0.5S182.2,42.1,182.4,42.1z M182,44.7h0.8v6.4H182V44.7z"/>
	<path class="st0" d="M188.6,51.1v-8.6h1.8c1.3,0,2.2,0.1,2.8,0.3c0.8,0.3,1.5,0.8,2,1.5s0.7,1.6,0.7,2.6c0,0.9-0.2,1.6-0.6,2.3
		s-0.9,1.1-1.5,1.5s-1.4,0.5-2.5,0.5L188.6,51.1L188.6,51.1z M189.4,50.3h1c1.2,0,2-0.1,2.5-0.2c0.6-0.2,1.2-0.6,1.5-1.1
		c0.4-0.5,0.6-1.2,0.6-2s-0.2-1.5-0.6-2.1s-1-1-1.7-1.2c-0.5-0.2-1.4-0.2-2.7-0.2h-0.6V50.3z"/>
	<path class="st0" d="M198,42.1c0.2,0,0.3,0.1,0.5,0.2c0.1,0.1,0.2,0.3,0.2,0.5s-0.1,0.3-0.2,0.5c-0.1,0.1-0.3,0.2-0.5,0.2
		s-0.3-0.1-0.5-0.2s-0.2-0.3-0.2-0.5s0.1-0.3,0.2-0.5S197.8,42.1,198,42.1z M197.6,44.7h0.8v6.4h-0.8V44.7z"/>
	<path class="st0" d="M203.6,45.4l-0.5,0.5c-0.4-0.4-0.9-0.6-1.3-0.6c-0.3,0-0.5,0.1-0.7,0.3s-0.3,0.4-0.3,0.6
		c0,0.2,0.1,0.4,0.2,0.6c0.2,0.2,0.5,0.4,1,0.7c0.6,0.3,1,0.6,1.2,0.9c0.2,0.3,0.3,0.6,0.3,1c0,0.5-0.2,1-0.6,1.3s-0.8,0.5-1.4,0.5
		c-0.4,0-0.7-0.1-1.1-0.2c-0.3-0.2-0.6-0.4-0.8-0.7l0.5-0.6c0.4,0.5,0.9,0.7,1.3,0.7c0.3,0,0.6-0.1,0.8-0.3s0.3-0.5,0.3-0.7
		s-0.1-0.4-0.2-0.6c-0.2-0.2-0.5-0.4-1-0.7c-0.6-0.3-1-0.6-1.2-0.9c-0.2-0.3-0.3-0.6-0.3-1c0-0.5,0.2-0.9,0.5-1.2s0.7-0.5,1.3-0.5
		C202.4,44.5,203,44.8,203.6,45.4z"/>
	<path class="st0" d="M206,42.3h0.8v2.4h1.3v0.7h-1.3v5.7H206v-5.7h-1.1v-0.7h1.1V42.3z"/>
	<path class="st0" d="M209.4,44.7h0.8v0.9c0.2-0.4,0.5-0.6,0.8-0.8s0.6-0.3,0.9-0.3c0.2,0,0.5,0.1,0.7,0.2l-0.4,0.7
		c-0.2-0.1-0.3-0.1-0.4-0.1c-0.3,0-0.5,0.1-0.8,0.3s-0.4,0.6-0.6,1c-0.1,0.4-0.2,1.1-0.2,2.2V51h-0.8V44.7z"/>
	<path class="st0" d="M213.9,42.1c0.2,0,0.3,0.1,0.5,0.2c0.1,0.1,0.2,0.3,0.2,0.5s-0.1,0.3-0.2,0.5c-0.1,0.1-0.3,0.2-0.5,0.2
		s-0.3-0.1-0.5-0.2s-0.2-0.3-0.2-0.5s0.1-0.3,0.2-0.5S213.7,42.1,213.9,42.1z M213.5,44.7h0.8v6.4h-0.8V44.7z"/>
	<path class="st0" d="M222.5,46l-0.7,0.4c-0.6-0.7-1.3-1.1-2.3-1.1c-0.8,0-1.4,0.2-1.9,0.7s-0.8,1.1-0.8,1.8c0,0.5,0.1,0.9,0.4,1.3
		c0.2,0.4,0.6,0.7,1,1c0.4,0.2,0.9,0.3,1.4,0.3c0.9,0,1.7-0.4,2.3-1.1l0.7,0.4c-0.3,0.5-0.7,0.8-1.2,1.1s-1.1,0.4-1.8,0.4
		c-1,0-1.8-0.3-2.5-1s-1-1.4-1-2.3c0-0.6,0.2-1.2,0.5-1.7s0.7-0.9,1.3-1.2s1.2-0.4,1.8-0.4c0.4,0,0.8,0.1,1.2,0.2s0.7,0.3,1,0.5
		S222.3,45.7,222.5,46z"/>
	<path class="st0" d="M225.1,42.3h0.8v2.4h1.3v0.7h-1.3v5.7h-0.8v-5.7H224v-0.7h1.1V42.3z"/>
	<path class="st0" d="M240.5,44.1l-0.7,0.5c-0.4-0.5-0.8-0.9-1.4-1.1s-1.1-0.4-1.7-0.4c-0.7,0-1.3,0.2-1.9,0.5s-1,0.8-1.4,1.3
		s-0.5,1.2-0.5,1.9c0,1.1,0.4,1.9,1.1,2.6s1.6,1.1,2.7,1.1c1.2,0,2.2-0.5,3-1.4l0.7,0.5c-0.4,0.5-1,1-1.6,1.3s-1.4,0.4-2.2,0.4
		c-1.5,0-2.7-0.5-3.6-1.5c-0.7-0.8-1.1-1.9-1.1-3.1c0-1.3,0.4-2.3,1.3-3.2s2-1.3,3.3-1.3c0.8,0,1.5,0.2,2.2,0.5
		S240.1,43.5,240.5,44.1z"/>
	<path class="st0" d="M245.4,44.5c1,0,1.8,0.4,2.4,1.1c0.6,0.6,0.9,1.4,0.9,2.3c0,0.9-0.3,1.7-0.9,2.3s-1.4,1-2.4,1s-1.8-0.3-2.4-1
		s-0.9-1.4-0.9-2.3c0-0.9,0.3-1.6,0.9-2.3C243.6,44.9,244.5,44.5,245.4,44.5z M245.4,45.3c-0.7,0-1.3,0.3-1.8,0.8s-0.7,1.1-0.7,1.8
		c0,0.5,0.1,0.9,0.3,1.3s0.5,0.7,0.9,0.9s0.8,0.3,1.3,0.3s0.9-0.1,1.3-0.3c0.4-0.2,0.7-0.5,0.9-0.9s0.3-0.8,0.3-1.3
		c0-0.7-0.2-1.3-0.7-1.8S246.1,45.3,245.4,45.3z"/>
	<path class="st0" d="M250.5,44.7h0.8v3c0,0.7,0,1.2,0.1,1.5c0.1,0.4,0.3,0.7,0.7,0.9c0.3,0.2,0.7,0.3,1.2,0.3s0.8-0.1,1.2-0.3
		c0.3-0.2,0.5-0.5,0.7-0.9c0.1-0.2,0.1-0.8,0.1-1.6v-3h0.8v3.1c0,0.9-0.1,1.5-0.3,2s-0.5,0.8-0.9,1s-0.9,0.4-1.5,0.4
		s-1.1-0.1-1.6-0.4s-0.7-0.6-0.9-1.1s-0.3-1.1-0.3-2v-2.9H250.5z"/>
	<path class="st0" d="M257.9,44.7h0.8v0.9c0.2-0.4,0.5-0.6,0.8-0.8s0.6-0.3,0.9-0.3c0.2,0,0.5,0.1,0.7,0.2l-0.4,0.7
		c-0.2-0.1-0.3-0.1-0.4-0.1c-0.3,0-0.5,0.1-0.8,0.3s-0.4,0.6-0.6,1c-0.1,0.4-0.2,1.1-0.2,2.2V51h-0.8V44.7z"/>
	<path class="st0" d="M262.8,42.3h0.8v2.4h1.3v0.7h-1.3v5.7h-0.8v-5.7h-1.1v-0.7h1.1V42.3z"/>
</g>
<g>
	<g>
		<circle class="st1" cx="31.2" cy="31.4" r="30.3"/>
	</g>
	<g>
		
			<linearGradient id="SVGID_1_" gradientUnits="userSpaceOnUse" x1="31.25" y1="26.7748" x2="31.25" y2="3.519" gradientTransform="matrix(1 0 0 1 0 34)">
			<stop  offset="0.6854" style="stop-color:#B7A246"/>
			<stop  offset="1" style="stop-color:#FFFFFF"/>
		</linearGradient>
		<path class="st2" d="M60.1,37.8c-3,13-14.9,23-28.8,23S5.4,50.6,2.4,37.5h7.4c2.8,9,11.5,16.1,21.5,16.1s18.6-6.8,21.4-15.8H60.1z
			"/>
		<g>
			<path class="st3" d="M8.2,35.8l0.1,0.5l-3.8,0.8l0.2,0.8L4.1,38l-0.5-2l0.6-0.1l0.2,0.8L8.2,35.8z"/>
			<path class="st3" d="M6.9,34.1l1,0.2L8,35l-4.8-1v-0.5l4.6-1.8l0.1,0.6l-1,0.4L6.9,34.1z M4.3,33.7l2,0.4L6.2,33L4.3,33.7z"/>
			<path class="st3" d="M7.8,30.7v0.6l-4.6-0.1v-0.6L7.8,30.7z"/>
			<path class="st3" d="M6.7,28.8l-3.3-1.2v-0.3L6.9,27l-3.2-1.3L3.8,25l4.4,1.9l-0.1,0.5l-3.2,0.3l3,1.2l-0.1,0.5L3,29.9l0.1-0.6
				L6.7,28.8z"/>
			<path class="st3" d="M7.7,24.4L8.6,25l-0.2,0.6l-4-2.8l0.2-0.5l4.9,0.2l-0.2,0.6H8.2L7.7,24.4z M5.5,22.9L7.2,24l0.3-1L5.5,22.9z
				"/>
			<path class="st3" d="M5.4,20l0.2-0.4l4-0.3l-3-1.5l0.3-0.5l4.2,2.1l-0.2,0.4l-4,0.3l3,1.5l-0.3,0.5L5.4,20z"/>
			<path class="st3" d="M8.9,14l0.3-0.3l3.9,0.7l-2.5-2.2l0.4-0.5l3.5,3L14.2,15l-3.9-0.7l2.5,2.2L12.4,17L8.9,14z"/>
			<path class="st3" d="M12.8,11l0.8,0.9l0.9-0.8l0.4,0.5L14,12.4l0.9,1.1l0.9-0.8l0.4,0.5l-1.4,1.2l-3-3.4l1.4-1.2l0.4,0.5L12.8,11
				z"/>
			<path class="st3" d="M17.1,11l-1.2-3.3l0.3-0.2l2.6,2.4l-1.2-3.3l0.5-0.3l1.5,4.7l-0.4,0.3L16.8,9l1.1,3l-0.4,0.3L14,9l0.6-0.4
				L17.1,11z"/>
			<path class="st3" d="M23.8,9l-0.5,0.2L22,5.5l-0.8,0.3L21,5.2l2-0.7L23.2,5l-0.8,0.3L23.8,9z"/>
			<path class="st3" d="M25.3,7.4l-0.1,1.1l-0.6,0.2L25,3.8l0.5-0.1L27.8,8l-0.6,0.1l-0.5-0.9L25.3,7.4z M25.4,4.8l-0.1,2l1-0.2
				L25.4,4.8z"/>
			<path class="st3" d="M28.8,7.9L28.2,8l-0.6-4.6l0.6-0.1L28.8,7.9z"/>
			<path class="st3" d="M30,7.8h-0.6l-0.2-4.6h1c0.8,0,1.3,0.4,1.3,1.4s-0.3,1.5-1.1,1.5H30V7.8z M29.9,5.4h0.3
				c0.4,0,0.7-0.3,0.6-0.9c0-0.5-0.3-0.8-0.7-0.8h-0.3L29.9,5.4z"/>
			<path class="st3" d="M32.9,3.9l-0.1,1.2L34,5.2v0.7l-1.2-0.1l-0.1,1.4l1.2,0.1V8L32,7.9l0.3-4.6l1.9,0.1v0.7L32.9,3.9z"/>
			<path class="st3" d="M35,8l-0.6-0.1l0.7-4.5l0.6,0.1L35,8z"/>
			<path class="st3" d="M39.2,4.2l1,0.3c0.5,0.2,0.8,0.5,1,1s0.1,1.1-0.1,1.7c-0.2,0.6-0.5,1.1-1,1.4c-0.5,0.4-1,0.5-1.5,0.3
				l-0.9-0.3L39.2,4.2z M38.5,8.1l0.2,0.1c0.8,0.3,1.4-0.1,1.7-1.1s0.1-1.6-0.7-1.9l-0.2-0.1L38.5,8.1z"/>
			<path class="st3" d="M41.3,9.9l-0.6-0.3l1.9-4.1l0.6,0.3L41.3,9.9z"/>
			<path class="st3" d="M45.1,7.8c0-0.3-0.1-0.5-0.3-0.6c-0.1-0.1-0.3-0.1-0.4,0c-0.1,0.1-0.3,0.2-0.4,0.3c-0.1,0.2,0,0.5,0.2,0.9
				C44.4,8.8,44.5,9,44.5,9c0.1,0.3,0.1,0.7-0.1,1c-0.2,0.4-0.5,0.7-0.8,0.8c-0.3,0.2-0.6,0.1-1,0c-0.4-0.2-0.6-0.7-0.5-1.3l0.5-0.3
				c0,0.2,0,0.4,0,0.6s0.1,0.3,0.3,0.4c0.2,0.1,0.3,0.1,0.5,0s0.3-0.2,0.4-0.4c0.1-0.1,0.1-0.3,0.1-0.4c0-0.1-0.1-0.4-0.4-0.8
				c-0.3-0.4-0.3-0.8-0.1-1.2c0.2-0.3,0.4-0.6,0.7-0.7s0.6-0.1,0.8,0c0.5,0.1,0.7,0.4,0.7,0.8L45.1,7.8z"/>
			<path class="st3" d="M45,12.1l-0.5-0.3l2.2-3.2L46,8.1l0.4-0.5l1.8,1.2l-0.4,0.5l-0.7-0.5L45,12.1z"/>
			<path class="st3" d="M47.7,14.3l-0.6-0.5l0.6-2.2l-1.3,1.5l-0.5-0.4l3-3.5l0.7,0.7c0.6,0.5,0.6,1.1,0,1.8
				c-0.2,0.3-0.5,0.4-0.7,0.5s-0.5,0.1-0.7-0.1L47.7,14.3z M47.9,11.4l0.1,0.1c0.4,0.3,0.7,0.3,1.1-0.1c0.3-0.4,0.3-0.8,0-1.1
				L49,10.2L47.9,11.4z"/>
			<path class="st3" d="M48.4,15.1L48,14.7l3.3-3.2l0.4,0.4L48.4,15.1z"/>
			<path class="st3" d="M53,15.2c0.1-0.4,0.1-0.7-0.1-0.9C52.7,14,52.4,13.9,52,14c-0.4,0-0.8,0.2-1.1,0.5s-0.6,0.6-0.7,1
				c-0.1,0.4-0.1,0.7,0.1,1c0.2,0.2,0.5,0.3,0.9,0.3l-0.7,0.6c-0.3-0.1-0.6-0.3-0.7-0.5c-0.3-0.4-0.4-0.9-0.3-1.4
				c0.1-0.6,0.5-1,1-1.5c0.5-0.4,1.1-0.7,1.7-0.7c0.6,0,1,0.1,1.4,0.5c0.2,0.2,0.3,0.5,0.3,0.8L53,15.2z"/>
			<path class="st3" d="M51.3,18.8L51,18.3l3.3-2.1l-0.4-0.7l0.6-0.4l1.2,1.8l-0.6,0.4l-0.5-0.7L51.3,18.8z"/>
			<path class="st3" d="M56.9,22.5c0.2-0.3,0.3-0.6,0.2-0.9s-0.4-0.5-0.8-0.6c-0.4-0.1-0.8,0-1.2,0.1c-0.4,0.2-0.7,0.4-0.9,0.7
				c-0.2,0.3-0.3,0.6-0.2,0.9s0.4,0.5,0.7,0.6l-0.9,0.3c-0.3-0.2-0.5-0.4-0.5-0.7c-0.2-0.5-0.1-0.9,0.2-1.4s0.8-0.8,1.4-1.1
				c0.6-0.2,1.2-0.3,1.8-0.2c0.6,0.1,0.9,0.4,1.1,0.9c0.1,0.2,0.1,0.5,0,0.8L56.9,22.5z"/>
			<path class="st3" d="M56.1,23.7c0.6-0.2,1.2-0.1,1.8,0.1c0.5,0.2,0.9,0.6,1,1.1s0,1-0.4,1.4S57.6,27,57,27.2s-1.2,0.1-1.8-0.1
				c-0.5-0.2-0.9-0.6-1-1.1s0-1,0.4-1.4C54.9,24.1,55.4,23.8,56.1,23.7z M56.3,24.3c-0.4,0.1-0.8,0.3-1.1,0.6
				c-0.3,0.3-0.4,0.6-0.3,0.9c0.1,0.3,0.3,0.6,0.7,0.7s0.8,0.1,1.2,0s0.8-0.3,1-0.6c0.3-0.3,0.3-0.6,0.3-0.9
				c-0.1-0.3-0.3-0.6-0.6-0.7C57.1,24.2,56.7,24.2,56.3,24.3z"/>
			<path class="st3" d="M59.3,27.8v0.6l-2.6,0.2c-1,0.1-1.5,0.4-1.4,0.8c0,0.5,0.5,0.7,1.5,0.6l2.6-0.2v0.6l-2.7,0.2
				c-1.3,0.1-2-0.3-2.1-1.2c-0.1-0.9,0.5-1.4,1.9-1.5L59.3,27.8z"/>
			<path class="st3" d="M54.8,33.8V33l2.1-0.9l-2-0.1v-0.6l4.6,0.2v1c0,0.8-0.5,1.2-1.4,1.1c-0.3,0-0.6-0.1-0.9-0.3
				c-0.2-0.2-0.3-0.3-0.4-0.6L54.8,33.8z M57.2,32.1v0.2c0,0.5,0.2,0.8,0.8,0.8c0.5,0,0.8-0.2,0.8-0.7v-0.2L57.2,32.1z"/>
			<path class="st3" d="M54.5,35.2l0.1-0.5l3.9,0.6l0.1-0.8l0.6,0.1l-0.3,2.1l-0.6-0.1l0.1-0.8L54.5,35.2z"/>
		</g>
		<g>
			<path class="st4" d="M52.2,31.3c0,11.6-9.4,21-21,21s-21-9.4-21-21s9.4-21,21-21S52.2,19.7,52.2,31.3z"/>
		</g>
		<g>
			<path class="st1" d="M32.9,33.8h-0.5h-2.8V42c0,0.9,0.8,1.7,1.7,1.7s1.6-0.8,1.6-1.7V33.8z"/>
			<path class="st1" d="M34.2,44h-5.8c-0.4,0-0.8,0.3-0.8,0.6v0.8c0,0.4,0.3,0.7,0.8,0.7h5.8c0.4,0,0.8-0.3,0.8-0.7v-0.8
				C34.9,44.3,34.6,44,34.2,44z"/>
			<path class="st1" d="M35.3,46.9h-8c-0.6,0-1,0.3-1,0.7v0.8c0,0.4,0.4,0.7,1,0.7h8c0.6,0,1-0.3,1-0.7v-0.8
				C36.2,47.2,35.8,46.9,35.3,46.9z"/>
			<path class="st1" d="M47.5,23.3c0-0.3-0.2-0.5-0.4-0.6c-0.4-0.3-1-0.2-1.4,0.1c-1.1,1.1-2.7,1.7-4.4,1.7s-3.2-0.6-4.3-1.6
				c-1.5-1.3-3.5-2.1-5.7-2.1c-2.1,0-4.1,0.7-5.5,1.9l0,0l-0.2,0.2l0,0c-1.1,1.1-2.7,1.7-4.4,1.7c-1.7,0-3.3-0.6-4.4-1.7
				c-0.2-0.2-0.4-0.3-0.7-0.3c-0.2,0-0.5,0-0.7,0.2S15,23.2,15,23.4l0,0v0.1c0,0.2,0.1,0.4,0.3,0.6c1.5,1.4,3.6,2.3,5.9,2.3
				c2.1,0,4-0.7,5.5-1.9l0,0l0,0l0.1-0.1c1.1-1.1,2.7-1.7,4.4-1.7c1.7,0,3.2,0.6,4.3,1.6c1.4,1.3,3.5,2.1,5.7,2.1
				c2.3,0,4.4-0.8,5.9-2.3C47.4,23.8,47.5,23.6,47.5,23.3L47.5,23.3z M47.5,23.3L47.5,23.3L47.5,23.3L47.5,23.3z"/>
			<path class="st1" d="M34.7,17c0,1.9-1.5,3.5-3.5,3.5c-1.9,0-3.4-1.5-3.4-3.5c0-1.9,1.5-3.5,3.4-3.5C33.2,13.6,34.7,15.1,34.7,17z
				"/>
			<path class="st1" d="M26.2,38.4l-5.3-12c-0.1-0.2-0.3-0.4-0.6-0.4c-0.2,0-0.4,0.1-0.5,0.4l0,0l-5.3,12c-0.1,0.2-0.1,0.4,0,0.6
				c1,1.9,3.3,3.2,5.8,3.2s4.8-1.2,5.8-3.2C26.2,38.8,26.3,38.6,26.2,38.4z M20.3,28.1c0.3,0.7,4.3,9.8,4.6,10.4h-9.2
				c0.2-0.5,3.1-7,3.1-7S20.1,28.8,20.3,28.1z"/>
			<path class="st1" d="M48.1,38.4l-5.3-12c-0.1-0.2-0.3-0.3-0.5-0.3s-0.4,0.1-0.5,0.4l0,0l-5.3,12c-0.1,0.2-0.1,0.4,0,0.6
				c1,1.9,3.3,3.2,5.8,3.2s4.8-1.2,5.8-3.2C48.2,38.8,48.2,38.6,48.1,38.4z M42.3,28.1c0.3,0.7,4.3,9.8,4.6,10.4h-9.2
				c0.2-0.4,2-4.5,2-4.5S42,28.8,42.3,28.1z"/>
			<path class="st1" d="M36.9,25.4c-1,0-0.9,0.9-0.9,0.9h-1.2v-0.5h-7v0.5h-1.2c0,0,0.1-0.9-0.9-0.9c0,0-0.8,0-0.8,1v4.4
				c0,1.1,0.8,1,0.8,1c1,0,0.9-0.9,0.9-0.9h1.2v0.5h1.8V33h3.3v-1.6h1.9v-0.5H36c0,0-0.1,0.9,0.9,0.9c0,0,0.8,0,0.8-1v-4.4
				C37.6,25.4,36.9,25.4,36.9,25.4z"/>
		</g>
		<g>
			<path class="st1" d="M12.2,51.9L8.8,48L9,47.8l1.6,1.8l0.3-0.2l-1.4-1.6l0.2-0.2l1.4,1.6l0.2-0.2c-0.2-0.2-0.6-0.7-1.2-1.3
				l0.1-0.2c0.2,0.3,0.6,0.4,1,0.5l-0.6-0.5l0.2-0.2l2.4,2.7L13,50.2l-0.3-0.3c0,0.3,0,0.5-0.1,0.9l-0.3-0.1c0-0.1,0-0.2,0-0.3
				c-0.5-0.5-0.8-0.8-1-1l-0.2,0.2l1.4,1.6l-0.2,0.2l-1.4-1.6L10.7,50l1.6,1.8L12.2,51.9z M13.4,50.7l-0.2-0.2l0.4-0.4l-2.9-3.2
				l-0.4,0.3L10.2,47l0.6-0.5l3.3,3.7L13.4,50.7z M12.4,50c0-0.1,0-0.2,0-0.3h0.2l-1.2-1.3c-0.3,0-0.5-0.1-0.8-0.2
				C11,48.6,11.6,49.2,12.4,50z M13.8,49.6l-2.5-2.8l0.6-0.5l2.5,2.8L13.8,49.6z M13.8,49.2L14,49l-2.1-2.4l-0.2,0.2L13.8,49.2z
				 M15.5,49l-1.6-1.8l-0.2,0.2l1.4,1.6l-0.2,0.2l-3.1-3.5l0.2-0.2l1.4,1.6l0.2-0.2L12,45.1l0.2-0.2l1.6,1.8l0.2-0.2l0.2,0.2
				L14.1,47l1.6,1.8L15.5,49z"/>
			<path class="st1" d="M15.2,52.1c-0.6,0.4-1.1,0.8-1.7,1l-0.1-0.3c0.6-0.3,1.1-0.6,1.7-1L15.2,52.1z M18,55.1l-0.4,0.4
				c-0.1,0.1-0.2,0.1-0.3,0.1c-0.1,0-0.2,0-0.4-0.1l-1.1-0.8l0.1-0.3l1.2,0.8c0.1,0.1,0.2,0.1,0.3,0l0.2-0.2l-2.8-2l0.7-0.5l2.4,1.7
				l0.2-0.3L15.4,52l0.1-0.2l2.9,2l-0.5,0.7L15.5,53l-0.3,0.2L18,55.1z M15.8,51.2l-0.3,0.1c0-0.3-0.1-0.6-0.3-1l0.3-0.1
				C15.7,50.5,15.8,50.9,15.8,51.2z M16.2,51.5c-0.2,0.2-0.4,0.3-0.5,0.4l-0.2-0.2c0.2-0.1,0.4-0.2,0.5-0.4L16.2,51.5z M16.2,52.2
				L16,52.1c0.1-0.2,0.2-0.4,0.3-0.6l0.2,0.1C16.3,51.9,16.3,52.1,16.2,52.2z M17.2,51.8L17,51.7v-0.1c-0.3-0.1-0.6-0.3-0.9-0.4V51
				c0.4-0.1,0.7-0.1,1-0.2c-0.2-0.1-0.4-0.2-0.5-0.3v-0.2c0.4-0.1,0.8-0.2,1.1-0.4l0.1,0.2c-0.2,0.1-0.5,0.2-0.9,0.3
				c0.1,0.1,0.3,0.2,0.4,0.2s0.2-0.1,0.3-0.1l0.1,0.2C17.4,50.8,17,51,16.4,51c0.1,0.1,0.3,0.2,0.5,0.2c0,0,0-0.1,0-0.2l0.2,0.1
				C17.3,51.4,17.2,51.5,17.2,51.8z M16.7,50.1l-0.3,0.1c0-0.3-0.1-0.6-0.3-1l0.3-0.1C16.5,49.4,16.6,49.7,16.7,50.1z M16.7,52.4
				l-0.2-0.1c0.1-0.2,0.1-0.3,0.2-0.5l0.2,0.1C16.8,52,16.8,52.2,16.7,52.4z M17.7,53.2l-0.9-0.6l0.5-0.7l0.9,0.6L17.7,53.2z
				 M17.6,52.8l0.2-0.3l-0.4-0.3l-0.2,0.3L17.6,52.8z M18.3,52.3l-0.9-0.6l0.1-0.2l0.9,0.6L18.3,52.3z M18.5,51.9l-0.9-0.6l0.1-0.2
				l0.9,0.6L18.5,51.9z M18.4,53c-0.1,0.1-0.3,0.3-0.5,0.5l-0.2-0.2c0.2-0.1,0.3-0.3,0.5-0.4L18.4,53z M19,51.6l-1.1-0.8l0.1-0.2
				l0.5,0.3c0-0.1,0.1-0.2,0.1-0.3l0.3,0.1c0,0.1,0,0.3-0.1,0.5l0.4,0.3L19,51.6z M18.5,53.8l-0.2-0.1c0.1-0.1,0.2-0.3,0.3-0.5
				l0.2,0.1C18.7,53.4,18.6,53.6,18.5,53.8z M19.4,53.4l-0.3-0.1c0-0.1,0-0.1,0-0.2c-0.4-0.2-0.7-0.3-0.9-0.5v-0.2
				c0.3,0,0.6-0.1,0.9-0.1L18.8,52v-0.2c0.5-0.1,0.9-0.2,1.1-0.3l0.2,0.2c-0.2,0.2-0.5,0.3-0.9,0.3c0.2,0.1,0.3,0.2,0.4,0.2
				c0.2-0.1,0.3-0.1,0.3-0.1l0.1,0.3c-0.3,0.1-0.7,0.2-1.3,0.3c0.1,0.1,0.2,0.1,0.4,0.2c0-0.1,0-0.1,0-0.2l0.3,0.1
				C19.5,53,19.5,53.2,19.4,53.4z M19,54.1L18.8,54c0.1-0.3,0.1-0.5,0.2-0.6l0.2,0.1C19.1,53.7,19.1,53.9,19,54.1z"/>
			<path class="st1" d="M20.4,55.6c-0.3,0.4-0.7,0.6-1.1,0.9l-0.2-0.3c0.3-0.2,0.6-0.4,1-0.8L20.4,55.6z M22.3,55.8l-1.2-0.4l-0.7,2
				l-0.3-0.1l0.7-2l-1.2-0.4l0.1-0.3l1.2,0.4l0.2-0.5l-1-0.5l0.1-0.3l0.7,0.3c0-0.2,0-0.5,0-0.9l0.2-0.1l-0.5-0.1l0.1-0.3l1.1,0.4
				c0-0.1,0-0.3-0.1-0.5H22c0,0.2,0.1,0.4,0.1,0.6l1,0.4L23,53.8l-0.5-0.2l0.2,0.2c-0.1,0.2-0.4,0.4-0.7,0.7l0.7,0.2L22.6,55
				l-1.1-0.4l-0.2,0.5l1.2,0.4L22.3,55.8z M22.4,53.5l-1.2-0.4c0,0.4,0,0.8,0,1l0.5,0.2C22,54.1,22.2,53.8,22.4,53.5z M25,55.9
				l-0.6-0.2l-1,2.7l-0.3-0.1l1-2.7l-0.9-0.3c-0.4,1.2-1,2-1.7,2.5l-0.2-0.3c0.4-0.3,0.7-0.5,0.9-0.9c0.2-0.3,0.5-0.8,0.7-1.4
				l0.6-1.6c0.8,0.2,1.4,0.2,1.9,0.2l0.1,0.3c-0.6,0-1.2,0-1.9-0.2l-0.4,1l1.8,0.6V55.9z M21.8,56.7l-0.3,0.1c0-0.3,0-0.6-0.1-0.9
				h0.3C21.7,56.1,21.8,56.4,21.8,56.7z"/>
			<path class="st1" d="M28.3,58.5c-1.1,0.2-2,0.4-2.7,0.5l-0.1-0.3c0.5-0.1,1.1-0.1,1.7-0.3l0.2-2.2L25.9,56v-0.3l1.6,0.2l0.2-1.8
				H28l-0.4,4.2c0.2,0,0.5-0.1,0.7-0.2C28.3,58.1,28.3,58.5,28.3,58.5z M30.9,58c0,0.2-0.1,0.5-0.1,0.7c-0.1,0.2-0.1,0.4-0.1,0.4
				c0,0.1-0.1,0.1-0.2,0.1s-0.1,0.1-0.2,0.1s-0.3,0-0.5,0c-0.5-0.1-0.8-0.1-0.9-0.1s-0.2-0.1-0.2-0.2c0-0.1,0-0.2,0-0.3l0.5-4.4h0.3
				l-0.2,1.8l1.7,0.2v0.3l-1.7-0.2L29,58.8c0,0,0,0.1,0.1,0.1s0.3,0.1,0.6,0.1c0.3,0,0.4,0,0.5,0s0.1,0,0.1-0.1c0,0,0.1-0.2,0.1-0.4
				c0.1-0.2,0.1-0.4,0.1-0.7L30.9,58z"/>
			<path class="st1" d="M33.9,58.1c-0.6,0.4-1.1,0.7-1.6,0.9l-0.1-0.3c0.2-0.1,0.5-0.2,0.7-0.4l-0.3-2.2l-0.7,0.1v-0.3l0.7-0.1
				l-0.2-1.4h0.3l0.2,1.4l0.7-0.1V56l-0.7,0.1l0.2,2.1c0.3-0.2,0.5-0.3,0.6-0.4L33.9,58.1z M37.4,57.8c0,0.4,0,0.6-0.1,0.8
				c-0.1,0.1-0.2,0.2-0.3,0.3c-0.1,0-0.4,0.1-1,0.1c-0.7,0.1-1.2,0.1-1.3,0.1s-0.2,0-0.3-0.1s-0.1-0.2-0.1-0.3L34,56.4l-0.5,0.2
				l-0.1-0.3L34,56l-0.1-1.2h0.3l0.1,1.1l0.9-0.4L35,54.1h0.3l0.2,1.3l1.3-0.6c0.1,0.8,0.1,1.6,0,2.4h-0.3c0.1-0.7,0.1-1.4,0.1-2
				l-1,0.4l0.3,2.2h-0.3l-0.2-2.1l-0.9,0.4l0.3,2.4c0,0,0,0,0,0.1h0.1c0,0,0.1,0,0.4,0c0.2,0,0.4,0,0.7-0.1c0.7-0.1,1.1-0.1,1.2-0.2
				c0.1,0,0.1-0.3,0.1-0.8L37.4,57.8z"/>
			<path class="st1" d="M42.6,53.1l-3.1,1.2c0.1,0.3,0.2,0.6,0.3,0.9l2.4-0.9c0.2,0.5,0.3,1,0.5,1.5c0.1,0.5,0.2,0.8,0.1,0.9
				c0,0.1-0.1,0.2-0.2,0.3c-0.1,0.1-0.3,0.2-0.7,0.3c-0.1,0-0.3,0.1-0.4,0.1l-0.2-0.3c0.2-0.1,0.4-0.1,0.5-0.2
				c0.3-0.1,0.4-0.2,0.5-0.2c0,0,0.1-0.1,0.1-0.2c0-0.1,0-0.3-0.1-0.7S42.1,55,42,54.6l-2.2,0.8c0.3,1,0,1.9-0.7,2.9l-0.3-0.1
				c0.3-0.3,0.5-0.7,0.7-1.1c0.2-0.4,0.2-0.8,0.2-1.2c-0.1-0.4-0.2-0.9-0.5-1.6L37.7,55l-0.1-0.3l2.4-0.9c-0.3-0.2-0.5-0.4-0.8-0.6
				l0.2-0.2c0.3,0.1,0.6,0.4,0.9,0.7l2.2-0.8L42.6,53.1z"/>
			<path class="st1" d="M44,51.6l-0.1,0.3c-0.4-0.1-0.8-0.1-1.2,0v-0.3C43.2,51.5,43.6,51.5,44,51.6z M44.7,52.8l-0.1,0.3
				c-0.3-0.1-0.7-0.1-1.3,0v-0.3C44,52.8,44.4,52.8,44.7,52.8z M48.2,50.8l-1.6,1.1c0.1,0.9,0.1,1.7,0.1,2.4
				c0.7-0.6,1.2-1.2,1.8-1.7c-0.4-0.1-0.7-0.3-1.1-0.4l0.1-0.3c0.8,0.2,1.5,0.5,2,0.8L49.4,53c-0.2-0.1-0.5-0.2-0.7-0.3
				c-0.6,0.7-1.4,1.4-2.2,2.1l-0.3-0.2c0.1-0.2,0.2-0.5,0.2-1s0-1-0.1-1.5L45.2,53L45,52.8l1.4-1l-0.7-0.9l-1.1,0.8l-0.2-0.2
				l1.2-0.9l-0.5-0.7l0.3-0.2l0.5,0.7l1.2-0.8l0.2,0.2l-1.2,0.8l0.7,0.9l1.4-1L48.2,50.8z M45.3,53.6c0.2,0.9,0.2,1.6,0.2,2.2h-0.3
				c0-0.6,0-1.3-0.2-2.2H45.3z"/>
			<path class="st1" d="M49.1,48.7c0.5,0,1,0.2,1.3,0.5c0.1,0.1,0.2,0.2,0.2,0.4c0,0.1-0.1,0.3-0.3,0.6c-0.1,0.1-0.1,0.1-0.2,0.2
				l-0.3-0.1L50,50c0.1-0.1,0.2-0.2,0.2-0.3s0-0.1-0.1-0.2c-0.3-0.3-0.8-0.4-1.3-0.5c-0.2-0.4-0.4-0.8-0.7-1.3l-0.5,0.7l3.4,3
				l-0.2,0.2l-3.7-3.2l1-1.2l0.2,0.2C48.7,47.9,48.9,48.3,49.1,48.7z M51.7,45.7L51.5,46l-0.6-0.6l-1.7,1.9l0.6,0.6l-0.2,0.3
				l-0.9-0.8l0.9-1.1c-0.1-0.1-0.3-0.1-0.5-0.2l0.2-0.3c0.2,0.1,0.4,0.1,0.6,0.2l1-1.1L51.7,45.7z M51.4,46.2L50,47.8l-0.2-0.2
				l1.4-1.6L51.4,46.2z M53.4,47.1c0.2,0.2,0.4,0.4,0.5,0.5S54,47.9,54,48s-0.1,0.3-0.3,0.5c-0.2,0.3-0.4,0.3-0.6,0.1l-1.3-1.2
				L51.2,48c0.5,0.5,0.7,0.9,0.8,1.3c0.1,0.4,0,0.8-0.1,1.3h-0.3c0.2-0.4,0.2-0.9,0.2-1.2c-0.1-0.4-0.3-0.7-0.7-1.1L50.5,49
				l-0.2-0.2l2.1-2.4l0.2,0.2L52,47.3l1.3,1.1h0.1c0,0,0.1-0.1,0.2-0.2c0-0.1,0-0.2,0-0.2v-0.1c0,0-0.1-0.1-0.2-0.2
				c-0.1-0.1-0.2-0.2-0.4-0.3L53.4,47.1z"/>
		</g>
		<path class="st5" d="M54.5,41.9"/>
	</g>
</g>
</svg>
