<?xml version="1.0" encoding="utf-8"?>
<!-- Generator: Adobe Illustrator 24.0.2, SVG Export Plug-In . SVG Version: 6.00 Build 0)  -->
<svg version="1.1" id="圖層_1" xmlns="http://www.w3.org/2000/svg" xmlns:xlink="http://www.w3.org/1999/xlink" x="0px" y="0px"
	 viewBox="0 0 30 30" style="enable-background:new 0 0 30 30;" xml:space="preserve">
<style type="text/css">
	.st0{fill:#FFFFFF;}
</style>
<g id="XMLID_288_">
	<g id="XMLID_308_">
		<g id="XMLID_311_">
			<path id="XMLID_865_" class="st0" d="M6.1,26.7c-0.2,0-0.4-0.2-0.4-0.4V3.9C5.7,2.3,7,1,8.6,1h14.7c0.2,0,0.4,0.2,0.4,0.4
				s-0.2,0.4-0.4,0.4H8.6c-1.1,0-2,0.9-2,2v22.4C6.5,26.5,6.3,26.7,6.1,26.7z"/>
		</g>
		<g id="XMLID_310_">
			<path id="XMLID_862_" class="st0" d="M18.3,29.2H3.7c-1.6,0-2.9-1.3-2.9-2.9v-0.4h15.5v0.4c0,1.1,0.9,2,2,2c1.1,0,2-0.9,2-2V20
				c0-0.2,0.2-0.4,0.4-0.4c0.2,0,0.4,0.2,0.4,0.4v6.3C21.2,27.9,19.9,29.2,18.3,29.2z M1.7,26.7c0.2,0.9,1,1.6,2,1.6h12.6
				c-0.4-0.4-0.7-1-0.8-1.6H1.7z"/>
		</g>
		<g id="XMLID_309_">
			<path id="XMLID_859_" class="st0" d="M20.8,12.9c-0.2,0-0.4-0.2-0.4-0.4V3.9c0-1.6,1.3-2.9,2.9-2.9c1.6,0,2.9,1.3,2.9,2.9
				s-1.3,2.9-2.9,2.9h-2v5.7C21.2,12.7,21,12.9,20.8,12.9z M21.2,5.9h2c1.1,0,2-0.9,2-2s-0.9-2-2-2c-1.1,0-2,0.9-2,2V5.9z"/>
		</g>
	</g>
	<g id="XMLID_294_">
		<g id="XMLID_307_">
			<path id="XMLID_856_" class="st0" d="M12.5,24.9l1.1-3.5L26.8,8.3l2.3,2.3L16,23.7L12.5,24.9z M14.4,21.9l-0.5,1.7l1.7-0.5
				l12.4-12.4l-1.1-1.1L14.4,21.9z"/>
		</g>
		<g id="XMLID_306_">
			<path id="XMLID_855_" class="st0" d="M27.3,14.3c-0.1,0-0.2,0-0.3-0.1l-2.8-2.8c-0.2-0.2-0.2-0.4,0-0.6c0.2-0.2,0.4-0.2,0.6,0
				l2.8,2.8c0.2,0.2,0.2,0.4,0,0.6C27.5,14.3,27.4,14.3,27.3,14.3z"/>
		</g>
	</g>
	<g id="XMLID_293_">
		<path id="XMLID_854_" class="st0" d="M18.4,9.3H7.8c-0.2,0-0.4-0.2-0.4-0.4c0-0.2,0.2-0.4,0.4-0.4h10.6c0.2,0,0.4,0.2,0.4,0.4
			C18.9,9.1,18.7,9.3,18.4,9.3z"/>
	</g>
	<g id="XMLID_292_">
		<path id="XMLID_853_" class="st0" d="M18.4,12.9H7.8c-0.2,0-0.4-0.2-0.4-0.4c0-0.2,0.2-0.4,0.4-0.4h10.6c0.2,0,0.4,0.2,0.4,0.4
			C18.9,12.7,18.7,12.9,18.4,12.9z"/>
	</g>
	<g id="XMLID_291_">
		<path id="XMLID_852_" class="st0" d="M12.3,22.8H7.8c-0.2,0-0.4-0.2-0.4-0.4c0-0.2,0.2-0.4,0.4-0.4h4.4c0.2,0,0.4,0.2,0.4,0.4
			C12.7,22.6,12.5,22.8,12.3,22.8z"/>
	</g>
	<g id="XMLID_290_">
		<path id="XMLID_851_" class="st0" d="M11.2,24.6H7.8c-0.2,0-0.4-0.2-0.4-0.4c0-0.2,0.2-0.4,0.4-0.4h3.4c0.2,0,0.4,0.2,0.4,0.4
			C11.7,24.4,11.5,24.6,11.2,24.6z"/>
	</g>
	<g id="XMLID_289_">
		<path id="XMLID_850_" class="st0" d="M18.4,11.1H7.8c-0.2,0-0.4-0.2-0.4-0.4s0.2-0.4,0.4-0.4h10.6c0.2,0,0.4,0.2,0.4,0.4
			S18.7,11.1,18.4,11.1z"/>
	</g>
	<g id="XMLID_312_">
		<path id="XMLID_849_" class="st0" d="M25.1,16.5c-0.1,0-0.2,0-0.3-0.1c-0.2-0.2-0.2-0.4,0-0.6l3.3-3.3c0.2-0.2,0.4-0.2,0.6,0
			c0.2,0.2,0.2,0.4,0,0.6l-3.3,3.3C25.3,16.5,25.2,16.5,25.1,16.5z"/>
	</g>
</g>
</svg>
