<?xml version="1.0" encoding="utf-8"?>
<!-- Generator: Adobe Illustrator 24.0.2, SVG Export Plug-In . SVG Version: 6.00 Build 0)  -->
<svg version="1.1" id="圖層_1" xmlns="http://www.w3.org/2000/svg" xmlns:xlink="http://www.w3.org/1999/xlink" x="0px" y="0px"
	 viewBox="0 0 30 30" style="enable-background:new 0 0 30 30;" xml:space="preserve">
<style type="text/css">
	.st0{fill:#FFFFFF;}
</style>
<g id="XMLID_223_">
	<g id="XMLID_180_">
		<path id="XMLID_953_" class="st0" d="M28.4,7.5H1.3C1,7.5,0.8,7.3,0.8,7c0-0.2,0.1-0.5,0.3-0.6L14.9,1l13.8,5.4
			C28.9,6.5,29,6.8,28.9,7C28.9,7.3,28.7,7.5,28.4,7.5z M3.1,6.6h23.5L14.9,1.9L3.1,6.6z"/>
	</g>
	<g id="XMLID_222_">
		<path id="XMLID_950_" class="st0" d="M29.3,30h-29v-2.9h2.9v-2h23.2v2h2.9V30z M1.3,29.1h27.2V28h-2.9v-2H4.2v2H1.3V29.1z"/>
	</g>
	<g id="XMLID_184_">
		<path id="XMLID_947_" class="st0" d="M26.4,9.5H3.3V6.6h23.2V9.5z M4.2,8.6h21.4V7.5H4.2V8.6z"/>
	</g>
	<g id="XMLID_190_">
		<g id="XMLID_189_">
			<g id="XMLID_182_">
				<path id="XMLID_944_" class="st0" d="M9.1,11.3H4.2V8.6h4.9V11.3z M5.1,10.5h3.1v-1H5.1V10.5z"/>
			</g>
			<g id="XMLID_186_">
				<path id="XMLID_941_" class="st0" d="M9.1,25.9H4.2v-2.7h4.9V25.9z M5.1,25.1h3.1v-1H5.1V25.1z"/>
			</g>
			<g id="XMLID_185_">
				<g id="XMLID_188_">
					<path id="XMLID_938_" class="st0" d="M7.1,24.1H4.5L5,10.5h2.1V24.1z M5.4,23.2h0.8V11.3H5.8L5.4,23.2z"/>
				</g>
				<g id="XMLID_187_">
					<path id="XMLID_935_" class="st0" d="M8.8,24.1H6.2V10.5h2.1L8.8,24.1z M7.1,23.2h0.8L7.4,11.3H7.1V23.2z"/>
				</g>
			</g>
		</g>
		<g id="XMLID_191_">
			<g id="XMLID_196_">
				<path id="XMLID_932_" class="st0" d="M17.3,11.3h-4.9V8.6h4.9V11.3z M13.3,10.5h3.1v-1h-3.1V10.5z"/>
			</g>
			<g id="XMLID_195_">
				<path id="XMLID_929_" class="st0" d="M17.3,25.9h-4.9v-2.7h4.9V25.9z M13.3,25.1h3.1v-1h-3.1V25.1z"/>
			</g>
			<g id="XMLID_192_">
				<g id="XMLID_194_">
					<path id="XMLID_926_" class="st0" d="M15.3,24.1h-2.6l0.5-13.6h2.1V24.1z M13.6,23.2h0.8V11.3h-0.4L13.6,23.2z"/>
				</g>
				<g id="XMLID_193_">
					<path id="XMLID_923_" class="st0" d="M17,24.1h-2.6V10.5h2.1L17,24.1z M15.3,23.2h0.8l-0.4-11.9h-0.4V23.2z"/>
				</g>
			</g>
		</g>
		<g id="XMLID_197_">
			<g id="XMLID_202_">
				<path id="XMLID_920_" class="st0" d="M25.5,11.3h-4.9V8.6h4.9V11.3z M21.5,10.5h3.1v-1h-3.1V10.5z"/>
			</g>
			<g id="XMLID_201_">
				<path id="XMLID_917_" class="st0" d="M25.5,25.9h-4.9v-2.7h4.9V25.9z M21.5,25.1h3.1v-1h-3.1V25.1z"/>
			</g>
			<g id="XMLID_198_">
				<g id="XMLID_200_">
					<path id="XMLID_914_" class="st0" d="M23.5,24.1h-2.6l0.5-13.6h2.1V24.1z M21.8,23.2h0.8V11.3h-0.4L21.8,23.2z"/>
				</g>
				<g id="XMLID_199_">
					<path id="XMLID_911_" class="st0" d="M25.2,24.1h-2.6V10.5h2.1L25.2,24.1z M23.5,23.2h0.8l-0.4-11.9h-0.4V23.2z"/>
				</g>
			</g>
		</g>
	</g>
	<g id="XMLID_216_">
		<g id="XMLID_217_">
			<g id="XMLID_220_">
				<path id="XMLID_910_" class="st0" d="M14.8,5.9c-0.2,0-0.5-0.1-0.8-0.2c-0.2-0.1-0.3-0.3-0.2-0.6c0.1-0.2,0.3-0.3,0.6-0.2
					C14.7,5.1,14.9,5.1,15,5C15,5,15.1,5,15.1,4.9c0-0.1-0.1-0.2-0.3-0.2c-0.6-0.2-1-0.6-1-1c0-0.4,0.2-0.6,0.4-0.7
					c0.5-0.3,1.1-0.1,1.3,0c0.2,0.1,0.3,0.3,0.2,0.6c-0.1,0.2-0.3,0.3-0.6,0.2l0,0c-0.1-0.1-0.3-0.1-0.4-0.1c0,0,0.1,0.1,0.3,0.1
					c0.9,0.3,1,1,0.9,1.3c0,0.1-0.1,0.5-0.6,0.7C15.2,5.9,15,5.9,14.8,5.9z"/>
			</g>
			<g id="XMLID_219_">
				<path id="XMLID_909_" class="st0" d="M14.8,6.4c-0.2,0-0.4-0.2-0.4-0.4V5.5c0-0.2,0.2-0.4,0.4-0.4c0.2,0,0.4,0.2,0.4,0.4V6
					C15.2,6.2,15,6.4,14.8,6.4z"/>
			</g>
			<g id="XMLID_218_">
				<path id="XMLID_908_" class="st0" d="M14.8,3.7c-0.2,0-0.4-0.2-0.4-0.4V2.8c0-0.2,0.2-0.4,0.4-0.4c0.2,0,0.4,0.2,0.4,0.4v0.5
					C15.2,3.5,15,3.7,14.8,3.7z"/>
			</g>
		</g>
	</g>
	<g id="XMLID_181_">
		<path id="XMLID_907_" class="st0" d="M26,28H12.1c-0.2,0-0.4-0.2-0.4-0.4s0.2-0.4,0.4-0.4H26c0.2,0,0.4,0.2,0.4,0.4S26.2,28,26,28
			z"/>
	</g>
	<g id="XMLID_183_">
		<path id="XMLID_906_" class="st0" d="M10.7,28H8.8c-0.2,0-0.4-0.2-0.4-0.4s0.2-0.4,0.4-0.4h1.9c0.2,0,0.4,0.2,0.4,0.4
			S11,28,10.7,28z"/>
	</g>
	<g id="XMLID_221_">
		<path id="XMLID_905_" class="st0" d="M7.5,28H6.8c-0.2,0-0.4-0.2-0.4-0.4s0.2-0.4,0.4-0.4h0.7c0.2,0,0.4,0.2,0.4,0.4
			S7.7,28,7.5,28z"/>
	</g>
</g>
</svg>
