<?xml version="1.0" encoding="utf-8"?>
<!-- Generator: Adobe Illustrator 24.0.2, SVG Export Plug-In . SVG Version: 6.00 Build 0)  -->
<svg version="1.1" id="圖層_1" xmlns="http://www.w3.org/2000/svg" xmlns:xlink="http://www.w3.org/1999/xlink" x="0px" y="0px"
	 viewBox="0 0 30 30" style="enable-background:new 0 0 30 30;" xml:space="preserve">
<style type="text/css">
	.st0{fill:#FFFFFF;}
</style>
<g id="XMLID_329_">
	<g id="XMLID_554_">
		<g id="XMLID_314_">
			<path id="XMLID_1033_" class="st0" d="M30,22.9h-4.2c-0.3,0-0.5-0.2-0.5-0.5c0-0.3,0.2-0.5,0.5-0.5h3.2v-1.1l-2.8-9.4H3.8L1,21
				c-0.1,0.2-0.3,0.4-0.6,0.3c-0.2-0.1-0.4-0.3-0.3-0.6l3-10.1h23.8L30,20.9V22.9z"/>
		</g>
		<g id="XMLID_300_">
			<g id="XMLID_295_">
				<g id="XMLID_299_">
					<path id="XMLID_1032_" class="st0" d="M6.6,11.5c-0.3,0-0.5-0.2-0.5-0.5V9.6c0-0.3,0.2-0.5,0.5-0.5c0.3,0,0.5,0.2,0.5,0.5V11
						C7.1,11.3,6.9,11.5,6.6,11.5z"/>
				</g>
				<g id="XMLID_298_">
					<path id="XMLID_1031_" class="st0" d="M12.1,11.5c-0.3,0-0.5-0.2-0.5-0.5V8.9c0-1-0.8-1.8-1.8-1.8H7.4c-1,0-1.8,0.8-1.8,1.8V11
						c0,0.3-0.2,0.5-0.5,0.5c-0.3,0-0.5-0.2-0.5-0.5V8.9c0-1.5,1.2-2.7,2.7-2.7h2.4c1.5,0,2.7,1.2,2.7,2.7V11
						C12.5,11.3,12.3,11.5,12.1,11.5z"/>
				</g>
				<g id="XMLID_297_">
					<path id="XMLID_1030_" class="st0" d="M10.7,11.5c-0.3,0-0.5-0.2-0.5-0.5V9.6c0-0.3,0.2-0.5,0.5-0.5c0.3,0,0.5,0.2,0.5,0.5V11
						C11.1,11.3,10.9,11.5,10.7,11.5z"/>
				</g>
				<g id="XMLID_296_">
					<path id="XMLID_1027_" class="st0" d="M8.6,6C7.2,6,6.1,4.9,6.1,3.5C6.1,2.1,7.2,1,8.6,1c1.4,0,2.5,1.1,2.5,2.5
						C11.2,4.9,10,6,8.6,6z M8.6,1.9C7.7,1.9,7,2.6,7,3.5c0,0.9,0.7,1.6,1.6,1.6c0.9,0,1.6-0.7,1.6-1.6C10.2,2.6,9.5,1.9,8.6,1.9z"
						/>
				</g>
			</g>
			<g id="XMLID_301_">
				<g id="XMLID_305_">
					<path id="XMLID_1026_" class="st0" d="M19.4,11.5c-0.3,0-0.5-0.2-0.5-0.5V9.6c0-0.3,0.2-0.5,0.5-0.5s0.5,0.2,0.5,0.5V11
						C19.9,11.3,19.7,11.5,19.4,11.5z"/>
				</g>
				<g id="XMLID_304_">
					<path id="XMLID_1025_" class="st0" d="M24.9,11.5c-0.3,0-0.5-0.2-0.5-0.5V8.9c0-1-0.8-1.8-1.8-1.8h-2.4c-1,0-1.8,0.8-1.8,1.8
						V11c0,0.3-0.2,0.5-0.5,0.5c-0.3,0-0.5-0.2-0.5-0.5V8.9c0-1.5,1.2-2.7,2.7-2.7h2.4c1.5,0,2.7,1.2,2.7,2.7V11
						C25.4,11.3,25.2,11.5,24.9,11.5z"/>
				</g>
				<g id="XMLID_303_">
					<path id="XMLID_1024_" class="st0" d="M23.5,11.5c-0.3,0-0.5-0.2-0.5-0.5V9.6c0-0.3,0.2-0.5,0.5-0.5c0.3,0,0.5,0.2,0.5,0.5V11
						C23.9,11.3,23.7,11.5,23.5,11.5z"/>
				</g>
				<g id="XMLID_302_">
					<path id="XMLID_1021_" class="st0" d="M21.5,6C20.1,6,19,4.9,19,3.5C19,2.1,20.1,1,21.5,1C22.9,1,24,2.1,24,3.5
						C24,4.9,22.9,6,21.5,6z M21.5,1.9c-0.9,0-1.6,0.7-1.6,1.6c0,0.9,0.7,1.6,1.6,1.6c0.9,0,1.6-0.7,1.6-1.6
						C23.1,2.6,22.4,1.9,21.5,1.9z"/>
				</g>
			</g>
		</g>
		<g id="XMLID_548_">
			<g id="XMLID_547_">
				<g id="XMLID_544_">
					<g id="XMLID_546_">
						<path id="XMLID_1020_" class="st0" d="M11.7,27.3L11.7,27.3c-0.7,0-1.3-0.6-1.3-1.2v-2.6c0-0.3,0.2-0.5,0.5-0.5
							c0.3,0,0.5,0.2,0.5,0.5V26c0,0.2,0.2,0.3,0.3,0.3h0.1c0.2,0,0.3-0.2,0.3-0.3v-5.1c0-1.2-1-2.2-2.2-2.2H6.9
							c-1.2,0-2.2,1-2.2,2.2V26c0,0.2,0.2,0.3,0.3,0.3c0.2,0,0.3-0.2,0.3-0.3v-2.6c0-0.3,0.2-0.5,0.5-0.5c0.3,0,0.5,0.2,0.5,0.5V26
							c0,0.7-0.6,1.2-1.2,1.2c-0.7,0-1.2-0.6-1.2-1.2v-5.1c0-1.7,1.4-3.1,3.1-3.1h2.9c1.7,0,3.1,1.4,3.1,3.1V26
							C13,26.7,12.4,27.3,11.7,27.3z"/>
					</g>
					<g id="XMLID_545_">
						<path id="XMLID_1017_" class="st0" d="M8.4,17.4c-1.6,0-2.9-1.3-2.9-2.9s1.3-2.9,2.9-2.9s2.9,1.3,2.9,2.9S10,17.4,8.4,17.4z
							 M8.4,12.4c-1.1,0-2,0.9-2,2c0,1.1,0.9,2,2,2c1.1,0,2-0.9,2-2C10.4,13.3,9.5,12.4,8.4,12.4z"/>
					</g>
				</g>
				<g id="XMLID_543_">
					<path id="XMLID_1014_" class="st0" d="M11.3,29.6H5.4v-7c0-1.1,0.9-2,2-2h2c0.5,0,1.1,0.2,1.4,0.6c0.4,0.4,0.5,0.9,0.5,1.4
						L11.3,29.6z M6.3,28.7h4.1v-6.1c0-0.3-0.1-0.5-0.3-0.7c-0.2-0.2-0.5-0.3-0.8-0.3h-2c-0.6,0-1.1,0.5-1.1,1.1V28.7z"/>
				</g>
			</g>
			<g id="XMLID_549_">
				<g id="XMLID_551_">
					<g id="XMLID_553_">
						<path id="XMLID_1013_" class="st0" d="M25.1,27.3L25.1,27.3c-0.7,0-1.3-0.6-1.3-1.2v-2.6c0-0.3,0.2-0.5,0.5-0.5
							c0.3,0,0.5,0.2,0.5,0.5V26c0,0.2,0.2,0.3,0.3,0.3h0.1c0.2,0,0.3-0.2,0.3-0.3v-5.1c0-1.2-1-2.2-2.2-2.2h-2.9
							c-1.2,0-2.2,1-2.2,2.2V26c0,0.2,0.2,0.3,0.3,0.3c0.2,0,0.3-0.2,0.3-0.3v-2.6c0-0.3,0.2-0.5,0.5-0.5c0.3,0,0.5,0.2,0.5,0.5V26
							c0,0.7-0.6,1.2-1.2,1.2c-0.7,0-1.2-0.6-1.2-1.2v-5.1c0-1.7,1.4-3.1,3.1-3.1h2.9c1.7,0,3.1,1.4,3.1,3.1V26
							C26.3,26.7,25.7,27.3,25.1,27.3z"/>
					</g>
					<g id="XMLID_552_">
						<path id="XMLID_1010_" class="st0" d="M21.7,17.4c-1.6,0-2.9-1.3-2.9-2.9s1.3-2.9,2.9-2.9s2.9,1.3,2.9,2.9
							S23.3,17.4,21.7,17.4z M21.7,12.4c-1.1,0-2,0.9-2,2c0,1.1,0.9,2,2,2c1.1,0,2-0.9,2-2C23.8,13.3,22.8,12.4,21.7,12.4z"/>
					</g>
				</g>
				<g id="XMLID_550_">
					<path id="XMLID_1007_" class="st0" d="M24.7,29.6h-5.9v-7c0-1.1,0.9-2,2-2h2c0.5,0,1.1,0.2,1.4,0.6c0.4,0.4,0.5,0.9,0.5,1.4
						L24.7,29.6z M19.6,28.7h4.1v-6.1c0-0.3-0.1-0.5-0.3-0.7c-0.2-0.2-0.5-0.3-0.8-0.3h-2c-0.6,0-1.1,0.5-1.1,1.1V28.7z"/>
				</g>
			</g>
		</g>
	</g>
	<g id="XMLID_313_">
		<path id="XMLID_1006_" class="st0" d="M4.3,22.9H0.1v-2.1c0-0.3,0.2-0.5,0.5-0.5c0.3,0,0.5,0.2,0.5,0.5V22h3.2
			c0.3,0,0.5,0.2,0.5,0.5C4.7,22.7,4.5,22.9,4.3,22.9z"/>
	</g>
	<g id="XMLID_322_">
		<path id="XMLID_1005_" class="st0" d="M17.6,22.9h-5.1c-0.3,0-0.5-0.2-0.5-0.5c0-0.3,0.2-0.5,0.5-0.5h5.1c0.3,0,0.5,0.2,0.5,0.5
			C18.1,22.7,17.9,22.9,17.6,22.9z"/>
	</g>
	<g id="XMLID_323_">
		<path id="XMLID_1004_" class="st0" d="M4.3,21.3H0.6c-0.3,0-0.5-0.2-0.5-0.5c0-0.3,0.2-0.5,0.5-0.5h3.7c0.3,0,0.5,0.2,0.5,0.5
			C4.7,21.1,4.5,21.3,4.3,21.3z"/>
	</g>
	<g id="XMLID_324_">
		<path id="XMLID_1003_" class="st0" d="M15.7,21.3h-3.2c-0.3,0-0.5-0.2-0.5-0.5c0-0.3,0.2-0.5,0.5-0.5h3.2c0.3,0,0.5,0.2,0.5,0.5
			C16.1,21.1,15.9,21.3,15.7,21.3z"/>
	</g>
	<g id="XMLID_325_">
		<path id="XMLID_1002_" class="st0" d="M29.5,21.3h-2c-0.3,0-0.5-0.2-0.5-0.5c0-0.3,0.2-0.5,0.5-0.5h2c0.3,0,0.5,0.2,0.5,0.5
			C30,21.1,29.8,21.3,29.5,21.3z"/>
	</g>
	<g id="XMLID_328_">
		<g id="XMLID_326_">
			<path id="XMLID_1001_" class="st0" d="M2.5,27.3c-0.3,0-0.5-0.2-0.5-0.5v-4.3C2,22.2,2.2,22,2.5,22c0.3,0,0.5,0.2,0.5,0.5v4.3
				C2.9,27.1,2.7,27.3,2.5,27.3z"/>
		</g>
		<g id="XMLID_327_">
			<path id="XMLID_1000_" class="st0" d="M27.6,26.8c-0.3,0-0.5-0.2-0.5-0.5v-3.8c0-0.3,0.2-0.5,0.5-0.5c0.3,0,0.5,0.2,0.5,0.5v3.8
				C28.1,26.6,27.9,26.8,27.6,26.8z"/>
		</g>
	</g>
</g>
</svg>
