<?xml version="1.0" encoding="utf-8"?>
<!-- Generator: Adobe Illustrator 24.0.2, SVG Export Plug-In . SVG Version: 6.00 Build 0)  -->
<svg version="1.1" id="圖層_1" xmlns="http://www.w3.org/2000/svg" xmlns:xlink="http://www.w3.org/1999/xlink" x="0px" y="0px"
	 viewBox="0 0 30 30" style="enable-background:new 0 0 30 30;" xml:space="preserve">
<style type="text/css">
	.st0{fill:#FFFFFF;}
</style>
<g>
	<path class="st0" d="M14.2,28.6c-0.3,0-0.5-0.2-0.5-0.5V23c0-0.3,0.2-0.5,0.5-0.5s0.5,0.2,0.5,0.5v5.2
		C14.7,28.4,14.5,28.6,14.2,28.6z"/>
	<path class="st0" d="M12.2,22.4c-0.3,0-0.5-0.2-0.5-0.5v-3.7c0-0.3,0.2-0.5,0.5-0.5s0.5,0.2,0.5,0.5v3.7
		C12.7,22.1,12.5,22.4,12.2,22.4z"/>
	<path class="st0" d="M14.2,28.6h-2c-0.3,0-0.5-0.2-0.5-0.5v-5.8h-0.3c-0.6,0-1.1-0.5-1.1-1.1v-3.6c0-0.3,0.2-0.5,0.5-0.5
		c0.3,0,0.5,0.2,0.5,0.5v3.6c0,0.1,0.1,0.2,0.2,0.2h0.8c0.3,0,0.5,0.2,0.5,0.5v5.8h1.5c0.3,0,0.5,0.2,0.5,0.5S14.5,28.6,14.2,28.6z"
		/>
	<path class="st0" d="M17.2,16.1h-6.4c-0.3,0-0.5-0.2-0.5-0.5s0.2-0.5,0.5-0.5h6.4c0.3,0,0.5,0.2,0.5,0.5S17.4,16.1,17.2,16.1z"/>
	<path class="st0" d="M16.2,28.6h-2c-0.3,0-0.5-0.2-0.5-0.5s0.2-0.5,0.5-0.5h1.5v-5.8c0-0.3,0.2-0.5,0.5-0.5H17
		c0.1,0,0.2-0.1,0.2-0.2v-5.4c0-0.3,0.2-0.5,0.5-0.5s0.5,0.2,0.5,0.5v5.4c0,0.6-0.5,1.1-1.1,1.1h-0.3v5.8
		C16.7,28.4,16.5,28.6,16.2,28.6z"/>
	<path class="st0" d="M16.2,22.4c-0.3,0-0.5-0.2-0.5-0.5v-3.7c0-0.3,0.2-0.5,0.5-0.5s0.5,0.2,0.5,0.5v3.7
		C16.7,22.1,16.5,22.4,16.2,22.4z"/>
	<path class="st0" d="M14.2,15c-1.1,0-1.9-0.9-1.9-1.9c0-1.1,0.9-1.9,1.9-1.9c1.1,0,1.9,0.9,1.9,1.9C16.2,14.1,15.3,15,14.2,15z
		 M14.2,12c-0.6,0-1,0.5-1,1s0.5,1,1,1c0.6,0,1-0.5,1-1S14.8,12,14.2,12z"/>
	<path class="st0" d="M6.1,28.6c-0.3,0-0.5-0.2-0.5-0.5v-8c0-0.3,0.2-0.5,0.5-0.5c0.3,0,0.5,0.2,0.5,0.5v8
		C6.5,28.4,6.3,28.6,6.1,28.6z"/>
	<path class="st0" d="M3.3,18.9c-0.3,0-0.5-0.2-0.5-0.5v-5.7c0-0.3,0.2-0.5,0.5-0.5s0.5,0.2,0.5,0.5v5.7C3.8,18.7,3.5,18.9,3.3,18.9
		z"/>
	<path class="st0" d="M8.9,28.6H6.1c0,0-2.8,0-2.8,0c-0.3,0-0.5-0.2-0.5-0.5v-9.3H2.3c-0.8,0-1.4-0.6-1.4-1.4v-5.8
		c0-1.9,1.5-3.4,3.4-3.4h3.6c1.9,0,3.4,1.5,3.4,3.4v5.8c0,0.8-0.6,1.4-1.4,1.4H9.3v9.3C9.3,28.4,9.1,28.6,8.9,28.6z M3.8,27.7h2.3
		c0,0,2.3,0,2.3,0v-9.3c0-0.3,0.2-0.5,0.5-0.5h1c0.3,0,0.5-0.2,0.5-0.5v-5.8c0-1.3-1.1-2.4-2.4-2.4H4.3c-1.3,0-2.4,1.1-2.4,2.4v5.8
		c0,0.3,0.2,0.5,0.5,0.5h1c0.3,0,0.5,0.2,0.5,0.5V27.7z"/>
	<path class="st0" d="M8.9,18.9c-0.3,0-0.5-0.2-0.5-0.5v-5.7c0-0.3,0.2-0.5,0.5-0.5s0.5,0.2,0.5,0.5v5.7C9.3,18.7,9.1,18.9,8.9,18.9
		z"/>
	<path class="st0" d="M6.1,7.6C4.6,7.6,3.5,6.4,3.5,5s1.2-2.6,2.6-2.6c1.4,0,2.6,1.2,2.6,2.6S7.5,7.6,6.1,7.6z M6.1,3.4
		C5.2,3.4,4.4,4.1,4.4,5s0.7,1.6,1.6,1.6C7,6.7,7.7,5.9,7.7,5S7,3.4,6.1,3.4z"/>
	<path class="st0" d="M23.1,7.5c-1.3,0-2.4-1.1-2.4-2.4s1.1-2.4,2.4-2.4s2.4,1.1,2.4,2.4S24.5,7.5,23.1,7.5z M23.1,3.6
		c-0.8,0-1.5,0.7-1.5,1.5s0.7,1.5,1.5,1.5c0.8,0,1.5-0.7,1.5-1.5S23.9,3.6,23.1,3.6z"/>
	<path class="st0" d="M25.6,28.6h-4.9c-0.3,0-0.5-0.2-0.5-0.5v-7c0-0.3,0.2-0.5,0.5-0.5h4.9c0.3,0,0.5,0.2,0.5,0.5v7
		C26.1,28.4,25.9,28.6,25.6,28.6z M21.2,27.7h4v-6.1h-4V27.7z"/>
	<path class="st0" d="M23.2,28.6c-0.3,0-0.5-0.2-0.5-0.5v-7c0-0.3,0.2-0.5,0.5-0.5c0.3,0,0.5,0.2,0.5,0.5v7
		C23.7,28.4,23.4,28.6,23.2,28.6z"/>
	<path class="st0" d="M27.3,21.6c0,0-4.2,0-4.2,0l-4.2,0c-0.1,0-0.3-0.1-0.4-0.2c-0.1-0.1-0.1-0.2-0.1-0.4l1-6.5l-0.5,1
		c-0.2,0.4-0.6,0.7-1.1,0.7c-0.5,0-0.9-0.2-1.2-0.5c-0.4-0.4-0.4-1.1-0.1-1.6l2.7-5.5c0.3-0.6,0.9-1,1.6-1H21c0.3,0,0.6,0.1,0.9,0.4
		c0.3,0.3,0.9,0.5,1.2,0.5c0,0,0,0,0,0c0.3,0,0.9-0.2,1.2-0.5c0.2-0.2,0.6-0.4,0.9-0.4h0.3c0.7,0,1.3,0.4,1.6,1l2.7,5.5
		c0.3,0.6,0.2,1.4-0.4,1.8c-0.3,0.2-0.7,0.3-1.1,0.2c-0.4-0.1-0.8-0.4-1-0.7l-0.5-1l1,6.5c0,0.1,0,0.3-0.1,0.4
		C27.6,21.5,27.5,21.6,27.3,21.6z M23.1,20.6l3.7,0L25.5,12c0-0.2,0.1-0.4,0.3-0.5c0.2-0.1,0.5,0,0.6,0.2l1.8,3.4
		c0.1,0.1,0.2,0.2,0.4,0.3c0.1,0,0.2,0,0.4-0.1c0.2-0.1,0.3-0.4,0.1-0.6c0,0-2.7-5.6-2.7-5.6c-0.1-0.3-0.4-0.5-0.7-0.5h-0.3
		c-0.1,0-0.2,0.1-0.2,0.1c-0.5,0.4-1.2,0.8-1.8,0.8c-0.6,0-1.4-0.3-1.9-0.8c0,0-0.1-0.1-0.2-0.1h-0.3c-0.3,0-0.6,0.2-0.7,0.5
		l-2.7,5.5c-0.1,0.2-0.1,0.4,0,0.6c0.1,0.1,0.3,0.2,0.4,0.2c0.2,0,0.3-0.1,0.4-0.2l1.8-3.4c0.1-0.2,0.3-0.3,0.6-0.2
		c0.2,0.1,0.4,0.3,0.3,0.5l-1.3,8.7L23.1,20.6z"/>
	<path class="st0" d="M28.4,28.6H0.5c-0.3,0-0.5-0.2-0.5-0.5s0.2-0.5,0.5-0.5h27.9c0.3,0,0.5,0.2,0.5,0.5S28.7,28.6,28.4,28.6z"/>
	<path class="st0" d="M8.9,18.1H3.3c-0.3,0-0.5-0.2-0.5-0.5s0.2-0.5,0.5-0.5h5.6c0.3,0,0.5,0.2,0.5,0.5S9.1,18.1,8.9,18.1z"/>
</g>
</svg>
