<?xml version="1.0" encoding="utf-8"?>
<!-- Generator: Adobe Illustrator 24.0.2, SVG Export Plug-In . SVG Version: 6.00 Build 0)  -->
<svg version="1.1" id="圖層_1" xmlns="http://www.w3.org/2000/svg" xmlns:xlink="http://www.w3.org/1999/xlink" x="0px" y="0px"
	 viewBox="0 0 270.8 64" style="enable-background:new 0 0 270.8 64;" xml:space="preserve">
<style type="text/css">
	.st0{fill:#333333;}
	.st1{fill:none;stroke:#FFFFFF;stroke-width:0.25;stroke-miterlimit:10;}
	.st2{fill:#FFFFFF;}
	.st3{fill:url(#SVGID_1_);}
	.st4{fill:#005BAB;}
	.st5{fill:#B7A246;}
</style>
<g>
	<path class="st0" d="M91.1,17.9v6.2c0,0.6-0.5,0.7-0.9,0.8c-0.5,0.2-0.8,0.2-1,0.1l-0.1-0.1v-1.7h-3.6v0.9c0,0.2-0.1,0.4-0.2,0.5
		c-0.7,0.4-1.1,0.6-1.4,0.6c-0.2,0-0.3-0.1-0.3-0.3c0-1.7,0.1-2.7,0.1-4.4c-0.1,0.1-0.3,0.1-0.5,0.1h-4.9c-0.1,0.3-0.1,0.5-0.2,0.8
		c0.4,0.2,1,0.2,1.4,0.4c1,0.4,2,0.5,2.7,1.4c0.2,0.6,0.2,1.4-0.2,1.8c-0.2,0.2-0.6,0.4-0.9,0.2c-0.5-0.4-0.8-1-1.2-1.5
		c-0.6-0.8-1.3-1.4-2.1-1.8c-1.3,2.9-4.5,4.4-7.3,5.3l-0.2-0.4c1.9-1.1,3.9-2.5,5.2-4.3c0.4-0.6,0.6-1.3,0.8-1.9H76h-3.8
		c-0.4,0-0.9,0.1-1.2,0.2l-0.6-0.9h5.9c0.2-0.9,0.2-1.8,0.2-3h-1.4c-0.7,1-1.6,1.8-2.5,2.7l-0.3-0.3c1.3-2,2.1-4.2,2.4-6.5
		c0.9,0.3,1.7,0.7,2.5,1.2c0.1,0.1,0.2,0.2,0.1,0.4c-0.2,0.2-0.6,0.2-0.8,0.4c-0.2,0.5-0.5,1-0.9,1.4l4.2,0l0.8-1.3
		c0.1-0.2,0.4-0.1,0.5,0l1.6,1.6c0.1,0.1,0.1,0.4,0,0.4l-0.1,0h-4c-0.1,1-0.2,2-0.4,3h2l0.9-1.4c0.1-0.1,0.3-0.1,0.4,0
		c0.6,0.5,1.1,1.1,1.7,1.7l0.1,0.1V17l-0.1-1.8c0.5,0.2,1.4,0.7,2.1,1.1l3.1,0l1-1c0.1-0.1,0.3,0,0.4,0.1c0.6,0.3,1.1,0.7,1.7,1.1
		c0.2,0.1,0.2,0.4,0.1,0.5C91.3,17.4,91.1,17.7,91.1,17.9z M89.2,26.5c-0.2,0.2-0.7,0.6-0.7,0.8v0.5l0.1,7.1c0,0.2,0,0.4-0.1,0.5
		c-0.4,0.2-1.1,0.6-1.8,0.7c-0.1,0-0.3-0.1-0.3-0.3v-1.1v-1h-8.5V35c0,0.2-0.2,0.4-0.4,0.5c-0.4,0.3-1,0.5-1.5,0.6
		c-0.2,0-0.3-0.1-0.3-0.3l0.1-3.2v-6.7c0-0.3-0.1-0.7-0.1-1c0.8,0.2,1.5,0.7,2.3,1H86l0.8-1c0.1-0.1,0.3-0.1,0.5,0
		c0.7,0.4,1.1,0.8,1.8,1.3C89.3,26.2,89.3,26.4,89.2,26.5z M86.3,26.6h-8.5v2.7h8.5V26.6z M86.3,30.1h-8.5V33h8.5V30.1z M89.1,17
		h-3.6v5.5h3.6V17z"/>
	<path class="st0" d="M118.1,26.3h-3.6v2.8c0,0.2-0.1,0.3-0.3,0.4c-0.3,0.2-0.9,0.5-1.3,0.5c-0.2,0-0.4,0-0.4-0.2v-1h-0.3h-10.5
		c-0.4,0-1.2,0.1-1.7,0.2l-0.5-0.9h13v-1.8H98.2c-0.5,0-1,0.1-1.5,0.2l-0.5-0.9h16.3v-1.2h-11c-0.5,0-1,0.1-1.5,0.2l-0.6-0.9h13
		l0.9-0.9c0.1-0.1,0.4-0.2,0.6,0c0.5,0.3,0.7,0.5,1.2,0.9c0.3,0.3-0.4,0.7-0.4,1v0.9h0.7l1-1c0.1-0.1,0.4-0.2,0.6,0l1.4,1.2
		c0.1,0.1,0.1,0.2,0.1,0.4L118.1,26.3z M99.4,34.8c-0.6,0.5-1.7,0.4-2.4,0.1c-0.2-0.1-0.4-0.3-0.4-0.5c-0.1-0.3,0-0.5,0.2-0.7
		c1.4-0.8,3.3-2,3.5-3.8l0.4,0.1C100.8,31.6,100.9,33.6,99.4,34.8z M107.5,21.7l-0.1,0.1H104v0.5c0,0.1-0.1,0.2-0.2,0.3
		c-0.4,0.2-0.9,0.5-1.4,0.6c-0.3,0.1-0.4-0.1-0.4-0.2v-1.2l-2.9,0c-0.3,0-0.6,0.1-1.1,0.2l-0.5-1h4.6v-2h-2c-0.4,0-0.8,0.1-1.3,0.2
		l-0.6-1h3.9l0-1.9h-2.5c-0.5,0-0.9,0.1-1.4,0.2l-0.5-0.9l4.5,0v-0.9c0-0.7,0-0.9-0.1-1.8c0.8,0.2,1.7,0.4,2.6,0.7
		c0.1,0.1,0.2,0.2,0.1,0.4c-0.3,0.3-0.7,0.3-0.7,0.5v1.1h1l0.7-1.1c0-0.1,0.2-0.1,0.4,0c0.5,0.4,1,0.9,1.5,1.4c0,0.1,0.1,0.3,0,0.4
		l-0.1,0.1H104v1.9h0.8l0.6-1c0-0.1,0.2-0.1,0.4,0c0.5,0.5,1.1,0.8,1.5,1.3c0.1,0.1,0.1,0.4-0.1,0.4H104v2h0.9l0.8-1.1
		c0.1-0.1,0.4-0.1,0.5,0c0.2,0.2,0.5,0.5,0.8,0.8l0.7,0.7C107.7,21.5,107.6,21.7,107.5,21.7z M111.7,35.1c-1.1,0.4-2.5,0.3-3.8,0.3
		c-2.9,0-3.8,0.1-4.9-0.7c-0.5-0.5-0.5-1.6-0.5-3.1c0-0.9,0-1.5-0.1-2.5c0.9,0.2,1.7,0.4,2.5,0.6c0.1,0,0.2,0.1,0.2,0.2
		c0.1,0.5-0.8,0.3-0.8,0.8c0,1.6,0,2.1,0.1,2.4c0.1,0.2,0.5,0.3,0.8,0.4c1.5,0.1,3.1,0,4.6-0.1c0.4,0,0.6-0.1,0.8-0.5
		c0.3-1.2,0.5-1.8,0.8-3.2h0.4c0.1,0.9,0.1,1.9,0.4,2.8c0.2,0.3,0.5,0.5,0.8,0.7C112.9,34,112.4,34.9,111.7,35.1z M107.8,32.7
		c-0.4-0.2-0.4-0.7-0.5-1.3c-0.2-0.7-0.6-1.3-1.1-1.8l0.2-0.4c0.9,0.2,1.9,0.5,2.7,1.3c0.3,0.4,0.3,0.8,0.1,1.2
		C108.9,32.4,108.3,32.8,107.8,32.7z M118.1,21.8h-5.8v0.6c0,0.2-0.2,0.3-0.4,0.4c-0.6,0.2-0.9,0.4-1.4,0.4c-0.1,0-0.2-0.1-0.2-0.3
		v-1.1h-0.9c-0.3,0-0.7,0.1-1,0.1l-0.6-0.8h2.6l0-2h-0.9c-0.4,0-0.6,0.1-1,0.1l-0.5-0.8l2.5,0l0-1.9h-0.9c-0.4,0-0.8,0.2-1.1,0.2
		l-0.6-0.9h2.6c0-1.3,0-1.8-0.1-2.7c0.9,0.2,1.8,0.5,2.6,0.8c0.1,0,0.1,0.3,0.1,0.4c-0.2,0.2-0.6,0.3-0.6,0.6v0.9h2.1l0.8-1
		c0-0.1,0.3-0.2,0.5,0c0.5,0.4,0.9,0.7,1.5,1.4c0.1,0.1,0,0.4-0.1,0.4H117l-4.7,0v1.9h1.5l0.9-1.1c0-0.1,0.2-0.1,0.4,0
		c0.6,0.5,1,0.8,1.6,1.4c0.1,0.2,0,0.4-0.2,0.4h-4.2v2h2.9l0.8-1.1c0.2-0.2,0.4-0.2,0.6,0c0.5,0.5,0.8,0.6,1.5,1.4
		C118.3,21.6,118.3,21.8,118.1,21.8z M117.3,34.9c-0.1,0.1-0.4,0.1-0.4-0.1c-0.4-0.5-0.7-1.1-1.1-1.6c-0.7-1-1.6-2-2.6-2.6l0.2-0.4
		c1.5,0.4,3.1,0.8,4.3,1.9c0.3,0.4,0.7,0.9,0.5,1.5C118,34,117.7,34.6,117.3,34.9z"/>
	<path class="st0" d="M127.4,31.1c-1.8,1.5-3.5,3-5.5,4.1l-0.4-0.2c1.8-1.8,3.4-3.8,4.5-5.9c0.7,0.5,1,0.7,1.6,1.1
		c0.1,0.2,0.7,0.4,0.5,0.7C127.9,31.1,127.6,31,127.4,31.1z M131.9,16.4l0,1.4v7.9c0,0.8,0,1.4,0.1,2.7c0,0.2-0.1,0.4-0.3,0.4
		l-1.4,0.5c-0.1,0-0.4,0-0.4-0.2v-0.8h-4.6v0.6c0,0.2-0.1,0.3-0.3,0.4c-0.7,0.3-1.3,0.4-1.6,0.5c-0.1,0-0.2-0.1-0.2-0.1l0.1-2.3
		l0.1-3.7v-7.1l-0.1-2.5c0.8,0.3,1.6,0.6,2.3,1h4.2l0.8-1c0.1-0.1,0.3-0.1,0.5,0c0.5,0.3,0.9,0.6,1.7,1.1c0.1,0.1,0.1,0.3,0,0.4
		C132.5,15.8,131.9,15.9,131.9,16.4z M130,15.7h-4.6V19h4.6V15.7z M130,19.7h-4.6v3.3h4.6V19.7z M130,23.9h-4.6v3.6h4.6V23.9z
		 M133,34.4c-0.2,0.2-0.4,0.2-0.6,0.1c-0.6-0.9-1.3-1.9-2.1-2.7c-0.5-0.5-1.1-1-1.7-1.4c0-0.2,0.1-0.3,0.1-0.5
		c1.3,0.3,2.5,0.8,3.6,1.4c0.5,0.4,1.2,0.8,1.2,1.4C133.6,33.4,133.3,34,133,34.4z M144.3,20h-3.5v12.7c0,0.9-0.1,1.8-1,2.3
		c-0.6,0.3-1.2,0.7-1.9,0.8c-0.3-1.4-1.8-2.4-3.1-2.6l0.1-0.5c1.1,0.2,2.2,0.4,3.4,0.3c0.3,0,0.4-0.5,0.4-0.9v-9.4
		c-1.7,3-4.2,5.6-7,8c-0.1,0-0.2-0.1-0.4-0.2c2.7-3.1,5-6.5,6-10.4h-3.1c-0.5,0-1,0.1-1.5,0.1l-0.7-0.9h6.7v-3.5l-0.2-3
		c0.9,0.2,1.8,0.4,2.7,0.8c0.1,0.1,0.2,0.3,0.1,0.4c-0.3,0.2-0.5,0.3-0.6,0.6v4.7l0.4,0l1-1.3c0.1-0.1,0.3-0.1,0.4-0.1
		c0.7,0.6,1.3,1,1.9,1.8C144.6,19.8,144.5,20,144.3,20z"/>
	<path class="st0" d="M146.8,35.6c1.6-2.5,2.6-5.2,2.6-8.3v-4l-0.1-2.2c0.9,0.4,1.7,0.8,2.5,1.2h12.4c-1.4-0.8-2.9-1.6-4.4-2.3
		c-0.5,0.1-1.1,0.4-1.6,0.6c-1.9,0.7-4,1.1-6.1,1.5l-0.1-0.5c2-0.5,4.2-1.4,6-2.3l-0.1-0.1c-1.7-0.6-3.5-1.1-5.4-1.5l0.2-0.5
		c2.3,0.3,4.6,0.7,6.8,1.2c0.8-0.4,1.5-1,2.3-1.7l-10.4-0.1c-0.7,0-1.1,0.1-1.9,0.2l-0.5-0.9h9.2c-0.4-1-0.9-2-1.8-2.7l0.2-0.4
		c1.1,0.3,2.6,0.5,3.3,1.2c0.1,0.2,0.2,0.6,0.1,0.9c-0.1,0.3-0.3,0.6-0.5,0.9l5.3,0l1.1-1.5c0.1-0.1,0.4-0.1,0.5,0
		c0.9,0.8,1.3,1.1,2,1.7c0,0.1,0,0.2,0,0.4l-0.2,0.1h-4.8c0.3,0.3,0.8,0.5,1.1,0.9c0,0.1,0,0.3-0.2,0.3c-1.4,0.1-1.7,0.6-2.7,1.1
		c1.1,0.4,2.5,0.7,3.1,1.5c0.3,0.4,0.5,0.9,0.2,1.4c-0.1,0.1-0.2,0.3-0.4,0.3l1.1,0l1.1-1.4c0.1-0.1,0.4-0.1,0.6,0
		c0.7,0.5,1.1,0.9,1.9,1.7c0.1,0.1,0,0.4-0.2,0.4h-17.6c-0.1,1.9,0,4-0.4,6c-0.4,2.7-1.9,5-3.9,6.9L146.8,35.6z M158.5,33.9v-3.4
		h-3.3c-0.7,0-1.1,0.1-1.7,0.3l-0.5-1l5.5,0v-2.7h-3.7c-1,1.2-2.2,2.4-3.4,3.4l-0.2-0.2c1.5-2,2.7-4.5,3.2-6.9
		c0.8,0.4,1.6,0.7,2.4,1.1c0.1,0.1,0.1,0.3,0,0.4c-0.2,0.1-0.4,0.2-0.6,0.3l-0.9,1.2h3.2c0-1.4,0-2.1,0-3.3c1,0.2,2,0.5,2.8,0.9
		c0.4,0.4-0.6,0.6-0.6,1.1v1.3h3.6l1-1.3c0.1-0.1,0.4-0.1,0.5,0c0.7,0.5,1.2,1,1.8,1.6c0.1,0.1,0.1,0.3,0,0.4l-0.1,0h-6.8v2.7h3
		l1.1-1.5c0.1-0.1,0.4-0.1,0.5,0c0.8,0.8,1.2,1.2,2,1.9c0.1,0.2,0,0.3-0.2,0.3h-6.5v3.4h5.5l1.1-1.4c0.1-0.1,0.4-0.1,0.5,0l1.9,1.7
		c0,0.1,0.1,0.2,0,0.3l-0.1,0.1l-16.8,0c-0.6,0-1.3,0.1-1.9,0.3l-0.6-1H158.5z"/>
	<path class="st0" d="M195.3,25.1h-8.5c0.6,0.5,1,0.8,1.6,1.3c0.1,0.2-0.1,0.4-0.3,0.5l-1,0.4c-1.5,1.9-3.1,3.6-4.8,5.2l3.7-0.2
		l3.9-0.4l0.6-0.1c-0.5-1.2-1.1-2.4-2.1-3.4l0.3-0.3c1.6,0.9,3.1,2.1,4.4,3.5c0.7,0.8,1,1.9,0.7,2.9c-0.2,0.5-0.7,1.1-1.3,1.3
		c-0.2,0-0.4,0-0.5-0.2c-0.3-0.8-0.5-1.6-0.8-2.4c-0.1-0.2-0.1-0.5-0.2-0.6l-0.9,0.2l-4.6,1.1c-1.5,0.3-2.4,0.5-3.8,1
		c-0.1,0.6-0.6,0.6-0.8,0.2l-0.9-2.2c-0.1-0.5,0.6-0.5,0.8-0.7c1.4-0.9,2.2-2.4,3.1-3.7c0.8-1.1,1.4-2.3,2-3.5h-3.8
		c-0.5,0-1.3,0.2-1.9,0.3l-0.7-0.9l-1.2,4.2c-0.4,0.9-0.3,2.1-0.2,3c0.1,1.3,0.8,2.8,0,4c-0.2,0.3-0.5,0.3-0.8,0.3
		c-0.7-0.3-1.4-0.9-1.7-1.6c-0.3-0.9,0.1-1.6,0.3-2.4c0.1-0.6,0.2-0.9,0-1.4c-0.3-1.3-1.7-1.5-2.8-1.9l0-0.5c1.1,0,1.9,0.1,2.7-0.1
		c0.3-0.1,0.6-0.5,0.8-0.8c1.9-3.5,3.5-7.2,5-10.9l0.5,0.2c-0.2,0.8-0.6,1.6-0.8,2.4l4.5,0v-3.5l-0.1-2.3c1,0.2,2,0.6,3,1
		c0.1,0.1,0.2,0.3,0.1,0.4c-0.2,0.2-0.9,0.7-0.9,0.9v3.6h3l1.2-1.4c0.1-0.1,0.3-0.1,0.4,0c0.8,0.6,1.3,1.2,2,1.8
		c0,0.1,0.1,0.2,0,0.4l-0.2,0.1h-6.4v4.4h4l0.9-1.4c0.1-0.2,0.4-0.2,0.5,0c1,0.8,1.5,1.2,2.2,1.8C195.6,24.8,195.5,25.1,195.3,25.1z
		 M176.3,24.2c-0.2,0-0.5,0-0.6-0.1c-0.4-0.7-0.7-1.4-0.9-2.1s-0.6-1.5-1.4-2.2l0.4-0.4c0.9,0.4,2.1,0.9,2.9,1.5
		c0.5,0.4,1,0.9,0.9,1.6C177.5,23.3,177,24,176.3,24.2z M179.5,18.4c-0.2,0.3-0.5,0.7-0.9,0.7c-0.2,0-0.4-0.1-0.5-0.2
		c-0.2-0.5-0.3-1-0.6-1.5c-0.5-1.1-0.8-1.9-1.7-3l0.4-0.4c1.1,0.5,2.7,1.2,3.5,2.2C180.1,16.9,179.9,17.8,179.5,18.4z M183.3,19.9
		c-0.4,0-1.1,0.1-1.7,0.3l-0.5-0.8c-0.6,1.6-1,3-1.7,4.9h6.2l0-4.4H183.3z"/>
	<path class="st0" d="M206.5,16.3c-0.5,0.2-0.8,0.6-1,1.1c-0.7,1.3-1.5,2.6-2.3,3.9c1.7,1.6,3.7,3.3,3.3,5.8
		c-0.2,1.5-1.6,2.9-3.1,3.3c-0.1-1-0.7-2.2-1.8-2.6l0.1-0.5c0.9,0.3,2,0.8,2.5-0.3c0.7-2.1-0.6-4-2-5.6c0.7-1.7,1.3-3.6,1.8-5.4
		h-2.5v12.9l0.1,3.9l0,1.9c0,0.1,0,0.2-0.1,0.3c-0.5,0.3-1.1,0.6-1.7,0.8c-0.2,0-0.3,0-0.3-0.2c0-1.1,0.1-2.4,0.1-3.7l0-4v-11
		l-0.2-2.6c0.7,0.3,1.2,0.6,2,1h2.3l0.7-0.9c0.1-0.1,0.3-0.1,0.4-0.1c0.6,0.4,1.2,0.8,1.8,1.4C206.8,16,206.7,16.2,206.5,16.3z
		 M218.5,34.8c-1.3,0.1-2.5,0.1-3.7,0c-1-0.1-1.7-0.3-1.9-1.4c-0.2-0.9,0-1.7,0-3l0-5.1h-1.6c-0.2,2.5-0.3,5.2-2.3,7.1
		c-1.7,1.6-3.8,2.4-6.1,2.9l-0.2-0.5c2.7-1,5.6-3,6.2-6.3c0.2-1,0.3-2.2,0.2-3.2h-0.3c-0.7,0-1,0.2-1.6,0.3l-0.5-1h9.6l1.3-1.5
		c0.1-0.2,0.3-0.1,0.5,0c0.6,0.4,1.4,1,2.2,1.7c0.2,0.3-0.1,0.5-0.2,0.5h-5.1v7.1c0.1,0.4,0.5,0.6,0.8,0.6c1,0,2.3,0.2,2.7-0.6
		c0.4-0.7,0.5-1.6,0.5-2.5l0.1-1.9h0.6c0,1.3,0,2.6,0.5,3.7c0.2,0.4,0.6,0.7,1,0.9C220.6,33.8,219.6,34.7,218.5,34.8z M219.2,18.2
		c-1,0.4-1.9,1.1-2.8,1.9c0.3,0.3,0.8,0.7,1.1,1.1c0.1,0.1,0,0.3-0.1,0.3h-7c-0.8,0-1.2,0.1-1.9,0.3l-0.6-1h6.2l1-1.4
		c0.2-0.3,0.4,0,0.7,0.2c0.5-0.8,0.6-1.1,0.9-1.7c0-0.1,0.2-0.4,0.2-0.5h-8.6c0.2,1,0.1,2.2-0.6,3c-0.5,0.5-1.1,0.6-1.8,0.5
		c-0.2,0-0.4-0.2-0.5-0.4c-0.3-0.6,0.4-1,0.7-1.4c0.8-0.9,1.3-2.2,1.3-3.5l0.3-0.1c0.2,0.3,0.4,0.8,0.5,1.1h3.5
		c-0.3-1.1-0.8-2.4-1.8-3.2l-0.2-0.2l0.2-0.3c0.3,0,0.8,0.1,1.2,0.1c0.7,0.1,1.6,0.5,2.1,0.8c0.4,0.3,0.8,0.7,0.7,1.2
		c-0.1,0.6-0.3,1-0.6,1.3l-0.2,0.2h3.8l0.9-1.1c0.1-0.1,0.3-0.1,0.5,0c0.7,0.6,1.2,1,1.9,1.7c0.1,0.1,0.2,0.2,0.1,0.4
		C220,18.1,219.5,18,219.2,18.2z"/>
</g>
<path class="st1" d="M135.4,41.9"/>
<g>
	<path class="st0" d="M74.8,44.6h0.8v7.9h-0.8V44.6z"/>
	<path class="st0" d="M77.6,46.7h0.8v1c0.3-0.4,0.6-0.7,1-0.9c0.4-0.2,0.8-0.3,1.2-0.3c0.4,0,0.8,0.1,1.2,0.3
		c0.3,0.2,0.6,0.5,0.7,0.9c0.2,0.4,0.2,1,0.2,1.8v3h-0.8v-2.8c0-0.7,0-1.1-0.1-1.3c-0.1-0.4-0.3-0.7-0.5-0.9s-0.6-0.3-1-0.3
		c-0.5,0-0.9,0.2-1.2,0.5c-0.4,0.3-0.6,0.7-0.7,1.1c-0.1,0.3-0.1,0.8-0.1,1.6v2.1h-0.8V46.7z"/>
	<path class="st0" d="M85.2,44.5H86v2.2h1.2v0.7H86v5.2h-0.8v-5.2h-1v-0.7h1V44.5z"/>
	<path class="st0" d="M93.5,50.6l0.6,0.3c-0.2,0.4-0.4,0.7-0.7,1c-0.3,0.2-0.6,0.4-0.9,0.6c-0.3,0.1-0.7,0.2-1.2,0.2
		c-1,0-1.7-0.3-2.2-0.9s-0.8-1.3-0.8-2.1c0-0.7,0.2-1.4,0.7-2c0.6-0.7,1.3-1.1,2.3-1.1c1,0,1.8,0.4,2.4,1.1c0.4,0.5,0.6,1.2,0.6,2
		h-5.3c0,0.7,0.2,1.2,0.7,1.7c0.4,0.4,0.9,0.7,1.6,0.7c0.3,0,0.6-0.1,0.9-0.2s0.5-0.2,0.7-0.4C93,51.3,93.3,51,93.5,50.6z M93.5,49
		c-0.1-0.4-0.2-0.7-0.4-1c-0.2-0.2-0.4-0.4-0.8-0.6c-0.3-0.1-0.6-0.2-1-0.2c-0.6,0-1.1,0.2-1.5,0.6c-0.3,0.3-0.5,0.7-0.7,1.2H93.5z"
		/>
	<path class="st0" d="M95.9,44.5h0.8v8.1h-0.8V44.5z"/>
	<path class="st0" d="M98.4,44.5h0.8v8.1h-0.8V44.5z"/>
	<path class="st0" d="M105.9,50.6l0.6,0.3c-0.2,0.4-0.4,0.7-0.7,1c-0.3,0.2-0.6,0.4-0.9,0.6c-0.3,0.1-0.7,0.2-1.2,0.2
		c-1,0-1.7-0.3-2.2-0.9s-0.8-1.3-0.8-2.1c0-0.7,0.2-1.4,0.7-2c0.6-0.7,1.3-1.1,2.3-1.1c1,0,1.8,0.4,2.4,1.1c0.4,0.5,0.6,1.2,0.6,2
		h-5.3c0,0.7,0.2,1.2,0.7,1.7c0.4,0.4,0.9,0.7,1.6,0.7c0.3,0,0.6-0.1,0.9-0.2s0.5-0.2,0.7-0.4C105.4,51.3,105.6,51,105.9,50.6z
		 M105.9,49c-0.1-0.4-0.2-0.7-0.4-1c-0.2-0.2-0.4-0.4-0.8-0.6c-0.3-0.1-0.6-0.2-1-0.2c-0.6,0-1.1,0.2-1.5,0.6
		c-0.3,0.3-0.5,0.7-0.7,1.2H105.9z"/>
	<path class="st0" d="M114,47.9l-0.6,0.4c-0.5-0.7-1.2-1-2.1-1c-0.7,0-1.3,0.2-1.8,0.7s-0.7,1-0.7,1.7c0,0.4,0.1,0.8,0.3,1.2
		c0.2,0.4,0.5,0.7,0.9,0.9c0.4,0.2,0.8,0.3,1.3,0.3c0.9,0,1.6-0.3,2.1-1l0.6,0.4c-0.3,0.4-0.7,0.7-1.1,1c-0.5,0.2-1,0.3-1.6,0.3
		c-0.9,0-1.7-0.3-2.3-0.9s-0.9-1.3-0.9-2.1c0-0.6,0.1-1.1,0.4-1.6c0.3-0.5,0.7-0.9,1.2-1.1s1.1-0.4,1.7-0.4c0.4,0,0.8,0.1,1.1,0.2
		c0.4,0.1,0.7,0.3,0.9,0.5C113.6,47.4,113.9,47.6,114,47.9z"/>
	<path class="st0" d="M116.4,44.5h0.8v2.2h1.2v0.7h-1.2v5.2h-0.8v-5.2h-1v-0.7h1V44.5z"/>
	<path class="st0" d="M119.7,46.7h0.8v2.7c0,0.7,0,1.1,0.1,1.4c0.1,0.4,0.3,0.6,0.6,0.8c0.3,0.2,0.7,0.3,1.1,0.3
		c0.4,0,0.8-0.1,1.1-0.3c0.3-0.2,0.5-0.5,0.6-0.8c0.1-0.2,0.1-0.7,0.1-1.4v-2.7h0.8v2.9c0,0.8-0.1,1.4-0.3,1.8
		c-0.2,0.4-0.5,0.7-0.8,1c-0.4,0.2-0.9,0.3-1.4,0.3s-1-0.1-1.4-0.3c-0.4-0.2-0.7-0.6-0.9-1c-0.2-0.4-0.3-1-0.3-1.9V46.7z"/>
	<path class="st0" d="M132.5,46.7v5.8h-0.7v-1c-0.3,0.4-0.7,0.7-1.1,0.9c-0.4,0.2-0.8,0.3-1.3,0.3c-0.8,0-1.5-0.3-2.1-0.9
		c-0.6-0.6-0.9-1.3-0.9-2.2c0-0.8,0.3-1.6,0.9-2.2c0.6-0.6,1.3-0.9,2.1-0.9c0.5,0,0.9,0.1,1.3,0.3c0.4,0.2,0.7,0.5,1,0.9v-1.1H132.5
		z M129.5,47.3c-0.4,0-0.8,0.1-1.2,0.3c-0.4,0.2-0.6,0.5-0.8,0.9c-0.2,0.4-0.3,0.8-0.3,1.2c0,0.4,0.1,0.8,0.3,1.2
		c0.2,0.4,0.5,0.7,0.9,0.9c0.4,0.2,0.7,0.3,1.1,0.3c0.4,0,0.8-0.1,1.2-0.3c0.4-0.2,0.7-0.5,0.9-0.8c0.2-0.4,0.3-0.8,0.3-1.2
		c0-0.7-0.2-1.2-0.7-1.7S130.2,47.3,129.5,47.3z"/>
	<path class="st0" d="M134.4,44.5h0.8v8.1h-0.8V44.5z"/>
	<path class="st0" d="M140.4,44.6h1.6c0.9,0,1.5,0,1.8,0.1c0.5,0.1,0.8,0.3,1.1,0.7s0.4,0.8,0.4,1.3c0,0.5-0.1,1-0.4,1.3
		s-0.7,0.6-1.2,0.7c-0.4,0.1-1,0.1-2,0.1h-0.6v3.7h-0.8V44.6z M141.2,45.4v2.7l1.3,0c0.5,0,0.9,0,1.2-0.1c0.3-0.1,0.4-0.3,0.6-0.5
		s0.2-0.5,0.2-0.7c0-0.3-0.1-0.5-0.2-0.7c-0.1-0.2-0.3-0.4-0.6-0.5c-0.2-0.1-0.6-0.1-1.2-0.1H141.2z"/>
	<path class="st0" d="M146.8,46.7h0.8v0.9c0.2-0.3,0.5-0.6,0.7-0.8c0.3-0.2,0.5-0.2,0.8-0.2c0.2,0,0.4,0.1,0.7,0.2l-0.4,0.6
		c-0.2-0.1-0.3-0.1-0.4-0.1c-0.3,0-0.5,0.1-0.7,0.3s-0.4,0.5-0.5,1c-0.1,0.3-0.1,1-0.1,2v2h-0.8V46.7z"/>
	<path class="st0" d="M153.4,46.6c0.9,0,1.6,0.3,2.2,1c0.5,0.6,0.8,1.3,0.8,2.1c0,0.8-0.3,1.5-0.9,2.1c-0.6,0.6-1.3,0.9-2.2,0.9
		c-0.9,0-1.6-0.3-2.2-0.9c-0.6-0.6-0.9-1.3-0.9-2.1c0-0.8,0.3-1.5,0.8-2.1C151.8,46.9,152.5,46.6,153.4,46.6z M153.4,47.3
		c-0.6,0-1.2,0.2-1.6,0.7s-0.7,1-0.7,1.7c0,0.4,0.1,0.8,0.3,1.2c0.2,0.4,0.5,0.6,0.8,0.8c0.3,0.2,0.7,0.3,1.1,0.3
		c0.4,0,0.8-0.1,1.1-0.3c0.3-0.2,0.6-0.5,0.8-0.8c0.2-0.4,0.3-0.8,0.3-1.2c0-0.7-0.2-1.2-0.7-1.7C154.6,47.5,154.1,47.3,153.4,47.3z
		"/>
	<path class="st0" d="M158.2,46.7h0.8v1.1c0.3-0.4,0.6-0.7,1-0.9c0.4-0.2,0.8-0.3,1.3-0.3c0.8,0,1.5,0.3,2.1,0.9
		c0.6,0.6,0.9,1.3,0.9,2.2c0,0.9-0.3,1.6-0.9,2.2c-0.6,0.6-1.3,0.9-2.1,0.9c-0.5,0-0.9-0.1-1.3-0.3c-0.4-0.2-0.7-0.5-1.1-0.9v3.1
		h-0.8V46.7z M161.2,47.3c-0.6,0-1.2,0.2-1.6,0.7s-0.7,1-0.7,1.7c0,0.4,0.1,0.8,0.3,1.2c0.2,0.4,0.5,0.6,0.9,0.8
		c0.4,0.2,0.8,0.3,1.2,0.3c0.4,0,0.8-0.1,1.1-0.3s0.6-0.5,0.8-0.9c0.2-0.4,0.3-0.8,0.3-1.2c0-0.4-0.1-0.8-0.3-1.2s-0.5-0.7-0.8-0.9
		C162,47.4,161.6,47.3,161.2,47.3z"/>
	<path class="st0" d="M170.9,50.6l0.6,0.3c-0.2,0.4-0.4,0.7-0.7,1c-0.3,0.2-0.6,0.4-0.9,0.6s-0.7,0.2-1.2,0.2c-1,0-1.7-0.3-2.2-0.9
		c-0.5-0.6-0.8-1.3-0.8-2.1c0-0.7,0.2-1.4,0.7-2c0.6-0.7,1.3-1.1,2.3-1.1c1,0,1.8,0.4,2.4,1.1c0.4,0.5,0.6,1.2,0.6,2h-5.3
		c0,0.7,0.2,1.2,0.7,1.7c0.4,0.4,0.9,0.7,1.6,0.7c0.3,0,0.6-0.1,0.9-0.2c0.3-0.1,0.5-0.2,0.7-0.4C170.4,51.3,170.6,51,170.9,50.6z
		 M170.9,49c-0.1-0.4-0.2-0.7-0.4-1c-0.2-0.2-0.4-0.4-0.8-0.6c-0.3-0.1-0.6-0.2-1-0.2c-0.6,0-1.1,0.2-1.5,0.6
		c-0.3,0.3-0.5,0.7-0.7,1.2H170.9z"/>
	<path class="st0" d="M173.1,46.7h0.8v0.9c0.2-0.3,0.5-0.6,0.7-0.8c0.3-0.2,0.5-0.2,0.8-0.2c0.2,0,0.4,0.1,0.7,0.2l-0.4,0.6
		c-0.2-0.1-0.3-0.1-0.4-0.1c-0.3,0-0.5,0.1-0.7,0.3c-0.2,0.2-0.4,0.5-0.5,1c-0.1,0.3-0.1,1-0.1,2v2h-0.8V46.7z"/>
	<path class="st0" d="M177.6,44.5h0.8v2.2h1.2v0.7h-1.2v5.2h-0.8v-5.2h-1v-0.7h1V44.5z"/>
	<path class="st0" d="M180.3,46.7h0.8l2,4.5l2-4.5h0.8l-3.5,8h-0.8l1.1-2.6L180.3,46.7z"/>
	<path class="st0" d="M197.9,46.1l-0.6,0.5c-0.3-0.4-0.8-0.8-1.2-1c-0.5-0.2-1-0.3-1.6-0.3c-0.6,0-1.2,0.2-1.8,0.5s-1,0.7-1.2,1.2
		c-0.3,0.5-0.4,1.1-0.4,1.7c0,1,0.3,1.8,1,2.4c0.7,0.6,1.5,1,2.5,1c1.1,0,2-0.4,2.8-1.3l0.6,0.5c-0.4,0.5-0.9,0.9-1.5,1.2
		c-0.6,0.3-1.2,0.4-2,0.4c-1.4,0-2.5-0.5-3.3-1.4c-0.7-0.8-1-1.7-1-2.8c0-1.2,0.4-2.1,1.2-2.9c0.8-0.8,1.8-1.2,3-1.2
		c0.7,0,1.4,0.1,2,0.4C197,45.2,197.5,45.6,197.9,46.1z"/>
	<path class="st0" d="M202.4,46.6c0.9,0,1.6,0.3,2.2,1c0.5,0.6,0.8,1.3,0.8,2.1c0,0.8-0.3,1.5-0.9,2.1c-0.6,0.6-1.3,0.9-2.2,0.9
		c-0.9,0-1.6-0.3-2.2-0.9s-0.9-1.3-0.9-2.1c0-0.8,0.3-1.5,0.8-2.1C200.8,46.9,201.5,46.6,202.4,46.6z M202.4,47.3
		c-0.6,0-1.2,0.2-1.6,0.7s-0.7,1-0.7,1.7c0,0.4,0.1,0.8,0.3,1.2s0.5,0.6,0.8,0.8c0.3,0.2,0.7,0.3,1.1,0.3s0.8-0.1,1.1-0.3
		c0.3-0.2,0.6-0.5,0.8-0.8c0.2-0.4,0.3-0.8,0.3-1.2c0-0.7-0.2-1.2-0.7-1.7S203,47.3,202.4,47.3z"/>
	<path class="st0" d="M207,46.7h0.8v2.7c0,0.7,0,1.1,0.1,1.4c0.1,0.4,0.3,0.6,0.6,0.8s0.7,0.3,1.1,0.3c0.4,0,0.8-0.1,1.1-0.3
		s0.5-0.5,0.6-0.8c0.1-0.2,0.1-0.7,0.1-1.4v-2.7h0.8v2.9c0,0.8-0.1,1.4-0.3,1.8c-0.2,0.4-0.5,0.7-0.8,1c-0.4,0.2-0.9,0.3-1.4,0.3
		c-0.6,0-1-0.1-1.4-0.3c-0.4-0.2-0.7-0.6-0.9-1c-0.2-0.4-0.3-1-0.3-1.9V46.7z"/>
	<path class="st0" d="M213.8,46.7h0.8v0.9c0.2-0.3,0.5-0.6,0.7-0.8c0.3-0.2,0.5-0.2,0.8-0.2c0.2,0,0.4,0.1,0.7,0.2l-0.4,0.6
		c-0.2-0.1-0.3-0.1-0.4-0.1c-0.3,0-0.5,0.1-0.7,0.3c-0.2,0.2-0.4,0.5-0.5,1c-0.1,0.3-0.1,1-0.1,2v2h-0.8V46.7z"/>
	<path class="st0" d="M218.3,44.5h0.8v2.2h1.2v0.7h-1.2v5.2h-0.8v-5.2h-1v-0.7h1V44.5z"/>
</g>
<g>
	<circle class="st2" cx="33" cy="31.7" r="30.3"/>
</g>
<linearGradient id="SVGID_1_" gradientUnits="userSpaceOnUse" x1="32.9905" y1="61.1242" x2="32.9905" y2="37.8684">
	<stop  offset="0.6854" style="stop-color:#B7A246"/>
	<stop  offset="1" style="stop-color:#FFFFFF"/>
</linearGradient>
<path class="st3" d="M61.9,38.1c-3,13-14.9,23-28.8,23c-13.9,0-25.9-10.2-28.9-23.3h7.4c2.8,9,11.5,16.1,21.5,16.1
	c10,0,18.6-6.8,21.4-15.8H61.9z"/>
<g>
	<path class="st4" d="M54,31.6c0,11.6-9.4,21-21,21s-21-9.4-21-21c0-11.6,9.4-21,21-21S54,20.1,54,31.6z"/>
</g>
<g>
	<path class="st2" d="M34.7,34.1h-0.5h-2.8v8.2c0,0.9,0.8,1.7,1.7,1.7c0.9,0,1.6-0.8,1.6-1.7L34.7,34.1z"/>
	<path class="st2" d="M35.9,44.3h-5.8c-0.4,0-0.8,0.3-0.8,0.6v0.8c0,0.4,0.3,0.7,0.8,0.7h5.8c0.4,0,0.8-0.3,0.8-0.7V45
		C36.7,44.6,36.3,44.3,35.9,44.3z"/>
	<path class="st2" d="M37,47.2h-8c-0.6,0-1,0.3-1,0.7v0.8c0,0.4,0.4,0.7,1,0.7h8c0.6,0,1-0.3,1-0.7v-0.8C38,47.5,37.6,47.2,37,47.2z
		"/>
	<path class="st2" d="M49.3,23.6c0-0.3-0.2-0.5-0.4-0.6c-0.4-0.3-1-0.2-1.4,0.1c-1.1,1.1-2.7,1.7-4.4,1.7c-1.7,0-3.2-0.6-4.3-1.6
		c-1.5-1.3-3.5-2.1-5.7-2.1c-2.1,0-4.1,0.7-5.5,1.9l0,0l-0.2,0.2l0,0c-1.1,1.1-2.7,1.7-4.4,1.7c-1.7,0-3.3-0.6-4.4-1.7
		c-0.2-0.2-0.4-0.3-0.7-0.3c-0.2,0-0.5,0-0.7,0.2c-0.2,0.2-0.4,0.4-0.4,0.6l0,0v0.1c0,0.2,0.1,0.4,0.3,0.6c1.5,1.4,3.6,2.3,5.9,2.3
		c2.1,0,4-0.7,5.5-1.9l0,0c0,0,0,0,0,0c0,0,0.1-0.1,0.1-0.1c1.1-1.1,2.7-1.7,4.4-1.7c1.7,0,3.2,0.6,4.3,1.6c1.4,1.3,3.5,2.1,5.7,2.1
		c2.3,0,4.4-0.8,5.9-2.3C49.2,24.2,49.3,23.9,49.3,23.6C49.3,23.7,49.3,23.7,49.3,23.6z M49.3,23.6C49.3,23.6,49.3,23.6,49.3,23.6
		C49.3,23.6,49.3,23.6,49.3,23.6L49.3,23.6z"/>
	<path class="st2" d="M36.5,17.4c0,1.9-1.5,3.5-3.5,3.5c-1.9,0-3.4-1.5-3.4-3.5c0-1.9,1.5-3.5,3.4-3.5
		C34.9,13.9,36.5,15.5,36.5,17.4z"/>
	<path class="st2" d="M27.9,38.7l-5.3-12c-0.1-0.2-0.3-0.3-0.5-0.3c-0.2,0-0.4,0.1-0.5,0.4v0l-5.3,12c-0.1,0.2-0.1,0.4,0,0.6
		c1,1.9,3.3,3.2,5.8,3.2c2.5,0,4.8-1.2,5.8-3.2C28,39.2,28,38.9,27.9,38.7z M22.1,28.5c0.3,0.7,4.3,9.8,4.6,10.4h-9.2
		c0.2-0.5,3.1-7,3.1-7S21.8,29.1,22.1,28.5z"/>
	<path class="st2" d="M49.9,38.7l-5.3-12c-0.1-0.2-0.3-0.3-0.5-0.3c-0.2,0-0.4,0.1-0.5,0.4v0l-5.3,12c-0.1,0.2-0.1,0.4,0,0.6
		c1,1.9,3.3,3.2,5.8,3.2c2.5,0,4.8-1.2,5.8-3.2C50,39.2,50,38.9,49.9,38.7z M44,28.5c0.3,0.7,4.3,9.8,4.6,10.4h-9.2
		c0.2-0.4,2-4.5,2-4.5S43.7,29.2,44,28.5z"/>
	<path class="st2" d="M38.6,25.8c-1,0-0.9,0.9-0.9,0.9h-1.2v-0.5h-7v0.5h-1.2c0,0,0.1-0.9-0.9-0.9c0,0-0.8,0-0.8,1v4.4
		c0,1.1,0.8,1,0.8,1c1,0,0.9-0.9,0.9-0.9h1.2v0.5h1.8l0,1.6l3.3,0v-1.6h1.9v-0.5h1.2c0,0-0.1,0.9,0.9,0.9c0,0,0.8,0,0.8-1v-4.4
		C39.4,25.7,38.6,25.8,38.6,25.8z"/>
</g>
<g>
	<path class="st2" d="M19.3,56.5L19,56.3l0.2-0.3l-2.7-1.8l-0.2,0.3l-0.3-0.2l1.2-1.8l3.2,2.1L19.3,56.5z M19.4,55.8l0.3-0.4
		l-2.7-1.8L16.7,54L19.4,55.8z M19.7,52.7l-1-0.7c0,0-0.1,0.1-0.1,0.1c0.3,0.4,0.5,0.9,0.6,1.3L19,53.5c-0.2-0.4-0.4-0.8-0.6-1.2
		c-0.5,0.2-1,0.2-1.5,0L16.8,52c0.7,0.2,1.2,0.2,1.6-0.1l-0.9-0.6l0.1-0.2l1,0.7c0.1-0.1,0.2-0.2,0.4-0.4L18.5,51
		c-0.2,0-0.4,0.1-0.6,0.1l-0.1-0.3c0.5,0,0.9-0.1,1.2-0.3l0.2,0.2c-0.2,0.1-0.3,0.1-0.3,0.1l1.3,0.9L20.1,52l-0.8-0.5
		c-0.1,0.2-0.2,0.3-0.4,0.4l0.9,0.6L19.7,52.7z M19.8,55.1l0.3-0.4l-2.7-1.8l-0.3,0.4L19.8,55.1z M21.1,54.5l-1.6-1.1l1-1.5l1.6,1.1
		L21.1,54.5z M21,54.1l0.7-1l-1.1-0.7l-0.7,1L21,54.1z"/>
	<path class="st2" d="M22.3,56.8c-0.3,0.2-0.6,0.4-0.9,0.6l-0.2-0.2c0.4-0.2,0.6-0.3,0.9-0.6L22.3,56.8z M26.5,57.4L26,57.2
		l-0.2,0.5l-3.9-1.4l0.1-0.2l3.6,1.3l0.1-0.3l-4-1.4l0.1-0.2l4,1.4l0.1-0.3l-3.6-1.3l0.1-0.2l3.9,1.4L26.1,57l0.5,0.2L26.5,57.4z
		 M24.8,54.2l-0.9-0.3l-0.1,0.3l0.8,0.3l-0.1,0.2l-0.8-0.3l-0.1,0.4l0.9,0.3l-0.1,0.2l-0.9-0.3l-0.1,0.2l-0.3-0.1l0.1-0.2l-1.1-0.4
		l0.1-0.2l1.1,0.4l0.1-0.4l-0.9-0.3l0.1-0.2l0.9,0.3l0.1-0.3l-1-0.4l0.1-0.2l1,0.4l0.1-0.3l0.3,0.1L24,53.7l0.9,0.3L24.8,54.2z
		 M25.1,58.1c-0.1,0.3-0.3,0.4-0.4,0.5c-0.1,0-0.2,0.1-0.3,0.1c-0.1,0-0.4-0.1-1.1-0.4C23,58.1,22.8,58,22.7,58s-0.1-0.1-0.2-0.2
		c0-0.1,0-0.2,0-0.3l0.2-0.6L23,57l-0.2,0.6c0,0.1,0,0.1,0.1,0.2c0.1,0,0.3,0.1,0.8,0.3c0.4,0.2,0.7,0.2,0.7,0.2c0.1,0,0.1,0,0.2,0
		c0.1,0,0.1-0.2,0.2-0.4L25.1,58.1z M24.3,57.7l-0.2,0.1c-0.2-0.2-0.4-0.4-0.6-0.6l0.2-0.1C24,57.3,24.1,57.5,24.3,57.7z M26.9,56.3
		l-1.1-0.4l-0.1,0.2L25.4,56l0.1-0.2l-0.9-0.3l0.1-0.2l0.9,0.3l0.1-0.4L25,55l0.1-0.2l0.7,0.3l0.1-0.3L25,54.3l0.1-0.2l0.9,0.3
		l0.1-0.3l0.3,0.1l-0.1,0.3l1,0.4l-0.1,0.2l-1-0.4l-0.1,0.3l0.9,0.3l-0.1,0.2L26,55.3l-0.1,0.4l1.1,0.4L26.9,56.3z M26,58.9L25.7,59
		c-0.1-0.4-0.2-0.7-0.4-1l0.3-0.1C25.8,58.2,25.9,58.5,26,58.9z"/>
	<path class="st2" d="M29.7,58.4l-1.2-0.1l0.1,0.1c-0.3,0.4-0.6,0.8-1,1.1l-0.2-0.2c0.4-0.3,0.7-0.6,1-1l-0.6-0.1l0.3-3.2l1.9,0.2
		L29.7,58.4z M29.4,58.1l0.1-0.7l-1.3-0.1L28.1,58L29.4,58.1z M29.5,57.1l0.1-0.7l-1.3-0.1L28.2,57L29.5,57.1z M29.6,56.1l0.1-0.7
		l-1.3-0.1L28.3,56L29.6,56.1z M29.8,59.5l-0.3,0.1c-0.1-0.3-0.3-0.6-0.6-1l0.3-0.1C29.4,58.8,29.6,59.1,29.8,59.5z M32.8,56.5
		l-0.5-0.1l-0.3,3.1c0,0.1-0.1,0.2-0.1,0.3c-0.1,0.1-0.2,0.1-0.3,0.1c-0.1,0-0.4,0-0.8-0.1l-0.1-0.3c0.2,0,0.4,0.1,0.5,0.1
		c0.2,0,0.4,0,0.4,0c0,0,0.1-0.1,0.1-0.1l0.3-2.5c-0.5,0.8-1.2,1.4-1.9,1.8l-0.2-0.2c0.9-0.5,1.6-1.2,2-2.1l-1.7-0.2l0-0.3l1.8,0.2
		l0.1-1l0.3,0l-0.1,1l0.5,0.1L32.8,56.5z"/>
	<path class="st2" d="M38.2,55.4l-0.9,0.1c-0.2,0.2-0.4,0.4-0.6,0.6c0.5,0.1,0.9,0.1,1.3,0.2l-0.1,0.2c-0.5-0.1-1-0.2-1.5-0.3
		c-0.6,0.3-1.2,0.5-2,0.6l-0.1-0.2c0.7-0.1,1.3-0.3,1.7-0.4c-0.5,0-0.9-0.1-1.4-0.1l0.1-0.2c0.6,0,1.2,0.1,1.7,0.1
		c0.2-0.1,0.4-0.3,0.6-0.5l-3.3,0.4l0-0.3l2.2-0.2c-0.1-0.1-0.2-0.2-0.3-0.4l0.3-0.1c0.2,0.2,0.3,0.3,0.4,0.5l2.1-0.2L38.2,55.4z
		 M38.6,56.9l-4.3,0.5l0.1,0.5c0.1,0.9,0,1.6-0.4,2.1l-0.2-0.2c0.1-0.2,0.2-0.4,0.3-0.7c0.1-0.3,0.1-0.6,0-0.8L34,57.1l4.6-0.5
		L38.6,56.9z M38.8,59.3l-4.2,0.5l0-0.3l2-0.2l-0.1-0.5l-1.4,0.2l0-0.3l1.4-0.2L36.4,58l-1.2,0.1c-0.1,0.2-0.2,0.4-0.4,0.5l-0.2-0.2
		c0.3-0.3,0.5-0.6,0.7-1l0.3,0.1c-0.1,0.2-0.1,0.3-0.2,0.4l1.1-0.1l0-0.4l0.3,0l0,0.4l1.6-0.2l0,0.3L36.7,58l0.1,0.5l1.5-0.2l0,0.3
		l-1.5,0.2l0.1,0.5l1.9-0.2L38.8,59.3z"/>
	<path class="st2" d="M40.1,54.8L40,55.1c-0.3-0.2-0.7-0.3-1.1-0.3l0.1-0.3C39.4,54.5,39.8,54.6,40.1,54.8z M40.5,56.1l-0.1,0.3
		c-0.3-0.1-0.7-0.3-1.2-0.3l0.1-0.3C39.9,55.9,40.3,56,40.5,56.1z M40.8,56.9c-0.1,0.9-0.2,1.6-0.3,2.1l-0.3-0.1
		c0.2-0.5,0.3-1.2,0.4-2.1L40.8,56.9z M44.3,55.1l-1.7,0.6c-0.1,0.9-0.3,1.6-0.5,2.2c0.8-0.4,1.4-0.8,2.1-1.2
		c-0.3-0.2-0.6-0.4-0.9-0.6l0.2-0.2c0.7,0.4,1.2,0.8,1.6,1.2l-0.2,0.2c-0.2-0.2-0.4-0.3-0.5-0.5c-0.7,0.5-1.6,0.9-2.6,1.4l-0.2-0.2
		c0.1-0.1,0.3-0.4,0.4-0.9c0.1-0.4,0.2-0.9,0.3-1.4l-1.3,0.5l-0.1-0.3l1.6-0.6l-0.4-1L40.6,55l-0.1-0.3l1.3-0.5l-0.3-0.8l0.3-0.1
		l0.3,0.8l1.3-0.5l0.1,0.3l-1.3,0.5l0.4,1l1.5-0.6L44.3,55.1z"/>
	<path class="st2" d="M45.6,53.4c0.5,0.1,0.9,0.4,1.1,0.8c0.1,0.1,0.1,0.3,0.1,0.4c0,0.1-0.1,0.3-0.4,0.5c-0.1,0-0.1,0.1-0.2,0.1
		L46,55l0.3-0.2c0.1-0.1,0.2-0.2,0.3-0.3c0-0.1,0-0.1,0-0.2c-0.2-0.3-0.6-0.6-1.1-0.7c-0.1-0.4-0.2-0.8-0.4-1.4l-0.7,0.5l2.5,3.6
		l-0.2,0.2l-2.6-3.9l1.2-0.8l0.2,0.2C45.4,52.5,45.5,53,45.6,53.4z M48.7,51.2l-0.2,0.2L48,50.7l-2,1.4l0.5,0.7L46.2,53l-0.6-0.9
		l1.1-0.8c-0.1-0.1-0.3-0.2-0.5-0.3l0.2-0.2c0.2,0.1,0.3,0.2,0.5,0.4l1.2-0.8L48.7,51.2z M48.3,51.6l-1.6,1.1l-0.2-0.2l1.6-1.1
		L48.3,51.6z M50,52.9c0.2,0.2,0.3,0.4,0.3,0.6s0,0.3,0,0.4c0,0.1-0.2,0.2-0.4,0.4c-0.3,0.2-0.5,0.2-0.6,0l-1-1.4l-0.6,0.4
		c0.3,0.5,0.5,1,0.4,1.3s-0.2,0.8-0.4,1.2l-0.3-0.1c0.3-0.4,0.4-0.7,0.5-1.1c0-0.4-0.1-0.7-0.4-1.2l-0.7,0.5l-0.2-0.2l2.6-1.7
		l0.2,0.2l-0.8,0.5l0.9,1.3c0,0,0,0,0.1,0c0,0,0.1,0,0.2-0.1c0.1-0.1,0.2-0.1,0.2-0.2c0,0,0-0.1,0-0.1c0,0,0-0.1-0.1-0.3
		c-0.1-0.1-0.2-0.3-0.3-0.4L50,52.9z"/>
</g>
<g>
	<path class="st5" d="M10.4,24.7l-0.1,0.5l-3.7-1.1l0.1-0.5L10.4,24.7z"/>
	<path class="st5" d="M6.9,22.7l0.1-0.4l3.3-0.5l-2.6-1L8,20.3l3.6,1.5l-0.1,0.4l-3.3,0.5l2.6,1.1l-0.2,0.5L6.9,22.7z"/>
	<path class="st5" d="M12.2,20.5L12,20.9l-2.9-1.5l-0.3,0.6l-0.5-0.3l0.8-1.6l0.5,0.3l-0.3,0.6L12.2,20.5z"/>
	<path class="st5" d="M10.2,17.4L11,18l0.5-0.8l0.5,0.3l-0.5,0.8l1,0.6l0.6-0.9l0.5,0.3l-0.8,1.3l-3.2-2.1l0.8-1.3l0.5,0.3
		L10.2,17.4z"/>
	<path class="st5" d="M13.7,17.2l0.6-0.7l0.4,0.3l-0.9,1.1l-3-2.3l0.3-0.4L13.7,17.2z"/>
	<path class="st5" d="M14.8,15.9l0.6-0.7l0.4,0.4l-0.9,1.1L12,14.1l0.3-0.4L14.8,15.9z"/>
	<path class="st5" d="M14.1,12.6l0.7,0.7l0.7-0.7l0.4,0.4l-0.7,0.7l0.8,0.9l0.8-0.7l0.4,0.4L16,15.3l-2.7-2.7l1.1-1.1l0.4,0.4
		L14.1,12.6z"/>
	<path class="st5" d="M17.2,10.4c-0.3-0.1-0.6-0.1-0.8,0.1c-0.2,0.2-0.3,0.4-0.3,0.8c0,0.3,0.2,0.7,0.4,0.9c0.2,0.3,0.5,0.5,0.8,0.6
		c0.3,0.1,0.6,0.1,0.8-0.1c0.2-0.2,0.3-0.4,0.3-0.7l0.5,0.6c-0.1,0.3-0.2,0.5-0.4,0.6c-0.3,0.3-0.7,0.3-1.2,0.2
		c-0.5-0.1-0.9-0.4-1.2-0.8c-0.4-0.4-0.5-0.9-0.6-1.4s0.1-0.9,0.5-1.1c0.2-0.1,0.4-0.2,0.7-0.2L17.2,10.4z"/>
	<path class="st5" d="M20.2,11.9l-0.4,0.3l-1.8-2.7l-0.6,0.4l-0.3-0.5l1.5-1L19,8.8l-0.6,0.4L20.2,11.9z"/>
	<path class="st5" d="M19.3,8l0.5-0.2l1,1.9c0.4,0.7,0.8,1,1.1,0.8c0.4-0.2,0.3-0.6,0-1.4l-1-1.9l0.4-0.2l1.1,2c0.5,1,0.4,1.6-0.2,2
		c-0.7,0.3-1.2,0-1.7-0.9L19.3,8z"/>
	<path class="st5" d="M23.8,9.1l0.1,0.9l-0.5,0.2L23,6.1l0.4-0.2l2.5,3.3l-0.5,0.2l-0.5-0.7L23.8,9.1z M23.5,6.9l0.2,1.7l0.8-0.3
		L23.5,6.9z"/>
	<path class="st5" d="M26.5,8.5l0.9-0.2l0.1,0.5l-1.4,0.4l-1-3.7l0.5-0.1L26.5,8.5z"/>
	<path class="st5" d="M30.1,8.3l-0.5,0.1l-0.4-3.8l0.8-0.1c0.7-0.1,1.1,0.3,1.2,1.1c0.1,0.8-0.2,1.2-0.8,1.3l-0.4,0L30.1,8.3z
		 M29.8,6.4l0.3,0c0.4,0,0.5-0.3,0.5-0.7c0-0.4-0.3-0.6-0.6-0.6l-0.2,0L29.8,6.4z"/>
	<path class="st5" d="M33.7,8.1l-0.6,0l-0.9-1.7l0,1.7l-0.5,0l-0.1-3.8l0.8,0c0.7,0,1,0.4,1,1.1c0,0.3,0,0.5-0.2,0.7
		c-0.1,0.2-0.3,0.3-0.5,0.3L33.7,8.1z M32.2,6.2l0.2,0C32.8,6.2,33,6,33,5.5c0-0.4-0.2-0.7-0.6-0.7l-0.2,0L32.2,6.2z"/>
	<path class="st5" d="M34.2,6.2c0.1-0.6,0.2-1,0.6-1.4s0.7-0.5,1.1-0.5s0.8,0.3,1,0.7s0.3,0.9,0.3,1.5c-0.1,0.6-0.2,1-0.6,1.4
		c-0.3,0.4-0.7,0.5-1.1,0.5s-0.8-0.3-1-0.7C34.2,7.3,34.1,6.8,34.2,6.2z M34.7,6.2c0,0.4,0,0.7,0.2,1c0.2,0.3,0.4,0.5,0.6,0.5
		c0.3,0,0.5-0.1,0.7-0.3c0.2-0.3,0.3-0.6,0.4-1c0-0.4,0-0.7-0.2-1S36.1,5,35.8,5c-0.3,0-0.5,0.1-0.7,0.3S34.7,5.9,34.7,6.2z"/>
	<path class="st5" d="M37.8,8.6l-0.5-0.1l0.8-3.7L38.9,5c0.7,0.2,0.9,0.6,0.8,1.4c-0.2,0.8-0.6,1.1-1.2,1l-0.4-0.1L37.8,8.6z
		 M38.3,6.7l0.2,0.1c0.4,0.1,0.6-0.1,0.7-0.6c0.1-0.4,0-0.7-0.4-0.8l-0.2-0.1L38.3,6.7z"/>
	<path class="st5" d="M41,6.1L40.7,7l1,0.3l-0.2,0.5l-1-0.3l-0.4,1.1l1,0.3L41,9.5l-1.5-0.5l1.2-3.6l1.5,0.5L42,6.4L41,6.1z"/>
	<path class="st5" d="M43.3,10.5l-0.6-0.2l-0.1-1.9l-0.7,1.6l-0.5-0.2l1.5-3.5l0.7,0.3c0.6,0.3,0.8,0.7,0.5,1.5
		c-0.1,0.3-0.3,0.5-0.4,0.6s-0.4,0.2-0.6,0.1L43.3,10.5z M42.7,8.1l0.1,0.1c0.4,0.2,0.7,0,0.8-0.4c0.2-0.4,0.1-0.7-0.3-0.9l-0.1-0.1
		L42.7,8.1z"/>
	<path class="st5" d="M44.4,11.1L44,10.9L45.5,8l-0.6-0.3l0.3-0.5L46.8,8l-0.3,0.5l-0.6-0.3L44.4,11.1z"/>
	<path class="st5" d="M47.1,8.2l0.5,0.3l-0.3,1.5l1.3-0.8l0.5,0.3l-2,1.2l-1,1.4l-0.4-0.3l1-1.4L47.1,8.2z"/>
	<path class="st5" d="M52.1,13.3c0.1-0.3,0-0.6-0.2-0.7c-0.2-0.2-0.5-0.2-0.8-0.2c-0.3,0.1-0.6,0.3-0.9,0.5
		c-0.2,0.3-0.4,0.6-0.5,0.9c-0.1,0.3,0,0.6,0.2,0.8c0.2,0.2,0.4,0.2,0.8,0.2l-0.5,0.6c-0.3-0.1-0.5-0.2-0.6-0.3
		c-0.3-0.3-0.4-0.7-0.4-1.1c0.1-0.5,0.3-0.9,0.7-1.3c0.4-0.4,0.8-0.7,1.3-0.7s0.9,0,1.2,0.3c0.2,0.2,0.3,0.4,0.3,0.6L52.1,13.3z"/>
	<path class="st5" d="M51.8,14.5c0.4-0.4,0.9-0.5,1.4-0.6c0.5,0,0.9,0.1,1.1,0.5c0.3,0.3,0.3,0.7,0.2,1.2c-0.1,0.5-0.4,0.9-0.8,1.2
		s-0.9,0.5-1.4,0.6c-0.5,0-0.9-0.1-1.1-0.5c-0.3-0.3-0.3-0.7-0.2-1.2C51.1,15.2,51.4,14.8,51.8,14.5z M52.2,14.9
		c-0.3,0.2-0.5,0.5-0.6,0.8c-0.1,0.3-0.1,0.6,0.1,0.8c0.2,0.2,0.4,0.3,0.8,0.3s0.6-0.2,0.9-0.4c0.3-0.2,0.5-0.5,0.6-0.8
		c0.1-0.3,0-0.6-0.1-0.8s-0.4-0.3-0.7-0.3C52.8,14.5,52.5,14.6,52.2,14.9z"/>
	<path class="st5" d="M55.7,16.3l0.3,0.4l-1.8,1.1c-0.7,0.4-0.9,0.8-0.7,1.2c0.2,0.3,0.7,0.3,1.4-0.1l1.8-1.1l0.3,0.4L55,19.4
		C54,20,53.4,20,53,19.3c-0.4-0.6-0.1-1.2,0.8-1.8L55.7,16.3z"/>
	<path class="st5" d="M54.8,22.5l-0.3-0.6l1.2-1.5l-1.5,0.7l-0.2-0.5l3.4-1.7l0.3,0.7c0.3,0.6,0.1,1.1-0.6,1.4
		c-0.3,0.1-0.5,0.2-0.7,0.2c-0.2,0-0.4-0.1-0.5-0.3L54.8,22.5z M55.9,20.3l0.1,0.1c0.2,0.4,0.5,0.5,0.9,0.3c0.4-0.2,0.5-0.5,0.3-0.8
		l-0.1-0.1L55.9,20.3z"/>
	<path class="st5" d="M55.2,23.7l-0.2-0.4l3.1-1.2l-0.2-0.6l0.5-0.2L59,23l-0.5,0.2l-0.2-0.6L55.2,23.7z"/>
</g>
<path class="st1" d="M3.3,42.5"/>
</svg>
