<?xml version="1.0" encoding="utf-8"?>
<!-- Generator: Adobe Illustrator 24.0.2, SVG Export Plug-In . SVG Version: 6.00 Build 0)  -->
<svg version="1.1" id="圖層_1" xmlns="http://www.w3.org/2000/svg" xmlns:xlink="http://www.w3.org/1999/xlink" x="0px" y="0px"
	 viewBox="0 0 270.8 64" style="enable-background:new 0 0 270.8 64;" xml:space="preserve">
<style type="text/css">
	.st0{display:none;fill:#333333;}
	.st1{font-family:'creamfont-2.0-Regular-B5pc-H';}
	.st2{font-size:25px;}
	.st3{fill:#333333;}
	.st4{fill:#FFFFFF;}
	.st5{fill:url(#SVGID_1_);}
	.st6{fill:#005BAB;}
	.st7{opacity:0.18;}
	.st8{fill:none;stroke:#000000;stroke-width:0.25;stroke-miterlimit:10;}
	.st9{fill:none;stroke:#FFFFFF;stroke-width:0.25;stroke-miterlimit:10;}
	.st10{fill:#B7A246;}
</style>
<text transform="matrix(1 0 0 1 69.2417 33.9961)" class="st0 st1 st2">智慧財產法院</text>
<g>
	
		<image style="overflow:visible;opacity:0.18;" width="173" height="36" xlink:href="E6CCB9233CD4DB60.png"  transform="matrix(1 0 0 1 70 10.6514)">
	</image>
	<g>
		<g>
			<path class="st3" d="M77.2,15c0.8,0.2,1.6,0.4,2.3,0.7c0.7,0.2,1.1,0.4,1.1,0.7s-0.2,0.4-0.6,0.5c-0.4,0-0.6,0.1-0.7,0.2
				c-0.2,0.3-0.3,0.6-0.5,0.9h3.8c0,0,0.2-0.2,0.6-0.6c0.5-0.6,0.8-0.9,1-0.9c0.1,0,0.6,0.3,1.3,1c0.5,0.4,0.7,0.7,0.7,0.8
				c0,0.3-0.1,0.4-0.4,0.4h-3.5c-0.1,1.2-0.2,2.1-0.4,2.9h1c0.1,0,0.3-0.3,0.8-0.9c0.6-0.7,0.9-1,1-1c0.3,0,0.7,0.3,1.3,1
				c0.6,0.6,0.9,1,0.9,1.2c0,0.3-0.1,0.4-0.4,0.4h-4.8c-0.1,0.2-0.1,0.4-0.2,0.5c-0.1,0.2-0.1,0.3-0.2,0.5c1.7,0.3,2.9,0.6,3.7,1
				c0.7,0.4,1,0.8,1,1.3c0,0.4-0.2,0.8-0.5,1.2c-0.2,0.3-0.5,0.4-0.9,0.4c-0.5,0-1-0.3-1.4-1c-0.4-0.8-1.1-1.6-2.2-2.3
				c-0.2,0.5-0.5,0.9-0.8,1.3c-0.5,0.7-1.2,1.3-2.1,1.8c-1.1,0.7-2.3,1.3-3.7,1.7l-0.3-0.6c0.7-0.3,1.4-0.8,2.1-1.5
				c0.7-0.6,1.3-1.3,1.8-2.1c0.4-0.7,0.7-1.4,0.9-2.1h-1.4c-1.4,0-2.4,0-3,0.1l-0.4-1c0.8,0.1,1.9,0.2,3.4,0.2h1.5
				c0.2-0.8,0.3-1.8,0.3-2.9h-1.2c-0.2,0.2-0.4,0.5-0.6,0.6c-0.6,0.6-1.3,1.2-2.3,1.8l-0.3-0.3c0.6-1,1-1.8,1.3-2.6
				C76.8,17.2,77,16.1,77.2,15z M78.7,26.9c1.2,0.3,2.2,0.6,3.2,1.1h8.7c0.3-0.3,0.5-0.6,0.8-0.8c0.4-0.4,0.6-0.6,0.8-0.6
				c0.3,0,0.8,0.3,1.5,0.8c0.9,0.7,1.3,1.1,1.3,1.4c0,0.2-0.2,0.5-0.6,0.8c-0.3,0.3-0.5,0.6-0.5,0.8V32l0.2,5c0,0.3-0.5,0.6-1.4,0.7
				c-0.4,0-0.7,0.1-0.9,0.1c-0.5,0-0.7-0.3-0.7-0.8v-0.9h-9.6V37c0,0.3-0.4,0.6-1.2,0.7c-0.4,0-0.6,0.1-0.8,0.1
				c-0.6,0-0.9-0.3-0.9-0.8c0.1-1.9,0.2-3.5,0.2-5v-0.6C78.9,30.2,78.8,28.7,78.7,26.9z M81.6,31.7h9.6v-3h-9.6V31.7z M81.6,35.5
				h9.6v-3.1h-9.6V35.5z M87.2,16.3c1,0.3,2.1,0.7,3.1,1.2h1.8c0.4-0.4,0.7-0.8,1.1-1.1c0.3-0.3,0.5-0.4,0.7-0.4
				c0.2,0,0.7,0.2,1.5,0.7c0.9,0.6,1.4,1,1.4,1.2c0,0.2-0.2,0.4-0.5,0.7c-0.2,0.2-0.3,0.4-0.3,0.7v3.5c0,0.8,0,1.8,0.1,3.1
				c0,0.3-0.4,0.6-1.2,0.7c-0.4,0-0.6,0.1-0.8,0.1c-0.5,0-0.7-0.3-0.7-0.8v-1.2H90v1.5c0,0.3-0.4,0.5-1.2,0.7
				c-0.4,0-0.6,0.1-0.8,0.1c-0.5,0-0.8-0.3-0.8-0.8c0.1-0.9,0.1-1.7,0.1-2.6v-3.8C87.4,18.6,87.3,17.4,87.2,16.3z M90,24h3.2v-5.9
				H90V24z"/>
			<path class="st3" d="M105.6,31.8l0.5,0.1c0,1.7-0.1,2.8-0.3,3.4c-0.2,0.7-0.6,1.1-1.1,1.4c-0.3,0.1-0.6,0.2-1,0.2
				c-0.5,0-1-0.1-1.3-0.4c-0.3-0.3-0.5-0.6-0.5-1.1c0-0.2,0.3-0.5,1-0.8c0.7-0.3,1.3-0.7,1.7-1C105,33.1,105.3,32.6,105.6,31.8z
				 M113.3,17.3c0.8,0.1,1.9,0.2,3.4,0.2v-0.3c0-0.8-0.1-1.5-0.3-2.1c0.7,0.1,1.6,0.2,2.7,0.4c1,0.1,1.4,0.3,1.4,0.5
				c0,0.3-0.2,0.5-0.7,0.6c-0.3,0.1-0.5,0.3-0.5,0.6v0.3h0.8c0,0,0.3-0.3,0.6-0.7c0.5-0.6,0.8-0.8,0.8-0.8c0.2,0,0.6,0.3,1.2,0.8
				c0.5,0.6,0.8,0.9,0.8,1c0,0.2-0.1,0.4-0.4,0.4h-3.8v1.7h0.6c0.1,0,0.3-0.3,0.6-0.7c0.4-0.5,0.7-0.7,0.8-0.7c0.2,0,0.6,0.3,1,0.8
				c0.5,0.5,0.7,0.8,0.7,0.9c0,0.2-0.1,0.4-0.3,0.4h-3.4v1.9h1.4c0,0,0.3-0.3,0.7-0.7c0.5-0.5,0.7-0.8,0.8-0.8
				c0.2,0,0.6,0.3,1.1,0.8c0.5,0.6,0.8,0.9,0.8,1c0,0.3-0.1,0.4-0.4,0.4h-4.5v0.8c0,0.1-0.1,0.3-0.2,0.4c0.3,0.1,0.7,0.4,1.1,0.8
				c0.8,0.6,1.1,1,1.1,1.1c0,0.2-0.2,0.4-0.5,0.6c-0.3,0.3-0.5,0.5-0.5,0.8v0.1h0.6c0.1,0,0.3-0.3,0.7-0.9c0.5-0.7,0.8-1,0.9-1
				c0.3,0,0.7,0.3,1.3,1c0.6,0.6,0.9,1,0.9,1.2c0,0.3-0.1,0.4-0.4,0.4h-4c0,0.9,0,1.6,0.1,1.9v0.6c0,0.3-0.4,0.6-1.2,0.7
				c-0.4,0.1-0.7,0.1-0.8,0.1c-0.5,0-0.7-0.3-0.7-0.8v-0.1H108c-1.2,0-2.1,0-2.9,0.1l-0.4-1c0.9,0.1,2,0.2,3.2,0.2h9.8v-1.6h-12
				c-1.4,0-2.4,0-3,0.1l-0.4-1c0.8,0.1,1.9,0.2,3.4,0.2h12v-1.7h-9c-1.7,0-2.9,0-3.6,0.1l-0.4-1c1.1,0.1,2.4,0.2,4,0.2h8.5
				c0.3-0.2,0.5-0.5,0.8-0.7l0,0c-0.3,0-0.6,0.1-0.7,0.1c-0.5,0-0.8-0.2-0.8-0.5c0.1-0.5,0.1-0.8,0.1-1v-0.1h-0.9
				c-1.4,0-2.4,0-3,0.1l-0.4-1c0.8,0.1,1.9,0.2,3.4,0.2h0.9v-1.9c-1.4,0-2.3,0-2.9,0.1l-0.4-1c0.8,0.1,1.9,0.2,3.3,0.2v-1.7
				c-1.4,0-2.4,0-3,0.1L113.3,17.3z M102.7,17.3c0.8,0.1,1.9,0.2,3.4,0.2h0.8c0-0.9-0.1-1.7-0.1-2.3c0.8,0.1,1.7,0.2,2.8,0.4
				c0.8,0.1,1.2,0.3,1.2,0.5c0,0.2-0.3,0.4-0.8,0.6c-0.4,0.1-0.5,0.3-0.5,0.5v0.3h0.5c0,0,0.2-0.2,0.6-0.6c0.4-0.5,0.7-0.7,0.8-0.7
				c0.2,0,0.6,0.3,1,0.8c0.5,0.5,0.7,0.8,0.7,0.9c0,0.2-0.1,0.4-0.3,0.4h-3.3v1.7h0.3c0,0,0.2-0.2,0.5-0.6c0.4-0.5,0.7-0.7,0.7-0.7
				c0.2,0,0.5,0.2,1,0.7c0.4,0.5,0.7,0.8,0.7,0.9c0,0.2-0.1,0.4-0.3,0.4h-2.9v1.1c1.2-0.1,2.4-0.2,3.4-0.4l0.1,0.2
				c-1.2,0.5-2.4,1-3.5,1.4V24c0,0.3-0.4,0.5-1.1,0.7c-0.3,0-0.6,0.1-0.7,0.1c-0.6,0-0.9-0.3-0.9-0.8c0-0.2,0-0.4,0-0.5
				c-0.6,0.1-1.2,0.3-1.9,0.4c-0.3,0-0.4,0.1-0.4,0.2c0,0-0.1,0.1-0.1,0.2c0,0.1-0.1,0.2-0.2,0.2c-0.2,0-0.5-0.4-0.9-1.3
				c-0.1-0.2-0.3-0.6-0.5-1.2c1.4-0.1,2.8-0.1,4.1-0.2c0-0.5,0-0.9,0-1.3c-1.3,0-2.3,0-2.9,0.1l-0.4-1c0.8,0.1,1.8,0.2,3.2,0.2v-0.5
				c0-0.4,0-0.8,0-1.2h-0.8c-1.4,0-2.4,0-3,0.1L102.7,17.3z M107.6,31.4c0.8,0.1,1.6,0.2,2.6,0.3c0.9,0.1,1.4,0.3,1.4,0.6
				c0,0.3-0.2,0.5-0.7,0.6c-0.3,0.1-0.5,0.3-0.5,0.6v0.9c0,0.5,0.2,0.7,0.6,0.8c0.7,0.1,1.8,0.2,3.2,0.2c0.9,0,1.6-0.1,2.2-0.2
				c0.5-0.1,0.8-0.2,0.9-0.3c0.1-0.1,0.3-0.4,0.4-0.7c0.2-0.5,0.4-1.1,0.7-1.8l0.5,0.1c0,0.8,0.1,1.4,0.1,1.6c0,0.5,0.2,0.9,0.6,1.1
				c0.5,0.3,0.8,0.5,0.8,0.8c0,0.4-0.3,0.8-0.9,1c-0.5,0.2-1,0.3-1.6,0.4c-0.9,0.2-2.2,0.2-3.7,0.2c-2.4,0-4-0.1-4.8-0.2
				c-0.7-0.1-1.1-0.4-1.3-0.8c-0.2-0.3-0.2-0.8-0.2-1.5v-0.9C107.8,33.1,107.7,32.2,107.6,31.4z M112.2,30.8
				c1.6,0.3,2.7,0.6,3.3,0.9c0.6,0.3,0.8,0.6,0.8,1c0,0.4-0.2,0.9-0.6,1.2c-0.2,0.3-0.6,0.4-1,0.4c-0.3,0-0.7-0.3-1-0.9
				c-0.3-0.8-0.9-1.6-1.8-2.3L112.2,30.8z M120.1,31.6c1.4,0.5,2.5,0.9,3.2,1.4c0.9,0.6,1.4,1.2,1.4,1.7c0,0.6-0.2,1-0.6,1.4
				c-0.2,0.2-0.6,0.4-1,0.4c-0.3,0-0.6-0.1-0.9-0.3c-0.2-0.2-0.5-0.6-0.6-1.2c-0.2-0.9-0.8-2-1.8-3.2L120.1,31.6z"/>
			<path class="st3" d="M132,31.9c0.8,0.3,1.5,0.5,2.1,0.7c0.8,0.2,1.2,0.4,1.2,0.6s-0.2,0.3-0.7,0.4c-0.4,0-0.6,0.1-0.7,0.2
				c-0.5,0.8-1,1.5-1.6,2.1c-0.7,0.6-1.5,1.3-2.6,1.9l-0.2-0.3c0.4-0.6,0.9-1.3,1.4-2.4C131.3,34.2,131.6,33.2,132,31.9z
				 M130.6,15.7c1.2,0.3,2.3,0.7,3.3,1.2h2.6c0.3-0.3,0.5-0.5,0.8-0.8c0.3-0.3,0.6-0.5,0.8-0.5c0.3,0,0.8,0.2,1.5,0.7
				c0.8,0.6,1.3,1.1,1.3,1.3c0,0.2-0.2,0.4-0.7,0.7c-0.3,0.3-0.5,0.6-0.5,0.8V26l0.2,5c0,0.3-0.5,0.6-1.4,0.7c-0.4,0-0.7,0-0.9,0
				c-0.5,0-0.7-0.3-0.7-0.8v-0.7h-3.4v0.6c0,0.3-0.4,0.6-1.2,0.7c-0.4,0-0.6,0.1-0.8,0.1c-0.6,0-0.9-0.3-0.9-0.8
				c0.1-1.8,0.2-3.3,0.2-4.7V20C130.8,18.8,130.7,17.4,130.6,15.7z M133.4,21h3.4v-3.4h-3.4V21z M133.4,25.4h3.4v-3.7h-3.4V25.4z
				 M133.4,29.6h3.4v-3.5h-3.4V29.6z M136.4,32.1c1.5,0.6,2.6,1.1,3.2,1.6c0.6,0.5,0.9,0.9,0.9,1.2c0,0.6-0.2,1.2-0.6,1.6
				c-0.3,0.4-0.7,0.6-1.1,0.6c-0.2,0-0.4-0.1-0.6-0.2c-0.1-0.1-0.3-0.6-0.5-1.4c-0.2-0.9-0.8-2-1.8-3.2L136.4,32.1z M139.8,21.1
				c0.8,0.1,1.9,0.2,3.4,0.2h2.6v-2.2c0-1.5-0.1-2.9-0.2-4c0.8,0.1,1.4,0.2,2.1,0.3c1.4,0.2,2.1,0.4,2.1,0.6c0,0.3-0.2,0.5-0.7,0.8
				c-0.3,0.1-0.5,0.3-0.5,0.6V21c0.2-0.2,0.3-0.4,0.5-0.6c0.6-0.7,0.9-1,1-1c0.3,0,0.7,0.3,1.4,1c0.6,0.7,1,1.1,1,1.2
				c0,0.3-0.1,0.4-0.4,0.4h-3.4v12.2c0,1.5-0.4,2.5-1.2,2.9c-0.9,0.5-1.6,0.7-2.1,0.7c-0.2,0-0.4-0.3-0.5-0.8
				c-0.2-0.9-1.2-1.6-3.1-2.2l0.1-0.5c1.1,0.1,2,0.2,2.7,0.2c0.5,0,0.9-0.1,1.1-0.2c0.2-0.1,0.3-0.3,0.3-0.7v-6.9
				c-0.2,0.3-0.3,0.6-0.5,0.8c-0.7,1.2-1.6,2.2-2.5,3.1c-0.9,0.9-2,1.7-3.1,2.3l-0.2-0.4c1.1-1.2,2.1-2.6,3-4.4
				c0.9-1.8,1.7-3.9,2.3-6.3h-1.7c-1.4,0-2.4,0-3,0.1L139.8,21.1z"/>
			<path class="st3" d="M166.4,15c1.1,0.1,2.1,0.2,3.1,0.4c0.6,0,1,0.2,1,0.5c0,0.1-0.2,0.3-0.5,0.4c-0.4,0.2-0.6,0.4-0.6,0.7v1h5.2
				c0,0,0.3-0.4,0.8-1c0.6-0.8,0.9-1.1,1.1-1.1c0.3,0,0.8,0.4,1.5,1.1s1,1.2,1,1.3c0,0.3-0.2,0.4-0.5,0.4h-4.3
				c0.2,0.1,0.4,0.2,0.5,0.3c0.9,0.5,1.4,0.8,1.4,1s-0.2,0.3-0.7,0.3l-0.8-0.1c-0.8,0.4-1.6,0.8-2.5,1.2c1,0.4,1.7,0.7,2.1,1
				c0.3,0.2,0.4,0.5,0.4,0.9c0,0.4-0.1,0.7-0.3,0.9c-0.1,0.1-0.1,0.1-0.2,0.2h1.1c0,0,0.2-0.3,0.7-0.8c0.6-0.7,1-1.1,1.1-1.1
				c0.2,0,0.7,0.4,1.6,1.2c0.5,0.5,0.8,0.8,0.8,0.9c0,0.3-0.2,0.4-0.5,0.4h-17.7v2.7c0,1.7-0.1,3.2-0.3,4.5
				c-0.3,1.2-0.7,2.3-1.4,3.3c-0.6,0.8-1.4,1.6-2.4,2.4l-0.4-0.2c0.7-1.3,1.1-2.5,1.4-3.7c0.3-1.4,0.5-3.5,0.5-6.3
				c0-2.1-0.1-3.7-0.3-4.6c1.4,0.4,2.4,0.8,3.2,1.2h11.1c-0.2-0.1-0.5-0.3-0.8-0.5c-0.7-0.5-1.5-1-2.3-1.4c-0.1,0-0.2,0.1-0.3,0.1
				c-1.7,0.6-4.2,1.1-7.5,1.6l-0.1-0.4c2.5-0.8,4.5-1.5,5.9-2.1c-1.2-0.5-2.9-1-5-1.5l0.1-0.3c2.8,0.4,5,0.7,6.6,1
				c1.1-0.5,2-1.2,3-2h-10.7c-1.4,0-2.4,0-3,0.1l-0.4-1c0.8,0.1,1.9,0.2,3.4,0.2h5.1v-0.9C166.6,16.4,166.5,15.7,166.4,15z
				 M163.8,25.8c0.8,0.2,1.6,0.5,2.3,0.7c0.7,0.2,1.1,0.4,1.1,0.7c0,0.2-0.2,0.4-0.6,0.4c-0.4,0.1-0.6,0.1-0.7,0.2
				c-0.2,0.5-0.5,0.9-0.7,1.3h3.3v-1.5c0-0.7-0.1-1.4-0.2-2.1c1.1,0.1,2.1,0.2,3.1,0.4c0.6,0,1,0.2,1,0.5c0,0.1-0.2,0.3-0.5,0.4
				c-0.4,0.2-0.6,0.4-0.6,0.7v1.6h2.1c0,0,0.2-0.3,0.7-0.8c0.6-0.7,1-1.1,1.2-1.1c0.2,0,0.7,0.4,1.5,1.2c0.5,0.5,0.8,0.8,0.8,1
				c0,0.2-0.2,0.4-0.5,0.4h-5.8v3h2c0,0,0.3-0.3,0.7-0.8c0.5-0.6,0.8-1,0.9-1c0.3,0,0.7,0.3,1.2,0.9c0.6,0.6,0.8,1,0.8,1.1
				c0,0.3-0.1,0.4-0.4,0.4h-5.2v3.1h3.1c0,0,0.3-0.4,0.8-1c0.6-0.8,0.9-1.1,1.1-1.1c0.3,0,0.8,0.4,1.5,1.1s1,1.2,1,1.3
				c0,0.2-0.2,0.4-0.5,0.4h-14.6c-1.4,0-2.4,0-3,0.1l-0.4-1c0.8,0.1,1.9,0.2,3.4,0.2h4.8v-3.1h-1.8c-1.4,0-2.4,0-3,0.1l-0.4-1
				c0.8,0.1,1.9,0.2,3.4,0.2h1.8v-3h-3.8c-0.2,0.2-0.4,0.5-0.6,0.6c-0.6,0.7-1.4,1.4-2.4,2.1l-0.3-0.3c0.6-1.1,1.1-2.1,1.5-3
				C163.3,28.3,163.6,27.1,163.8,25.8z"/>
			<path class="st3" d="M184.5,21.3c1.7,0.4,2.9,0.7,3.5,1.1c0.6,0.4,0.9,0.8,0.9,1.3c0,0.5-0.2,1-0.6,1.4c-0.3,0.3-0.7,0.4-1.1,0.4
				c-0.4,0-0.7-0.3-1-1c-0.4-1-1-1.9-1.9-2.8L184.5,21.3z M191.8,21l0.5,0.1c-1,2.9-1.8,5.2-2.3,6.9c-0.5,1.6-0.7,2.7-0.7,3.3
				c0,0.5,0,1,0.1,1.6c0.3,1.2,0.4,2.2,0.4,2.9c0,0.5-0.1,0.8-0.3,1c-0.2,0.3-0.6,0.4-1.1,0.4c-0.7,0-1.2-0.1-1.5-0.4
				c-0.2-0.2-0.3-0.5-0.3-1c0-0.4,0.1-1,0.2-1.8c0-0.6,0-1,0-1.4c0-0.6-0.1-1-0.3-1.3c-0.2-0.3-0.8-0.6-1.9-0.9l0.1-0.6
				c1.1,0,1.8-0.1,2.2-0.2c0.3-0.2,0.6-0.6,0.8-1.1L191.8,21z M186.6,15.4c1.7,0.4,3,0.7,3.6,1.1c0.6,0.4,0.9,0.8,0.9,1.3
				c0,0.5-0.2,0.9-0.6,1.4c-0.3,0.3-0.7,0.5-1.1,0.5c-0.4,0-0.8-0.3-1-1c-0.4-1-1-1.9-2-2.8L186.6,15.4z M192.4,20.1
				c0.8,0.1,1.9,0.2,3.4,0.2h1.1v-3c0-0.7-0.1-1.5-0.2-2.2c1.1,0.1,2.2,0.3,3.3,0.5c0.7,0,1,0.2,1,0.5c0,0.1-0.2,0.2-0.6,0.4
				c-0.4,0.2-0.6,0.4-0.6,0.7v3.2h1.3c0.1,0,0.4-0.4,0.9-1c0.6-0.8,1-1.2,1.1-1.2c0.3,0,0.9,0.4,1.6,1.1c0.7,0.8,1.1,1.2,1.1,1.4
				c0,0.3-0.2,0.4-0.5,0.4h-5.4v5.3h2.2c0.1,0,0.4-0.4,0.9-1.1c0.7-0.8,1-1.2,1.1-1.2c0.3,0,0.9,0.4,1.6,1.2
				c0.7,0.8,1.1,1.3,1.1,1.4c0,0.3-0.2,0.4-0.5,0.4h-7.2c-0.7,2.1-1.6,3.9-2.6,5.3c-0.3,0.4-0.7,0.8-1,1.2c2.6-0.1,5.1-0.2,7.4-0.3
				c-0.5-1.1-1.3-2.2-2.2-3.5l0.4-0.3c2.2,1.1,3.7,2.1,4.5,3.1c0.8,0.9,1.3,1.6,1.3,2.3c0,0.6-0.2,1.1-0.6,1.6
				c-0.3,0.4-0.7,0.7-1.1,0.7c-0.4,0-0.7-0.1-0.9-0.3c-0.2-0.2-0.5-0.9-0.8-2.1c0-0.2-0.1-0.4-0.2-0.6c-2.9,1-5.9,1.7-9.1,2.2
				c-0.4,0-0.6,0.1-0.6,0.2c0,0.1-0.1,0.2-0.1,0.4c-0.1,0.2-0.2,0.4-0.3,0.4c-0.4,0-0.8-0.7-1.3-2c-0.1-0.3-0.4-0.9-0.7-1.7
				c1,0,2,0,3,0c0.3-0.6,0.5-1.3,0.8-2.1c0.5-1.3,0.9-2.8,1.1-4.4h-1.7c-1.4,0-2.4,0-3,0.1l-0.4-1c0.8,0.1,1.9,0.2,3.4,0.2h2.6V21
				h-1.1c-1.4,0-2.4,0-3,0.1L192.4,20.1z"/>
			<path class="st3" d="M218.9,15c0.3,0,0.8,0.3,1.7,1c0.6,0.6,1,0.9,1,1.1c0,0.2-0.2,0.3-0.7,0.5c-0.6,0.1-0.9,0.3-1,0.4
				c-1,2.2-2,3.9-2.9,5.3c1.1,0.9,1.9,1.8,2.4,2.6c0.3,0.5,0.6,1.1,0.8,1.7c0.2,0.6,0.3,1.3,0.3,2c0,0.9-0.2,1.5-0.5,1.9
				c-0.4,0.5-0.7,0.9-1.2,1.2c-0.4,0.3-0.8,0.4-1,0.4c-0.2,0-0.4-0.3-0.5-0.8c-0.2-0.6-0.7-1.1-1.8-1.5v6.4c0,0.3-0.4,0.6-1.3,0.7
				c-0.4,0-0.6,0-0.8,0c-0.5,0-0.8-0.3-0.8-0.8c0.1-0.9,0.1-1.8,0.1-2.6V18.9c0-1.3-0.1-2.5-0.2-3.6c1.2,0.3,2.3,0.7,3.5,1.3h1.1
				c0.4-0.4,0.7-0.8,1-1.1C218.5,15.2,218.8,15,218.9,15z M215.5,17.2V30c0.6,0.1,1.1,0.1,1.5,0.1c0.4,0,0.6-0.1,0.8-0.2
				c0.2-0.3,0.2-0.7,0.2-1.2c0-1.1-0.1-2-0.4-2.7c-0.3-0.9-0.9-1.8-1.6-2.7c0.6-1.8,1.1-3.9,1.5-6.2H215.5z M220.1,26.6
				c0.8,0.1,1.9,0.2,3.4,0.2h6.9c0.1,0,0.3-0.3,0.8-1c0.6-0.7,0.9-1.1,1-1.1c0.3,0,0.8,0.4,1.4,1.1c0.7,0.7,1,1.1,1,1.3
				c0,0.2-0.2,0.4-0.5,0.4h-4.3v6.6c0,0.5,0.1,0.7,0.4,0.8c0.2,0,0.6,0.1,1,0.1c0.4,0,0.7-0.1,0.8-0.4c0.2-0.5,0.5-1.5,0.9-3.2
				l0.5,0.1l0.1,1.6c0,0.6,0.2,1.1,0.6,1.5c0.4,0.4,0.5,0.7,0.5,1c0,0.5-0.2,0.8-0.5,1c-0.6,0.4-1.6,0.6-3,0.6h-1.4
				c-0.5,0-1-0.1-1.4-0.2c-0.8-0.2-1.3-0.8-1.3-1.9v-7.7h-1.5c-0.1,1.9-0.4,3.3-0.8,4.2c-0.4,0.9-0.8,1.7-1.3,2.3
				c-0.6,0.7-1.3,1.3-2.1,1.8c-1.1,0.7-2.4,1.3-3.7,1.7l-0.3-0.6c0.7-0.3,1.4-0.8,2.1-1.5c0.7-0.6,1.3-1.3,1.8-2.1
				c0.5-0.8,0.8-1.6,1-2.4c0.3-1,0.4-2.1,0.5-3.5c-1,0-1.8,0-2.3,0.1L220.1,26.6z M225.2,15c1,0.1,2.1,0.2,3.1,0.4
				c0.6,0,0.9,0.2,0.9,0.5c0,0.1-0.2,0.2-0.6,0.4c-0.4,0.2-0.6,0.4-0.6,0.7v1.6h2.5c0.3-0.3,0.6-0.6,0.8-0.8
				c0.3-0.4,0.6-0.6,0.8-0.6c0.2,0,0.8,0.4,1.6,1.1c0.8,0.6,1.2,1.1,1.2,1.4c0,0.2-0.2,0.3-0.6,0.4c-0.5,0-0.7,0-0.8,0.1
				c-0.7,0.5-1.6,1-2.6,1.5l0.1,0c0.6,0.6,0.9,1,0.9,1.2c0,0.3-0.1,0.4-0.4,0.4h-6.9c-1.4,0-2.4,0-3,0.1l-0.4-1
				c0.8,0.1,1.9,0.2,3.4,0.2h3.3c0,0,0.3-0.3,0.8-0.9c0.6-0.6,0.9-1,1-1c0.1,0,0.3,0.1,0.5,0.2c0.2-0.6,0.5-1.1,0.7-1.7h-8.4
				c0,0.6-0.1,1.1-0.1,1.4c-0.2,0.6-0.4,1.1-0.8,1.4c-0.2,0.1-0.5,0.2-0.7,0.2c-0.5,0-0.9-0.1-1.2-0.4c-0.3-0.2-0.4-0.6-0.4-1
				c0-0.2,0.3-0.5,0.8-0.8c0.6-0.3,1-0.7,1.3-1c0.3-0.4,0.6-0.9,0.8-1.7l0.5,0.1c0,0.5,0,0.9,0,1.3h2.9v-1.5
				C225.4,16.4,225.3,15.7,225.2,15z"/>
		</g>
	</g>
</g>
<g>
	<circle class="st4" cx="32.6" cy="31.4" r="30.3"/>
</g>
<linearGradient id="SVGID_1_" gradientUnits="userSpaceOnUse" x1="32.6453" y1="60.7748" x2="32.6453" y2="37.519">
	<stop  offset="0.6854" style="stop-color:#B7A246"/>
	<stop  offset="1" style="stop-color:#FFFFFF"/>
</linearGradient>
<path class="st5" d="M61.5,37.8c-3,13-14.9,23-28.8,23c-13.9,0-25.9-10.2-28.9-23.3h7.4c2.8,9,11.5,16.1,21.5,16.1
	c10,0,18.6-6.8,21.4-15.8H61.5z"/>
<g>
	<path class="st6" d="M53.6,31.3c0,11.6-9.4,21-21,21s-21-9.4-21-21c0-11.6,9.4-21,21-21S53.6,19.7,53.6,31.3z"/>
</g>
<g>
	<path class="st4" d="M34.3,33.8h-0.5H31V42c0,0.9,0.8,1.7,1.7,1.7c0.9,0,1.6-0.8,1.6-1.7L34.3,33.8z"/>
	<path class="st4" d="M35.6,44h-5.8c-0.4,0-0.8,0.3-0.8,0.6v0.8c0,0.4,0.3,0.7,0.8,0.7h5.8c0.4,0,0.8-0.3,0.8-0.7v-0.8
		C36.3,44.3,36,44,35.6,44z"/>
	<path class="st4" d="M36.7,46.9h-8c-0.6,0-1,0.3-1,0.7v0.8c0,0.4,0.4,0.7,1,0.7h8c0.6,0,1-0.3,1-0.7v-0.8
		C37.6,47.2,37.2,46.9,36.7,46.9z"/>
	<path class="st4" d="M48.9,23.3c0-0.3-0.2-0.5-0.4-0.6c-0.4-0.3-1-0.2-1.4,0.1c-1.1,1.1-2.7,1.7-4.4,1.7c-1.7,0-3.2-0.6-4.3-1.6
		c-1.5-1.3-3.5-2.1-5.7-2.1c-2.1,0-4.1,0.7-5.5,1.9l0,0l-0.2,0.2l0,0c-1.1,1.1-2.7,1.7-4.4,1.7c-1.7,0-3.3-0.6-4.4-1.7
		c-0.2-0.2-0.4-0.3-0.7-0.3c-0.2,0-0.5,0-0.7,0.2c-0.2,0.2-0.4,0.4-0.4,0.6l0,0v0.1c0,0.2,0.1,0.4,0.3,0.6c1.5,1.4,3.6,2.3,5.9,2.3
		c2.1,0,4-0.7,5.5-1.9l0,0c0,0,0,0,0,0c0,0,0.1-0.1,0.1-0.1c1.1-1.1,2.7-1.7,4.4-1.7c1.7,0,3.2,0.6,4.3,1.6c1.4,1.3,3.5,2.1,5.7,2.1
		c2.3,0,4.4-0.8,5.9-2.3C48.8,23.8,48.9,23.6,48.9,23.3C48.9,23.3,48.9,23.3,48.9,23.3z M48.9,23.3C48.9,23.3,48.9,23.3,48.9,23.3
		C48.9,23.3,48.9,23.3,48.9,23.3L48.9,23.3z"/>
	<path class="st4" d="M36.1,17c0,1.9-1.5,3.5-3.5,3.5c-1.9,0-3.4-1.5-3.4-3.5c0-1.9,1.5-3.5,3.4-3.5C34.6,13.6,36.1,15.1,36.1,17z"
		/>
	<path class="st4" d="M27.6,38.4l-5.3-12C22.2,26.2,22,26,21.7,26c-0.2,0-0.4,0.1-0.5,0.4v0l-5.3,12c-0.1,0.2-0.1,0.4,0,0.6
		c1,1.9,3.3,3.2,5.8,3.2c2.5,0,4.8-1.2,5.8-3.2C27.6,38.8,27.7,38.6,27.6,38.4z M21.7,28.1c0.3,0.7,4.3,9.8,4.6,10.4h-9.2
		c0.2-0.5,3.1-7,3.1-7S21.5,28.8,21.7,28.1z"/>
	<path class="st4" d="M49.5,38.4l-5.3-12c-0.1-0.2-0.3-0.3-0.5-0.3c-0.2,0-0.4,0.1-0.5,0.4v0l-5.3,12c-0.1,0.2-0.1,0.4,0,0.6
		c1,1.9,3.3,3.2,5.8,3.2c2.5,0,4.8-1.2,5.8-3.2C49.6,38.8,49.6,38.6,49.5,38.4z M43.7,28.1c0.3,0.7,4.3,9.8,4.6,10.4h-9.2
		c0.2-0.4,2-4.5,2-4.5S43.4,28.8,43.7,28.1z"/>
	<path class="st4" d="M38.3,25.4c-1,0-0.9,0.9-0.9,0.9h-1.2v-0.5h-7v0.5H28c0,0,0.1-0.9-0.9-0.9c0,0-0.8,0-0.8,1v4.4
		c0,1.1,0.8,1,0.8,1c1,0,0.9-0.9,0.9-0.9h1.2v0.5H31l0,1.6l3.3,0v-1.6h1.9v-0.5h1.2c0,0-0.1,0.9,0.9,0.9c0,0,0.8,0,0.8-1v-4.4
		C39,25.4,38.3,25.4,38.3,25.4z"/>
</g>
<g>
	<g class="st7">
		<path class="st8" d="M137.4,43.9"/>
	</g>
	<g>
		<path class="st9" d="M135.4,41.9"/>
	</g>
</g>
<g>
	<path class="st4" d="M18.9,56.1l-0.3-0.2l0.2-0.3l-2.7-1.8L16,54.2L15.7,54l1.2-1.8l3.2,2.1L18.9,56.1z M19,55.4l0.3-0.4l-2.7-1.8
		l-0.3,0.4L19,55.4z M19.4,52.4l-1-0.7c0,0-0.1,0.1-0.1,0.1c0.3,0.4,0.5,0.9,0.6,1.3l-0.3,0.1c-0.2-0.4-0.4-0.8-0.6-1.2
		c-0.5,0.2-1,0.2-1.5,0l-0.1-0.3c0.7,0.2,1.2,0.2,1.6-0.1l-0.9-0.6l0.1-0.2l1,0.7c0.1-0.1,0.2-0.2,0.4-0.4l-0.5-0.3
		c-0.2,0-0.4,0.1-0.6,0.1l-0.1-0.3c0.5,0,0.9-0.1,1.2-0.3l0.2,0.2c-0.2,0.1-0.3,0.1-0.3,0.1l1.3,0.9l-0.1,0.2L19,51.1
		c-0.1,0.2-0.2,0.3-0.4,0.4l0.9,0.6L19.4,52.4z M19.4,54.8l0.3-0.4L17,52.6L16.8,53L19.4,54.8z M20.8,54.2l-1.6-1.1l1-1.5l1.6,1.1
		L20.8,54.2z M20.7,53.8l0.7-1L20.3,52l-0.7,1L20.7,53.8z"/>
	<path class="st4" d="M21.9,56.5c-0.3,0.2-0.6,0.4-0.9,0.6l-0.2-0.2c0.4-0.2,0.6-0.3,0.9-0.6L21.9,56.5z M26.2,57l-0.5-0.2l-0.2,0.5
		L21.6,56l0.1-0.2l3.6,1.3l0.1-0.3l-4-1.4l0.1-0.2l4,1.4l0.1-0.3L21.9,55l0.1-0.2l3.9,1.4l-0.2,0.5l0.5,0.2L26.2,57z M24.5,53.9
		l-0.9-0.3l-0.1,0.3l0.8,0.3l-0.1,0.2l-0.8-0.3l-0.1,0.4l0.9,0.3L24,55l-0.9-0.3l-0.1,0.2l-0.3-0.1l0.1-0.2l-1.1-0.4l0.1-0.2
		l1.1,0.4l0.1-0.4l-0.9-0.3l0.1-0.2l0.9,0.3l0.1-0.3l-1-0.4l0.1-0.2l1,0.4l0.1-0.3l0.3,0.1l-0.1,0.3l0.9,0.3L24.5,53.9z M24.8,57.7
		c-0.1,0.3-0.3,0.4-0.4,0.5c-0.1,0-0.2,0.1-0.3,0.1c-0.1,0-0.4-0.1-1.1-0.4c-0.4-0.1-0.6-0.2-0.7-0.3s-0.1-0.1-0.2-0.2
		c0-0.1,0-0.2,0-0.3l0.2-0.6l0.3,0.1l-0.2,0.6c0,0.1,0,0.1,0.1,0.2c0.1,0,0.3,0.1,0.8,0.3c0.4,0.2,0.7,0.2,0.7,0.2
		c0.1,0,0.1,0,0.2,0c0.1,0,0.1-0.2,0.2-0.4L24.8,57.7z M24,57.4l-0.2,0.1c-0.2-0.2-0.4-0.4-0.6-0.6l0.2-0.1
		C23.6,56.9,23.8,57.1,24,57.4z M26.5,55.9l-1.1-0.4l-0.1,0.2l-0.3-0.1l0.1-0.2l-0.9-0.3l0.1-0.2l0.9,0.3l0.1-0.4l-0.7-0.3l0.1-0.2
		l0.7,0.3l0.1-0.3L24.7,54l0.1-0.2l0.9,0.3l0.1-0.3l0.3,0.1l-0.1,0.3l1,0.4l-0.1,0.2l-1-0.4l-0.1,0.3l0.9,0.3l-0.1,0.2L25.6,55
		l-0.1,0.4l1.1,0.4L26.5,55.9z M25.6,58.5l-0.3,0.1c-0.1-0.4-0.2-0.7-0.4-1l0.3-0.1C25.4,57.8,25.6,58.2,25.6,58.5z"/>
	<path class="st4" d="M29.3,58.1l-1.2-0.1l0.1,0.1c-0.3,0.4-0.6,0.8-1,1.1L27,58.9c0.4-0.3,0.7-0.6,1-1l-0.6-0.1l0.3-3.2l1.9,0.2
		L29.3,58.1z M29.1,57.7l0.1-0.7l-1.3-0.1l-0.1,0.7L29.1,57.7z M29.2,56.7l0.1-0.7l-1.3-0.1l-0.1,0.7L29.2,56.7z M29.3,55.7l0.1-0.7
		L28,54.9L28,55.6L29.3,55.7z M29.5,59.2l-0.3,0.1c-0.1-0.3-0.3-0.6-0.6-1l0.3-0.1C29.1,58.5,29.3,58.8,29.5,59.2z M32.4,56.2
		l-0.5-0.1l-0.3,3.1c0,0.1-0.1,0.2-0.1,0.3c-0.1,0.1-0.2,0.1-0.3,0.1c-0.1,0-0.4,0-0.8-0.1l-0.1-0.3c0.2,0,0.4,0.1,0.5,0.1
		c0.2,0,0.4,0,0.4,0c0,0,0.1-0.1,0.1-0.1l0.3-2.5c-0.5,0.8-1.2,1.4-1.9,1.8l-0.2-0.2c0.9-0.5,1.6-1.2,2-2.1l-1.7-0.2l0-0.3l1.8,0.2
		l0.1-1l0.3,0l-0.1,1l0.5,0.1L32.4,56.2z"/>
	<path class="st4" d="M37.9,55.1L37,55.2c-0.2,0.2-0.4,0.4-0.6,0.6c0.5,0.1,0.9,0.1,1.3,0.2l-0.1,0.2c-0.5-0.1-1-0.2-1.5-0.3
		c-0.6,0.3-1.2,0.5-2,0.6L34,56.3c0.7-0.1,1.3-0.3,1.7-0.4c-0.5,0-0.9-0.1-1.4-0.1l0.1-0.2c0.6,0,1.2,0.1,1.7,0.1
		c0.2-0.1,0.4-0.3,0.6-0.5l-3.3,0.4l0-0.3l2.2-0.2c-0.1-0.1-0.2-0.2-0.3-0.4l0.3-0.1c0.2,0.2,0.3,0.3,0.4,0.5l2.1-0.2L37.9,55.1z
		 M38.2,56.5L33.9,57l0.1,0.5c0.1,0.9,0,1.6-0.4,2.1l-0.2-0.2c0.1-0.2,0.2-0.4,0.3-0.7c0.1-0.3,0.1-0.6,0-0.8l-0.1-1.1l4.6-0.5
		L38.2,56.5z M38.4,59l-4.2,0.5l0-0.3l2-0.2l-0.1-0.5l-1.4,0.2l0-0.3l1.4-0.2l-0.1-0.5l-1.2,0.1c-0.1,0.2-0.2,0.4-0.4,0.5l-0.2-0.2
		c0.3-0.3,0.5-0.6,0.7-1l0.3,0.1c-0.1,0.2-0.1,0.3-0.2,0.4l1.1-0.1l0-0.4l0.3,0l0,0.4l1.6-0.2l0,0.3l-1.6,0.2l0.1,0.5l1.5-0.2l0,0.3
		l-1.5,0.2l0.1,0.5l1.9-0.2L38.4,59z"/>
	<path class="st4" d="M39.8,54.4l-0.1,0.3c-0.3-0.2-0.7-0.3-1.1-0.3l0.1-0.3C39.1,54.2,39.5,54.3,39.8,54.4z M40.2,55.8L40,56
		c-0.3-0.1-0.7-0.3-1.2-0.3l0.1-0.3C39.5,55.5,39.9,55.6,40.2,55.8z M40.5,56.6c-0.1,0.9-0.2,1.6-0.3,2.1l-0.3-0.1
		c0.2-0.5,0.3-1.2,0.4-2.1L40.5,56.6z M43.9,54.8l-1.7,0.6c-0.1,0.9-0.3,1.6-0.5,2.2c0.8-0.4,1.4-0.8,2.1-1.2
		c-0.3-0.2-0.6-0.4-0.9-0.6l0.2-0.2c0.7,0.4,1.2,0.8,1.6,1.2l-0.2,0.2c-0.2-0.2-0.4-0.3-0.5-0.5c-0.7,0.5-1.6,0.9-2.6,1.4l-0.2-0.2
		c0.1-0.1,0.3-0.4,0.4-0.9c0.1-0.4,0.2-0.9,0.3-1.4L40.5,56l-0.1-0.3l1.6-0.6l-0.4-1l-1.3,0.5l-0.1-0.3l1.3-0.5l-0.3-0.8l0.3-0.1
		l0.3,0.8l1.3-0.5l0.1,0.3l-1.3,0.5l0.4,1l1.5-0.6L43.9,54.8z"/>
	<path class="st4" d="M45.3,53.1c0.5,0.1,0.9,0.4,1.1,0.8c0.1,0.1,0.1,0.3,0.1,0.4c0,0.1-0.1,0.3-0.4,0.5c-0.1,0-0.1,0.1-0.2,0.1
		l-0.3-0.2l0.3-0.2c0.1-0.1,0.2-0.2,0.3-0.3c0-0.1,0-0.1,0-0.2c-0.2-0.3-0.6-0.6-1.1-0.7c-0.1-0.4-0.2-0.8-0.4-1.4l-0.7,0.5l2.5,3.6
		l-0.2,0.2l-2.6-3.9l1.2-0.8l0.2,0.2C45,52.2,45.2,52.6,45.3,53.1z M48.4,50.9l-0.2,0.2l-0.5-0.7l-2,1.4l0.5,0.7l-0.2,0.2l-0.6-0.9
		l1.1-0.8c-0.1-0.1-0.3-0.2-0.5-0.3l0.2-0.2c0.2,0.1,0.3,0.2,0.5,0.4l1.2-0.8L48.4,50.9z M48,51.3l-1.6,1.1l-0.2-0.2l1.6-1.1
		L48,51.3z M49.6,52.5c0.2,0.2,0.3,0.4,0.3,0.6s0,0.3,0,0.4c0,0.1-0.2,0.2-0.4,0.4c-0.3,0.2-0.5,0.2-0.6,0l-1-1.4l-0.6,0.4
		c0.3,0.5,0.5,1,0.4,1.3s-0.2,0.8-0.4,1.2l-0.3-0.1c0.3-0.4,0.4-0.7,0.5-1.1c0-0.4-0.1-0.7-0.4-1.2l-0.7,0.5l-0.2-0.2l2.6-1.7
		l0.2,0.2l-0.8,0.5l0.9,1.3c0,0,0,0,0.1,0c0,0,0.1,0,0.2-0.1c0.1-0.1,0.2-0.1,0.2-0.2c0,0,0-0.1,0-0.1c0,0,0-0.1-0.1-0.3
		c-0.1-0.1-0.2-0.3-0.3-0.4L49.6,52.5z"/>
</g>
<g>
	<path class="st10" d="M10.1,24.4l-0.1,0.5l-3.7-1.1l0.1-0.5L10.1,24.4z"/>
	<path class="st10" d="M6.6,22.4L6.7,22l3.3-0.5l-2.6-1L7.6,20l3.6,1.5l-0.1,0.4l-3.3,0.5l2.6,1.1l-0.2,0.5L6.6,22.4z"/>
	<path class="st10" d="M11.9,20.1l-0.2,0.4L8.8,19l-0.3,0.6L8,19.3l0.8-1.6L9.3,18L9,18.6L11.9,20.1z"/>
	<path class="st10" d="M9.9,17.1l0.8,0.5l0.5-0.8l0.5,0.3l-0.5,0.8l1,0.6l0.6-0.9l0.5,0.3l-0.8,1.3l-3.2-2.1l0.8-1.3l0.5,0.3
		L9.9,17.1z"/>
	<path class="st10" d="M13.4,16.8l0.6-0.7l0.4,0.3l-0.9,1.1l-3-2.3l0.3-0.4L13.4,16.8z"/>
	<path class="st10" d="M14.4,15.5l0.6-0.7l0.4,0.4l-0.9,1.1l-2.9-2.5l0.3-0.4L14.4,15.5z"/>
	<path class="st10" d="M13.7,12.3l0.7,0.7l0.7-0.7l0.4,0.4l-0.7,0.7l0.8,0.9l0.8-0.7l0.4,0.4L15.6,15L13,12.2l1.1-1.1l0.4,0.4
		L13.7,12.3z"/>
	<path class="st10" d="M16.9,10c-0.3-0.1-0.6-0.1-0.8,0.1c-0.2,0.2-0.3,0.4-0.3,0.8c0,0.3,0.2,0.7,0.4,0.9c0.2,0.3,0.5,0.5,0.8,0.6
		c0.3,0.1,0.6,0.1,0.8-0.1c0.2-0.2,0.3-0.4,0.3-0.7l0.5,0.6c-0.1,0.3-0.2,0.5-0.4,0.6c-0.3,0.3-0.7,0.3-1.2,0.2
		c-0.5-0.1-0.9-0.4-1.2-0.8c-0.4-0.4-0.5-0.9-0.6-1.4s0.1-0.9,0.5-1.1c0.2-0.1,0.4-0.2,0.7-0.2L16.9,10z"/>
	<path class="st10" d="M19.9,11.5l-0.4,0.3L17.7,9l-0.6,0.4L16.9,9l1.5-1l0.3,0.5l-0.6,0.4L19.9,11.5z"/>
	<path class="st10" d="M19,7.6l0.5-0.2l1,1.9c0.4,0.7,0.8,1,1.1,0.8c0.4-0.2,0.3-0.6,0-1.4l-1-1.9l0.4-0.2l1.1,2
		c0.5,1,0.4,1.6-0.2,2c-0.7,0.3-1.2,0-1.7-0.9L19,7.6z"/>
	<path class="st10" d="M23.4,8.7l0.1,0.9L23,9.8l-0.3-4.1l0.4-0.2l2.5,3.3L25.1,9l-0.5-0.7L23.4,8.7z M23.2,6.5l0.2,1.7l0.8-0.3
		L23.2,6.5z"/>
	<path class="st10" d="M26.2,8.1l0.9-0.2l0.1,0.5l-1.4,0.4l-1-3.7L25.3,5L26.2,8.1z"/>
	<path class="st10" d="M29.7,8L29.2,8l-0.4-3.8l0.8-0.1c0.7-0.1,1.1,0.3,1.2,1.1c0.1,0.8-0.2,1.2-0.8,1.3l-0.4,0L29.7,8z M29.5,6
		l0.3,0c0.4,0,0.5-0.3,0.5-0.7c0-0.4-0.3-0.6-0.6-0.6l-0.2,0L29.5,6z"/>
	<path class="st10" d="M33.4,7.8l-0.6,0l-0.9-1.7l0,1.7l-0.5,0L31.3,4l0.8,0c0.7,0,1,0.4,1,1.1c0,0.3,0,0.5-0.2,0.7
		c-0.1,0.2-0.3,0.3-0.5,0.3L33.4,7.8z M31.9,5.9l0.2,0c0.4,0,0.6-0.2,0.6-0.7c0-0.4-0.2-0.7-0.6-0.7l-0.2,0L31.9,5.9z"/>
	<path class="st10" d="M33.8,5.9c0.1-0.6,0.2-1,0.6-1.4S35.1,4,35.5,4s0.8,0.3,1,0.7s0.3,0.9,0.3,1.5c-0.1,0.6-0.2,1-0.6,1.4
		c-0.3,0.4-0.7,0.5-1.1,0.5s-0.8-0.3-1-0.7C33.8,6.9,33.8,6.4,33.8,5.9z M34.3,5.9c0,0.4,0,0.7,0.2,1c0.2,0.3,0.4,0.5,0.6,0.5
		c0.3,0,0.5-0.1,0.7-0.3c0.2-0.3,0.3-0.6,0.4-1c0-0.4,0-0.7-0.2-1s-0.4-0.4-0.7-0.5c-0.3,0-0.5,0.1-0.7,0.3S34.4,5.5,34.3,5.9z"/>
	<path class="st10" d="M37.5,8.3L37,8.2l0.8-3.7l0.8,0.2c0.7,0.2,0.9,0.6,0.8,1.4c-0.2,0.8-0.6,1.1-1.2,1l-0.4-0.1L37.5,8.3z
		 M37.9,6.4l0.2,0.1c0.4,0.1,0.6-0.1,0.7-0.6c0.1-0.4,0-0.7-0.4-0.8l-0.2-0.1L37.9,6.4z"/>
	<path class="st10" d="M40.6,5.7l-0.3,0.9l1,0.3l-0.2,0.5l-1-0.3l-0.4,1.1l1,0.3l-0.2,0.5l-1.5-0.5l1.2-3.6l1.5,0.5l-0.2,0.5
		L40.6,5.7z"/>
	<path class="st10" d="M42.9,10.1l-0.6-0.2L42.2,8l-0.7,1.6l-0.5-0.2l1.5-3.5l0.7,0.3c0.6,0.3,0.8,0.7,0.5,1.5
		c-0.1,0.3-0.3,0.5-0.4,0.6S43,8.4,42.8,8.3L42.9,10.1z M42.3,7.7l0.1,0.1c0.4,0.2,0.7,0,0.8-0.4C43.5,7,43.4,6.7,43,6.6l-0.1-0.1
		L42.3,7.7z"/>
	<path class="st10" d="M44,10.7l-0.4-0.2l1.5-2.9l-0.6-0.3l0.3-0.5l1.6,0.9l-0.3,0.5l-0.6-0.3L44,10.7z"/>
	<path class="st10" d="M46.8,7.9l0.5,0.3L47,9.7l1.3-0.8l0.5,0.3l-2,1.2l-1,1.4l-0.4-0.3l1-1.4L46.8,7.9z"/>
	<path class="st10" d="M51.7,13c0.1-0.3,0-0.6-0.2-0.7c-0.2-0.2-0.5-0.2-0.8-0.2c-0.3,0.1-0.6,0.3-0.9,0.5c-0.2,0.3-0.4,0.6-0.5,0.9
		c-0.1,0.3,0,0.6,0.2,0.8c0.2,0.2,0.4,0.2,0.8,0.2L49.8,15c-0.3-0.1-0.5-0.2-0.6-0.3c-0.3-0.3-0.4-0.7-0.4-1.1
		c0.1-0.5,0.3-0.9,0.7-1.3c0.4-0.4,0.8-0.7,1.3-0.7s0.9,0,1.2,0.3c0.2,0.2,0.3,0.4,0.3,0.6L51.7,13z"/>
	<path class="st10" d="M51.5,14.1c0.4-0.4,0.9-0.5,1.4-0.6c0.5,0,0.9,0.1,1.1,0.5c0.3,0.3,0.3,0.7,0.2,1.2c-0.1,0.5-0.4,0.9-0.8,1.2
		S52.5,17,52,17c-0.5,0-0.9-0.1-1.1-0.5c-0.3-0.3-0.3-0.7-0.2-1.2C50.8,14.9,51.1,14.5,51.5,14.1z M51.9,14.5
		c-0.3,0.2-0.5,0.5-0.6,0.8c-0.1,0.3-0.1,0.6,0.1,0.8c0.2,0.2,0.4,0.3,0.8,0.3s0.6-0.2,0.9-0.4c0.3-0.2,0.5-0.5,0.6-0.8
		c0.1-0.3,0-0.6-0.1-0.8s-0.4-0.3-0.7-0.3C52.5,14.1,52.2,14.3,51.9,14.5z"/>
	<path class="st10" d="M55.4,16l0.3,0.4l-1.8,1.1c-0.7,0.4-0.9,0.8-0.7,1.2c0.2,0.3,0.7,0.3,1.4-0.1l1.8-1.1l0.3,0.4l-1.9,1.2
		c-0.9,0.6-1.6,0.6-2-0.1c-0.4-0.6-0.1-1.2,0.8-1.8L55.4,16z"/>
	<path class="st10" d="M54.4,22.2l-0.3-0.6l1.2-1.5l-1.5,0.7l-0.2-0.5l3.4-1.7l0.3,0.7c0.3,0.6,0.1,1.1-0.6,1.4
		C56.5,20.9,56.2,21,56,21c-0.2,0-0.4-0.1-0.5-0.3L54.4,22.2z M55.6,20l0.1,0.1c0.2,0.4,0.5,0.5,0.9,0.3c0.4-0.2,0.5-0.5,0.3-0.8
		l-0.1-0.1L55.6,20z"/>
	<path class="st10" d="M54.9,23.3l-0.2-0.4l3.1-1.2l-0.2-0.6l0.5-0.2l0.6,1.7l-0.5,0.2l-0.2-0.6L54.9,23.3z"/>
</g>
<path class="st9" d="M3,42.1"/>
<g>
	
		<image style="overflow:visible;opacity:0.18;" width="173" height="24" xlink:href="E6CCB9233CD4DB63.png"  transform="matrix(1 0 0 1 70 39.6514)">
	</image>
	<g>
		<g>
			<path class="st3" d="M74.8,43.9h1.6v8.6h-1.6V43.9z"/>
			<path class="st3" d="M78.5,46.2h1.6v0.7c0.4-0.3,0.7-0.5,1-0.6c0.3-0.1,0.6-0.2,0.9-0.2c0.6,0,1.2,0.2,1.6,0.7
				c0.4,0.4,0.6,0.9,0.6,1.7v4.2h-1.6v-2.8c0-0.8,0-1.3-0.1-1.5c-0.1-0.2-0.2-0.4-0.4-0.6s-0.4-0.2-0.6-0.2c-0.3,0-0.6,0.1-0.8,0.3
				c-0.2,0.2-0.4,0.5-0.5,0.9c0,0.2-0.1,0.6-0.1,1.3v2.6h-1.6V46.2z"/>
			<path class="st3" d="M86.2,43.8h1.6v2.3h0.9v1.4h-0.9v5h-1.6v-5h-0.8v-1.4h0.8V43.8z"/>
			<path class="st3" d="M96.4,49.8h-5.1c0.1,0.5,0.3,0.8,0.6,1.1s0.7,0.4,1.2,0.4c0.6,0,1.1-0.2,1.5-0.6l1.3,0.6
				c-0.3,0.5-0.7,0.8-1.2,1.1s-1,0.3-1.7,0.3c-1,0-1.8-0.3-2.4-0.9s-0.9-1.4-0.9-2.4c0-1,0.3-1.8,0.9-2.4s1.4-1,2.4-1
				c1,0,1.8,0.3,2.4,1s0.9,1.5,0.9,2.5L96.4,49.8z M94.8,48.6c-0.1-0.4-0.3-0.6-0.6-0.9s-0.7-0.3-1.1-0.3c-0.4,0-0.8,0.1-1.2,0.4
				c-0.2,0.2-0.4,0.4-0.6,0.8H94.8z"/>
			<path class="st3" d="M97.8,43.7h1.6v8.8h-1.6V43.7z"/>
			<path class="st3" d="M101.1,43.7h1.6v8.8h-1.6V43.7z"/>
			<path class="st3" d="M110.9,49.8h-5.1c0.1,0.5,0.3,0.8,0.6,1.1s0.7,0.4,1.2,0.4c0.6,0,1.1-0.2,1.5-0.6l1.3,0.6
				c-0.3,0.5-0.7,0.8-1.2,1.1s-1,0.3-1.7,0.3c-1,0-1.8-0.3-2.4-0.9s-0.9-1.4-0.9-2.4c0-1,0.3-1.8,0.9-2.4s1.4-1,2.4-1
				c1,0,1.8,0.3,2.4,1s0.9,1.5,0.9,2.5L110.9,49.8z M109.3,48.6c-0.1-0.4-0.3-0.6-0.6-0.9s-0.7-0.3-1.1-0.3c-0.4,0-0.8,0.1-1.2,0.4
				c-0.2,0.2-0.4,0.4-0.6,0.8H109.3z"/>
			<path class="st3" d="M118.7,47.5l-1.3,0.7c-0.3-0.3-0.5-0.4-0.7-0.5s-0.5-0.2-0.9-0.2c-0.6,0-1.1,0.2-1.5,0.5
				c-0.4,0.4-0.6,0.8-0.6,1.4c0,0.5,0.2,1,0.5,1.3c0.4,0.3,0.8,0.5,1.4,0.5c0.7,0,1.3-0.2,1.7-0.7l1.3,0.9c-0.7,0.9-1.6,1.3-2.9,1.3
				c-1.1,0-2-0.3-2.6-1s-1-1.4-1-2.3c0-0.6,0.2-1.2,0.5-1.7s0.7-0.9,1.3-1.2s1.2-0.4,1.9-0.4c0.6,0,1.2,0.1,1.7,0.4
				S118.4,47,118.7,47.5z"/>
			<path class="st3" d="M120.7,43.8h1.6v2.3h0.9v1.4h-0.9v5h-1.6v-5h-0.8v-1.4h0.8V43.8z"/>
			<path class="st3" d="M124.5,46.2h1.6v3.1c0,0.6,0,1,0.1,1.2c0.1,0.2,0.2,0.4,0.4,0.5c0.2,0.1,0.4,0.2,0.7,0.2s0.5-0.1,0.7-0.2
				s0.3-0.3,0.4-0.6c0.1-0.2,0.1-0.6,0.1-1.2v-3.1h1.6v2.7c0,1.1-0.1,1.9-0.3,2.3c-0.2,0.5-0.5,0.9-0.9,1.2s-0.9,0.4-1.6,0.4
				c-0.7,0-1.3-0.2-1.7-0.5s-0.7-0.7-0.9-1.3c-0.1-0.4-0.2-1.1-0.2-2.1V46.2z"/>
			<path class="st3" d="M136.7,46.2h1.6v6.4h-1.6v-0.7c-0.3,0.3-0.6,0.5-0.9,0.6s-0.7,0.2-1,0.2c-0.8,0-1.5-0.3-2.1-1
				c-0.6-0.6-0.9-1.4-0.9-2.4c0-1,0.3-1.8,0.9-2.4s1.3-0.9,2.1-0.9c0.4,0,0.7,0.1,1.1,0.2s0.6,0.4,0.9,0.7V46.2z M135,47.5
				c-0.5,0-0.9,0.2-1.2,0.5c-0.3,0.3-0.5,0.8-0.5,1.3c0,0.6,0.2,1,0.5,1.4c0.3,0.4,0.7,0.5,1.2,0.5c0.5,0,0.9-0.2,1.2-0.5
				c0.3-0.3,0.5-0.8,0.5-1.4c0-0.6-0.2-1-0.5-1.3C136,47.7,135.5,47.5,135,47.5z"/>
			<path class="st3" d="M140.1,43.7h1.6v8.8h-1.6V43.7z"/>
			<path class="st3" d="M147.4,43.9h1.7c0.9,0,1.6,0.1,2,0.3s0.7,0.5,1,0.8s0.4,0.9,0.4,1.4c0,0.6-0.2,1.1-0.5,1.5s-0.7,0.7-1.3,0.8
				c-0.3,0.1-0.9,0.1-1.7,0.1v3.7h-1.6V43.9z M149,47.3h0.5c0.4,0,0.7,0,0.9-0.1s0.3-0.2,0.4-0.3c0.1-0.1,0.1-0.3,0.1-0.5
				c0-0.3-0.1-0.6-0.4-0.7c-0.2-0.1-0.5-0.2-1-0.2H149V47.3z"/>
			<path class="st3" d="M153.9,46.2h1.4V47c0.1-0.3,0.3-0.6,0.6-0.7s0.5-0.2,0.8-0.2c0.2,0,0.4,0.1,0.7,0.2l-0.5,1.4
				c-0.2-0.1-0.3-0.1-0.5-0.1c-0.2,0-0.5,0.2-0.6,0.5s-0.3,0.9-0.3,1.8l0,0.3v2.6h-1.6V46.2z"/>
			<path class="st3" d="M161.5,46c0.6,0,1.2,0.2,1.7,0.5s0.9,0.7,1.2,1.2s0.4,1.1,0.4,1.7c0,0.6-0.1,1.2-0.4,1.7s-0.7,0.9-1.2,1.2
				s-1.1,0.4-1.7,0.4c-0.9,0-1.7-0.3-2.3-1s-1-1.4-1-2.4c0-1,0.4-1.8,1.1-2.5C159.9,46.3,160.6,46,161.5,46z M161.5,47.5
				c-0.5,0-0.9,0.2-1.2,0.5c-0.3,0.3-0.5,0.8-0.5,1.3c0,0.6,0.2,1,0.5,1.3c0.3,0.3,0.7,0.5,1.2,0.5s0.9-0.2,1.2-0.5
				c0.3-0.3,0.5-0.8,0.5-1.3s-0.2-1-0.5-1.3C162.4,47.7,162,47.5,161.5,47.5z"/>
			<path class="st3" d="M168.1,46.2v0.7c0.3-0.3,0.6-0.5,0.9-0.7s0.7-0.2,1.1-0.2c0.8,0,1.5,0.3,2.1,0.9s0.9,1.4,0.9,2.4
				c0,0.9-0.3,1.7-0.9,2.4s-1.3,1-2.1,1c-0.4,0-0.7-0.1-1-0.2s-0.6-0.3-0.9-0.6v3h-1.6v-8.7H168.1z M169.8,47.5
				c-0.5,0-0.9,0.2-1.3,0.5s-0.5,0.8-0.5,1.3c0,0.6,0.2,1,0.5,1.4s0.8,0.5,1.3,0.5c0.5,0,0.9-0.2,1.2-0.5s0.5-0.8,0.5-1.4
				c0-0.5-0.2-1-0.5-1.3S170.3,47.5,169.8,47.5z"/>
			<path class="st3" d="M181.2,49.8H176c0.1,0.5,0.3,0.8,0.6,1.1s0.7,0.4,1.2,0.4c0.6,0,1.1-0.2,1.5-0.6l1.3,0.6
				c-0.3,0.5-0.7,0.8-1.2,1.1s-1,0.3-1.7,0.3c-1,0-1.8-0.3-2.4-0.9s-0.9-1.4-0.9-2.4c0-1,0.3-1.8,0.9-2.4s1.4-1,2.4-1
				c1,0,1.8,0.3,2.4,1s0.9,1.5,0.9,2.5L181.2,49.8z M179.6,48.6c-0.1-0.4-0.3-0.6-0.6-0.9c-0.3-0.2-0.7-0.3-1.1-0.3
				c-0.4,0-0.8,0.1-1.2,0.4c-0.2,0.2-0.4,0.4-0.6,0.8H179.6z"/>
			<path class="st3" d="M182.4,46.2h1.4V47c0.1-0.3,0.3-0.6,0.6-0.7s0.5-0.2,0.8-0.2c0.2,0,0.4,0.1,0.7,0.2l-0.5,1.4
				c-0.2-0.1-0.3-0.1-0.5-0.1c-0.2,0-0.5,0.2-0.6,0.5s-0.3,0.9-0.3,1.8l0,0.3v2.6h-1.6V46.2z"/>
			<path class="st3" d="M187.2,43.8h1.6v2.3h0.9v1.4h-0.9v5h-1.6v-5h-0.8v-1.4h0.8V43.8z"/>
			<path class="st3" d="M190.2,46.2h1.6l1.7,4l1.8-4h1.6l-4,8.7h-1.7l1.3-2.8L190.2,46.2z"/>
			<path class="st3" d="M210,45.4l-1.1,1.1c-0.8-0.8-1.7-1.2-2.6-1.2c-0.8,0-1.5,0.3-2.1,0.8c-0.6,0.6-0.8,1.3-0.8,2.1
				c0,0.6,0.1,1.1,0.4,1.5c0.2,0.4,0.6,0.8,1.1,1c0.5,0.3,1,0.4,1.5,0.4c0.5,0,0.9-0.1,1.3-0.3s0.8-0.5,1.3-1l1.1,1.2
				c-0.6,0.6-1.2,1.1-1.8,1.3s-1.2,0.4-1.9,0.4c-1.3,0-2.4-0.4-3.3-1.3s-1.3-1.9-1.3-3.3c0-0.9,0.2-1.6,0.6-2.3s0.9-1.2,1.7-1.6
				s1.5-0.6,2.3-0.6c0.7,0,1.4,0.2,2.1,0.5C209,44.5,209.6,44.9,210,45.4z"/>
			<path class="st3" d="M214.6,46c0.6,0,1.2,0.2,1.7,0.5s0.9,0.7,1.2,1.2s0.4,1.1,0.4,1.7c0,0.6-0.1,1.2-0.4,1.7s-0.7,0.9-1.2,1.2
				s-1.1,0.4-1.7,0.4c-0.9,0-1.7-0.3-2.3-1s-1-1.4-1-2.4c0-1,0.4-1.8,1.1-2.5C213.1,46.3,213.8,46,214.6,46z M214.7,47.5
				c-0.5,0-0.9,0.2-1.2,0.5c-0.3,0.3-0.5,0.8-0.5,1.3c0,0.6,0.2,1,0.5,1.3c0.3,0.3,0.7,0.5,1.2,0.5s0.9-0.2,1.2-0.5
				c0.3-0.3,0.5-0.8,0.5-1.3s-0.2-1-0.5-1.3C215.6,47.7,215.2,47.5,214.7,47.5z"/>
			<path class="st3" d="M219.7,46.2h1.6v3.1c0,0.6,0,1,0.1,1.2s0.2,0.4,0.4,0.5c0.2,0.1,0.4,0.2,0.7,0.2s0.5-0.1,0.7-0.2
				c0.2-0.1,0.3-0.3,0.4-0.6c0.1-0.2,0.1-0.6,0.1-1.2v-3.1h1.6v2.7c0,1.1-0.1,1.9-0.3,2.3c-0.2,0.5-0.5,0.9-0.9,1.2
				s-0.9,0.4-1.6,0.4c-0.7,0-1.3-0.2-1.7-0.5s-0.7-0.7-0.9-1.3c-0.1-0.4-0.2-1.1-0.2-2.1V46.2z"/>
			<path class="st3" d="M226.9,46.2h1.4V47c0.1-0.3,0.3-0.6,0.6-0.7s0.5-0.2,0.8-0.2c0.2,0,0.4,0.1,0.7,0.2l-0.5,1.4
				c-0.2-0.1-0.3-0.1-0.5-0.1c-0.2,0-0.5,0.2-0.6,0.5s-0.3,0.9-0.3,1.8l0,0.3v2.6h-1.6V46.2z"/>
			<path class="st3" d="M231.6,43.8h1.6v2.3h0.9v1.4h-0.9v5h-1.6v-5h-0.8v-1.4h0.8V43.8z"/>
		</g>
	</g>
</g>
</svg>
