<?xml version="1.0" encoding="utf-8"?>
<!-- Generator: Adobe Illustrator 24.0.2, SVG Export Plug-In . SVG Version: 6.00 Build 0)  -->
<svg version="1.1" id="圖層_1" xmlns="http://www.w3.org/2000/svg" xmlns:xlink="http://www.w3.org/1999/xlink" x="0px" y="0px"
	 viewBox="0 0 270.8 64" style="enable-background:new 0 0 270.8 64;" xml:space="preserve">
<style type="text/css">
	.st0{display:none;fill:#333333;}
	.st1{font-family:'creamfont-2.0-Regular-B5pc-H';}
	.st2{font-size:25px;}
	.st3{fill:#333333;}
	.st4{fill:#FFFFFF;}
	.st5{fill:url(#SVGID_1_);}
	.st6{fill:#005BAB;}
	.st7{fill:none;stroke:#FFFFFF;stroke-width:0.25;stroke-miterlimit:10;}
	.st8{fill:#B7A246;}
</style>
<text transform="matrix(1 0 0 1 69.2417 33.9961)" class="st0 st1 st2">智慧財產法院</text>
<g>
	<path class="st3" d="M76.6,15.8c0.7,0.2,1.3,0.4,2,0.6c0.6,0.2,0.9,0.4,0.9,0.6s-0.2,0.3-0.5,0.4c-0.3,0-0.5,0.1-0.6,0.2
		c-0.1,0.3-0.3,0.5-0.5,0.7h3.2c0,0,0.2-0.2,0.5-0.5c0.4-0.5,0.7-0.7,0.8-0.7c0.1,0,0.5,0.3,1.1,0.8c0.4,0.3,0.6,0.6,0.6,0.6
		c0,0.2-0.1,0.3-0.3,0.3h-3c-0.1,1-0.2,1.8-0.4,2.5h0.9c0.1,0,0.3-0.3,0.7-0.7c0.5-0.6,0.8-0.8,0.8-0.8c0.2,0,0.6,0.3,1.1,0.8
		c0.5,0.5,0.8,0.9,0.8,1c0,0.2-0.1,0.3-0.3,0.3h-4.1c-0.1,0.2-0.1,0.3-0.1,0.4c-0.1,0.2-0.1,0.3-0.2,0.4c1.5,0.2,2.5,0.5,3.1,0.8
		c0.6,0.3,0.9,0.7,0.9,1.1c0,0.4-0.1,0.7-0.4,1c-0.2,0.2-0.5,0.3-0.8,0.3c-0.5,0-0.8-0.3-1.1-0.8c-0.4-0.7-1-1.3-1.8-2
		c-0.2,0.4-0.4,0.8-0.7,1.1c-0.5,0.6-1,1.1-1.7,1.5c-0.9,0.6-2,1.1-3.1,1.5l-0.2-0.5c0.6-0.3,1.2-0.7,1.8-1.2
		c0.6-0.5,1.1-1.1,1.5-1.8c0.3-0.6,0.6-1.2,0.8-1.8H77c-1.2,0-2,0-2.5,0.1l-0.3-0.8c0.7,0.1,1.6,0.2,2.9,0.2h1.3
		c0.2-0.7,0.3-1.5,0.3-2.5h-1c-0.2,0.2-0.3,0.4-0.5,0.5c-0.5,0.5-1.1,1-1.9,1.5l-0.2-0.3c0.5-0.8,0.8-1.5,1.1-2.2
		C76.2,17.7,76.4,16.8,76.6,15.8z M77.8,25.9c1,0.2,1.9,0.5,2.7,0.9h7.4c0.2-0.3,0.4-0.5,0.6-0.7c0.3-0.4,0.5-0.5,0.7-0.5
		c0.2,0,0.7,0.2,1.3,0.7c0.7,0.6,1.1,1,1.1,1.2c0,0.2-0.2,0.4-0.5,0.6c-0.3,0.2-0.4,0.5-0.4,0.7v1.5l0.1,4.2c0,0.3-0.4,0.5-1.2,0.6
		c-0.3,0-0.6,0.1-0.7,0.1c-0.4,0-0.6-0.2-0.6-0.7v-0.7h-8.1v0.7c0,0.3-0.3,0.5-1,0.6c-0.3,0-0.5,0.1-0.7,0.1c-0.5,0-0.7-0.2-0.7-0.7
		c0.1-1.6,0.2-3,0.2-4.2v-0.5C78,28.6,77.9,27.4,77.8,25.9z M80.3,29.8h8.1v-2.5h-8.1V29.8z M80.3,33.1h8.1v-2.6h-8.1V33.1z
		 M85,16.9c0.9,0.3,1.8,0.6,2.6,1h1.5c0.3-0.4,0.6-0.7,0.9-0.9c0.2-0.2,0.4-0.3,0.6-0.3c0.2,0,0.6,0.2,1.2,0.6
		c0.8,0.5,1.2,0.8,1.2,1c0,0.2-0.2,0.4-0.5,0.6c-0.2,0.2-0.3,0.4-0.3,0.6v3c0,0.7,0,1.5,0.1,2.6c0,0.3-0.3,0.5-1,0.6
		c-0.3,0-0.5,0.1-0.7,0.1c-0.4,0-0.6-0.2-0.6-0.7v-1h-2.7v1.3c0,0.3-0.3,0.5-1,0.6c-0.3,0-0.5,0.1-0.7,0.1c-0.4,0-0.7-0.2-0.7-0.6
		c0.1-0.7,0.1-1.4,0.1-2.2v-3.2C85.2,18.9,85.1,17.9,85,16.9z M87.4,23.4h2.7v-5h-2.7V23.4z"/>
	<path class="st3" d="M98.4,30l0.4,0.1c0,1.4-0.1,2.3-0.2,2.9c-0.2,0.5-0.5,0.9-0.9,1.2c-0.3,0.1-0.5,0.2-0.8,0.2
		c-0.4,0-0.8-0.1-1.1-0.4c-0.3-0.2-0.4-0.5-0.4-0.9c0-0.2,0.3-0.4,0.8-0.7c0.6-0.3,1.1-0.6,1.4-0.9C97.9,31.1,98.1,30.6,98.4,30z
		 M104.9,17.7c0.7,0.1,1.6,0.2,2.9,0.2v-0.2c0-0.7-0.1-1.3-0.2-1.8c0.6,0.1,1.4,0.2,2.2,0.3c0.8,0.1,1.2,0.2,1.2,0.4
		c0,0.2-0.2,0.4-0.6,0.5c-0.3,0.1-0.4,0.3-0.4,0.5v0.2h0.7c0,0,0.2-0.2,0.5-0.6c0.4-0.5,0.6-0.7,0.7-0.7c0.2,0,0.5,0.2,1,0.7
		c0.5,0.5,0.7,0.8,0.7,0.9c0,0.2-0.1,0.3-0.3,0.3H110v1.4h0.5c0.1,0,0.2-0.2,0.5-0.6c0.4-0.4,0.6-0.6,0.7-0.6c0.2,0,0.5,0.2,0.9,0.6
		c0.4,0.4,0.6,0.7,0.6,0.8c0,0.2-0.1,0.3-0.2,0.3H110V22h1.2c0,0,0.2-0.2,0.6-0.6c0.4-0.5,0.6-0.7,0.7-0.7c0.2,0,0.5,0.2,1,0.7
		c0.5,0.5,0.7,0.8,0.7,0.9c0,0.2-0.1,0.3-0.3,0.3H110v0.6c0,0.1-0.1,0.2-0.2,0.3c0.2,0.1,0.6,0.3,0.9,0.6c0.6,0.5,1,0.8,1,1
		c0,0.2-0.1,0.4-0.4,0.5c-0.3,0.2-0.4,0.4-0.4,0.6v0.1h0.5c0.1,0,0.3-0.3,0.6-0.7c0.5-0.6,0.7-0.8,0.8-0.8c0.2,0,0.6,0.3,1.1,0.8
		c0.5,0.5,0.7,0.9,0.7,1c0,0.2-0.1,0.3-0.3,0.3h-3.4c0,0.8,0,1.3,0.1,1.6V29c0,0.3-0.3,0.5-1,0.6c-0.3,0.1-0.6,0.1-0.7,0.1
		c-0.4,0-0.6-0.2-0.6-0.7v-0.1h-8.3c-1,0-1.8,0-2.4,0.1l-0.3-0.8c0.7,0.1,1.6,0.2,2.7,0.2h8.3V27H98.5c-1.2,0-2.1,0-2.5,0.1
		l-0.3-0.8c0.7,0.1,1.6,0.1,2.9,0.1h10.1V25h-7.5c-1.5,0-2.5,0-3.1,0.1l-0.3-0.8c0.9,0.1,2,0.2,3.4,0.2h7.1c0.2-0.2,0.5-0.4,0.7-0.6
		l0,0c-0.3,0-0.5,0.1-0.6,0.1c-0.4,0-0.7-0.1-0.7-0.4c0.1-0.4,0.1-0.7,0.1-0.8v-0.1H107c-1.2,0-2.1,0-2.5,0.1l-0.3-0.8
		c0.7,0.1,1.6,0.1,2.9,0.1h0.7v-1.6c-1.2,0-2,0-2.4,0.1l-0.3-0.8c0.7,0.1,1.6,0.2,2.8,0.2v-1.4c-1.2,0-2,0-2.5,0.1L104.9,17.7z
		 M95.9,17.7c0.7,0.1,1.6,0.2,2.9,0.2h0.6c0-0.7-0.1-1.4-0.1-2c0.6,0.1,1.4,0.2,2.4,0.3c0.7,0.1,1,0.2,1,0.4c0,0.2-0.2,0.4-0.6,0.5
		c-0.3,0.1-0.5,0.2-0.5,0.5v0.2h0.4c0,0,0.2-0.2,0.5-0.5c0.4-0.4,0.6-0.6,0.6-0.6c0.2,0,0.5,0.2,0.9,0.6c0.4,0.4,0.6,0.7,0.6,0.8
		c0,0.2-0.1,0.3-0.2,0.3h-2.8v1.4h0.3c0,0,0.2-0.2,0.5-0.5c0.3-0.4,0.5-0.6,0.6-0.6c0.2,0,0.4,0.2,0.8,0.6c0.4,0.4,0.6,0.6,0.6,0.7
		c0,0.2-0.1,0.3-0.2,0.3h-2.5v0.9c1-0.1,2-0.2,2.9-0.3l0.1,0.1c-1,0.5-2,0.8-3,1.2v1.1c0,0.3-0.3,0.5-1,0.6c-0.3,0-0.5,0.1-0.6,0.1
		c-0.5,0-0.7-0.2-0.7-0.6c0-0.2,0-0.3,0-0.5c-0.5,0.1-1,0.2-1.6,0.3c-0.2,0-0.4,0.1-0.4,0.2c0,0-0.1,0.1-0.1,0.2
		c0,0.1-0.1,0.2-0.2,0.2c-0.2,0-0.5-0.4-0.7-1.1c-0.1-0.2-0.2-0.5-0.4-1c1.2-0.1,2.3-0.1,3.4-0.2c0-0.4,0-0.8,0-1.1
		c-1.1,0-1.9,0-2.4,0.1l-0.3-0.8c0.6,0.1,1.5,0.2,2.7,0.2v-0.4c0-0.3,0-0.7,0-1h-0.7c-1.2,0-2,0-2.5,0.1L95.9,17.7z M100,29.6
		c0.6,0.1,1.4,0.1,2.2,0.3c0.8,0.1,1.2,0.3,1.2,0.5c0,0.2-0.2,0.4-0.6,0.5c-0.3,0.1-0.4,0.3-0.4,0.5v0.7c0,0.4,0.2,0.6,0.5,0.7
		c0.6,0.1,1.5,0.1,2.7,0.1c0.8,0,1.4,0,1.9-0.1c0.4-0.1,0.6-0.1,0.8-0.3c0.1-0.1,0.2-0.3,0.4-0.6c0.2-0.4,0.4-0.9,0.6-1.5l0.4,0.1
		c0,0.7,0.1,1.1,0.1,1.3c0,0.5,0.2,0.8,0.5,0.9c0.5,0.2,0.7,0.5,0.7,0.6c0,0.4-0.3,0.6-0.8,0.9c-0.4,0.2-0.8,0.3-1.3,0.3
		c-0.8,0.1-1.8,0.2-3.1,0.2c-2,0-3.4-0.1-4-0.2c-0.5-0.1-0.9-0.3-1.1-0.7c-0.1-0.2-0.2-0.7-0.2-1.3v-0.7
		C100.2,31.1,100.1,30.3,100,29.6z M103.9,29.2c1.3,0.2,2.2,0.5,2.8,0.8c0.5,0.2,0.7,0.5,0.7,0.9c0,0.4-0.2,0.7-0.5,1
		c-0.2,0.2-0.5,0.4-0.8,0.4c-0.3,0-0.6-0.2-0.8-0.7c-0.3-0.7-0.8-1.3-1.5-2L103.9,29.2z M110.5,29.8c1.2,0.4,2.1,0.8,2.7,1.2
		c0.8,0.5,1.2,1,1.2,1.4c0,0.5-0.2,0.9-0.5,1.2c-0.2,0.2-0.5,0.3-0.8,0.3c-0.3,0-0.5-0.1-0.7-0.2c-0.2-0.1-0.4-0.5-0.5-1
		c-0.2-0.8-0.7-1.7-1.5-2.7L110.5,29.8z"/>
	<path class="st3" d="M118.4,30.1c0.7,0.2,1.3,0.4,1.8,0.6c0.7,0.2,1,0.3,1,0.5c0,0.2-0.2,0.3-0.6,0.3c-0.3,0-0.5,0.1-0.6,0.2
		c-0.4,0.7-0.9,1.3-1.4,1.7c-0.5,0.5-1.3,1.1-2.2,1.6l-0.2-0.3c0.4-0.5,0.8-1.1,1.2-2C117.9,32,118.2,31.1,118.4,30.1z M117.3,16.5
		c1,0.2,1.9,0.6,2.8,1h2.2c0.2-0.2,0.5-0.4,0.7-0.6c0.3-0.3,0.5-0.4,0.6-0.4c0.2,0,0.7,0.2,1.3,0.6c0.7,0.5,1.1,0.9,1.1,1.1
		c0,0.2-0.2,0.4-0.6,0.6c-0.3,0.3-0.4,0.5-0.4,0.7v5.7l0.1,4.2c0,0.3-0.4,0.5-1.2,0.6c-0.3,0-0.6,0-0.7,0c-0.4,0-0.6-0.2-0.6-0.7
		v-0.6h-2.9v0.5c0,0.3-0.3,0.5-1,0.6c-0.3,0-0.5,0.1-0.7,0.1c-0.5,0-0.7-0.2-0.7-0.7c0.1-1.5,0.2-2.8,0.2-3.9v-5.2
		C117.4,19.1,117.4,17.9,117.3,16.5z M119.7,20.9h2.9V18h-2.9V20.9z M119.7,24.6h2.9v-3.1h-2.9V24.6z M119.7,28.1h2.9v-3h-2.9V28.1z
		 M122.2,30.2c1.3,0.5,2.2,1,2.7,1.4c0.5,0.4,0.8,0.7,0.8,1c0,0.5-0.2,1-0.5,1.4c-0.3,0.4-0.6,0.5-0.9,0.5c-0.2,0-0.3-0.1-0.5-0.2
		c-0.1-0.1-0.3-0.5-0.4-1.2c-0.2-0.8-0.7-1.7-1.5-2.7L122.2,30.2z M125.1,21c0.7,0.1,1.6,0.1,2.9,0.1h2.2v-1.9
		c0-1.3-0.1-2.4-0.2-3.4c0.6,0.1,1.2,0.2,1.7,0.3c1.1,0.2,1.7,0.3,1.7,0.5c0,0.2-0.2,0.4-0.6,0.6c-0.2,0.1-0.4,0.2-0.4,0.5v3.1
		c0.1-0.2,0.3-0.3,0.4-0.5c0.5-0.6,0.8-0.9,0.8-0.9c0.2,0,0.6,0.3,1.2,0.9c0.5,0.6,0.8,0.9,0.8,1c0,0.2-0.1,0.3-0.3,0.3h-2.9V32
		c0,1.3-0.3,2.1-1,2.4c-0.8,0.4-1.4,0.6-1.8,0.6c-0.2,0-0.3-0.2-0.5-0.7c-0.2-0.7-1-1.4-2.6-1.9l0.1-0.4c0.9,0.1,1.7,0.2,2.3,0.2
		c0.4,0,0.7-0.1,0.9-0.2c0.2-0.1,0.2-0.3,0.2-0.6v-5.8c-0.1,0.3-0.3,0.5-0.4,0.7c-0.6,1-1.3,1.9-2.1,2.6c-0.8,0.8-1.7,1.4-2.6,1.9
		l-0.1-0.3c0.9-1,1.8-2.2,2.5-3.7c0.8-1.5,1.4-3.3,2-5.3h-1.4c-1.2,0-2,0-2.5,0.1L125.1,21z"/>
	<path class="st3" d="M145.3,15.8c0.9,0.1,1.8,0.2,2.6,0.3c0.5,0,0.8,0.2,0.8,0.4c0,0.1-0.2,0.2-0.5,0.4c-0.4,0.2-0.5,0.4-0.5,0.6
		v0.8h4.4c0,0,0.3-0.3,0.7-0.8c0.5-0.6,0.8-1,0.9-1c0.3,0,0.7,0.3,1.3,0.9s0.9,1,0.9,1.1c0,0.2-0.1,0.3-0.4,0.3h-3.6
		c0.2,0.1,0.3,0.2,0.5,0.2c0.8,0.4,1.2,0.7,1.2,0.8c0,0.2-0.2,0.2-0.6,0.2l-0.7-0.1c-0.7,0.4-1.4,0.7-2.1,1c0.9,0.3,1.4,0.6,1.7,0.8
		c0.2,0.2,0.3,0.4,0.3,0.7c0,0.3-0.1,0.6-0.2,0.8c-0.1,0.1-0.1,0.1-0.2,0.1h0.9c0,0,0.2-0.2,0.6-0.7c0.5-0.6,0.8-0.9,1-0.9
		c0.2,0,0.6,0.3,1.3,1c0.5,0.4,0.7,0.7,0.7,0.8c0,0.2-0.1,0.3-0.4,0.3h-14.9v2.3c0,1.5-0.1,2.7-0.3,3.8c-0.2,1-0.6,1.9-1.2,2.8
		c-0.5,0.7-1.2,1.3-2,2l-0.3-0.2c0.6-1.1,1-2.1,1.1-3.1c0.3-1.2,0.4-2.9,0.4-5.3c0-1.8-0.1-3.1-0.3-3.8c1.1,0.3,2.1,0.7,2.7,1h9.3
		c-0.2-0.1-0.4-0.2-0.7-0.4c-0.6-0.4-1.2-0.8-1.9-1.2c-0.1,0-0.2,0.1-0.2,0.1c-1.5,0.5-3.6,0.9-6.3,1.3l-0.1-0.3
		c2.1-0.7,3.7-1.3,5-1.8c-1-0.4-2.4-0.8-4.2-1.3l0.1-0.3c2.3,0.3,4.2,0.6,5.6,0.8c0.9-0.5,1.7-1,2.5-1.7h-9c-1.2,0-2.1,0-2.5,0.1
		l-0.3-0.8c0.7,0.1,1.6,0.2,2.9,0.2h4.3v-0.7C145.4,17,145.4,16.4,145.3,15.8z M143.2,24.9c0.7,0.2,1.3,0.4,2,0.6
		c0.6,0.2,0.9,0.4,0.9,0.6c0,0.2-0.2,0.3-0.5,0.3c-0.3,0.1-0.5,0.1-0.6,0.2c-0.2,0.4-0.4,0.8-0.6,1.1h2.8v-1.3
		c0-0.6-0.1-1.2-0.2-1.8c0.9,0.1,1.8,0.2,2.6,0.3c0.5,0,0.8,0.2,0.8,0.4c0,0.1-0.2,0.2-0.5,0.4c-0.3,0.2-0.5,0.4-0.5,0.6v1.3h1.7
		c0,0,0.2-0.2,0.6-0.7c0.5-0.6,0.8-0.9,1-0.9c0.1,0,0.6,0.3,1.3,1c0.5,0.4,0.7,0.7,0.7,0.8c0,0.2-0.1,0.3-0.4,0.3h-4.8v2.5h1.6
		c0,0,0.2-0.3,0.6-0.7c0.4-0.5,0.7-0.8,0.8-0.8c0.2,0,0.6,0.3,1,0.8c0.5,0.5,0.7,0.8,0.7,0.9c0,0.2-0.1,0.3-0.3,0.3h-4.4V34h2.6
		c0,0,0.3-0.3,0.7-0.8c0.5-0.6,0.8-1,0.9-1c0.3,0,0.7,0.3,1.3,0.9s0.9,1,0.9,1.1c0,0.2-0.1,0.3-0.4,0.3h-12.2c-1.2,0-2.1,0-2.5,0.1
		l-0.3-0.8c0.7,0.1,1.6,0.2,2.9,0.2h4v-2.6h-1.5c-1.2,0-2.1,0-2.5,0.1l-0.3-0.8c0.7,0.1,1.6,0.2,2.9,0.2h1.5v-2.5H144
		c-0.2,0.2-0.3,0.4-0.5,0.5c-0.5,0.6-1.2,1.2-2.1,1.8l-0.2-0.2c0.5-0.9,0.9-1.7,1.2-2.5C142.7,27,143,26,143.2,24.9z"/>
	<path class="st3" d="M162.5,18c-0.9,0-1.8,0-2.5,0l-0.3-0.8c4.2,0.1,7.8,0.2,10.5,0.2c0.3-0.2,0.5-0.5,0.8-0.7
		c0.3-0.3,0.6-0.5,0.8-0.5c0.3,0,0.7,0.2,1.3,0.7c0.7,0.5,1,0.9,1,1c0,0.2-0.2,0.5-0.6,0.7c-0.3,0.2-0.5,0.5-0.6,0.8l-1.4,3.5h1.4
		c0.2-0.2,0.4-0.5,0.6-0.7c0.4-0.3,0.6-0.4,0.8-0.4c0.3,0,0.7,0.3,1.4,0.8c0.7,0.7,1.1,1.1,1.1,1.3c0,0.2-0.3,0.4-0.8,0.6
		c-0.4,0.2-0.7,0.4-0.7,0.5c-0.9,1.9-1.9,3.5-3.1,4.7c-0.2,0.2-0.5,0.5-0.8,0.7c0.4,0.2,0.9,0.4,1.3,0.6c1.2,0.5,2.7,1,4.6,1.4
		l-0.1,0.5c-0.7,0.1-1.2,0.5-1.5,1.3c-0.2,0.5-0.4,0.8-0.5,0.8c-0.3,0-1-0.3-2.1-0.8c-1.1-0.6-2.3-1.4-3.5-2.4c0,0,0,0,0,0
		c-0.5,0.3-1,0.6-1.5,0.8c-2.2,1-4.4,1.8-6.6,2.3l-0.3-0.3c2.9-1.2,5.3-2.5,7.3-3.9c-0.6-0.8-1.1-1.6-1.5-2.4
		c-0.6-1.2-1.1-2.8-1.7-4.7h-0.5c0,0.7-0.1,1.4-0.2,2c-0.2,1.7-0.6,3.1-1.1,4.2c-0.4,1-1,1.9-1.7,2.7c-0.8,1-1.9,1.8-3.3,2.6
		l-0.2-0.3c0.8-0.8,1.4-1.6,2-2.5c0.5-0.9,1-1.9,1.3-3c0.3-1.1,0.6-2.3,0.7-3.5C162.5,24.1,162.5,21.6,162.5,18z M164.8,22.8h4.2
		l1.6-4.9c-2,0-3.9,0-5.6,0C164.9,19.8,164.9,21.4,164.8,22.8z M165.9,23.4c0.3,0.8,0.7,1.7,1.3,2.7c0.8,1.3,1.6,2.3,2.5,3.1
		c0.1,0,0.1,0.1,0.2,0.1c1.5-1.6,2.6-3.6,3.2-5.9H165.9z"/>
	<path class="st3" d="M187.6,15.9c0.9,0.1,1.8,0.2,2.6,0.3c0.5,0,0.8,0.2,0.8,0.4c0,0.1-0.2,0.2-0.5,0.3c-0.4,0.2-0.5,0.3-0.5,0.6
		v0.9h4.6c0.1,0,0.3-0.3,0.7-0.9c0.5-0.7,0.8-1,0.9-1c0.3,0,0.7,0.3,1.3,1c0.6,0.6,0.9,1,0.9,1.1c0,0.2-0.1,0.3-0.4,0.3h-5.8
		c0.2,0.1,0.5,0.1,0.7,0.2c0.6,0.2,0.9,0.3,0.9,0.5c0,0.2-0.2,0.3-0.5,0.4c-0.3,0-0.5,0.1-0.6,0.2c-0.2,0.5-0.5,1-0.9,1.4
		c-0.2,0.2-0.4,0.4-0.6,0.6h3.1c0.2-0.2,0.4-0.3,0.5-0.5c0.4-0.4,0.7-0.5,0.8-0.5c0.2,0,0.6,0.2,1.3,0.7c0.6,0.5,1,0.8,1,1
		c0,0.2-0.2,0.3-0.5,0.6c-0.4,0.3-0.6,0.5-0.6,0.8v8.5c0,0.7-0.4,1.3-1.2,1.6c-0.6,0.3-1.2,0.5-1.6,0.5c-0.2,0-0.3-0.3-0.4-0.8
		c-0.2-0.6-0.8-1.1-1.9-1.6l0-0.1c-0.3,0-0.5,0.1-0.6,0.1c-0.4,0-0.6-0.2-0.6-0.6v-0.3H187v0.8c0,0.3-0.3,0.5-0.9,0.6
		c-0.3,0-0.5,0.1-0.6,0.1c-0.5,0-0.7-0.2-0.7-0.7c0.1-0.7,0.1-1.3,0.1-2v-1c0-0.8,0-1.7-0.1-2.4c-0.3,0.1-0.7,0.2-1,0.3l-0.2-0.2
		c0.4-0.2,0.8-0.4,1.1-0.7c0.4-0.3,0.6-0.6,0.8-0.9c0.2-0.5,0.2-1,0.2-1.7v-0.9h-2.4v11.6c0,0.3-0.3,0.5-1,0.6
		c-0.3,0-0.5,0.1-0.6,0.1c-0.5,0-0.7-0.2-0.7-0.7c0.1-1.5,0.2-2.8,0.2-3.9V25c0-1-0.1-2.2-0.2-3.6c0.9,0.2,1.8,0.5,2.5,0.9h2.4
		c-0.1-0.2-0.2-0.6-0.4-1.1c-0.2-0.8-0.6-1.5-1-2.1l0-0.1h-2.2c-1.2,0-2,0-2.5,0.1l-0.3-0.8c0.7,0.1,1.6,0.2,2.9,0.2h5.5v-0.8
		C187.8,17,187.7,16.4,187.6,15.9z M187.2,27.6h2.7c0.3-0.3,0.6-0.5,0.8-0.8c0.2-0.2,0.4-0.3,0.6-0.3c0.2,0,0.5,0.2,1.2,0.6
		c0.7,0.5,1,0.8,1,1c0,0.2-0.1,0.4-0.4,0.6c-0.2,0.2-0.3,0.4-0.3,0.6v0.3c0,0.6,0,1.4,0.1,2.4c0,0.2-0.1,0.3-0.2,0.3
		c0.6,0.1,1.1,0.1,1.5,0.1c0.4,0,0.6-0.2,0.6-0.7v-5.6c-0.4,0.2-1.1,0.3-2,0.3h-1c-0.4,0-0.7,0-1-0.1c-0.6-0.1-0.9-0.4-0.9-1v-2.4
		h-2.1v0.9c0,0.7-0.2,1.3-0.5,1.8c-0.3,0.4-0.7,0.7-1.4,1c-0.2,0.1-0.4,0.2-0.6,0.3C185.9,27.1,186.6,27.3,187.2,27.6z M186.7,22.3
		h3.7c0.2-0.6,0.3-1.1,0.4-1.5c0.1-0.5,0.2-1.1,0.2-1.7h-5.2c0.2,0.1,0.4,0.2,0.5,0.3c0.4,0.3,0.7,0.5,0.9,0.8
		c0.2,0.2,0.2,0.5,0.2,0.8c0,0.4-0.2,0.8-0.5,1.1C186.9,22.1,186.8,22.2,186.7,22.3z M186.9,31.1h3.7v-3h-3.7V31.1z M191.5,22.9v1.3
		c0,0.4,0.1,0.6,0.3,0.6c0.2,0,0.5,0.1,0.8,0.1c0.3,0,0.5-0.1,0.6-0.2c0-0.2,0.1-0.6,0.2-1.4h0.3l0.1,1c0,0.2,0.2,0.4,0.6,0.5
		c0,0,0.1,0,0.1,0v-1.9H191.5z"/>
	<path class="st3" d="M205.6,21.4c1.1,0.2,1.8,0.4,2.3,0.6c0.4,0.2,0.5,0.4,0.5,0.7c0,0.4-0.2,0.7-0.5,1.1c-0.1,0.1-0.1,0.1-0.2,0.1
		h3.5c0.1-0.3,0.2-0.6,0.3-1c0.1-0.4,0.2-0.9,0.3-1.5c0.7,0.2,1.3,0.4,1.7,0.5c0.6,0.2,1,0.3,1,0.5c0,0.2-0.2,0.3-0.5,0.3
		c-0.3,0.1-0.5,0.1-0.5,0.2c-0.2,0.3-0.5,0.5-0.8,0.7c-0.1,0.1-0.3,0.2-0.4,0.2h2.3c0.1,0,0.3-0.3,0.7-0.8c0.5-0.6,0.8-0.9,0.9-0.9
		c0.3,0,0.7,0.3,1.2,0.9c0.6,0.6,0.8,0.9,0.8,1.1c0,0.2-0.1,0.3-0.4,0.3h-6.9v1.8h2.6c0,0,0.3-0.3,0.6-0.7c0.5-0.6,0.7-0.8,0.8-0.8
		c0.2,0,0.6,0.3,1.1,0.8c0.5,0.5,0.8,0.9,0.8,1c0,0.2-0.1,0.3-0.3,0.3h-5.6v1.8h4.8c0.1,0,0.3-0.3,0.7-0.8c0.5-0.6,0.8-1,0.9-1
		c0.3,0,0.7,0.3,1.3,0.9c0.6,0.6,0.9,1,0.9,1.1c0,0.2-0.1,0.3-0.4,0.3h-7.7c0.8,0.8,1.5,1.3,2.2,1.6c0.5,0.3,1.3,0.5,2.3,0.8
		c1.1,0.3,2.4,0.5,3.7,0.6l-0.3,0.5c-0.6,0.3-1,0.7-1.2,1.2c-0.1,0.5-0.2,0.7-0.3,0.7c-0.3,0-0.9-0.2-1.8-0.5
		c-0.9-0.3-1.7-0.7-2.4-1.2c-0.7-0.5-1.3-1-1.7-1.6c-0.3-0.4-0.6-0.9-0.9-1.4v4.4c0,0.3-0.4,0.5-1.1,0.6c-0.3,0-0.6,0.1-0.7,0.1
		c-0.5,0-0.7-0.2-0.7-0.7c0.1-0.8,0.2-1.9,0.2-3.5v-0.5c-0.6,0.5-1.1,0.9-1.6,1.3c-0.9,0.6-1.8,1.1-3,1.5c-1.1,0.4-2.3,0.8-3.7,1.1
		l-0.1-0.4c1.3-0.5,2.5-1.2,3.7-2c1.1-0.8,2-1.6,2.7-2.6h-3.1c-1.2,0-2.1,0-2.5,0.1l-0.3-0.8c0.7,0.1,1.6,0.2,2.9,0.2h5.1v-1.8h-3
		c-1.2,0-2.1,0-2.6,0.1l-0.3-0.8c0.7,0.1,1.6,0.2,2.9,0.2h3v-1.8h-4.2c-1.2,0-2.1,0-2.5,0.1l-0.3-0.8c0.7,0.1,1.6,0.2,2.9,0.2h2.3
		c-0.1-0.1-0.1-0.2-0.2-0.4c-0.2-0.6-0.5-1.2-1-1.8L205.6,21.4z M206.6,16c0.6,0.1,1.4,0.2,2.4,0.4c0.8,0.1,1.2,0.2,1.2,0.4
		c0,0.2-0.2,0.4-0.7,0.6c-0.3,0.1-0.5,0.3-0.5,0.5v2.7h1.4v-1.5c0-1.2-0.1-2.2-0.3-3.1c0.6,0.1,1.4,0.2,2.3,0.4
		c0.7,0.1,1.1,0.2,1.1,0.4c0,0.2-0.2,0.4-0.6,0.6c-0.3,0.1-0.4,0.2-0.4,0.5v2.8h0.7c0.9-1.3,1.5-2.7,2-4.2c0.7,0.2,1.4,0.5,2,0.7
		c0.6,0.2,0.9,0.5,0.9,0.8c0,0.2-0.2,0.2-0.5,0.3c-0.3,0-0.5,0.1-0.5,0.2c-0.9,0.8-2,1.6-3.2,2.3h2c0,0,0.3-0.3,0.7-0.8
		c0.5-0.6,0.8-1,0.9-1c0.3,0,0.7,0.3,1.3,0.9c0.6,0.6,0.9,1,0.9,1.1c0,0.2-0.1,0.3-0.4,0.3h-15.7c-1.2,0-2.1,0-2.5,0.1l-0.3-0.8
		c0.7,0.1,1.6,0.2,2.9,0.2h3.1v-1.3C206.7,18.1,206.7,17,206.6,16z M202.3,16.9c1.5,0.3,2.5,0.6,3.1,0.9c0.5,0.3,0.7,0.7,0.7,1.1
		c0,0.4-0.2,0.8-0.5,1.2c-0.2,0.2-0.6,0.4-0.9,0.4c-0.3,0-0.6-0.3-0.9-0.8c-0.3-0.8-0.9-1.5-1.7-2.3L202.3,16.9z"/>
	<path class="st3" d="M221.5,21.1c1.4,0.3,2.4,0.6,3,0.9c0.5,0.3,0.7,0.7,0.7,1.1c0,0.4-0.2,0.8-0.5,1.2c-0.2,0.2-0.6,0.4-0.9,0.4
		c-0.3,0-0.6-0.3-0.8-0.8c-0.3-0.8-0.9-1.6-1.6-2.4L221.5,21.1z M227.7,20.9l0.4,0.1c-0.9,2.5-1.5,4.4-2,5.8
		c-0.4,1.4-0.6,2.3-0.6,2.8c0,0.4,0,0.9,0.1,1.4c0.2,1,0.3,1.8,0.3,2.4c0,0.4-0.1,0.7-0.3,0.8c-0.2,0.2-0.5,0.3-0.9,0.3
		c-0.6,0-1-0.1-1.3-0.3c-0.2-0.2-0.3-0.4-0.3-0.8c0-0.3,0.1-0.8,0.2-1.5c0-0.5,0-0.9,0-1.1c0-0.5-0.1-0.9-0.2-1.1
		c-0.2-0.3-0.7-0.5-1.6-0.8l0.1-0.5c0.9,0,1.5-0.1,1.8-0.2c0.3-0.2,0.5-0.5,0.6-0.9L227.7,20.9z M223.3,16.2
		c1.5,0.3,2.5,0.6,3.1,0.9c0.5,0.3,0.7,0.7,0.7,1.1c0,0.4-0.2,0.8-0.5,1.2c-0.2,0.3-0.6,0.4-0.9,0.4c-0.3,0-0.6-0.3-0.9-0.9
		c-0.3-0.8-0.9-1.6-1.7-2.3L223.3,16.2z M228.2,20.2c0.7,0.1,1.6,0.1,2.9,0.1h0.9v-2.5c0-0.6,0-1.2-0.1-1.9c1,0.1,1.9,0.2,2.8,0.4
		c0.6,0,0.8,0.2,0.8,0.5c0,0.1-0.2,0.2-0.5,0.3c-0.4,0.2-0.5,0.3-0.5,0.6v2.7h1.1c0.1,0,0.3-0.3,0.7-0.9c0.5-0.7,0.8-1,0.9-1
		c0.3,0,0.7,0.3,1.3,0.9c0.6,0.6,0.9,1,0.9,1.2c0,0.2-0.1,0.3-0.4,0.3h-4.6v4.4h1.9c0.1,0,0.3-0.3,0.8-0.9c0.5-0.7,0.9-1,1-1
		c0.3,0,0.7,0.3,1.4,1c0.6,0.7,0.9,1.1,0.9,1.2c0,0.2-0.1,0.3-0.4,0.3h-6c-0.6,1.8-1.4,3.3-2.2,4.5c-0.3,0.4-0.6,0.7-0.8,1
		c2.2-0.1,4.3-0.1,6.2-0.2c-0.4-0.9-1.1-1.9-1.9-2.9l0.3-0.2c1.8,0.9,3.1,1.8,3.8,2.6c0.7,0.7,1.1,1.4,1.1,2c0,0.5-0.2,1-0.5,1.3
		c-0.3,0.4-0.6,0.6-0.9,0.6c-0.3,0-0.6-0.1-0.8-0.2c-0.2-0.2-0.4-0.8-0.7-1.8c0-0.2-0.1-0.4-0.2-0.5c-2.4,0.8-5,1.5-7.7,1.9
		c-0.3,0-0.5,0.1-0.5,0.2c0,0.1-0.1,0.2-0.1,0.3c-0.1,0.2-0.1,0.3-0.3,0.3c-0.3,0-0.7-0.5-1.1-1.6c-0.1-0.3-0.3-0.8-0.6-1.5
		c0.9,0,1.7,0,2.5,0c0.2-0.5,0.5-1.1,0.7-1.8c0.4-1.1,0.7-2.3,1-3.7h-1.4c-1.2,0-2.1,0-2.5,0.1l-0.3-0.8c0.7,0.1,1.6,0.2,2.9,0.2
		h2.2v-4.4H231c-1.2,0-2,0-2.5,0.1L228.2,20.2z"/>
	<path class="st3" d="M248.4,15.9c0.2,0,0.7,0.3,1.4,0.9c0.5,0.5,0.8,0.8,0.8,0.9c0,0.2-0.2,0.3-0.6,0.4c-0.5,0.1-0.7,0.2-0.8,0.4
		c-0.8,1.8-1.7,3.3-2.5,4.4c0.9,0.8,1.6,1.5,2,2.2c0.3,0.4,0.5,0.9,0.7,1.5c0.2,0.5,0.3,1.1,0.3,1.6c0,0.8-0.1,1.3-0.4,1.6
		c-0.3,0.5-0.6,0.8-1,1c-0.4,0.2-0.7,0.3-0.9,0.3c-0.2,0-0.3-0.2-0.4-0.7c-0.1-0.5-0.6-0.9-1.5-1.3v5.4c0,0.3-0.4,0.5-1.1,0.6
		c-0.3,0-0.5,0-0.7,0c-0.4,0-0.7-0.2-0.7-0.7c0.1-0.7,0.1-1.5,0.1-2.2V19.1c0-1.1-0.1-2.1-0.2-3.1c1,0.3,2,0.6,3,1.1h1
		c0.3-0.4,0.6-0.7,0.8-0.9C248,16,248.2,15.9,248.4,15.9z M245.5,17.7v10.8c0.5,0.1,0.9,0.1,1.2,0.1c0.3,0,0.5-0.1,0.7-0.2
		c0.1-0.2,0.2-0.6,0.2-1c0-0.9-0.1-1.7-0.3-2.2c-0.3-0.8-0.7-1.5-1.3-2.3c0.5-1.5,0.9-3.3,1.3-5.2H245.5z M249.4,25.6
		c0.7,0.1,1.6,0.2,2.9,0.2h5.8c0.1,0,0.3-0.3,0.7-0.8c0.5-0.6,0.8-0.9,0.9-0.9c0.2,0,0.6,0.3,1.2,0.9c0.6,0.6,0.9,1,0.9,1.1
		c0,0.2-0.1,0.3-0.4,0.3h-3.6V32c0,0.4,0.1,0.6,0.3,0.7c0.2,0,0.5,0.1,0.9,0.1c0.3,0,0.5-0.1,0.7-0.3c0.2-0.4,0.4-1.3,0.8-2.7
		l0.4,0.1l0.1,1.4c0,0.5,0.2,0.9,0.5,1.3c0.3,0.3,0.5,0.6,0.5,0.9c0,0.4-0.2,0.7-0.5,0.8c-0.5,0.3-1.3,0.5-2.5,0.5h-1.2
		c-0.4,0-0.8-0.1-1.2-0.2c-0.7-0.1-1.1-0.7-1.1-1.6v-6.5H254c-0.1,1.6-0.3,2.8-0.7,3.6c-0.3,0.7-0.7,1.4-1.1,2
		c-0.5,0.6-1.1,1.1-1.8,1.5c-0.9,0.6-2,1.1-3.1,1.5l-0.3-0.5c0.6-0.3,1.2-0.7,1.8-1.2c0.6-0.5,1.1-1.1,1.5-1.8
		c0.4-0.6,0.7-1.3,0.8-2c0.2-0.8,0.4-1.8,0.4-2.9c-0.9,0-1.5,0-1.9,0.1L249.4,25.6z M253.7,15.9c0.9,0.1,1.7,0.2,2.6,0.3
		c0.5,0,0.8,0.2,0.8,0.4c0,0.1-0.2,0.2-0.5,0.3c-0.3,0.2-0.5,0.3-0.5,0.6v1.4h2.1c0.3-0.3,0.5-0.5,0.7-0.7c0.3-0.3,0.5-0.5,0.6-0.5
		c0.2,0,0.7,0.3,1.4,0.9c0.7,0.5,1,0.9,1,1.2c0,0.2-0.2,0.3-0.5,0.3c-0.4,0-0.6,0-0.7,0.1c-0.6,0.4-1.3,0.8-2.2,1.3l0.1,0
		c0.5,0.5,0.8,0.9,0.8,1c0,0.2-0.1,0.3-0.3,0.3h-5.8c-1.2,0-2,0-2.5,0.1l-0.3-0.8c0.7,0.1,1.6,0.2,2.9,0.2h2.8c0,0,0.3-0.3,0.6-0.7
		c0.5-0.5,0.7-0.8,0.8-0.8c0.1,0,0.3,0.1,0.4,0.2c0.2-0.5,0.4-0.9,0.6-1.4h-7.1c0,0.5-0.1,0.9-0.1,1.2c-0.1,0.5-0.4,0.9-0.7,1.1
		c-0.2,0.1-0.4,0.2-0.6,0.2c-0.4,0-0.8-0.1-1-0.4c-0.2-0.2-0.4-0.5-0.4-0.9c0-0.2,0.2-0.4,0.7-0.7c0.5-0.3,0.9-0.6,1.1-0.9
		c0.3-0.3,0.5-0.8,0.7-1.4l0.4,0.1c0,0.4,0,0.8,0,1.1h2.4v-1.3C253.8,17,253.8,16.4,253.7,15.9z"/>
</g>
<g>
	<circle class="st4" cx="32.6" cy="31.4" r="30.3"/>
</g>
<linearGradient id="SVGID_1_" gradientUnits="userSpaceOnUse" x1="32.6453" y1="60.7748" x2="32.6453" y2="37.519">
	<stop  offset="0.6854" style="stop-color:#B7A246"/>
	<stop  offset="1" style="stop-color:#FFFFFF"/>
</linearGradient>
<path class="st5" d="M61.5,37.8c-3,13-14.9,23-28.8,23c-13.9,0-25.9-10.2-28.9-23.3h7.4c2.8,9,11.5,16.1,21.5,16.1
	c10,0,18.6-6.8,21.4-15.8H61.5z"/>
<g>
	<path class="st6" d="M53.6,31.3c0,11.6-9.4,21-21,21s-21-9.4-21-21c0-11.6,9.4-21,21-21S53.6,19.7,53.6,31.3z"/>
</g>
<g>
	<path class="st4" d="M34.3,33.8h-0.5H31V42c0,0.9,0.8,1.7,1.7,1.7c0.9,0,1.6-0.8,1.6-1.7L34.3,33.8z"/>
	<path class="st4" d="M35.6,44h-5.8c-0.4,0-0.8,0.3-0.8,0.6v0.8c0,0.4,0.3,0.7,0.8,0.7h5.8c0.4,0,0.8-0.3,0.8-0.7v-0.8
		C36.3,44.3,36,44,35.6,44z"/>
	<path class="st4" d="M36.7,46.9h-8c-0.6,0-1,0.3-1,0.7v0.8c0,0.4,0.4,0.7,1,0.7h8c0.6,0,1-0.3,1-0.7v-0.8
		C37.6,47.2,37.2,46.9,36.7,46.9z"/>
	<path class="st4" d="M48.9,23.3c0-0.3-0.2-0.5-0.4-0.6c-0.4-0.3-1-0.2-1.4,0.1c-1.1,1.1-2.7,1.7-4.4,1.7c-1.7,0-3.2-0.6-4.3-1.6
		c-1.5-1.3-3.5-2.1-5.7-2.1c-2.1,0-4.1,0.7-5.5,1.9l0,0l-0.2,0.2l0,0c-1.1,1.1-2.7,1.7-4.4,1.7c-1.7,0-3.3-0.6-4.4-1.7
		c-0.2-0.2-0.4-0.3-0.7-0.3c-0.2,0-0.5,0-0.7,0.2c-0.2,0.2-0.4,0.4-0.4,0.6l0,0v0.1c0,0.2,0.1,0.4,0.3,0.6c1.5,1.4,3.6,2.3,5.9,2.3
		c2.1,0,4-0.7,5.5-1.9l0,0c0,0,0,0,0,0c0,0,0.1-0.1,0.1-0.1c1.1-1.1,2.7-1.7,4.4-1.7c1.7,0,3.2,0.6,4.3,1.6c1.4,1.3,3.5,2.1,5.7,2.1
		c2.3,0,4.4-0.8,5.9-2.3C48.8,23.8,48.9,23.6,48.9,23.3C48.9,23.3,48.9,23.3,48.9,23.3z M48.9,23.3C48.9,23.3,48.9,23.3,48.9,23.3
		C48.9,23.3,48.9,23.3,48.9,23.3L48.9,23.3z"/>
	<path class="st4" d="M36.1,17c0,1.9-1.5,3.5-3.5,3.5c-1.9,0-3.4-1.5-3.4-3.5c0-1.9,1.5-3.5,3.4-3.5C34.6,13.6,36.1,15.1,36.1,17z"
		/>
	<path class="st4" d="M27.6,38.4l-5.3-12C22.2,26.2,22,26,21.7,26c-0.2,0-0.4,0.1-0.5,0.4v0l-5.3,12c-0.1,0.2-0.1,0.4,0,0.6
		c1,1.9,3.3,3.2,5.8,3.2c2.5,0,4.8-1.2,5.8-3.2C27.6,38.8,27.7,38.6,27.6,38.4z M21.7,28.1c0.3,0.7,4.3,9.8,4.6,10.4h-9.2
		c0.2-0.5,3.1-7,3.1-7S21.5,28.8,21.7,28.1z"/>
	<path class="st4" d="M49.5,38.4l-5.3-12c-0.1-0.2-0.3-0.3-0.5-0.3c-0.2,0-0.4,0.1-0.5,0.4v0l-5.3,12c-0.1,0.2-0.1,0.4,0,0.6
		c1,1.9,3.3,3.2,5.8,3.2c2.5,0,4.8-1.2,5.8-3.2C49.6,38.8,49.6,38.6,49.5,38.4z M43.7,28.1c0.3,0.7,4.3,9.8,4.6,10.4h-9.2
		c0.2-0.4,2-4.5,2-4.5S43.4,28.8,43.7,28.1z"/>
	<path class="st4" d="M38.3,25.4c-1,0-0.9,0.9-0.9,0.9h-1.2v-0.5h-7v0.5H28c0,0,0.1-0.9-0.9-0.9c0,0-0.8,0-0.8,1v4.4
		c0,1.1,0.8,1,0.8,1c1,0,0.9-0.9,0.9-0.9h1.2v0.5H31l0,1.6l3.3,0v-1.6h1.9v-0.5h1.2c0,0-0.1,0.9,0.9,0.9c0,0,0.8,0,0.8-1v-4.4
		C39,25.4,38.3,25.4,38.3,25.4z"/>
</g>
<path class="st7" d="M135.4,41.9"/>
<g>
	<path class="st4" d="M13.6,49.2l-1.4,1.1c-0.2,0.2-0.4,0-0.6-0.2l0.3-0.2l-1.4-1.7l-0.1,0.1c-0.2,0.2-0.4,0-0.6-0.2l2.1-1.6
		l0.2,0.3c0.1,0.1,0,0.1,0,0.2l1.2,1.5c0.1,0.1,0.2,0.1,0.3,0.1l0.2,0.4C13.9,49.2,13.7,49.2,13.6,49.2z M12.1,49.7l0.4-0.4
		l-1.4-1.7L10.7,48L12.1,49.7z M12.5,46.2c-0.6,0-1.2-0.2-1.7-0.5c-0.1,0-0.1-0.2,0-0.1c0.6,0.2,1.1,0.3,1.5,0.2
		c0.2,0,0.3-0.1,0.5-0.1l-0.7-0.8c-0.1-0.1,0-0.1,0.1-0.4l0.9,1.1c0.2-0.1,0.3-0.2,0.5-0.3l-0.3-0.4c-0.2,0-0.5,0-0.7-0.1
		c-0.1,0-0.1-0.1,0-0.1c0.4-0.1,0.8-0.2,1.3-0.4l0.1,0.3c0,0.1,0,0.2-0.1,0.2c-0.1,0-0.2,0-0.3,0l0.9,1.1c0.1,0.1,0.1,0.1,0.3,0.1
		c0,0.2,0,0.3-0.1,0.4c-0.1,0.1-0.2,0-0.3-0.1l-0.5-0.6c-0.2,0.1-0.4,0.2-0.5,0.3l0.5,0.6c0.1,0.1,0.1,0.1,0.3,0.1
		c0,0.2,0,0.3-0.1,0.4c-0.1,0.1-0.2,0-0.4-0.1l-0.7-0.8c0,0-0.1,0-0.1,0.1c0.2,0.5,0.3,0.9,0.4,1.1c0,0.5-0.5,0.5-0.5,0.1
		c0-0.2,0-0.8,0-1.2C12.7,46.2,12.6,46.2,12.5,46.2z M11.9,47.1l-0.4,0.4l1.4,1.7l0.4-0.4L11.9,47.1z M16.1,48.2l-1.4,1.1
		c-0.2,0.1-0.4,0-0.5-0.2l0.3-0.2l-0.6-0.7l-0.1,0.1c-0.2,0.1-0.4,0-0.6-0.2l2-1.6l0.2,0.3c0,0.1,0,0.1,0,0.1l0.4,0.5
		c0.1,0.1,0.1,0.1,0.3,0.1l0.2,0.4C16.4,48.2,16.1,48.1,16.1,48.2z M14.7,48.6l1-0.8l-0.6-0.7l-1,0.8L14.7,48.6z"/>
	<path class="st4" d="M15.2,52.2c-0.2,0.2-0.6,0.4-0.9,0.4c-0.6,0-0.6-0.5-0.2-0.5c0.4,0,0.7,0,1-0.1C15.2,52,15.3,52.1,15.2,52.2z
		 M19.6,54c-0.1,0.1-0.2,0.1-0.4,0l-0.5-0.4L18.5,54c-0.1,0.2-0.4,0.1-0.6-0.1l0.1-0.1l-2.6-2c-0.1-0.1-0.1-0.1,0-0.4l2.8,2.1
		l0.2-0.2l-3.2-2.4c-0.1-0.1-0.1-0.1,0-0.4l3.4,2.5l0.2-0.2l-2.6-2c-0.1-0.1,0-0.1,0-0.4l2.6,2c0.1,0.1,0.2,0.1,0.3,0.1l0.3,0.4
		c0.2,0.2-0.1,0.2-0.1,0.3l-0.2,0.2l0.3,0.2c0.1,0.1,0.2,0.1,0.3,0C19.6,53.9,19.6,54,19.6,54z M17.1,54.8c-0.4-0.1-0.9-0.6-1.3-0.9
		c-0.8-0.6-0.8-0.7-0.3-1.3l0.3-0.4l0.3,0.3c0.1,0.1,0,0.1,0,0.1L15.8,53c-0.2,0.2-0.2,0.3,0.2,0.6c0.3,0.2,0.7,0.6,1,0.7
		c0.1,0.1,0.3,0,0.4-0.1c0,0,0.1,0,0.1,0.1c-0.1,0.2-0.1,0.3-0.1,0.4C17.4,54.8,17.2,54.9,17.1,54.8z M16.9,50.2l0.2-0.2l-0.5-0.4
		c-0.1-0.1-0.1-0.1,0-0.4l0.7,0.5l0.2-0.3L16.8,49c-0.1-0.1-0.1-0.1,0-0.4l0.9,0.6l0.3-0.3l0.3,0.3c0.1,0.1,0.1,0.1,0,0.1L18,49.6
		l0.2,0.2c0.1,0.1,0.2,0.1,0.3,0c0,0.2,0.1,0.3,0,0.3c-0.1,0.1-0.2,0.1-0.3,0l-0.4-0.3l-0.2,0.3l0.1,0.1c0.1,0.1,0.2,0.1,0.3,0
		c0,0.2,0.1,0.3,0,0.3c-0.1,0.1-0.2,0.1-0.3,0l-0.2-0.2l-0.2,0.2l0.3,0.3c0.1,0.1,0.2,0.1,0.3,0c0,0.2,0.1,0.3,0,0.3
		c-0.1,0.1-0.2,0.1-0.3,0l-0.5-0.4l-0.1,0.1C17,51,16.7,51,16.5,50.8l0.2-0.3L16,49.9c-0.1-0.1-0.1-0.1,0-0.4L16.9,50.2z M16.5,53.5
		c0-0.2,0-0.4,0-0.6c0-0.1,0.1-0.1,0.1,0c0.1,0.2,0.3,0.4,0.3,0.6C17,53.8,16.5,53.9,16.5,53.5z M18.5,55.1c0.1,0.4-0.4,0.5-0.5,0
		c0-0.3,0-0.6-0.1-1c0-0.1,0.1-0.1,0.1,0C18.2,54.5,18.4,54.8,18.5,55.1z M18.9,50.2l0.7,0.5l0.3-0.4l0.3,0.3c0.1,0.1,0,0.1,0,0.1
		L19.9,51l0.5,0.3c0.1,0.1,0.2,0.1,0.3,0c0,0.2,0.1,0.3,0,0.3c-0.1,0.1-0.2,0.1-0.3,0l-0.6-0.5l-0.2,0.3l0.4,0.3
		c0.1,0.1,0.1,0.1,0.3,0c0,0.2,0.1,0.3,0,0.3c-0.1,0.1-0.2,0.1-0.4,0l-0.5-0.4L19.2,52l0.6,0.4c0.1,0.1,0.2,0.1,0.3,0
		c0,0.2,0.1,0.3,0,0.3c-0.1,0.1-0.2,0.1-0.3,0L19,52.2L19,52.3c-0.1,0.2-0.4,0.1-0.6-0.1l0.2-0.3l-0.4-0.3c-0.1-0.1-0.1-0.1,0-0.4
		l0.6,0.5l0.2-0.2l-0.4-0.3c-0.1-0.1-0.1-0.1,0-0.4l0.6,0.5l0.2-0.3l-0.5-0.4C18.8,50.5,18.8,50.5,18.9,50.2z"/>
	<path class="st4" d="M21.1,56.1c-0.3,0.2-1,0.6-1.4,0.6c-0.1,0-0.1-0.1,0-0.1c0.4-0.2,0.9-0.6,1.3-1l0.2,0.3
		C21.2,56,21.2,56,21.1,56.1z M20.3,55.5l1.4-3.6l0.3,0.2c0.1,0,0.1,0.1,0.1,0.1l0.7,0.3c0.1,0,0.2,0,0.3,0l0.4,0.3
		c0.2,0.1,0,0.2-0.1,0.3l-1.1,2.8c-0.1,0.2-0.4,0.2-0.6,0.1l0.1-0.3l-0.9-0.4l0,0C20.8,55.6,20.6,55.7,20.3,55.5z M22,55.5l0.3-0.7
		l-0.9-0.4L21,55.1L22,55.5z M22.6,53.8l-0.9-0.4l-0.3,0.7l0.9,0.4L22.6,53.8z M22.1,57c0.1,0.5-0.4,0.7-0.5,0.1
		c0-0.2-0.1-0.8-0.1-1.1c0-0.1,0.1-0.1,0.1,0C21.8,56.2,22.1,56.7,22.1,57z M22.1,52.5l-0.3,0.7l0.9,0.4l0.3-0.7L22.1,52.5z
		 M26.3,55.1c-0.1,0.1-0.2,0.1-0.4,0.1l-0.6-0.2L24,58.1c-0.1,0.3-0.4,0.3-0.6,0.1c-0.1-0.2-0.3-0.4-0.6-0.6c-0.1,0,0-0.1,0-0.1
		c0.1,0.1,0.6,0.3,0.7,0.3c0,0,0,0,0,0l0.9-2.3c-0.2,0.2-0.5,0.4-0.8,0.6c-0.5,0.3-1.1,0.6-1.6,0.6c-0.1,0-0.1-0.1,0-0.1
		c0.5-0.2,1-0.5,1.4-0.8c0.4-0.3,0.8-0.6,1.1-1l-1.2-0.5c-0.1,0-0.1-0.1-0.1-0.4l1.6,0.6l0.5-1.2l0.3,0.2c0.1,0,0.1,0.1,0.1,0.1
		l-0.4,1.1l0.4,0.2c0.1,0,0.2,0,0.3-0.1C26.3,54.9,26.3,55,26.3,55.1z"/>
	<path class="st4" d="M27.4,57.9c-0.2,0.5-0.6,1-1,1.2c-0.1,0-0.1-0.1-0.1-0.1c0.4-0.4,0.6-1,0.8-1.6c0.2-0.7,0.2-1.6,0.3-1.8
		l0.4,0.1c0.1,0,0.1,0.1,0.1,0.1l0,0l3.7,0.4c0.1,0,0.2,0,0.3-0.1c0.1,0.1,0.2,0.2,0.2,0.3c0,0.1-0.2,0.2-0.4,0.2l-3.9-0.4l-0.1,0.6
		C27.7,56.9,27.6,57.5,27.4,57.9z M31.8,59.4c0,0.1-0.1,0.2-0.4,0.2l-4-0.5c-0.1,0-0.2-0.1-0.2-0.3l2.1,0.2l0.1-0.6l-1.1-0.1
		c-0.1,0-0.1-0.1-0.2-0.3l1.3,0.2l0.1-0.6l-1-0.1c-0.2,0.2-0.5,0.5-0.7,0.6c-0.1,0.1-0.1,0-0.1-0.1c0.4-0.4,0.7-1,0.9-1.5l0.3,0.2
		c0.1,0.1,0.1,0.1,0.1,0.2c-0.1,0.1-0.2,0.2-0.2,0.3l0.8,0.1l0.1-0.7l0.4,0.1c0.1,0,0.1,0.1,0.1,0.1L30,57.2l0.9,0.1
		c0.1,0,0.2,0,0.3-0.1c0.1,0.1,0.2,0.2,0.2,0.3c0,0.1-0.1,0.2-0.3,0.2L30,57.5l-0.1,0.6l0.8,0.1c0.1,0,0.2,0,0.3-0.1
		c0.1,0.2,0.2,0.2,0.2,0.3c0,0.1-0.1,0.2-0.4,0.2l-1-0.1l-0.1,0.6l1.5,0.2c0.1,0,0.2,0,0.3-0.2C31.8,59.2,31.9,59.3,31.8,59.4z
		 M27.5,54.5l2.3,0.3c0,0-0.1-0.1-0.1-0.1c-0.1-0.1-0.2-0.3-0.3-0.5c0-0.1,0-0.1,0.1-0.1c0.3,0.1,0.5,0.2,0.7,0.3
		c0.2,0.2,0.1,0.4,0,0.4l1.5,0.2c0.1,0,0.2,0,0.3-0.1c0.1,0.1,0.2,0.2,0.2,0.3c0,0.1-0.1,0.2-0.4,0.2L31,55.2
		c-0.1,0.1-0.4,0.2-0.6,0.3c0.2,0.1,0.4,0.1,0.5,0.2c0.4,0.2,0.3,0.6-0.2,0.3c-0.2-0.1-0.5-0.3-0.8-0.4c-0.4,0.1-1,0.2-1.7,0.1
		c-0.1,0-0.1-0.1,0-0.1c0.5,0,1-0.1,1.3-0.2c-0.3-0.1-0.6-0.2-0.9-0.4c-0.1,0-0.1-0.1,0.1-0.1c0.4,0.1,0.8,0.2,1.2,0.3
		c0.2-0.1,0.4-0.2,0.5-0.2l-2.7-0.3C27.6,54.8,27.5,54.7,27.5,54.5z"/>
	<path class="st4" d="M39,58.8c-0.4,0.3-0.4,0.4-0.7,0.2c-0.4-0.2-1.1-0.5-1.6-0.8c-0.6,0.6-1.4,1.2-2.2,1.5c-0.1,0-0.2-0.1-0.1-0.1
		c0.6-0.3,1.4-1,2-1.6c-0.1,0-0.1-0.1-0.2-0.1c-0.4-0.3-0.7-0.8-1-1.2c0,0.1,0,0.3,0,0.4c-0.1,1-0.8,2.1-1.7,2.7
		c-0.1,0.1-0.2,0-0.1-0.1c0.7-0.8,1.2-1.7,1.3-2.8c0.1-0.7,0-1.4-0.1-2.1l-1,0.1c-0.1,0-0.2-0.1-0.3-0.3l3-0.4
		c0.1,0,0.2-0.1,0.3-0.2l0.2,0.1c0.2,0.1,0.2,0.2,0.2,0.3c-0.1,0.4-0.3,0.9-0.5,1.3l0.7-0.1c0.1,0,0.2,0,0.3-0.2l0.2,0.1
		c0.2,0.1,0.2,0.2,0.1,0.3c-0.2,0.6-0.4,1.3-0.9,2C37.4,58.2,38.1,58.5,39,58.8C39,58.7,39,58.8,39,58.8z M35.2,54.7
		c0,0.4,0.1,0.8,0.1,1.2l1-0.1c0.1-0.3,0.2-0.8,0.2-1.2L35.2,54.7z M36.4,57.4c0.1,0.1,0.2,0.1,0.2,0.2c0,0,0,0,0,0
		c0.4-0.5,0.6-1,0.7-1.6l-2,0.2C35.6,56.7,35.9,57.1,36.4,57.4z"/>
	<path class="st4" d="M43.9,52.2c0.1,0.1-0.1,0.2-0.3,0.3l-1.4,0.6l0.3,0c0.1,0,0.2,0.1,0.1,0.1c-0.1,0.2-0.2,0.4-0.3,0.6l0.8-0.3
		c0.1,0,0.2-0.1,0.2-0.2l0.4,0c0.3,0,0.2,0.2,0.3,0.3l1.2,2.9c0.1,0.3-0.1,0.5-0.4,0.5c-0.2-0.1-0.5-0.1-0.7,0c-0.1,0-0.1-0.1,0-0.1
		c0.2-0.1,0.5-0.2,0.6-0.2c0,0,0,0,0-0.1l-1.1-2.7l-0.9,0.4l0.2,0.4c0,0.1,0.1,0.1,0.2,0.1c0.3-0.1,0.3-0.2,0.4-0.3c0,0,0-0.1,0.1,0
		c0.1,0,0.1,0.1,0.2,0.1c0.1,0,0.2,0.2,0.1,0.3c-0.1,0.1-0.3,0.2-0.6,0.3c-0.6,0.2-0.6,0.2-1-0.6l-0.6,0.3l0.2,0
		c0.1,0,0.2,0,0.2,0.1c-0.1,0.2-0.2,0.4-0.3,0.7c-0.1,0.2-0.3,0.4-0.5,0.7c-0.1,0.1-0.1,0-0.1-0.1c0.2-0.4,0.2-0.5,0.3-0.8
		c0.1-0.2,0.1-0.4,0.1-0.7l-1,0.4l1.2,2.9c0.1,0.2-0.1,0.4-0.3,0.5l-1.5-3.7l0.4-0.1c0.1,0,0.1,0,0.1,0l0.9-0.4c0,0-0.1,0-0.1-0.1
		c-0.2-0.1-0.4-0.3-0.5-0.4c-0.1,0,0-0.1,0.1-0.1c0.3,0,0.6,0,0.7,0.1c0.1,0.1,0.1,0.3,0.1,0.4l0.7-0.3c0-0.2,0.1-0.6,0-0.8
		l-2.9,1.2c-0.1,0-0.2,0-0.4-0.2l2.5-1c0,0-0.1,0-0.1,0c-0.2-0.1-0.4-0.2-0.5-0.3c-0.1,0-0.1-0.1,0-0.1c0.3,0,0.5-0.1,0.7-0.1
		c0.2,0.1,0.2,0.2,0.2,0.4l1.7-0.7c0.1,0,0.2-0.1,0.2-0.3C43.7,52.1,43.8,52.1,43.9,52.2z M43.8,56.3c0.1,0.2-0.1,0.4-0.3,0.4
		l-0.1-0.3l-0.9,0.4l0,0c0.1,0.2-0.1,0.4-0.3,0.5l-0.7-1.8l0.4-0.1c0.1,0,0.1,0,0.1,0l0.7-0.3c0.1,0,0.1-0.1,0.2-0.2l0.4,0
		c0.3,0,0.2,0.2,0.2,0.3L43.8,56.3z M43.2,56.2l-0.3-0.8L42,55.9l0.3,0.8L43.2,56.2z"/>
	<path class="st4" d="M44.6,51.2c-0.1,0,0-0.1,0-0.1C45,51,45.3,51,45.5,51c0.4,0.1,0.4,0.6-0.1,0.5C45.2,51.4,44.8,51.3,44.6,51.2z
		 M50.4,51c0.1,0.1,0,0.2-0.2,0.4l-1.6,1.2l0.8,1c0.2,0.2,0,0.5-0.2,0.6l-1-1.3l-1.7,1.3c-0.1,0.1-0.2,0-0.4-0.1l1.9-1.5l-0.2-0.3
		l-1.1,0.9c-0.1,0.1-0.1,0-0.4-0.1l1.4-1l-0.2-0.3L46,52.9c-0.1,0.1-0.2,0.1-0.4-0.1l1.2-0.9c0,0-0.1,0-0.1,0
		c-0.2-0.1-0.4-0.2-0.6-0.2l-1,0.8c-0.1,0.1-0.2,0-0.4-0.1l1.6-1.2l-0.7-0.9l0.3-0.2c0.1,0,0.1,0,0.2,0l0.6,0.8l0.4-0.3l-0.7-0.9
		l0.4-0.2c0.1,0,0.1,0,0.1,0l0.6,0.8l0.2-0.1c0-0.3,0-0.9-0.1-1.2l0.3,0c0.2,0,0.2,0,0.2,0.1c0,0.2-0.2,0.7-0.2,1l0.7-0.6
		c0.1-0.1,0.1-0.2,0.1-0.3c0.2,0,0.3,0,0.4,0.1c0.1,0.1,0,0.2-0.1,0.4l-0.9,0.7l0.1,0c0.1,0,0.2,0,0.2,0.1c0,0.2-0.1,0.5-0.2,0.7
		l0.8-0.6c0.1-0.1,0.1-0.2,0.1-0.3c0.2,0,0.3,0,0.4,0.1c0.1,0.1,0,0.2-0.1,0.4l-1.3,1l0.2,0.3l0.9-0.7c0.1-0.1,0.1-0.2,0.1-0.3
		c0.2,0,0.3,0,0.4,0.1c0.1,0.1,0,0.2-0.1,0.4l-1,0.8l0.2,0.3l1.4-1.1c0.1-0.1,0.1-0.2,0.1-0.3C50.3,50.9,50.4,50.9,50.4,51z
		 M47,51.8l0.7-0.5c0-0.2,0-0.5-0.1-0.8l-1.4,1c0.2,0,0.4,0,0.5,0C47,51.5,47,51.6,47,51.8z M48.3,53.5c-0.2,0.5-0.5,1.3-1.1,2.1
		c-0.1,0.1-0.1,0-0.1,0c0.3-0.8,0.6-1.6,0.7-2.1l0.3,0C48.3,53.4,48.3,53.4,48.3,53.5z M50.9,52.6c-0.5,0-0.9,0-1.8,0
		c-0.1,0-0.1-0.1,0-0.1c0.7-0.2,1.5-0.4,1.8-0.4C51.3,52.1,51.3,52.6,50.9,52.6z"/>
	<path class="st4" d="M49,47.7c-0.1,0-0.1-0.1,0-0.1c0.3-0.2,0.5-0.3,0.7-0.3c0.4-0.1,0.6,0.5,0.1,0.5C49.5,47.7,49.2,47.7,49,47.7z
		 M49.7,48.9c-0.1,0-0.1-0.1,0-0.1c0.3-0.2,0.5-0.3,0.7-0.3c0.5,0,0.6,0.5,0.1,0.5C50.2,49,49.9,48.9,49.7,48.9z M52.2,49.6
		c0.4,0.2,0.6,0.3,0.8,0.4c0.3,0.2,0.4,0.5,0.2,0.7c-0.1,0.2-0.4,0.2-0.5,0c-0.2-0.3-0.3-0.7-0.6-0.8c-0.2-0.1-0.4,0.1-0.7,0.3
		c-0.1,0.1-0.2,0-0.1-0.1c0.2-0.3,0.2-0.4,0.2-0.6c-0.2-0.5-0.9-2-1.3-2.6c-0.1-0.1,0.1-0.2,0.1-0.1C51.3,48.2,51.8,49.4,52.2,49.6z
		 M54,45.5l-1.1,1.4l0.2-0.1c0.1-0.1,0.2-0.1,0.2,0.1c0.2,0.6,0.4,1.3,0.5,1.8c0.4-0.6,0.8-1.2,1-1.6c-0.3,0-0.6-0.1-0.9-0.1
		c-0.1,0-0.1-0.1,0-0.1c0.8-0.2,1.4-0.3,1.8-0.2c0.5,0.1,0.4,0.6,0,0.5l-0.6-0.1c-0.3,0.8-0.9,1.7-1.2,2.4c-0.1,0.2-0.1,0.2-0.7,0.1
		l0.4-0.6c-0.2-0.6-0.6-1.5-0.9-1.9l-0.9,1.1c-0.1,0.1-0.2,0.1-0.4,0l1.1-1.4l-0.7-0.6L51.2,47c-0.1,0.1-0.1,0.1-0.4,0l0.8-1
		l-0.9-0.7L51,45c0.1-0.1,0.1-0.1,0.2,0l0.8,0.6l0.5-0.6c0.1-0.1,0.1-0.2,0-0.4c0.2,0,0.3-0.1,0.4,0c0.1,0.1,0.1,0.2-0.1,0.4
		l-0.6,0.7l0.7,0.6l0.7-0.9c0.1-0.1,0.1-0.2,0-0.4c0.2,0,0.3-0.1,0.4,0C54.2,45.2,54.1,45.3,54,45.5z"/>
</g>
<g>
	<path class="st8" d="M6.6,39.9l-0.2-0.6c0.2,0,0.5,0,0.8-0.1l2-0.6c0.2-0.1,0.3-0.1,0.4-0.2c0.1,0,0.1-0.1,0.2-0.1
		c0,0,0.1-0.1,0.2-0.1l0.2,0.6c-0.2,0-0.5,0-0.8,0.1l-2,0.6c-0.2,0.1-0.4,0.2-0.6,0.3C6.7,39.8,6.7,39.8,6.6,39.9z"/>
	<path class="st8" d="M6.2,38.5l-0.1-0.4l2.4-1.8l-1.9,0.4c-0.3,0.1-0.5,0.2-0.8,0.3l-0.1-0.5c0.2,0,0.5,0,0.8,0l2.8-0.6l0,0.2
		l-2.7,2L9,37.5c0.1,0,0.2-0.1,0.4-0.1c0.1,0,0.2-0.1,0.3-0.2l0.1,0.5c-0.1,0-0.2,0-0.4,0c-0.1,0-0.2,0-0.4,0.1l-2,0.5
		C6.7,38.3,6.4,38.4,6.2,38.5z"/>
	<path class="st8" d="M5.7,35.9L5.4,34l0.7-0.1l-0.3,0.4c0,0,0,0,0,0.1l0,0.1l0,0.3l2.6-0.3c0.2,0,0.3-0.1,0.5-0.1
		c0.1,0,0.2-0.1,0.3-0.1l0.1,0.6c-0.1,0-0.2-0.1-0.4-0.1c-0.1,0-0.2,0-0.4,0l-2.6,0.3l0,0.3c0,0,0,0.1,0,0.1c0,0,0,0,0.1,0.1
		l0.4,0.3L5.7,35.9z"/>
	<path class="st8" d="M5.4,33.2l-0.1-1.5l0.7,0l-0.4,0.4c0,0,0,0,0,0c0,0,0,0,0,0l0,0.1l0,0.5l1.5-0.1l0-0.5c0,0,0,0,0-0.1l-0.1-0.1
		l-0.2-0.2l0.9,0L7.3,32c0,0-0.1,0.1-0.1,0.1c0,0,0,0.1,0,0.2l0,0.4l1.5-0.1l0-0.5c0,0,0-0.1-0.1-0.2l0,0l-0.4-0.4l0.8,0L9,33.1
		c0,0-0.1,0-0.2-0.1c0,0-0.1,0-0.2,0c-0.1,0-0.2,0-0.4,0l-2.1,0.1c-0.2,0-0.5,0-0.6,0.1C5.5,33.2,5.4,33.2,5.4,33.2z"/>
	<path class="st8" d="M5.3,30.9l0-0.6c0.1,0,0.2,0.1,0.4,0.1c0.1,0,0.3,0,0.4,0.1l2.6,0.1l0-0.4c0,0,0-0.1,0-0.1
		c0,0-0.1-0.1-0.1-0.1l-0.4-0.4L9,29.7L9,31.1C8.8,31,8.7,31,8.6,30.9c-0.1,0-0.2,0-0.4,0l-2.1-0.1c-0.2,0-0.3,0-0.4,0l-0.2,0
		C5.4,30.9,5.4,30.9,5.3,30.9z"/>
	<path class="st8" d="M5.4,28.8l0.1-0.6c0.1,0.1,0.2,0.1,0.3,0.1c0.1,0,0.3,0.1,0.4,0.1l2.6,0.3l0-0.4c0,0,0-0.1,0-0.1
		c0,0,0-0.1-0.1-0.1l-0.4-0.4l0.7,0.2l-0.2,1.4c-0.1-0.1-0.3-0.1-0.4-0.2c-0.1,0-0.2-0.1-0.4-0.1l-2-0.2c-0.2,0-0.3,0-0.4,0l-0.2,0
		C5.6,28.8,5.5,28.8,5.4,28.8z"/>
	<path class="st8" d="M5.7,26.7L6,25.2l0.7,0.1l-0.5,0.3c0,0,0,0,0,0s0,0,0,0l0,0.1L6,26.3l1.5,0.3l0.1-0.4c0,0,0,0,0-0.1l-0.1-0.1
		l-0.2-0.3l0.8,0.2L7.9,26c0,0-0.1,0-0.1,0.1c0,0,0,0.1,0,0.1l-0.1,0.4l1.5,0.3l0.1-0.5c0,0,0-0.1-0.1-0.2l0,0l-0.3-0.4L9.6,26
		l-0.3,1.5c0,0-0.1-0.1-0.2-0.1c0,0-0.1-0.1-0.2-0.1c-0.1,0-0.2-0.1-0.4-0.1l-2-0.4c-0.2,0-0.5-0.1-0.6-0.1
		C5.9,26.7,5.8,26.7,5.7,26.7z"/>
	<path class="st8" d="M6.8,22.7l0.6,0.2l-0.5,0.3l-0.1,0.1c0,0,0,0.1-0.1,0.1c-0.1,0.3,0,0.6,0.4,0.8c0.3,0.2,0.6,0.3,1,0.5
		c0.4,0.1,0.8,0.2,1.1,0.2c0.4,0,0.7-0.2,0.7-0.5l0-0.1c0,0,0-0.1,0-0.1l-0.4-0.6l0.6,0.3c0,0,0,0.1,0,0.2c0,0.2,0,0.3-0.1,0.5
		C10,24.8,9.8,25,9.4,25.1c-0.4,0.1-0.8,0.1-1.4-0.1c-0.5-0.2-0.9-0.4-1.2-0.7c-0.3-0.3-0.5-0.7-0.3-1.1c0-0.1,0.1-0.2,0.1-0.3
		C6.6,22.9,6.7,22.9,6.8,22.7z"/>
	<path class="st8" d="M6.9,22.2l0.7-1.8l0.7,0.3l-0.5,0.2c0,0-0.1,0-0.1,0.1l-0.1,0.1l-0.1,0.3l2.4,1c0.2,0.1,0.3,0.1,0.4,0.1
		c0.1,0,0.2,0,0.4,0l-0.2,0.6c-0.1-0.1-0.2-0.2-0.3-0.2c-0.1,0-0.2-0.1-0.4-0.2l-2.4-1l-0.1,0.3c0,0,0,0.1,0,0.1c0,0,0,0.1,0,0.1
		l0.2,0.5L6.9,22.2z"/>
	<path class="st8" d="M8,19.7l0.3-0.5c0,0.1,0.1,0.1,0.1,0.1c0.1,0.1,0.1,0.1,0.1,0.1c0.1,0.1,0.2,0.1,0.4,0.2l1.5,0.8
		c0.3,0.2,0.6,0.3,0.8,0.3c0.2,0,0.3-0.1,0.4-0.3c0.1-0.2,0.1-0.5-0.1-0.7c0,0-0.1,0-0.1-0.1c-0.1-0.1-0.3-0.2-0.4-0.2l-1.5-0.8
		c-0.3-0.1-0.5-0.2-0.8-0.3l0.2-0.5c0.2,0.2,0.4,0.4,0.6,0.5l1.6,0.8l0.1,0.1c0.1,0,0.1,0.1,0.3,0.2c0,0,0,0,0.1,0.1
		c0.3,0.3,0.3,0.6,0.1,1c-0.1,0.3-0.3,0.4-0.6,0.5c-0.2,0-0.5,0-0.9-0.2l-1.6-0.8C8.5,19.8,8.2,19.7,8,19.7z"/>
	<path class="st8" d="M9.8,16.3l2.8,1.1c0,0,0.1,0,0.3,0.1c0.1,0,0.2,0.1,0.2,0.1c0.1,0,0.2,0,0.4,0l-0.4,0.6L13,17.9
		c0,0-0.1-0.1-0.1-0.1l-0.1,0l-0.1-0.1l-0.9-0.3L11.4,18l0.8,0.8l0.1,0.1c0.1,0,0.1,0.1,0.2,0.1c0,0,0,0,0.1,0l-0.3,0.5
		c-0.1-0.1-0.1-0.2-0.2-0.3c-0.1-0.2-0.2-0.3-0.3-0.4l-1.9-2.1L9.8,16.3z M10.2,16.8l1,1.1l0.4-0.5L10.2,16.8z"/>
	<path class="st8" d="M10.9,14.9l0.4-0.5c0.1,0.1,0.1,0.2,0.2,0.3c0.1,0.1,0.2,0.2,0.3,0.3l2.1,1.7l0.3-0.3c0,0,0-0.1,0-0.1
		c0,0,0-0.1,0-0.2l-0.1-0.5l0.5,0.5l-0.9,1.1c-0.1-0.1-0.2-0.2-0.2-0.3c-0.1-0.1-0.2-0.2-0.3-0.3l-1.6-1.3c-0.1-0.1-0.3-0.2-0.4-0.3
		l-0.2-0.1C11,14.9,11,14.9,10.9,14.9z"/>
	<path class="st8" d="M13,12.4l0.6-0.6c0.2-0.2,0.4-0.2,0.6-0.2s0.4,0.2,0.7,0.4c0.2,0.2,0.4,0.5,0.4,0.7c0,0.2-0.1,0.5-0.2,0.6
		l-0.1,0.1l-0.1,0.1l0.5,0.5c0.1,0.1,0.2,0.2,0.3,0.3c0.1,0.1,0.2,0.1,0.3,0.2l-0.4,0.4c-0.1-0.1-0.1-0.2-0.2-0.3s-0.2-0.2-0.3-0.3
		l-1.4-1.5c-0.1-0.1-0.2-0.2-0.3-0.3C13.3,12.6,13.1,12.5,13,12.4z M13.5,12.3l1.2,1.2l0.1-0.1l0.1-0.1c0.3-0.3,0.2-0.6-0.2-1
		c-0.2-0.2-0.4-0.3-0.5-0.3c-0.2,0-0.3,0-0.4,0.1L13.5,12.3z"/>
	<path class="st8" d="M14.7,10.9l0.6-0.5c0.1-0.1,0.2-0.2,0.3-0.2c0.1,0,0.1,0,0.2,0c0.2,0,0.4,0.1,0.6,0.4c0.2,0.2,0.3,0.4,0.3,0.6
		c0,0.2,0,0.4-0.2,0.5l1.1,0.5c0.2,0.1,0.4,0.2,0.6,0.2c0,0,0.1,0,0.2,0L18,12.9L16.1,12l0.7,0.8c0.2,0.2,0.4,0.4,0.6,0.5L17,13.7
		c0-0.1-0.1-0.2-0.2-0.4c0-0.1-0.1-0.2-0.2-0.3l-1.3-1.6C15.1,11.2,14.9,11,14.7,10.9z M15.1,10.7l0.9,1.1l0.1-0.1
		c0.1-0.1,0.2-0.2,0.2-0.4s-0.1-0.3-0.3-0.5c-0.3-0.4-0.6-0.5-0.8-0.3L15.1,10.7z"/>
	<path class="st8" d="M17.8,10.8c-0.3-0.4-0.5-0.8-0.5-1.2c-0.1-0.5,0.1-0.8,0.4-1c0.3-0.2,0.6-0.2,0.9,0c0.3,0.2,0.7,0.5,1,1
		c0.3,0.4,0.5,0.8,0.5,1.2c0.1,0.5-0.1,0.8-0.4,1c-0.3,0.2-0.6,0.2-1-0.1C18.4,11.5,18.1,11.2,17.8,10.8z M17.8,8.8
		c-0.2,0.1-0.3,0.4-0.2,0.8c0.1,0.3,0.2,0.6,0.4,0.9c0.3,0.4,0.6,0.8,0.8,0.9c0.3,0.2,0.5,0.2,0.7,0.1c0.2-0.1,0.2-0.3,0.2-0.6
		c-0.1-0.3-0.2-0.7-0.5-1.1C19,9.3,18.8,9,18.5,8.8C18.2,8.7,18,8.6,17.8,8.8z"/>
	<path class="st8" d="M19.3,7.6L20,7.2c0.2-0.1,0.4-0.1,0.6,0c0.2,0.1,0.4,0.3,0.5,0.6c0.2,0.3,0.2,0.6,0.2,0.8
		c0,0.2-0.2,0.4-0.4,0.5l-0.1,0.1l-0.1,0L21,9.9c0.1,0.1,0.2,0.3,0.2,0.4c0.1,0.1,0.1,0.2,0.3,0.3L21,10.8c0-0.2,0-0.3-0.1-0.4
		c0-0.1-0.1-0.2-0.2-0.4l-1-1.8c-0.1-0.2-0.2-0.3-0.2-0.4C19.5,7.8,19.4,7.7,19.3,7.6z M19.8,7.6l0.8,1.5l0.1,0l0.1,0
		c0.3-0.2,0.4-0.5,0.1-1c-0.1-0.2-0.2-0.4-0.4-0.5c-0.1-0.1-0.3-0.1-0.4,0L19.8,7.6z"/>
	<path class="st8" d="M21.3,6.6L22.6,6l0.3,0.6l-0.5-0.2c0,0,0,0,0,0s0,0-0.1,0l-0.1,0l-0.5,0.2L22.4,8l0.4-0.2c0,0,0,0,0.1-0.1
		l0.1-0.1L23,7.4l0.3,0.8L23.1,8C23,8,23,8,23,8c0,0-0.1,0-0.1,0l-0.4,0.2L23,9.6l0.5-0.2c0,0,0.1-0.1,0.1-0.2l0,0l0.2-0.5l0.2,0.7
		L22.7,10c0,0,0-0.1,0-0.2c0,0,0-0.1,0-0.2c0-0.1-0.1-0.2-0.1-0.4l-0.8-1.9c-0.1-0.2-0.2-0.4-0.3-0.5C21.4,6.7,21.3,6.7,21.3,6.6z"
		/>
	<path class="st8" d="M23.5,5.7l0.7-0.2c0.1,0,0.2-0.1,0.3-0.1c0.1,0,0.1,0,0.2,0c0.2,0.1,0.3,0.3,0.4,0.6c0.1,0.3,0.1,0.5,0,0.7
		c-0.1,0.2-0.2,0.3-0.4,0.5l0.9,0.9c0.2,0.2,0.3,0.3,0.5,0.4c0,0,0.1,0.1,0.2,0.1l-0.5,0.2l-1.4-1.5l0.3,1C24.9,8.6,25,8.8,25.1,9
		l-0.6,0.2c0-0.1,0-0.3,0-0.4c0-0.1,0-0.2-0.1-0.4l-0.6-2C23.7,6.1,23.6,5.9,23.5,5.7z M24,5.8l0.4,1.4l0.2-0.1
		c0.2,0,0.2-0.1,0.3-0.3c0-0.2,0-0.3-0.1-0.6c-0.1-0.5-0.4-0.6-0.7-0.5L24,5.8z"/>
	<path class="st8" d="M25.9,5l1.9-0.4L28,5.2l-0.4-0.3c0,0,0,0-0.1,0l-0.1,0L27.1,5l0.5,2.6c0,0.2,0.1,0.3,0.1,0.4s0.1,0.2,0.2,0.3
		l-0.6,0.1c0-0.1,0-0.2,0-0.4c0-0.1,0-0.2-0.1-0.4L26.8,5l-0.3,0.1c0,0-0.1,0-0.1,0c0,0,0,0-0.1,0.1l-0.3,0.5L25.9,5z"/>
	<path class="st8" d="M28.3,4.5L29,4.4l0,0.2c0,0,0,0.1,0,0.1l0,0.1l0.1,0.1L29.7,6l0.3-1.2c0-0.1,0-0.1,0-0.2c0,0,0-0.1,0-0.1
		l-0.1-0.1l0.6-0.1c-0.1,0.2-0.2,0.4-0.3,0.7l-0.4,1.2l0.1,1c0,0.2,0,0.3,0.1,0.4c0,0,0,0.1,0.1,0.2c0,0.1,0.1,0.1,0.1,0.2L29.5,8
		c0,0,0-0.1,0-0.2s0-0.2,0-0.2c0-0.1,0-0.2,0-0.4l-0.1-0.9L28.7,5c0-0.1-0.1-0.1-0.1-0.2c-0.1-0.1-0.1-0.2-0.2-0.3
		C28.4,4.5,28.4,4.5,28.3,4.5z"/>
	<path class="st8" d="M33.4,4.1L34,7c0,0,0,0.1,0.1,0.3c0,0.1,0,0.2,0.1,0.2c0,0.1,0.1,0.2,0.2,0.3l-0.7,0l0.1-0.2c0,0,0-0.1,0-0.1
		l0-0.1l0-0.2l-0.2-0.9l-0.8,0l-0.3,1.1l0,0.1c0,0.1,0,0.2,0.1,0.2c0,0,0,0,0,0.1l-0.6,0c0.1-0.1,0.1-0.2,0.2-0.3
		c0.1-0.2,0.1-0.3,0.2-0.5l0.8-2.8L33.4,4.1z M33.2,4.7l-0.4,1.4l0.6,0L33.2,4.7z"/>
	<path class="st8" d="M35.2,4.2l0.4,0.1l0.8,2.9l0.3-1.9c0-0.3,0-0.6,0-0.8l0.5,0.1C37.1,4.7,37,5,36.9,5.3l-0.4,2.9l-0.2,0
		l-0.9-3.2l-0.3,2.2c0,0.1,0,0.2,0,0.4c0,0.1,0,0.2,0.1,0.4l-0.5-0.1c0.1-0.1,0.1-0.2,0.2-0.4c0-0.1,0.1-0.2,0.1-0.4l0.3-2
		C35.3,4.8,35.3,4.5,35.2,4.2z"/>
	<path class="st8" d="M38,4.7l0.8,0.2c0.8,0.2,1,0.8,0.7,1.9c-0.1,0.3-0.2,0.6-0.3,0.8c-0.2,0.5-0.5,0.7-0.8,0.8c-0.2,0-0.4,0-0.6,0
		l-0.7-0.2c0.1-0.1,0.1-0.2,0.2-0.3c0-0.1,0.1-0.2,0.1-0.4l0.5-2C38,5.3,38,5.1,38.1,5S38.1,4.8,38,4.7z M38.4,5l-0.7,3.1L38,8.2
		c0.6,0.1,1-0.3,1.2-1.4c0.1-0.4,0.1-0.8,0.1-1c-0.1-0.4-0.2-0.6-0.5-0.7L38.4,5z"/>
	<path class="st8" d="M43.5,6.4L43.3,7l-0.2-0.5L43,6.4c0,0-0.1,0-0.1-0.1c-0.3-0.1-0.6,0-0.8,0.3c-0.2,0.2-0.4,0.6-0.5,1
		c-0.2,0.4-0.2,0.7-0.2,1c0,0.4,0.1,0.7,0.4,0.8l0.1,0c0,0,0.1,0,0.1,0l0.6-0.3l-0.3,0.6c0,0-0.1,0-0.2,0c-0.2,0-0.3,0-0.5-0.1
		c-0.4-0.1-0.6-0.4-0.6-0.8c-0.1-0.4,0-0.8,0.2-1.4c0.2-0.5,0.5-0.9,0.8-1.2C42.2,6,42.6,5.9,43,6.1c0.1,0,0.2,0.1,0.3,0.1
		C43.3,6.3,43.4,6.3,43.5,6.4z"/>
	<path class="st8" d="M43.4,8.4c0.2-0.5,0.5-0.8,0.8-1C44.6,7,44.9,7,45.3,7.2c0.3,0.1,0.4,0.4,0.4,0.8c0,0.4-0.1,0.8-0.4,1.3
		c-0.2,0.5-0.5,0.8-0.8,1c-0.4,0.3-0.7,0.3-1.1,0.2C43.1,10.3,43,10,43,9.6C43,9.2,43.1,8.8,43.4,8.4z M45.1,7.4
		c-0.2-0.1-0.5,0-0.8,0.3c-0.2,0.2-0.4,0.5-0.6,0.8c-0.2,0.5-0.4,0.9-0.4,1.2s0.1,0.5,0.2,0.6c0.2,0.1,0.4,0.1,0.7-0.1
		c0.2-0.2,0.5-0.5,0.7-1c0.2-0.5,0.4-0.9,0.4-1.2C45.4,7.7,45.3,7.5,45.1,7.4z"/>
	<path class="st8" d="M46.9,8.1l0.4,0.3l-1,2.8l2.3-1.9l0.4,0.3c-0.1,0.1-0.2,0.2-0.3,0.2c-0.1,0.1-0.2,0.2-0.3,0.3l-1.2,1.8
		c-0.1,0.1-0.2,0.3-0.2,0.4c0,0.1-0.1,0.1-0.1,0.2c0,0.1,0,0.1-0.1,0.2l-0.5-0.3c0.2-0.1,0.4-0.3,0.6-0.6l1.3-1.9l-2.4,2.1l-0.1-0.1
		l1.1-3l-1.3,1.9c-0.2,0.2-0.3,0.5-0.3,0.7l-0.4-0.3c0.1,0,0.1-0.1,0.1-0.1c0.1-0.1,0.3-0.3,0.4-0.5l1.2-1.7
		c0.1-0.2,0.2-0.4,0.3-0.6C46.9,8.3,46.9,8.2,46.9,8.1z"/>
	<path class="st8" d="M49.9,10.2l0.4,0.3l-1.3,2.7l2.5-1.6l0.4,0.3c-0.1,0.1-0.2,0.1-0.3,0.2c-0.1,0.1-0.2,0.2-0.3,0.3L49.8,14
		c-0.1,0.1-0.2,0.2-0.3,0.3c0,0.1-0.1,0.1-0.1,0.2c0,0-0.1,0.1-0.1,0.2l-0.4-0.4c0.2-0.1,0.4-0.3,0.6-0.5l1.5-1.7l-2.7,1.7l-0.1-0.1
		l1.4-2.9l-1.5,1.7c-0.2,0.2-0.3,0.4-0.4,0.7l-0.3-0.3c0.1,0,0.1-0.1,0.2-0.1c0.1-0.1,0.3-0.2,0.5-0.4l1.4-1.5
		c0.2-0.2,0.3-0.3,0.4-0.5C49.8,10.3,49.9,10.3,49.9,10.2z"/>
	<path class="st8" d="M52.5,12.6l1,1.1l-0.5,0.5l0.1-0.5c0,0,0,0,0,0c0,0,0,0,0-0.1l-0.1-0.1l-0.3-0.4l-1.1,1l0.3,0.3c0,0,0,0,0.1,0
		l0.1,0l0.3,0l-0.6,0.6l0-0.3c0,0,0-0.1,0-0.1c0,0,0-0.1-0.1-0.1l-0.3-0.3l-1.1,1l0.4,0.4c0,0,0.1,0.1,0.2,0.1l0,0l0.5,0l-0.6,0.4
		l-1-1.1c0,0,0.1,0,0.2-0.1c0,0,0.1-0.1,0.2-0.1c0.1-0.1,0.2-0.1,0.3-0.3l1.5-1.4c0.2-0.2,0.3-0.3,0.4-0.5
		C52.4,12.8,52.4,12.7,52.5,12.6z"/>
	<path class="st8" d="M54,14.4l0.4,0.6c0.1,0.1,0.1,0.2,0.2,0.3c0,0.1,0,0.1,0,0.2c0,0.2-0.2,0.4-0.4,0.6c-0.2,0.2-0.4,0.2-0.6,0.3
		c-0.2,0-0.4,0-0.5-0.2l-0.6,1.1c-0.1,0.2-0.2,0.4-0.2,0.6c0,0,0,0.1,0,0.2l-0.3-0.4l1-1.8L52,16.5c-0.2,0.2-0.4,0.4-0.6,0.6
		l-0.4-0.5c0.1,0,0.2-0.1,0.4-0.1c0.1,0,0.2-0.1,0.4-0.2l1.6-1.2C53.7,14.8,53.9,14.6,54,14.4z M54.1,14.9l-1.2,0.9l0.1,0.1
		c0.1,0.1,0.2,0.2,0.4,0.2c0.2,0,0.3-0.1,0.5-0.2c0.4-0.3,0.5-0.6,0.3-0.8L54.1,14.9z"/>
	<path class="st8" d="M56.5,18.2l-0.6,0.3l0.2-0.6l0-0.1c0,0,0-0.1-0.1-0.1c-0.2-0.3-0.4-0.3-0.9-0.3c-0.3,0.1-0.6,0.2-1,0.4
		c-0.4,0.2-0.6,0.4-0.8,0.7c-0.3,0.3-0.3,0.6-0.2,0.9l0.1,0.1c0,0,0.1,0,0.1,0l0.7,0.1L53.4,20c0,0-0.1-0.1-0.1-0.1
		c-0.1-0.1-0.2-0.2-0.3-0.4c-0.2-0.3-0.2-0.7-0.1-1c0.2-0.3,0.5-0.7,1-1c0.5-0.3,0.9-0.4,1.3-0.5c0.5,0,0.8,0.1,1,0.5
		c0.1,0.1,0.1,0.2,0.1,0.3C56.4,17.9,56.5,18,56.5,18.2z"/>
	<path class="st8" d="M56.8,18.7l0.3,0.5c-0.2,0-0.5,0.1-0.7,0.2l-1.9,1c-0.2,0.1-0.3,0.2-0.4,0.2c-0.1,0-0.1,0.1-0.1,0.1
		c0,0-0.1,0.1-0.1,0.1l-0.3-0.5c0.2,0,0.5-0.1,0.8-0.2l1.8-0.9c0.2-0.1,0.4-0.2,0.5-0.4C56.7,18.8,56.8,18.8,56.8,18.7z"/>
	<path class="st8" d="M57.9,20.8l-2.4,1.8c0,0-0.1,0.1-0.2,0.2c-0.1,0.1-0.1,0.1-0.2,0.1c-0.1,0.1-0.2,0.2-0.2,0.3l-0.3-0.6l0.2,0
		c0,0,0.1,0,0.1,0l0.1,0l0.1-0.1l0.8-0.5l-0.3-0.7l-1.1,0.2l-0.1,0c-0.1,0-0.1,0.1-0.2,0.1c0,0,0,0-0.1,0.1L54,21.1
		c0.1,0,0.2,0,0.3,0c0.2,0,0.4,0,0.5,0l2.8-0.4L57.9,20.8z M57.3,20.9l-1.5,0.3l0.2,0.6L57.3,20.9z"/>
	<path class="st8" d="M58.5,22.6l0.2,0.6c-0.1,0-0.2,0-0.4,0c-0.1,0-0.3,0-0.4,0.1L55.3,24l0.1,0.4c0,0,0,0.1,0.1,0.1
		c0,0,0.1,0.1,0.1,0.1l0.5,0.2L55.4,25L55,23.7c0.2,0,0.3,0,0.4,0c0.1,0,0.2,0,0.4-0.1l2-0.6c0.2-0.1,0.3-0.1,0.4-0.2l0.2-0.1
		C58.4,22.6,58.4,22.6,58.5,22.6z"/>
	<path class="st8" d="M59.6,27.5L59,27.6l0.4-0.5l0-0.1c0,0,0-0.1,0-0.1c-0.1-0.3-0.3-0.5-0.7-0.5c-0.3,0-0.7,0-1.1,0
		c-0.4,0.1-0.8,0.2-1,0.3c-0.4,0.2-0.5,0.5-0.5,0.7l0,0.1c0,0,0,0.1,0.1,0.1l0.6,0.3l-0.7,0.1c0,0,0-0.1-0.1-0.1
		c-0.1-0.1-0.1-0.3-0.2-0.4c-0.1-0.4,0-0.7,0.3-1c0.3-0.3,0.7-0.4,1.3-0.5c0.5-0.1,1-0.1,1.4,0c0.5,0.1,0.7,0.4,0.8,0.8
		c0,0.1,0,0.2,0,0.3C59.7,27.2,59.7,27.3,59.6,27.5z"/>
	<path class="st8" d="M57.9,28.4c0.5,0,1,0,1.3,0.1c0.4,0.2,0.7,0.4,0.7,0.8c0,0.3-0.1,0.6-0.4,0.8c-0.3,0.2-0.8,0.3-1.3,0.4
		c-0.5,0-1,0-1.3-0.1c-0.4-0.2-0.7-0.4-0.7-0.8c0-0.4,0.2-0.6,0.6-0.9C57,28.5,57.4,28.4,57.9,28.4z M59.7,29.3
		c0-0.3-0.2-0.4-0.6-0.5c-0.3-0.1-0.6-0.1-1,0c-0.5,0-0.9,0.1-1.2,0.3s-0.4,0.3-0.4,0.5c0,0.2,0.2,0.4,0.5,0.5
		c0.3,0.1,0.7,0.1,1.2,0.1c0.5,0,0.9-0.1,1.2-0.3S59.7,29.5,59.7,29.3z"/>
	<path class="st8" d="M60,31.1l0,0.6c-0.1,0-0.1,0-0.2-0.1c-0.1,0-0.1,0-0.2,0c-0.1,0-0.3,0-0.4,0l-1.7,0c-0.4,0-0.6,0-0.8,0.1
		s-0.2,0.2-0.2,0.4c0,0.3,0.1,0.5,0.4,0.6c0,0,0.1,0,0.1,0c0.2,0,0.3,0,0.5,0l1.7,0c0.3,0,0.6,0,0.8-0.1l0,0.5
		c-0.2-0.1-0.5-0.2-0.8-0.2l-1.8,0l-0.2,0c-0.1,0-0.2,0-0.3,0c0,0-0.1,0-0.1,0c-0.4-0.1-0.5-0.4-0.5-0.8c0-0.3,0.1-0.5,0.3-0.7
		c0.2-0.1,0.5-0.2,0.9-0.2l1.8,0C59.5,31.3,59.7,31.2,60,31.1z"/>
	<path class="st8" d="M59.9,34l-0.1,0.7c0,0.1,0,0.3-0.1,0.3c0,0.1-0.1,0.1-0.1,0.2c-0.2,0.1-0.4,0.2-0.7,0.1
		c-0.3,0-0.5-0.1-0.6-0.2s-0.2-0.3-0.3-0.5L56.8,35c-0.2,0.1-0.4,0.2-0.6,0.3c0,0-0.1,0.1-0.2,0.1l0.1-0.5l2-0.6L57,34.1
		c-0.3,0-0.6,0-0.8,0l0.1-0.6c0.1,0.1,0.2,0.1,0.4,0.2c0.1,0,0.2,0.1,0.4,0.1l2,0.3C59.3,34.1,59.6,34,59.9,34z M59.6,34.4l-1.5-0.2
		l0,0.2c0,0.2,0,0.3,0.1,0.4s0.3,0.2,0.5,0.2c0.5,0.1,0.7-0.1,0.8-0.4L59.6,34.4z"/>
	<path class="st8" d="M59.5,36.6l-0.4,1.9l-0.7-0.2l0.4-0.2c0,0,0,0,0.1-0.1l0-0.1l0.1-0.3L56.5,37C56.3,37,56.1,37,56,37
		c-0.1,0-0.2,0-0.4,0l0.1-0.6c0.1,0.1,0.2,0.1,0.4,0.2c0.1,0,0.2,0.1,0.4,0.1l2.5,0.6l0.1-0.3c0,0,0-0.1,0-0.1c0,0,0-0.1,0-0.1
		l-0.3-0.4L59.5,36.6z"/>
</g>
<path class="st7" d="M3,42.1"/>
<g>
	<path class="st3" d="M74.5,41.3h1.2v6.4h-1.2V41.3z"/>
	<path class="st3" d="M76.9,43h1.2v0.5c0.3-0.2,0.5-0.4,0.7-0.5c0.2-0.1,0.4-0.1,0.7-0.1c0.5,0,0.9,0.2,1.2,0.5
		c0.3,0.3,0.4,0.7,0.4,1.2v3.1H80v-2.1c0-0.6,0-0.9-0.1-1.1c-0.1-0.2-0.1-0.3-0.3-0.4c-0.1-0.1-0.3-0.1-0.5-0.1
		c-0.2,0-0.4,0.1-0.6,0.2c-0.2,0.2-0.3,0.4-0.4,0.7c0,0.1-0.1,0.5-0.1,1v1.9h-1.2V43z"/>
	<path class="st3" d="M82.4,41.2h1.2V43h0.7v1h-0.7v3.7h-1.2V44h-0.6v-1h0.6V41.2z"/>
	<path class="st3" d="M89.7,45.7h-3.8c0.1,0.3,0.2,0.6,0.4,0.8c0.2,0.2,0.5,0.3,0.9,0.3c0.4,0,0.8-0.2,1.1-0.5l1,0.5
		c-0.2,0.4-0.5,0.6-0.9,0.8c-0.3,0.2-0.8,0.3-1.2,0.3c-0.7,0-1.3-0.2-1.8-0.7c-0.5-0.5-0.7-1.1-0.7-1.8c0-0.7,0.2-1.3,0.7-1.8
		s1-0.7,1.7-0.7c0.7,0,1.3,0.2,1.8,0.7c0.5,0.5,0.7,1.1,0.7,1.9L89.7,45.7z M88.5,44.7c-0.1-0.3-0.2-0.5-0.5-0.6s-0.5-0.2-0.8-0.2
		c-0.3,0-0.6,0.1-0.9,0.3c-0.2,0.1-0.3,0.3-0.4,0.6H88.5z"/>
	<path class="st3" d="M90.5,41.2h1.2v6.5h-1.2V41.2z"/>
	<path class="st3" d="M92.6,41.2h1.2v6.5h-1.2V41.2z"/>
	<path class="st3" d="M99.6,45.7h-3.8c0.1,0.3,0.2,0.6,0.4,0.8c0.2,0.2,0.5,0.3,0.9,0.3c0.4,0,0.8-0.2,1.1-0.5l1,0.5
		c-0.2,0.4-0.5,0.6-0.9,0.8c-0.3,0.2-0.8,0.3-1.2,0.3c-0.7,0-1.3-0.2-1.8-0.7c-0.5-0.5-0.7-1.1-0.7-1.8c0-0.7,0.2-1.3,0.7-1.8
		s1-0.7,1.7-0.7c0.7,0,1.3,0.2,1.8,0.7c0.5,0.5,0.7,1.1,0.7,1.9L99.6,45.7z M98.4,44.7c-0.1-0.3-0.2-0.5-0.5-0.6s-0.5-0.2-0.8-0.2
		c-0.3,0-0.6,0.1-0.9,0.3c-0.2,0.1-0.3,0.3-0.4,0.6H98.4z"/>
	<path class="st3" d="M105.2,43.9l-1,0.5c-0.2-0.2-0.4-0.3-0.5-0.4c-0.2-0.1-0.4-0.1-0.6-0.1c-0.4,0-0.8,0.1-1.1,0.4
		c-0.3,0.3-0.4,0.6-0.4,1c0,0.4,0.1,0.7,0.4,1c0.3,0.3,0.6,0.4,1,0.4c0.5,0,0.9-0.2,1.2-0.5l0.9,0.6c-0.5,0.7-1.2,1-2.1,1
		c-0.8,0-1.5-0.2-2-0.7c-0.5-0.5-0.7-1.1-0.7-1.7c0-0.5,0.1-0.9,0.3-1.3c0.2-0.4,0.5-0.7,1-0.9s0.9-0.3,1.4-0.3
		c0.5,0,0.9,0.1,1.3,0.3S105,43.6,105.2,43.9z"/>
	<path class="st3" d="M106.4,41.2h1.2V43h0.7v1h-0.7v3.7h-1.2V44h-0.6v-1h0.6V41.2z"/>
	<path class="st3" d="M108.9,43h1.2v2.3c0,0.4,0,0.7,0.1,0.9c0.1,0.2,0.2,0.3,0.3,0.4c0.1,0.1,0.3,0.1,0.5,0.1c0.2,0,0.4,0,0.5-0.1
		c0.1-0.1,0.2-0.2,0.3-0.4c0-0.1,0.1-0.4,0.1-0.9V43h1.2v2c0,0.8-0.1,1.4-0.2,1.7c-0.2,0.4-0.4,0.7-0.7,0.9s-0.7,0.3-1.2,0.3
		c-0.5,0-0.9-0.1-1.3-0.3c-0.3-0.2-0.5-0.6-0.7-1c-0.1-0.3-0.1-0.8-0.1-1.6V43z"/>
	<path class="st3" d="M117.7,43h1.2v4.7h-1.2v-0.5c-0.2,0.2-0.5,0.4-0.7,0.5c-0.2,0.1-0.5,0.1-0.8,0.1c-0.6,0-1.1-0.2-1.6-0.7
		c-0.4-0.5-0.7-1.1-0.7-1.8c0-0.7,0.2-1.3,0.6-1.8c0.4-0.5,1-0.7,1.6-0.7c0.3,0,0.5,0.1,0.8,0.2c0.2,0.1,0.5,0.3,0.7,0.5V43z
		 M116.5,43.9c-0.4,0-0.7,0.1-0.9,0.4s-0.4,0.6-0.4,1c0,0.4,0.1,0.7,0.4,1c0.2,0.3,0.5,0.4,0.9,0.4c0.4,0,0.7-0.1,0.9-0.4
		c0.2-0.3,0.4-0.6,0.4-1c0-0.4-0.1-0.7-0.4-1C117.2,44.1,116.9,43.9,116.5,43.9z"/>
	<path class="st3" d="M120,41.2h1.2v6.5H120V41.2z"/>
	<path class="st3" d="M124.9,41.3h1.3c0.7,0,1.2,0.1,1.5,0.2s0.6,0.3,0.7,0.6c0.2,0.3,0.3,0.6,0.3,1c0,0.4-0.1,0.8-0.3,1.1
		s-0.5,0.5-0.9,0.6c-0.2,0.1-0.7,0.1-1.3,0.1v2.7h-1.2V41.3z M126.1,43.8h0.4c0.3,0,0.5,0,0.6-0.1c0.1,0,0.2-0.1,0.3-0.2
		c0.1-0.1,0.1-0.2,0.1-0.4c0-0.2-0.1-0.4-0.3-0.5c-0.1-0.1-0.4-0.1-0.8-0.1h-0.3V43.8z"/>
	<path class="st3" d="M129.4,43h1v0.6c0.1-0.2,0.3-0.4,0.4-0.5s0.4-0.2,0.6-0.2c0.2,0,0.3,0,0.5,0.1l-0.4,1
		c-0.1-0.1-0.3-0.1-0.3-0.1c-0.2,0-0.3,0.1-0.5,0.3c-0.1,0.2-0.2,0.7-0.2,1.3l0,0.2v1.9h-1.2V43z"/>
	<path class="st3" d="M134.8,42.9c0.4,0,0.9,0.1,1.3,0.3c0.4,0.2,0.7,0.5,0.9,0.9c0.2,0.4,0.3,0.8,0.3,1.2c0,0.4-0.1,0.9-0.3,1.2
		s-0.5,0.7-0.9,0.9c-0.4,0.2-0.8,0.3-1.3,0.3c-0.7,0-1.3-0.2-1.7-0.7c-0.5-0.5-0.7-1.1-0.7-1.8c0-0.7,0.3-1.4,0.8-1.8
		C133.6,43.1,134.2,42.9,134.8,42.9z M134.8,44c-0.4,0-0.7,0.1-0.9,0.4c-0.2,0.3-0.4,0.6-0.4,1c0,0.4,0.1,0.7,0.4,1
		c0.2,0.3,0.5,0.4,0.9,0.4c0.4,0,0.7-0.1,0.9-0.4c0.2-0.3,0.4-0.6,0.4-1c0-0.4-0.1-0.7-0.4-1C135.5,44.1,135.2,44,134.8,44z"/>
	<path class="st3" d="M139.4,43v0.5c0.2-0.2,0.4-0.4,0.7-0.5c0.2-0.1,0.5-0.2,0.8-0.2c0.6,0,1.1,0.2,1.6,0.7
		c0.4,0.5,0.6,1.1,0.6,1.8c0,0.7-0.2,1.3-0.7,1.8s-1,0.7-1.6,0.7c-0.3,0-0.5,0-0.8-0.1c-0.2-0.1-0.5-0.3-0.7-0.5v2.2h-1.2V43H139.4z
		 M140.7,43.9c-0.4,0-0.7,0.1-0.9,0.4c-0.2,0.3-0.4,0.6-0.4,1c0,0.4,0.1,0.8,0.4,1c0.2,0.3,0.6,0.4,0.9,0.4c0.4,0,0.7-0.1,0.9-0.4
		c0.2-0.3,0.4-0.6,0.4-1c0-0.4-0.1-0.7-0.4-1C141.3,44.1,141,43.9,140.7,43.9z"/>
	<path class="st3" d="M148.8,45.7H145c0.1,0.3,0.2,0.6,0.4,0.8c0.2,0.2,0.5,0.3,0.9,0.3c0.4,0,0.8-0.2,1.1-0.5l1,0.5
		c-0.2,0.4-0.5,0.6-0.9,0.8c-0.3,0.2-0.8,0.3-1.2,0.3c-0.7,0-1.3-0.2-1.8-0.7c-0.5-0.5-0.7-1.1-0.7-1.8c0-0.7,0.2-1.3,0.7-1.8
		s1-0.7,1.7-0.7c0.7,0,1.3,0.2,1.8,0.7c0.5,0.5,0.7,1.1,0.7,1.9L148.8,45.7z M147.7,44.7c-0.1-0.3-0.2-0.5-0.5-0.6s-0.5-0.2-0.8-0.2
		c-0.3,0-0.6,0.1-0.9,0.3c-0.2,0.1-0.3,0.3-0.4,0.6H147.7z"/>
	<path class="st3" d="M149.5,43h1v0.6c0.1-0.2,0.3-0.4,0.4-0.5s0.4-0.2,0.6-0.2c0.2,0,0.3,0,0.5,0.1l-0.4,1
		c-0.1-0.1-0.3-0.1-0.3-0.1c-0.2,0-0.3,0.1-0.5,0.3c-0.1,0.2-0.2,0.7-0.2,1.3l0,0.2v1.9h-1.2V43z"/>
	<path class="st3" d="M152.8,41.2h1.2V43h0.7v1H154v3.7h-1.2V44h-0.6v-1h0.6V41.2z"/>
	<path class="st3" d="M154.8,43h1.2l1.2,3l1.4-3h1.2l-3,6.4h-1.2l1-2.1L154.8,43z"/>
	<path class="st3" d="M166.4,43h1.2v4.7h-1.2v-0.5c-0.2,0.2-0.5,0.4-0.7,0.5c-0.2,0.1-0.5,0.1-0.8,0.1c-0.6,0-1.1-0.2-1.6-0.7
		c-0.4-0.5-0.7-1.1-0.7-1.8c0-0.7,0.2-1.3,0.6-1.8c0.4-0.5,1-0.7,1.6-0.7c0.3,0,0.5,0.1,0.8,0.2c0.2,0.1,0.5,0.3,0.7,0.5V43z
		 M165.2,43.9c-0.4,0-0.7,0.1-0.9,0.4s-0.4,0.6-0.4,1c0,0.4,0.1,0.7,0.4,1c0.2,0.3,0.5,0.4,0.9,0.4c0.4,0,0.7-0.1,0.9-0.4
		c0.2-0.3,0.4-0.6,0.4-1c0-0.4-0.1-0.7-0.4-1C165.9,44.1,165.6,43.9,165.2,43.9z"/>
	<path class="st3" d="M168.8,43h1.2v0.5c0.3-0.2,0.5-0.4,0.7-0.5c0.2-0.1,0.4-0.1,0.7-0.1c0.5,0,0.9,0.2,1.2,0.5
		c0.3,0.3,0.4,0.7,0.4,1.2v3.1h-1.2v-2.1c0-0.6,0-0.9-0.1-1.1c-0.1-0.2-0.1-0.3-0.3-0.4c-0.1-0.1-0.3-0.1-0.5-0.1
		c-0.2,0-0.4,0.1-0.6,0.2c-0.2,0.2-0.3,0.4-0.4,0.7c0,0.1-0.1,0.5-0.1,1v1.9h-1.2V43z"/>
	<path class="st3" d="M177.6,41.2h1.2v6.5h-1.2v-0.5c-0.2,0.2-0.5,0.4-0.7,0.5c-0.2,0.1-0.5,0.1-0.8,0.1c-0.6,0-1.1-0.2-1.6-0.7
		c-0.4-0.5-0.7-1.1-0.7-1.8c0-0.7,0.2-1.3,0.6-1.8c0.4-0.5,1-0.7,1.6-0.7c0.3,0,0.5,0.1,0.8,0.2c0.2,0.1,0.5,0.3,0.7,0.5V41.2z
		 M176.4,43.9c-0.4,0-0.7,0.1-0.9,0.4s-0.4,0.6-0.4,1c0,0.4,0.1,0.7,0.4,1c0.2,0.3,0.5,0.4,0.9,0.4c0.4,0,0.7-0.1,0.9-0.4
		s0.4-0.6,0.4-1c0-0.4-0.1-0.7-0.4-1C177.1,44.1,176.8,43.9,176.4,43.9z"/>
	<path class="st3" d="M188.5,42.4l-0.8,0.8c-0.6-0.6-1.2-0.9-2-0.9c-0.6,0-1.1,0.2-1.5,0.6c-0.4,0.4-0.6,0.9-0.6,1.5
		c0,0.4,0.1,0.8,0.3,1.1s0.4,0.6,0.8,0.8c0.3,0.2,0.7,0.3,1.1,0.3c0.4,0,0.7-0.1,1-0.2s0.6-0.4,1-0.7l0.8,0.9
		c-0.5,0.5-0.9,0.8-1.3,1c-0.4,0.2-0.9,0.3-1.4,0.3c-1,0-1.8-0.3-2.4-0.9s-0.9-1.4-0.9-2.4c0-0.6,0.1-1.2,0.4-1.7
		c0.3-0.5,0.7-0.9,1.2-1.2s1.1-0.5,1.7-0.5c0.5,0,1,0.1,1.5,0.3C187.7,41.7,188.1,42,188.5,42.4z"/>
	<path class="st3" d="M191.6,42.9c0.4,0,0.9,0.1,1.3,0.3s0.7,0.5,0.9,0.9s0.3,0.8,0.3,1.2c0,0.4-0.1,0.9-0.3,1.2
		c-0.2,0.4-0.5,0.7-0.9,0.9s-0.8,0.3-1.3,0.3c-0.7,0-1.3-0.2-1.7-0.7s-0.7-1.1-0.7-1.8c0-0.7,0.3-1.4,0.8-1.8
		C190.5,43.1,191,42.9,191.6,42.9z M191.7,44c-0.4,0-0.7,0.1-0.9,0.4s-0.4,0.6-0.4,1c0,0.4,0.1,0.7,0.4,1c0.2,0.3,0.5,0.4,0.9,0.4
		c0.4,0,0.7-0.1,0.9-0.4c0.2-0.3,0.4-0.6,0.4-1c0-0.4-0.1-0.7-0.4-1S192,44,191.7,44z"/>
	<path class="st3" d="M195.1,43h1.2v0.5c0.2-0.2,0.4-0.4,0.7-0.5c0.2-0.1,0.5-0.2,0.8-0.2c0.3,0,0.6,0.1,0.8,0.2
		c0.2,0.1,0.4,0.4,0.6,0.6c0.2-0.3,0.4-0.5,0.7-0.6c0.3-0.1,0.6-0.2,0.9-0.2c0.3,0,0.6,0.1,0.9,0.2s0.4,0.4,0.5,0.6
		c0.1,0.3,0.2,0.7,0.2,1.2v2.8h-1.2v-2.4c0-0.5-0.1-0.9-0.2-1.1c-0.1-0.2-0.3-0.3-0.6-0.3c-0.2,0-0.4,0.1-0.5,0.2
		c-0.2,0.1-0.3,0.3-0.4,0.5c-0.1,0.2-0.1,0.5-0.1,1v2.1h-1.2v-2.3c0-0.4,0-0.7-0.1-0.9s-0.2-0.3-0.3-0.4s-0.3-0.1-0.5-0.1
		c-0.2,0-0.4,0.1-0.5,0.2s-0.3,0.3-0.4,0.5c-0.1,0.2-0.1,0.5-0.1,1v2.1h-1.2V43z"/>
	<path class="st3" d="M203.4,43h1.2v0.5c0.2-0.2,0.4-0.4,0.7-0.5c0.2-0.1,0.5-0.2,0.8-0.2c0.3,0,0.6,0.1,0.8,0.2
		c0.2,0.1,0.4,0.4,0.6,0.6c0.2-0.3,0.4-0.5,0.7-0.6c0.3-0.1,0.6-0.2,0.9-0.2c0.3,0,0.6,0.1,0.9,0.2s0.4,0.4,0.5,0.6
		c0.1,0.3,0.2,0.7,0.2,1.2v2.8h-1.2v-2.4c0-0.5-0.1-0.9-0.2-1.1c-0.1-0.2-0.3-0.3-0.6-0.3c-0.2,0-0.4,0.1-0.5,0.2
		c-0.2,0.1-0.3,0.3-0.4,0.5c-0.1,0.2-0.1,0.5-0.1,1v2.1h-1.2v-2.3c0-0.4,0-0.7-0.1-0.9s-0.2-0.3-0.3-0.4s-0.3-0.1-0.5-0.1
		c-0.2,0-0.4,0.1-0.5,0.2s-0.3,0.3-0.4,0.5c-0.1,0.2-0.1,0.5-0.1,1v2.1h-1.2V43z"/>
	<path class="st3" d="M216.5,45.7h-3.8c0.1,0.3,0.2,0.6,0.4,0.8c0.2,0.2,0.5,0.3,0.9,0.3c0.4,0,0.8-0.2,1.1-0.5l1,0.5
		c-0.2,0.4-0.5,0.6-0.9,0.8c-0.3,0.2-0.8,0.3-1.2,0.3c-0.7,0-1.3-0.2-1.8-0.7c-0.5-0.5-0.7-1.1-0.7-1.8c0-0.7,0.2-1.3,0.7-1.8
		c0.5-0.5,1-0.7,1.7-0.7c0.7,0,1.3,0.2,1.8,0.7c0.5,0.5,0.7,1.1,0.7,1.9L216.5,45.7z M215.4,44.7c-0.1-0.3-0.2-0.5-0.5-0.6
		c-0.2-0.2-0.5-0.2-0.8-0.2c-0.3,0-0.6,0.1-0.9,0.3c-0.2,0.1-0.3,0.3-0.4,0.6H215.4z"/>
	<path class="st3" d="M217.2,43h1v0.6c0.1-0.2,0.3-0.4,0.4-0.5s0.4-0.2,0.6-0.2c0.2,0,0.3,0,0.5,0.1l-0.4,1
		c-0.1-0.1-0.3-0.1-0.3-0.1c-0.2,0-0.3,0.1-0.5,0.3c-0.1,0.2-0.2,0.7-0.2,1.3l0,0.2v1.9h-1.2V43z"/>
	<path class="st3" d="M225,43.9l-1,0.5c-0.2-0.2-0.4-0.3-0.5-0.4S223,44,222.8,44c-0.4,0-0.8,0.1-1.1,0.4c-0.3,0.3-0.4,0.6-0.4,1
		c0,0.4,0.1,0.7,0.4,1c0.3,0.3,0.6,0.4,1,0.4c0.5,0,0.9-0.2,1.2-0.5l0.9,0.6c-0.5,0.7-1.2,1-2.1,1c-0.8,0-1.5-0.2-2-0.7
		c-0.5-0.5-0.7-1.1-0.7-1.7c0-0.5,0.1-0.9,0.3-1.3c0.2-0.4,0.5-0.7,1-0.9s0.9-0.3,1.4-0.3c0.5,0,0.9,0.1,1.3,0.3
		S224.7,43.6,225,43.9z"/>
	<path class="st3" d="M226.5,41c0.2,0,0.4,0.1,0.5,0.2s0.2,0.3,0.2,0.5c0,0.2-0.1,0.4-0.2,0.5c-0.1,0.1-0.3,0.2-0.5,0.2
		c-0.2,0-0.4-0.1-0.5-0.2c-0.1-0.2-0.2-0.3-0.2-0.6c0-0.2,0.1-0.4,0.2-0.5C226.1,41.1,226.3,41,226.5,41z M225.9,43h1.2v4.7h-1.2V43
		z"/>
	<path class="st3" d="M231.6,43h1.2v4.7h-1.2v-0.5c-0.2,0.2-0.5,0.4-0.7,0.5c-0.2,0.1-0.5,0.1-0.8,0.1c-0.6,0-1.1-0.2-1.6-0.7
		c-0.4-0.5-0.7-1.1-0.7-1.8c0-0.7,0.2-1.3,0.6-1.8c0.4-0.5,1-0.7,1.6-0.7c0.3,0,0.5,0.1,0.8,0.2c0.2,0.1,0.5,0.3,0.7,0.5V43z
		 M230.4,43.9c-0.4,0-0.7,0.1-0.9,0.4s-0.4,0.6-0.4,1c0,0.4,0.1,0.7,0.4,1c0.2,0.3,0.5,0.4,0.9,0.4c0.4,0,0.7-0.1,0.9-0.4
		s0.4-0.6,0.4-1c0-0.4-0.1-0.7-0.4-1C231.1,44.1,230.8,43.9,230.4,43.9z"/>
	<path class="st3" d="M233.9,41.2h1.2v6.5h-1.2V41.2z"/>
	<path class="st3" d="M244.6,42.4l-0.8,0.8c-0.6-0.6-1.2-0.9-2-0.9c-0.6,0-1.1,0.2-1.5,0.6c-0.4,0.4-0.6,0.9-0.6,1.5
		c0,0.4,0.1,0.8,0.3,1.1s0.4,0.6,0.8,0.8c0.3,0.2,0.7,0.3,1.1,0.3c0.4,0,0.7-0.1,1-0.2s0.6-0.4,1-0.7l0.8,0.9
		c-0.5,0.5-0.9,0.8-1.3,1c-0.4,0.2-0.9,0.3-1.4,0.3c-1,0-1.8-0.3-2.4-0.9s-0.9-1.4-0.9-2.4c0-0.6,0.1-1.2,0.4-1.7
		c0.3-0.5,0.7-0.9,1.2-1.2s1.1-0.5,1.7-0.5c0.5,0,1,0.1,1.5,0.3C243.9,41.7,244.3,42,244.6,42.4z"/>
	<path class="st3" d="M247.8,42.9c0.4,0,0.9,0.1,1.3,0.3s0.7,0.5,0.9,0.9s0.3,0.8,0.3,1.2c0,0.4-0.1,0.9-0.3,1.2
		c-0.2,0.4-0.5,0.7-0.9,0.9s-0.8,0.3-1.3,0.3c-0.7,0-1.3-0.2-1.7-0.7s-0.7-1.1-0.7-1.8c0-0.7,0.3-1.4,0.8-1.8
		C246.6,43.1,247.2,42.9,247.8,42.9z M247.8,44c-0.4,0-0.7,0.1-0.9,0.4s-0.4,0.6-0.4,1c0,0.4,0.1,0.7,0.4,1c0.2,0.3,0.5,0.4,0.9,0.4
		c0.4,0,0.7-0.1,0.9-0.4c0.2-0.3,0.4-0.6,0.4-1c0-0.4-0.1-0.7-0.4-1S248.2,44,247.8,44z"/>
	<path class="st3" d="M251.2,43h1.2v2.3c0,0.4,0,0.7,0.1,0.9c0.1,0.2,0.2,0.3,0.3,0.4c0.1,0.1,0.3,0.1,0.5,0.1s0.4,0,0.5-0.1
		c0.1-0.1,0.2-0.2,0.3-0.4c0-0.1,0.1-0.4,0.1-0.9V43h1.2v2c0,0.8-0.1,1.4-0.2,1.7c-0.2,0.4-0.4,0.7-0.7,0.9s-0.7,0.3-1.2,0.3
		c-0.5,0-0.9-0.1-1.3-0.3c-0.3-0.2-0.5-0.6-0.7-1c-0.1-0.3-0.1-0.8-0.1-1.6V43z"/>
	<path class="st3" d="M256.3,43h1v0.6c0.1-0.2,0.3-0.4,0.4-0.5s0.4-0.2,0.6-0.2c0.2,0,0.3,0,0.5,0.1l-0.4,1
		c-0.1-0.1-0.3-0.1-0.3-0.1c-0.2,0-0.3,0.1-0.5,0.3c-0.1,0.2-0.2,0.7-0.2,1.3l0,0.2v1.9h-1.2V43z"/>
	<path class="st3" d="M259.6,41.2h1.2V43h0.7v1h-0.7v3.7h-1.2V44H259v-1h0.6V41.2z"/>
</g>
</svg>
