<?xml version="1.0" encoding="utf-8"?>
<!-- Generator: Adobe Illustrator 24.0.2, SVG Export Plug-In . SVG Version: 6.00 Build 0)  -->
<svg version="1.1" id="圖層_1" xmlns="http://www.w3.org/2000/svg" xmlns:xlink="http://www.w3.org/1999/xlink" x="0px" y="0px"
	 viewBox="0 0 222 64" style="enable-background:new 0 0 222 64;" xml:space="preserve">
<style type="text/css">
	.st0{fill:#333333;}
	.st1{fill:none;stroke:#FFFFFF;stroke-width:0.25;stroke-miterlimit:10;}
	.st2{fill:#FFFFFF;}
	.st3{fill:url(#SVGID_1_);}
	.st4{fill:#005BAB;}
	.st5{fill:#B7A246;}
</style>
<g>
	<path class="st0" d="M90,17.9v6.2c0,0.6-0.5,0.7-0.9,0.8c-0.5,0.2-0.8,0.2-1,0.1L88,24.9v-1.7h-3.6v0.9c0,0.2-0.1,0.4-0.2,0.5
		c-0.7,0.4-1.1,0.6-1.4,0.6c-0.2,0-0.3-0.1-0.3-0.3c0-1.7,0.1-2.7,0.1-4.4c-0.1,0.1-0.3,0.1-0.5,0.1h-4.9c-0.1,0.3-0.1,0.5-0.2,0.8
		c0.4,0.2,1,0.2,1.4,0.4c1,0.4,2,0.5,2.7,1.4c0.2,0.6,0.2,1.4-0.2,1.8c-0.2,0.2-0.6,0.4-0.9,0.2c-0.5-0.4-0.8-1-1.2-1.5
		c-0.6-0.8-1.3-1.4-2.1-1.8c-1.3,2.9-4.5,4.4-7.3,5.3l-0.2-0.4c1.9-1.1,3.9-2.5,5.2-4.3c0.4-0.6,0.6-1.3,0.8-1.9h-0.3h-3.8
		c-0.4,0-0.9,0.1-1.2,0.2l-0.6-0.9h5.9c0.2-0.9,0.2-1.8,0.2-3H74c-0.7,1-1.6,1.8-2.5,2.7l-0.3-0.3c1.3-2,2.1-4.2,2.4-6.5
		c0.9,0.3,1.7,0.7,2.5,1.2c0.1,0.1,0.2,0.2,0.1,0.4c-0.2,0.2-0.6,0.2-0.8,0.4c-0.2,0.5-0.5,1-0.9,1.4h4.2l0.8-1.3
		c0.1-0.2,0.4-0.1,0.5,0l1.6,1.6c0.1,0.1,0.1,0.4,0,0.4h-0.1h-4c-0.1,1-0.2,2-0.4,3h2l0.9-1.4c0.1-0.1,0.3-0.1,0.4,0
		c0.6,0.5,1.1,1.1,1.7,1.7l0.1,0.1V17l-0.1-1.8c0.5,0.2,1.4,0.7,2.1,1.1h3.1l1-1c0.1-0.1,0.3,0,0.4,0.1c0.6,0.3,1.1,0.7,1.7,1.1
		c0.2,0.1,0.2,0.4,0.1,0.5C90.2,17.4,90,17.7,90,17.9z M88.1,26.5c-0.2,0.2-0.7,0.6-0.7,0.8v0.5l0.1,7.1c0,0.2,0,0.4-0.1,0.5
		c-0.4,0.2-1.1,0.6-1.8,0.7c-0.1,0-0.3-0.1-0.3-0.3v-1.1v-1h-8.5V35c0,0.2-0.2,0.4-0.4,0.5c-0.4,0.3-1,0.5-1.5,0.6
		c-0.2,0-0.3-0.1-0.3-0.3l0.1-3.2v-6.7c0-0.3-0.1-0.7-0.1-1c0.8,0.2,1.5,0.7,2.3,1h8l0.8-1c0.1-0.1,0.3-0.1,0.5,0
		c0.7,0.4,1.1,0.8,1.8,1.3C88.2,26.2,88.2,26.4,88.1,26.5z M85.2,26.6h-8.5v2.7h8.5V26.6z M85.2,30.1h-8.5V33h8.5V30.1z M88,17h-3.6
		v5.5H88V17z"/>
	<path class="st0" d="M117,26.3h-3.6v2.8c0,0.2-0.1,0.3-0.3,0.4c-0.3,0.2-0.9,0.5-1.3,0.5c-0.2,0-0.4,0-0.4-0.2v-1h-0.3h-10.5
		c-0.4,0-1.2,0.1-1.7,0.2l-0.5-0.9h13v-1.8H97.1c-0.5,0-1,0.1-1.5,0.2l-0.5-0.9h16.3v-1.2h-11c-0.5,0-1,0.1-1.5,0.2l-0.6-0.9h13
		l0.9-0.9c0.1-0.1,0.4-0.2,0.6,0c0.5,0.3,0.7,0.5,1.2,0.9c0.3,0.3-0.4,0.7-0.4,1v0.9h0.7l1-1c0.1-0.1,0.4-0.2,0.6,0l1.4,1.2
		c0.1,0.1,0.1,0.2,0.1,0.4L117,26.3z M98.3,34.8c-0.6,0.5-1.7,0.4-2.4,0.1c-0.2-0.1-0.4-0.3-0.4-0.5c-0.1-0.3,0-0.5,0.2-0.7
		c1.4-0.8,3.3-2,3.5-3.8l0.4,0.1C99.7,31.6,99.8,33.6,98.3,34.8z M106.4,21.7l-0.1,0.1h-3.4v0.5c0,0.1-0.1,0.2-0.2,0.3
		c-0.4,0.2-0.9,0.5-1.4,0.6c-0.3,0.1-0.4-0.1-0.4-0.2v-1.2H98c-0.3,0-0.6,0.1-1.1,0.2l-0.5-1h4.6v-2h-2c-0.4,0-0.8,0.1-1.3,0.2
		l-0.6-1h3.9v-1.9h-2.5c-0.5,0-0.9,0.1-1.4,0.2l-0.5-0.9h4.5v-0.9c0-0.7,0-0.9-0.1-1.8c0.8,0.2,1.7,0.4,2.6,0.7
		c0.1,0.1,0.2,0.2,0.1,0.4c-0.3,0.3-0.7,0.3-0.7,0.5v1.1h1l0.7-1.1c0-0.1,0.2-0.1,0.4,0c0.5,0.4,1,0.9,1.5,1.4c0,0.1,0.1,0.3,0,0.4
		l-0.1,0.1h-3.6v1.9h0.8l0.6-1c0-0.1,0.2-0.1,0.4,0c0.5,0.5,1.1,0.8,1.5,1.3c0.1,0.1,0.1,0.4-0.1,0.4h-3.2v2h0.9l0.8-1.1
		c0.1-0.1,0.4-0.1,0.5,0c0.2,0.2,0.5,0.5,0.8,0.8l0.7,0.7C106.6,21.5,106.5,21.7,106.4,21.7z M110.6,35.1c-1.1,0.4-2.5,0.3-3.8,0.3
		c-2.9,0-3.8,0.1-4.9-0.7c-0.5-0.5-0.5-1.6-0.5-3.1c0-0.9,0-1.5-0.1-2.5c0.9,0.2,1.7,0.4,2.5,0.6c0.1,0,0.2,0.1,0.2,0.2
		c0.1,0.5-0.8,0.3-0.8,0.8c0,1.6,0,2.1,0.1,2.4c0.1,0.2,0.5,0.3,0.8,0.4c1.5,0.1,3.1,0,4.6-0.1c0.4,0,0.6-0.1,0.8-0.5
		c0.3-1.2,0.5-1.8,0.8-3.2h0.4c0.1,0.9,0.1,1.9,0.4,2.8c0.2,0.3,0.5,0.5,0.8,0.7C111.8,34,111.3,34.9,110.6,35.1z M106.7,32.7
		c-0.4-0.2-0.4-0.7-0.5-1.3c-0.2-0.7-0.6-1.3-1.1-1.8l0.2-0.4c0.9,0.2,1.9,0.5,2.7,1.3c0.3,0.4,0.3,0.8,0.1,1.2
		C107.8,32.4,107.2,32.8,106.7,32.7z M117,21.8h-5.8v0.6c0,0.2-0.2,0.3-0.4,0.4c-0.6,0.2-0.9,0.4-1.4,0.4c-0.1,0-0.2-0.1-0.2-0.3
		v-1.1h-0.9c-0.3,0-0.7,0.1-1,0.1l-0.6-0.8h2.6v-2h-0.9c-0.4,0-0.6,0.1-1,0.1l-0.5-0.8h2.5v-1.9h-0.9c-0.4,0-0.8,0.2-1.1,0.2
		l-0.6-0.9h2.6c0-1.3,0-1.8-0.1-2.7c0.9,0.2,1.8,0.5,2.6,0.8c0.1,0,0.1,0.3,0.1,0.4c-0.2,0.2-0.6,0.3-0.6,0.6v0.9h2.1l0.8-1
		c0-0.1,0.3-0.2,0.5,0c0.5,0.4,0.9,0.7,1.5,1.4c0.1,0.1,0,0.4-0.1,0.4h-0.3h-4.7v1.9h1.5l0.9-1.1c0-0.1,0.2-0.1,0.4,0
		c0.6,0.5,1,0.8,1.6,1.4c0.1,0.2,0,0.4-0.2,0.4h-4.2v2h2.9l0.8-1.1c0.2-0.2,0.4-0.2,0.6,0c0.5,0.5,0.8,0.6,1.5,1.4
		C117.2,21.6,117.2,21.8,117,21.8z M116.2,34.9c-0.1,0.1-0.4,0.1-0.4-0.1c-0.4-0.5-0.7-1.1-1.1-1.6c-0.7-1-1.6-2-2.6-2.6l0.2-0.4
		c1.5,0.4,3.1,0.8,4.3,1.9c0.3,0.4,0.7,0.9,0.5,1.5C116.9,34,116.6,34.6,116.2,34.9z"/>
	<path class="st0" d="M126.3,31.1c-1.8,1.5-3.5,3-5.5,4.1l-0.4-0.2c1.8-1.8,3.4-3.8,4.5-5.9c0.7,0.5,1,0.7,1.6,1.1
		c0.1,0.2,0.7,0.4,0.5,0.7C126.8,31.1,126.5,31,126.3,31.1z M130.8,16.4v1.4v7.9c0,0.8,0,1.4,0.1,2.7c0,0.2-0.1,0.4-0.3,0.4
		l-1.4,0.5c-0.1,0-0.4,0-0.4-0.2v-0.8h-4.6v0.6c0,0.2-0.1,0.3-0.3,0.4c-0.7,0.3-1.3,0.4-1.6,0.5c-0.1,0-0.2-0.1-0.2-0.1l0.1-2.3
		l0.1-3.7v-7.1l-0.1-2.5c0.8,0.3,1.6,0.6,2.3,1h4.2l0.8-1c0.1-0.1,0.3-0.1,0.5,0c0.5,0.3,0.9,0.6,1.7,1.1c0.1,0.1,0.1,0.3,0,0.4
		C131.4,15.8,130.8,15.9,130.8,16.4z M128.9,15.7h-4.6V19h4.6V15.7z M128.9,19.7h-4.6V23h4.6V19.7z M128.9,23.9h-4.6v3.6h4.6V23.9z
		 M131.9,34.4c-0.2,0.2-0.4,0.2-0.6,0.1c-0.6-0.9-1.3-1.9-2.1-2.7c-0.5-0.5-1.1-1-1.7-1.4c0-0.2,0.1-0.3,0.1-0.5
		c1.3,0.3,2.5,0.8,3.6,1.4c0.5,0.4,1.2,0.8,1.2,1.4C132.5,33.4,132.2,34,131.9,34.4z M143.2,20h-3.5v12.7c0,0.9-0.1,1.8-1,2.3
		c-0.6,0.3-1.2,0.7-1.9,0.8c-0.3-1.4-1.8-2.4-3.1-2.6l0.1-0.5c1.1,0.2,2.2,0.4,3.4,0.3c0.3,0,0.4-0.5,0.4-0.9v-9.4
		c-1.7,3-4.2,5.6-7,8c-0.1,0-0.2-0.1-0.4-0.2c2.7-3.1,5-6.5,6-10.4h-3.1c-0.5,0-1,0.1-1.5,0.1l-0.7-0.9h6.7v-3.5l-0.2-3
		c0.9,0.2,1.8,0.4,2.7,0.8c0.1,0.1,0.2,0.3,0.1,0.4c-0.3,0.2-0.5,0.3-0.6,0.6v4.7h0.4l1-1.3c0.1-0.1,0.3-0.1,0.4-0.1
		c0.7,0.6,1.3,1,1.9,1.8C143.5,19.8,143.4,20,143.2,20z"/>
	<path class="st0" d="M145.7,35.6c1.6-2.5,2.6-5.2,2.6-8.3v-4l-0.1-2.2c0.9,0.4,1.7,0.8,2.5,1.2h12.4c-1.4-0.8-2.9-1.6-4.4-2.3
		c-0.5,0.1-1.1,0.4-1.6,0.6c-1.9,0.7-4,1.1-6.1,1.5l-0.1-0.5c2-0.5,4.2-1.4,6-2.3l-0.1-0.1c-1.7-0.6-3.5-1.1-5.4-1.5l0.2-0.5
		c2.3,0.3,4.6,0.7,6.8,1.2c0.8-0.4,1.5-1,2.3-1.7l-10.4-0.1c-0.7,0-1.1,0.1-1.9,0.2l-0.5-0.9h9.2c-0.4-1-0.9-2-1.8-2.7l0.2-0.4
		c1.1,0.3,2.6,0.5,3.3,1.2c0.1,0.2,0.2,0.6,0.1,0.9c-0.1,0.3-0.3,0.6-0.5,0.9h5.3l1.1-1.5c0.1-0.1,0.4-0.1,0.5,0
		c0.9,0.8,1.3,1.1,2,1.7c0,0.1,0,0.2,0,0.4l-0.2,0.1h-4.8c0.3,0.3,0.8,0.5,1.1,0.9c0,0.1,0,0.3-0.2,0.3c-1.4,0.1-1.7,0.6-2.7,1.1
		c1.1,0.4,2.5,0.7,3.1,1.5c0.3,0.4,0.5,0.9,0.2,1.4c-0.1,0.1-0.2,0.3-0.4,0.3h1.1l1.1-1.4c0.1-0.1,0.4-0.1,0.6,0
		c0.7,0.5,1.1,0.9,1.9,1.7c0.1,0.1,0,0.4-0.2,0.4h-17.6c-0.1,1.9,0,4-0.4,6c-0.4,2.7-1.9,5-3.9,6.9L145.7,35.6z M157.4,33.9v-3.4
		h-3.3c-0.7,0-1.1,0.1-1.7,0.3l-0.5-1h5.5v-2.7h-3.7c-1,1.2-2.2,2.4-3.4,3.4l-0.2-0.2c1.5-2,2.7-4.5,3.2-6.9
		c0.8,0.4,1.6,0.7,2.4,1.1c0.1,0.1,0.1,0.3,0,0.4c-0.2,0.1-0.4,0.2-0.6,0.3l-0.9,1.2h3.2c0-1.4,0-2.1,0-3.3c1,0.2,2,0.5,2.8,0.9
		c0.4,0.4-0.6,0.6-0.6,1.1v1.3h3.6l1-1.3c0.1-0.1,0.4-0.1,0.5,0c0.7,0.5,1.2,1,1.8,1.6c0.1,0.1,0.1,0.3,0,0.4h-0.1h-6.8v2.7h3
		l1.1-1.5c0.1-0.1,0.4-0.1,0.5,0c0.8,0.8,1.2,1.2,2,1.9c0.1,0.2,0,0.3-0.2,0.3h-6.5v3.4h5.5l1.1-1.4c0.1-0.1,0.4-0.1,0.5,0l1.9,1.7
		c0,0.1,0.1,0.2,0,0.3l-0.1,0.1h-16.8c-0.6,0-1.3,0.1-1.9,0.3l-0.6-1C149.1,33.9,157.4,33.9,157.4,33.9z"/>
	<path class="st0" d="M194.2,25.1h-8.5c0.6,0.5,1,0.8,1.6,1.3c0.1,0.2-0.1,0.4-0.3,0.5l-1,0.4c-1.5,1.9-3.1,3.6-4.8,5.2l3.7-0.2
		l3.9-0.4l0.6-0.1c-0.5-1.2-1.1-2.4-2.1-3.4l0.3-0.3c1.6,0.9,3.1,2.1,4.4,3.5c0.7,0.8,1,1.9,0.7,2.9c-0.2,0.5-0.7,1.1-1.3,1.3
		c-0.2,0-0.4,0-0.5-0.2c-0.3-0.8-0.5-1.6-0.8-2.4c-0.1-0.2-0.1-0.5-0.2-0.6l-0.9,0.2l-4.6,1.1c-1.5,0.3-2.4,0.5-3.8,1
		c-0.1,0.6-0.6,0.6-0.8,0.2l-0.9-2.2c-0.1-0.5,0.6-0.5,0.8-0.7c1.4-0.9,2.2-2.4,3.1-3.7c0.8-1.1,1.4-2.3,2-3.5H181
		c-0.5,0-1.3,0.2-1.9,0.3l-0.7-0.9l-1.2,4.2c-0.4,0.9-0.3,2.1-0.2,3c0.1,1.3,0.8,2.8,0,4c-0.2,0.3-0.5,0.3-0.8,0.3
		c-0.7-0.3-1.4-0.9-1.7-1.6c-0.3-0.9,0.1-1.6,0.3-2.4c0.1-0.6,0.2-0.9,0-1.4c-0.3-1.3-1.7-1.5-2.8-1.9v-0.5c1.1,0,1.9,0.1,2.7-0.1
		c0.3-0.1,0.6-0.5,0.8-0.8c1.9-3.5,3.5-7.2,5-10.9l0.5,0.2c-0.2,0.8-0.6,1.6-0.8,2.4h4.5v-3.5l-0.1-2.3c1,0.2,2,0.6,3,1
		c0.1,0.1,0.2,0.3,0.1,0.4c-0.2,0.2-0.9,0.7-0.9,0.9V19h3l1.2-1.4c0.1-0.1,0.3-0.1,0.4,0c0.8,0.6,1.3,1.2,2,1.8c0,0.1,0.1,0.2,0,0.4
		l-0.2,0.1h-6.4v4.4h4l0.9-1.4c0.1-0.2,0.4-0.2,0.5,0c1,0.8,1.5,1.2,2.2,1.8C194.5,24.8,194.4,25.1,194.2,25.1z M175.2,24.2
		c-0.2,0-0.5,0-0.6-0.1c-0.4-0.7-0.7-1.4-0.9-2.1s-0.6-1.5-1.4-2.2l0.4-0.4c0.9,0.4,2.1,0.9,2.9,1.5c0.5,0.4,1,0.9,0.9,1.6
		C176.4,23.3,175.9,24,175.2,24.2z M178.4,18.4c-0.2,0.3-0.5,0.7-0.9,0.7c-0.2,0-0.4-0.1-0.5-0.2c-0.2-0.5-0.3-1-0.6-1.5
		c-0.5-1.1-0.8-1.9-1.7-3l0.4-0.4c1.1,0.5,2.7,1.2,3.5,2.2C179,16.9,178.8,17.8,178.4,18.4z M182.2,19.9c-0.4,0-1.1,0.1-1.7,0.3
		l-0.5-0.8c-0.6,1.6-1,3-1.7,4.9h6.2v-4.4H182.2z"/>
	<path class="st0" d="M205.4,16.3c-0.5,0.2-0.8,0.6-1,1.1c-0.7,1.3-1.5,2.6-2.3,3.9c1.7,1.6,3.7,3.3,3.3,5.8
		c-0.2,1.5-1.6,2.9-3.1,3.3c-0.1-1-0.7-2.2-1.8-2.6l0.1-0.5c0.9,0.3,2,0.8,2.5-0.3c0.7-2.1-0.6-4-2-5.6c0.7-1.7,1.3-3.6,1.8-5.4
		h-2.5v12.9l0.1,3.9v1.9c0,0.1,0,0.2-0.1,0.3c-0.5,0.3-1.1,0.6-1.7,0.8c-0.2,0-0.3,0-0.3-0.2c0-1.1,0.1-2.4,0.1-3.7v-4v-11l-0.2-2.6
		c0.7,0.3,1.2,0.6,2,1h2.3l0.7-0.9c0.1-0.1,0.3-0.1,0.4-0.1c0.6,0.4,1.2,0.8,1.8,1.4C205.7,16,205.6,16.2,205.4,16.3z M217.4,34.8
		c-1.3,0.1-2.5,0.1-3.7,0c-1-0.1-1.7-0.3-1.9-1.4c-0.2-0.9,0-1.7,0-3v-5.1h-1.6c-0.2,2.5-0.3,5.2-2.3,7.1c-1.7,1.6-3.8,2.4-6.1,2.9
		l-0.2-0.5c2.7-1,5.6-3,6.2-6.3c0.2-1,0.3-2.2,0.2-3.2h-0.3c-0.7,0-1,0.2-1.6,0.3l-0.5-1h9.6l1.3-1.5c0.1-0.2,0.3-0.1,0.5,0
		c0.6,0.4,1.4,1,2.2,1.7c0.2,0.3-0.1,0.5-0.2,0.5h-5.1v7.1c0.1,0.4,0.5,0.6,0.8,0.6c1,0,2.3,0.2,2.7-0.6c0.4-0.7,0.5-1.6,0.5-2.5
		L218,28h0.6c0,1.3,0,2.6,0.5,3.7c0.2,0.4,0.6,0.7,1,0.9C219.5,33.8,218.5,34.7,217.4,34.8z M218.1,18.2c-1,0.4-1.9,1.1-2.8,1.9
		c0.3,0.3,0.8,0.7,1.1,1.1c0.1,0.1,0,0.3-0.1,0.3h-7c-0.8,0-1.2,0.1-1.9,0.3l-0.6-1h6.2l1-1.4c0.2-0.3,0.4,0,0.7,0.2
		c0.5-0.8,0.6-1.1,0.9-1.7c0-0.1,0.2-0.4,0.2-0.5h-8.6c0.2,1,0.1,2.2-0.6,3c-0.5,0.5-1.1,0.6-1.8,0.5c-0.2,0-0.4-0.2-0.5-0.4
		c-0.3-0.6,0.4-1,0.7-1.4c0.8-0.9,1.3-2.2,1.3-3.5l0.3-0.1c0.2,0.3,0.4,0.8,0.5,1.1h3.5c-0.3-1.1-0.8-2.4-1.8-3.2l-0.2-0.2l0.2-0.3
		c0.3,0,0.8,0.1,1.2,0.1c0.7,0.1,1.6,0.5,2.1,0.8c0.4,0.3,0.8,0.7,0.7,1.2c-0.1,0.6-0.3,1-0.6,1.3l-0.2,0.2h3.8l0.9-1.1
		c0.1-0.1,0.3-0.1,0.5,0c0.7,0.6,1.2,1,1.9,1.7c0.1,0.1,0.2,0.2,0.1,0.4C218.9,18.1,218.4,18,218.1,18.2z"/>
</g>
<path class="st1" d="M134.3,41.9"/>
<g>
	<path class="st0" d="M73.7,44.6h0.8v7.9h-0.8V44.6z"/>
	<path class="st0" d="M76.5,46.7h0.8v1c0.3-0.4,0.6-0.7,1-0.9s0.8-0.3,1.2-0.3c0.4,0,0.8,0.1,1.2,0.3c0.3,0.2,0.6,0.5,0.7,0.9
		c0.2,0.4,0.2,1,0.2,1.8v3h-0.8v-2.8c0-0.7,0-1.1-0.1-1.3c-0.1-0.4-0.3-0.7-0.5-0.9s-0.6-0.3-1-0.3c-0.5,0-0.9,0.2-1.2,0.5
		c-0.4,0.3-0.6,0.7-0.7,1.1c-0.1,0.3-0.1,0.8-0.1,1.6v2.1h-0.8v-5.8C76.4,46.7,76.5,46.7,76.5,46.7z"/>
	<path class="st0" d="M84.1,44.5h0.8v2.2h1.2v0.7h-1.2v5.2h-0.8v-5.2h-1v-0.7h1V44.5z"/>
	<path class="st0" d="M92.4,50.6l0.6,0.3c-0.2,0.4-0.4,0.7-0.7,1c-0.3,0.2-0.6,0.4-0.9,0.6c-0.3,0.1-0.7,0.2-1.2,0.2
		c-1,0-1.7-0.3-2.2-0.9s-0.8-1.3-0.8-2.1c0-0.7,0.2-1.4,0.7-2c0.6-0.7,1.3-1.1,2.3-1.1s1.8,0.4,2.4,1.1c0.4,0.5,0.6,1.2,0.6,2h-5.3
		c0,0.7,0.2,1.2,0.7,1.7c0.4,0.4,0.9,0.7,1.6,0.7c0.3,0,0.6-0.1,0.9-0.2s0.5-0.2,0.7-0.4C91.9,51.3,92.2,51,92.4,50.6z M92.4,49
		c-0.1-0.4-0.2-0.7-0.4-1c-0.2-0.2-0.4-0.4-0.8-0.6c-0.3-0.1-0.6-0.2-1-0.2c-0.6,0-1.1,0.2-1.5,0.6c-0.3,0.3-0.5,0.7-0.7,1.2H92.4z"
		/>
	<path class="st0" d="M94.8,44.5h0.8v8.1h-0.8V44.5z"/>
	<path class="st0" d="M97.3,44.5h0.8v8.1h-0.8V44.5z"/>
	<path class="st0" d="M104.8,50.6l0.6,0.3c-0.2,0.4-0.4,0.7-0.7,1c-0.3,0.2-0.6,0.4-0.9,0.6c-0.3,0.1-0.7,0.2-1.2,0.2
		c-1,0-1.7-0.3-2.2-0.9s-0.8-1.3-0.8-2.1c0-0.7,0.2-1.4,0.7-2c0.6-0.7,1.3-1.1,2.3-1.1s1.8,0.4,2.4,1.1c0.4,0.5,0.6,1.2,0.6,2h-5.3
		c0,0.7,0.2,1.2,0.7,1.7c0.4,0.4,0.9,0.7,1.6,0.7c0.3,0,0.6-0.1,0.9-0.2s0.5-0.2,0.7-0.4C104.3,51.3,104.5,51,104.8,50.6z M104.8,49
		c-0.1-0.4-0.2-0.7-0.4-1c-0.2-0.2-0.4-0.4-0.8-0.6c-0.3-0.1-0.6-0.2-1-0.2c-0.6,0-1.1,0.2-1.5,0.6c-0.3,0.3-0.5,0.7-0.7,1.2H104.8z
		"/>
	<path class="st0" d="M112.9,47.9l-0.6,0.4c-0.5-0.7-1.2-1-2.1-1c-0.7,0-1.3,0.2-1.8,0.7s-0.7,1-0.7,1.7c0,0.4,0.1,0.8,0.3,1.2
		c0.2,0.4,0.5,0.7,0.9,0.9s0.8,0.3,1.3,0.3c0.9,0,1.6-0.3,2.1-1l0.6,0.4c-0.3,0.4-0.7,0.7-1.1,1c-0.5,0.2-1,0.3-1.6,0.3
		c-0.9,0-1.7-0.3-2.3-0.9s-0.9-1.3-0.9-2.1c0-0.6,0.1-1.1,0.4-1.6s0.7-0.9,1.2-1.1s1.1-0.4,1.7-0.4c0.4,0,0.8,0.1,1.1,0.2
		c0.4,0.1,0.7,0.3,0.9,0.5C112.5,47.4,112.8,47.6,112.9,47.9z"/>
	<path class="st0" d="M115.3,44.5h0.8v2.2h1.2v0.7h-1.2v5.2h-0.8v-5.2h-1v-0.7h1V44.5z"/>
	<path class="st0" d="M118.6,46.7h0.8v2.7c0,0.7,0,1.1,0.1,1.4c0.1,0.4,0.3,0.6,0.6,0.8c0.3,0.2,0.7,0.3,1.1,0.3s0.8-0.1,1.1-0.3
		c0.3-0.2,0.5-0.5,0.6-0.8c0.1-0.2,0.1-0.7,0.1-1.4v-2.7h0.8v2.9c0,0.8-0.1,1.4-0.3,1.8c-0.2,0.4-0.5,0.7-0.8,1
		c-0.4,0.2-0.9,0.3-1.4,0.3s-1-0.1-1.4-0.3s-0.7-0.6-0.9-1c-0.2-0.4-0.3-1-0.3-1.9L118.6,46.7L118.6,46.7z"/>
	<path class="st0" d="M131.4,46.7v5.8h-0.7v-1c-0.3,0.4-0.7,0.7-1.1,0.9c-0.4,0.2-0.8,0.3-1.3,0.3c-0.8,0-1.5-0.3-2.1-0.9
		c-0.6-0.6-0.9-1.3-0.9-2.2c0-0.8,0.3-1.6,0.9-2.2c0.6-0.6,1.3-0.9,2.1-0.9c0.5,0,0.9,0.1,1.3,0.3c0.4,0.2,0.7,0.5,1,0.9v-1.1h0.8
		V46.7z M128.4,47.3c-0.4,0-0.8,0.1-1.2,0.3c-0.4,0.2-0.6,0.5-0.8,0.9c-0.2,0.4-0.3,0.8-0.3,1.2s0.1,0.8,0.3,1.2
		c0.2,0.4,0.5,0.7,0.9,0.9s0.7,0.3,1.1,0.3c0.4,0,0.8-0.1,1.2-0.3s0.7-0.5,0.9-0.8c0.2-0.4,0.3-0.8,0.3-1.2c0-0.7-0.2-1.2-0.7-1.7
		S129.1,47.3,128.4,47.3z"/>
	<path class="st0" d="M133.3,44.5h0.8v8.1h-0.8V44.5z"/>
	<path class="st0" d="M139.3,44.6h1.6c0.9,0,1.5,0,1.8,0.1c0.5,0.1,0.8,0.3,1.1,0.7s0.4,0.8,0.4,1.3s-0.1,1-0.4,1.3
		s-0.7,0.6-1.2,0.7c-0.4,0.1-1,0.1-2,0.1H140v3.7h-0.8L139.3,44.6L139.3,44.6z M140.1,45.4v2.7h1.3c0.5,0,0.9,0,1.2-0.1
		s0.4-0.3,0.6-0.5s0.2-0.5,0.2-0.7c0-0.3-0.1-0.5-0.2-0.7c-0.1-0.2-0.3-0.4-0.6-0.5c-0.2-0.1-0.6-0.1-1.2-0.1h-1.3V45.4z"/>
	<path class="st0" d="M145.7,46.7h0.8v0.9c0.2-0.3,0.5-0.6,0.7-0.8c0.3-0.2,0.5-0.2,0.8-0.2c0.2,0,0.4,0.1,0.7,0.2l-0.4,0.6
		c-0.2-0.1-0.3-0.1-0.4-0.1c-0.3,0-0.5,0.1-0.7,0.3s-0.4,0.5-0.5,1c-0.1,0.3-0.1,1-0.1,2v2h-0.8v-5.9H145.7z"/>
	<path class="st0" d="M152.3,46.6c0.9,0,1.6,0.3,2.2,1c0.5,0.6,0.8,1.3,0.8,2.1s-0.3,1.5-0.9,2.1c-0.6,0.6-1.3,0.9-2.2,0.9
		s-1.6-0.3-2.2-0.9c-0.6-0.6-0.9-1.3-0.9-2.1s0.3-1.5,0.8-2.1C150.7,46.9,151.4,46.6,152.3,46.6z M152.3,47.3
		c-0.6,0-1.2,0.2-1.6,0.7s-0.7,1-0.7,1.7c0,0.4,0.1,0.8,0.3,1.2s0.5,0.6,0.8,0.8s0.7,0.3,1.1,0.3c0.4,0,0.8-0.1,1.1-0.3
		s0.6-0.5,0.8-0.8c0.2-0.4,0.3-0.8,0.3-1.2c0-0.7-0.2-1.2-0.7-1.7C153.5,47.5,153,47.3,152.3,47.3z"/>
	<path class="st0" d="M157.1,46.7h0.8v1.1c0.3-0.4,0.6-0.7,1-0.9s0.8-0.3,1.3-0.3c0.8,0,1.5,0.3,2.1,0.9c0.6,0.6,0.9,1.3,0.9,2.2
		s-0.3,1.6-0.9,2.2c-0.6,0.6-1.3,0.9-2.1,0.9c-0.5,0-0.9-0.1-1.3-0.3c-0.4-0.2-0.7-0.5-1.1-0.9v3.1H157v-8H157.1z M160.1,47.3
		c-0.6,0-1.2,0.2-1.6,0.7s-0.7,1-0.7,1.7c0,0.4,0.1,0.8,0.3,1.2s0.5,0.6,0.9,0.8s0.8,0.3,1.2,0.3s0.8-0.1,1.1-0.3s0.6-0.5,0.8-0.9
		s0.3-0.8,0.3-1.2s-0.1-0.8-0.3-1.2s-0.5-0.7-0.8-0.9C160.9,47.4,160.5,47.3,160.1,47.3z"/>
	<path class="st0" d="M169.8,50.6l0.6,0.3c-0.2,0.4-0.4,0.7-0.7,1c-0.3,0.2-0.6,0.4-0.9,0.6s-0.7,0.2-1.2,0.2c-1,0-1.7-0.3-2.2-0.9
		c-0.5-0.6-0.8-1.3-0.8-2.1c0-0.7,0.2-1.4,0.7-2c0.6-0.7,1.3-1.1,2.3-1.1s1.8,0.4,2.4,1.1c0.4,0.5,0.6,1.2,0.6,2h-5.3
		c0,0.7,0.2,1.2,0.7,1.7c0.4,0.4,0.9,0.7,1.6,0.7c0.3,0,0.6-0.1,0.9-0.2c0.3-0.1,0.5-0.2,0.7-0.4C169.3,51.3,169.5,51,169.8,50.6z
		 M169.8,49c-0.1-0.4-0.2-0.7-0.4-1c-0.2-0.2-0.4-0.4-0.8-0.6c-0.3-0.1-0.6-0.2-1-0.2c-0.6,0-1.1,0.2-1.5,0.6
		c-0.3,0.3-0.5,0.7-0.7,1.2H169.8z"/>
	<path class="st0" d="M172,46.7h0.8v0.9c0.2-0.3,0.5-0.6,0.7-0.8c0.3-0.2,0.5-0.2,0.8-0.2c0.2,0,0.4,0.1,0.7,0.2l-0.4,0.6
		c-0.2-0.1-0.3-0.1-0.4-0.1c-0.3,0-0.5,0.1-0.7,0.3s-0.4,0.5-0.5,1c-0.1,0.3-0.1,1-0.1,2v2h-0.8v-5.9H172z"/>
	<path class="st0" d="M176.5,44.5h0.8v2.2h1.2v0.7h-1.2v5.2h-0.8v-5.2h-1v-0.7h1V44.5z"/>
	<path class="st0" d="M179.2,46.7h0.8l2,4.5l2-4.5h0.8l-3.5,8h-0.8l1.1-2.6L179.2,46.7z"/>
	<path class="st0" d="M196.8,46.1l-0.6,0.5c-0.3-0.4-0.8-0.8-1.2-1c-0.5-0.2-1-0.3-1.6-0.3s-1.2,0.2-1.8,0.5s-1,0.7-1.2,1.2
		c-0.3,0.5-0.4,1.1-0.4,1.7c0,1,0.3,1.8,1,2.4c0.7,0.6,1.5,1,2.5,1c1.1,0,2-0.4,2.8-1.3l0.6,0.5c-0.4,0.5-0.9,0.9-1.5,1.2
		s-1.2,0.4-2,0.4c-1.4,0-2.5-0.5-3.3-1.4c-0.7-0.8-1-1.7-1-2.8c0-1.2,0.4-2.1,1.2-2.9c0.8-0.8,1.8-1.2,3-1.2c0.7,0,1.4,0.1,2,0.4
		C195.9,45.2,196.4,45.6,196.8,46.1z"/>
	<path class="st0" d="M201.3,46.6c0.9,0,1.6,0.3,2.2,1c0.5,0.6,0.8,1.3,0.8,2.1s-0.3,1.5-0.9,2.1c-0.6,0.6-1.3,0.9-2.2,0.9
		s-1.6-0.3-2.2-0.9s-0.9-1.3-0.9-2.1s0.3-1.5,0.8-2.1C199.7,46.9,200.4,46.6,201.3,46.6z M201.3,47.3c-0.6,0-1.2,0.2-1.6,0.7
		s-0.7,1-0.7,1.7c0,0.4,0.1,0.8,0.3,1.2s0.5,0.6,0.8,0.8s0.7,0.3,1.1,0.3s0.8-0.1,1.1-0.3s0.6-0.5,0.8-0.8c0.2-0.4,0.3-0.8,0.3-1.2
		c0-0.7-0.2-1.2-0.7-1.7S201.9,47.3,201.3,47.3z"/>
	<path class="st0" d="M205.9,46.7h0.8v2.7c0,0.7,0,1.1,0.1,1.4c0.1,0.4,0.3,0.6,0.6,0.8s0.7,0.3,1.1,0.3c0.4,0,0.8-0.1,1.1-0.3
		s0.5-0.5,0.6-0.8c0.1-0.2,0.1-0.7,0.1-1.4v-2.7h0.8v2.9c0,0.8-0.1,1.4-0.3,1.8c-0.2,0.4-0.5,0.7-0.8,1c-0.4,0.2-0.9,0.3-1.4,0.3
		c-0.6,0-1-0.1-1.4-0.3s-0.7-0.6-0.9-1s-0.3-1-0.3-1.9v-2.8H205.9z"/>
	<path class="st0" d="M212.7,46.7h0.8v0.9c0.2-0.3,0.5-0.6,0.7-0.8c0.3-0.2,0.5-0.2,0.8-0.2c0.2,0,0.4,0.1,0.7,0.2l-0.4,0.6
		c-0.2-0.1-0.3-0.1-0.4-0.1c-0.3,0-0.5,0.1-0.7,0.3s-0.4,0.5-0.5,1c-0.1,0.3-0.1,1-0.1,2v2h-0.8v-5.9H212.7z"/>
	<path class="st0" d="M217.2,44.5h0.8v2.2h1.2v0.7H218v5.2h-0.8v-5.2h-1v-0.7h1V44.5z"/>
</g>
<g>
	<circle class="st2" cx="31.9" cy="31.7" r="30.3"/>
</g>
<linearGradient id="SVGID_1_" gradientUnits="userSpaceOnUse" x1="31.9718" y1="27.1242" x2="31.9718" y2="3.8684" gradientTransform="matrix(1 0 0 1 0 34)">
	<stop  offset="0.6854" style="stop-color:#B7A246"/>
	<stop  offset="1" style="stop-color:#FFFFFF"/>
</linearGradient>
<path class="st3" d="M60.8,38.1c-3,13-14.9,23-28.8,23S6.1,50.9,3.1,37.8h7.4c2.8,9,11.5,16.1,21.5,16.1s18.6-6.8,21.4-15.8
	C53.4,38.1,60.8,38.1,60.8,38.1z"/>
<g>
	<path class="st4" d="M52.9,31.6c0,11.6-9.4,21-21,21s-21-9.4-21-21s9.4-21,21-21S52.9,20.1,52.9,31.6z"/>
</g>
<g>
	<path class="st2" d="M33.6,34.1h-0.5h-2.8v8.2c0,0.9,0.8,1.7,1.7,1.7s1.6-0.8,1.6-1.7V34.1z"/>
	<path class="st2" d="M34.8,44.3H29c-0.4,0-0.8,0.3-0.8,0.6v0.8c0,0.4,0.3,0.7,0.8,0.7h5.8c0.4,0,0.8-0.3,0.8-0.7V45
		C35.6,44.6,35.2,44.3,34.8,44.3z"/>
	<path class="st2" d="M35.9,47.2h-8c-0.6,0-1,0.3-1,0.7v0.8c0,0.4,0.4,0.7,1,0.7h8c0.6,0,1-0.3,1-0.7v-0.8
		C36.9,47.5,36.5,47.2,35.9,47.2z"/>
	<path class="st2" d="M48.2,23.6c0-0.3-0.2-0.5-0.4-0.6c-0.4-0.3-1-0.2-1.4,0.1c-1.1,1.1-2.7,1.7-4.4,1.7s-3.2-0.6-4.3-1.6
		c-1.5-1.3-3.5-2.1-5.7-2.1c-2.1,0-4.1,0.7-5.5,1.9l0,0l-0.2,0.2l0,0c-1.1,1.1-2.7,1.7-4.4,1.7c-1.7,0-3.3-0.6-4.4-1.7
		c-0.2-0.2-0.4-0.3-0.7-0.3c-0.2,0-0.5,0-0.7,0.2c-0.2,0.2-0.4,0.4-0.4,0.6l0,0v0.1c0,0.2,0.1,0.4,0.3,0.6c1.5,1.4,3.6,2.3,5.9,2.3
		c2.1,0,4-0.7,5.5-1.9l0,0l0,0l0.1-0.1c1.1-1.1,2.7-1.7,4.4-1.7s3.2,0.6,4.3,1.6c1.4,1.3,3.5,2.1,5.7,2.1c2.3,0,4.4-0.8,5.9-2.3
		C48.1,24.2,48.2,23.9,48.2,23.6C48.2,23.7,48.2,23.7,48.2,23.6z M48.2,23.6L48.2,23.6L48.2,23.6L48.2,23.6z"/>
	<path class="st2" d="M35.4,17.4c0,1.9-1.5,3.5-3.5,3.5c-1.9,0-3.4-1.5-3.4-3.5c0-1.9,1.5-3.5,3.4-3.5
		C33.8,13.9,35.4,15.5,35.4,17.4z"/>
	<path class="st2" d="M26.8,38.7l-5.3-12c-0.1-0.2-0.3-0.3-0.5-0.3s-0.4,0.1-0.5,0.4l0,0l-5.3,12c-0.1,0.2-0.1,0.4,0,0.6
		c1,1.9,3.3,3.2,5.8,3.2s4.8-1.2,5.8-3.2C26.9,39.2,26.9,38.9,26.8,38.7z M21,28.5c0.3,0.7,4.3,9.8,4.6,10.4h-9.2
		c0.2-0.5,3.1-7,3.1-7S20.7,29.1,21,28.5z"/>
	<path class="st2" d="M48.8,38.7l-5.3-12c-0.1-0.2-0.3-0.3-0.5-0.3s-0.4,0.1-0.5,0.4l0,0l-5.3,12c-0.1,0.2-0.1,0.4,0,0.6
		c1,1.9,3.3,3.2,5.8,3.2s4.8-1.2,5.8-3.2C48.9,39.2,48.9,38.9,48.8,38.7z M42.9,28.5c0.3,0.7,4.3,9.8,4.6,10.4h-9.2
		c0.2-0.4,2-4.5,2-4.5S42.6,29.2,42.9,28.5z"/>
	<path class="st2" d="M37.5,25.8c-1,0-0.9,0.9-0.9,0.9h-1.2v-0.5h-7v0.5h-1.2c0,0,0.1-0.9-0.9-0.9c0,0-0.8,0-0.8,1v4.4
		c0,1.1,0.8,1,0.8,1c1,0,0.9-0.9,0.9-0.9h1.2v0.5h1.8v1.6h3.3v-1.6h1.9v-0.5h1.2c0,0-0.1,0.9,0.9,0.9c0,0,0.8,0,0.8-1v-4.4
		C38.3,25.7,37.5,25.8,37.5,25.8z"/>
</g>
<g>
	<path class="st2" d="M18.2,56.5l-0.3-0.2l0.2-0.3l-2.7-1.8l-0.2,0.3l-0.3-0.2l1.2-1.8l3.2,2.1L18.2,56.5z M18.3,55.8l0.3-0.4
		l-2.7-1.8L15.6,54L18.3,55.8z M18.6,52.7l-1-0.7l-0.1,0.1c0.3,0.4,0.5,0.9,0.6,1.3l-0.2,0.1c-0.2-0.4-0.4-0.8-0.6-1.2
		c-0.5,0.2-1,0.2-1.5,0L15.7,52c0.7,0.2,1.2,0.2,1.6-0.1l-0.9-0.6l0.1-0.2l1,0.7c0.1-0.1,0.2-0.2,0.4-0.4L17.4,51
		c-0.2,0-0.4,0.1-0.6,0.1l-0.1-0.3c0.5,0,0.9-0.1,1.2-0.3l0.2,0.2c-0.2,0.1-0.3,0.1-0.3,0.1l1.3,0.9L19,52l-0.8-0.5
		c-0.1,0.2-0.2,0.3-0.4,0.4l0.9,0.6L18.6,52.7z M18.7,55.1l0.3-0.4l-2.7-1.8L16,53.3L18.7,55.1z M20,54.5l-1.6-1.1l1-1.5L21,53
		L20,54.5z M19.9,54.1l0.7-1l-1.1-0.7l-0.7,1L19.9,54.1z"/>
	<path class="st2" d="M21.2,56.8c-0.3,0.2-0.6,0.4-0.9,0.6l-0.2-0.2c0.4-0.2,0.6-0.3,0.9-0.6L21.2,56.8z M25.4,57.4l-0.5-0.2
		l-0.2,0.5l-3.9-1.4l0.1-0.2l3.6,1.3l0.1-0.3l-4-1.4l0.1-0.2l4,1.4l0.1-0.3l-3.6-1.3l0.1-0.2l3.9,1.4L25,57l0.5,0.2L25.4,57.4z
		 M23.7,54.2l-0.9-0.3l-0.1,0.3l0.8,0.3l-0.1,0.2l-0.8-0.3l-0.1,0.4l0.9,0.3l-0.1,0.2L22.4,55l-0.1,0.2L22,55.1l0.1-0.2L21,54.5
		l0.1-0.2l1.1,0.4l0.1-0.4L21.4,54l0.1-0.2l0.9,0.3l0.1-0.3l-1-0.4l0.1-0.2l1,0.4l0.1-0.3l0.3,0.1l-0.1,0.3l0.9,0.3L23.7,54.2z
		 M24,58.1c-0.1,0.3-0.3,0.4-0.4,0.5c-0.1,0-0.2,0.1-0.3,0.1c-0.1,0-0.4-0.1-1.1-0.4c-0.3-0.2-0.5-0.3-0.6-0.3s-0.1-0.1-0.2-0.2
		c0-0.1,0-0.2,0-0.3l0.2-0.6l0.3,0.1l-0.2,0.6c0,0.1,0,0.1,0.1,0.2c0.1,0,0.3,0.1,0.8,0.3c0.4,0.2,0.7,0.2,0.7,0.2
		c0.1,0,0.1,0,0.2,0s0.1-0.2,0.2-0.4L24,58.1z M23.2,57.7L23,57.8c-0.2-0.2-0.4-0.4-0.6-0.6l0.2-0.1C22.9,57.3,23,57.5,23.2,57.7z
		 M25.8,56.3l-1.1-0.4l-0.1,0.2L24.3,56l0.1-0.2l-0.9-0.3l0.1-0.2l0.9,0.3l0.1-0.4L23.9,55l0.1-0.2l0.7,0.3l0.1-0.3l-0.9-0.5
		l0.1-0.2l0.9,0.3l0.1-0.3l0.3,0.1l-0.1,0.3l1,0.4l-0.1,0.2l-1-0.4L25,55l0.9,0.3l-0.1,0.2l-0.9-0.2l-0.1,0.4l1.1,0.4L25.8,56.3z
		 M24.9,58.9L24.6,59c-0.1-0.4-0.2-0.7-0.4-1l0.3-0.1C24.7,58.2,24.8,58.5,24.9,58.9z"/>
	<path class="st2" d="M28.6,58.4l-1.2-0.1l0.1,0.1c-0.3,0.4-0.6,0.8-1,1.1l-0.2-0.2c0.4-0.3,0.7-0.6,1-1l-0.6-0.1L27,55l1.9,0.2
		L28.6,58.4z M28.3,58.1l0.1-0.7l-1.3-0.1L27,58L28.3,58.1z M28.4,57.1l0.1-0.7l-1.3-0.1L27.1,57L28.4,57.1z M28.5,56.1l0.1-0.7
		l-1.3-0.1L27.2,56L28.5,56.1z M28.7,59.5l-0.3,0.1c-0.1-0.3-0.3-0.6-0.6-1l0.3-0.1C28.3,58.8,28.5,59.1,28.7,59.5z M31.7,56.5
		l-0.5-0.1l-0.3,3.1c0,0.1-0.1,0.2-0.1,0.3c-0.1,0.1-0.2,0.1-0.3,0.1c-0.1,0-0.4,0-0.8-0.1l-0.1-0.3c0.2,0,0.4,0.1,0.5,0.1
		c0.2,0,0.4,0,0.4,0l0.1-0.1l0.3-2.5c-0.5,0.8-1.2,1.4-1.9,1.8l-0.2-0.2c0.9-0.5,1.6-1.2,2-2.1l-1.7-0.2V56l1.8,0.2l0.1-1h0.3
		l-0.1,1l0.5,0.1V56.5z"/>
	<path class="st2" d="M37.1,55.4l-0.9,0.1c-0.2,0.2-0.4,0.4-0.6,0.6c0.5,0.1,0.9,0.1,1.3,0.2l-0.1,0.2c-0.5-0.1-1-0.2-1.5-0.3
		c-0.6,0.3-1.2,0.5-2,0.6l-0.1-0.2c0.7-0.1,1.3-0.3,1.7-0.4c-0.5,0-0.9-0.1-1.4-0.1l0.1-0.2c0.6,0,1.2,0.1,1.7,0.1
		c0.2-0.1,0.4-0.3,0.6-0.5l-3.3,0.4v-0.3l2.2-0.2c-0.1-0.1-0.2-0.2-0.3-0.4l0.3-0.1c0.2,0.2,0.3,0.3,0.4,0.5l2.1-0.2L37.1,55.4z
		 M37.5,56.9l-4.3,0.5l0.1,0.5c0.1,0.9,0,1.6-0.4,2.1l-0.2-0.2c0.1-0.2,0.2-0.4,0.3-0.7s0.1-0.6,0-0.8l-0.1-1.2l4.6-0.5
		C37.5,56.6,37.5,56.9,37.5,56.9z M37.7,59.3l-4.2,0.5v-0.3l2-0.2l-0.1-0.5L34,59v-0.3l1.4-0.2L35.3,58l-1.2,0.1
		c-0.1,0.2-0.2,0.4-0.4,0.5l-0.2-0.2c0.3-0.3,0.5-0.6,0.7-1l0.3,0.1c-0.1,0.2-0.1,0.3-0.2,0.4l1.1-0.1v-0.4h0.3v0.4l1.6-0.2v0.3
		L35.6,58l0.1,0.5l1.5-0.2v0.3l-1.5,0.2l0.1,0.5l1.9-0.2C37.7,59.1,37.7,59.3,37.7,59.3z"/>
	<path class="st2" d="M39,54.8l-0.1,0.3c-0.3-0.2-0.7-0.3-1.1-0.3l0.1-0.3C38.3,54.5,38.7,54.6,39,54.8z M39.4,56.1l-0.1,0.3
		c-0.3-0.1-0.7-0.3-1.2-0.3l0.1-0.3C38.8,55.9,39.2,56,39.4,56.1z M39.7,56.9c-0.1,0.9-0.2,1.6-0.3,2.1l-0.3-0.1
		c0.2-0.5,0.3-1.2,0.4-2.1L39.7,56.9z M43.2,55.1l-1.7,0.6c-0.1,0.9-0.3,1.6-0.5,2.2c0.8-0.4,1.4-0.8,2.1-1.2
		c-0.3-0.2-0.6-0.4-0.9-0.6l0.2-0.2c0.7,0.4,1.2,0.8,1.6,1.2l-0.2,0.2c-0.2-0.2-0.4-0.3-0.5-0.5c-0.7,0.5-1.6,0.9-2.6,1.4L40.5,58
		c0.1-0.1,0.3-0.4,0.4-0.9c0.1-0.4,0.2-0.9,0.3-1.4l-1.3,0.5l-0.1-0.3l1.6-0.6l-0.4-1L39.5,55l-0.1-0.3l1.3-0.5l-0.3-0.8l0.3-0.1
		l0.3,0.8l1.3-0.5l0.1,0.3l-1.3,0.5l0.4,1l1.5-0.6L43.2,55.1z"/>
	<path class="st2" d="M44.5,53.4c0.5,0.1,0.9,0.4,1.1,0.8c0.1,0.1,0.1,0.3,0.1,0.4c0,0.1-0.1,0.3-0.4,0.5c-0.1,0-0.1,0.1-0.2,0.1
		L44.9,55l0.3-0.2c0.1-0.1,0.2-0.2,0.3-0.3c0-0.1,0-0.1,0-0.2c-0.2-0.3-0.6-0.6-1.1-0.7c-0.1-0.4-0.2-0.8-0.4-1.4l-0.7,0.5l2.5,3.6
		l-0.2,0.2L43,52.6l1.2-0.8l0.2,0.2C44.3,52.5,44.4,53,44.5,53.4z M47.6,51.2l-0.2,0.2l-0.5-0.7l-2,1.4l0.5,0.7L45.1,53l-0.6-0.9
		l1.1-0.8c-0.1-0.1-0.3-0.2-0.5-0.3l0.2-0.2c0.2,0.1,0.3,0.2,0.5,0.4l1.2-0.8L47.6,51.2z M47.2,51.6l-1.6,1.1l-0.2-0.2l1.6-1.1
		L47.2,51.6z M48.9,52.9c0.2,0.2,0.3,0.4,0.3,0.6s0,0.3,0,0.4c0,0.1-0.2,0.2-0.4,0.4c-0.3,0.2-0.5,0.2-0.6,0l-1-1.4l-0.6,0.4
		c0.3,0.5,0.5,1,0.4,1.3s-0.2,0.8-0.4,1.2l-0.3-0.1c0.3-0.4,0.4-0.7,0.5-1.1c0-0.4-0.1-0.7-0.4-1.2l-0.7,0.5l-0.2-0.2l2.6-1.7
		l0.2,0.2l-0.8,0.5l0.9,1.3c0,0,0,0,0.1,0c0,0,0.1,0,0.2-0.1c0.1-0.1,0.2-0.1,0.2-0.2v-0.1c0,0,0-0.1-0.1-0.3
		c-0.1-0.1-0.2-0.3-0.3-0.4H48.9z"/>
</g>
<g>
	<path class="st5" d="M9.3,24.7l-0.1,0.5l-3.7-1.1l0.1-0.5L9.3,24.7z"/>
	<path class="st5" d="M5.8,22.7l0.1-0.4l3.3-0.5l-2.6-1l0.3-0.5l3.6,1.5l-0.1,0.4l-3.3,0.5l2.6,1.1l-0.2,0.5L5.8,22.7z"/>
	<path class="st5" d="M11.1,20.5l-0.2,0.4L8,19.4L7.7,20l-0.5-0.3L8,18.1l0.5,0.3L8.2,19L11.1,20.5z"/>
	<path class="st5" d="M9.1,17.4L9.9,18l0.5-0.8l0.5,0.3l-0.5,0.8l1,0.6L12,18l0.5,0.3l-0.8,1.3l-3.2-2.1l0.8-1.3l0.5,0.3L9.1,17.4z"
		/>
	<path class="st5" d="M12.6,17.2l0.6-0.7l0.4,0.3l-0.9,1.1l-3-2.3l0.3-0.4L12.6,17.2z"/>
	<path class="st5" d="M13.7,15.9l0.6-0.7l0.4,0.4l-0.9,1.1l-2.9-2.6l0.3-0.4L13.7,15.9z"/>
	<path class="st5" d="M13,12.6l0.7,0.7l0.7-0.7l0.4,0.4l-0.7,0.7l0.8,0.9l0.8-0.7l0.4,0.4l-1.2,1l-2.7-2.7l1.1-1.1l0.4,0.4L13,12.6z
		"/>
	<path class="st5" d="M16.1,10.4c-0.3-0.1-0.6-0.1-0.8,0.1c-0.2,0.2-0.3,0.4-0.3,0.8c0,0.3,0.2,0.7,0.4,0.9c0.2,0.3,0.5,0.5,0.8,0.6
		c0.3,0.1,0.6,0.1,0.8-0.1c0.2-0.2,0.3-0.4,0.3-0.7l0.5,0.6c-0.1,0.3-0.2,0.5-0.4,0.6c-0.3,0.3-0.7,0.3-1.2,0.2
		c-0.5-0.1-0.9-0.4-1.2-0.8c-0.4-0.4-0.5-0.9-0.6-1.4s0.1-0.9,0.5-1.1c0.2-0.1,0.4-0.2,0.7-0.2L16.1,10.4z"/>
	<path class="st5" d="M19.1,11.9l-0.4,0.3l-1.8-2.7l-0.6,0.4L16,9.4l1.5-1l0.4,0.4l-0.6,0.4L19.1,11.9z"/>
	<path class="st5" d="M18.2,8l0.5-0.2l1,1.9c0.4,0.7,0.8,1,1.1,0.8c0.4-0.2,0.3-0.6,0-1.4l-1-1.9L20.2,7l1.1,2c0.5,1,0.4,1.6-0.2,2
		c-0.7,0.3-1.2,0-1.7-0.9L18.2,8z"/>
	<path class="st5" d="M22.7,9.1l0.1,0.9l-0.5,0.2l-0.4-4.1l0.4-0.2l2.5,3.3l-0.5,0.2l-0.5-0.7L22.7,9.1z M22.4,6.9l0.2,1.7l0.8-0.3
		L22.4,6.9z"/>
	<path class="st5" d="M25.4,8.5l0.9-0.2l0.1,0.5L25,9.2l-1-3.7l0.5-0.1L25.4,8.5z"/>
	<path class="st5" d="M29,8.3l-0.5,0.1l-0.4-3.8l0.8-0.1c0.7-0.1,1.1,0.3,1.2,1.1s-0.2,1.2-0.8,1.3h-0.4L29,8.3z M28.7,6.4H29
		c0.4,0,0.5-0.3,0.5-0.7c0-0.4-0.3-0.6-0.6-0.6h-0.2L28.7,6.4z"/>
	<path class="st5" d="M32.6,8.1H32l-0.9-1.7v1.7h-0.5l-0.1-3.8h0.8c0.7,0,1,0.4,1,1.1c0,0.3,0,0.5-0.2,0.7c-0.1,0.2-0.3,0.3-0.5,0.3
		L32.6,8.1z M31.1,6.2h0.2c0.4,0,0.6-0.2,0.6-0.7c0-0.4-0.2-0.7-0.6-0.7h-0.2V6.2z"/>
	<path class="st5" d="M33.1,6.2c0.1-0.6,0.2-1,0.6-1.4s0.7-0.5,1.1-0.5s0.8,0.3,1,0.7s0.3,0.9,0.3,1.5c-0.1,0.6-0.2,1-0.6,1.4
		c-0.3,0.4-0.7,0.5-1.1,0.5s-0.8-0.3-1-0.7C33.1,7.3,33,6.8,33.1,6.2z M33.6,6.2c0,0.4,0,0.7,0.2,1s0.4,0.5,0.6,0.5
		c0.3,0,0.5-0.1,0.7-0.3c0.2-0.3,0.3-0.6,0.4-1c0-0.4,0-0.7-0.2-1S35,5,34.7,5S34.2,5.1,34,5.3S33.6,5.9,33.6,6.2z"/>
	<path class="st5" d="M36.7,8.6l-0.5-0.1L37,4.8L37.8,5c0.7,0.2,0.9,0.6,0.8,1.4c-0.2,0.8-0.6,1.1-1.2,1L37,7.3L36.7,8.6z M37.2,6.7
		l0.2,0.1c0.4,0.1,0.6-0.1,0.7-0.6c0.1-0.4,0-0.7-0.4-0.8l-0.2-0.1L37.2,6.7z"/>
	<path class="st5" d="M39.9,6.1L39.6,7l1,0.3l-0.2,0.5l-1-0.3L39,8.6l1,0.3l-0.1,0.6L38.4,9l1.2-3.6l1.5,0.5l-0.2,0.5L39.9,6.1z"/>
	<path class="st5" d="M42.2,10.5l-0.6-0.2l-0.1-1.9L40.8,10l-0.5-0.2l1.5-3.5l0.7,0.3c0.6,0.3,0.8,0.7,0.5,1.5
		c-0.1,0.3-0.3,0.5-0.4,0.6S42.2,8.9,42,8.8L42.2,10.5z M41.6,8.1l0.1,0.1c0.4,0.2,0.7,0,0.8-0.4c0.2-0.4,0.1-0.7-0.3-0.9l-0.1-0.1
		L41.6,8.1z"/>
	<path class="st5" d="M43.3,11.1l-0.4-0.2L44.4,8l-0.6-0.3l0.3-0.5L45.7,8l-0.3,0.5l-0.6-0.3L43.3,11.1z"/>
	<path class="st5" d="M46,8.2l0.5,0.3L46.2,10l1.3-0.8L48,9.5l-2,1.2l-1,1.4l-0.4-0.3l1-1.4L46,8.2z"/>
	<path class="st5" d="M51,13.3c0.1-0.3,0-0.6-0.2-0.7c-0.2-0.2-0.5-0.2-0.8-0.2c-0.3,0.1-0.6,0.3-0.9,0.5c-0.2,0.3-0.4,0.6-0.5,0.9
		c-0.1,0.3,0,0.6,0.2,0.8s0.4,0.2,0.8,0.2l-0.5,0.6c-0.3-0.1-0.5-0.2-0.6-0.3c-0.3-0.3-0.4-0.7-0.4-1.1c0.1-0.5,0.3-0.9,0.7-1.3
		c0.4-0.4,0.8-0.7,1.3-0.7s0.9,0,1.2,0.3c0.2,0.2,0.3,0.4,0.3,0.6L51,13.3z"/>
	<path class="st5" d="M50.7,14.5c0.4-0.4,0.9-0.5,1.4-0.6c0.5,0,0.9,0.1,1.1,0.5c0.3,0.3,0.3,0.7,0.2,1.2c-0.1,0.5-0.4,0.9-0.8,1.2
		s-0.9,0.5-1.4,0.6c-0.5,0-0.9-0.1-1.1-0.5c-0.3-0.3-0.3-0.7-0.2-1.2C50,15.2,50.3,14.8,50.7,14.5z M51.1,14.9
		c-0.3,0.2-0.5,0.5-0.6,0.8s-0.1,0.6,0.1,0.8c0.2,0.2,0.4,0.3,0.8,0.3s0.6-0.2,0.9-0.4c0.3-0.2,0.5-0.5,0.6-0.8s0-0.6-0.1-0.8
		s-0.4-0.3-0.7-0.3C51.7,14.5,51.4,14.6,51.1,14.9z"/>
	<path class="st5" d="M54.6,16.3l0.3,0.4l-1.8,1.1c-0.7,0.4-0.9,0.8-0.7,1.2c0.2,0.3,0.7,0.3,1.4-0.1l1.8-1.1l0.3,0.4l-2,1.2
		c-1,0.6-1.6,0.6-2-0.1c-0.4-0.6-0.1-1.2,0.8-1.8L54.6,16.3z"/>
	<path class="st5" d="M53.7,22.5l-0.3-0.6l1.2-1.5l-1.5,0.7l-0.2-0.5l3.4-1.7l0.3,0.7c0.3,0.6,0.1,1.1-0.6,1.4
		c-0.3,0.1-0.5,0.2-0.7,0.2s-0.4-0.1-0.5-0.3L53.7,22.5z M54.8,20.3l0.1,0.1c0.2,0.4,0.5,0.5,0.9,0.3s0.5-0.5,0.3-0.8L56,19.8
		L54.8,20.3z"/>
	<path class="st5" d="M54.1,23.7l-0.2-0.4l3.1-1.2l-0.2-0.6l0.5-0.2l0.6,1.7l-0.5,0.2l-0.2-0.6L54.1,23.7z"/>
</g>
<path class="st1" d="M2.2,42.5"/>
</svg>
