<?xml version="1.0" encoding="utf-8"?>
<!-- Generator: Adobe Illustrator 24.0.2, SVG Export Plug-In . SVG Version: 6.00 Build 0)  -->
<svg version="1.1" id="Capa_1" xmlns="http://www.w3.org/2000/svg" xmlns:xlink="http://www.w3.org/1999/xlink" x="0px" y="0px"
	 viewBox="0 0 56 56" style="enable-background:new 0 0 56 56;" xml:space="preserve">
<g>
	<g>
		<path d="M55.3,52L39.4,36.1c3.1-3.8,4.9-8.7,4.9-13.9C44.3,9.9,34.4,0,22.2,0S0,9.9,0,22.2s9.9,22.2,22.2,22.2
			c5.3,0,10.1-1.9,13.9-4.9L52,55.3c0.5,0.5,1.1,0.7,1.6,0.7s1.2-0.2,1.6-0.7C56.2,54.4,56.2,52.9,55.3,52z M22.2,39.7
			c-9.6,0-17.5-7.8-17.5-17.5S12.5,4.7,22.2,4.7s17.5,7.8,17.5,17.5S31.8,39.7,22.2,39.7z"/>
	</g>
</g>
</svg>
