<?xml version="1.0" encoding="utf-8"?>
<!-- Generator: Adobe Illustrator 24.0.2, SVG Export Plug-In . SVG Version: 6.00 Build 0)  -->
<svg version="1.1" id="圖層_1" xmlns="http://www.w3.org/2000/svg" xmlns:xlink="http://www.w3.org/1999/xlink" x="0px" y="0px"
	 viewBox="0 0 56 56" style="enable-background:new 0 0 56 56;" xml:space="preserve">
<style type="text/css">
	.st0{fill-rule:evenodd;clip-rule:evenodd;fill:#2D2D2D;}
</style>
<path class="st0" d="M54.8,56c-0.2,0-0.6-0.1-1-0.4c-0.9-0.7-1.7-1.6-2.5-2.4c-0.3-0.3-0.6-0.6-0.9-0.9l-2.1-2.1
	c-3.2-3.2-6.3-6.4-9.5-9.6c-0.4-0.4-1-0.9-1.8-0.9c-0.7,0-1.2,0.3-1.6,0.6c-3.9,2.8-8.5,4.2-13.2,4.2c-9.7,0-17.9-6-21.1-15.3
	c-2-5.7-1.5-11.9,1.4-17.4c2.9-5.4,7.9-9.5,13.7-11.1c2-0.6,4.1-0.8,6.1-0.8c11.4,0,20.7,8.4,22.1,20c0.6,5.4-0.7,10.5-3.9,15.1
	c-0.2,0.3-1.5,2.1-1.5,2.1l1,1c0.3,0.3,0.5,0.5,0.7,0.8l3.7,3.7c3.5,3.5,7.1,7,10.5,10.6c0.5,0.5,0.8,1.2,0.8,1.6
	C55.9,55.7,55.3,56,54.8,56z M22.2,2.6C17,2.6,12,4.7,8.3,8.5c-3.7,3.7-5.7,8.7-5.7,13.9c0.1,11,8.7,19.7,19.6,19.7h0.1
	c5.3,0,10.5-2.2,14.2-6.1c3.7-3.8,5.6-8.6,5.6-13.7C42,11.2,33.3,2.6,22.4,2.6H22.2z"/>
</svg>
