<?xml version="1.0" encoding="utf-8"?>
<!-- Generator: Adobe Illustrator 24.0.2, SVG Export Plug-In . SVG Version: 6.00 Build 0)  -->
<svg version="1.1" id="圖層_1" xmlns="http://www.w3.org/2000/svg" xmlns:xlink="http://www.w3.org/1999/xlink" x="0px" y="0px"
	 viewBox="0 0 30 30" style="enable-background:new 0 0 30 30;" xml:space="preserve">
<style type="text/css">
	.st0{fill:#5E7E33;}
</style>
<g>
	<path class="st0" d="M26.8,20.8c-1.8,0-3.2-1.4-3.2-3.2V4.9c0-1.4-1.2-2.6-2.6-2.6c-1.4,0-2.6,1.2-2.6,2.6v6.4
		c0,0.3-0.2,0.5-0.5,0.5c-0.3,0-0.5-0.2-0.5-0.5V4.9c0-2,1.6-3.6,3.6-3.6c2,0,3.6,1.6,3.6,3.6v4.8h4.8c0.3,0,0.5,0.2,0.5,0.5v7.4
		C30,19.4,28.6,20.8,26.8,20.8z M24.6,10.8v6.8c0,1.2,1,2.1,2.1,2.1c1.2,0,2.1-1,2.1-2.1v-6.8H24.6z"/>
	<path class="st0" d="M17.9,28.6H0.7c-0.3,0-0.5-0.2-0.5-0.5v-2.4c0-0.3,0.2-0.5,0.5-0.5s0.5,0.2,0.5,0.5v1.9h16.1v-0.8
		c0-0.3,0.2-0.5,0.5-0.5c0.3,0,0.5,0.2,0.5,0.5V28C18.4,28.3,18.2,28.6,17.9,28.6z"/>
	<path class="st0" d="M0.7,18.3c-0.3,0-0.5-0.2-0.5-0.5v-0.8c0-0.3,0.2-0.5,0.5-0.5s0.5,0.2,0.5,0.5v0.8C1.3,18,1,18.3,0.7,18.3z"/>
	<path class="st0" d="M0.7,22.5c-0.3,0-0.5-0.2-0.5-0.5v-1.4c0-0.3,0.2-0.5,0.5-0.5s0.5,0.2,0.5,0.5V22C1.3,22.3,1,22.5,0.7,22.5z"
		/>
	<path class="st0" d="M0.7,26.1c-0.3,0-0.5-0.2-0.5-0.5v-0.8c0-0.3,0.2-0.5,0.5-0.5s0.5,0.2,0.5,0.5v0.8C1.3,25.9,1,26.1,0.7,26.1z"
		/>
	<path class="st0" d="M0.7,17.4c-0.3,0-0.5-0.2-0.5-0.5V5.8c0-2.5,2-4.5,4.5-4.5H21c0.3,0,0.5,0.2,0.5,0.5S21.3,2.3,21,2.3H4.8
		c-1.9,0-3.5,1.6-3.5,3.5v11.1C1.3,17.2,1,17.4,0.7,17.4z"/>
	<path class="st0" d="M26.8,20.8h-8.5c-0.3,0-0.5-0.2-0.5-0.5c0-0.3,0.2-0.5,0.5-0.5h8.5c0.3,0,0.5,0.2,0.5,0.5
		C27.3,20.6,27.1,20.8,26.8,20.8z"/>
	<path class="st0" d="M15.8,7.5H8.9C8.6,7.5,8.4,7.3,8.4,7s0.2-0.5,0.5-0.5h6.9c0.3,0,0.5,0.2,0.5,0.5S16.1,7.5,15.8,7.5z"/>
	<path class="st0" d="M15.8,9.7H8.9c-0.3,0-0.5-0.2-0.5-0.5c0-0.3,0.2-0.5,0.5-0.5h6.9c0.3,0,0.5,0.2,0.5,0.5
		C16.3,9.5,16.1,9.7,15.8,9.7z"/>
	<path class="st0" d="M7.1,10.6h-4c-0.3,0-0.5-0.2-0.5-0.5V6c0-0.3,0.2-0.5,0.5-0.5h4c0.3,0,0.5,0.2,0.5,0.5v4
		C7.7,10.4,7.4,10.6,7.1,10.6z M3.6,9.5h3v-3h-3V9.5z"/>
	<path class="st0" d="M12.9,22.1c-0.3,0-0.5-0.1-0.8-0.3l-1.9-1.5c-0.5-0.4-0.6-1.2-0.2-1.7l2.7-3.4c0.4-0.5,1.2-0.6,1.7-0.2
		l1.9,1.5c0.5,0.4,0.6,1.2,0.2,1.7l-2.7,3.4C13.6,22,13.2,22.1,12.9,22.1z M13.6,15.8l-2.7,3.4c-0.1,0.1,0,0.2,0,0.2l1.9,1.5
		c0.1,0.1,0.2,0,0.2,0l2.7-3.4c0.1-0.1,0-0.2,0-0.2l-1.9-1.5c0,0-0.1,0-0.1,0C13.7,15.8,13.6,15.8,13.6,15.8L13.6,15.8z"/>
	<path class="st0" d="M16.1,17.4c-0.1,0-0.2,0-0.3-0.1l-1.9-1.5c-0.1-0.1-0.2-0.2-0.2-0.4c0-0.1,0-0.3,0.1-0.4l1.1-1.4
		c0.2-0.2,0.5-0.3,0.7-0.1l1.9,1.5c0.1,0.1,0.2,0.2,0.2,0.4c0,0.1,0,0.3-0.1,0.4l-1.1,1.4C16.4,17.4,16.2,17.4,16.1,17.4z
		 M14.9,15.3l1,0.8l0.5-0.6l-1-0.8L14.9,15.3z"/>
	<path class="st0" d="M18.5,17.1c-0.1,0-0.2,0-0.3-0.1l-4.6-3.7c-0.2-0.2-0.3-0.5-0.1-0.7l0.3-0.4c0.7-0.8,1.9-1,2.8-0.3l2.3,1.9
		c0.4,0.3,0.7,0.8,0.7,1.3c0.1,0.5-0.1,1-0.4,1.4L19,16.9C18.9,17,18.7,17.1,18.5,17.1C18.6,17.1,18.6,17.1,18.5,17.1z M14.7,12.8
		l3.7,3c0.2-0.2,0.2-0.4,0.2-0.7c0-0.2-0.1-0.5-0.3-0.6L16,12.7C15.6,12.4,15,12.4,14.7,12.8L14.7,12.8z"/>
	<path class="st0" d="M11.3,23.4c-0.1,0-0.2,0-0.3-0.1l-1.9-1.5C8.9,21.6,8.8,21.2,9,21l1.1-1.4c0.1-0.1,0.2-0.2,0.4-0.2
		c0.1,0,0.3,0,0.4,0.1l1.9,1.5c0.2,0.2,0.3,0.5,0.1,0.7l-1.1,1.4C11.6,23.3,11.5,23.4,11.3,23.4C11.3,23.4,11.3,23.4,11.3,23.4z
		 M10.2,21.3l1,0.8l0.5-0.6l-1-0.8L10.2,21.3z"/>
	<path class="st0" d="M11.2,25.4c-0.4,0-0.9-0.1-1.2-0.4l-2.3-1.9c-0.8-0.7-1-1.9-0.3-2.8c0,0,0.3-0.4,0.3-0.4
		c0.2-0.2,0.5-0.3,0.7-0.1l4.6,3.7c0.2,0.2,0.3,0.5,0.1,0.7l-0.3,0.4c-0.3,0.4-0.8,0.7-1.3,0.7C11.3,25.4,11.2,25.4,11.2,25.4z
		 M8.1,21c-0.3,0.4-0.2,1,0.1,1.3l2.3,1.9c0.2,0.2,0.4,0.2,0.7,0.2c0.2,0,0.5-0.1,0.6-0.3C11.9,24,8.2,21,8.1,21L8.1,21z"/>
	<path class="st0" d="M15.5,21.9c-0.1,0-0.2,0-0.3-0.1l-1.3-1c-0.2-0.2-0.3-0.5-0.1-0.7l1.2-1.5c0.1-0.1,0.2-0.2,0.4-0.2
		c0.1,0,0.3,0,0.4,0.1l1.3,1c0.2,0.2,0.3,0.5,0.1,0.7l-1.2,1.5C15.8,21.8,15.7,21.9,15.5,21.9C15.5,21.9,15.5,21.9,15.5,21.9z
		 M15,20.3l0.5,0.4l0.5-0.6l-0.5-0.4L15,20.3z"/>
	<path class="st0" d="M21.2,26.8c-0.5,0-0.9-0.2-1.3-0.5l-4.9-3.9c-0.4-0.3-0.5-0.9-0.1-1.3l1.4-1.8c0.3-0.4,0.9-0.5,1.3-0.1
		l4.9,3.9c0.4,0.3,0.7,0.8,0.8,1.4c0.1,0.5-0.1,1.1-0.4,1.5c-0.3,0.4-0.8,0.7-1.4,0.8C21.4,26.8,21.3,26.8,21.2,26.8z M15.9,21.8
		l4.8,3.8c0.4,0.3,1.1,0.3,1.4-0.2c0.2-0.2,0.2-0.5,0.2-0.7c0-0.3-0.2-0.5-0.4-0.7l-4.8-3.8L15.9,21.8z"/>
	<path class="st0" d="M10.6,13.5H3.1c-0.3,0-0.5-0.2-0.5-0.5c0-0.3,0.2-0.5,0.5-0.5h7.4c0.3,0,0.5,0.2,0.5,0.5
		C11.1,13.2,10.8,13.5,10.6,13.5z"/>
	<path class="st0" d="M10.6,15.8H3.1c-0.3,0-0.5-0.2-0.5-0.5c0-0.3,0.2-0.5,0.5-0.5h7.4c0.3,0,0.5,0.2,0.5,0.5
		C11.1,15.5,10.8,15.8,10.6,15.8z"/>
	<path class="st0" d="M9.1,18.1h-6c-0.3,0-0.5-0.2-0.5-0.5c0-0.3,0.2-0.5,0.5-0.5h6c0.3,0,0.5,0.2,0.5,0.5
		C9.6,17.9,9.4,18.1,9.1,18.1z"/>
</g>
</svg>
