<?xml version="1.0" encoding="utf-8"?>
<!-- Generator: Adobe Illustrator 24.0.2, SVG Export Plug-In . SVG Version: 6.00 Build 0)  -->
<svg version="1.1" id="圖層_1" xmlns="http://www.w3.org/2000/svg" xmlns:xlink="http://www.w3.org/1999/xlink" x="0px" y="0px"
	 viewBox="0 0 30 30" style="enable-background:new 0 0 30 30;" xml:space="preserve">
<style type="text/css">
	.st0{fill:#5E7E33;}
</style>
<g>
	<path class="st0" d="M0.8,22.1c-0.3,0-0.5-0.2-0.5-0.5V5.1c0-2,1.6-3.6,3.6-3.6h17.6c0.3,0,0.5,0.2,0.5,0.5v4.7
		c0,0.3-0.2,0.5-0.5,0.5C21.3,7.2,21,7,21,6.7V2.5H3.9c-1.4,0-2.6,1.1-2.6,2.6v14.1C2,18.5,2.9,18,3.9,18h6.2c0.3,0,0.5,0.2,0.5,0.5
		c0,0.3-0.2,0.5-0.5,0.5H3.9c-1.4,0-2.6,1.1-2.6,2.6C1.3,21.9,1.1,22.1,0.8,22.1z"/>
	<path class="st0" d="M14,23.3H4.8c-0.9,0-1.7-0.8-1.7-1.7c0-0.9,0.8-1.7,1.7-1.7h7.1c0.3,0,0.5,0.2,0.5,0.5S12.1,21,11.8,21H4.8
		c-0.4,0-0.7,0.3-0.7,0.7c0,0.4,0.3,0.7,0.7,0.7H14c0.3,0,0.5,0.2,0.5,0.5C14.5,23.1,14.3,23.3,14,23.3z"/>
	<path class="st0" d="M15.9,25.2H3.9c-1,0-1.9-0.4-2.6-1.1c-0.7-0.7-1-1.6-1-2.6C0.4,19.6,2.1,18,4,18h6.1c0.3,0,0.5,0.2,0.5,0.5
		c0,0.3-0.2,0.5-0.5,0.5H4c-1.4,0-2.6,1.1-2.7,2.5c0,0.7,0.2,1.4,0.7,1.9c0.5,0.5,1.1,0.8,1.8,0.8h11.9c0.3,0,0.5,0.2,0.5,0.5
		C16.4,25,16.1,25.2,15.9,25.2z"/>
	<path class="st0" d="M4,19.1c-0.3,0-0.5-0.2-0.5-0.5V2c0-0.3,0.2-0.5,0.5-0.5c0.3,0,0.5,0.2,0.5,0.5v16.5C4.5,18.8,4.3,19.1,4,19.1
		z"/>
	<path class="st0" d="M17.8,13.5c-0.1,0-0.3-0.1-0.4-0.2L11.7,7c-0.2-0.2-0.2-0.5,0-0.7c0.2-0.2,0.5-0.2,0.7,0l5.7,6.3
		c0.2,0.2,0.2,0.5,0,0.7C18,13.5,17.9,13.5,17.8,13.5z"/>
	<path class="st0" d="M22.3,18.5c-0.1,0-0.3-0.1-0.4-0.2c-1.1-1.4-0.7-2.9-0.1-3.8l-2.9-3.2c-0.2-0.2-0.2-0.5,0-0.7
		c0.2-0.2,0.5-0.2,0.7,0l3.2,3.5c0.2,0.2,0.2,0.5,0,0.7c0,0.1-1.2,1.5-0.1,2.8c0.2,0.2,0.1,0.5-0.1,0.7
		C22.5,18.5,22.4,18.5,22.3,18.5z"/>
	<path class="st0" d="M20.7,26.1c-0.1,0-0.3,0-0.4-0.1c0,0-1.9-1.9-2.9-2.5c-1-0.6-1.9-1.3-2.7-2.2l-2.4-2.6c-0.2-0.2-0.2-0.5,0-0.7
		c0.2-0.2,0.5-0.2,0.7,0l2.4,2.6c0.7,0.8,1.5,1.5,2.5,2c0.8,0.5,2.1,1.7,2.8,2.3l5.7-5.2l-1.1-1.2c-0.1-0.1-0.1-0.2-0.1-0.3l0-3.1
		c0-0.8-0.3-1.6-0.8-2.2l-3.2-3.5c-0.4-0.4-1-0.5-1.5-0.2c-0.2,0.2-0.4,0.4-0.4,0.7c0,0.3,0.1,0.6,0.3,0.8c0.2,0.2,0.2,0.5,0,0.7
		c-0.2,0.2-0.5,0.2-0.7,0c0,0-5.4-5.9-5.4-5.9c-0.3-0.3-0.7-0.4-0.9-0.2c-0.2,0.1-0.3,0.3-0.3,0.5c0,0.2,0,0.4,0.2,0.6
		c0.2,0.2,0.2,0.5,0,0.7c-0.2,0.2-0.5,0.2-0.7,0c-0.3-0.4-0.5-0.9-0.4-1.4c0.1-0.5,0.4-1,0.8-1.2c0.7-0.4,1.6-0.3,2.2,0.4l4.2,4.6
		c0.1-0.4,0.4-0.8,0.7-1C20,7.7,21.3,7.8,22,8.7l3.2,3.5c0.7,0.8,1.1,1.8,1.1,2.9l0,2.9l1.3,1.4c0.2,0.2,0.2,0.5,0,0.7L21,26
		C20.9,26.1,20.8,26.1,20.7,26.1z"/>
	<path class="st0" d="M16.7,15.4C16.7,15.4,16.7,15.4,16.7,15.4c-0.5,0-1-0.2-1.3-0.6l-1.3-1.5c-0.6-0.7-0.6-1.8,0.1-2.4
		c0.3-0.3,0.8-0.5,1.2-0.4c0.5,0,0.9,0.2,1.2,0.6l1.3,1.5c0.6,0.7,0.6,1.8-0.1,2.4C17.6,15.3,17.2,15.4,16.7,15.4z M15.4,11.5
		c-0.2,0-0.3,0.1-0.5,0.2c-0.3,0.3-0.3,0.7-0.1,1l1.3,1.5c0.1,0.1,0.3,0.2,0.5,0.2c0.2,0,0.4-0.1,0.5-0.2c0.3-0.3,0.3-0.7,0.1-1
		l-1.3-1.5C15.8,11.6,15.6,11.5,15.4,11.5C15.4,11.5,15.4,11.5,15.4,11.5z"/>
	<path class="st0" d="M14.9,17.1C14.9,17.1,14.9,17.1,14.9,17.1c-0.5,0-1-0.2-1.3-0.6L12.3,15c-0.6-0.7-0.6-1.8,0.1-2.4
		c0.3-0.3,0.8-0.5,1.2-0.4c0.5,0,0.9,0.2,1.2,0.6l1.3,1.5c0.6,0.7,0.6,1.8-0.1,2.4C15.8,16.9,15.4,17.1,14.9,17.1z M13.6,13.2
		c-0.2,0-0.3,0.1-0.5,0.2c-0.3,0.3-0.3,0.7-0.1,1l1.3,1.5c0.1,0.1,0.3,0.2,0.5,0.2c0.2,0,0.4-0.1,0.5-0.2c0.3-0.3,0.3-0.7,0.1-1
		l-1.3-1.5C14,13.3,13.8,13.2,13.6,13.2C13.6,13.2,13.6,13.2,13.6,13.2z"/>
	<path class="st0" d="M13.6,19.3C13.6,19.3,13.6,19.3,13.6,19.3c-0.5,0-1-0.2-1.3-0.6L11,17.2c-0.6-0.7-0.6-1.8,0.1-2.4
		c0.3-0.3,0.8-0.5,1.2-0.4c0.5,0,0.9,0.2,1.2,0.6l1.3,1.5c0.6,0.7,0.6,1.8-0.1,2.4C14.4,19.1,14,19.3,13.6,19.3z M12.3,15.3
		c-0.2,0-0.3,0.1-0.5,0.2c-0.3,0.3-0.3,0.7-0.1,1l1.3,1.5c0.1,0.1,0.3,0.2,0.5,0.2c0.2,0,0.4-0.1,0.5-0.2c0.3-0.3,0.3-0.7,0.1-1
		l-1.3-1.5C12.7,15.4,12.5,15.4,12.3,15.3C12.3,15.3,12.3,15.3,12.3,15.3z"/>
	<path class="st0" d="M29.5,28.5h-8.1c-0.1,0-0.3-0.1-0.4-0.2l-1.5-1.7c-0.2-0.2-0.2-0.5,0-0.7l8.1-7.3c0.2-0.2,0.5-0.2,0.7,0
		l1.5,1.7c0.1,0.1,0.1,0.2,0.1,0.3V28C30,28.3,29.8,28.5,29.5,28.5z M21.6,27.5H29v-6.6l-1.1-1.2l-7.3,6.6L21.6,27.5z"/>
	<path class="st0" d="M21.4,28.5h-16c-0.3,0-0.5-0.2-0.5-0.5c0-0.3,0.2-0.5,0.5-0.5h16c0.3,0,0.5,0.2,0.5,0.5
		C21.9,28.3,21.7,28.5,21.4,28.5z"/>
</g>
</svg>
