<?xml version="1.0" encoding="utf-8"?>
<!-- Generator: Adobe Illustrator 24.0.2, SVG Export Plug-In . SVG Version: 6.00 Build 0)  -->
<svg version="1.1" id="圖層_1" xmlns="http://www.w3.org/2000/svg" xmlns:xlink="http://www.w3.org/1999/xlink" x="0px" y="0px"
	 viewBox="0 0 272 64" style="enable-background:new 0 0 272 64;" xml:space="preserve">
<style type="text/css">
	.st0{fill:#2A398C;}
	.st1{fill:#FFFFFF;}
	.st2{fill:url(#SVGID_1_);}
	.st3{fill:#005BAB;}
	.st4{fill:none;stroke:#FFFFFF;stroke-width:0.25;stroke-miterlimit:10;}
	.st5{fill:#B7A246;}
	.st6{fill:#8CC63F;}
</style>
<title>logo</title>
<path class="st0" d="M88.4,35.1H70.9c-0.5,0-0.9,0.1-1.4,0.2L69,34.5h8.7v-1.9h-5c-0.4,0-0.8,0.1-1.2,0.2L71,32.1h6.7l-0.1-1.9
	c-1.8,0.2-2.7,0.2-4.2,0.5c0,0.2-0.2,0.2-0.3,0.2c-0.1,0-0.1-0.1-0.2-0.1c-0.2-0.4-0.4-0.9-0.6-1.3c0-0.1,0-0.2,0.1-0.3
	c0.6,0,1.1,0,1.7-0.1c0.4-0.4,1-0.8,1.6-1.4h-2.1c-0.4,0-0.9,0.1-1.3,0.2L71.7,27h10.1l0.9-1c0.1,0,0.2,0,0.3,0
	c0.5,0.4,0.9,0.8,1.3,1.3c0.1,0.1,0,0.2-0.1,0.3l0,0h-5.8c-1,0.6-2,1.1-3.1,1.5h0.5h3.7c0.9,0,1.3,0,2.3-0.1
	c-0.6-0.3-1.2-0.6-1.8-0.8l0.1-0.3c1.4,0,2.8,0.3,4.1,0.9c0.5,0.3,0.8,0.8,0.8,1.3c0,0.2-0.1,0.5-0.3,0.6c-0.1,0.1-0.3,0.1-0.4,0.1
	c0.6,0.4,1.2,0.9,1.7,1.4c0.1,0.1,0,0.2,0,0.3l-0.2,0.1h-6.4v1.9h6l1-1.2c0.1-0.1,0.3-0.1,0.4,0l1.6,1.5
	C88.5,34.9,88.5,35,88.4,35.1L88.4,35.1z M88.4,26.4l-0.8,0.2c-0.7,0.5-1.3,1.1-1.9,1.7L85.2,28c0.3-0.7,0.6-1.4,0.8-2.1H71.7
	c0,0.8-0.3,1.6-1,2.1c-0.4,0.3-0.9,0.3-1.4,0.2c-0.2-0.1-0.4-0.4-0.3-0.6c0.2-0.6,0.6-0.6,1.1-1.1c0.5-0.6,0.8-1.3,0.9-2h0.4
	l0.2,0.8h14.3l0.6-0.7c0.1,0,0.2,0,0.3,0.1c0.6,0.4,1.1,0.9,1.6,1.4C88.6,26.2,88.5,26.3,88.4,26.4L88.4,26.4L88.4,26.4z M87.8,18.9
	h-8.2v1.3h4.1l0.7-0.9c0.1-0.1,0.3-0.1,0.4,0c0.4,0.4,0.9,0.7,1.4,1.2c0.1,0.1,0.1,0.2,0,0.3l-0.1,0.1H72.8c-0.4,0-0.9,0.1-1.3,0.2
	L71,20.3h6.9v-1.4h-6.4c-0.5,0-0.9,0.1-1.4,0.2l-0.6-0.8h8.3c0-0.9,0-1.6-0.1-2.5c0.8,0.2,1.5,0.4,2.3,0.7c0.1,0.1,0.1,0.2,0.1,0.4
	c-0.4,0.3-0.5,0.4-0.5,0.5v1H85l0.9-1.1c0.1-0.2,0.4,0,0.4,0c0.4,0.4,1.3,1,1.6,1.4C88,18.8,88,18.9,87.8,18.9L87.8,18.9z
	 M84.4,22.9c0,0.6,0,1.1,0,1.6c0,0.1-0.1,0.2-0.2,0.2c-0.4,0.2-0.9,0.3-1.3,0.4c-0.1,0-0.2-0.1-0.3-0.2l0,0v-0.7H75v0.4
	c0,0.1-0.1,0.2-0.2,0.2c-0.5,0.2-1,0.3-1.4,0.4c-0.1,0-0.2,0-0.2-0.2c0-0.7,0.1-0.9,0.1-1.4v-1.1c0-0.4,0-0.9,0-1.4
	c0.7,0.2,1.2,0.4,1.8,0.7h7.6l0.7-0.6c0.1-0.1,0.3-0.1,0.5,0c0.6,0.4,0.8,0.5,1.2,0.7c0.1,0.1,0.1,0.2,0,0.3S84.4,22.7,84.4,22.9
	L84.4,22.9z M82.6,22.3H75v1.2h7.6V22.3z M82.8,29.7C81.4,29.8,80,30,78.5,30c0.5,0.1,1.1,0.3,1.6,0.5c0.2,0.4-0.4,0.5-0.6,0.7V32
	h3.7c0.4-0.6,0.6-0.8,0.9-1.1h0.2L82.8,29.7z"/>
<path class="st0" d="M89.9,21c0.9,0.1,1.8,0.5,2.5,1c0.4,0.3,0.6,0.9,0.5,1.4c-0.1,0.4-0.4,0.8-0.9,0.9c-0.3,0-0.4-0.2-0.5-0.4
	c-0.3-1-0.9-1.9-1.8-2.6L89.9,21z M89.8,29.5c0.6,0,1.3,0.1,1.7-0.4c0.5-1.2,0.9-2.4,1.2-3.6l1-3.9c0.3-1,0.5-2,0.8-3.1l0.4,0.1
	c-0.4,2-0.9,4.1-1.2,6.2L93,29.3c-0.1,2,0.4,3.9,0.5,5.9c0,0.2-0.2,0.4-0.3,0.5c-0.6,0.2-1.2-0.2-1.6-0.6c-0.6-0.8-0.1-1.8,0-2.7
	c0-0.7,0.2-1.7-0.6-2.2c-0.4-0.2-0.8-0.3-1.2-0.4C89.8,29.8,89.8,29.5,89.8,29.5z M91.1,16.2c1.1,0.3,2.1,0.8,2.9,1.6
	c0.2,0.6,0,1.3-0.4,1.8c-0.1,0.1-0.3,0.2-0.5,0.1c-0.3-0.4-0.5-0.8-0.7-1.2c-0.3-0.7-0.8-1.3-1.4-1.8L91.1,16.2z M95.4,24.6
	c0,0.1,0,0.2,0,0.3c0.1,1,0.2,2.4-0.8,2.9c-0.3,0.1-0.6,0.1-0.9,0c-0.2-0.1-0.2-0.3-0.2-0.5c0.2-0.3,0.5-0.5,0.7-0.9
	c0.4-0.6,0.7-1.2,0.8-1.9L95.4,24.6z M100.5,16c0.7,0.2,1.7,0.7,1.7,1.6c-0.1,0.3-0.2,0.7-0.6,0.8h1l0.7-0.9c0.1,0,0.2,0,0.3,0
	c0.3,0.4,0.6,0.7,1,1.1c0.1,0.2,0,0.3-0.2,0.3h-4.5c0.1,0.1,0.1,0.3,0,0.4c-0.6,0.1-1,0.7-1.7,1.3s-1.5,1.4-2.3,2
	c0.8,0,1.5,0,2.2-0.1c0-0.3-0.1-0.7-0.3-1l0.2-0.1c0.6,0.5,1.5,1.3,1.2,2.2c-0.2,0.4-0.4,0.7-0.8,0.7c-0.1,0-0.2-0.1-0.3-0.2
	c-0.1-0.3,0.1-0.6,0-1c-1,0.3-1.8,0.4-2.8,0.7c-0.1,0.3-0.3,0.2-0.4,0.1c-0.2-0.4-0.3-0.7-0.4-1.1c0-0.1,0-0.1,0.1-0.1
	c0.3,0,0.6-0.1,0.8-0.2c0.5-0.6,1-1.2,1.4-1.9c-0.5,0.1-1,0.2-1.4,0.4c0,0.2-0.3,0.2-0.4,0.1L94.7,20c0-0.2,0.2-0.1,0.4-0.2
	c0.2-0.1,0.3-0.3,0.4-0.4c0.5-1.1,0.9-2.2,1.2-3.4c0.6,0.3,1.1,0.6,1.7,0.9c0,0.1,0,0.2,0,0.2c-0.2,0.1-0.3,0.1-0.5,0.2
	c-0.6,0.9-1.3,1.8-2,2.6c0.7,0,1,0,1.5,0c0.4-0.7,0.6-1.1,0.9-1.7c0.3,0.1,0.5,0.3,0.6,0.4h2c-0.1-0.4-0.2-0.9-0.3-1.3
	c-0.1-0.3-0.3-0.7-0.5-0.9L100.5,16z M101.7,33.8c1,0.3,2.1,0.4,3.2,0.3c0.4-0.1,0.7-0.9,0.9-1.4l0.3-0.7l-8.9,0l-0.7,0.7
	c-0.3,0.2-0.5-0.1-1.1-0.7c-0.2-0.1-0.3-0.2-0.3-0.4s0.4-0.2,0.6-0.4c0.5-0.7,0.9-1.4,1.2-2.2c0.4,0.2,0.9,0.5,1.2,0.8h7v-1.1h-8
	l-1.3,0.2l-0.4-0.7h9.6l0.7-0.6c0.1-0.1,0.2-0.1,0.4,0c0.5,0.3,0.9,0.5,1.4,0.8c0.1,0.1,0.1,0.2,0.1,0.4c-0.2,0.2-0.4,0.5-0.7,0.7v1
	c0,0.2-0.1,0.4-0.3,0.4c-0.4,0.2-0.8,0.3-1.2,0.3c-0.2-0.1-0.2-0.3-0.2-0.8H98l-0.7,1.2h8.7l0.8-0.7c0.1-0.1,0.2-0.1,0.3,0l1.2,1
	c0.1,0.1,0.1,0.2,0,0.3c-0.3,0.2-0.6,0.3-0.8,0.6c-0.5,1.2-0.8,2.8-2.2,3.3c-0.4,0.1-0.9,0.2-1.3,0.3c-0.1-0.7-0.6-1.3-1.2-1.6
	c-0.5-0.2-0.8-0.3-1.4-0.5L101.7,33.8z M96.7,24.4c0.3,0.8,1,1.5,0.7,2.4c-0.1,0.4-0.4,0.6-0.8,0.7c-0.2,0-0.3,0-0.4-0.2l-0.1-0.2
	c0.2-0.9,0.3-1.8,0.3-2.6L96.7,24.4z M98.1,24.3c0.6,0.7,1.6,1.4,1.1,2.4c-0.1,0.4-0.5,0.6-0.8,0.6c-0.2,0-0.2-0.2-0.3-0.4
	c0.1-0.8,0-1.7-0.2-2.5L98.1,24.3z M100.8,20.7c-0.4,0-0.7,0.1-1.1,0.1l-0.3-0.7h2.5l0.6-0.7c0.1-0.1,0.2-0.1,0.3,0l0.8,0.9
	c0.1,0.1,0.1,0.2,0,0.3l-0.1,0.1L100.8,20.7z M101,22.4c-0.4,0-0.7,0.1-1.1,0.1l-0.4-0.7h2.5l0.6-0.6c0.1-0.1,0.2-0.1,0.3,0l0,0
	l0.9,0.8c0.1,0.1,0.1,0.2,0,0.3l-0.1,0.1L101,22.4z M99.8,24.8c0-0.6,0-1.2-0.1-1.8c0.5,0.2,1,0.4,1.5,0.7h1l0.5-0.5
	c0.1-0.1,0.2-0.1,0.3,0l0.8,0.7c0.1,0.1,0.1,0.2,0,0.3l0,0l-0.3,0.4V26c0,0.3,0,0.6,0,0.8h0.1c0.6-0.7,1-1.5,1.2-2.4h0.4
	c0,1.1,0.3,2.5-0.7,3.1c-0.3,0.1-0.5,0.1-0.8,0c-0.1-0.1-0.2-0.2-0.2-0.4c-0.7,0.4-1,0.5-1.2,0.4s-0.1-0.2-0.1-0.4v-0.5h-1V27
	c0,0.1,0,0.2-0.1,0.3c-0.3,0.2-0.7,0.3-1.1,0.4c-0.1,0-0.1-0.1-0.2-0.1c0-0.5,0-1,0-1.5L99.8,24.8z M102.2,24.2h-1v1.9h1V24.2z
	 M107.5,21.5c0.4,0.3,0.7,0.5,1,0.9c0.4,0.3,0.6,0.8,0.6,1.3c-0.1,0.3-0.3,0.6-0.6,0.8c-0.2,0.1-0.3,0.1-0.5,0
	c-0.3-0.3-0.2-0.8-0.3-1.1c-1,0.1-2,0.4-3,0.7c-0.1,0.2-0.3,0.3-0.4,0.1c-0.2-0.4-0.3-0.8-0.4-1.1s0.6,0,0.8-0.3
	c0.5-0.6,1-1.2,1.4-1.9c-0.5,0.1-0.9,0.2-1.4,0.3c-0.1,0.2-0.4,0.3-0.5,0.1c-0.2-0.3-0.4-0.7-0.5-1.1c0-0.3,0.4-0.1,0.5-0.2
	c0.3-0.2,0.3-0.4,0.5-0.7c0.5-1,0.9-2,1.2-3.1c0.6,0.3,1.1,0.6,1.6,0.9c0,0.1,0,0.3-0.1,0.3l0,0c-0.5,0-0.7,0.6-1,0.9
	c-0.4,0.6-0.9,1.2-1.5,1.8c0.6,0.1,1.1,0.1,1.7,0c0.3-0.6,0.7-1.2,1-1.8h0.1c0.5,0.3,1,0.6,1.5,0.9c0.1,0.3-0.3,0.3-0.5,0.4
	c-1,1.2-2,2.2-3.1,3.2l-0.1,0.1c0.7,0,1.5,0,2.2-0.1c-0.1-0.4-0.2-0.7-0.4-1L107.5,21.5z M107.3,26.6c0,0.5-0.3,0.8-0.8,1
	c-0.1,0.1-0.3,0-0.4-0.1c-0.3-0.4,0-0.8,0-1.2c0.1-0.6,0-1.2-0.2-1.8c0.1-0.1,0.2-0.1,0.3-0.1C106.8,25,107.2,25.8,107.3,26.6
	L107.3,26.6z M107.6,24.3c0.7,0.5,1.4,1.1,1.6,1.9c0,0.5-0.2,0.9-0.7,1.2c-0.2,0-0.5,0-0.5-0.3c-0.1-0.9-0.4-1.8-0.8-2.7L107.6,24.3
	z"/>
<path class="st0" d="M130.4,19.2h-17.8c-0.5,0-1,0-1.5,0.1l-0.6-0.8h9.5c-0.1-0.4-0.3-0.8-0.6-1.2c-0.3-0.5-0.6-1-1.1-1.4l0.2-0.4
	c1.2,0.2,2.5,0.4,3.2,1.1c0.2,0.2,0.3,0.5,0.2,0.8c-0.2,0.4-0.4,0.7-0.6,1.1h6l0.9-1.3c0.1-0.1,0.4-0.1,0.5,0c0.7,0.5,1.3,1,1.9,1.6
	c0.1,0.1,0.1,0.2,0.1,0.3L130.4,19.2z M128.3,27.2V34c0,1-1.3,1.5-2,1.8l-0.7,0.2c-0.3-1.3-1.7-2-2.8-2.3v-0.4
	c1.1,0.2,2.2,0.3,3.3,0.3c0.2,0,0.2-0.2,0.2-0.4v-6.6h-11.8V33v2.1c0,0.3-0.3,0.4-0.5,0.5c-0.7,0.3-1.2,0.6-1.4,0.3v-0.1
	c0.1-1,0.1-2.1,0.1-3.2v-5c0-0.9-0.1-1.8-0.2-2.7h0.1c0.7,0.3,1.4,0.7,2.1,1.1h11.4l0.7-0.9c0.1-0.1,0.2-0.1,0.3,0
	c0.7,0.4,1.3,0.8,1.9,1.2c0.1,0.1,0.1,0.2,0,0.3C128.9,26.8,128.4,26.9,128.3,27.2z M125.3,22.1v0.8c0,0.9,0.1,1.1,0.1,1.7
	c0,0.1,0,0.2-0.2,0.3c-0.4,0.2-0.9,0.4-1.4,0.5c-0.1,0-0.3-0.1-0.3-0.2v-0.8h-6.2V25c0,0.2-0.2,0.3-0.3,0.4l-1.2,0.3
	c-0.1,0-0.3-0.1-0.3-0.2l0,0c0-0.7,0.1-1.4,0.1-2.1V22c0-0.8,0-1.5-0.1-2.2c0.8,0.3,1.5,0.7,2.3,1.1h5.8l0.7-1
	c0.1-0.1,0.3-0.1,0.4,0l1.6,1.1c0.1,0.1,0.1,0.3,0.1,0.4c0,0,0,0-0.1,0.1C125.7,21.6,125.4,21.7,125.3,22.1L125.3,22.1z M123.9,29.5
	v1.3c0,0.5,0,0.7,0.1,1.4c0,0.1-0.1,0.3-0.2,0.3l-1.1,0.4c-0.2,0.1-0.4,0-0.4-0.2V32h-3.7v1c0,0.2-0.2,0.3-0.3,0.3l-1,0.4
	c-0.1,0.1-0.3,0-0.4-0.1l0,0c0.1-0.7,0.1-1.5,0.1-2.2v-2c0-0.7,0-1.4-0.1-2c0.7,0.3,1.4,0.6,2,1h3.3l0.7-0.9c0.2-0.2,0.3-0.1,0.5,0
	s0.9,0.5,1.3,0.9c0.2,0.1,0.2,0.3,0,0.4S124,29.1,123.9,29.5L123.9,29.5z M123.5,21.5h-6.2v2.2h6.3L123.5,21.5z M122.3,29h-3.7v2.3
	h3.7V29z"/>
<path class="st0" d="M140.5,26.2V24h-5l-1.1,0.2l-0.6-0.8h6.7c0-1,0-1.5,0-2.2l0.9,0.2c1.4-1.7,2.4-3.7,3-5.8c0.7,0.3,1.4,0.6,2,1.1
	c0.4,0.5-0.4,0.4-0.6,0.8s-0.6,0.7-0.8,1h3.3l0.9-1.2c0.1-0.1,0.3-0.1,0.4,0c0.6,0.5,1.2,1,1.7,1.5c0.1,0.1,0,0.4-0.1,0.4h-0.4h-4.9
	c0.6,0.4,1.2,0.8,1.7,1.3c0.2,0.2,0.3,0.4,0.3,0.7c-0.1,0.5-0.4,1-0.9,1.2c-0.2,0.1-0.4,0.1-0.5,0l-0.2-0.2c-0.1-1.1-0.4-2.1-0.9-3
	h-0.8c-0.8,0.9-1.6,1.7-2.6,2.4c0.3,0.1,0.6,0.2,0.9,0.4c0.1,0.1,0.1,0.2,0,0.3c-0.2,0.2-0.6,0.3-0.6,0.7v0.4h4.1l0.8-1
	c0.1-0.1,0.3-0.1,0.4,0l0,0c0.5,0.5,1,0.8,1.4,1.3c0.1,0.1,0.1,0.3-0.1,0.4h-6.6v2.2h6.3l1-1.2c0.1-0.1,0.3-0.1,0.4,0
	c0.6,0.4,1.1,0.9,1.6,1.5c0,0.1,0,0.3-0.2,0.3h-17.9l-1.3,0.2l-0.6-0.9L140.5,26.2z M140.4,17.2c0.1-0.1,0.4-0.1,0.5,0l1.4,1.4
	c0.2,0.1,0.1,0.3,0,0.4h-0.1h-4.1c0.7,0.5,1.9,1.3,1.6,2.2c-0.2,0.5-0.5,0.8-1,1c-0.2,0-0.4,0-0.5-0.1c-0.3-0.4-0.2-1-0.3-1.5
	c-0.1-0.6-0.3-1.2-0.7-1.6h-0.8c-1.2,1.8-2.7,3.5-4.4,4.9l-0.3-0.3c1.8-2.3,3.2-4.8,4-7.6l0.2-0.6c0.8,0.3,1.6,0.6,2.4,1.1
	c0.1,0.1,0.1,0.2,0,0.3c-0.2,0.2-0.6,0.2-0.8,0.4l-0.7,1.1l2.4,0.1L140.4,17.2z M148.5,27.9c0.1-0.1,0.3-0.1,0.4,0
	c0.6,0.4,1.2,0.9,1.6,1.5c0.1,0.1,0,0.2-0.2,0.3h-4.4v3.9c0.2,0.7-0.1,1.4-0.7,1.8c-0.6,0.4-1.3,0.7-2.1,0.8
	c-0.2-1.1-1.1-1.9-2.1-2.1l0.1-0.5c0.9,0.1,1.8,0.2,2.7,0.3c0.1-0.1,0.2-0.2,0.3-0.3v-3.8h-8.2c-0.6,0-1.2,0.1-1.8,0.3l-0.4-0.9H144
	c0-0.9,0-1.3-0.1-2c0.8,0.1,1.6,0.3,2.4,0.6c0.1,0,0.3,0.1,0.2,0.3s-0.3,0.3-0.5,0.4s-0.1,0.4-0.2,0.7h1.8L148.5,27.9z M137.4,30.1
	c0.7,0.2,1.4,0.5,2,1c0.6,0.3,1.3,0.8,1.2,1.6c0,0.6-0.3,1.1-0.8,1.4c-0.2,0.1-0.5,0-0.7-0.2c-0.4-1.3-1-2.5-2-3.5L137.4,30.1z"/>
<path class="st0" d="M172.1,26.5h-7.6c0.5,0.4,0.9,0.7,1.4,1.2c0.1,0.2-0.1,0.3-0.3,0.4l-0.9,0.4c-1.3,1.6-2.7,3.2-4.3,4.6l3.2-0.2
	l3.5-0.4l0.6-0.1c-0.4-1.1-1-2.2-1.9-3l0.3-0.3c1.4,0.8,2.7,1.9,3.9,3.1c0.6,0.7,0.9,1.7,0.6,2.5c-0.2,0.5-0.6,1-1.2,1.2
	c-0.2,0-0.3,0-0.5-0.2c-0.3-0.7-0.4-1.4-0.7-2.1c0-0.2-0.1-0.4-0.2-0.6l-0.8,0.2l-4.1,1c-1.1,0.2-2.3,0.5-3.4,0.9
	c-0.1,0.5-0.6,0.5-0.7,0.2l-0.8-1.9c-0.1-0.4,0.5-0.4,0.7-0.6c1.1-0.9,2.1-2,2.7-3.3c0.7-1,1.2-2,1.8-3.1h-3.3
	c-0.6,0-1.1,0.1-1.6,0.3L158,26l-1.1,3.7c-0.3,0.9-0.3,1.8-0.2,2.7c0.1,1.2,0.8,2.5,0.1,3.6c-0.2,0.2-0.5,0.3-0.7,0.3
	c-0.6-0.3-1.2-0.8-1.5-1.4c-0.3-0.8,0.1-1.4,0.3-2.1c0.1-0.4,0.1-0.8,0-1.2c-0.3-1.1-1.5-1.4-2.4-1.7v-0.5c0.8,0,1.6,0,2.4-0.1
	c0.3-0.2,0.5-0.4,0.7-0.7c1.6-3.1,3.1-6.3,4.4-9.6l0.4,0.2c-0.2,0.7-0.5,1.4-0.8,2.1h4v-3.1v-2.1c0.9,0.2,1.8,0.5,2.7,0.9
	c0.1,0.1,0.2,0.2,0.1,0.4l0,0c-0.2,0.2-0.8,0.6-0.8,0.8v3.1h2.6l1-1.3c0.1-0.1,0.3-0.1,0.4,0c0.7,0.6,1.2,1,1.7,1.6
	c0,0.1,0.1,0.2,0,0.3L171,22h-5.5v3.9h3.5l0.8-1.3c0.1-0.1,0.4-0.1,0.5,0c0.7,0.5,1.3,1,1.9,1.6C172.3,26.3,172.3,26.5,172.1,26.5z
	 M155.3,25.8c-0.2,0.1-0.4,0-0.5-0.1c-0.3-0.6-0.6-1.2-0.8-1.9c-0.2-0.7-0.7-1.4-1.2-2l0.4-0.4c0.9,0.4,1.8,0.8,2.6,1.3
	c0.5,0.3,0.8,0.8,0.8,1.4C156.4,24.9,156,25.5,155.3,25.8z M158.2,20.6c-0.2,0.2-0.4,0.6-0.8,0.6c-0.2,0-0.4-0.1-0.5-0.2
	c-0.2-0.4-0.3-0.9-0.5-1.3c-0.3-1-0.9-1.9-1.5-2.6l0.4-0.4c1.2,0.4,2.2,1.1,3.1,2C158.6,19.3,158.6,20,158.2,20.6z M161.5,21.9
	c-0.5,0-1,0.1-1.5,0.2l-0.5-0.7c-0.5,1.4-0.9,2.7-1.5,4.3h5.5v-3.9L161.5,21.9z"/>
<path class="st0" d="M180.3,18.7c-0.4,0.2-0.7,0.6-0.9,1c-0.6,1.2-1.4,2.3-2,3.4c1.5,1.4,3.2,2.9,2.9,5.1c-0.3,1.4-1.4,2.5-2.8,2.9
	c0-1-0.6-1.9-1.6-2.3l0.1-0.4c0.8,0.3,1.7,0.7,2.2-0.3c0.6-1.9-0.5-3.6-1.7-4.9c0.6-1.6,1.2-3.2,1.5-4.8h-2.2v11.3l0.1,3.5V35
	c0,0.1-0.1,0.2-0.1,0.3c-0.5,0.3-1,0.5-1.5,0.7c-0.1,0-0.3,0-0.2-0.2c0-1,0.1-2.1,0.1-3.2V29v-9.6L174,17c0.6,0.3,1.1,0.5,1.8,0.9h2
	l0.6-0.8c0.1-0.1,0.2-0.1,0.4-0.1c0.6,0.4,1.2,0.8,1.8,1.3C180.6,18.5,180.5,18.6,180.3,18.7L180.3,18.7z M190.8,35.1
	c-1.1,0.1-2.2,0.1-3.3,0c-0.9-0.1-1.5-0.3-1.7-1.2c-0.1-0.9-0.1-1.8,0-2.6v-4.5h-1.4c-0.2,2.2-0.3,4.6-2.1,6.2
	c-1.5,1.3-3.4,2.2-5.4,2.6l-0.2-0.4c2.4-0.9,5-2.6,5.5-5.5c0.2-0.9,0.2-1.9,0.2-2.9h-0.3c-0.5,0-1,0.1-1.4,0.3l-0.4-0.9h8.5l1.1-1.4
	c0.1-0.1,0.3-0.1,0.4,0c0.7,0.4,1.3,0.9,1.9,1.5c0.1,0.1,0,0.3-0.1,0.4H192h-4.6V33c0.1,0.3,0.4,0.6,0.8,0.5c0.9,0,2,0.2,2.4-0.5
	c0.3-0.7,0.5-1.4,0.5-2.2l0.1-1.6h0.5c-0.1,1.1,0,2.2,0.4,3.3c0.2,0.3,0.5,0.6,0.9,0.8C192.7,34.2,191.9,34.9,190.8,35.1z
	 M191.5,20.4c-0.9,0.4-1.7,1-2.5,1.7c0.4,0.3,0.7,0.6,1,1c0.1,0.1,0,0.3-0.1,0.3h-6.2c-0.6,0-1.1,0.1-1.6,0.3l-0.5-0.9h5.5l0.9-1.2
	c0.2-0.2,0.3,0,0.6,0.2c0.3-0.5,0.6-1,0.8-1.5c0-0.1,0.2-0.4,0.2-0.5H182c0.2,0.9,0,1.9-0.5,2.7c-0.4,0.4-1,0.6-1.6,0.4
	c-0.2,0-0.4-0.2-0.5-0.4c-0.2-0.5,0.4-0.9,0.6-1.2c0.7-0.9,1.1-1.9,1.1-3.1l0.2-0.1c0.2,0.3,0.3,0.7,0.4,1h3.1
	c-0.3-1.1-0.8-2.1-1.6-2.9L183,16l0.1-0.3c0.3,0,0.7,0.1,1,0.1c0.7,0.1,1.3,0.4,1.9,0.7c0.4,0.2,0.6,0.6,0.6,1.1
	c0,0.4-0.2,0.9-0.6,1.2l-0.2,0.2h3.4l0.8-1c0.1-0.1,0.2-0.1,0.4,0c0.6,0.5,1.2,1,1.7,1.5c0.1,0.1,0.2,0.2,0.1,0.4
	C192.2,20.3,191.8,20.3,191.5,20.4z"/>
<path class="st0" d="M235,32.6c1,0.3,1.9,0.4,2.9,0.5c0.4,0,0.8-0.3,0.9-0.6c0.5-1.4,0.6-4.6,0.6-6.9h-3.5c-0.2,2-0.9,4-1.9,5.8
	c-1.5,2.4-4.1,3.6-6.4,4.8c-0.1-0.2-0.5-0.4-0.1-0.5c2.2-1.5,4.3-3.4,5.3-5.8c0.5-1.4,0.8-2.8,1-4.3h-1.6c-0.4,0-0.8,0.1-1.1,0.2
	l-0.5-0.6c-0.4,0.2-0.7,0.6-1,0.9c-1,0.7-1.9,1.4-2.9,2l-0.2-0.3c2.8-2.5,4.9-5.6,6.4-9.1c0.3-0.7,0.5-1.3,0.7-2h0.1
	c0.8,0.4,1.4,1,2.2,1.6c0.1,0.1,0.2,0.2,0.1,0.4s-0.6,0.1-0.7,0.4c-1.2,2.2-2.6,4.1-4.3,5.9h8.5l0.8-0.9c0.1-0.1,0.3-0.1,0.5,0l0,0
	c0.5,0.3,0.7,0.5,1.1,0.9c-2.3-2.5-3.8-5.7-4.2-9.2c0.8,0.1,1.5,0.3,2.2,0.6c0.1,0.1,0.1,0.2,0.1,0.3c-0.3,0.2-0.8,0.4-0.7,0.9
	c0.7,2.3,2.2,4.3,4.2,5.6c1.1,0.7,2.3,1.4,3.5,1.9l-0.1,0.3c-1.2-0.2-2.4,0.2-3.1,1.1c-0.5-0.3-1-0.7-1.4-1.1c-0.1,0,0,0.1-0.1,0.1
	c-0.2,0.2-0.6,0.3-0.6,0.7v0.6l-0.1,3.5c-0.1,2.2-0.1,4.3-2.4,5.3c-0.5,0.2-1,0.4-1.5,0.4c0-1.4-1.3-2.5-2.5-2.9L235,32.6z"/>
<path class="st0" d="M254.4,18.7c-0.4,0.2-0.7,0.6-0.9,1c-0.6,1.2-1.4,2.3-2.1,3.4c1.5,1.4,3.2,2.9,2.9,5.1
	c-0.3,1.4-1.4,2.5-2.8,2.9c0-1-0.6-1.9-1.6-2.3l0.1-0.4c0.8,0.3,1.7,0.7,2.2-0.3c0.6-1.9-0.5-3.6-1.7-4.9c0.6-1.6,1.1-3.2,1.5-4.8
	h-2v11.3l0.1,3.5V35c0,0.1-0.1,0.2-0.1,0.3c-0.5,0.3-1,0.5-1.5,0.7c-0.1,0-0.3,0-0.2-0.2c0-1,0.1-2.1,0.1-3.2V29v-9.6l-0.1-2.3
	c0.6,0.3,1.1,0.5,1.8,0.9h2l0.6-0.8c0.1-0.1,0.2-0.1,0.4-0.1c0.6,0.4,1.2,0.8,1.7,1.3C254.7,18.5,254.6,18.6,254.4,18.7
	C254.5,18.7,254.4,18.7,254.4,18.7z M265,35.1c-1.1,0.1-2.2,0.1-3.3,0c-0.9-0.1-1.5-0.3-1.7-1.2c-0.1-0.9-0.1-1.8,0-2.6v-4.5h-1.4
	c-0.2,2.2-0.3,4.6-2,6.2c-1.5,1.3-3.4,2.2-5.4,2.6l-0.2-0.4c2.4-0.9,5-2.6,5.5-5.5c0.2-0.9,0.2-1.9,0.2-2.9h-0.3
	c-0.5,0-1,0.1-1.4,0.3l-0.4-0.9h8.5l1.1-1.4c0.1-0.1,0.3-0.1,0.4,0c0.7,0.4,1.3,0.9,1.9,1.5c0.1,0.1,0,0.3-0.1,0.4h-0.1h-4.5V33
	c0.1,0.3,0.4,0.6,0.7,0.5c0.9,0,2,0.2,2.4-0.5c0.3-0.7,0.5-1.4,0.5-2.2l0.1-1.6h0.5c-0.1,1.1,0,2.2,0.4,3.3c0.2,0.3,0.5,0.6,0.9,0.8
	C266.9,34.2,266,34.9,265,35.1z M265.6,20.4c-0.9,0.4-1.8,1-2.5,1.7c0.4,0.3,0.7,0.6,1,1c0.1,0.1,0,0.2,0,0.3l0,0h-6.2
	c-0.6,0-1.1,0.1-1.6,0.3l-0.5-0.9h5.5l0.9-1.2c0.2-0.2,0.3,0,0.6,0.2c0.3-0.5,0.6-1,0.8-1.5c0-0.1,0.2-0.4,0.2-0.5h-7.6
	c0.2,0.9,0,1.9-0.5,2.7c-0.4,0.4-1,0.6-1.6,0.4c-0.2,0-0.4-0.2-0.5-0.4c-0.2-0.5,0.4-0.9,0.6-1.2c0.7-0.9,1.1-1.9,1.1-3.1l0.2-0.1
	c0.2,0.3,0.3,0.7,0.4,1h3c-0.2-1.1-0.8-2.1-1.6-2.9l-0.2-0.2l0.1-0.3c0.3,0,0.7,0.1,1,0.1c0.7,0.1,1.3,0.4,1.9,0.7
	c0.4,0.2,0.6,0.6,0.6,1.1c0,0.4-0.2,0.9-0.5,1.2L260,19h3.4l0.8-1c0.1-0.1,0.2-0.1,0.4,0c0.6,0.5,1.2,1,1.7,1.5
	c0.1,0.1,0.2,0.2,0.1,0.4C266.4,20.3,265.9,20.3,265.6,20.4z"/>
<path class="st0" d="M89.6,39.9c-0.8,0-1.2,0.1-1.4,0.5c-0.2,0.3-0.3,0.7-0.3,1.1h-0.6v-2.3h8.1v2.3h-0.6c0-0.3-0.1-0.7-0.3-1
	c-0.3-0.5-0.6-0.6-1.3-0.6h-1v6c0,0.7,0.3,1,1.1,1h0.1v0.5h-4.1V47h0.1c0.8,0,1.1-0.2,1.1-1v-6L89.6,39.9z"/>
<path class="st0" d="M102.2,46.1L102.2,46.1c0,0.8-0.5,1.4-1.2,1.4c-0.1,0-0.1,0-0.2,0c-0.6,0.1-1.1-0.3-1.2-0.8
	c-0.5,0.5-1.2,0.8-1.9,0.8c-0.9,0-1.6-0.4-1.6-1.1s0.5-1.3,1.5-1.7c0.6-0.2,1.1-0.4,1.7-0.5h0.2v-0.3c0-0.6-0.3-0.9-0.9-0.9
	c-0.4-0.1-0.8,0.2-0.9,0.7v0.1c0,0.4-0.3,0.6-0.7,0.6c0,0,0,0-0.1,0c-0.3,0-0.6-0.2-0.6-0.5v-0.1c0-0.8,1-1.4,2.5-1.4
	s2.3,0.5,2.3,1.5V46c0,0.7,0.1,0.9,0.4,0.9s0.4-0.2,0.4-0.5L102.2,46.1z M99.5,44.7c-1.2,0.4-1.8,0.8-1.8,1.4c0,0.3,0.2,0.6,0.5,0.6
	h0.1c0.4,0,0.8-0.2,1.1-0.5v-1.5H99.5z"/>
<path class="st0" d="M104.9,46c0,0.7,0.1,0.9,0.8,0.9l0,0v0.5h-3.2v-0.5h0.2c0.6,0,0.7-0.2,0.7-0.9v-1.8c0-0.8-0.1-0.8-0.9-0.8v-0.5
	l2.4-0.5V46z M104.2,39.1c0.5,0,0.9,0.4,0.9,0.9s-0.4,0.9-0.9,0.9s-0.9-0.4-0.9-0.9l0,0C103.3,39.5,103.7,39.1,104.2,39.1
	L104.2,39.1z"/>
<path class="st0" d="M107,43.9c-0.4-0.8-0.4-0.8-1-0.9v-0.6h3.1V43h-0.2c-0.3,0-0.4,0.1-0.4,0.3c0,0.1,0,0.2,0.1,0.3l1,2.1l1.6-3.3
	h0.4l1.7,3.3l0.9-1.9c0.1-0.2,0.1-0.4,0.2-0.5c0-0.2-0.2-0.3-0.6-0.3h-0.1v-0.6h2.1V43l0,0c-0.5,0-0.6,0.1-1,0.9
	c-0.1,0.2-0.2,0.3-0.2,0.4l-1.6,3.2h-0.5l-1.7-3.3l-1.6,3.2h-0.5L107,43.9z"/>
<path class="st0" d="M122.4,46.1L122.4,46.1c0,0.8-0.5,1.4-1.2,1.4c-0.1,0-0.1,0-0.2,0c-0.6,0.1-1.1-0.3-1.2-0.8
	c-0.5,0.5-1.2,0.8-1.9,0.8c-1,0-1.6-0.4-1.6-1.1s0.5-1.3,1.5-1.7c0.6-0.2,1.1-0.4,1.7-0.5h0.2v-0.3c0-0.6-0.3-0.9-1-0.9
	c-0.4-0.1-0.8,0.2-0.9,0.7v0.1c0,0.4-0.3,0.6-0.7,0.6l0,0c-0.3,0-0.6-0.2-0.6-0.5v-0.1c0-0.8,1-1.4,2.5-1.4s2.3,0.5,2.3,1.5V46
	c0,0.7,0.1,0.9,0.4,0.9s0.4-0.2,0.4-0.5L122.4,46.1z M119.7,44.7c-1.2,0.4-1.8,0.8-1.8,1.4c0,0.3,0.2,0.6,0.5,0.6h0.1
	c0.4,0,0.8-0.2,1.1-0.5v-1.5H119.7z"/>
<path class="st0" d="M125,43.2c0.4-0.6,1.1-0.9,1.8-0.9c0.9-0.1,1.7,0.5,1.8,1.4c0,0.1,0,0.2,0,0.3v2c0,0.7,0.1,0.9,0.8,0.9l0,0v0.5
	h-3.1v-0.5l0,0c0.5,0,0.7-0.2,0.7-0.6V46v-1.8c0-0.7-0.3-1-0.8-1c-0.7,0.1-1.3,0.7-1.2,1.5l0,0v1.5c0,0.6,0.1,0.7,0.8,0.7v0.5h-3.2
	v-0.5h0.1c0.6,0,0.7-0.2,0.7-0.9v-2c0-0.5-0.1-0.7-0.8-0.7h-0.1v-0.5l2.4-0.4c0,0.2,0,0.4,0,0.6L125,43.2L125,43.2z"/>
<path class="st0" d="M136.6,45.9c0,0.7,0.3,1,1.1,1l0,0v0.5h-4v-0.5l0,0c0.9,0,1.1-0.2,1.1-1v-5.1c0-0.7-0.3-1-1.1-1l0,0v-0.6h4v0.6
	l0,0c-0.9,0-1.1,0.2-1.1,1v2h3.8v-2c0-0.7-0.2-1-1.1-1l0,0v-0.6h4v0.6l0,0c-0.8,0-1.1,0.2-1.1,1v5.1c0,0.7,0.3,1,1.1,1l0,0v0.5h-4
	v-0.5l0,0c0.9,0,1.1-0.2,1.1-1v-2.4h-3.8V45.9z"/>
<path class="st0" d="M146.2,46c0,0.7,0.1,0.9,0.8,0.9l0,0v0.5h-3.2v-0.5h0.2c0.6,0,0.7-0.2,0.7-0.9v-1.8c0-0.8-0.1-0.8-0.9-0.8v-0.5
	l2.4-0.5V46z M145.5,39.1c0.5,0,0.9,0.4,0.9,0.9s-0.4,0.9-0.9,0.9s-0.9-0.4-0.9-0.9l0,0C144.6,39.5,145,39.1,145.5,39.1L145.5,39.1z
	"/>
<path class="st0" d="M150.4,48.2c-1.2,0-1.7-0.1-2-0.5c-0.2-0.2-0.3-0.5-0.3-0.8c0-0.5,0.4-0.9,1.1-1.2c0.2-0.1,0.3-0.1,0.5-0.1l0,0
	c-1.1-0.2-1.6-0.7-1.6-1.5c0-1.1,1-1.8,2.4-1.8c0.7,0,1.3,0.2,1.8,0.5c0.2-0.3,0.6-0.5,1-0.5s0.6,0.2,0.6,0.5c0,0.2-0.2,0.5-0.4,0.5
	c0,0,0,0-0.1,0s-0.2,0-0.2-0.1l-0.1-0.1c-0.1-0.1-0.2-0.1-0.3-0.1s-0.2,0-0.3,0.1c0.3,0.3,0.4,0.6,0.4,1c0,0.7-0.4,1.3-1,1.5
	c-0.3,0.1-0.7,0.2-1,0.2l-0.6,0.1c-1,0.1-1.4,0.3-1.4,0.6s0.2,0.3,0.8,0.3h0.8c0.6,0,1.2,0,1.7,0.2c0.7,0.2,1.2,0.8,1.2,1.5
	c-0.1,0.9-0.8,1.7-1.7,1.8c-0.5,0.1-0.9,0.1-1.4,0.1c-1.7,0-2.7-0.5-2.7-1.3c0-0.4,0.3-0.7,0.6-0.7c0,0,0,0,0.1,0s0.3,0,0.4,0.1
	c-0.1,0.1-0.1,0.3-0.1,0.5c0,0.6,0.7,1,1.9,1s2-0.4,2-1s-0.5-0.7-1.6-0.7L150.4,48.2z M150.5,45.3c0.6,0,0.9-0.5,0.9-1.2
	s-0.4-1.3-1-1.3s-1,0.4-1,1.2S149.9,45.3,150.5,45.3z"/>
<path class="st0" d="M156.3,43.2c0.4-0.6,1.1-0.9,1.8-0.9c0.6,0,1.2,0.2,1.6,0.8c0.2,0.3,0.3,0.7,0.2,1.1V46c0,0.7,0.1,0.9,0.8,0.9
	h0.1v0.5h-3.1v-0.5h0.1c0.5,0,0.7-0.2,0.7-0.6v-2c0-0.8-0.2-1.2-0.8-1.2c-0.4,0-0.8,0.2-1,0.6c-0.2,0.3-0.3,0.7-0.2,1.1v1
	c0,0.9,0.1,1,0.7,1l0,0v0.5H154v-0.5h0.1c0.6,0,0.8-0.2,0.8-0.9v-5.1c0-0.6-0.1-0.8-0.9-0.8v-0.5l2.4-0.5L156.3,43.2z"/>
<path class="st0" d="M173.1,47.3h-0.6c-0.1-0.3-0.2-0.6-0.4-0.9c-0.6,0.8-1.6,1.2-2.6,1.2c-2.3,0-4.1-1.8-4.1-4c0-0.1,0-0.1,0-0.2
	c-0.1-2.3,1.7-4.2,4-4.3c0.1,0,0.2,0,0.3,0c0.9,0,1.8,0.3,2.5,1c0.1-0.2,0.2-0.5,0.3-0.8h0.5l0.1,3h-0.5c-0.2-1.4-1.3-2.5-2.8-2.6
	c-1.1,0.1-2,0.9-2.1,2c-0.1,0.6-0.2,1.1-0.2,1.7c0,2.2,1,3.5,2.6,3.5c1.3-0.2,2.4-1.2,2.6-2.6h0.6L173.1,47.3z"/>
<path class="st0" d="M177.3,42.3c1.5-0.2,2.8,0.9,3,2.3c0,0.1,0,0.2,0,0.2c0.2,1.6-0.9,3.2-2.5,3.4s-3.2-0.9-3.4-2.5
	s0.9-3.2,2.5-3.4C177,42.3,177.1,42.3,177.3,42.3z M176.2,46.5c0.2,0.4,0.6,0.7,1.1,0.7c1,0,1.3-0.6,1.3-2.2s-0.4-2-1.3-2
	s-1.3,0.5-1.3,2C176,45.5,176,45.9,176.2,46.5L176.2,46.5z"/>
<path class="st0" d="M185.2,46.7c-0.5,0.6-1.1,0.9-1.8,0.9c-0.6,0-1.1-0.2-1.4-0.6c-0.3-0.4-0.4-0.9-0.3-1.3v-1.8
	c0-0.7-0.1-0.9-0.7-0.9h-0.1v-0.6h2.4v3.3c0,0.7,0.3,1,0.8,1c0.5-0.1,1-0.4,1.2-0.9v-2c0-0.7-0.1-0.9-0.8-0.9h-0.1v-0.6h2.4v3.6
	c0,0.6,0.1,0.7,0.9,0.7v0.6c-0.8,0-1.6,0.1-2.3,0.2h-0.1L185.2,46.7L185.2,46.7z"/>
<path class="st0" d="M190.2,42.3c0.1,0.4,0.2,0.8,0.1,1.3l0,0c0.2-0.4,0.5-0.7,0.9-1c0.3-0.2,0.6-0.3,0.9-0.3c0.6,0,1,0.4,1.1,0.9
	l0,0c0,0.4-0.3,0.7-0.7,0.8l0,0c-0.2,0-0.5-0.1-0.6-0.3s-0.2-0.3-0.4-0.3c-0.5,0-1,0.7-1,1.6v1c0,0.7,0.1,0.9,0.8,0.9h0.3v0.5h-3.7
	v-0.5h0.3c0.6,0,0.8-0.2,0.8-0.9v-1.7c0-0.7-0.1-0.9-0.9-0.9h-0.2v-0.5L190.2,42.3z"/>
<path class="st0" d="M195.7,45.9c0,0.8,0.1,1,0.4,1s0.6-0.3,0.8-0.8l0.5,0.2c-0.2,0.8-1,1.3-1.8,1.3c-0.5,0.1-1-0.2-1.3-0.6
	c-0.2-0.3-0.3-0.7-0.2-1.1V43h-0.9v-0.6h0.1c1,0,1.8-0.6,1.9-1.6h0.5v1.6h1.7V43h-1.7V45.9z"/>
<circle class="st1" cx="31.1" cy="31.7" r="30.3"/>
<linearGradient id="SVGID_1_" gradientUnits="userSpaceOnUse" x1="33.51" y1="27.35" x2="33.51" y2="4.1" gradientTransform="matrix(1 0 0 1 -2.36 33.75)">
	<stop  offset="0.69" style="stop-color:#B7A246"/>
	<stop  offset="1" style="stop-color:#FFFFFF"/>
</linearGradient>
<path class="st2" d="M60,38.1c-3.1,13.4-15,22.9-28.8,23c-14,0-25.9-10.2-28.9-23.2h7.4c2.8,9,11.5,16.1,21.5,16.1
	c9.8-0.1,18.4-6.5,21.4-15.8H60V38.1z"/>
<path class="st3" d="M52.1,31.6c0,11.6-9.4,21-21,21s-21-9.4-21-21s9.4-21,21-21S52.1,20,52.1,31.6L52.1,31.6z"/>
<path class="st1" d="M32.8,34.1h-3.3v8.2c0,0.9,0.8,1.7,1.7,1.7s1.6-0.7,1.6-1.6l0,0V34.1z"/>
<path class="st1" d="M34.1,44.3h-5.8c-0.4,0-0.7,0.3-0.8,0.6l0,0v0.8c0,0.4,0.4,0.7,0.7,0.7l0,0H34c0.4,0,0.7-0.2,0.7-0.6l0,0V45
	C34.8,44.6,34.5,44.3,34.1,44.3L34.1,44.3z"/>
<path class="st1" d="M35.2,47.2h-8c-0.6,0-1,0.3-1,0.7v0.8c0,0.4,0.4,0.7,1,0.7h8c0.5,0,1-0.3,1-0.7v-0.8
	C36.2,47.5,35.7,47.2,35.2,47.2z"/>
<path class="st1" d="M47.4,23.6c0-0.3-0.2-0.5-0.4-0.6c-0.4-0.3-1-0.2-1.4,0.1c-2.5,2.2-6.2,2.2-8.7,0.1c-3.2-2.7-7.9-2.8-11.2-0.2
	l0,0l-0.2,0.2l0,0c-1.2,1.1-2.8,1.7-4.4,1.7s-3.2-0.6-4.4-1.7c-0.2-0.2-0.4-0.3-0.7-0.3c-0.2,0-0.5,0-0.7,0.2
	c-0.2,0.1-0.4,0.4-0.4,0.6v0.1c0,0.2,0.1,0.4,0.3,0.6c1.6,1.5,3.7,2.3,5.9,2.3c2,0,3.9-0.6,5.5-1.9l0,0l0,0l0.1-0.1
	c2.5-2.2,6.2-2.2,8.7-0.1c1.6,1.4,3.6,2.1,5.7,2.1c2.2,0,4.3-0.8,5.9-2.3c0.2-0.2,0.3-0.4,0.3-0.6v-0.2H47.4z M47.4,23.6L47.4,23.6
	L47.4,23.6z"/>
<path class="st1" d="M34.6,17.3c0,1.9-1.6,3.4-3.5,3.4c-1.9,0-3.4-1.6-3.4-3.5s1.5-3.4,3.4-3.4C33.1,13.9,34.6,15.4,34.6,17.3z"/>
<path class="st1" d="M26.1,38.7l-5.3-12c-0.1-0.2-0.3-0.4-0.5-0.4s-0.4,0.1-0.5,0.4l0,0l-5.3,12c-0.1,0.2-0.1,0.4,0,0.6
	c1.2,2,3.4,3.2,5.8,3.2c2.4,0.1,4.6-1.1,5.8-3.1C26.2,39.1,26.2,38.9,26.1,38.7z M20.2,28.5c0.3,0.7,4.3,9.8,4.6,10.4h-9.2l3.1-7
	L20.2,28.5z"/>
<path class="st1" d="M48,38.7l-5.3-12c-0.1-0.2-0.3-0.4-0.5-0.4s-0.4,0.1-0.5,0.4l0,0l-5.3,12c-0.1,0.2-0.1,0.4,0,0.6
	c1.2,2,3.4,3.2,5.8,3.2c2.4,0.1,4.6-1.1,5.8-3.1C48.1,39.1,48.1,38.9,48,38.7z M42.2,28.5l4.6,10.4h-9.2c0.2-0.4,2-4.5,2-4.5
	S41.9,29.2,42.2,28.5z"/>
<path class="st1" d="M36.8,25.8c-0.5,0-0.8,0.3-0.9,0.8c0,0.1,0,0.1,0,0.2h-1.2v-0.5h-7v0.5h-1.2c0.1-0.4-0.3-0.9-0.7-0.9
	c-0.1,0-0.1,0-0.2,0c0,0-0.8,0-0.8,1v4.4c0,1.1,0.8,1,0.8,1c0.5,0,0.9-0.3,0.9-0.8v-0.1h1.1v0.5h1.9v1.6h3.3V32h1.9v-0.5h1.2
	c-0.1,0.5,0.3,0.9,0.7,0.9h0.1c0,0,0.8,0,0.8-1V27C37.5,25.7,36.8,25.8,36.8,25.8z"/>
<path class="st4" d="M133.9,42.2"/>
<path class="st1" d="M10.8,51.1l-2.7-3.4l0.2-0.1l1.2,1.6L9.7,49l-1.1-1.4l0.1-0.1l1.1,1.4l0.2-0.2l-0.9-1.2l0.1-0.2
	c0.2,0.2,0.5,0.4,0.8,0.5l-0.4-0.5l0.1-0.1l1.9,2.4l-0.1,0.1l-0.2-0.3c0,0.2-0.1,0.5-0.1,0.7l-0.2,0c0-0.1,0-0.2,0.1-0.3
	c-0.4-0.4-0.6-0.7-0.8-0.9l-0.2,0.2l1.1,1.4L11,50.6l-1.1-1.3l-0.2,0.2L11,51L10.8,51.1z M11.9,50.1l-0.2-0.2l0.4-0.3l-2.2-2.8
	L9.5,47l-0.2-0.2l0.5-0.4l2.6,3.2L11.9,50.1z M11.1,49.5c0-0.1,0-0.2,0-0.2h0.1l-0.9-1.2c-0.2,0-0.4-0.1-0.6-0.2L11.1,49.5z
	 M12.3,49.2l-2-2.5l0.5-0.4l2,2.5L12.3,49.2z M12.3,48.8l0.2-0.2l-1.6-2.1l-0.2,0.2L12.3,48.8z M13.7,48.7l-1.3-1.6l-0.2,0.2
	l1.1,1.4l-0.2,0.1l-2.4-3l0.2-0.1l1.1,1.4l0.2-0.2L11,45.4l0.2-0.1l1.3,1.6l0.2-0.1l0.2,0.2l-0.2,0.1l1.3,1.6H13.7z"/>
<path class="st1" d="M13.3,51.3c-0.5,0.3-1,0.5-1.5,0.7l-0.1-0.2c0.5-0.2,1-0.4,1.5-0.7L13.3,51.3z M15.3,54.1L15,54.4
	c-0.1,0.1-0.2,0.1-0.2,0.1c-0.1,0-0.2,0-0.3-0.1l-0.9-0.7l0.1-0.2l0.9,0.8c0,0.1,0.1,0.1,0.2,0l0,0L15,54l-2.2-1.9l0.7-0.4l1.9,1.6
	l0.2-0.2l-2.1-1.8l0.1-0.1l2.3,1.9l-0.5,0.5L13.5,52l-0.3,0.2L15.3,54.1z M13.8,50.6h-0.2c0-0.3-0.1-0.6-0.1-0.9h0.2
	C13.8,50.1,13.8,50.3,13.8,50.6z M14.1,50.9c-0.1,0.1-0.3,0.2-0.5,0.3L13.5,51c0.2-0.1,0.3-0.2,0.5-0.3L14.1,50.9z M14.1,51.5
	l-0.2-0.1c0.1-0.1,0.2-0.3,0.3-0.4l0.2,0.1C14.2,51.3,14.1,51.4,14.1,51.5L14.1,51.5z M14.9,51.2l-0.2-0.1V51
	c-0.2-0.1-0.5-0.3-0.7-0.4v-0.2c0.4,0,0.6,0,0.8-0.1L14.5,50l0.1-0.2c0.3,0,0.6-0.1,0.9-0.2l0.1,0.2c-0.2,0.1-0.5,0.1-0.8,0.2
	l0.3,0.2l0.3-0.1l0.1,0.2c-0.4,0.1-0.7,0.2-1.1,0.2c0.1,0.1,0.2,0.2,0.4,0.2c0,0,0-0.1,0-0.2l0.2,0.1C15,50.9,15,51.1,14.9,51.2
	L14.9,51.2z M14.7,49.8h-0.2c0-0.3-0.1-0.6-0.1-0.9h0.2C14.6,49.2,14.7,49.5,14.7,49.8L14.7,49.8z M14.5,51.7l-0.2-0.1
	c0.1-0.1,0.2-0.3,0.2-0.4l0.2,0.1C14.7,51.4,14.6,51.6,14.5,51.7z M15.3,52.4l-0.7-0.6l0.5-0.5l0.7,0.6L15.3,52.4z M15.3,52.2
	l0.2-0.2l-0.3-0.3L15,51.9L15.3,52.2z M15.9,51.8l-0.7-0.6l0.1-0.2l0.7,0.6L15.9,51.8z M15.9,52.4c-0.1,0.1-0.3,0.2-0.5,0.3
	l-0.1-0.2c0.2-0.1,0.3-0.2,0.5-0.3L15.9,52.4z M16.1,51.4l-0.7-0.6v-0.2l0.7,0.6V51.4z M16.5,51.2l-0.9-0.7l0.1-0.2l0.4,0.3
	c0-0.1,0.1-0.2,0.1-0.3l0.2,0.1c0,0.1-0.1,0.3-0.1,0.4l0.3,0.2L16.5,51.2z M16,53l-0.2-0.1c0.1-0.1,0.2-0.3,0.3-0.4l0.2,0.1
	C16.1,52.8,16,52.9,16,53L16,53z M16.7,52.8l-0.2-0.1c0,0,0-0.1,0.1-0.1l-0.7-0.5l0.1-0.2c0.3,0,0.5,0,0.8,0l-0.4-0.3l0.1-0.2
	c0.3,0,0.7-0.1,1-0.2l0.1,0.2c-0.3,0.1-0.5,0.1-0.8,0.2l0.4,0.2l0.3-0.1l0.1,0.2c-0.4,0.1-0.7,0.1-1.1,0.2c0.1,0.1,0.2,0.2,0.4,0.2
	c0,0,0-0.1,0-0.2l0.2,0.1C16.8,52.5,16.7,52.6,16.7,52.8L16.7,52.8z M16.3,53.3l-0.2-0.1c0.1-0.2,0.1-0.4,0.2-0.5l0.2,0.1
	C16.4,53,16.4,53.2,16.3,53.3L16.3,53.3z"/>
<path class="st1" d="M19.7,57.2c-0.1,0.1-0.1,0.1-0.2,0.2c-0.1,0-0.2,0-0.4-0.1l-0.2-0.1v-0.3l0.4,0.2c0.1,0.1,0.2,0,0.3,0l0.6-1.2
	l-2.9-1.6l-0.8,1.5l-0.2-0.1l1-1.8l3.4,1.8L19.7,57.2z M19,56.6l-1.8-1l0.5-0.8l1.8,1L19,56.6z M18.9,56.3l0.2-0.4l-1.4-0.7
	l-0.2,0.4L18.9,56.3z M21.4,54.5l-3.8-2.1l0.1-0.2l1.8,1c0-0.1,0.1-0.3,0.1-0.4h0.3c0,0.2,0,0.3-0.1,0.5l1.8,1L21.4,54.5z
	 M20.2,55.2l-2.5-1.4l0.4-0.8l2.5,1.4L20.2,55.2z M20.1,54.9l0.2-0.4l-2-1.1l-0.2,0.4L20.1,54.9z"/>
<path class="st1" d="M25.5,58.2l-0.9-0.3l-0.2,0.7c0,0.2-0.1,0.3-0.2,0.3c-0.2,0-0.4,0-0.5-0.1l-0.4-0.1v-0.3l0.5,0.1l0.3,0.1
	c0.1,0,0.1,0,0.1-0.1l0.2-0.8l-3.1-0.9l0.1-0.2l3.1,0.9l0.1-0.4l-2.7-0.8l0.1-0.2l1.6,0.5l0.1-0.4l-1.8-0.5l0.1-0.2l1.8,0.5l0.1-0.3
	l0.2,0.1L24,56.1l1.8,0.5l-0.1,0.2l-1.8-0.5l-0.1,0.4l1.6,0.5l-0.1,0.2l-0.5-0.1l-0.1,0.4l0.9,0.3L25.5,58.2z M24,55.3l-1.4-0.4
	c-0.2,0.1-0.4,0.2-0.6,0.3L21.8,55c0.4-0.1,0.8-0.4,1.1-0.8l0.2,0.2l-0.3,0.3L24,55L24,55.3z M22.9,58.3l-0.2,0.1
	c-0.1-0.3-0.3-0.6-0.5-0.8l0.2-0.1C22.5,57.7,22.7,58,22.9,58.3L22.9,58.3z M23.2,55.7H23c0-0.2-0.1-0.3-0.2-0.5H23
	C23.1,55.4,23.2,55.5,23.2,55.7L23.2,55.7z M26.1,56l-1.6-0.5c-0.1,0.1-0.2,0.1-0.4,0.2L24,55.5c0.3-0.1,0.6-0.3,0.9-0.6L25,55
	c-0.1,0.1-0.2,0.2-0.3,0.3l1.4,0.4V56z M25.3,56.3H25c-0.1-0.2-0.1-0.3-0.2-0.5h0.3C25.2,56,25.3,56.1,25.3,56.3L25.3,56.3z"/>
<path class="st1" d="M27.5,58c-0.3,0.5-0.6,1.1-1,1.5l-0.3-0.2c0.4-0.5,0.8-1,1-1.5L27.5,58z M27.6,57.3l-0.2,0.2
	c-0.2-0.3-0.5-0.5-0.8-0.7l0.2-0.2C27,56.8,27.3,57,27.6,57.3z M27.8,56.1l-0.2,0.2c-0.2-0.3-0.5-0.5-0.8-0.7l0.2-0.2
	C27.3,55.6,27.5,55.8,27.8,56.1z M30.9,57.9l-1.6-0.1c-0.4,0.6-0.8,1.1-1.3,1.6c0.7,0,1.4-0.1,2.1-0.2c-0.1-0.3-0.3-0.5-0.5-0.8
	l0.2-0.1c0.3,0.5,0.6,1,0.8,1.5L30.5,60c-0.1-0.2-0.1-0.4-0.2-0.6c-0.8,0.1-1.6,0.2-2.5,0.2l-0.1-0.3c0.3-0.1,0.5-0.3,0.6-0.5
	c0.3-0.3,0.5-0.6,0.7-1l-1.2-0.1v-0.2l1.5,0.1l0.1-0.9L28,56.5v-0.2l1.3,0.1l0.1-0.7h0.3l-0.1,0.7l1.2,0.1v0.2l-1.3-0.1l-0.1,1
	l1.4,0.1L30.9,57.9z"/>
<path class="st1" d="M32.6,57.1c0.3,0.3,0.5,0.7,0.5,1.1c0,0.1,0,0.3-0.1,0.4c-0.1,0.1-0.2,0.2-0.5,0.2h-0.2l-0.1-0.2h0.3
	c0.1,0,0.2,0,0.3-0.1c0-0.1,0.1-0.1,0-0.2c-0.1-0.4-0.2-0.7-0.5-1c0.1-0.3,0.2-0.7,0.3-1.2l-0.8,0.1l0.4,3.8h-0.3l-0.4-4.1l1.3-0.1
	V56C32.8,56.3,32.7,56.7,32.6,57.1z M36.1,58.6c0,0.2,0,0.4,0,0.6c0,0.1-0.1,0.2-0.2,0.3c-0.1,0.1-0.3,0.1-0.5,0.1
	c-0.3,0-0.4-0.1-0.5-0.3l-0.1-1.5l-0.6,0.1c0,0.4,0,0.8-0.2,1.2c-0.2,0.3-0.5,0.5-0.8,0.7L33,59.6c0.3-0.1,0.6-0.4,0.8-0.7
	s0.3-0.7,0.2-1.1l-0.8,0.1v-0.2l2.7-0.3v0.2l-0.8,0.1l0.1,1.4c0,0,0,0,0,0.1c0.1,0,0.2,0,0.2,0c0.1,0,0.2,0,0.2,0s0.1,0,0.1-0.1
	s0-0.2,0-0.2c0-0.1,0-0.3,0-0.4L36.1,58.6z M35.9,56.8h-0.3l-0.1-0.7l-2.1,0.3l0.1,0.7h-0.3l-0.1-1l1.2-0.1
	c-0.1-0.1-0.1-0.3-0.2-0.4l0.3-0.1c0.1,0.2,0.2,0.3,0.2,0.5l1.2-0.1L35.9,56.8z M35.4,56.9l-1.7,0.2v-0.2l1.7-0.2V56.9z"/>
<path class="st1" d="M40.4,54.4L38.5,55l0.1,0.2l1.7-0.5l0.1,0.2L36.7,56l-0.1-0.2l1.7-0.5l-0.1-0.2l-1.9,0.6l-0.1-0.2l1.9-0.6
	L38,54.7l0.3-0.1l0.1,0.2l1.9-0.6L40.4,54.4z M41,56.6l-0.3,0.1l-0.1-0.4l-3.5,1.1l0.1,0.4l-0.2,0l-0.2-0.6l4-1.2L41,56.6z
	 M40.3,55.9l-3,0.9l-0.2-0.6l3-0.9L40.3,55.9z M41.5,58l-4.1,1.3L37.3,59l2-0.6l-0.1-0.3l-1.7,0.5v-0.2l1.7-0.5l-0.1-0.2l-1.4,0.4
	L37.6,58c0.3-0.1,0.5-0.3,0.7-0.6l-0.7,0.2l-0.1-0.2l2.9-0.9l0.1,0.2l-0.3,0.1c0.2,0.1,0.4,0.2,0.7,0.4l-0.1,0.2
	c-0.1-0.1-0.2-0.1-0.2-0.2l-1.1,0.4l0.1,0.3l1.7-0.5l0.1,0.2l-1.7,0.5l0.1,0.3l1.9-0.6L41.5,58z M40,55.7l-0.1-0.2l-2.5,0.8l0.1,0.2
	L40,55.7z M40.1,57.1L39.9,57l0.1-0.1l-1.4,0.5c-0.1,0.2-0.3,0.4-0.4,0.5C38.5,57.7,39.2,57.5,40.1,57.1L40.1,57.1z"/>
<path class="st1" d="M45.6,54.2L44,55.1l0.7,1.2l-0.2,0.1l-0.7-1.3L42.2,56l-0.9-1.7l1.6-0.9l-0.4-0.8l0.2-0.1l0.4,0.7l1.6-0.9
	L45.6,54.2z M43.6,55L43,53.8l-1.3,0.8l0.7,1.2L43.6,55z M45.2,54.1l-0.7-1.2l-1.3,0.8l0.7,1.2L45.2,54.1z"/>
<path class="st1" d="M46.1,50.4c0.3,0.8,0.3,1.7,0.1,2.6h-0.3c0.2-0.8,0.2-1.6,0-2.4L46.1,50.4z M48.6,50.5c0.3,0.4,0.6,0.7,0.9,1.1
	c0.2,0.2,0.3,0.4,0.4,0.7c0,0.1,0,0.2,0,0.3c-0.1,0.1-0.2,0.3-0.3,0.4l-0.3,0.3L49,53.1c0.2-0.1,0.3-0.2,0.4-0.3
	c0.1-0.1,0.1-0.1,0.2-0.2v-0.1c0-0.1-0.1-0.2-0.1-0.3c-0.1-0.2-0.2-0.4-0.3-0.5c-0.2-0.2-0.3-0.4-0.5-0.7l-1,0.9
	c0.5,0.8,0.6,1.9,0.2,2.8h-0.3c0.4-0.8,0.3-1.8-0.1-2.5l-0.7,0.6l-0.2-0.2L48.6,50.5z M49.3,50v0.3c-0.8,0.1-1.5,0-2.2-0.4l-0.3,0.2
	l-0.2-0.2l0.4-0.4C47.7,49.9,48.5,50.1,49.3,50z"/>
<path class="st1" d="M50.1,48.5c0.4,0,0.8,0.1,1.1,0.4c0.1,0.1,0.2,0.2,0.2,0.3s0,0.3-0.2,0.5l-0.1,0.1l-0.3-0.1l0.2-0.2
	c0.1-0.1,0.1-0.2,0.1-0.3s0-0.1-0.1-0.2c-0.3-0.2-0.7-0.3-1.1-0.3c-0.2-0.3-0.4-0.6-0.7-1l-0.5,0.6l3,2.4l-0.2,0.2l-3.2-2.6l0.8-1
	l0.2,0.2C49.7,47.8,49.9,48.1,50.1,48.5z M52.1,45.9l-0.2,0.2l-0.6-0.5L50,47.3l0.6,0.4L50.5,48l-0.8-0.6l0.7-0.9
	c-0.1-0.1-0.3-0.1-0.5-0.1l0.1-0.3c0.2,0,0.4,0.1,0.5,0.2l0.8-1L52.1,45.9z M51.9,46.3l-1.1,1.3l-0.2-0.1l1.1-1.4L51.9,46.3z
	 M53.6,46.9c0.2,0.1,0.3,0.3,0.4,0.4c0.1,0.1,0.1,0.2,0.1,0.3c0,0.2-0.1,0.3-0.2,0.4c-0.2,0.2-0.4,0.3-0.5,0.2l-1.1-0.9l-0.4,0.5
	c0.3,0.3,0.6,0.6,0.7,1c0.1,0.3,0.1,0.7,0,1h-0.3c0.1-0.3,0.2-0.7,0.1-1c-0.1-0.4-0.3-0.7-0.6-0.9l-0.5,0.6L51,48.4l1.7-2.1l0.2,0.2
	l-0.5,0.6l1.1,0.9h0.1c0,0,0.1,0,0.2-0.2c0.1-0.1,0.1-0.1,0.1-0.2v-0.1c0-0.1-0.1-0.1-0.2-0.2c-0.1-0.1-0.2-0.2-0.3-0.3L53.6,46.9z"
	/>
<path class="st5" d="M7.5,33.3v0.5L4.2,34l0.1,0.7H3.7l-0.1-1.8h0.5v0.7L7.5,33.3z"/>
<path class="st5" d="M7.5,30.5V31H7.3c0.2,0.1,0.3,0.4,0.3,0.6c0,0.3-0.2,0.5-0.4,0.7c-0.3,0.2-0.7,0.3-1,0.2
	c-0.3,0-0.6-0.1-0.9-0.3c-0.2-0.1-0.4-0.4-0.4-0.6c0-0.3,0.1-0.5,0.3-0.6H5v-0.5H7.5z M6.2,30.9c-0.2,0-0.4,0-0.6,0.1
	s-0.3,0.4-0.1,0.6c0,0.1,0.1,0.1,0.1,0.1C5.8,32,6,32,6.2,32s0.4,0,0.6-0.2C6.9,31.7,7,31.6,7,31.4c0-0.2-0.1-0.3-0.2-0.4
	C6.7,31,6.5,30.9,6.2,30.9L6.2,30.9z"/>
<path class="st5" d="M4.1,29.2c0.1,0,0.2,0,0.2,0.1c0.1,0,0.1,0.1,0.1,0.2s-0.1,0.1-0.1,0.2c-0.1,0-0.2,0.1-0.3,0.1
	c-0.1,0-0.2,0-0.3-0.1s-0.1-0.1-0.1-0.2s0.1-0.1,0.1-0.2C3.9,29.2,4,29.2,4.1,29.2z M7.6,29.5V30l-2.5-0.2v-0.5L7.6,29.5z"/>
<path class="st5" d="M6.9,28.1l-1.6-0.8v-0.2l1.8-0.2l-1.5-0.8l0.1-0.5L8,26.9v0.2l-1.7,0.2l1.5,0.8v0.2l-2.7,0.4l0.1-0.5L6.9,28.1z
	"/>
<path class="st5" d="M8.8,24l-0.1,0.5l-0.2-0.1c0.2,0.2,0.2,0.4,0.1,0.7c-0.1,0.3-0.3,0.5-0.6,0.5c-0.3,0.1-0.7,0.1-1,0
	s-0.6-0.3-0.8-0.5C6,24.8,5.9,24.5,6,24.3c0.1-0.3,0.3-0.5,0.5-0.5l-0.2-0.1l0.1-0.5L8.8,24z M7.5,24c-0.2-0.1-0.4-0.1-0.6,0
	c-0.2,0-0.3,0.2-0.3,0.3c-0.1,0.1,0,0.3,0.1,0.4C6.8,24.9,7,25,7.2,25.1s0.4,0.1,0.6,0c0.2,0,0.3-0.2,0.3-0.3c0-0.2,0-0.3-0.1-0.4
	C7.9,24.2,7.7,24.1,7.5,24z"/>
<path class="st5" d="M7.1,22.2C6.9,22,6.9,21.7,7,21.5c0.2-0.4,0.6-0.5,1.2-0.2l1.4,0.6l-0.1,0.5l-1.2-0.5c-0.5-0.2-0.8-0.2-0.9,0
	s0.1,0.5,0.6,0.7l1.2,0.5L9,23.5l-2.3-1l0.2-0.4L7.1,22.2z"/>
<path class="st5" d="M9.7,17.1l-1.3-0.8l0.3-0.4l3.2,2.1l-0.3,0.4l-1.5-1l-0.7,1l1.5,1l-0.3,0.4l-3.2-2.1l0.3-0.4L9,18.1L9.7,17.1z"
	/>
<path class="st5" d="M9.8,14.9c0.1,0,0.1,0.1,0.1,0.2c0,0.1,0,0.1,0,0.2c-0.1,0.1-0.1,0.1-0.2,0.1c-0.1,0-0.2,0-0.2-0.1
	c-0.1-0.1-0.1-0.1-0.1-0.2c0-0.1,0-0.2,0-0.2c0-0.1,0.1-0.1,0.2-0.1C9.6,14.8,9.7,14.9,9.8,14.9z M12.6,17.1l-0.3,0.4l-2-1.5
	l0.3-0.4L12.6,17.1z"/>
<path class="st5" d="M14,15.2c0.6,0.6,0.8,1.1,0.3,1.5c-0.2,0.2-0.4,0.3-0.7,0.3s-0.5-0.1-0.8-0.3l0.3-0.4c0.1,0.1,0.2,0.1,0.4,0.1
	c0.1,0,0.3,0,0.3-0.1c0.2-0.2,0.1-0.5-0.2-0.8l-0.1-0.1c0.1,0.2,0,0.5-0.2,0.7c-0.2,0.2-0.4,0.3-0.7,0.2c-0.3-0.1-0.6-0.2-0.8-0.4
	c-0.3-0.2-0.5-0.5-0.6-0.8s0-0.5,0.1-0.7c0.2-0.2,0.4-0.3,0.6-0.2L12,14l0.3-0.4L14,15.2z M12.9,14.8c-0.1-0.1-0.3-0.2-0.5-0.2
	s-0.3,0-0.4,0.1c-0.1,0.1-0.1,0.3-0.1,0.4c0.1,0.2,0.2,0.4,0.3,0.5c0.4,0.3,0.7,0.4,0.9,0.1c0.1-0.1,0.1-0.3,0.1-0.4
	C13.2,15,13.1,14.9,12.9,14.8z"/>
<path class="st5" d="M11.9,11.5l1.4,1.5c0-0.2,0.1-0.5,0.2-0.6c0.2-0.1,0.4-0.2,0.6-0.1c0.3,0.1,0.5,0.2,0.6,0.4l1,1.1l-0.4,0.3
	l-0.9-1c-0.4-0.4-0.6-0.5-0.8-0.3s-0.1,0.5,0.3,0.9l0.8,0.9l-0.4,0.3l-2.9-3.2L11.9,11.5z"/>
<path class="st5" d="M17.7,8.8c-0.2-0.1-0.5-0.1-0.8,0c-0.2,0.2-0.4,0.4-0.4,0.7c0,0.4,0.1,0.7,0.3,1c0.2,0.3,0.4,0.5,0.8,0.7
	c0.2,0.1,0.6,0.1,0.8,0c0.2-0.2,0.4-0.4,0.4-0.7l0.4,0.7c-0.1,0.2-0.3,0.4-0.5,0.6c-0.3,0.2-0.7,0.2-1.1,0c-0.5-0.2-0.9-0.5-1.1-1
	C16.2,10.4,16,9.9,16,9.4c0-0.4,0.2-0.8,0.6-1.1c0.2-0.1,0.4-0.2,0.7-0.2L17.7,8.8z"/>
<path class="st5" d="M20.9,9.1c0.2,0.3,0.2,0.7,0.2,1s-0.2,0.5-0.5,0.7c-0.3,0.1-0.6,0.1-0.8,0c-0.3-0.2-0.5-0.4-0.7-0.7
	s-0.2-0.7-0.2-1s0.2-0.6,0.5-0.7c0.3-0.1,0.6-0.1,0.8,0C20.5,8.5,20.7,8.8,20.9,9.1z M19.5,9.8c0.1,0.2,0.2,0.3,0.4,0.4
	c0.1,0.1,0.3,0.1,0.5,0c0.1-0.1,0.2-0.2,0.2-0.4s-0.1-0.4-0.2-0.5c0-0.1-0.2-0.3-0.4-0.4c-0.1-0.1-0.3-0.1-0.5,0
	c-0.1,0.1-0.2,0.2-0.2,0.4C19.4,9.5,19.4,9.6,19.5,9.8z"/>
<path class="st5" d="M21.3,7.6l0.5,1.3c0.2,0.4,0.4,0.6,0.6,0.5s0.3-0.4,0.1-0.8L22,7.3l0.5-0.2L23,8.5c0.3,0.7,0.1,1.1-0.4,1.4
	s-1,0-1.2-0.7l-0.5-1.4L21.3,7.6z"/>
<path class="st5" d="M23.7,7c0-0.2,0.2-0.4,0.5-0.5c0.1,0,0.2,0,0.2,0l0.1,0.6c-0.1,0-0.2,0-0.3,0c-0.3,0.1-0.4,0.4-0.2,1l0.3,1.1
	l-0.5,0.2L23.1,7l0.5-0.1L23.7,7z"/>
<path class="st5" d="M25.9,8.7l-0.5,0.1L25,6.9L24.8,7l-0.1-0.5h0.2l-0.2-0.9l0.5-0.1l0.2,0.9l0.4-0.1l0.1,0.5h-0.3L25.9,8.7z"/>
<path class="st5" d="M29.1,8.2l-0.5,0.1L28.3,5l-0.7,0.1V4.5l1.8-0.2v0.6L28.7,5L29.1,8.2z"/>
<path class="st5" d="M31.9,8.1h-0.5V7.9c-0.1,0.2-0.4,0.3-0.6,0.3c-0.3,0-0.5-0.1-0.7-0.4c-0.2-0.3-0.3-0.6-0.3-0.9S29.9,6.2,30,6
	c0.1-0.2,0.4-0.4,0.6-0.4s0.5,0.1,0.6,0.3V5.6h0.5L31.9,8.1z M31.5,6.9c0-0.2-0.1-0.4-0.2-0.6c-0.1-0.1-0.2-0.2-0.4-0.2
	c-0.2,0-0.3,0.1-0.4,0.2c-0.1,0.2-0.2,0.4-0.1,0.6c0,0.2,0,0.4,0.2,0.6c0.1,0.1,0.2,0.2,0.4,0.2c0.2,0,0.3-0.1,0.4-0.2
	C31.4,7.3,31.5,7.1,31.5,6.9z"/>
<path class="st5" d="M33,8.2h-0.5l0.2-2.5h0.5L33,8.2z M33.3,4.7c0,0.1,0,0.2-0.1,0.2C33.1,5,33,5,33,5c-0.1,0-0.2,0-0.2-0.1
	c-0.1-0.1-0.1-0.2-0.1-0.3c0-0.1,0-0.2,0.1-0.2c0.1-0.1,0.1-0.1,0.2-0.1c0.1,0,0.1,0,0.2,0.1C33.2,4.5,33.3,4.6,33.3,4.7z"/>
<path class="st5" d="M35,6.6c-0.1-0.1-0.2-0.2-0.4-0.2s-0.3,0.1-0.5,0.2c0,0.1-0.1,0.3-0.1,0.5s0,0.4,0.1,0.6s0.4,0.3,0.6,0.2
	c0.1,0,0.1-0.1,0.2-0.2l-0.1,0.5c-0.2,0.1-0.3,0.1-0.5,0.1c-0.3,0-0.5-0.2-0.7-0.5s-0.2-0.7-0.2-1s0.2-0.6,0.4-0.9
	c0.2-0.2,0.5-0.3,0.8-0.3c0.2,0,0.3,0.1,0.4,0.2V6.6z"/>
<path class="st5" d="M36.6,4.3l-0.4,2c0.2-0.2,0.4-0.2,0.7-0.2c0.2,0,0.4,0.2,0.4,0.4c0.1,0.3,0.1,0.5,0,0.8L37,8.8l-0.5-0.1
	l0.3-1.3c0.1-0.5,0-0.8-0.2-0.8S36.1,6.8,36,7.4l-0.3,1.2l-0.5-0.1l0.9-4.2H36.6z"/>
<path class="st5" d="M38.7,6.7L38.3,8c-0.1,0.5-0.1,0.7,0.2,0.8s0.5-0.1,0.6-0.6L39.4,7l0.5,0.1l-0.5,1.4c-0.2,0.7-0.6,1-1.2,0.8
	S37.5,8.7,37.8,8l0.4-1.4L38.7,6.7z"/>
<path class="st5" d="M40.9,7.8c0.2-0.1,0.5-0.1,0.7,0C42,8,42.1,8.4,41.8,9l-0.6,1.4l-0.4-0.2L41.3,9c0.2-0.5,0.2-0.8,0-0.9
	s-0.5,0.1-0.7,0.6l-0.5,1.2l-0.4-0.2l1-2.3l0.4,0.2L40.9,7.8z"/>
<path class="st5" d="M43.4,11.3c-0.4,0.8-0.9,1-1.4,0.7c-0.3-0.1-0.4-0.4-0.5-0.7s0-0.6,0.1-0.8l0.5,0.2c0,0.1,0,0.3,0,0.4
	c0,0.1,0.1,0.2,0.2,0.3c0.3,0.1,0.5,0,0.8-0.4l0.1-0.1c-0.2,0.1-0.5,0.1-0.7,0s-0.4-0.4-0.4-0.6c0-0.3,0.1-0.6,0.2-0.9
	c0.1-0.3,0.4-0.6,0.7-0.7c0.2-0.1,0.5-0.1,0.8,0C43.9,8.8,44,9,44,9.3L44.1,9l0.4,0.3L43.4,11.3z M43.6,10.2
	c0.1-0.2,0.1-0.4,0.1-0.6c0-0.2-0.1-0.3-0.2-0.4c-0.1-0.1-0.3-0.1-0.5,0s-0.3,0.2-0.4,0.4c-0.2,0.4-0.2,0.7,0.1,0.9
	c0.1,0.1,0.3,0.1,0.5,0C43.4,10.5,43.5,10.3,43.6,10.2L43.6,10.2z"/>
<path class="st5" d="M47.6,9.7l0.6,0.5c0.5,0.4,0.5,0.8,0,1.4c-0.1,0.2-0.4,0.4-0.7,0.4c0.1,0.1,0.1,0.3,0.1,0.5s-0.1,0.4-0.3,0.6
	c-0.2,0.2-0.4,0.4-0.7,0.5c-0.2,0-0.5,0-0.7-0.2l-0.7-0.6L47.6,9.7z M45.9,12.6l0.2,0.2c0.2,0.2,0.6,0.2,0.8,0l0.1-0.1
	c0.2-0.2,0.2-0.5,0-0.7l-0.1-0.1l-0.2-0.2L45.9,12.6z M46.9,11.3l0.2,0.1c0.2,0.2,0.4,0.1,0.7-0.2s0.3-0.6,0-0.7l-0.2-0.1L46.9,11.3
	z"/>
<path class="st5" d="M48.8,12.9c0.2-0.1,0.5,0,0.7,0.1c0.1,0.1,0.1,0.1,0.1,0.2l-0.4,0.4c0-0.1,0-0.2-0.1-0.2
	c-0.2-0.2-0.6-0.1-1,0.3l-0.8,0.8L47,14.2l1.7-1.8l0.3,0.3L48.8,12.9z"/>
<path class="st5" d="M49.3,16.6L49,16.3l0.2-0.1c-0.2,0-0.5-0.1-0.7-0.2c-0.2-0.2-0.2-0.5-0.1-0.8c0.1-0.3,0.3-0.6,0.5-0.8
	s0.5-0.4,0.8-0.4c0.3-0.1,0.5,0,0.7,0.2s0.3,0.4,0.2,0.7l0.2-0.2l0.3,0.4L49.3,16.6z M50,15.5c0.2-0.1,0.3-0.3,0.3-0.5
	s0-0.3-0.1-0.4c-0.1-0.1-0.3-0.2-0.4-0.1c-0.4,0.1-0.7,0.4-0.9,0.8c-0.1,0.3,0.1,0.5,0.3,0.6c0.1,0,0.1,0,0.2,0
	C49.6,15.7,49.8,15.6,50,15.5z"/>
<path class="st5" d="M51.7,16.1c0.2,0,0.5,0.1,0.6,0.3c0.3,0.4,0.1,0.8-0.5,1.2l-1.2,0.9L50.4,18l1.1-0.8c0.4-0.3,0.6-0.6,0.4-0.8
	s-0.5-0.2-0.9,0.2l-1,0.8L49.7,17l2-1.5l0.3,0.4L51.7,16.1z"/>
<path class="st5" d="M53.2,19c0.1-0.1,0.1-0.3,0-0.5s-0.3-0.2-0.4-0.2c-0.2,0-0.4,0.1-0.6,0.2c-0.2,0.1-0.3,0.3-0.4,0.5
	c-0.1,0.1-0.1,0.3,0,0.5c0.1,0.1,0.2,0.2,0.4,0.2L51.7,20c-0.2-0.1-0.3-0.2-0.4-0.3c-0.1-0.2-0.1-0.6,0-0.8c0.1-0.3,0.4-0.6,0.7-0.7
	c0.3-0.2,0.6-0.3,1-0.2c0.3,0,0.6,0.2,0.7,0.4c0.1,0.1,0.1,0.3,0.1,0.5L53.2,19z"/>
<path class="st5" d="M55.9,18.9l-1.8,0.9c0.2,0,0.4,0.2,0.5,0.4c0.1,0.2,0.1,0.4,0,0.6s-0.3,0.4-0.6,0.5L52.6,22l-0.2-0.4l1.2-0.6
	c0.5-0.2,0.7-0.5,0.5-0.7s-0.4-0.2-1,0L52,20.9l-0.2-0.4l3.8-1.9L55.9,18.9z"/>
<path class="st5" d="M56.9,25.1c0.2-0.2,0.3-0.5,0.2-0.7c-0.1-0.3-0.3-0.5-0.6-0.5c-0.3-0.1-0.7-0.1-1,0s-0.6,0.3-0.8,0.5
	s-0.3,0.5-0.2,0.8s0.3,0.5,0.6,0.5l-0.8,0.2c-0.2-0.2-0.3-0.4-0.4-0.6c-0.1-0.4,0-0.9,0.3-1.2c0.3-0.4,0.7-0.7,1.2-0.8
	c0.5-0.2,1-0.2,1.5,0c0.4,0.1,0.7,0.4,0.9,0.8c0.1,0.2,0.1,0.5,0,0.7L56.9,25.1z"/>
<path class="st5" d="M55.8,28.1c-0.3,0.1-0.7,0.1-1-0.1c-0.3-0.1-0.4-0.4-0.5-0.7c-0.1-0.3,0-0.6,0.2-0.8c0.2-0.3,0.5-0.4,0.9-0.5
	c0.3-0.1,0.7-0.1,1,0.1c0.3,0.1,0.5,0.4,0.5,0.7c0.1,0.3,0,0.6-0.2,0.8C56.5,27.9,56.1,28,55.8,28.1z M55.5,26.5
	c-0.2,0-0.4,0.1-0.5,0.3c-0.1,0.1-0.2,0.3-0.1,0.4c0,0.2,0.1,0.3,0.3,0.3c0.2,0.1,0.4,0.1,0.6,0c0.2,0,0.4-0.1,0.5-0.2
	c0.2-0.2,0.2-0.4,0.1-0.6c-0.1-0.1-0.1-0.1-0.2-0.1C55.9,26.5,55.7,26.5,55.5,26.5z"/>
<path class="st5" d="M57.1,28.9L55.8,29c-0.5,0-0.7,0.2-0.7,0.5s0.3,0.4,0.8,0.3l1.3-0.1v0.5l-1.4,0.1c-0.7,0.1-1.1-0.2-1.2-0.8
	s0.3-0.9,1-1l1.5-0.1L57.1,28.9z"/>
<path class="st5" d="M57,31.3c0.2,0.1,0.4,0.3,0.3,0.6c0,0.1,0,0.2-0.1,0.2h-0.6c0.1-0.1,0.1-0.2,0.1-0.2c0-0.3-0.3-0.5-0.9-0.5
	h-1.1v-0.5h2.5v0.5L57,31.3L57,31.3z"/>
<path class="st5" d="M54.8,33.1v-0.5l1.9,0.1v-0.2h0.5v0.2h0.9v0.5h-0.9v0.4h-0.5v-0.4L54.8,33.1z"/>
<path class="st4" d="M1.5,42.4"/>
<path class="st6" d="M197.4,15.8l-0.3,0.8c-0.1,0.1-0.1,0.3-0.1,0.5l0.1,0.1l3.5-1.3c5.7-2.2,9.2-2.8,10.6-1.8
	c0.3,0.3,0.6,0.6,0.7,1c0.1,0.3,0.1,0.6,0,0.9c-0.2,0.2-0.5,0.4-0.8,0.3c-0.9,0.1-1.7,0.4-2.5,0.7c-0.3,0.1-0.4,0.1-0.4,0
	s0.2-0.3,0.7-0.6c0.5-0.3,0.9-0.7,1.2-1.1c0.2-0.3,0.3-0.5,0.2-0.6s-0.2-0.3-0.6-0.3c-1.4,0-2.9,0.2-4.3,0.6
	c-4.8,1.1-7.9,2.7-9.2,4.5c-0.3,0.5-0.6,0.7-0.8,0.8s-0.3-0.1-0.5-0.3l-0.4-0.7V19c-0.1-0.6,0.2-1.3,0.8-1.5
	c0.7-0.4,1.2-0.9,1.7-1.5C197.3,15.6,197.4,15.6,197.4,15.8z M203.1,8.3l-2.4,0.6c-0.7,0.2-1.4,0.1-2-0.3c-0.3-0.2-0.4-0.3-0.4-0.5
	S198.6,8,199,8c0.4,0.1,1.8-0.2,4.1-0.6c0-1.5-0.2-2.4-0.5-2.6c-0.1-0.1-0.3-0.3-0.2-0.4s0.2-0.1,0.4-0.1c0.5,0.1,1,0.3,1.3,0.7
	l0.3,0.3c0.2,0.6,0.1,1.3-0.1,2l1.3-0.3c0.8-0.3,1.7-0.4,2.6-0.3c0.4,0.2,0.6,0.5,0.6,0.6s-0.2,0.3-0.5,0.3c-1.4,0-2.8,0.2-4.2,0.5
	l-0.4,1.3c1.4-0.4,2.3-0.5,2.6-0.3l0.4,0.3l0.1,0.3c0,0.1-0.2,0.1-0.5,0.1c-1.3-0.1-2.6,0.1-3.8,0.6c-0.5,0.2-1.1,0.3-1.7,0.2
	c-0.2-0.1-0.4-0.1-0.4-0.2s0-0.2,0.2-0.2c0.8-0.3,1.6-0.6,2.5-0.8L203.1,8.3z M201.1,23.1c-0.6,0.4-0.8,0.4-0.6,0.1
	c0.2-0.2,0.4-0.4,0.6-0.5c0.6-0.4,1.2-0.8,1.9-1v-0.5l-0.1-0.3c0-0.1-0.2-0.2-0.4-0.1l-1.7,0.7c-0.3,0.1-0.6,0-0.7-0.2
	c-0.2-0.3-0.2-0.6-0.2-0.9c0.1-0.2,1.3-1.1,3.6-2.5c0.3-0.2,0.4-0.3,0.4-0.5s-0.3-0.1-0.6,0l-2.6,0.7c-0.3,0-0.1-0.1,0.4-0.4
	l2.3-1.1c0.3-0.2,0.6-0.3,1-0.3c0.3,0,0.6,0.1,0.9,0.3c0.1,0.1,0.1,0.3-0.1,0.6c-0.6,0.4-1.9,1.2-3.7,2.6c-0.3,0.2-0.4,0.4-0.3,0.5
	h0.3c1.3-0.3,2.5-0.7,3.8-1.2c0.8-0.3,1-0.3,0.6,0c-0.7,0.5-1.4,0.8-2.1,1.2v0.2v0.8v0.3c0.7-0.2,1.5-0.1,2.1,0.4
	c0.2,0.2,0.4,0.5,0.4,0.8s-0.1,0.5-0.5,0.7c-0.7,0.1-1.4,0.3-2,0.7c0,0.7-0.1,1.4-0.4,2.1c2-0.3,3.2-0.5,3.5-0.9
	c0.1-0.2,0-0.4-0.2-0.8s0.1-0.2,0.6,0.2l0.9,0.7c0.2,0.1,0.3,0.2,0.4,0.4c0.1,0.2,0,0.4-0.1,0.5c-0.2,0.2-0.4,0.3-0.6,0.4L207,27
	c-2.3,0.3-4.5,0.5-6.8,0.5c-0.3,0-0.5-0.2-0.7-0.5c-0.1-0.2-0.2-0.5-0.2-0.7c0.1-0.4,1.3-1.3,3.8-2.7v-1.4
	C202.4,22.3,201.7,22.7,201.1,23.1L201.1,23.1z M201.2,11.8c0.1,0,0.1,0.1,0,0.2l-0.1,0.6L201,14c-0.1,0.4-0.3,0.6-0.5,0.6
	s-0.3-0.2-0.4-0.4l-0.1-0.3c0-0.8,0.4-1.4,1-1.9L201.2,11.8z M203,24.4l-2.4,1.3c-0.2,0.1-0.3,0.3-0.3,0.3s0.2,0.2,0.6,0.2l2.2-0.1
	C202.9,25.6,202.9,25,203,24.4L203,24.4z M205.7,11.9l0.1-0.3c-0.1-0.2-0.4-0.2-0.9,0c-0.9,0.4-1.9,0.6-2.9,0.7
	c-0.6,0-0.3-0.2,0.6-0.4c1-0.3,1.9-0.7,2.7-1.2c0.3-0.2,0.7-0.3,1.1-0.3c0.2,0,0.4,0.1,0.6,0.2c0.1,0.1,0.2,0.3,0.2,0.5
	s0,0.4-0.2,0.5l-1.7,1.4l0.1,0.3c0,0.1-0.1,0.2-0.3,0.2l-0.8,0.3c-1.4,0.5-2.4,0.6-2.8,0.4c-0.1-0.1-0.1-0.1,0.1-0.1
	c1-0.3,1.9-0.7,2.9-1.1L205.7,11.9z M203.8,21.9V23c0.5-0.2,0.9-0.5,1.2-0.9c-0.1-0.1-0.2-0.2-0.3-0.3
	C204.4,21.9,204.1,21.9,203.8,21.9L203.8,21.9z M207.5,17.8c0.4,0.1,0.7,0.5,0.7,0.9c0,0.2,0,0.3-0.1,0.4l-0.6,0.3
	c-0.4,0.1-0.7,0.2-1,0.5L206,20c-0.1,0-0.1,0-0.2-0.1c0-0.1,0-0.1,0.1-0.2c0.3-0.2,0.6-0.5,0.8-0.8c0.3-0.7,0-1-1-0.8h-0.1
	c0-0.1,0-0.1,0.1-0.2C206.3,17.7,206.9,17.6,207.5,17.8z"/>
<path class="st6" d="M220.3,21.6c-2.2,1-4.1,2.7-5.1,4.8c0,0.2-0.2,0.3-0.4,0.3s-0.4,0-0.6-0.1l-0.7-0.8c-0.3-0.5-0.2-1.2,0.2-1.7
	c0.4-0.7,0.8-1.4,1-2.2c0-0.3,0.1-0.2,0.4,0.2c0.2,0.4,0.2,0.9,0.2,1.3c0,0.3,0.1,0.5,0.2,0.6s0.3-0.1,0.7-0.4
	c1.3-1.1,2.8-2.1,4.4-2.8l-0.1-1.5c0-1.9-0.3-3-1-3.2c-0.2-0.1-0.3-0.2-0.3-0.3s0.1-0.1,0.4-0.1c0.5,0,1,0.2,1.4,0.5
	c0.3,0.2,0.5,0.4,0.6,0.7c0.4,0.9,0.5,2,0.3,3v0.3c2.7-1.2,4.6-1.5,5.6-0.8c0.2,0.1,0.5,0.3,0.6,0.6c0.1,0.2,0,0.5-0.1,0.7
	c-0.3,0.4-0.6,0.7-1,1l-0.2,0.1l-3.7,2.3l1,0.9l0.3,0.3c0,0.1,0,0.2,0,0.3c-0.1,0.1-0.1,0.2-0.3,0.2c-0.8,0.1-1.7,0.2-2.4,0.6
	l-0.1,1.6c0,2.6-0.2,5.2-0.6,7.7c-0.1,0.4-0.2,0.6-0.3,0.6s-0.1-0.1-0.1-0.3c-0.2-2.9-0.3-5.9-0.2-9.3c-0.7,0.1-1.4,0.3-2.1,0.7
	c-0.3,0.1-0.5,0.2-0.7,0.1s-0.4-0.2-0.4-0.4c-0.1-0.3-0.1-0.6,0-0.9c0.1-0.1,0.2-0.1,0.3,0c0.1,0.2,0.3,0.2,0.4,0.2l0.9-0.2l1.5-0.4
	L220.3,21.6L220.3,21.6z M221.8,25.4c0.8-0.2,1.2-0.4,1.2-0.6c0-0.3-0.1-0.6-0.3-0.8c-0.1-0.1-0.1-0.2,0-0.2s0.2,0,0.3,0h0.1l0,0
	c1.2-1,2.2-2.2,3.1-3.5c0.2-0.3,0.3-0.5,0.2-0.6s-0.3-0.1-0.8-0.1c-1.3,0.2-2.5,0.6-3.7,1.1L221.8,25.4z"/>
<path class="st0" d="M135.8,52.1c-0.8,0-1.2,0.1-1.4,0.5c-0.2,0.3-0.3,0.7-0.3,1.1h-0.6v-2.3h8.1v2.3H141c0-0.3-0.1-0.7-0.3-1
	c-0.3-0.5-0.6-0.6-1.3-0.6h-1v6c0,0.7,0.3,1,1.1,1h0.1v0.5h-4.1V59h0.1c0.9,0,1.1-0.2,1.1-1v-6L135.8,52.1z"/>
<path class="st0" d="M148.5,58.3L148.5,58.3c0,0.8-0.5,1.4-1.2,1.4c-0.1,0-0.1,0-0.2,0c-0.6,0.1-1.1-0.3-1.2-0.8
	c-0.5,0.5-1.2,0.8-1.9,0.8c-1,0-1.6-0.4-1.6-1.1s0.5-1.3,1.5-1.7c0.6-0.2,1.1-0.4,1.7-0.5h0.2V56c0-0.6-0.3-0.9-0.9-0.9
	c-0.4-0.1-0.9,0.2-0.9,0.7v0.1c0,0.4-0.3,0.6-0.6,0.6c0,0,0,0-0.1,0c-0.3,0-0.6-0.2-0.6-0.5v-0.1c0-0.8,1-1.4,2.5-1.4
	s2.3,0.5,2.3,1.5v2c0,0.7,0.1,0.9,0.4,0.9s0.4-0.2,0.4-0.5L148.5,58.3z M145.8,56.9c-1.2,0.4-1.8,0.8-1.8,1.4c0,0.3,0.2,0.6,0.5,0.6
	h0.1c0.4,0,0.8-0.2,1.1-0.5L145.8,56.9z"/>
<path class="st0" d="M151.2,58.2c0,0.7,0.1,0.9,0.8,0.9l0,0v0.5h-3.2V59h0.2c0.6,0,0.7-0.2,0.7-0.9v-1.8c0-0.8-0.1-0.8-0.9-0.8V55
	l2.4-0.5V58.2z M150.5,51.2c0.5,0,0.9,0.4,0.9,0.9S151,53,150.5,53s-0.9-0.4-0.9-0.9l0,0C149.6,51.6,150,51.3,150.5,51.2L150.5,51.2
	z"/>
<path class="st0" d="M157.9,58.3c-0.4,0.9-1.4,1.5-2.4,1.5c-1.4,0.1-2.7-1-2.8-2.5c0-1.6,1.3-2.9,2.8-2.9c0.1,0,0.1,0,0.2,0
	c1.2,0,2.1,0.5,2.1,1.2c0,0.4-0.3,0.6-0.6,0.6s-0.6-0.2-0.6-0.6v-0.2c-0.1-0.4-0.4-0.6-0.8-0.6c-0.8,0-1.4,0.8-1.4,2
	c0,1.4,0.6,2.2,1.6,2.2c0.6,0,1.2-0.4,1.4-1L157.9,58.3z"/>
<path class="st0" d="M160.7,55.3c0.4-0.6,1.1-0.9,1.8-0.9c0.6,0,1.2,0.3,1.6,0.8c0.2,0.3,0.3,0.7,0.2,1.1v1.8c0,0.7,0.1,0.9,0.8,0.9
	h0.1v0.5H162V59h0.1c0.5,0,0.7-0.2,0.7-0.6v-2c0-0.8-0.2-1.2-0.8-1.2c-0.4,0-0.8,0.2-1,0.6c-0.2,0.3-0.3,0.7-0.2,1.1v1
	c0,0.9,0.1,1,0.7,1l0,0v0.5h-3.2V59h0.1c0.6,0,0.8-0.2,0.8-0.9V53c0-0.6-0.1-0.8-0.9-0.8v-0.5l2.4-0.5L160.7,55.3z"/>
<path class="st0" d="M169.8,58.9c-0.5,0.6-1.1,0.9-1.8,0.9c-0.6,0-1.1-0.2-1.4-0.6c-0.3-0.4-0.4-0.9-0.3-1.3v-1.8
	c0-0.7-0.1-0.9-0.7-0.9h-0.1v-0.6h2.4V58c0,0.7,0.3,1,0.8,1c0.5-0.1,1-0.4,1.2-0.9v-2c0-0.7-0.1-0.9-0.8-0.9H169v-0.6h2.4v3.7
	c0,0.6,0.1,0.7,0.9,0.7v0.6c-0.8,0-1.6,0.1-2.3,0.2h-0.1L169.8,58.9L169.8,58.9z"/>
<path class="st0" d="M175,55.3c0.4-0.6,1.1-0.9,1.8-0.9c0.9-0.1,1.7,0.5,1.8,1.4c0,0.1,0,0.2,0,0.3v2c0,0.7,0.1,0.9,0.8,0.9l0,0v0.5
	h-3.1V59h0.1c0.5,0,0.7-0.2,0.7-0.6v-2.2c0-0.7-0.3-1-0.8-1c-0.7,0.1-1.3,0.7-1.2,1.5l0,0v1.6c0,0.6,0.1,0.7,0.8,0.7v0.5h-3.2V59
	h0.1c0.6,0,0.7-0.2,0.7-0.9v-2c0-0.5-0.1-0.7-0.8-0.7h-0.1v-0.5l2.3-0.5c0,0.2,0,0.4,0,0.6L175,55.3L175,55.3z"/>
<path class="st0" d="M182.7,60.3c-1.2,0-1.7-0.1-2-0.5c-0.2-0.2-0.3-0.5-0.3-0.8c0-0.5,0.4-0.9,1.1-1.2c0.2-0.1,0.3-0.1,0.5-0.1l0,0
	c-1-0.2-1.6-0.7-1.6-1.5c0-1.1,1-1.8,2.4-1.8c0.7,0,1.3,0.2,1.8,0.6c0.2-0.3,0.6-0.5,1-0.5s0.6,0.2,0.6,0.5c0,0.2-0.2,0.5-0.4,0.5
	c-0.1,0-0.2,0-0.2-0.1l-0.1-0.1c-0.1-0.1-0.2-0.1-0.3-0.1s-0.2,0-0.3,0.1c0.3,0.3,0.4,0.6,0.4,1c0,0.7-0.4,1.3-1,1.5
	c-0.3,0.1-0.6,0.2-0.9,0.2l-0.6,0.1c-1,0.1-1.4,0.3-1.4,0.6s0.2,0.3,0.8,0.3h0.8c0.6,0,1.2,0,1.7,0.2c0.7,0.2,1.1,0.8,1.1,1.5
	c-0.1,0.9-0.8,1.7-1.7,1.8c-0.5,0.1-0.9,0.1-1.4,0.1c-1.7,0-2.7-0.5-2.7-1.3c0-0.4,0.2-0.7,0.6-0.7h0.1c0.1,0,0.3,0,0.4,0.1
	c-0.1,0.1-0.1,0.3-0.1,0.5c0,0.6,0.7,1,1.9,1s2-0.4,2-1s-0.5-0.7-1.6-0.7L182.7,60.3z M182.8,57.5c0.6,0,0.9-0.5,0.9-1.2
	s-0.4-1.3-1-1.3s-0.9,0.4-0.9,1.2S182.2,57.5,182.8,57.5L182.8,57.5z"/>
<path class="st0" d="M193.8,51.3c0.9-0.1,1.8,0.1,2.6,0.4c0.6,0.3,1,0.9,1,1.5s-0.3,1.2-0.9,1.5c-0.3,0.2-0.6,0.3-1,0.4l0,0
	c0.4,0,0.8,0.2,1.2,0.4c0.6,0.3,1.1,1,1.1,1.7c0,1.4-1.2,2.2-3.3,2.2h-4.1V59h0.1c0.8,0,1.1-0.2,1.1-1v-5.1c0-0.7-0.3-1-1.1-1h-0.1
	v-0.6h2.2h0.5L193.8,51.3z M193.6,54.9c0.5,0.1,0.9,0,1.4-0.2c0.5-0.3,0.7-0.8,0.7-1.3c0-0.4-0.2-0.9-0.6-1.1
	c-0.5-0.2-1-0.3-1.5-0.3h-0.2v2.9L193.6,54.9z M193.3,57.5c0,1.2,0.1,1.4,1,1.4c0.8,0.1,1.5-0.5,1.6-1.3c0-0.1,0-0.2,0-0.4
	c0-0.6-0.2-1.1-0.7-1.4c-0.4-0.2-0.4-0.2-1.3-0.2h-0.6V57.5z"/>
<path class="st0" d="M200.4,54.5c0.1,0.4,0.1,0.8,0.1,1.3l0,0c0.2-0.4,0.5-0.7,0.9-1c0.3-0.2,0.6-0.3,0.9-0.3c0.6,0,1,0.4,1.1,0.9
	l0,0c0,0.4-0.3,0.7-0.7,0.8l0,0c-0.2,0-0.5-0.1-0.6-0.3c-0.2-0.2-0.3-0.3-0.4-0.3c-0.5,0-1,0.7-1,1.6v1.1c0,0.7,0.1,0.9,0.8,0.9h0.3
	v0.5H198V59h0.3c0.6,0,0.8-0.2,0.8-0.9v-1.8c0-0.7-0.1-0.9-0.9-0.9H198V55L200.4,54.5z"/>
<path class="st0" d="M209.9,58.3L209.9,58.3c0,0.8-0.5,1.4-1.2,1.4c-0.1,0-0.1,0-0.2,0c-0.6,0.1-1.1-0.3-1.2-0.8
	c-0.5,0.5-1.2,0.8-1.9,0.8c-1,0-1.6-0.4-1.6-1.1s0.5-1.3,1.5-1.7c0.6-0.2,1.1-0.4,1.7-0.5h0.2V56c0-0.6-0.3-0.9-0.9-0.9
	c-0.4-0.1-0.9,0.2-0.9,0.7v0.1c0,0.4-0.3,0.6-0.6,0.6c0,0,0,0-0.1,0c-0.3,0-0.6-0.2-0.6-0.5v-0.1c0-0.8,1-1.4,2.5-1.4
	s2.3,0.5,2.3,1.5v2c0,0.7,0.1,0.9,0.4,0.9s0.4-0.2,0.4-0.5L209.9,58.3z M207.1,56.9c-1.2,0.4-1.8,0.8-1.8,1.4c0,0.3,0.2,0.6,0.5,0.6
	h0.1c0.4,0,0.8-0.2,1.1-0.5L207.1,56.9z"/>
<path class="st0" d="M212.4,55.3c0.4-0.6,1.1-0.9,1.8-0.9c0.9-0.1,1.7,0.5,1.8,1.4c0,0.1,0,0.2,0,0.3v2c0,0.7,0.1,0.9,0.8,0.9l0,0
	v0.5h-3.1V59h0.1c0.5,0,0.7-0.2,0.7-0.6v-2.2c0-0.7-0.3-1-0.8-1c-0.7,0.1-1.2,0.8-1.1,1.5v1.6c0,0.6,0.1,0.7,0.8,0.7v0.5h-3.2V59
	h0.1c0.6,0,0.7-0.2,0.7-0.9v-2c0-0.5-0.1-0.7-0.8-0.7h-0.1v-0.5l2.3-0.5c0,0.2,0,0.4,0,0.6V55.3L212.4,55.3z"/>
<path class="st0" d="M222.7,58.3c-0.4,0.9-1.4,1.5-2.4,1.4c-1.4,0.1-2.7-1-2.8-2.4c0-1.6,1.3-2.9,2.8-2.9c0.1,0,0.1,0,0.2,0
	c1.2,0,2.1,0.5,2.1,1.2c0,0.4-0.3,0.6-0.6,0.6s-0.6-0.2-0.6-0.6v-0.2c-0.1-0.4-0.4-0.6-0.8-0.6c-0.8,0-1.4,0.8-1.4,2
	c0,1.4,0.6,2.2,1.6,2.2c0.6,0,1.2-0.4,1.4-1L222.7,58.3z"/>
<path class="st0" d="M225.5,55.3c0.4-0.6,1.1-0.9,1.8-0.9c0.6,0,1.2,0.3,1.6,0.8c0.2,0.3,0.3,0.7,0.2,1.1v1.8c0,0.7,0.1,0.9,0.8,0.9
	h0.1v0.5h-3.1V59h0.1c0.5,0,0.7-0.2,0.7-0.6v-2c0-0.8-0.2-1.2-0.8-1.2c-0.4,0-0.8,0.2-1,0.6c-0.2,0.3-0.3,0.7-0.2,1.1v1
	c0,0.9,0.1,1,0.7,1h0.1v0.5h-3.2V59h0.1c0.6,0,0.8-0.2,0.8-0.9V53c0-0.6-0.1-0.8-0.9-0.8v-0.5l2.4-0.5v4.1H225.5z"/>
<path class="st0" d="M242.3,59.5h-0.6c-0.1-0.3-0.2-0.6-0.4-0.9c-0.6,0.8-1.6,1.2-2.6,1.2c-2.3,0-4.1-1.8-4.1-4.1v-0.1
	c0-2.3,1.8-4.2,4.1-4.2c0.1,0,0.1,0,0.2,0c0.9,0,1.8,0.3,2.5,1c0.1-0.2,0.2-0.5,0.3-0.8h0.5l0.1,3h-0.6c-0.2-1.4-1.3-2.5-2.8-2.6
	c-1.1,0.1-2,0.9-2.1,2c-0.1,0.6-0.2,1.1-0.2,1.7c0,2.2,1,3.4,2.5,3.4c1.3-0.2,2.4-1.2,2.6-2.6h0.6V59.5z"/>
<path class="st0" d="M246.4,54.5c1.5-0.2,2.8,0.9,2.9,2.4c0.2,1.5-0.9,2.8-2.4,2.9c-0.2,0-0.4,0-0.6,0c-1.5,0.2-2.8-0.9-2.9-2.4
	c-0.2-1.5,0.9-2.8,2.4-2.9C246.1,54.4,246.2,54.4,246.4,54.5z M245.3,58.6c0.2,0.4,0.6,0.7,1.1,0.7c0.9,0,1.3-0.6,1.3-2.2
	s-0.4-2-1.3-2s-1.3,0.6-1.3,2.1C245.1,57.6,245.2,58.1,245.3,58.6z"/>
<path class="st0" d="M254.4,58.9c-0.5,0.6-1.1,0.9-1.9,0.9c-0.6,0-1.1-0.2-1.4-0.6c-0.3-0.4-0.4-0.9-0.3-1.3v-1.8
	c0-0.7-0.1-0.9-0.7-0.9H250v-0.6h2.4V58c0,0.7,0.3,1,0.8,1c0.5-0.1,1-0.4,1.2-0.9v-2c0-0.7-0.1-0.9-0.8-0.9h-0.1v-0.6h2.4v3.7
	c0,0.6,0.1,0.7,0.9,0.7v0.6c-0.8,0-1.6,0.1-2.3,0.2h-0.1L254.4,58.9z"/>
<path class="st0" d="M259.4,54.5c0.1,0.4,0.1,0.8,0.1,1.3l0,0c0.2-0.4,0.5-0.7,0.9-1c0.3-0.2,0.6-0.3,0.9-0.3c0.6,0,1,0.4,1.1,0.9
	l0,0c0,0.4-0.3,0.7-0.7,0.8l0,0c-0.2,0-0.5-0.1-0.6-0.3c-0.2-0.2-0.3-0.3-0.4-0.3c-0.5,0-1,0.7-1,1.6v1.1c0,0.7,0.1,0.9,0.8,0.9h0.3
	v0.5H257V59h0.3c0.6,0,0.8-0.2,0.8-0.9v-1.8c0-0.7-0.1-0.9-0.9-0.9H257V55L259.4,54.5z"/>
<path class="st0" d="M264.8,58.1c0,0.8,0.1,1,0.4,1s0.5-0.3,0.8-0.8l0.5,0.2c-0.2,0.8-0.9,1.3-1.7,1.3c-0.5,0.1-1-0.2-1.3-0.6
	c-0.2-0.3-0.3-0.7-0.2-1.1v-2.8h-0.9v-0.6h0.1c1,0,1.8-0.6,1.9-1.6h0.5v1.6h1.7v0.6h-1.7L264.8,58.1z"/>
</svg>
