<svg id="圖層_1" data-name="圖層 1" xmlns="http://www.w3.org/2000/svg" xmlns:xlink="http://www.w3.org/1999/xlink" viewBox="0 0 266.26 61.16"><defs><style>.cls-1{fill:#2a398c;}.cls-2{fill:#fff;}.cls-3{fill:url(#linear-gradient);}.cls-4{fill:#005bab;}.cls-5{fill:none;stroke:#fff;stroke-miterlimit:10;stroke-width:0.25px;}.cls-6{fill:#b7a246;}.cls-7{fill:#8cc63f;}</style><linearGradient id="linear-gradient" x1="32.65" y1="60.77" x2="32.65" y2="37.52" gradientUnits="userSpaceOnUse"><stop offset="0.69" stop-color="#b7a246"/><stop offset="1" stop-color="#fff"/></linearGradient></defs><title>logo</title><path class="cls-1" d="M89.88,34.77H72.39A4.3,4.3,0,0,0,71,35l-.55-.84h8.74V32.3h-5a6.38,6.38,0,0,0-1.24.2l-.46-.77h6.65l-.09-1.91c-1.81.17-2.73.24-4.23.5a.28.28,0,0,1-.52.07,8.54,8.54,0,0,1-.55-1.32.21.21,0,0,1,.08-.27,8.92,8.92,0,0,0,1.65-.15c.42-.37,1-.77,1.59-1.36l-2.09,0a4.87,4.87,0,0,0-1.32.2l-.51-.78H83.26l.92-1a.34.34,0,0,1,.31,0A15.83,15.83,0,0,1,85.79,27a.23.23,0,0,1-.09.33H79.89a22.35,22.35,0,0,1-3.1,1.54l.5,0H81c.9,0,1.34,0,2.33-.09A7,7,0,0,0,81.54,28l.09-.31a12,12,0,0,1,4.14.88,1.62,1.62,0,0,1,.77,1.32,1,1,0,0,1-.29.62.91.91,0,0,1-.42.06c.55.44,1.19.86,1.72,1.37.06.06,0,.2,0,.28l-.15.09H81v1.89h6L88,33a.32.32,0,0,1,.4-.05L90,34.41a.26.26,0,0,1,0,.31Zm0-8.72-.84.16a14,14,0,0,0-1.94,1.67l-.39-.24a13.36,13.36,0,0,0,.77-2.09H73.16a2.54,2.54,0,0,1-1,2.15,1.63,1.63,0,0,1-1.36.2.57.57,0,0,1-.33-.61c.19-.62.61-.6,1.14-1.15a3.58,3.58,0,0,0,.92-2l.42,0,.18.83H87.42l.63-.7a.32.32,0,0,1,.33.07A20.94,20.94,0,0,1,90,25.7.27.27,0,0,1,89.84,26.05Zm-.55-7.46-8.17,0,0,1.32,4.12,0L86,19a.48.48,0,0,1,.44,0c.44.35.9.7,1.45,1.21a.18.18,0,0,1-.11.31H74.26a4.83,4.83,0,0,0-1.28.2l-.53-.77h6.94l0-1.35-6.44,0a5.73,5.73,0,0,0-1.37.19L71,18h8.34c0-.85,0-1.6-.06-2.5a18.75,18.75,0,0,1,2.29.68.27.27,0,0,1,.06.35c-.37.33-.5.35-.5.48v1h5.41l.86-1.12c.13-.17.41,0,.41,0,.36.35,1.3,1,1.61,1.37C89.48,18.42,89.46,18.59,89.29,18.59Zm-3.46,4c0,.64,0,1.13,0,1.63,0,.09-.06.16-.19.2a3.82,3.82,0,0,1-1.35.35.24.24,0,0,1-.26-.24v-.66H76.46v.35a.2.2,0,0,1-.16.22,5.09,5.09,0,0,1-1.45.35c-.06,0-.24,0-.2-.17,0-.66.07-.88.07-1.39l0-1.08c0-.44,0-.9,0-1.36.69.24,1.19.44,1.79.7h7.61l.73-.59c.11-.09.28-.09.5,0,.55.36.77.49,1.19.73.13.09.11.22,0,.33S85.9,22.4,85.83,22.55ZM84.07,22H76.48v1.23h7.59Zm.24,7.39c-1.43.09-2.83.26-4.29.31a15.28,15.28,0,0,1,1.57.53c.22.44-.42.5-.58.74v.73h3.7c.44-.62.59-.79.88-1.14l.18-.05Z" transform="translate(-2.36 -1.09)"/><path class="cls-1" d="M91.42,20.62a6.3,6.3,0,0,1,2.51,1A1.22,1.22,0,0,1,94.41,23a1.16,1.16,0,0,1-.86.85c-.26,0-.39-.24-.53-.39a5.83,5.83,0,0,0-1.76-2.58Zm-.09,8.54c.62-.05,1.32.13,1.74-.4a28.74,28.74,0,0,0,1.19-3.57l1-3.93c.27-1,.53-2.05.79-3.06l.42.15c-.42,2-.88,4.14-1.21,6.18L94.61,29c-.13,2,.37,3.92.46,5.92a.76.76,0,0,1-.35.51c-.64.24-1.21-.24-1.63-.64-.59-.84-.07-1.8,0-2.71,0-.74.2-1.73-.55-2.17a4.06,4.06,0,0,0-1.21-.38Zm1.28-13.27a6.28,6.28,0,0,1,2.86,1.56,1.79,1.79,0,0,1-.44,1.8.44.44,0,0,1-.51.07,5.77,5.77,0,0,1-.66-1.25,5.6,5.6,0,0,0-1.45-1.83Zm4.33,8.36a.71.71,0,0,1,0,.28c.09,1,.24,2.4-.77,2.93a1,1,0,0,1-.88,0,.45.45,0,0,1-.15-.51c.17-.29.48-.55.68-.86a4.64,4.64,0,0,0,.79-1.85ZM102,15.69c.71.24,1.65.73,1.7,1.61-.09.33-.25.72-.62.81l1,0,.73-.9a.41.41,0,0,1,.31,0c.35.35.61.7,1,1.14.07.16,0,.31-.15.31l-4.54,0a.33.33,0,0,1,0,.36c-.64.11-1,.68-1.69,1.29s-1.5,1.41-2.27,2a15.12,15.12,0,0,0,2.25-.07,3.41,3.41,0,0,0-.27-1l.24-.13c.62.55,1.52,1.27,1.15,2.22-.18.44-.38.72-.77.7a.46.46,0,0,1-.29-.24c-.09-.31.05-.64,0-.95-1,.29-1.81.38-2.8.71-.08.28-.33.22-.39.06a6.71,6.71,0,0,1-.42-1.1c0-.08,0-.13.11-.15a1.7,1.7,0,0,0,.81-.24,22.88,22.88,0,0,0,1.41-1.87,9,9,0,0,0-1.41.37c0,.2-.3.24-.37.09l-.35-1.14c0-.22.22-.11.44-.22a1.07,1.07,0,0,0,.37-.44,14.42,14.42,0,0,0,1.15-3.39,15.33,15.33,0,0,1,1.69.92.25.25,0,0,1,0,.24,3.65,3.65,0,0,1-.53.2,21.49,21.49,0,0,1-2,2.6c.7,0,1,0,1.52,0,.39-.68.64-1.15.92-1.74.31.15.49.29.64.37h2a7.71,7.71,0,0,1-.31-1.32,3.16,3.16,0,0,0-.46-.94Zm1.15,17.82a10.55,10.55,0,0,0,3.21.35c.37-.08.68-.92.94-1.43l.27-.7-8.87-.07-.7.69c-.29.15-.47-.14-1.13-.69-.19-.15-.26-.24-.28-.39s.39-.2.59-.42a12.71,12.71,0,0,0,1.19-2.2,10.76,10.76,0,0,1,1.25.77h7V28.34h-8l-1.35.18-.44-.71h9.64l.68-.59c.07-.09.22-.07.38,0,.5.31.92.53,1.36.77a.34.34,0,0,1,.09.35,5.87,5.87,0,0,1-.66.66v1a.37.37,0,0,1-.31.42,3.23,3.23,0,0,1-1.21.31c-.24-.07-.17-.33-.17-.79H99.54l-.71,1.19h8.74l.81-.73a.28.28,0,0,1,.35,0l1.21,1a.27.27,0,0,1,0,.31c-.27.22-.62.28-.82.59-.48,1.21-.81,2.8-2.24,3.32a11.24,11.24,0,0,1-1.3.33,2.11,2.11,0,0,0-1.23-1.58c-.46-.15-.84-.33-1.36-.53Zm-5-9.39c.35.77,1,1.47.72,2.42a1,1,0,0,1-.81.68.35.35,0,0,1-.4-.18l-.06-.22a10.13,10.13,0,0,0,.28-2.64ZM99.56,24c.61.68,1.58,1.38,1.1,2.37a1,1,0,0,1-.84.64c-.17,0-.2-.24-.26-.4a6.58,6.58,0,0,0-.24-2.5Zm2.75-3.63a5.84,5.84,0,0,0-1.08.15l-.35-.7h2.46l.58-.66a.26.26,0,0,1,.33,0l.85.86c.07.11.09.17,0,.26l-.09.07Zm.15,1.69a6.56,6.56,0,0,0-1.07.15l-.36-.68h2.47l.55-.61a.24.24,0,0,1,.35,0l.86.84c.06.11.09.18,0,.26l-.09.07Zm-1.18,2.44c0-.59,0-1.16-.07-1.8.53.2,1,.44,1.47.68h1l.51-.53a.26.26,0,0,1,.31,0l.79.66a.22.22,0,0,1,0,.35l-.33.35v1.46a6.86,6.86,0,0,0,0,.83l.11,0a4.28,4.28,0,0,0,1.16-2.38l.38,0c0,1.07.3,2.46-.71,3.1a1,1,0,0,1-.79,0,.45.45,0,0,1-.22-.39c-.66.35-1,.48-1.17.42s-.13-.18-.13-.36v-.55h-1v.42a.31.31,0,0,1-.13.29,2.69,2.69,0,0,1-1.1.39c-.09,0-.09-.08-.16-.13,0-.5,0-1,0-1.45Zm2.39-.59h-1v1.93h1ZM109,21.15A7,7,0,0,1,110,22a1.56,1.56,0,0,1,.57,1.26,1.24,1.24,0,0,1-.57.83.66.66,0,0,1-.48,0c-.29-.26-.18-.79-.27-1.12a16.39,16.39,0,0,0-3,.68c-.07.2-.33.27-.42.07-.17-.44-.31-.75-.44-1.12s.62-.05.84-.29a12,12,0,0,0,1.38-1.91,7.61,7.61,0,0,0-1.38.31c-.07.22-.38.28-.46.11a6.43,6.43,0,0,1-.49-1.06c0-.26.38-.13.53-.24.31-.18.29-.44.46-.71a17.51,17.51,0,0,0,1.17-3.12c.55.29,1.08.57,1.63.92a.24.24,0,0,1-.14.31c-.52,0-.68.62-1,.93a14.47,14.47,0,0,1-1.49,1.76,8.36,8.36,0,0,0,1.67,0c.35-.61.68-1.21,1-1.84h.09c.48.33,1,.57,1.47.94.07.33-.33.29-.51.42a29.5,29.5,0,0,1-3.1,3.23l-.13.11a19.77,19.77,0,0,0,2.22-.08,3.43,3.43,0,0,0-.39-1Zm-.24,5.08a1.15,1.15,0,0,1-.77,1c-.13.06-.26,0-.37-.07-.35-.35,0-.77,0-1.21a4.35,4.35,0,0,0-.16-1.78.74.74,0,0,1,.33-.09A3.7,3.7,0,0,1,108.71,26.23Zm.38-2.22c.66.55,1.43,1.07,1.62,1.93a1.29,1.29,0,0,1-.66,1.17c-.22,0-.46-.05-.48-.29a7.06,7.06,0,0,0-.79-2.68Z" transform="translate(-2.36 -1.09)"/><path class="cls-1" d="M131.9,18.84H114.08a8.19,8.19,0,0,0-1.48.13L112,18.2h9.48a5,5,0,0,0-.55-1.23,3.41,3.41,0,0,0-1.14-1.35l.17-.39c1.15.17,2.49.35,3.17,1.08a.93.93,0,0,1,.2.83,4.17,4.17,0,0,1-.61,1.06h6l.88-1.34a.38.38,0,0,1,.5,0A21.73,21.73,0,0,1,132,18.42a.31.31,0,0,1,.05.31Zm-2.11,8.05v6.82c0,1-1.26,1.5-2,1.83l-.66.17c-.29-1.32-1.65-2-2.8-2.26l0-.42a15.49,15.49,0,0,0,3.32.26c.22,0,.24-.2.24-.44V26.27H116.1v6.38l0,2.09c0,.27-.28.4-.5.49-.71.28-1.23.59-1.39.33l0-.13c.07-1,.09-2.12.09-3.24V27.24a21.88,21.88,0,0,0-.18-2.66l.09,0a22,22,0,0,1,2.09,1.07h11.4l.7-.92a.26.26,0,0,1,.33,0,14.58,14.58,0,0,1,1.87,1.21c.05.08.13.24,0,.33C130.38,26.47,129.94,26.52,129.79,26.89Zm-3-5.11v.8c0,.85.06,1.14.06,1.73,0,.07,0,.18-.19.27a4.24,4.24,0,0,1-1.41.46c-.13,0-.31-.09-.31-.22V24h-6.25v.68a.49.49,0,0,1-.33.36l-1.25.33a.26.26,0,0,1-.31-.25c0-.66.09-1.36.09-2.09V21.61c0-.77,0-1.5-.11-2.18a19.88,19.88,0,0,1,2.26,1.08h5.75l.66-1a.3.3,0,0,1,.41,0l1.59,1.1a.27.27,0,0,1,0,.44C127.24,21.3,126.88,21.39,126.82,21.78Zm-1.37,7.4v1.3c0,.46,0,.72.07,1.36a.3.3,0,0,1-.22.31l-1.12.39c-.2.07-.4.05-.4-.15v-.68h-3.72v.94c0,.16-.17.29-.33.33l-1,.42a.26.26,0,0,1-.38-.13c.05-.7.09-1.45.09-2.22v-2c0-.7,0-1.39-.09-2a16.51,16.51,0,0,1,2,1h3.28l.71-.9c.17-.17.33-.09.5,0s.91.55,1.35.9c.17.11.15.29,0,.42S125.54,28.76,125.45,29.18Zm-.46-8h-6.25v2.17H125Zm-1.21,7.52h-3.72V31h3.72Z" transform="translate(-2.36 -1.09)"/><path class="cls-1" d="M142,25.88V23.63H137l-1.07.2-.64-.79H142c0-1,0-1.45,0-2.18l.88.22a16.49,16.49,0,0,0,3-5.79,10.64,10.64,0,0,1,2,1.06c.4.46-.37.35-.59.75s-.57.7-.84,1h3.28l.88-1.23a.3.3,0,0,1,.38,0,20.11,20.11,0,0,1,1.69,1.52c.11.11,0,.35-.09.35l-.42,0h-4.86A8.55,8.55,0,0,1,149,20.05a1,1,0,0,1,.31.72A1.7,1.7,0,0,1,148.4,22a.55.55,0,0,1-.53,0l-.17-.18a6.77,6.77,0,0,0-.93-3H146a19.13,19.13,0,0,1-2.57,2.44,4,4,0,0,1,.92.35.23.23,0,0,1,0,.31c-.17.22-.55.29-.55.68V23h4.14l.83-1a.28.28,0,0,1,.4,0c.48.49,1,.8,1.36,1.3.11.09.09.33-.06.35h-6.65v2.23h6.3l1-1.21a.37.37,0,0,1,.38,0,9.45,9.45,0,0,1,1.6,1.49.27.27,0,0,1-.17.33H135l-1.28.24-.61-.85Zm-.11-9a.41.41,0,0,1,.51,0l1.43,1.41c.18.15.09.26,0,.37l-.09.05h-4.15c.68.55,1.87,1.32,1.58,2.2a1.58,1.58,0,0,1-1,1,.57.57,0,0,1-.53-.13c-.31-.42-.2-.95-.31-1.45a3.3,3.3,0,0,0-.66-1.63h-.77a24.54,24.54,0,0,1-4.35,4.93l-.31-.27a23,23,0,0,0,4-7.61l.2-.62a14.45,14.45,0,0,1,2.36,1.08.29.29,0,0,1,0,.33c-.24.18-.57.18-.77.4l-.73,1.08,2.45.06Zm8.1,10.69a.31.31,0,0,1,.37,0A9.76,9.76,0,0,1,152,29.05c.11.15,0,.24-.18.28l-4.4,0V33.2a1.81,1.81,0,0,1-.66,1.83,5.66,5.66,0,0,1-2.09.77,2.84,2.84,0,0,0-2.15-2.13l.09-.47a21.15,21.15,0,0,0,2.68.27.63.63,0,0,0,.26-.35V29.31h-8.16a9.22,9.22,0,0,0-1.76.26l-.42-.88h10.32c0-.92,0-1.29-.06-2a14.38,14.38,0,0,1,2.39.58c.11,0,.27.15.2.33s-.31.26-.5.39-.11.42-.16.66h1.76Zm-11.13,2.18a7.74,7.74,0,0,1,2,.95c.55.33,1.26.83,1.17,1.58a1.92,1.92,0,0,1-.81,1.43.73.73,0,0,1-.67-.15,8.16,8.16,0,0,0-2-3.54Z" transform="translate(-2.36 -1.09)"/><path class="cls-1" d="M173.55,26.16H166c.51.44.86.66,1.45,1.19.11.22-.06.31-.28.4l-.9.39A40.33,40.33,0,0,1,162,32.72l3.25-.2,3.48-.39.55-.09a7.85,7.85,0,0,0-1.87-3l.31-.27a16.85,16.85,0,0,1,3.85,3.11,2.58,2.58,0,0,1,.59,2.55A2.22,2.22,0,0,1,171,35.62a.47.47,0,0,1-.46-.15c-.28-.68-.44-1.41-.7-2.11a1.88,1.88,0,0,0-.22-.57l-.79.19-4.1,1a28.1,28.1,0,0,0-3.36.9c-.07.51-.55.51-.69.22l-.81-1.93c-.11-.44.51-.4.73-.6a10.77,10.77,0,0,0,2.73-3.3,31.21,31.21,0,0,0,1.78-3.08h-3.33a8.71,8.71,0,0,0-1.65.29l-.59-.84-1.08,3.7a6.24,6.24,0,0,0-.22,2.66c.07,1.19.75,2.47.05,3.57a.8.8,0,0,1-.73.28,3,3,0,0,1-1.5-1.38c-.28-.75.11-1.41.27-2.14a1.8,1.8,0,0,0,0-1.19c-.29-1.14-1.52-1.36-2.44-1.69l0-.46a11.93,11.93,0,0,0,2.4-.11,2.2,2.2,0,0,0,.7-.66,89.19,89.19,0,0,0,4.38-9.62l.4.16c-.2.7-.51,1.4-.75,2.13l4,0V17.8L165,15.73a20.35,20.35,0,0,1,2.68.86.27.27,0,0,1,.09.4c-.2.22-.81.59-.81.77V20.9h2.61l1-1.27a.27.27,0,0,1,.37,0c.73.57,1.19,1.05,1.74,1.56,0,.09.13.22,0,.33l-.15.11H167v3.85h3.54l.81-1.28c.07-.15.35-.15.49,0a19.1,19.1,0,0,1,1.93,1.63C173.81,25.94,173.79,26.16,173.55,26.16Zm-16.73-.74a.55.55,0,0,1-.52-.12,8.3,8.3,0,0,1-.8-1.87,4.47,4.47,0,0,0-1.25-1.95l.35-.38a14.56,14.56,0,0,1,2.6,1.34,1.62,1.62,0,0,1,.77,1.41A1.8,1.8,0,0,1,156.82,25.42Zm2.84-5.15c-.22.24-.44.61-.81.63a.45.45,0,0,1-.46-.22c-.22-.41-.31-.88-.51-1.29a8.51,8.51,0,0,0-1.54-2.64l.35-.38a8.78,8.78,0,0,1,3.1,2A1.8,1.8,0,0,1,159.66,20.27ZM163,21.61a6.58,6.58,0,0,0-1.48.24l-.46-.68c-.53,1.43-.93,2.68-1.48,4.29h5.48l0-3.85Z" transform="translate(-2.36 -1.09)"/><path class="cls-1" d="M181.77,18.37a1.86,1.86,0,0,0-.88,1c-.61,1.17-1.36,2.27-2,3.43,1.47,1.39,3.23,2.93,2.92,5.15A3.81,3.81,0,0,1,179,30.81a2.57,2.57,0,0,0-1.56-2.27l.11-.42c.79.27,1.74.68,2.2-.26.62-1.9-.53-3.57-1.74-4.93a32,32,0,0,0,1.54-4.8h-2.2V29.46l.07,3.48,0,1.72a.42.42,0,0,1-.13.26,4.59,4.59,0,0,1-1.52.66c-.13,0-.26,0-.24-.15,0-1,.06-2.14.06-3.24l0-3.56V19l-.14-2.33c.62.28,1.1.55,1.81.9h2l.62-.77a.32.32,0,0,1,.37-.07A14,14,0,0,1,182,18,.27.27,0,0,1,181.77,18.37Zm10.56,16.35a16.5,16.5,0,0,1-3.3,0c-.92-.11-1.51-.26-1.69-1.21a14.89,14.89,0,0,1,0-2.64l0-4.49h-1.4c-.18,2.22-.29,4.62-2.05,6.23a11.84,11.84,0,0,1-5.35,2.59l-.2-.44c2.38-.9,5-2.61,5.51-5.52a13.36,13.36,0,0,0,.19-2.86h-.3a8.39,8.39,0,0,0-1.43.26l-.45-.85h8.48l1.12-1.35c.09-.15.26-.13.42,0a12.14,12.14,0,0,1,1.91,1.48.3.3,0,0,1-.22.46H189v6.25a.77.77,0,0,0,.75.55c.85,0,2,.18,2.37-.55a5.48,5.48,0,0,0,.46-2.2l.12-1.65h.52a7.46,7.46,0,0,0,.44,3.28,3.4,3.4,0,0,0,.86.83A2.68,2.68,0,0,1,192.33,34.72ZM193,20.09a8.65,8.65,0,0,0-2.46,1.69,9.87,9.87,0,0,1,1,1c.06.11,0,.27-.09.29h-6.19a6.05,6.05,0,0,0-1.65.26l-.5-.86h5.48l.92-1.21c.18-.24.33,0,.64.22a12.16,12.16,0,0,0,.83-1.51c0-.14.18-.36.22-.49h-7.59a3.15,3.15,0,0,1-.52,2.66,1.68,1.68,0,0,1-1.61.44.65.65,0,0,1-.46-.35c-.24-.53.35-.92.61-1.23a4.78,4.78,0,0,0,1.15-3.06l.24-.06a6.74,6.74,0,0,1,.42,1h3.06A5.8,5.8,0,0,0,184.85,16l-.17-.16.13-.26a6.17,6.17,0,0,1,1,.13,5.49,5.49,0,0,1,1.85.71,1.2,1.2,0,0,1,.62,1.1,2,2,0,0,1-.55,1.18l-.16.16H191l.81-1c.11-.13.24-.07.4,0a17,17,0,0,1,1.69,1.5c.11.11.2.22.11.39C193.7,20,193.26,20,193,20.09Z" transform="translate(-2.36 -1.09)"/><path class="cls-1" d="M236.46,32.28a16.31,16.31,0,0,0,2.93.53,1.07,1.07,0,0,0,.92-.64c.49-1.39.55-4.6.55-6.89h-3.52a14.39,14.39,0,0,1-1.93,5.79c-1.54,2.38-4.09,3.59-6.41,4.75-.11-.15-.48-.42-.11-.48,2.16-1.48,4.34-3.35,5.31-5.77a19.1,19.1,0,0,0,1-4.31l-1.61,0a5.73,5.73,0,0,0-1.12.2l-.49-.64c-.35.24-.66.6-1,.86-1,.7-1.94,1.41-2.95,2l-.24-.28a26.09,26.09,0,0,0,6.38-9.09,19.62,19.62,0,0,0,.66-2h.11c.77.44,1.45,1,2.22,1.56.09.07.22.2.13.36s-.57.08-.72.37a28.24,28.24,0,0,1-4.34,5.92h8.5l.83-.86a.32.32,0,0,1,.46,0c.47.33.66.5,1.15.9a16.54,16.54,0,0,1-4.25-9.17c.77.15,1.5.33,2.25.55a.3.3,0,0,1,.06.33c-.31.24-.77.44-.72.9a9.73,9.73,0,0,0,4.2,5.56,22.61,22.61,0,0,0,3.52,1.9l-.11.33a3.23,3.23,0,0,0-3.12,1.14A11,11,0,0,1,243.57,25c-.13,0,0,.11-.11.14-.24.22-.55.31-.64.66l0,.57-.11,3.48c-.07,2.22-.11,4.31-2.36,5.32a4.8,4.8,0,0,1-1.47.42c0-1.43-1.34-2.47-2.49-2.91Z" transform="translate(-2.36 -1.09)"/><path class="cls-1" d="M255.91,18.37a1.86,1.86,0,0,0-.88,1c-.61,1.17-1.36,2.27-2.05,3.43,1.48,1.39,3.24,2.93,2.93,5.15a3.83,3.83,0,0,1-2.77,2.89,2.57,2.57,0,0,0-1.56-2.27l.11-.42c.79.27,1.73.68,2.2-.26.61-1.9-.53-3.57-1.74-4.93a34.41,34.41,0,0,0,1.54-4.8h-2.2V29.46l.06,3.48,0,1.72a.48.48,0,0,1-.13.26,4.68,4.68,0,0,1-1.52.66c-.13,0-.27,0-.24-.15,0-1,.06-2.14.06-3.24l0-3.56V19l-.13-2.33c.62.28,1.1.55,1.81.9h2l.62-.77a.32.32,0,0,1,.37-.07A14,14,0,0,1,256.11,18,.27.27,0,0,1,255.91,18.37Zm10.56,16.35a16.5,16.5,0,0,1-3.3,0c-.92-.11-1.52-.26-1.69-1.21a13.89,13.89,0,0,1-.05-2.64l0-4.49H260c-.17,2.22-.28,4.62-2,6.23a11.84,11.84,0,0,1-5.35,2.59l-.2-.44c2.38-.9,5-2.61,5.5-5.52a12.73,12.73,0,0,0,.2-2.86h-.31a8.57,8.57,0,0,0-1.43.26l-.44-.85h8.47l1.13-1.35c.08-.15.26-.13.41,0a11.72,11.72,0,0,1,1.92,1.48.31.31,0,0,1-.22.46h-4.53v6.25a.77.77,0,0,0,.74.55c.86,0,2,.18,2.38-.55a5.48,5.48,0,0,0,.46-2.2l.11-1.65h.53a7.46,7.46,0,0,0,.44,3.28,3.4,3.4,0,0,0,.86.83A2.7,2.7,0,0,1,266.47,34.72Zm.62-14.63a8.7,8.7,0,0,0-2.47,1.69,8.08,8.08,0,0,1,1,1,.19.19,0,0,1-.09.29h-6.18a6.05,6.05,0,0,0-1.65.26l-.5-.86h5.47l.93-1.21c.17-.24.33,0,.64.22a12.16,12.16,0,0,0,.83-1.51c0-.14.18-.36.22-.49h-7.59a3.12,3.12,0,0,1-.53,2.66,1.66,1.66,0,0,1-1.6.44.63.63,0,0,1-.46-.35c-.25-.53.35-.92.61-1.23a4.77,4.77,0,0,0,1.14-3.06l.25-.06a6.74,6.74,0,0,1,.42,1h3.05A5.7,5.7,0,0,0,259,16l-.17-.16.13-.26a6.45,6.45,0,0,1,1,.13,5.49,5.49,0,0,1,1.85.71,1.22,1.22,0,0,1,.62,1.1,2,2,0,0,1-.55,1.18l-.16.16h3.35l.81-1c.11-.13.24-.07.4,0a18.15,18.15,0,0,1,1.69,1.5c.11.11.2.22.11.39C267.84,20,267.4,20,267.09,20.09Z" transform="translate(-2.36 -1.09)"/><path class="cls-1" d="M91.05,39.6c-.83,0-1.17.12-1.44.51a2,2,0,0,0-.3,1.13h-.57V38.93H96.8v2.31h-.56a2.59,2.59,0,0,0-.28-1c-.26-.46-.58-.62-1.28-.62h-1v6c0,.73.26,1,1.12,1h.06v.55H90.73v-.55h.07c.85,0,1.12-.23,1.12-1v-6Z" transform="translate(-2.36 -1.09)"/><path class="cls-1" d="M103.72,45.81v.07a1.28,1.28,0,0,1-1.41,1.33,1.15,1.15,0,0,1-1.24-.8,3.25,3.25,0,0,1-1.94.8c-.95,0-1.55-.44-1.55-1.13s.5-1.31,1.5-1.72a15.65,15.65,0,0,1,1.7-.55l.18,0v-.35c0-.61-.31-.91-.95-.91a.8.8,0,0,0-.93.78.64.64,0,0,1-.71.62.56.56,0,0,1-.64-.58c0-.82,1-1.38,2.49-1.38s2.28.51,2.28,1.47v2.07c0,.66.1.87.39.87s.36-.2.38-.55ZM101,44.37c-1.23.38-1.76.79-1.76,1.36a.59.59,0,0,0,.65.63,1.72,1.72,0,0,0,1.11-.5Z" transform="translate(-2.36 -1.09)"/><path class="cls-1" d="M106.41,45.65c0,.71.14.87.76.87h0v.55H104v-.55h.18c.6,0,.73-.16.73-.87v-1.8c0-.75-.08-.82-.91-.84v-.55l2.45-.51Zm-.73-6.91a.87.87,0,1,1-.86.87A.86.86,0,0,1,105.68,38.74Z" transform="translate(-2.36 -1.09)"/><path class="cls-1" d="M108.49,43.57c-.36-.78-.44-.85-1-.86v-.56h3.09v.56h-.17c-.31,0-.44.08-.44.3a.69.69,0,0,0,.07.3l1,2.12,1.64-3.28h.42l1.65,3.28.89-1.89a1.75,1.75,0,0,0,.18-.54c0-.21-.15-.29-.59-.29h-.11v-.56h2.11v.56h0c-.48,0-.6.12-1,.94-.08.2-.15.32-.17.39l-1.55,3.23H114L112.34,44l-1.6,3.23h-.52Z" transform="translate(-2.36 -1.09)"/><path class="cls-1" d="M123.91,45.81v.07a1.27,1.27,0,0,1-1.4,1.33,1.15,1.15,0,0,1-1.24-.8,3.27,3.27,0,0,1-1.94.8c-1,0-1.55-.44-1.55-1.13s.5-1.31,1.5-1.72a16.13,16.13,0,0,1,1.69-.55l.19,0v-.35c0-.61-.31-.91-1-.91a.8.8,0,0,0-.93.78.65.65,0,0,1-.72.62.57.57,0,0,1-.64-.58c0-.82,1-1.38,2.5-1.38s2.28.51,2.28,1.47v2.07c0,.66.09.87.39.87s.36-.2.38-.55Zm-2.75-1.44c-1.23.38-1.76.79-1.76,1.36a.58.58,0,0,0,.65.63,1.74,1.74,0,0,0,1.11-.5Z" transform="translate(-2.36 -1.09)"/><path class="cls-1" d="M126.45,42.86a2.23,2.23,0,0,1,1.79-.91,1.6,1.6,0,0,1,1.82,1.66v2c0,.71.14.87.77.87h0v.55h-3.09v-.55h0c.5,0,.68-.18.69-.61l0-.35V43.74c0-.68-.28-1-.83-1a1.36,1.36,0,0,0-1.22,1.52v1.53c0,.59.1.69.75.73v.55h-3.17v-.55h.14c.61,0,.73-.16.73-.87v-2c0-.54-.14-.68-.75-.68h-.12v-.55L126.4,42a4.23,4.23,0,0,1,0,.63v.28Z" transform="translate(-2.36 -1.09)"/><path class="cls-1" d="M138.12,45.56c0,.73.27,1,1.13,1h0v.55h-4v-.55h0c.86,0,1.12-.23,1.12-1V40.44c0-.73-.26-.95-1.12-.95h0v-.56h4v.56h0c-.86,0-1.13.22-1.13.95v2h3.77v-2c0-.73-.25-.95-1.11-.95h0v-.56h4v.56h0c-.82,0-1.09.23-1.09.95v5.12c0,.71.27,1,1.09,1h0v.55h-4v-.55h0c.86,0,1.11-.23,1.11-1V43.11h-3.77Z" transform="translate(-2.36 -1.09)"/><path class="cls-1" d="M147.74,45.65c0,.71.13.87.76.87h0v.55h-3.25v-.55h.17c.61,0,.74-.16.74-.87v-1.8c0-.75-.09-.82-.91-.84v-.55l2.45-.51ZM147,38.74a.87.87,0,1,1-.86.87A.86.86,0,0,1,147,38.74Z" transform="translate(-2.36 -1.09)"/><path class="cls-1" d="M151.85,47.82c-1.2,0-1.7-.13-2-.45a1,1,0,0,1-.32-.78c0-.55.36-.93,1.1-1.18a4.13,4.13,0,0,1,.49-.13v0c-1.06-.19-1.57-.7-1.57-1.52,0-1.07,1-1.78,2.44-1.78a2.71,2.71,0,0,1,1.82.55,1.16,1.16,0,0,1,1-.54c.39,0,.64.19.64.51A.45.45,0,0,1,155,43a.33.33,0,0,1-.22-.09l-.12-.12a.53.53,0,0,0-.32-.14.41.41,0,0,0-.31.12,1.51,1.51,0,0,1,.43,1,1.47,1.47,0,0,1-1,1.46,4.56,4.56,0,0,1-1,.25l-.55.07c-1,.12-1.42.32-1.42.59s.25.31.8.31h.75a5.08,5.08,0,0,1,1.74.2A1.58,1.58,0,0,1,155,48.13a2,2,0,0,1-1.68,1.8,6.68,6.68,0,0,1-1.39.14c-1.74,0-2.69-.46-2.69-1.32a.7.7,0,0,1,.72-.75,1.08,1.08,0,0,1,.43.11.79.79,0,0,0-.14.45c0,.59.72,1,1.87,1s2-.39,2-1-.47-.72-1.61-.72ZM152,45c.57,0,.93-.49.93-1.23s-.36-1.28-1-1.28-1,.44-1,1.23S151.37,45,152,45Z" transform="translate(-2.36 -1.09)"/><path class="cls-1" d="M157.84,42.83a2.24,2.24,0,0,1,1.77-.88,1.78,1.78,0,0,1,1.57.75,2.12,2.12,0,0,1,.25,1.14v1.81c0,.71.13.87.75.87h.06v.55h-3.09v-.55h.06c.47,0,.68-.18.68-.58v-2c0-.82-.23-1.17-.79-1.17a1.29,1.29,0,0,0-1,.56,2,2,0,0,0-.25,1.14v1.05c0,.86.11,1,.69,1h0v.55h-3.16v-.55h.14c.61,0,.75-.16.75-.87V40.59c0-.64-.12-.75-.89-.76v-.54l2.43-.52Z" transform="translate(-2.36 -1.09)"/><path class="cls-1" d="M174.63,47h-.57a2.28,2.28,0,0,0-.41-.92,3.26,3.26,0,0,1-2.6,1.15A4.08,4.08,0,0,1,166.93,43a4.14,4.14,0,0,1,4.26-4.27,3.33,3.33,0,0,1,2.46,1,2.57,2.57,0,0,0,.26-.75h.54l.1,3H174a3,3,0,0,0-2.78-2.61,2.32,2.32,0,0,0-2.15,2,7.56,7.56,0,0,0-.17,1.68c0,2.15,1,3.45,2.55,3.45a3.17,3.17,0,0,0,2.64-2.59h.57Z" transform="translate(-2.36 -1.09)"/><path class="cls-1" d="M178.77,42a2.68,2.68,0,0,1,3,2.57,3,3,0,1,1-3-2.57Zm-1.09,4.12a1.11,1.11,0,0,0,1.08.65c1,0,1.31-.61,1.31-2.16s-.36-2.05-1.34-2.05-1.26.57-1.26,2.08A3.52,3.52,0,0,0,177.68,46.07Z" transform="translate(-2.36 -1.09)"/><path class="cls-1" d="M186.74,46.4a2.39,2.39,0,0,1-1.84.88,1.68,1.68,0,0,1-1.44-.62,2,2,0,0,1-.3-1.32V43.57c0-.71-.12-.86-.74-.86h-.12v-.56h2.41v3.31q0,1,.81,1a1.64,1.64,0,0,0,1.22-.93v-2c0-.7-.13-.86-.75-.86h-.15v-.56h2.44v3.62c0,.58.13.69.88.71V47a12.85,12.85,0,0,0-2.32.23h-.1Z" transform="translate(-2.36 -1.09)"/><path class="cls-1" d="M191.72,42a4.76,4.76,0,0,1,.15,1.27h0a2.83,2.83,0,0,1,.85-1,1.55,1.55,0,0,1,.9-.29,1,1,0,0,1,1.07.93.72.72,0,0,1-.71.76.67.67,0,0,1-.6-.34A.54.54,0,0,0,193,43c-.54,0-1,.69-1,1.56v1.06c0,.73.12.87.82.87h.32v.55h-3.72v-.55h.29c.62,0,.75-.16.75-.87V43.88c0-.74-.12-.87-.87-.87h-.17v-.55Z" transform="translate(-2.36 -1.09)"/><path class="cls-1" d="M197.15,45.57c0,.8.07,1,.43,1s.55-.26.81-.79l.52.23a1.83,1.83,0,0,1-1.75,1.27,1.46,1.46,0,0,1-1.34-.61,1.74,1.74,0,0,1-.22-1.12V42.71h-.91v-.56h.06a1.85,1.85,0,0,0,1.92-1.58h.48v1.58h1.69v.56h-1.69Z" transform="translate(-2.36 -1.09)"/><circle class="cls-2" cx="30.28" cy="30.28" r="30.28"/><path class="cls-3" d="M61.52,37.78a29.81,29.81,0,0,1-28.83,23c-13.95,0-25.93-10.21-28.92-23.25h7.44c2.8,9,11.53,16.07,21.48,16.07A22.63,22.63,0,0,0,54.08,37.78Z" transform="translate(-2.36 -1.09)"/><path class="cls-4" d="M53.63,31.28a21,21,0,1,1-21-21A21,21,0,0,1,53.63,31.28Z" transform="translate(-2.36 -1.09)"/><path class="cls-2" d="M34.33,33.78H31V42a1.68,1.68,0,0,0,1.69,1.65A1.64,1.64,0,0,0,34.33,42Z" transform="translate(-2.36 -1.09)"/><path class="cls-2" d="M35.56,44H29.74a.7.7,0,0,0-.76.65v.77a.7.7,0,0,0,.76.65h5.82a.69.69,0,0,0,.75-.65v-.77A.7.7,0,0,0,35.56,44Z" transform="translate(-2.36 -1.09)"/><path class="cls-2" d="M36.69,46.86h-8c-.56,0-1,.3-1,.69v.75c0,.41.41.7,1,.7h8c.55,0,1-.29,1-.7v-.75C37.65,47.16,37.24,46.86,36.69,46.86Z" transform="translate(-2.36 -1.09)"/><path class="cls-2" d="M48.92,23.27a.91.91,0,0,0-.41-.63,1.1,1.1,0,0,0-1.36.13,6.57,6.57,0,0,1-8.67.07,8.88,8.88,0,0,0-11.24-.17l.05,0-.2.16,0,0a6.27,6.27,0,0,1-4.38,1.67,6.23,6.23,0,0,1-4.38-1.67,1.09,1.09,0,0,0-.68-.3,1.13,1.13,0,0,0-.69.17.94.94,0,0,0-.41.63v.1a.8.8,0,0,0,.27.6,8.38,8.38,0,0,0,5.9,2.28,8.45,8.45,0,0,0,5.48-1.9l0,0s0,0,0,0l.15-.12a6.55,6.55,0,0,1,8.68-.07,8.47,8.47,0,0,0,5.71,2.09A8.37,8.37,0,0,0,48.66,24a.87.87,0,0,0,.26-.61Zm0,0h0v0Z" transform="translate(-2.36 -1.09)"/><path class="cls-2" d="M36.14,17a3.45,3.45,0,1,1-3.46-3.46A3.46,3.46,0,0,1,36.14,17Z" transform="translate(-2.36 -1.09)"/><path class="cls-2" d="M27.58,38.37l-5.32-12a.56.56,0,0,0-.52-.35.57.57,0,0,0-.52.36h0l-5.31,12a.75.75,0,0,0,0,.62,6.46,6.46,0,0,0,5.81,3.15A6.43,6.43,0,0,0,27.55,39,.72.72,0,0,0,27.58,38.37ZM21.74,28.14c.32.71,4.33,9.77,4.61,10.41H17.13l3.09-7Z" transform="translate(-2.36 -1.09)"/><path class="cls-2" d="M49.53,38.37l-5.31-12A.56.56,0,0,0,43.7,26a.57.57,0,0,0-.53.37v0l-5.3,12a.71.71,0,0,0,0,.62,6.45,6.45,0,0,0,5.81,3.15A6.44,6.44,0,0,0,49.51,39,.72.72,0,0,0,49.53,38.37ZM43.7,28.14l4.61,10.41H39.08c.2-.43,2-4.5,2-4.5S43.4,28.83,43.7,28.14Z" transform="translate(-2.36 -1.09)"/><path class="cls-2" d="M38.26,25.42a.82.82,0,0,0-.88.91H36.22v-.52h-7v.52H28a.82.82,0,0,0-.88-.91s-.77,0-.77,1v4.36c0,1.07.77,1,.77,1a.83.83,0,0,0,.88-.92h1.15v.54H31v1.59h3.31V31.47h1.89v-.54h1.16a.83.83,0,0,0,.88.92s.77,0,.77-1V26.45C39,25.4,38.26,25.42,38.26,25.42Z" transform="translate(-2.36 -1.09)"/><path class="cls-5" d="M135.42,41.89" transform="translate(-2.36 -1.09)"/><path class="cls-2" d="M12.29,50.75l-2.7-3.38.16-.13L11,48.84l.22-.18L10.16,47.3l.15-.12,1.09,1.36.21-.17-.95-1.18.13-.15a1.42,1.42,0,0,0,.79.45L11.15,47l.15-.12,1.91,2.37-.15.12-.21-.26a5.86,5.86,0,0,1-.1.74l-.24-.06a1.57,1.57,0,0,0,.06-.28c-.37-.41-.63-.71-.79-.9l-.21.17,1.08,1.36-.15.12-1.09-1.35-.22.17,1.27,1.58Zm1.12-1-.17-.21.35-.28-2.25-2.82-.34.27-.17-.2.5-.4,2.59,3.23Zm-.84-.59a1.75,1.75,0,0,0,0-.25l.15,0-.93-1.17a2,2,0,0,1-.63-.22Zm1.23-.34-2-2.49.52-.41,2,2.48Zm0-.34.2-.16-1.65-2.07-.2.16Zm1.41-.07-1.26-1.57-.19.15,1.12,1.4-.16.13-2.41-3,.16-.12,1.12,1.4.19-.15L12.5,45.07l.17-.13,1.26,1.58.17-.14.17.21-.17.14,1.26,1.57Z" transform="translate(-2.36 -1.09)"/><path class="cls-2" d="M14.75,51a8.71,8.71,0,0,1-1.52.72l-.06-.24a10.24,10.24,0,0,0,1.51-.72Zm2.05,2.75-.34.3a.37.37,0,0,1-.25.09.36.36,0,0,1-.28-.11l-.87-.74.07-.24.94.8a.14.14,0,0,0,.22,0l.16-.13-2.2-1.87.66-.36,1.88,1.6.18-.21-2.08-1.77L15,51l2.28,1.94-.45.53-1.92-1.64-.27.15ZM15.32,50.3l-.24.05a4.56,4.56,0,0,0-.15-.89l.25,0A4.83,4.83,0,0,1,15.32,50.3Zm.28.26a2.92,2.92,0,0,1-.46.29L15,50.66a3,3,0,0,0,.47-.27Zm0,.62-.17-.1a3.52,3.52,0,0,0,.27-.44l.17.11C15.72,51,15.63,51.11,15.58,51.18Zm.83-.26-.19-.07a.34.34,0,0,0,0-.12,6.52,6.52,0,0,1-.72-.43l0-.17c.36,0,.63,0,.81-.07L16,49.8l.06-.17a3.34,3.34,0,0,0,.93-.22l.1.22a5.37,5.37,0,0,1-.75.17l.31.2.26-.07.09.21a4.74,4.74,0,0,1-1.08.18c.12.07.24.15.38.22a.54.54,0,0,0,0-.15l.19.07A1.85,1.85,0,0,1,16.41,50.92Zm-.25-1.42-.25,0a5.79,5.79,0,0,0-.15-.88l.24,0A4,4,0,0,1,16.16,49.5ZM16,51.37l-.19-.09a2.86,2.86,0,0,0,.21-.43l.19.08A2.49,2.49,0,0,1,16,51.37Zm.76.74-.67-.57.47-.54.66.57Zm0-.28.2-.24-.33-.29-.21.24Zm.61-.41-.66-.57.13-.15.66.57Zm.05.63a2.62,2.62,0,0,1-.45.34l-.13-.17a2.83,2.83,0,0,0,.45-.33Zm.21-.94-.66-.56L17,50.4l.67.56Zm.36-.2-.86-.73.13-.16.37.31a1.07,1.07,0,0,0,.08-.28l.21.07a2.4,2.4,0,0,1-.1.38l.3.25Zm-.54,1.8-.19-.11a1.68,1.68,0,0,0,.28-.43l.17.1A2.13,2.13,0,0,1,17.38,52.71Zm.78-.24L18,52.38a.59.59,0,0,0,.06-.14l-.74-.46.06-.17a5.71,5.71,0,0,0,.79,0l-.4-.3.06-.15a4.79,4.79,0,0,0,1-.19l.12.21a4.08,4.08,0,0,1-.8.15l.35.23.28-.08.08.22a4.59,4.59,0,0,1-1.08.16,2.47,2.47,0,0,0,.35.22.37.37,0,0,0,0-.15l.21.08C18.26,52.15,18.21,52.31,18.16,52.47Zm-.41.52-.19-.09c.09-.23.15-.4.18-.49l.18.08A2.28,2.28,0,0,1,17.75,53Z" transform="translate(-2.36 -1.09)"/><path class="cls-2" d="M21.23,56.83A.39.39,0,0,1,21,57c-.08,0-.23,0-.44-.12l-.24-.14,0-.26.36.21c.13.07.23,0,.28-.05l.64-1.17L18.75,53.9l-.84,1.53-.23-.12.95-1.75L22,55.4Zm-.72-.53-1.84-1,.45-.83,1.84,1ZM20.39,56l.22-.42-1.36-.74-.22.42Zm2.55-1.81L19.17,52.1l.11-.21,1.77,1a1.53,1.53,0,0,0,.06-.4l.26,0a2,2,0,0,1-.07.49l1.75,1Zm-1.21.72-2.51-1.37.43-.8,2.51,1.37Zm-.14-.34.21-.38-2-1.11-.21.39Z" transform="translate(-2.36 -1.09)"/><path class="cls-2" d="M27,57.86l-.88-.27-.21.71c-.05.19-.14.29-.25.32a1.3,1.3,0,0,1-.53-.07l-.36-.12,0-.27.45.14.33.08c.06,0,.1,0,.13-.11l.22-.75-3.11-.92.07-.23,3.11.92.13-.43-2.66-.79.06-.22,1.57.46.12-.41-1.8-.53.07-.23,1.8.54.09-.31.25.07-.09.31,1.77.52-.06.23L25.37,56l-.12.42,1.56.46-.07.22-.46-.13-.12.42.88.26ZM25.47,55l-1.37-.41a3.28,3.28,0,0,1-.63.34l-.16-.22a2.58,2.58,0,0,0,1.12-.75l.24.15-.34.31,1.2.35Zm-1.1,3-.25.09a4.21,4.21,0,0,0-.55-.84l.25-.1A4.39,4.39,0,0,1,24.37,57.93Zm.36-2.64-.28,0a1.79,1.79,0,0,0-.21-.45l.25,0A1.33,1.33,0,0,1,24.73,55.29Zm2.84.31L26,55.14a1.91,1.91,0,0,1-.38.19l-.16-.19a2.21,2.21,0,0,0,.85-.62l.22.15a2.62,2.62,0,0,1-.3.29l1.39.42Zm-.75.3-.27.05a2.33,2.33,0,0,0-.24-.47l.27,0A1.69,1.69,0,0,1,26.82,55.9Z" transform="translate(-2.36 -1.09)"/><path class="cls-2" d="M29,57.68A8.55,8.55,0,0,1,28,59.2L27.74,59a6.78,6.78,0,0,0,1.05-1.51Zm.06-.76-.21.18a3.71,3.71,0,0,0-.78-.7l.17-.18A4.68,4.68,0,0,1,29.06,56.92Zm.2-1.18-.21.17a4.37,4.37,0,0,0-.77-.7l.19-.17A5,5,0,0,1,29.26,55.74Zm3.11,1.82-1.59-.14A8.39,8.39,0,0,1,29.52,59a16.81,16.81,0,0,0,2.08-.15,8.47,8.47,0,0,0-.49-.8l.24-.1a8.43,8.43,0,0,1,.84,1.55l-.24.13a2.69,2.69,0,0,0-.24-.56c-.76.09-1.61.15-2.54.17l-.09-.27a1.58,1.58,0,0,0,.64-.52,7.44,7.44,0,0,0,.74-1l-1.24-.11,0-.24,1.46.13.08-.94-1.22-.11,0-.24L30.8,56l.07-.74.26,0-.07.74,1.21.11,0,.24L31,56.25l-.08,1,1.43.12Z" transform="translate(-2.36 -1.09)"/><path class="cls-2" d="M34.08,56.78a1.82,1.82,0,0,1,.53,1.06.55.55,0,0,1-.09.37c-.07.1-.23.16-.49.18l-.19,0-.12-.25.28,0a.51.51,0,0,0,.3-.08.23.23,0,0,0,.05-.18,1.68,1.68,0,0,0-.54-1c.08-.32.17-.72.27-1.19l-.75.07.37,3.82-.26,0-.39-4.07,1.28-.12,0,.24C34.27,56,34.18,56.39,34.08,56.78Zm3.55,1.45a2,2,0,0,1,0,.57.4.4,0,0,1-.16.27,1.16,1.16,0,0,1-.48.12c-.29,0-.44-.06-.46-.26l-.14-1.47-.58.06a2.14,2.14,0,0,1-.23,1.21,2.28,2.28,0,0,1-.83.71l-.21-.19a1.87,1.87,0,0,0,.81-.65,1.59,1.59,0,0,0,.19-1.06l-.75.07,0-.23,2.69-.26,0,.24-.82.08.13,1.41a.16.16,0,0,0,0,.07.38.38,0,0,0,.23,0,.8.8,0,0,0,.23,0,.22.22,0,0,0,.07-.06.56.56,0,0,0,0-.24,2,2,0,0,0,0-.42Zm-.28-1.8-.26,0L37,55.74,34.87,56l.07.71-.26,0-.09-1,1.18-.11a4.49,4.49,0,0,0-.22-.42l.26-.1a3.19,3.19,0,0,1,.24.49l1.21-.11Zm-.45.14-1.74.16,0-.24,1.73-.16Z" transform="translate(-2.36 -1.09)"/><path class="cls-2" d="M41.92,54.07,40,54.66l.08.24,1.71-.53.06.19L38.15,55.7l-.06-.2L39.81,55l-.08-.24-1.93.6-.06-.2,1.93-.6-.06-.21.26-.08.06.22,1.93-.59Zm.58,2.16-.26.08-.13-.43-3.45,1.06.13.41-.25.08-.19-.61,4-1.21Zm-.72-.71-3,.94-.2-.64,3-.93ZM43,57.62l-4.14,1.27-.06-.19,1.95-.6-.08-.27L39,58.34,39,58.15l1.67-.51-.08-.25-1.44.44-.1-.17a1.51,1.51,0,0,0,.72-.57l-.66.2L39,57.1l2.91-.89.06.19-.32.09a5.14,5.14,0,0,1,.65.37l-.14.19a1.79,1.79,0,0,0-.24-.15l-1.13.4.08.26,1.66-.51.06.19-1.66.51L41,58l1.93-.59Zm-1.55-2.21-.07-.25-2.53.78.07.24Zm.19,1.38-.23-.12.08-.13L40.08,57a2.16,2.16,0,0,1-.44.5Q40.23,57.3,41.65,56.79Z" transform="translate(-2.36 -1.09)"/><path class="cls-2" d="M47.06,53.9l-1.57.88L46.2,56l-.24.13-.7-1.26-1.58.88-.93-1.66,1.58-.88-.42-.75.24-.13.41.74,1.57-.87Zm-1.93.79-.68-1.22-1.34.75.68,1.22Zm1.57-.88L46,52.59l-1.33.75.68,1.22Z" transform="translate(-2.36 -1.09)"/><path class="cls-2" d="M47.63,50.07a4.49,4.49,0,0,1,.06,2.56l-.27,0a4.05,4.05,0,0,0,0-2.41Zm2.51.06A11,11,0,0,1,51,51.25a2.47,2.47,0,0,1,.37.68.54.54,0,0,1,0,.31,1.38,1.38,0,0,1-.35.38l-.31.26-.22-.16c.16-.11.29-.22.41-.32a1.29,1.29,0,0,0,.21-.21.35.35,0,0,0,0-.14,1,1,0,0,0-.12-.31,5.92,5.92,0,0,0-.35-.55c-.15-.21-.32-.44-.52-.68l-1,.86a2.92,2.92,0,0,1,.17,2.79l-.26,0a2.64,2.64,0,0,0-.13-2.55l-.74.63L48,52Zm.67-.49v.28a3.54,3.54,0,0,1-2.22-.42l-.29.25-.16-.19.43-.38A3.15,3.15,0,0,0,50.81,49.64Z" transform="translate(-2.36 -1.09)"/><path class="cls-2" d="M51.61,48.13a1.76,1.76,0,0,1,1.13.36.5.5,0,0,1,.2.32c0,.12,0,.28-.2.48l-.12.14-.27-.08.19-.22a.57.57,0,0,0,.14-.27.22.22,0,0,0-.09-.17,1.71,1.71,0,0,0-1.12-.32c-.18-.29-.41-.63-.67-1l-.47.58,3,2.4-.16.21L50,48l.8-1,.19.15C51.19,47.45,51.4,47.79,51.61,48.13Zm2-2.6-.17.21-.56-.45L51.56,47l.56.44-.16.21L51.2,47l.74-.93a2.27,2.27,0,0,0-.45-.13l.11-.26a3.93,3.93,0,0,1,.52.17l.76-1Zm-.23.43-1.08,1.35-.19-.14,1.09-1.36Zm1.71.62a2.1,2.1,0,0,1,.4.41.38.38,0,0,1,.09.3,1.11,1.11,0,0,1-.25.43q-.27.33-.51.15L53.7,47l-.36.45a2.16,2.16,0,0,1,.71,1A2.19,2.19,0,0,1,54,49.5l-.28,0a1.88,1.88,0,0,0,.09-1,1.55,1.55,0,0,0-.62-.88l-.47.6-.19-.15L54.19,46l.19.15-.51.64,1.11.88a.07.07,0,0,0,.08,0s.09,0,.17-.15a.66.66,0,0,0,.12-.19.18.18,0,0,0,0-.1.91.91,0,0,0-.15-.19,3,3,0,0,0-.32-.27Z" transform="translate(-2.36 -1.09)"/><path class="cls-6" d="M9,33l0,.46-3.26.25.05.67-.55,0-.13-1.79.54,0,0,.66Z" transform="translate(-2.36 -1.09)"/><path class="cls-6" d="M9,30.22v.47H8.77a.71.71,0,0,1,.3.62.74.74,0,0,1-.41.65,1.76,1.76,0,0,1-1,.23,1.61,1.61,0,0,1-.92-.27.72.72,0,0,1-.37-.64.71.71,0,0,1,.32-.63H6.51v-.47Zm-1.26.4a.93.93,0,0,0-.57.14.46.46,0,0,0,0,.78,1,1,0,0,0,.57.17,1.05,1.05,0,0,0,.59-.15.47.47,0,0,0,.22-.39.44.44,0,0,0-.21-.4A1,1,0,0,0,7.75,30.62Z" transform="translate(-2.36 -1.09)"/><path class="cls-6" d="M5.58,28.85a.44.44,0,0,1,.24.11.22.22,0,0,1,.09.2.26.26,0,0,1-.12.19.48.48,0,0,1-.26.07.44.44,0,0,1-.25-.11.29.29,0,0,1-.09-.21.23.23,0,0,1,.13-.18A.38.38,0,0,1,5.58,28.85Zm3.51.34,0,.48-2.48-.21,0-.48Z" transform="translate(-2.36 -1.09)"/><path class="cls-6" d="M8.4,27.73l-1.59-.81,0-.17,1.77-.24L7.1,25.75l.1-.53,2.34,1.35,0,.24L7.84,27l1.48.79,0,.24-2.66.44.1-.52Z" transform="translate(-2.36 -1.09)"/><path class="cls-6" d="M10.29,23.64l-.14.45L9.94,24a.71.71,0,0,1,.11.68.74.74,0,0,1-.58.51,1.79,1.79,0,0,1-1,0,1.67,1.67,0,0,1-.81-.51.74.74,0,0,1-.18-.73A.72.72,0,0,1,8,23.43l-.23-.06.14-.45ZM9,23.68a.93.93,0,0,0-.59,0,.42.42,0,0,0-.33.31.43.43,0,0,0,.09.43,1,1,0,0,0,.51.32,1,1,0,0,0,.6,0,.44.44,0,0,0,.32-.31A.45.45,0,0,0,9.49,24,1,1,0,0,0,9,23.68Z" transform="translate(-2.36 -1.09)"/><path class="cls-6" d="M8.57,21.84a.66.66,0,0,1-.06-.67q.26-.62,1.23-.21l1.4.58L11,22l-1.22-.51c-.48-.2-.77-.18-.87.05s.1.49.62.71l1.16.48-.18.45-2.3-1,.19-.44Z" transform="translate(-2.36 -1.09)"/><path class="cls-6" d="M11.24,16.81,9.94,16l.27-.42,3.21,2.09-.28.42-1.47-1-.68,1,1.47,1-.27.43L9,17.43,9.26,17l1.3.84Z" transform="translate(-2.36 -1.09)"/><path class="cls-6" d="M11.3,14.61a.34.34,0,0,1,.15.22.28.28,0,0,1,0,.22.26.26,0,0,1-.21.09.4.4,0,0,1-.25-.09.37.37,0,0,1-.15-.22.24.24,0,0,1,0-.22.23.23,0,0,1,.2-.09A.38.38,0,0,1,11.3,14.61Zm2.77,2.19-.29.38-2-1.52.3-.38Z" transform="translate(-2.36 -1.09)"/><path class="cls-6" d="M15.48,14.84c.64.57.75,1.09.33,1.55a.91.91,0,0,1-.68.33,1,1,0,0,1-.75-.28l.34-.38a.59.59,0,0,0,.37.13.39.39,0,0,0,.34-.12c.21-.23.14-.51-.22-.83l-.12-.11a.66.66,0,0,1-.16.68.72.72,0,0,1-.71.24,1.54,1.54,0,0,1-.82-.42,1.66,1.66,0,0,1-.55-.83.77.77,0,0,1,.15-.74.65.65,0,0,1,.64-.23l-.18-.16.32-.36Zm-1.08-.42a1,1,0,0,0-.5-.25.46.46,0,0,0-.42.15.45.45,0,0,0-.09.45,1,1,0,0,0,.32.49c.37.33.68.36.92.09a.46.46,0,0,0,.1-.44A1.07,1.07,0,0,0,14.4,14.42Z" transform="translate(-2.36 -1.09)"/><path class="cls-6" d="M13.44,11.13l1.37,1.49a.66.66,0,0,1,.25-.62.55.55,0,0,1,.56-.1,1.32,1.32,0,0,1,.64.42l1,1.12-.35.32-.89-1c-.36-.38-.63-.49-.81-.32s-.11.5.28.92l.83.91-.35.33-2.91-3.17Z" transform="translate(-2.36 -1.09)"/><path class="cls-6" d="M19.22,8.51a.78.78,0,0,0-.77,0,.82.82,0,0,0-.35.74,1.79,1.79,0,0,0,.3,1,1.71,1.71,0,0,0,.75.66.79.79,0,0,0,.8,0,.8.8,0,0,0,.35-.7l.42.67a1.34,1.34,0,0,1-.45.55,1.24,1.24,0,0,1-1.2.07,2.25,2.25,0,0,1-1.11-1,2.45,2.45,0,0,1-.42-1.44A1.28,1.28,0,0,1,18.11,8a1.34,1.34,0,0,1,.68-.17Z" transform="translate(-2.36 -1.09)"/><path class="cls-6" d="M22.36,8.75a1.63,1.63,0,0,1,.18,1,.89.89,0,0,1-.5.67.87.87,0,0,1-.83,0,1.51,1.51,0,0,1-.69-.72,1.54,1.54,0,0,1-.17-1A.86.86,0,0,1,20.84,8a.9.9,0,0,1,.83,0A1.51,1.51,0,0,1,22.36,8.75ZM21,9.47a1.07,1.07,0,0,0,.39.44.5.5,0,0,0,.46,0,.47.47,0,0,0,.24-.39A1.22,1.22,0,0,0,21.93,9a1.09,1.09,0,0,0-.39-.43.44.44,0,0,0-.45,0,.45.45,0,0,0-.25.38A1,1,0,0,0,21,9.47Z" transform="translate(-2.36 -1.09)"/><path class="cls-6" d="M22.8,7.23l.49,1.26c.17.45.38.63.63.53s.28-.37.11-.82L23.54,7,24,6.77l.53,1.36c.27.69.13,1.14-.41,1.36s-1,0-1.22-.72l-.53-1.36Z" transform="translate(-2.36 -1.09)"/><path class="cls-6" d="M25.17,6.67a.61.61,0,0,1,.45-.49.49.49,0,0,1,.24,0l.1.55a.39.39,0,0,0-.26,0c-.32.1-.39.44-.22,1l.33,1.07L25.35,9l-.72-2.39.46-.13Z" transform="translate(-2.36 -1.09)"/><path class="cls-6" d="M27.4,8.39l-.47.11-.45-1.89-.23.06-.11-.49.22,0-.2-.87.47-.11.2.87.37-.09.12.48L27,6.5Z" transform="translate(-2.36 -1.09)"/><path class="cls-6" d="M30.61,7.89l-.46.05-.31-3.27-.67.07-.05-.55L30.91,4l.05.55-.66.06Z" transform="translate(-2.36 -1.09)"/><path class="cls-6" d="M33.41,7.79h-.47V7.57a.69.69,0,0,1-.62.32.72.72,0,0,1-.66-.39,1.81,1.81,0,0,1-.26-.94,1.65,1.65,0,0,1,.24-.93.74.74,0,0,1,.63-.39.72.72,0,0,1,.63.3V5.31h.47ZM33,6.55A1,1,0,0,0,32.81,6a.44.44,0,0,0-.39-.21A.45.45,0,0,0,32,6a1,1,0,0,0-.14.58,1,1,0,0,0,.16.58.48.48,0,0,0,.4.21.47.47,0,0,0,.39-.22A1.09,1.09,0,0,0,33,6.55Z" transform="translate(-2.36 -1.09)"/><path class="cls-6" d="M34.48,7.88l-.48,0,.17-2.48.47,0Zm.27-3.53a.37.37,0,0,1-.1.25.22.22,0,0,1-.2.09.22.22,0,0,1-.19-.12.38.38,0,0,1-.07-.26.43.43,0,0,1,.1-.24A.23.23,0,0,1,34.5,4a.26.26,0,0,1,.19.11A.4.4,0,0,1,34.75,4.35Z" transform="translate(-2.36 -1.09)"/><path class="cls-6" d="M36.53,6.25A.52.52,0,0,0,36.15,6a.49.49,0,0,0-.45.19,1.12,1.12,0,0,0-.22.58.91.91,0,0,0,.1.6.46.46,0,0,0,.8.09L36.31,8a.82.82,0,0,1-.49.09.86.86,0,0,1-.66-.47,1.56,1.56,0,0,1-.16-1,1.5,1.5,0,0,1,.4-.89.88.88,0,0,1,.77-.3.7.7,0,0,1,.43.21Z" transform="translate(-2.36 -1.09)"/><path class="cls-6" d="M38.14,4l-.43,2a.67.67,0,0,1,.65-.16.57.57,0,0,1,.42.4,1.52,1.52,0,0,1,0,.77l-.32,1.49L38,8.42l.27-1.29c.11-.51,0-.8-.21-.85s-.46.2-.58.76l-.26,1.21-.47-.1.9-4.21Z" transform="translate(-2.36 -1.09)"/><path class="cls-6" d="M40.15,6.41l-.4,1.29q-.22.69.15.81c.26.07.46-.12.6-.58l.41-1.28.46.14-.45,1.4c-.22.7-.61,1-1.17.79s-.72-.62-.5-1.32l.44-1.4Z" transform="translate(-2.36 -1.09)"/><path class="cls-6" d="M42.44,7.46a.64.64,0,0,1,.67,0q.62.25.21,1.23l-.6,1.4-.43-.19.51-1.21c.21-.48.19-.78,0-.88s-.49.1-.71.62l-.5,1.16-.44-.19,1-2.29.44.19Z" transform="translate(-2.36 -1.09)"/><path class="cls-6" d="M44.91,11c-.41.75-.88,1-1.43.67A.91.91,0,0,1,43,11a1,1,0,0,1,.1-.79l.45.25a.53.53,0,0,0,0,.38.4.4,0,0,0,.19.31c.28.15.53,0,.76-.41l.08-.13a.7.7,0,0,1-.7,0,.77.77,0,0,1-.4-.63,1.63,1.63,0,0,1,.23-.9,1.64,1.64,0,0,1,.68-.72.77.77,0,0,1,.76,0,.62.62,0,0,1,.36.56l.12-.21L46,9Zm.16-1.15a.91.91,0,0,0,.13-.55A.46.46,0,0,0,45,8.89a.43.43,0,0,0-.45,0,1,1,0,0,0-.41.43c-.24.43-.2.74.12.91a.45.45,0,0,0,.45,0A1,1,0,0,0,45.07,9.81Z" transform="translate(-2.36 -1.09)"/><path class="cls-6" d="M49.06,9.4l.58.46c.47.38.48.83,0,1.38a.93.93,0,0,1-.66.41.58.58,0,0,1,.09.49,1.38,1.38,0,0,1-.29.58,1.11,1.11,0,0,1-.71.47A.94.94,0,0,1,47.4,13l-.72-.57ZM47.4,12.31l.22.18a.54.54,0,0,0,.85-.13.52.52,0,0,0-.13-.83l-.19-.16Zm1-1.3.18.14c.22.18.44.12.67-.17s.26-.55,0-.72l-.18-.15Z" transform="translate(-2.36 -1.09)"/><path class="cls-6" d="M50.33,12.55a.61.61,0,0,1,.65.15.37.37,0,0,1,.12.2l-.42.36a.3.3,0,0,0-.12-.22c-.24-.23-.57-.13-1,.32l-.77.82-.35-.33L50.15,12l.35.32Z" transform="translate(-2.36 -1.09)"/><path class="cls-6" d="M50.82,16.29l-.31-.35.17-.15a.72.72,0,0,1-.65-.25.76.76,0,0,1-.14-.76,1.84,1.84,0,0,1,.54-.82,1.65,1.65,0,0,1,.85-.43.74.74,0,0,1,.71.22.71.71,0,0,1,.19.68l.17-.16.32.35Zm.65-1.14a1,1,0,0,0,.32-.5.45.45,0,0,0-.1-.44.46.46,0,0,0-.42-.15,1.21,1.21,0,0,0-.86.78.47.47,0,0,0,.52.59A1,1,0,0,0,51.47,15.15Z" transform="translate(-2.36 -1.09)"/><path class="cls-6" d="M53.24,15.72a.69.69,0,0,1,.61.3q.4.54-.45,1.17l-1.22.9-.28-.38L53,16.92c.42-.31.56-.57.41-.77s-.48-.17-.93.17l-1,.75-.29-.39,2-1.48.29.39Z" transform="translate(-2.36 -1.09)"/><path class="cls-6" d="M54.73,18.69a.51.51,0,0,0,0-.47.46.46,0,0,0-.43-.23,1.15,1.15,0,0,0-.59.18,1,1,0,0,0-.41.46.55.55,0,0,0,0,.47.49.49,0,0,0,.41.21l-.5.31a.87.87,0,0,1-.38-.33.84.84,0,0,1,0-.8,1.53,1.53,0,0,1,.65-.74,1.6,1.6,0,0,1,.95-.25.87.87,0,0,1,.71.42.72.72,0,0,1,.11.47Z" transform="translate(-2.36 -1.09)"/><path class="cls-6" d="M57.44,18.52l-1.81.91a.66.66,0,0,1,.53.41.54.54,0,0,1,0,.57,1.38,1.38,0,0,1-.58.5l-1.36.68L54,21.17l1.17-.59c.47-.24.65-.47.53-.7s-.44-.24-1,0l-1.1.56L53.38,20l3.84-1.94Z" transform="translate(-2.36 -1.09)"/><path class="cls-6" d="M58.39,24.81a.74.74,0,0,0,.2-.74.81.81,0,0,0-.61-.54,1.78,1.78,0,0,0-1,0,1.66,1.66,0,0,0-.84.54.82.82,0,0,0-.22.78.81.81,0,0,0,.58.52l-.75.22a1.36,1.36,0,0,1-.42-.58,1.29,1.29,0,0,1,.27-1.18A2.33,2.33,0,0,1,56.79,23a2.43,2.43,0,0,1,1.51,0,1.27,1.27,0,0,1,.87.84,1.23,1.23,0,0,1,0,.71Z" transform="translate(-2.36 -1.09)"/><path class="cls-6" d="M57.3,27.75a1.5,1.5,0,0,1-1-.09.92.92,0,0,1-.5-.66.9.9,0,0,1,.22-.8,1.5,1.5,0,0,1,.89-.46,1.55,1.55,0,0,1,1,.09.87.87,0,0,1,.5.66.89.89,0,0,1-.22.81A1.49,1.49,0,0,1,57.3,27.75ZM57,26.21a1,1,0,0,0-.53.26.49.49,0,0,0-.14.43.45.45,0,0,0,.3.34,1,1,0,0,0,.58,0,1.09,1.09,0,0,0,.53-.25.45.45,0,0,0-.14-.77A1.07,1.07,0,0,0,57,26.21Z" transform="translate(-2.36 -1.09)"/><path class="cls-6" d="M58.64,28.6l-1.34.12c-.48.05-.71.2-.69.46s.28.38.76.33l1.34-.12,0,.47L57.3,30c-.73.07-1.13-.19-1.18-.77s.28-.91,1-1l1.45-.13Z" transform="translate(-2.36 -1.09)"/><path class="cls-6" d="M58.53,31a.62.62,0,0,1,.35.57.46.46,0,0,1-.06.23l-.56-.05a.38.38,0,0,0,.09-.24c0-.34-.32-.5-.93-.49l-1.12,0v-.48l2.49,0V31Z" transform="translate(-2.36 -1.09)"/><path class="cls-6" d="M56.27,32.72l0-.48,1.94.09v-.24l.5,0v.24l.89,0,0,.48-.89,0,0,.38-.5,0,0-.39Z" transform="translate(-2.36 -1.09)"/><path class="cls-5" d="M3,42.11" transform="translate(-2.36 -1.09)"/><path class="cls-7" d="M198.85,15.42l-.26.76a.55.55,0,0,0-.08.47l.1.07,3.46-1.27c5.67-2.16,9.23-2.76,10.64-1.79a2.06,2.06,0,0,1,.7,1,1,1,0,0,1,0,.86.81.81,0,0,1-.76.31,11.38,11.38,0,0,0-2.52.7c-.26.13-.41.13-.44,0s.18-.29.73-.63a7.46,7.46,0,0,0,1.25-1.09c.2-.26.28-.47.2-.62s-.23-.29-.59-.34a13,13,0,0,0-4.27.62c-4.78,1.15-7.85,2.65-9.2,4.53-.34.49-.63.72-.81.75s-.34-.08-.54-.31l-.45-.7v-.11a1.27,1.27,0,0,1,.78-1.48,6.26,6.26,0,0,0,1.72-1.46C198.77,15.32,198.87,15.24,198.85,15.42ZM204.59,8l-2.44.57a2.67,2.67,0,0,1-2-.28c-.28-.19-.39-.32-.39-.47s.29-.16.73-.11,1.77-.18,4.13-.57c0-1.53-.18-2.42-.52-2.62-.15-.13-.26-.26-.23-.39s.18-.13.39-.08a2.23,2.23,0,0,1,1.33.7l.26.29A3,3,0,0,1,205.74,7L207,6.74a4.42,4.42,0,0,1,2.57-.26c.39.23.6.47.57.62s-.18.29-.47.29a20.09,20.09,0,0,0-4.16.47l-.41,1.27c1.4-.41,2.29-.54,2.6-.34l.41.34.13.29c0,.1-.18.15-.46.15a7.81,7.81,0,0,0-3.83.65,4,4,0,0,1-1.69.24c-.23-.05-.36-.13-.36-.21s0-.18.23-.23a17.91,17.91,0,0,1,2.47-.78Zm-2,14.72c-.6.39-.78.41-.57.13a1.48,1.48,0,0,1,.62-.52,6.18,6.18,0,0,1,1.85-1v-.54l-.08-.31c0-.11-.21-.16-.41-.13l-1.69.67c-.34.11-.55,0-.68-.21a1.51,1.51,0,0,1-.21-.85c.05-.24,1.28-1.12,3.64-2.55.26-.18.39-.34.37-.47s-.29-.1-.63,0l-2.55.7c-.28,0-.15-.08.45-.36L205,16.18a2,2,0,0,1,1-.31,1.19,1.19,0,0,1,.88.28c.13.13.11.34-.07.57-.63.37-1.88,1.23-3.7,2.58-.26.23-.39.39-.31.49h.26a26.07,26.07,0,0,0,3.75-1.19c.75-.34,1-.32.59,0a13.7,13.7,0,0,1-2.1,1.17V20l0,.83v.26a2.25,2.25,0,0,1,2.08.41,1.21,1.21,0,0,1,.41.84c0,.31-.15.54-.52.67a4.2,4.2,0,0,0-2,.68,6.25,6.25,0,0,1-.39,2.13c2-.26,3.2-.55,3.46-.86.08-.18,0-.44-.23-.8s.08-.24.6.18l.88.7a1,1,0,0,1,.42.39.52.52,0,0,1-.11.5,1.28,1.28,0,0,1-.6.41l-.91.21a57.14,57.14,0,0,1-6.81.49,1,1,0,0,1-.7-.47,1.14,1.14,0,0,1-.16-.72c.06-.42,1.33-1.33,3.83-2.68V21.82A6.23,6.23,0,0,0,202.59,22.76Zm.11-11.24c.05,0,.05.11,0,.21l-.1.65-.08,1.3c-.11.37-.26.55-.47.55a.51.51,0,0,1-.39-.39l-.1-.34a2.51,2.51,0,0,1,1-1.9Zm1.82,12.56-2.4,1.3c-.23.13-.28.26-.26.34s.21.18.6.24l2.19-.11a3.25,3.25,0,0,1-.13-1.61Zm2.65-12.45.15-.26c-.07-.16-.36-.16-.88,0a7.49,7.49,0,0,1-2.86.67c-.55,0-.31-.18.62-.41a8.74,8.74,0,0,0,2.68-1.25A1.92,1.92,0,0,1,208,10a1.56,1.56,0,0,1,.62.21.78.78,0,0,1,.23.47.63.63,0,0,1-.18.54L207,12.67l.07.28a.26.26,0,0,1-.26.21l-.8.26c-1.43.52-2.39.65-2.84.37-.1-.08-.07-.11.08-.13a17.25,17.25,0,0,0,2.86-1.15Zm-1.9,10v1.14a4.39,4.39,0,0,0,1.25-.86.56.56,0,0,0-.31-.26,1.71,1.71,0,0,0-.91,0ZM209,17.43a1,1,0,0,1,.7.91.38.38,0,0,1-.13.41l-.62.31a3.25,3.25,0,0,0-1,.45l-.45.2a.14.14,0,0,1-.18-.07c0-.08,0-.13.13-.19a2.51,2.51,0,0,0,.78-.83c.31-.73,0-1-1-.78l-.15-.05c0-.08,0-.13.15-.18A2.61,2.61,0,0,1,209,17.43Z" transform="translate(-2.36 -1.09)"/><path class="cls-7" d="M221.82,21.23a10.33,10.33,0,0,0-5.15,4.82.45.45,0,0,1-.39.33.9.9,0,0,1-.6-.15l-.68-.82a1.47,1.47,0,0,1,.16-1.69,10.38,10.38,0,0,0,1-2.18c0-.26.15-.2.35.18a3.67,3.67,0,0,1,.22,1.34c0,.33.09.51.2.59s.31-.08.7-.39a20.26,20.26,0,0,1,4.4-2.84l-.06-1.5c0-1.89-.33-3-1-3.19-.2-.11-.31-.22-.29-.33s.14-.15.38-.13a2.1,2.1,0,0,1,1.38.49,1.92,1.92,0,0,1,.62.74,5.94,5.94,0,0,1,.31,2.95v.31c2.68-1.21,4.57-1.45,5.63-.77a1.51,1.51,0,0,1,.59.59.88.88,0,0,1-.06.66,3.35,3.35,0,0,1-1,1l-.18.13-3.69,2.29,1,.9.29.29a.39.39,0,0,1,0,.33c-.05.15-.14.19-.33.17a7.59,7.59,0,0,0-2.42.57l-.05,1.59a54.62,54.62,0,0,1-.59,7.74c-.09.4-.18.62-.27.64s-.13-.11-.15-.33c-.2-2.86-.26-5.94-.2-9.28a5.54,5.54,0,0,0-2.09.7c-.31.13-.53.18-.68.11a.82.82,0,0,1-.44-.42,1.07,1.07,0,0,1,0-.9c.11-.15.22-.15.33,0a.44.44,0,0,0,.44.22l.95-.19,1.54-.44V21.12Zm1.48,3.88c.79-.22,1.21-.42,1.25-.6a1.79,1.79,0,0,0-.31-.81c-.06-.13-.06-.2,0-.22a.35.35,0,0,1,.27,0l.06.05v0a20.25,20.25,0,0,0,3.08-3.45c.2-.29.27-.51.18-.62s-.33-.15-.75-.08a13.69,13.69,0,0,0-3.67,1.14Z" transform="translate(-2.36 -1.09)"/><path class="cls-1" d="M137.32,51.78c-.83,0-1.17.12-1.44.51a2,2,0,0,0-.3,1.13H135V51.11h8.06v2.31h-.56a2.59,2.59,0,0,0-.28-1c-.26-.46-.58-.62-1.28-.62h-1v6c0,.73.26,1,1.12,1h.06v.55H137V58.7h.07c.85,0,1.12-.23,1.12-1v-6Z" transform="translate(-2.36 -1.09)"/><path class="cls-1" d="M150,58v.07a1.28,1.28,0,0,1-1.41,1.33,1.15,1.15,0,0,1-1.24-.8,3.25,3.25,0,0,1-1.94.8c-1,0-1.55-.44-1.55-1.13s.5-1.31,1.5-1.72a15.65,15.65,0,0,1,1.7-.55l.18,0V55.6c0-.61-.31-.91-.94-.91a.81.81,0,0,0-.94.77.64.64,0,0,1-.71.63.56.56,0,0,1-.64-.58c0-.82,1-1.39,2.49-1.39s2.28.52,2.28,1.48v2.07c0,.66.1.87.39.87s.36-.2.38-.55Zm-2.76-1.44c-1.23.38-1.76.78-1.76,1.36a.59.59,0,0,0,.66.63,1.72,1.72,0,0,0,1.1-.5Z" transform="translate(-2.36 -1.09)"/><path class="cls-1" d="M152.68,57.83c0,.71.14.87.76.87h0v.55h-3.25V58.7h.18c.6,0,.73-.16.73-.87V56c0-.75-.08-.82-.91-.84v-.55l2.45-.52ZM152,50.92a.87.87,0,1,1-.87.87A.86.86,0,0,1,152,50.92Z" transform="translate(-2.36 -1.09)"/><path class="cls-1" d="M159.41,58A2.47,2.47,0,0,1,157,59.45,2.69,2.69,0,0,1,154.18,57a2.87,2.87,0,0,1,3-2.89c1.2,0,2.1.53,2.1,1.23a.65.65,0,0,1-.65.64.64.64,0,0,1-.64-.57l0-.2a.7.7,0,0,0-.78-.57c-.84,0-1.37.75-1.37,2,0,1.37.59,2.16,1.61,2.16a1.57,1.57,0,0,0,1.45-1Z" transform="translate(-2.36 -1.09)"/><path class="cls-1" d="M162.18,55a2.25,2.25,0,0,1,1.77-.89,1.79,1.79,0,0,1,1.57.76,2.12,2.12,0,0,1,.25,1.14v1.81c0,.71.13.87.75.87h.06v.55h-3.09V58.7h.06c.47,0,.68-.18.68-.58v-2c0-.82-.23-1.17-.79-1.17a1.29,1.29,0,0,0-1,.56,2,2,0,0,0-.25,1.14v1.05c0,.86.11,1,.69,1h0v.55h-3.16V58.7h.14c.61,0,.75-.16.75-.87V52.77c0-.64-.12-.75-.89-.76v-.54l2.43-.52Z" transform="translate(-2.36 -1.09)"/><path class="cls-1" d="M171.29,58.58a2.39,2.39,0,0,1-1.84.88,1.64,1.64,0,0,1-1.44-.63,1.92,1.92,0,0,1-.3-1.31V55.75c0-.71-.12-.86-.74-.86h-.12v-.56h2.41v3.31q0,1,.81,1a1.64,1.64,0,0,0,1.22-.93v-2c0-.7-.14-.86-.75-.86h-.15v-.56h2.44V58c0,.58.13.69.88.71v.56a12.85,12.85,0,0,0-2.32.23h-.1Z" transform="translate(-2.36 -1.09)"/><path class="cls-1" d="M176.49,55a2.28,2.28,0,0,1,1.8-.92,1.61,1.61,0,0,1,1.82,1.67v2c0,.71.14.87.76.87h0v.55h-3.1V58.7h.05c.49,0,.68-.18.69-.62V55.92c0-.68-.27-1-.82-1a1.36,1.36,0,0,0-1.22,1.52V58c0,.59.1.69.75.73v.55h-3.17V58.7h.13c.62,0,.74-.16.74-.87v-2c0-.54-.15-.68-.75-.68h-.12v-.55l2.34-.52a4.49,4.49,0,0,1,0,.64V55Z" transform="translate(-2.36 -1.09)"/><path class="cls-1" d="M184.17,60c-1.19,0-1.7-.13-2-.45a1,1,0,0,1-.32-.78c0-.55.35-.93,1.09-1.18a4.13,4.13,0,0,1,.49-.13v0c-1-.19-1.57-.7-1.57-1.52,0-1.07,1-1.79,2.45-1.79a2.75,2.75,0,0,1,1.82.56,1.15,1.15,0,0,1,1-.54c.39,0,.64.19.64.51a.45.45,0,0,1-.41.48.33.33,0,0,1-.22-.09l-.12-.12a.51.51,0,0,0-.32-.14.42.42,0,0,0-.31.12,1.51,1.51,0,0,1,.43,1,1.46,1.46,0,0,1-1,1.46,4.25,4.25,0,0,1-.95.25l-.55.07c-1,.12-1.41.32-1.41.59s.24.31.8.31h.75a5,5,0,0,1,1.73.2,1.58,1.58,0,0,1,1.14,1.52,2,2,0,0,1-1.68,1.8,6,6,0,0,1-1.39.14c-1.74,0-2.68-.46-2.68-1.32a.69.69,0,0,1,.71-.75,1,1,0,0,1,.43.11.78.78,0,0,0-.13.45c0,.59.71,1,1.87,1s2-.39,2-1-.47-.72-1.62-.72Zm.15-2.85c.56,0,.92-.49.92-1.23s-.36-1.28-1-1.28-.95.44-.95,1.23S183.69,57.15,184.32,57.15Z" transform="translate(-2.36 -1.09)"/><path class="cls-1" d="M195.29,51a4.9,4.9,0,0,1,2.56.43,1.83,1.83,0,0,1,1,1.55,1.57,1.57,0,0,1-.91,1.49,3.49,3.49,0,0,1-1,.42v0a3.09,3.09,0,0,1,1.16.38A2.1,2.1,0,0,1,199.19,57c0,1.4-1.2,2.21-3.26,2.21h-4.09V58.7h.07c.84,0,1.11-.23,1.11-1V52.6c0-.74-.27-1-1.11-1h-.07v-.57l2.23,0,.47,0Zm-.21,3.58a2.44,2.44,0,0,0,1.35-.23,1.48,1.48,0,0,0,.68-1.33,1.29,1.29,0,0,0-.62-1.08,2.72,2.72,0,0,0-1.5-.27h-.24v2.91Zm-.33,2.63c0,1.18.14,1.38,1,1.38a1.46,1.46,0,0,0,1.6-1.65,1.79,1.79,0,0,0-.66-1.44c-.36-.23-.45-.24-1.27-.24h-.65Z" transform="translate(-2.36 -1.09)"/><path class="cls-1" d="M201.91,54.12a5.48,5.48,0,0,1,.14,1.28h0a2.74,2.74,0,0,1,.85-1,1.54,1.54,0,0,1,.89-.3,1,1,0,0,1,1.07.94.72.72,0,0,1-.71.76.68.68,0,0,1-.6-.34c-.16-.2-.27-.27-.45-.27-.54,0-1,.69-1,1.56v1.06c0,.73.12.87.82.87h.32v.55h-3.72V58.7h.29c.62,0,.75-.16.75-.87V56.06c0-.74-.12-.87-.87-.87h-.17v-.55Z" transform="translate(-2.36 -1.09)"/><path class="cls-1" d="M211.39,58v.07a1.27,1.27,0,0,1-1.4,1.33,1.15,1.15,0,0,1-1.25-.8,3.22,3.22,0,0,1-1.94.8c-1,0-1.55-.44-1.55-1.13s.5-1.31,1.5-1.72a15.65,15.65,0,0,1,1.7-.55l.18,0V55.6c0-.61-.3-.91-.94-.91a.81.81,0,0,0-.94.77.64.64,0,0,1-.71.63.56.56,0,0,1-.64-.58c0-.82,1-1.39,2.5-1.39s2.27.52,2.27,1.48v2.07c0,.66.1.87.39.87s.36-.2.39-.55Zm-2.76-1.44c-1.23.38-1.76.78-1.76,1.36a.59.59,0,0,0,.66.63,1.72,1.72,0,0,0,1.1-.5Z" transform="translate(-2.36 -1.09)"/><path class="cls-1" d="M213.92,55a2.28,2.28,0,0,1,1.8-.92,1.61,1.61,0,0,1,1.82,1.67v2c0,.71.13.87.76.87h0v.55h-3.1V58.7h.05c.49,0,.68-.18.69-.62V55.92c0-.68-.27-1-.82-1A1.36,1.36,0,0,0,214,56.44V58c0,.59.1.69.75.73v.55h-3.17V58.7h.13c.62,0,.74-.16.74-.87v-2c0-.54-.15-.68-.75-.68h-.12v-.55l2.33-.52a3.39,3.39,0,0,1,0,.64V55Z" transform="translate(-2.36 -1.09)"/><path class="cls-1" d="M224.22,58a2.47,2.47,0,0,1-2.39,1.41A2.69,2.69,0,0,1,219,57a2.87,2.87,0,0,1,3-2.89c1.2,0,2.1.53,2.1,1.23a.66.66,0,0,1-.65.64.64.64,0,0,1-.64-.57l0-.2a.7.7,0,0,0-.79-.57c-.83,0-1.36.75-1.36,2,0,1.37.59,2.16,1.61,2.16a1.57,1.57,0,0,0,1.45-1Z" transform="translate(-2.36 -1.09)"/><path class="cls-1" d="M227,55a2.25,2.25,0,0,1,1.77-.89,1.79,1.79,0,0,1,1.57.76,2.12,2.12,0,0,1,.25,1.14v1.81c0,.71.13.87.75.87h.06v.55H228.3V58.7h.06c.47,0,.68-.18.68-.58v-2c0-.82-.24-1.17-.79-1.17a1.29,1.29,0,0,0-1,.56,2,2,0,0,0-.25,1.14v1.05c0,.86.11,1,.68,1h.05v.55h-3.16V58.7h.14c.61,0,.75-.16.75-.87V52.77c0-.64-.13-.75-.89-.76v-.54L227,51Z" transform="translate(-2.36 -1.09)"/><path class="cls-1" d="M243.77,59.17h-.56a2.28,2.28,0,0,0-.41-.92,3.28,3.28,0,0,1-2.61,1.15,4.09,4.09,0,0,1-4.12-4.18A4.15,4.15,0,0,1,240.34,51a3.36,3.36,0,0,1,2.46,1,3.05,3.05,0,0,0,.26-.75h.54l.1,3h-.58a3,3,0,0,0-2.78-2.61,2.31,2.31,0,0,0-2.15,2,7.56,7.56,0,0,0-.17,1.68c0,2.15,1,3.44,2.54,3.44a3.15,3.15,0,0,0,2.65-2.58h.56Z" transform="translate(-2.36 -1.09)"/><path class="cls-1" d="M247.92,54.12a2.68,2.68,0,1,1,0,5.33,2.68,2.68,0,1,1,0-5.33Zm-1.09,4.13a1.11,1.11,0,0,0,1.08.65c.94,0,1.31-.61,1.31-2.16s-.37-2.05-1.34-2.05-1.26.57-1.26,2.08A3.52,3.52,0,0,0,246.83,58.25Z" transform="translate(-2.36 -1.09)"/><path class="cls-1" d="M255.89,58.58a2.39,2.39,0,0,1-1.85.88,1.63,1.63,0,0,1-1.43-.63,1.92,1.92,0,0,1-.3-1.31V55.75c0-.71-.12-.86-.74-.86h-.12v-.56h2.41v3.31q0,1,.81,1a1.64,1.64,0,0,0,1.22-.93v-2c0-.7-.14-.86-.75-.86H255v-.56h2.44V58c0,.58.13.69.88.71v.56a12.85,12.85,0,0,0-2.32.23h-.1Z" transform="translate(-2.36 -1.09)"/><path class="cls-1" d="M260.87,54.12A4.9,4.9,0,0,1,261,55.4h0a2.83,2.83,0,0,1,.85-1,1.54,1.54,0,0,1,.9-.3,1,1,0,0,1,1.07.94.72.72,0,0,1-.71.76.7.7,0,0,1-.61-.34c-.16-.2-.27-.27-.44-.27-.54,0-1,.69-1,1.56v1.06c0,.73.12.87.82.87h.32v.55h-3.73V58.7h.3c.61,0,.75-.16.75-.87V56.06c0-.74-.12-.87-.87-.87h-.18v-.55Z" transform="translate(-2.36 -1.09)"/><path class="cls-1" d="M266.29,57.75c0,.8.08,1,.44,1s.55-.26.81-.79l.51.23a1.81,1.81,0,0,1-1.74,1.27,1.45,1.45,0,0,1-1.34-.62,1.69,1.69,0,0,1-.22-1.11V54.89h-.91v-.56h.06a1.85,1.85,0,0,0,1.92-1.58h.47v1.58H268v.56h-1.7Z" transform="translate(-2.36 -1.09)"/></svg>