<?xml version="1.0" encoding="utf-8"?>
<!-- Generator: Adobe Illustrator 24.0.2, SVG Export Plug-In . SVG Version: 6.00 Build 0)  -->
<svg version="1.1" id="圖層_1" xmlns="http://www.w3.org/2000/svg" xmlns:xlink="http://www.w3.org/1999/xlink" x="0px" y="0px"
	 viewBox="0 0 30 30" style="enable-background:new 0 0 30 30;" xml:space="preserve">
<style type="text/css">
	.st0{fill:#FFFFFF;}
</style>
<g>
	<path class="st0" d="M27.2,26.9H2.8c-1.6,0-2.8-1.3-2.8-2.8V23c0-0.5,0.4-0.8,0.8-0.8h28.3c0.5,0,0.8,0.4,0.8,0.8v1.1
		C30,25.7,28.7,26.9,27.2,26.9z M0.9,23.1v1.1c0,1.1,0.9,1.9,1.9,1.9h24.4c1.1,0,1.9-0.9,1.9-1.9v-1.1H0.9z"/>
	<path class="st0" d="M28.1,23.1H1.9c-0.3,0-0.5-0.2-0.5-0.5V6.9c0-0.9,0.7-1.6,1.6-1.6h9.8c0.2,0,0.5,0.2,0.5,0.5
		c0,0.3-0.2,0.5-0.5,0.5H3.1c-0.4,0-0.7,0.3-0.7,0.7v15.3h25.2V6.9c0-0.4-0.3-0.7-0.7-0.7H24c-0.2,0-0.5-0.2-0.5-0.5
		c0-0.2,0.2-0.5,0.5-0.5h2.9c0.9,0,1.6,0.7,1.6,1.6v15.8C28.5,22.9,28.3,23.1,28.1,23.1z"/>
	<path class="st0" d="M25.7,20.7H4.3c-0.2,0-0.5-0.2-0.5-0.5V8c0-0.2,0.2-0.5,0.5-0.5h8.6c0.2,0,0.5,0.2,0.5,0.5
		c0,0.2-0.2,0.5-0.5,0.5H4.7v11.3h20.6V8.5H24c-0.2,0-0.5-0.2-0.5-0.5c0-0.2,0.2-0.5,0.5-0.5h1.7c0.3,0,0.5,0.2,0.5,0.5v12.2
		C26.2,20.5,26,20.7,25.7,20.7z"/>
	<path class="st0" d="M15.6,18.3H9.3c-0.3,0-0.5-0.2-0.5-0.5v-2.3c0-0.9,0.8-1.7,1.7-1.7h3.8c0.9,0,1.7,0.8,1.7,1.7v2.3
		C16.1,18.1,15.9,18.3,15.6,18.3z M9.8,17.4h5.4v-1.9c0-0.4-0.3-0.8-0.8-0.8h-3.8c-0.4,0-0.8,0.3-0.8,0.8V17.4z"/>
	<path class="st0" d="M12.4,13.2c-1,0-1.9-0.9-1.9-1.9c0-1,0.9-1.9,1.9-1.9c1,0,1.9,0.9,1.9,1.9C14.3,12.4,13.4,13.2,12.4,13.2z
		 M12.4,10.3c-0.5,0-1,0.4-1,1c0,0.5,0.4,1,1,1c0.5,0,1-0.4,1-1C13.4,10.8,12.9,10.3,12.4,10.3z"/>
	<path class="st0" d="M17.1,10.6c-0.1,0-0.1,0-0.2-0.1c-0.2-0.1-0.2-0.2-0.2-0.4l0.1-1.3h-1.4c-0.7,0-1.2-0.6-1.2-1.2V4.3
		c0-0.7,0.6-1.2,1.2-1.2h6c0.7,0,1.2,0.6,1.2,1.2v3.3c0,0.7-0.6,1.2-1.2,1.2h-1.7l-2.3,1.7C17.3,10.6,17.2,10.6,17.1,10.6z M15.3,4
		C15.1,4,15,4.2,15,4.3v3.3c0,0.2,0.1,0.3,0.3,0.3h1.8c0.1,0,0.2,0.1,0.3,0.1c0.1,0.1,0.1,0.2,0.1,0.3l0,0.8L19.3,8
		c0.1-0.1,0.2-0.1,0.3-0.1h1.8c0.2,0,0.3-0.1,0.3-0.3V4.3c0-0.2-0.1-0.3-0.3-0.3H15.3z"/>
	<path class="st0" d="M11,18.3c-0.3,0-0.5-0.2-0.5-0.5v-1c0-0.3,0.2-0.5,0.5-0.5c0.2,0,0.5,0.2,0.5,0.5v1
		C11.5,18.1,11.3,18.3,11,18.3z"/>
	<path class="st0" d="M13.9,18.3c-0.2,0-0.5-0.2-0.5-0.5v-1c0-0.3,0.2-0.5,0.5-0.5c0.3,0,0.5,0.2,0.5,0.5v1
		C14.3,18.1,14.1,18.3,13.9,18.3z"/>
	<path class="st0" d="M23.4,25H6.6c-0.2,0-0.5-0.2-0.5-0.5c0-0.2,0.2-0.5,0.5-0.5h16.8c0.2,0,0.5,0.2,0.5,0.5
		C23.9,24.8,23.7,25,23.4,25z"/>
	<path class="st0" d="M22.1,18.3H7.3c-0.2,0-0.5-0.2-0.5-0.5c0-0.3,0.2-0.5,0.5-0.5h14.9c0.3,0,0.5,0.2,0.5,0.5
		C22.6,18.1,22.4,18.3,22.1,18.3z"/>
</g>
</svg>
