<?xml version="1.0" encoding="utf-8"?>
<!-- Generator: Adobe Illustrator 24.0.2, SVG Export Plug-In . SVG Version: 6.00 Build 0)  -->
<svg version="1.1" id="圖層_1" xmlns="http://www.w3.org/2000/svg" xmlns:xlink="http://www.w3.org/1999/xlink" x="0px" y="0px"
	 viewBox="0 0 30 30" style="enable-background:new 0 0 30 30;" xml:space="preserve">
<style type="text/css">
	.st0{fill:#FFFFFF;}
</style>
<g>
	<g>
		<path class="st0" d="M4.9,20.6c-2.5,0-4.5-1.9-4.7-4.4c-0.1-1.2,0.3-2.5,1.2-3.4c0.8-0.9,2-1.5,3.2-1.6c0.9-0.1,1.9,0.2,2.7,0.6
			c0.2,0.1,0.3,0.4,0.2,0.6c-0.1,0.2-0.4,0.3-0.6,0.2c-0.7-0.4-1.4-0.6-2.2-0.5c-1,0.1-1.9,0.5-2.6,1.3c-0.7,0.8-1,1.7-0.9,2.7
			c0.1,2,1.8,3.6,3.8,3.6c0.1,0,0.2,0,0.2,0c2.1-0.1,3.7-1.9,3.5-4c0-0.1,0-0.2,0-0.3c0-0.2,0.1-0.5,0.4-0.5c0.2,0,0.5,0.1,0.5,0.4
			c0,0.1,0,0.2,0,0.3c0.2,2.6-1.8,4.8-4.4,5C5.1,20.6,5,20.6,4.9,20.6z"/>
		<path class="st0" d="M10.2,25.9c-0.2,0-0.4-0.1-0.4-0.4L8.8,21c0-0.1,0-0.2,0.1-0.3c0.1-0.1,0.2-0.2,0.3-0.2l2.2-0.3c0,0,0,0,0,0
			c0.3,0,0.6-0.3,0.7-0.6c0.1-0.2,0.3-0.4,0.6-0.3c0.2,0.1,0.4,0.3,0.3,0.6c-0.2,0.6-0.8,1.1-1.4,1.2l-1.7,0.2l0.8,4.1
			C10.6,25.6,10.5,25.9,10.2,25.9C10.2,25.9,10.2,25.9,10.2,25.9z"/>
		<path class="st0" d="M8.3,19.1c-0.2,0-0.4-0.2-0.4-0.4c0-0.2,0.1-0.5,0.4-0.5l2.2-0.2l0.7-2.2c0.1-0.2,0.3-0.4,0.6-0.3
			c0.2,0.1,0.4,0.3,0.3,0.6l-0.8,2.5c-0.1,0.2-0.2,0.3-0.4,0.3L8.3,19.1C8.3,19.1,8.3,19.1,8.3,19.1z"/>
		<path class="st0" d="M4.6,28.3c-0.3,0-0.5-0.1-0.8-0.2L1,26.4c-0.6-0.3-0.9-1-0.8-1.7l0.2-2.2c0.1-1,0.6-2,1.4-2.7l0.7-0.6
			c0.2-0.2,0.5-0.2,0.6,0c0.2,0.2,0.2,0.5,0,0.6l-0.7,0.6c-0.6,0.6-1,1.3-1.1,2.1l-0.2,2.2c0,0.3,0.1,0.6,0.4,0.8l2.9,1.7
			c0.2,0.1,0.6,0.1,0.7-0.1c0.1-0.1,0.1-0.3,0.1-0.4c0-0.2-0.1-0.3-0.3-0.4L2.7,25c-0.1-0.1-0.2-0.3-0.2-0.4l0.2-2.1
			c0-0.2,0.3-0.4,0.5-0.4c0.2,0,0.4,0.3,0.4,0.5l-0.2,1.8l2,1.2c0.3,0.2,0.6,0.6,0.7,1c0.1,0.4,0,0.8-0.3,1.1
			C5.5,28.1,5.1,28.3,4.6,28.3z"/>
		<path class="st0" d="M7.6,14.6c-0.3,0-0.7-0.1-1.1-0.2c-0.2-0.1-0.4-0.3-0.3-0.5c0.1-0.2,0.3-0.4,0.5-0.3c0.8,0.2,1.4,0.2,1.7-0.1
			c0.3-0.3,0.4-0.7,0.4-1.1c-0.6,0.3-1.2,0.4-1.7,0.3c-0.6-0.1-0.9-0.3-0.9-0.3l0.6-0.7c0,0,0,0,0,0c0,0,0.7,0.5,2.2-0.4
			c0.1-0.1,0.3-0.1,0.4,0c0.1,0.1,0.2,0.2,0.3,0.3c0,0,0.1,0.4,0.1,0.9c0,0.7-0.3,1.3-0.6,1.6C8.7,14.4,8.2,14.6,7.6,14.6z"/>
	</g>
	<g>
		<path class="st0" d="M16.1,26.3C16.1,26.3,16.1,26.3,16.1,26.3c-0.3-0.1-0.5-0.3-0.4-0.5l0.8-4.1l-1.7-0.2
			c-0.7-0.1-1.2-0.5-1.4-1.2l-1-3.2c-0.2-0.7,0.1-1.5,0.8-1.8c0.4-0.2,0.8-0.2,1.2,0c0.4,0.2,0.7,0.5,0.8,0.9l0.7,2.2l2.2,0.3
			c0.2,0,0.4,0.3,0.4,0.5c0,0.2-0.3,0.4-0.5,0.4l-2.5-0.3c-0.2,0-0.3-0.1-0.4-0.3l-0.8-2.5c-0.1-0.2-0.2-0.3-0.3-0.3
			c-0.1-0.1-0.3-0.1-0.4,0c-0.3,0.1-0.4,0.4-0.3,0.7l1,3.2c0.1,0.3,0.4,0.5,0.7,0.6c0,0,0,0,0,0l2.2,0.3c0.1,0,0.2,0.1,0.3,0.2
			c0.1,0.1,0.1,0.2,0.1,0.3l-0.9,4.6C16.5,26.1,16.3,26.3,16.1,26.3z"/>
		<path class="st0" d="M25.4,24.8c-0.4,0-0.8-0.1-1.1-0.4L22.5,23c-0.2-0.2-0.2-0.4-0.1-0.6c0.1-0.2,0.4-0.2,0.6-0.1l1.9,1.4
			c0,0,0,0,0,0c0.2,0.2,0.6,0.2,0.9,0.1l3-1.5c0.3-0.1,0.4-0.4,0.3-0.7c-0.1-0.1-0.2-0.3-0.3-0.3c-0.1-0.1-0.3-0.1-0.4,0L26,22.5
			c-0.2,0.1-0.3,0.1-0.5-0.1l-2.5-2c-0.2-0.2-0.2-0.4-0.1-0.6c0.2-0.2,0.4-0.2,0.6-0.1l2.2,1.8l2.1-1c0.4-0.2,0.8-0.2,1.2-0.1
			c0.4,0.1,0.7,0.5,0.8,0.8c0.3,0.7,0,1.5-0.7,1.8l-3,1.5C26,24.7,25.7,24.8,25.4,24.8z"/>
		<path class="st0" d="M21.4,21c-0.1,0-0.2,0-0.3,0c-1.2-0.1-2.4-0.6-3.2-1.6c-0.8-0.9-1.2-2.2-1.1-3.4c0-0.1,0-0.2,0-0.3
			c0-0.2,0.3-0.4,0.5-0.4c0.2,0,0.4,0.3,0.4,0.5c0,0.1,0,0.2,0,0.3c-0.1,1,0.3,2,0.9,2.7c0.7,0.8,1.6,1.2,2.6,1.3
			c2.1,0.1,3.9-1.4,4-3.5c0.1-2.1-1.4-3.9-3.5-4c-0.7,0-1,0.1-1.4,0.2c-0.1,0-0.2,0.1-0.2,0.1c-0.1,0-0.1,0.1-0.2,0.1
			c-0.6,0.3-1.1,0.4-2.3-0.2c0,0.4,0.1,0.8,0.4,1.1c0.3,0.3,0.9,0.4,1.7,0.2c0.2-0.1,0.5,0.1,0.5,0.3c0.1,0.2-0.1,0.5-0.3,0.5
			c-1.1,0.3-2,0.2-2.6-0.4c-0.9-0.9-0.6-2.5-0.6-2.6c0-0.1,0.1-0.3,0.3-0.3c0.1-0.1,0.3,0,0.4,0c1.4,0.8,1.7,0.7,2.1,0.5
			c0.1,0,0.2-0.1,0.3-0.1c0.1,0,0.2-0.1,0.2-0.1c0.5-0.2,1-0.4,1.8-0.3c2.6,0.2,4.5,2.4,4.4,5C25.9,19.1,23.9,21,21.4,21z"/>
		<path class="st0" d="M22.7,27.6C22.7,27.6,22.7,27.6,22.7,27.6c-0.3-0.1-0.5-0.3-0.4-0.5l0.8-4c0-0.2,0.3-0.4,0.5-0.3
			c0.2,0,0.4,0.3,0.3,0.5l-0.8,4C23.1,27.5,23,27.6,22.7,27.6z"/>
	</g>
	<path class="st0" d="M20.4,16.3c-0.5,0-1-0.1-1.3-0.3c-0.2-0.1-0.3-0.4-0.2-0.6c0.1-0.2,0.4-0.3,0.6-0.2c0.1,0,1.4,0.7,2.3-0.5
		c0.2-0.2,0.4-0.2,0.6-0.1c0.2,0.2,0.2,0.4,0.1,0.6C21.9,16,21.1,16.3,20.4,16.3z"/>
	<path class="st0" d="M22.1,17c-0.9,0-1.6-0.4-2-0.8c-0.2-0.2-0.2-0.5,0-0.6c0.2-0.2,0.5-0.2,0.6,0c0,0,1.1,1.1,2.4,0.2
		c0.2-0.1,0.5-0.1,0.6,0.1c0.1,0.2,0.1,0.5-0.1,0.6C23.1,16.9,22.6,17,22.1,17z"/>
	<path class="st0" d="M3.6,17.5c-0.2,0-0.3-0.1-0.4-0.3c-0.1-0.2-0.1-0.5,0-0.7c0.1-0.2,0.3-0.4,0.5-0.5c0.2-0.1,0.5-0.1,0.7,0
		c0.2,0.1,0.4,0.3,0.5,0.5c0.1,0.2,0,0.5-0.3,0.6c-0.2,0.1-0.4,0-0.5-0.1c0,0.2-0.1,0.4-0.3,0.5C3.7,17.5,3.6,17.5,3.6,17.5z"/>
	<path class="st0" d="M6.4,16.4c-0.2,0-0.3-0.1-0.4-0.3c-0.2-0.5,0-1,0.5-1.1c0.2-0.1,0.5-0.1,0.7,0c0.2,0.1,0.4,0.3,0.5,0.5
		c0.1,0.2,0,0.5-0.3,0.6c-0.2,0.1-0.4,0-0.5-0.1c0,0.2-0.1,0.4-0.3,0.5C6.5,16.4,6.4,16.4,6.4,16.4z"/>
	<path class="st0" d="M19.4,17.9c-0.1,0-0.1,0-0.2,0c-0.2-0.1-0.3-0.2-0.3-0.4c-0.1,0.1-0.3,0.2-0.5,0.1c-0.2-0.1-0.3-0.3-0.3-0.6
		c0.1-0.2,0.2-0.4,0.5-0.5c0.2-0.1,0.4-0.1,0.7,0c0.4,0.2,0.7,0.7,0.5,1.1C19.8,17.7,19.6,17.9,19.4,17.9z"/>
	<path class="st0" d="M22.1,18.9c-0.1,0-0.1,0-0.2,0c-0.2-0.1-0.3-0.2-0.3-0.4c-0.1,0.1-0.3,0.2-0.5,0.1c-0.2-0.1-0.3-0.3-0.3-0.6
		c0.2-0.4,0.7-0.7,1.1-0.5c0.2,0.1,0.4,0.2,0.5,0.5c0.1,0.2,0.1,0.4,0,0.7C22.4,18.8,22.3,18.9,22.1,18.9z"/>
	<g>
		<path class="st0" d="M14.7,6.4c-0.2,0-0.4-0.2-0.4-0.4l0-4.7c0-0.2,0.2-0.4,0.4-0.4c0,0,0,0,0,0c0.2,0,0.4,0.2,0.4,0.4l0,4.7
			C15.2,6.2,15,6.4,14.7,6.4C14.7,6.4,14.7,6.4,14.7,6.4z"/>
		<path class="st0" d="M20.6,7.5c-0.1,0-0.2,0-0.2-0.1c-0.2-0.1-0.3-0.4-0.2-0.6L22.5,3c0.1-0.2,0.4-0.3,0.6-0.2
			c0.2,0.1,0.3,0.4,0.2,0.6L21,7.3C20.9,7.5,20.7,7.5,20.6,7.5z"/>
		<path class="st0" d="M25.8,9.7c-0.1,0-0.2-0.1-0.3-0.1c-0.2-0.2-0.2-0.5,0-0.6l2.4-2.2c0.2-0.2,0.5-0.2,0.6,0
			c0.2,0.2,0.2,0.5,0,0.6l-2.4,2.2C26,9.6,25.9,9.7,25.8,9.7z"/>
		<path class="st0" d="M9.3,7.5C9.2,7.5,9,7.5,8.9,7.3L6.6,3.4C6.5,3.2,6.6,2.9,6.8,2.8C7,2.7,7.3,2.8,7.4,3l2.3,3.9
			c0.1,0.2,0.1,0.5-0.2,0.6C9.5,7.5,9.4,7.5,9.3,7.5z"/>
		<path class="st0" d="M4.1,9.7c-0.1,0-0.2,0-0.3-0.1L1.4,7.4c-0.2-0.2-0.2-0.4,0-0.6c0.2-0.2,0.4-0.2,0.6,0l2.4,2.2
			c0.2,0.2,0.2,0.4,0,0.6C4.4,9.6,4.3,9.7,4.1,9.7z"/>
	</g>
	<path class="st0" d="M5.8,18.9c-0.4,0-0.8-0.2-1.1-0.5c-0.2-0.2-0.1-0.5,0-0.6c0.2-0.2,0.5-0.1,0.6,0C5.5,18,5.7,18.1,6,18
		c0.2-0.1,0.4-0.3,0.4-0.6c0-0.2,0.2-0.5,0.4-0.5c0.2,0,0.5,0.2,0.5,0.4c0,0.6-0.4,1.2-1,1.4C6.1,18.9,5.9,18.9,5.8,18.9z"/>
</g>
</svg>
