<?xml version="1.0" encoding="utf-8"?>
<!-- Generator: Adobe Illustrator 24.0.2, SVG Export Plug-In . SVG Version: 6.00 Build 0)  -->
<svg version="1.1" id="圖層_1" xmlns="http://www.w3.org/2000/svg" xmlns:xlink="http://www.w3.org/1999/xlink" x="0px" y="0px"
	 viewBox="0 0 30 30" style="enable-background:new 0 0 30 30;" xml:space="preserve">
<style type="text/css">
	.st0{fill:#FFFFFF;}
</style>
<g>
	<path class="st0" d="M11.6,13.5c1.1,0,2-0.9,2-2.1c0-0.1-0.1-0.2-0.2-0.3l-1.2-2.9h3.6v4.8c-0.5,0.2-0.9,0.6-0.9,1.2v1.4h-2.6v0.8
		c1.6,0,4.9,0,7.7,0v-0.8h-2.6v-1.4c0-0.6-0.4-1-0.9-1.2V8.3h3.6l-1.2,2.9c-0.1,0.1-0.2,0.2-0.2,0.3c0,0,0,0.1,0,0.1
		c0,1.1,0.9,2,2,2c1.1,0,2-0.9,2-2.1c0-0.1-0.1-0.2-0.2-0.3l-1.5-3.5c-0.1-0.2-0.2-0.3-0.4-0.3h0c0,0,0,0,0,0v0h-4.3V6.9
		c0.6-0.2,1-0.7,1-1.4c0-0.8-0.6-1.4-1.4-1.4c-0.8,0-1.4,0.6-1.4,1.4c0,0.6,0.4,1.2,1,1.4v0.5h-4.3h0h0v0c-0.2,0-0.3,0.1-0.4,0.3
		l-1.5,3.5c-0.1,0.1-0.2,0.2-0.2,0.3c0,0,0,0.1,0,0.1C9.6,12.6,10.5,13.5,11.6,13.5z M16.7,15.6h-0.9v-1.4c0-0.2,0.2-0.4,0.4-0.4
		c0.2,0,0.4,0.2,0.4,0.4V15.6z M21,12.7c-0.5,0-1-0.3-1.1-0.8h2.2C22,12.4,21.5,12.7,21,12.7z M21.9,11.1h-1.8L21,8.9L21.9,11.1z
		 M15.7,5.5c0-0.3,0.3-0.6,0.6-0.6c0.3,0,0.6,0.3,0.6,0.6s-0.3,0.6-0.6,0.6C16,6.1,15.7,5.8,15.7,5.5z M11.6,12.7
		c-0.5,0-1-0.3-1.1-0.8h2.2C12.6,12.4,12.1,12.7,11.6,12.7z M11.6,8.9l0.9,2.2h-1.8L11.6,8.9z"/>
	<path class="st0" d="M9.1,29.4c0.1,0.1,0.3,0.1,0.4,0l1.5-1.1l1.5,1.1c0.1,0.1,0.2,0.1,0.2,0.1c0.1,0,0.1,0,0.2,0
		c0.1-0.1,0.2-0.2,0.2-0.4V27h11.4c0.2,0,0.3-0.1,0.4-0.2c0.1-0.1,0.1-0.3,0-0.4c-0.9-1.5-1.2-2.9,0-4.3C25,22,25,21.9,25,21.8h0
		V0.6c0-0.2-0.2-0.4-0.4-0.4H6.8c-1.3,0-2.3,1-2.3,2.3v21.7h0c0,0,0,0,0,0c0,1.5,1.3,2.8,2.8,2.8h1.6v2.1
		C8.9,29.2,8.9,29.4,9.1,29.4z M8.9,24.5H7.3c-0.2,0-0.3-0.1-0.3-0.3c0-0.2,0.1-0.3,0.3-0.3h1.6V24.5z M12.3,28.3l-1.1-0.8
		c-0.1-0.1-0.2-0.1-0.2-0.1c-0.1,0-0.2,0-0.2,0.1l-1.1,0.8v-4.4h2.6V28.3z M23.3,23.9c0,0,0,0.5,0,0.6H13.2v-0.6H23.3z M13.2,26.1
		v-0.8h10.4c0.1,0.3,0.2,0.6,0.3,0.8H13.2z M24.2,21.4H8.5V1h15.7V21.4z M6.8,1h0.9v20.3H7.3c-0.8,0-1.5,0.3-2,0.8V2.5
		C5.3,1.7,6,1,6.8,1z M7.3,26.1c-1.1,0-2-0.9-2-2c0-1.1,0.9-2,2-2h16.5c-0.2,0.3-0.3,0.6-0.3,0.8c-12.1,0-3.6,0-16.2,0
		c-0.6,0-1.1,0.5-1.1,1.1s0.5,1.1,1.1,1.1h1.6v0.8H7.3z"/>
</g>
</svg>
