<?xml version="1.0" encoding="utf-8"?>
<!-- Generator: Adobe Illustrator 24.0.2, SVG Export Plug-In . SVG Version: 6.00 Build 0)  -->
<svg version="1.1" id="圖層_1" xmlns="http://www.w3.org/2000/svg" xmlns:xlink="http://www.w3.org/1999/xlink" x="0px" y="0px"
	 viewBox="0 0 30 30" style="enable-background:new 0 0 30 30;" xml:space="preserve">
<style type="text/css">
	.st0{fill:#FFFFFF;}
</style>
<g>
	<path class="st0" d="M5.3,28.4H4.3c-0.7,0-1.4-0.7-1.4-1.4v-3.6c0-1.6,1.3-2.8,2.8-2.8c0.3,0,0.5,0.2,0.5,0.5
		c0,0.3-0.2,0.5-0.5,0.5c-1,0-1.9,0.8-1.9,1.9V27c0,0.3,0.2,0.5,0.5,0.5h0.5v-2.7c0-0.3,0.2-0.5,0.5-0.5c0.3,0,0.5,0.2,0.5,0.5V28
		C5.7,28.1,5.5,28.4,5.3,28.4z"/>
	<path class="st0" d="M7.8,20.1c-1.4,0-2.5-1.1-2.5-2.5c0-1.4,1.1-2.5,2.5-2.5c1.4,0,2.5,1.1,2.5,2.5C10.2,19,9.1,20.1,7.8,20.1z
		 M7.8,16.2c-0.8,0-1.5,0.7-1.5,1.5c0,0.8,0.7,1.5,1.5,1.5s1.5-0.7,1.5-1.5C9.3,16.9,8.6,16.2,7.8,16.2z"/>
	<path class="st0" d="M7.8,22.6c-0.1,0-0.2,0-0.2-0.1l-2-1c-0.3-0.1-0.4-0.4-0.3-0.7c0.1-0.3,0.4-0.3,0.7-0.2l1.8,0.9l1.8-0.9
		c0.3-0.1,0.6,0,0.7,0.2c0.1,0.3,0,0.6-0.2,0.7l-2,1C7.9,22.6,7.9,22.6,7.8,22.6z"/>
	<path class="st0" d="M12.5,28.4h-0.9c-0.7,0-1.4-0.7-1.4-1.4v-3.6c0-1.6,1.3-2.8,2.8-2.8c0.3,0,0.5,0.2,0.5,0.5
		c0,0.3-0.2,0.5-0.5,0.5c-1,0-1.9,0.8-1.9,1.9V27c0,0.3,0.2,0.5,0.5,0.5h0.5v-2.7c0-0.3,0.2-0.5,0.5-0.5c0.3,0,0.5,0.2,0.5,0.5V28
		C13,28.1,12.7,28.4,12.5,28.4z"/>
	<path class="st0" d="M18.4,28.4h-0.9c-0.3,0-0.5-0.2-0.5-0.5v-3.2c0-0.3,0.2-0.5,0.5-0.5c0.3,0,0.5,0.2,0.5,0.5v2.7h0.5
		c0.3,0,0.5-0.2,0.5-0.5v-3.6c0-1-0.8-1.9-1.9-1.9c-0.3,0-0.5-0.2-0.5-0.5c0-0.3,0.2-0.5,0.5-0.5c1.6,0,2.8,1.3,2.8,2.8V27
		C19.8,27.8,19.2,28.4,18.4,28.4z"/>
	<path class="st0" d="M15,20.1c-1.4,0-2.5-1.1-2.5-2.5c0-1.4,1.1-2.5,2.5-2.5s2.5,1.1,2.5,2.5C17.5,19,16.4,20.1,15,20.1z M15,16.2
		c-0.8,0-1.5,0.7-1.5,1.5c0,0.8,0.7,1.5,1.5,1.5s1.5-0.7,1.5-1.5C16.5,16.9,15.9,16.2,15,16.2z"/>
	<path class="st0" d="M15,22.6c-0.1,0-0.2,0-0.2-0.1l-2.1-1c-0.3-0.1-0.3-0.4-0.2-0.7s0.4-0.3,0.7-0.2l1.8,0.9l1.8-0.9
		c0.3-0.1,0.6,0,0.7,0.2c0.1,0.3,0,0.6-0.2,0.7l-2,1C15.1,22.6,15,22.6,15,22.6z"/>
	<path class="st0" d="M25.7,28.4h-0.9c-0.3,0-0.5-0.2-0.5-0.5v-3.2c0-0.3,0.2-0.5,0.5-0.5c0.3,0,0.5,0.2,0.5,0.5v2.7h0.5
		c0.3,0,0.5-0.2,0.5-0.5v-3.6c0-1-0.8-1.9-1.9-1.9c-0.3,0-0.5-0.2-0.5-0.5c0-0.3,0.2-0.5,0.5-0.5c1.6,0,2.8,1.3,2.8,2.8V27
		C27.1,27.8,26.4,28.4,25.7,28.4z"/>
	<path class="st0" d="M22.2,20.1c-1.4,0-2.5-1.1-2.5-2.5c0-1.4,1.1-2.5,2.5-2.5c1.4,0,2.5,1.1,2.5,2.5C24.7,19,23.6,20.1,22.2,20.1z
		 M22.2,16.2c-0.8,0-1.5,0.7-1.5,1.5c0,0.8,0.7,1.5,1.5,1.5c0.8,0,1.5-0.7,1.5-1.5C23.7,16.9,23.1,16.2,22.2,16.2z"/>
	<path class="st0" d="M22.2,22.6c-0.1,0-0.2,0-0.2-0.1l-2-1c-0.3-0.1-0.3-0.4-0.2-0.7s0.4-0.3,0.7-0.2l1.8,0.9l1.8-0.9
		c0.3-0.1,0.6,0,0.7,0.2c0.1,0.3,0,0.6-0.2,0.7l-2,1C22.4,22.6,22.3,22.6,22.2,22.6z"/>
	<path class="st0" d="M5.3,14.8H4.3c-0.7,0-1.4-0.7-1.4-1.4V9.8C2.9,8.2,4.2,7,5.7,7C6,7,6.3,7.2,6.3,7.4c0,0.3-0.3,0.5-0.6,0.5
		c-1,0-1.9,0.8-1.9,1.9v3.6c0,0.3,0.2,0.5,0.5,0.5h0.5v-2.7c0-0.3,0.2-0.5,0.5-0.5c0.3,0,0.5,0.2,0.5,0.5v3.2
		C5.7,14.6,5.5,14.8,5.3,14.8z"/>
	<path class="st0" d="M7.8,6.6c-1.4,0-2.5-1.1-2.5-2.5s1.1-2.5,2.5-2.5c1.4,0,2.5,1.1,2.5,2.5S9.1,6.6,7.8,6.6z M7.8,2.6
		c-0.8,0-1.5,0.7-1.5,1.6s0.7,1.5,1.5,1.5S9.3,5,9.3,4.2S8.6,2.6,7.8,2.6z"/>
	<path class="st0" d="M7.8,9C7.7,9,7.6,9,7.6,8.9l-2.1-1C5.3,7.7,5.3,7.4,5.3,7.3C5.4,7,5.7,7,6,7.1L7.8,8l1.8-0.9
		c0.3-0.1,0.6,0,0.7,0.2c0.1,0.3,0,0.6-0.2,0.7L8,8.9C7.9,8.9,7.9,9,7.8,9z"/>
	<path class="st0" d="M12.5,14.8h-0.9c-0.7,0-1.4-0.7-1.4-1.4V9.8C10.2,8.2,11.5,7,13,7c0.3,0,0.5,0.2,0.5,0.5
		c0,0.3-0.2,0.5-0.5,0.5c-1,0-1.9,0.8-1.9,1.9v3.6c0,0.3,0.2,0.5,0.5,0.5h0.5v-2.7c0-0.3,0.2-0.5,0.5-0.5c0.3,0,0.5,0.2,0.5,0.5v3.2
		C13,14.6,12.7,14.8,12.5,14.8z"/>
	<path class="st0" d="M18.4,14.8h-0.9c-0.3,0-0.5-0.2-0.5-0.5v-3.2c0-0.3,0.2-0.5,0.5-0.5c0.3,0,0.5,0.2,0.5,0.5v2.7h0.5
		c0.3,0,0.5-0.2,0.5-0.5V9.8c0-1-0.8-1.9-1.9-1.9c-0.3,0-0.5-0.2-0.5-0.5C16.5,7.2,16.7,7,17,7c1.6,0,2.8,1.3,2.8,2.8v3.6
		C19.8,14.3,19.2,14.8,18.4,14.8z"/>
	<path class="st0" d="M15,6.6c-1.4,0-2.5-1.1-2.5-2.5s1.1-2.5,2.5-2.5s2.5,1.1,2.5,2.5S16.4,6.6,15,6.6z M15,2.6
		c-0.8,0-1.5,0.7-1.5,1.5s0.7,1.5,1.5,1.5s1.5-0.7,1.5-1.5S15.9,2.6,15,2.6z"/>
	<path class="st0" d="M15,9c-0.1,0-0.2,0-0.2-0.1l-2.1-1c-0.3-0.1-0.3-0.4-0.2-0.7S13,7,13.3,7.1L15,8l1.8-0.9
		c0.3-0.1,0.6,0,0.7,0.2c0.1,0.3,0,0.6-0.2,0.7l-2,1C15.1,8.9,15,9,15,9z"/>
	<path class="st0" d="M25.7,14.8h-0.9c-0.3,0-0.5-0.2-0.5-0.5v-3.2c0-0.3,0.2-0.5,0.5-0.5c0.3,0,0.5,0.2,0.5,0.5v2.7h0.5
		c0.3,0,0.5-0.2,0.5-0.5V9.8c0-1-0.8-1.9-1.9-1.9c-0.3,0-0.5-0.2-0.5-0.5C23.8,7.2,24,7,24.3,7c1.6,0,2.8,1.3,2.8,2.8v3.6
		C27.1,14.3,26.4,14.8,25.7,14.8z"/>
	<path class="st0" d="M22.2,6.6c-1.4,0-2.5-1.1-2.5-2.5s1.1-2.5,2.5-2.5c1.4,0,2.5,1.1,2.5,2.5S23.6,6.6,22.2,6.6z M22.2,2.6
		c-0.8,0-1.5,0.7-1.5,1.5s0.7,1.5,1.5,1.5c0.8,0,1.5-0.7,1.5-1.5S23.1,2.6,22.2,2.6z"/>
	<path class="st0" d="M22.2,9C22.1,9,22,9,22,8.9l-2-1c-0.3-0.1-0.3-0.4-0.2-0.7C20,7,20.3,7,20.5,7.1L22.3,8l1.8-0.9
		c0.3-0.1,0.6,0,0.7,0.2c0.1,0.3,0,0.6-0.2,0.7l-2,1C22.4,8.9,22.3,9,22.2,9z"/>
	<path class="st0" d="M5.3,28.4H4.3c-0.7,0-1.4-0.7-1.4-1.4v-3.6c0-1.6,1.3-2.8,2.8-2.8c0.3,0,0.5,0.2,0.5,0.5
		c0,0.3-0.2,0.5-0.5,0.5c-1,0-1.9,0.8-1.9,1.9V27c0,0.3,0.2,0.5,0.5,0.5h0.5v-2.7c0-0.3,0.2-0.5,0.5-0.5c0.3,0,0.5,0.2,0.5,0.5V28
		C5.7,28.1,5.5,28.4,5.3,28.4z"/>
	<path class="st0" d="M7.8,20.1c-1.4,0-2.5-1.1-2.5-2.5c0-1.4,1.1-2.5,2.5-2.5c1.4,0,2.5,1.1,2.5,2.5C10.2,19,9.1,20.1,7.8,20.1z
		 M7.8,16.2c-0.8,0-1.5,0.7-1.5,1.5c0,0.8,0.7,1.5,1.5,1.5s1.5-0.7,1.5-1.5C9.3,16.9,8.6,16.2,7.8,16.2z"/>
	<path class="st0" d="M7.8,22.6c-0.1,0-0.2,0-0.2-0.1l-2-1c-0.3-0.1-0.4-0.4-0.3-0.7c0.1-0.3,0.4-0.3,0.7-0.2l1.8,0.9l1.8-0.9
		c0.3-0.1,0.6,0,0.7,0.2c0.1,0.3,0,0.6-0.2,0.7l-2,1C7.9,22.6,7.9,22.6,7.8,22.6z"/>
	<path class="st0" d="M12.5,28.4h-0.9c-0.7,0-1.4-0.7-1.4-1.4v-3.6c0-1.6,1.3-2.8,2.8-2.8c0.3,0,0.5,0.2,0.5,0.5
		c0,0.3-0.2,0.5-0.5,0.5c-1,0-1.9,0.8-1.9,1.9V27c0,0.3,0.2,0.5,0.5,0.5h0.5v-2.7c0-0.3,0.2-0.5,0.5-0.5c0.3,0,0.5,0.2,0.5,0.5V28
		C13,28.1,12.7,28.4,12.5,28.4z"/>
	<path class="st0" d="M18.4,28.4h-0.9c-0.3,0-0.5-0.2-0.5-0.5v-3.2c0-0.3,0.2-0.5,0.5-0.5c0.3,0,0.5,0.2,0.5,0.5v2.7h0.5
		c0.3,0,0.5-0.2,0.5-0.5v-3.6c0-1-0.8-1.9-1.9-1.9c-0.3,0-0.5-0.2-0.5-0.5c0-0.3,0.2-0.5,0.5-0.5c1.6,0,2.8,1.3,2.8,2.8V27
		C19.8,27.8,19.2,28.4,18.4,28.4z"/>
	<path class="st0" d="M15,20.1c-1.4,0-2.5-1.1-2.5-2.5c0-1.4,1.1-2.5,2.5-2.5s2.5,1.1,2.5,2.5C17.5,19,16.4,20.1,15,20.1z M15,16.2
		c-0.8,0-1.5,0.7-1.5,1.5c0,0.8,0.7,1.5,1.5,1.5s1.5-0.7,1.5-1.5C16.5,16.9,15.9,16.2,15,16.2z"/>
	<path class="st0" d="M15,22.6c-0.1,0-0.2,0-0.2-0.1l-2.1-1c-0.3-0.1-0.3-0.4-0.2-0.7s0.4-0.3,0.7-0.2l1.8,0.9l1.8-0.9
		c0.3-0.1,0.6,0,0.7,0.2c0.1,0.3,0,0.6-0.2,0.7l-2,1C15.1,22.6,15,22.6,15,22.6z"/>
	<path class="st0" d="M25.7,28.4h-0.9c-0.3,0-0.5-0.2-0.5-0.5v-3.2c0-0.3,0.2-0.5,0.5-0.5c0.3,0,0.5,0.2,0.5,0.5v2.7h0.5
		c0.3,0,0.5-0.2,0.5-0.5v-3.6c0-1-0.8-1.9-1.9-1.9c-0.3,0-0.5-0.2-0.5-0.5c0-0.3,0.2-0.5,0.5-0.5c1.6,0,2.8,1.3,2.8,2.8V27
		C27.1,27.8,26.4,28.4,25.7,28.4z"/>
	<path class="st0" d="M22.2,20.1c-1.4,0-2.5-1.1-2.5-2.5c0-1.4,1.1-2.5,2.5-2.5c1.4,0,2.5,1.1,2.5,2.5C24.7,19,23.6,20.1,22.2,20.1z
		 M22.2,16.2c-0.8,0-1.5,0.7-1.5,1.5c0,0.8,0.7,1.5,1.5,1.5c0.8,0,1.5-0.7,1.5-1.5C23.7,16.9,23.1,16.2,22.2,16.2z"/>
	<path class="st0" d="M22.2,22.6c-0.1,0-0.2,0-0.2-0.1l-2-1c-0.3-0.1-0.3-0.4-0.2-0.7s0.4-0.3,0.7-0.2l1.8,0.9l1.8-0.9
		c0.3-0.1,0.6,0,0.7,0.2c0.1,0.3,0,0.6-0.2,0.7l-2,1C22.4,22.6,22.3,22.6,22.2,22.6z"/>
	<path class="st0" d="M5.3,14.8H4.3c-0.7,0-1.4-0.7-1.4-1.4V9.8C2.9,8.2,4.2,7,5.7,7C6,7,6.3,7.2,6.3,7.4c0,0.3-0.3,0.5-0.6,0.5
		c-1,0-1.9,0.8-1.9,1.9v3.6c0,0.3,0.2,0.5,0.5,0.5h0.5v-2.7c0-0.3,0.2-0.5,0.5-0.5c0.3,0,0.5,0.2,0.5,0.5v3.2
		C5.7,14.6,5.5,14.8,5.3,14.8z"/>
	<path class="st0" d="M7.8,6.6c-1.4,0-2.5-1.1-2.5-2.5s1.1-2.5,2.5-2.5c1.4,0,2.5,1.1,2.5,2.5S9.1,6.6,7.8,6.6z M7.8,2.6
		c-0.8,0-1.5,0.7-1.5,1.6s0.7,1.5,1.5,1.5S9.3,5,9.3,4.2S8.6,2.6,7.8,2.6z"/>
	<path class="st0" d="M7.8,9C7.7,9,7.6,9,7.6,8.9l-2.1-1C5.3,7.7,5.3,7.4,5.3,7.3C5.4,7,5.7,7,6,7.1L7.8,8l1.8-0.9
		c0.3-0.1,0.6,0,0.7,0.2c0.1,0.3,0,0.6-0.2,0.7L8,8.9C7.9,8.9,7.9,9,7.8,9z"/>
	<path class="st0" d="M12.5,14.8h-0.9c-0.7,0-1.4-0.7-1.4-1.4V9.8C10.2,8.2,11.5,7,13,7c0.3,0,0.5,0.2,0.5,0.5
		c0,0.3-0.2,0.5-0.5,0.5c-1,0-1.9,0.8-1.9,1.9v3.6c0,0.3,0.2,0.5,0.5,0.5h0.5v-2.7c0-0.3,0.2-0.5,0.5-0.5c0.3,0,0.5,0.2,0.5,0.5v3.2
		C13,14.6,12.7,14.8,12.5,14.8z"/>
	<path class="st0" d="M18.4,14.8h-0.9c-0.3,0-0.5-0.2-0.5-0.5v-3.2c0-0.3,0.2-0.5,0.5-0.5c0.3,0,0.5,0.2,0.5,0.5v2.7h0.5
		c0.3,0,0.5-0.2,0.5-0.5V9.8c0-1-0.8-1.9-1.9-1.9c-0.3,0-0.5-0.2-0.5-0.5C16.5,7.2,16.7,7,17,7c1.6,0,2.8,1.3,2.8,2.8v3.6
		C19.8,14.3,19.2,14.8,18.4,14.8z"/>
	<path class="st0" d="M15,6.6c-1.4,0-2.5-1.1-2.5-2.5s1.1-2.5,2.5-2.5s2.5,1.1,2.5,2.5S16.4,6.6,15,6.6z M15,2.6
		c-0.8,0-1.5,0.7-1.5,1.5s0.7,1.5,1.5,1.5s1.5-0.7,1.5-1.5S15.9,2.6,15,2.6z"/>
	<path class="st0" d="M15,9c-0.1,0-0.2,0-0.2-0.1l-2.1-1c-0.3-0.1-0.3-0.4-0.2-0.7S13,7,13.3,7.1L15,8l1.8-0.9
		c0.3-0.1,0.6,0,0.7,0.2c0.1,0.3,0,0.6-0.2,0.7l-2,1C15.1,8.9,15,9,15,9z"/>
	<path class="st0" d="M25.7,14.8h-0.9c-0.3,0-0.5-0.2-0.5-0.5v-3.2c0-0.3,0.2-0.5,0.5-0.5c0.3,0,0.5,0.2,0.5,0.5v2.7h0.5
		c0.3,0,0.5-0.2,0.5-0.5V9.8c0-1-0.8-1.9-1.9-1.9c-0.3,0-0.5-0.2-0.5-0.5C23.8,7.2,24,7,24.3,7c1.6,0,2.8,1.3,2.8,2.8v3.6
		C27.1,14.3,26.4,14.8,25.7,14.8z"/>
	<path class="st0" d="M22.2,6.6c-1.4,0-2.5-1.1-2.5-2.5s1.1-2.5,2.5-2.5c1.4,0,2.5,1.1,2.5,2.5S23.6,6.6,22.2,6.6z M22.2,2.6
		c-0.8,0-1.5,0.7-1.5,1.5s0.7,1.5,1.5,1.5c0.8,0,1.5-0.7,1.5-1.5S23.1,2.6,22.2,2.6z"/>
	<path class="st0" d="M22.2,9C22.1,9,22,9,22,8.9l-2-1c-0.3-0.1-0.3-0.4-0.2-0.7C20,7,20.3,7,20.5,7.1L22.3,8l1.8-0.9
		c0.3-0.1,0.6,0,0.7,0.2c0.1,0.3,0,0.6-0.2,0.7l-2,1C22.4,8.9,22.3,9,22.2,9z"/>
</g>
</svg>
