<?xml version="1.0" encoding="utf-8"?>
<!-- Generator: Adobe Illustrator 24.0.2, SVG Export Plug-In . SVG Version: 6.00 Build 0)  -->
<svg version="1.1" id="圖層_1" xmlns="http://www.w3.org/2000/svg" xmlns:xlink="http://www.w3.org/1999/xlink" x="0px" y="0px"
	 viewBox="0 0 30 30" style="enable-background:new 0 0 30 30;" xml:space="preserve">
<style type="text/css">
	.st0{fill:#FFFFFF;}
</style>
<g id="XMLID_156_">
	<g id="XMLID_123_">
		<g id="XMLID_87_">
			<g id="XMLID_65_">
				<path id="XMLID_967_" class="st0" d="M25.6,26.3H1.7c-0.9,0-1.6-0.7-1.6-1.6V8.1c0-0.9,0.7-1.6,1.6-1.6h23.9
					c0.9,0,1.6,0.7,1.6,1.6v16.7C27.2,25.6,26.5,26.3,25.6,26.3z M1.7,7.4C1.3,7.4,1,7.7,1,8.1v16.7c0,0.4,0.3,0.7,0.7,0.7h23.9
					c0.4,0,0.7-0.3,0.7-0.7V8.1c0-0.4-0.3-0.7-0.7-0.7H1.7z"/>
			</g>
			<g id="XMLID_64_">
				<path id="XMLID_966_" class="st0" d="M13.7,20.2L13.7,20.2L0.5,17.3c-0.2-0.1-0.4-0.3-0.3-0.5c0.1-0.2,0.3-0.4,0.5-0.3l13,2.8
					l13-2.8c0.2-0.1,0.5,0.1,0.5,0.3c0.1,0.2-0.1,0.5-0.3,0.5L13.7,20.2z"/>
			</g>
			<g id="XMLID_62_">
				<path id="XMLID_963_" class="st0" d="M13.7,18.1c-0.8,0-1.5-0.8-1.5-1.7c0-0.9,0.7-1.7,1.5-1.7c0.8,0,1.5,0.8,1.5,1.7
					C15.2,17.3,14.5,18.1,13.7,18.1z M13.7,15.6c-0.3,0-0.6,0.4-0.6,0.8c0,0.4,0.3,0.8,0.6,0.8c0.3,0,0.6-0.4,0.6-0.8
					C14.3,16,14,15.6,13.7,15.6z"/>
			</g>
			<g id="XMLID_63_">
				<path id="XMLID_962_" class="st0" d="M17.8,7.4c-0.3,0-0.5-0.2-0.5-0.5c0-1.2-1-2.2-2.2-2.2h-2.9c-1.2,0-2.2,1-2.2,2.2
					c0,0.3-0.2,0.5-0.5,0.5c-0.3,0-0.5-0.2-0.5-0.5c0-1.7,1.4-3.1,3.1-3.1h2.9c1.7,0,3.1,1.4,3.1,3.1C18.2,7.2,18,7.4,17.8,7.4z"/>
			</g>
		</g>
		<g id="XMLID_121_">
			<path id="XMLID_961_" class="st0" d="M26.8,24.6H9.1c-0.3,0-0.5-0.2-0.5-0.5s0.2-0.5,0.5-0.5h17.7c0.3,0,0.5,0.2,0.5,0.5
				S27,24.6,26.8,24.6z"/>
		</g>
		<g id="XMLID_122_">
			<path id="XMLID_960_" class="st0" d="M7.3,24.6H4.8c-0.3,0-0.5-0.2-0.5-0.5s0.2-0.5,0.5-0.5h2.5c0.3,0,0.5,0.2,0.5,0.5
				S7.6,24.6,7.3,24.6z"/>
		</g>
	</g>
	<g id="XMLID_124_">
		<path id="XMLID_959_" class="st0" d="M29.5,7.9h-1.4c-0.3,0-0.5-0.2-0.5-0.5c0-0.3,0.2-0.5,0.5-0.5h1.4C29.8,7,30,7.2,30,7.5
			C30,7.7,29.8,7.9,29.5,7.9z"/>
	</g>
	<g id="XMLID_164_">
		<path id="XMLID_958_" class="st0" d="M27.4,6.1c-0.1,0-0.2,0-0.3-0.1c-0.2-0.2-0.2-0.5,0-0.6l1-1c0.2-0.2,0.5-0.2,0.6,0
			c0.2,0.2,0.2,0.5,0,0.6l-1,1C27.6,6.1,27.5,6.1,27.4,6.1z"/>
	</g>
	<g id="XMLID_165_">
		<path id="XMLID_957_" class="st0" d="M25.6,5.4c-0.3,0-0.5-0.2-0.5-0.5V3.6c0-0.3,0.2-0.5,0.5-0.5c0.3,0,0.5,0.2,0.5,0.5v1.4
			C26,5.2,25.8,5.4,25.6,5.4z"/>
	</g>
	<g id="XMLID_166_">
		<path id="XMLID_956_" class="st0" d="M23.8,6.2c-0.1,0-0.2,0-0.3-0.1l-1-1c-0.2-0.2-0.2-0.5,0-0.6c0.2-0.2,0.5-0.2,0.6,0l1,1
			c0.2,0.2,0.2,0.5,0,0.6C24,6.1,23.9,6.2,23.8,6.2z"/>
	</g>
</g>
</svg>
