<?xml version="1.0" encoding="utf-8"?>
<!-- Generator: Adobe Illustrator 24.0.2, SVG Export Plug-In . SVG Version: 6.00 Build 0)  -->
<svg version="1.1" id="圖層_1" xmlns="http://www.w3.org/2000/svg" xmlns:xlink="http://www.w3.org/1999/xlink" x="0px" y="0px"
	 viewBox="0 0 270.8 64" style="enable-background:new 0 0 270.8 64;" xml:space="preserve">
<style type="text/css">
	.st0{fill:#FFFFFF;}
	.st1{fill:url(#SVGID_1_);}
	.st2{fill:#0E3193;}
	.st3{fill:#9D8A30;}
	.st4{fill:none;stroke:#FFFFFF;stroke-width:0.25;stroke-miterlimit:10;}
</style>
<g>
	<path d="M78.8,19.7c0.7,0.2,1.4,0.4,1.9,0.6c0.2,0,0.4,0.1,0.5,0.1v-1.7c0-0.6-0.1-1.1-0.2-1.5c0.5,0.1,1.1,0.2,1.9,0.3
		c0.7,0.1,1,0.2,1,0.4c0,0.2-0.2,0.4-0.5,0.5c-0.2,0.1-0.3,0.2-0.3,0.4v1h1.2v-2.3c0-0.5-0.1-1.1-0.2-1.7c0.9,0.1,1.7,0.2,2.5,0.4
		c0.5,0,0.8,0.2,0.8,0.4c0,0.1-0.1,0.2-0.4,0.3c-0.3,0.1-0.5,0.3-0.5,0.5v2.4h1V19c0-0.6-0.1-1.1-0.2-1.5c0.5,0.1,1.2,0.2,1.9,0.3
		c0.7,0.1,1,0.2,1,0.4c0,0.2-0.2,0.4-0.5,0.5c-0.2,0.1-0.4,0.2-0.4,0.4v1.4c0,0.2-0.3,0.4-0.8,0.5c-0.2,0-0.4,0-0.5,0
		c-0.3,0-0.5-0.1-0.5-0.4v-0.1h-4.4v0.3c0,0.2-0.3,0.4-0.9,0.5c-0.2,0-0.4,0.1-0.6,0.1c-0.2,0-0.4-0.1-0.4-0.3c0,0-0.1,0-0.1,0
		c-0.3,0-0.5,0.1-0.6,0.3c-0.2,0.3-0.4,0.6-0.7,1c0.4,0.1,0.6,0.2,0.6,0.4c0,0.2-0.1,0.4-0.4,0.5c-0.2,0.1-0.3,0.3-0.3,0.5v6.4
		c0,0.3-0.4,0.5-1.1,0.6c-0.3,0-0.6,0-0.7,0c-0.5,0-0.8-0.2-0.8-0.7c0.1-1.6,0.2-3.2,0.2-4.8v-0.7c-0.7,0.5-1.4,1-2.2,1.4l-0.2-0.3
		c0.6-0.6,1.3-1.5,2.1-2.6C77.8,22.2,78.4,21.1,78.8,19.7z M77.9,15.8c0.7,0.2,1.4,0.4,2,0.6c0.6,0.2,1,0.4,1,0.6
		c0,0.2-0.2,0.3-0.5,0.4c-0.3,0-0.5,0.1-0.6,0.2c-0.5,0.8-1,1.5-1.7,2.1c-0.6,0.5-1.4,1.1-2.4,1.7L75.4,21c0.7-0.9,1.2-1.7,1.5-2.4
		C77.3,17.8,77.6,16.9,77.9,15.8z M78.7,31.9l0.5,0.1c0,1.5-0.1,2.5-0.3,3.1c-0.2,0.6-0.5,1-1,1.2c-0.3,0.1-0.6,0.2-0.9,0.2
		c-0.5,0-0.9-0.1-1.2-0.4c-0.3-0.2-0.4-0.6-0.4-1c0-0.2,0.3-0.4,0.9-0.7c0.6-0.3,1.1-0.6,1.5-1C78.2,33.1,78.5,32.6,78.7,31.9z
		 M80.9,23.6c0.8,0.1,1.8,0.2,3.3,0.2h2.1c0,0,0.2-0.2,0.6-0.6c0.2-0.2,0.4-0.4,0.5-0.5h-2.8c-1.4,0-2.3,0-2.9,0.1l-0.4-1
		c0.8,0.1,1.9,0.2,3.3,0.2h1.6c0,0,0.2-0.2,0.5-0.5c0.4-0.4,0.6-0.6,0.6-0.6c0.2,0,0.4,0.2,0.8,0.6c0.3,0.4,0.5,0.6,0.5,0.7
		c0,0.3-0.1,0.4-0.2,0.4h-0.3c0.2,0.1,0.4,0.3,0.6,0.5c0.3,0.4,0.6,0.6,0.6,0.7c0.3-1,0.6-2,0.8-3c0.2-1.3,0.4-2.8,0.6-4.6
		c0.8,0.2,1.6,0.4,2.3,0.7c0.7,0.2,1.1,0.5,1.1,0.8c0,0.2-0.2,0.3-0.6,0.4c-0.4,0-0.6,0.1-0.6,0.3c-0.2,0.6-0.4,1.1-0.5,1.7h1.2
		c0,0,0.3-0.2,0.7-0.7c0.6-0.7,1-1,1.1-1c0.2,0,0.6,0.4,1.5,1.1c0.5,0.5,0.8,0.8,0.8,0.9c0,0.2-0.1,0.4-0.4,0.4h-1.1
		c-0.3,1.4-0.7,2.7-1.2,4c-0.3,0.9-0.7,1.6-1.1,2.2c0.4,0.4,0.8,0.7,1.2,1c0.6,0.4,1.5,0.8,2.4,1.1l-0.1,0.5
		c-0.6,0.1-1.1,0.5-1.4,1.1c-0.2,0.5-0.4,0.8-0.5,0.8s-0.5-0.2-1-0.7c-0.5-0.5-1.1-1.2-1.6-2.1c-0.1-0.1-0.1-0.2-0.2-0.3
		c-0.4,0.4-0.8,0.7-1.3,1.1c-1,0.7-2.2,1.2-3.4,1.6l-0.2-0.4c1-0.7,1.8-1.3,2.5-2c0.6-0.6,1.1-1.3,1.5-2.1l0,0
		c-0.1-0.3-0.2-0.7-0.3-1c-0.2-0.7-0.4-1.5-0.5-2.5c-0.5,0.7-1,1.5-1.5,2.2L89,24.9c0.1-0.2,0.1-0.3,0.1-0.4h-2.9v1.5h0.6
		c0,0,0.2-0.2,0.5-0.5c0.4-0.4,0.6-0.6,0.7-0.6c0.2,0,0.4,0.2,0.8,0.7c0.4,0.4,0.6,0.7,0.6,0.8c0,0.3-0.1,0.4-0.3,0.4h-2.8v1.2
		c1.2-0.1,2.3-0.2,3.4-0.4l0.1,0.2c-2.2,1.1-4.6,1.9-7.2,2.4c-0.3,0-0.4,0.1-0.4,0.2c0,0.1-0.1,0.2-0.1,0.3c0,0.2-0.1,0.3-0.2,0.3
		c-0.3,0-0.6-0.5-0.9-1.4c-0.1-0.3-0.3-0.7-0.5-1.3c1.2,0,2.4-0.1,3.6-0.2v-1.4c-1,0-1.8,0-2.3,0.1l-0.4-0.9
		c0.7,0.1,1.5,0.1,2.6,0.2v-1.5c-1.3,0-2.2,0-2.7,0.1L80.9,23.6z M80.5,31c0.7,0.1,1.6,0.2,2.5,0.4c0.9,0.1,1.3,0.3,1.3,0.5
		c0,0.3-0.2,0.5-0.7,0.7c-0.3,0.1-0.4,0.3-0.4,0.6v1.4c0,0.5,0.2,0.7,0.5,0.8c0.7,0.1,1.8,0.2,3.2,0.2c0.9,0,1.6-0.1,2.2-0.2
		c0.4-0.1,0.7-0.2,0.9-0.4c0.1-0.1,0.3-0.4,0.5-0.8c0.2-0.5,0.4-1.1,0.7-1.9l0.4,0.1c0,0.9,0.1,1.4,0.1,1.6c0,0.5,0.2,0.9,0.6,1.1
		c0.5,0.3,0.8,0.5,0.8,0.8c0,0.4-0.3,0.8-0.9,1c-0.5,0.2-1,0.3-1.5,0.4c-0.9,0.2-2.2,0.2-3.7,0.2c-2.4,0-3.9-0.1-4.7-0.2
		c-0.6-0.1-1.1-0.4-1.3-0.8c-0.2-0.3-0.3-0.8-0.3-1.5v-1.4C80.7,32.7,80.6,31.8,80.5,31z M84.7,30.6c1.5,0.3,2.5,0.6,3,0.9
		c0.5,0.3,0.8,0.7,0.8,1.1c0,0.4-0.2,0.7-0.5,1.1c-0.2,0.2-0.5,0.4-0.9,0.4c-0.3,0-0.6-0.3-0.9-0.8c-0.3-0.8-0.9-1.6-1.7-2.3
		L84.7,30.6z M91.4,22.2c0.1,0.5,0.3,1,0.5,1.5c0.2,0.4,0.3,0.8,0.5,1.2c0.1-0.3,0.2-0.5,0.3-0.8c0.3-1,0.6-2.1,0.8-3.3H92
		C91.8,21.3,91.6,21.8,91.4,22.2z M92.8,31.7c1.4,0.4,2.4,0.8,3,1.3c0.5,0.5,0.7,1,0.7,1.6c0,0.4-0.2,0.8-0.5,1.2
		c-0.2,0.3-0.6,0.4-1,0.4c-0.3,0-0.6-0.4-0.8-1.1c-0.3-1-0.8-2-1.6-3L92.8,31.7z"/>
	<path d="M109.2,19.9c0.8,0.1,1.9,0.2,3.3,0.2h8.9c0-0.4-0.1-0.9-0.1-1.3c0-1-0.1-2-0.3-3.2c1.4,0.2,2.4,0.3,3,0.4
		c0.9,0.1,1.3,0.3,1.3,0.5c0,0.1,0,0.1,0,0.1c0.9,0.2,1.6,0.4,2,0.6c0.5,0.2,0.7,0.5,0.7,0.9c0,0.4-0.2,0.9-0.6,1.3
		c-0.3,0.3-0.6,0.4-1,0.4c-0.3,0-0.5-0.3-0.7-0.8c-0.2-0.6-0.6-1.2-1.1-1.8c-0.4,0.1-0.6,0.3-0.7,0.6c0,0.8,0,1.6,0,2.3h3.3
		c0.1,0,0.3-0.3,0.8-0.8c0.5-0.6,0.9-0.9,1-0.9c0.3,0,0.7,0.3,1.3,0.9s0.9,1,0.9,1.1c0,0.2-0.1,0.4-0.4,0.4h-6.8
		c0.1,1.7,0.2,3.2,0.4,4.4c0.1,1,0.3,1.9,0.5,2.7c0.7-1.5,1.3-3.5,1.9-6c0.9,0.5,1.6,0.8,2.2,1.1c1,0.5,1.5,0.9,1.5,1.1
		c0,0.2-0.2,0.4-0.7,0.4c-0.5,0-0.7,0.1-0.8,0.3c-1,2.8-2,4.8-3.1,6c0,0,0,0,0,0.1c0.3,0.7,0.7,1.3,1.1,1.9c0.7,0.9,1.1,1.3,1.4,1.3
		c0.2,0,0.4-0.5,0.7-1.4c0.1-0.5,0.4-1.3,0.6-2.2l0.4,0.1c-0.1,2-0.1,3.3-0.1,3.8c0,0.4,0.1,0.8,0.4,1.2c0.3,0.4,0.4,0.7,0.4,1
		c0,0.7-0.3,1-1,1c-0.8,0-1.8-0.4-2.8-1.1s-1.9-1.6-2.5-2.6c-0.2-0.3-0.4-0.6-0.6-1c-0.7,0.5-1.4,1.1-2.1,1.5
		c-1.7,1.1-3.6,1.9-5.6,2.5l-0.2-0.4c2.1-1.2,3.8-2.4,4.9-3.4c0.7-0.6,1.4-1.4,2.1-2.3c-0.2-0.5-0.4-1.1-0.5-1.6
		c-0.6-1.7-1-4.5-1.2-8.4h-8.9c-1.4,0-2.3,0-2.9,0.1L109.2,19.9z M109.7,27.3c0.5,0.1,1.3,0.1,2.2,0.2c0-0.7,0-1.4,0-2.2
		c0-0.9-0.1-2.1-0.2-3.5c0.8,0.1,1.6,0.3,2.4,0.4c1.1,0.2,1.6,0.4,1.6,0.7c0,0.2-0.2,0.4-0.7,0.6c-0.4,0.1-0.6,0.3-0.6,0.5
		c0,1.5,0,2.7,0,3.7h2.1v-1.7c0-1.5-0.1-2.9-0.2-4c0.7,0.1,1.6,0.2,2.7,0.4c0.8,0.1,1.1,0.3,1.1,0.5c0,0.2-0.2,0.4-0.7,0.6
		c-0.3,0.1-0.5,0.3-0.5,0.6v3.4c0.1-0.1,0.2-0.2,0.3-0.4c0.5-0.5,0.7-0.8,0.8-0.8c0.2,0,0.6,0.3,1.1,0.8c0.5,0.5,0.8,0.9,0.8,1
		c0,0.2-0.1,0.4-0.4,0.4H119v5.7c0,0.3-0.4,0.5-1.1,0.7c-0.3,0-0.6,0.1-0.7,0.1c-0.6,0-0.8-0.3-0.8-0.8c0.1-1.4,0.2-2.7,0.2-3.9
		v-1.8h-2.1c0,0.9-0.1,1.6-0.1,1.9c-0.1,1.1-0.4,2.1-0.7,2.8c-0.3,0.8-0.7,1.4-1.2,2.1c-0.5,0.6-1.3,1.2-2.3,1.8l-0.2-0.4
		c0.5-0.7,0.9-1.6,1.2-2.5c0.3-0.7,0.5-1.6,0.6-2.7c0.1-0.6,0.2-1.6,0.2-3c-0.8,0-1.4,0-1.9,0.1L109.7,27.3z"/>
	<path d="M143.1,21.8c1.6,0.3,2.8,0.7,3.4,1.1c0.5,0.4,0.8,0.8,0.8,1.3c0,0.5-0.2,0.9-0.6,1.4c-0.3,0.3-0.6,0.4-1.1,0.4
		c-0.4,0-0.7-0.3-1-1c-0.4-0.9-1-1.8-1.9-2.7L143.1,21.8z M150.1,21.5l0.5,0.1c-1,2.8-1.7,5-2.2,6.6c-0.4,1.6-0.7,2.6-0.7,3.2
		c0,0.5,0,1,0.1,1.6c0.2,1.2,0.4,2.1,0.4,2.7c0,0.4-0.1,0.7-0.3,0.9c-0.2,0.2-0.6,0.4-1.1,0.4c-0.6,0-1.1-0.1-1.5-0.4
		c-0.2-0.2-0.3-0.5-0.3-0.9c0-0.4,0.1-0.9,0.2-1.7c0-0.6,0-1,0-1.3c0-0.6-0.1-1-0.3-1.3c-0.2-0.3-0.8-0.6-1.8-0.9l0.1-0.6
		c1.1,0,1.8-0.1,2.1-0.2c0.3-0.2,0.6-0.5,0.7-1.1L150.1,21.5z M145.2,16.2c1.7,0.3,2.8,0.7,3.5,1.1c0.6,0.4,0.8,0.8,0.8,1.3
		c0,0.5-0.2,0.9-0.6,1.3c-0.3,0.3-0.6,0.5-1.1,0.5c-0.4,0-0.7-0.3-1-1c-0.4-0.9-1-1.8-1.9-2.7L145.2,16.2z M150.7,20.7
		c0.8,0.1,1.8,0.2,3.3,0.2h1v-2.9c0-0.7-0.1-1.4-0.2-2.2c1.1,0.1,2.1,0.3,3.1,0.4c0.6,0,1,0.2,1,0.5c0,0.1-0.2,0.2-0.6,0.4
		c-0.4,0.2-0.6,0.4-0.6,0.6v3.1h1.3c0.1,0,0.3-0.4,0.8-1c0.6-0.8,0.9-1.1,1-1.1c0.3,0,0.8,0.4,1.5,1.1c0.7,0.7,1,1.2,1,1.3
		c0,0.3-0.2,0.4-0.5,0.4h-5.2v5.1h2.2c0.1,0,0.4-0.4,0.9-1.1c0.6-0.8,1-1.2,1.1-1.2c0.3,0,0.8,0.4,1.5,1.1c0.7,0.8,1.1,1.2,1.1,1.4
		c0,0.2-0.2,0.4-0.5,0.4h-6.9c-0.7,2-1.6,3.7-2.5,5.1c-0.3,0.4-0.6,0.8-0.9,1.1c2.5-0.1,4.9-0.1,7.1-0.3c-0.5-1-1.2-2.1-2.2-3.4
		l0.4-0.3c2.1,1.1,3.5,2.1,4.3,2.9c0.8,0.8,1.2,1.6,1.2,2.2c0,0.6-0.2,1.1-0.5,1.5c-0.3,0.4-0.6,0.6-1.1,0.6c-0.3,0-0.6-0.1-0.9-0.3
		c-0.2-0.2-0.5-0.9-0.8-2c0-0.2-0.1-0.4-0.2-0.6c-2.8,1-5.7,1.7-8.7,2.1c-0.4,0-0.6,0.1-0.6,0.2c0,0.1-0.1,0.2-0.1,0.4
		c-0.1,0.2-0.2,0.4-0.3,0.4c-0.3,0-0.8-0.6-1.3-1.9c-0.1-0.3-0.4-0.9-0.7-1.7c1,0,1.9,0,2.9,0c0.3-0.6,0.5-1.3,0.8-2
		c0.5-1.2,0.8-2.7,1.1-4.2h-1.6c-1.4,0-2.3,0-2.9,0.1l-0.4-0.9c0.8,0.1,1.9,0.2,3.3,0.2h2.5v-5.1h-1c-1.4,0-2.3,0-2.9,0.1
		L150.7,20.7z"/>
	<path d="M183.6,15.8c0.2,0,0.8,0.3,1.6,1c0.6,0.5,0.9,0.9,0.9,1.1c0,0.2-0.2,0.3-0.7,0.4c-0.5,0.1-0.8,0.3-0.9,0.4
		c-1,2.1-1.9,3.8-2.8,5.1c1.1,0.9,1.8,1.7,2.3,2.5c0.3,0.5,0.6,1,0.8,1.7c0.2,0.6,0.3,1.2,0.3,1.9c0,0.9-0.2,1.5-0.5,1.9
		c-0.3,0.5-0.7,0.9-1.1,1.1c-0.4,0.2-0.8,0.4-1,0.4c-0.2,0-0.4-0.3-0.5-0.8c-0.2-0.5-0.7-1-1.7-1.5v6.2c0,0.3-0.4,0.5-1.2,0.7
		c-0.3,0-0.6,0-0.8,0c-0.5,0-0.8-0.2-0.8-0.8c0.1-0.8,0.1-1.7,0.1-2.5V19.5c0-1.2-0.1-2.4-0.2-3.5c1.1,0.3,2.2,0.7,3.4,1.2h1.1
		c0.4-0.4,0.7-0.8,0.9-1C183.2,15.9,183.4,15.8,183.6,15.8z M180.4,17.8v12.4c0.6,0.1,1,0.1,1.4,0.1c0.4,0,0.6-0.1,0.8-0.2
		c0.2-0.2,0.2-0.6,0.2-1.2c0-1-0.1-1.9-0.4-2.6c-0.3-0.9-0.8-1.7-1.5-2.6c0.6-1.8,1.1-3.7,1.4-5.9H180.4z M184.8,26.9
		c0.8,0.1,1.8,0.2,3.3,0.2h6.6c0.1,0,0.3-0.3,0.8-0.9c0.6-0.7,0.9-1.1,1-1.1c0.3,0,0.7,0.3,1.4,1c0.7,0.7,1,1.1,1,1.2
		c0,0.2-0.2,0.4-0.5,0.4h-4.1v6.4c0,0.5,0.1,0.7,0.4,0.8c0.2,0,0.5,0.1,1,0.1c0.4,0,0.6-0.1,0.8-0.4c0.2-0.4,0.5-1.5,0.9-3.1
		l0.5,0.1l0.1,1.6c0,0.6,0.2,1,0.6,1.5c0.3,0.3,0.5,0.7,0.5,1c0,0.5-0.2,0.8-0.5,0.9c-0.6,0.4-1.5,0.5-2.8,0.5h-1.4
		c-0.5,0-0.9-0.1-1.3-0.2c-0.8-0.2-1.2-0.8-1.2-1.8v-7.4h-1.5c-0.1,1.8-0.4,3.1-0.8,4.1c-0.3,0.8-0.8,1.6-1.3,2.2
		c-0.5,0.6-1.2,1.2-2,1.7c-1.1,0.7-2.3,1.2-3.6,1.7l-0.3-0.6c0.7-0.3,1.4-0.8,2.1-1.4c0.7-0.6,1.2-1.3,1.7-2.1
		c0.5-0.7,0.8-1.5,1-2.3c0.3-0.9,0.4-2.1,0.4-3.4c-1,0-1.7,0-2.2,0.1L184.8,26.9z M189.6,15.8c1,0.1,2,0.2,3,0.4
		c0.6,0,0.9,0.2,0.9,0.5c0,0.1-0.2,0.2-0.6,0.4s-0.6,0.4-0.6,0.6v1.6h2.4c0.3-0.3,0.6-0.6,0.8-0.8c0.3-0.4,0.6-0.6,0.7-0.6
		c0.2,0,0.7,0.4,1.6,1.1c0.8,0.6,1.1,1,1.1,1.3c0,0.2-0.2,0.3-0.5,0.4c-0.4,0-0.7,0-0.8,0.1c-0.7,0.5-1.5,1-2.5,1.4l0.1,0
		c0.6,0.6,0.9,1,0.9,1.1c0,0.2-0.1,0.4-0.4,0.4h-6.7c-1.4,0-2.3,0-2.9,0.1l-0.4-0.9c0.8,0.1,1.9,0.2,3.3,0.2h3.2
		c0,0,0.3-0.3,0.7-0.8c0.5-0.6,0.8-0.9,0.9-0.9c0.1,0,0.3,0.1,0.5,0.2c0.2-0.5,0.4-1.1,0.6-1.6H187c0,0.6-0.1,1-0.1,1.3
		c-0.2,0.6-0.4,1-0.8,1.3c-0.2,0.1-0.4,0.2-0.7,0.2c-0.5,0-0.9-0.1-1.2-0.4c-0.3-0.2-0.4-0.6-0.4-1c0-0.2,0.3-0.5,0.8-0.8
		c0.5-0.3,1-0.6,1.3-1s0.6-0.9,0.8-1.6l0.4,0.1c0,0.5,0,0.9,0,1.2h2.7v-1.5C189.8,17.1,189.7,16.5,189.6,15.8z"/>
</g>
<g>
	<path d="M77.8,41H80c1.5,0,2.5,0.2,3.3,0.5s1.3,1,1.8,1.8c0.5,0.8,0.7,1.8,0.7,2.9c0,0.8-0.1,1.5-0.4,2.1c-0.3,0.6-0.6,1.2-1.1,1.6
		c-0.5,0.4-0.9,0.7-1.5,0.9c-0.5,0.2-1.4,0.2-2.7,0.2h-2.3V41z M79.7,42.9v6.3h0.9c0.9,0,1.5-0.1,1.9-0.3c0.4-0.2,0.7-0.5,1-1
		s0.4-1.1,0.4-1.8c0-1.1-0.3-1.9-0.9-2.5c-0.5-0.5-1.4-0.8-2.6-0.8H79.7z"/>
	<path d="M88.3,40.6c0.3,0,0.6,0.1,0.8,0.4c0.2,0.2,0.4,0.5,0.4,0.9c0,0.3-0.1,0.6-0.3,0.9c-0.2,0.2-0.5,0.4-0.8,0.4
		c-0.3,0-0.6-0.1-0.8-0.4c-0.2-0.2-0.4-0.5-0.4-0.9c0-0.3,0.1-0.6,0.3-0.8S88,40.6,88.3,40.6z M87.4,43.6h1.9v7.4h-1.9V43.6z"/>
	<path d="M95.7,44.7l-1.2,1.2c-0.5-0.5-0.9-0.7-1.3-0.7c-0.2,0-0.4,0-0.5,0.1s-0.2,0.2-0.2,0.3c0,0.1,0,0.2,0.1,0.3
		c0.1,0.1,0.3,0.2,0.6,0.3l0.7,0.3c0.7,0.4,1.2,0.7,1.5,1.1s0.4,0.8,0.4,1.3c0,0.7-0.2,1.2-0.7,1.7c-0.5,0.4-1.1,0.7-2,0.7
		c-1.1,0-2-0.4-2.6-1.3l1.1-1.3c0.2,0.3,0.5,0.5,0.8,0.6c0.3,0.2,0.6,0.2,0.8,0.2c0.2,0,0.4-0.1,0.6-0.2c0.2-0.1,0.2-0.3,0.2-0.4
		c0-0.3-0.3-0.6-0.8-0.8l-0.6-0.3c-1.2-0.6-1.8-1.4-1.8-2.3c0-0.6,0.2-1.1,0.7-1.5c0.5-0.4,1-0.6,1.7-0.6c0.5,0,0.9,0.1,1.4,0.3
		C95,44,95.4,44.3,95.7,44.7z"/>
	<path d="M104.8,45.1l-1.6,0.9c-0.3-0.3-0.6-0.5-0.9-0.6c-0.3-0.1-0.6-0.2-1-0.2c-0.7,0-1.3,0.2-1.7,0.6c-0.4,0.4-0.6,0.9-0.6,1.6
		c0,0.6,0.2,1.1,0.6,1.5s1,0.6,1.6,0.6c0.8,0,1.5-0.3,2-0.9l1.5,1c-0.8,1-1.9,1.6-3.4,1.6c-1.3,0-2.3-0.4-3.1-1.2
		c-0.7-0.8-1.1-1.7-1.1-2.7c0-0.7,0.2-1.4,0.5-2c0.4-0.6,0.9-1.1,1.5-1.4c0.6-0.3,1.4-0.5,2.2-0.5c0.7,0,1.4,0.1,2,0.4
		S104.4,44.6,104.8,45.1z"/>
	<path d="M107.4,40.6c0.3,0,0.6,0.1,0.8,0.4c0.2,0.2,0.4,0.5,0.4,0.9c0,0.3-0.1,0.6-0.3,0.9c-0.2,0.2-0.5,0.4-0.8,0.4
		c-0.3,0-0.6-0.1-0.8-0.4c-0.2-0.2-0.4-0.5-0.4-0.9c0-0.3,0.1-0.6,0.3-0.8S107.1,40.6,107.4,40.6z M106.5,43.6h1.9v7.4h-1.9V43.6z"
		/>
	<path d="M112.1,43.6v0.8c0.3-0.3,0.7-0.6,1.1-0.8c0.4-0.2,0.8-0.3,1.3-0.3c1,0,1.8,0.4,2.5,1.1c0.7,0.7,1,1.7,1,2.8
		c0,1.1-0.4,2-1.1,2.8s-1.5,1.1-2.5,1.1c-0.4,0-0.8-0.1-1.2-0.2c-0.4-0.2-0.7-0.4-1.1-0.7v3.5h-1.9V43.6H112.1z M114.1,45.2
		c-0.6,0-1.1,0.2-1.5,0.6c-0.4,0.4-0.6,0.9-0.6,1.6c0,0.7,0.2,1.2,0.6,1.6c0.4,0.4,0.9,0.6,1.5,0.6c0.6,0,1-0.2,1.4-0.6
		c0.4-0.4,0.6-0.9,0.6-1.6c0-0.6-0.2-1.2-0.6-1.6C115.1,45.4,114.6,45.2,114.1,45.2z"/>
	<path d="M119.5,40.8h1.9v10.3h-1.9V40.8z"/>
	<path d="M124,40.6c0.3,0,0.6,0.1,0.8,0.4c0.2,0.2,0.4,0.5,0.4,0.9c0,0.3-0.1,0.6-0.3,0.9c-0.2,0.2-0.5,0.4-0.8,0.4
		c-0.3,0-0.6-0.1-0.8-0.4c-0.2-0.2-0.4-0.5-0.4-0.9c0-0.3,0.1-0.6,0.3-0.8S123.7,40.6,124,40.6z M123.1,43.6h1.9v7.4h-1.9V43.6z"/>
	<path d="M126.8,43.6h1.9v0.8c0.4-0.4,0.8-0.6,1.2-0.7c0.3-0.1,0.7-0.2,1.1-0.2c0.7,0,1.4,0.3,1.9,0.8c0.4,0.4,0.6,1.1,0.6,1.9v4.9
		h-1.8v-3.3c0-0.9,0-1.5-0.1-1.8c-0.1-0.3-0.2-0.5-0.4-0.7c-0.2-0.2-0.4-0.2-0.7-0.2c-0.4,0-0.7,0.1-1,0.4c-0.3,0.3-0.5,0.6-0.6,1
		c-0.1,0.2-0.1,0.7-0.1,1.5v3h-1.9V43.6z"/>
	<path d="M140.9,43.6h1.9v7.4h-1.9v-0.8c-0.4,0.3-0.7,0.6-1.1,0.7c-0.4,0.2-0.8,0.2-1.2,0.2c-1,0-1.8-0.4-2.5-1.1s-1.1-1.7-1.1-2.8
		c0-1.1,0.3-2.1,1-2.8c0.7-0.7,1.5-1.1,2.5-1.1c0.4,0,0.9,0.1,1.3,0.3c0.4,0.2,0.8,0.4,1.1,0.8V43.6z M139,45.2
		c-0.6,0-1.1,0.2-1.4,0.6c-0.4,0.4-0.6,0.9-0.6,1.6c0,0.6,0.2,1.2,0.6,1.6c0.4,0.4,0.9,0.6,1.4,0.6c0.6,0,1.1-0.2,1.5-0.6
		c0.4-0.4,0.6-0.9,0.6-1.6c0-0.6-0.2-1.2-0.6-1.6C140.1,45.4,139.6,45.2,139,45.2z"/>
	<path d="M144.5,43.6h1.6v0.9c0.2-0.4,0.4-0.6,0.7-0.8s0.6-0.3,0.9-0.3c0.2,0,0.5,0.1,0.8,0.2l-0.6,1.6c-0.2-0.1-0.4-0.2-0.5-0.2
		c-0.3,0-0.5,0.2-0.7,0.5c-0.2,0.4-0.3,1.1-0.3,2.1l0,0.4v3h-1.9V43.6z"/>
	<path d="M148.8,43.6h1.9l1.9,4.7l2.1-4.7h1.9L152,53.8h-1.9l1.5-3.3L148.8,43.6z"/>
	<path d="M171.5,42.8l-1.3,1.3c-0.9-1-1.9-1.4-3.1-1.4c-1,0-1.8,0.3-2.4,1c-0.7,0.7-1,1.5-1,2.4c0,0.7,0.1,1.3,0.4,1.8
		c0.3,0.5,0.7,0.9,1.2,1.2c0.5,0.3,1.1,0.4,1.8,0.4c0.6,0,1.1-0.1,1.5-0.3c0.5-0.2,1-0.6,1.5-1.1l1.3,1.4c-0.7,0.7-1.4,1.2-2.1,1.5
		c-0.7,0.3-1.4,0.4-2.3,0.4c-1.6,0-2.8-0.5-3.8-1.5c-1-1-1.5-2.3-1.5-3.8c0-1,0.2-1.9,0.7-2.7c0.5-0.8,1.1-1.4,1.9-1.9
		c0.8-0.5,1.8-0.7,2.7-0.7c0.8,0,1.6,0.2,2.4,0.5C170.3,41.6,170.9,42.1,171.5,42.8z"/>
	<path d="M176.7,43.4c0.7,0,1.4,0.2,2,0.5c0.6,0.4,1.1,0.8,1.4,1.4s0.5,1.3,0.5,1.9c0,0.7-0.2,1.4-0.5,2c-0.3,0.6-0.8,1.1-1.4,1.4
		c-0.6,0.3-1.3,0.5-2,0.5c-1.1,0-2-0.4-2.7-1.1c-0.8-0.8-1.1-1.7-1.1-2.8c0-1.2,0.4-2.1,1.3-2.9C174.8,43.8,175.7,43.4,176.7,43.4z
		 M176.7,45.2c-0.6,0-1.1,0.2-1.4,0.6s-0.6,0.9-0.6,1.5c0,0.6,0.2,1.2,0.6,1.6c0.4,0.4,0.9,0.6,1.4,0.6c0.6,0,1.1-0.2,1.5-0.6
		c0.4-0.4,0.6-0.9,0.6-1.6c0-0.6-0.2-1.2-0.6-1.6C177.8,45.4,177.3,45.2,176.7,45.2z"/>
	<path d="M182.3,43.6h1.9v3.6c0,0.7,0,1.2,0.1,1.5c0.1,0.3,0.2,0.5,0.5,0.6c0.2,0.2,0.5,0.2,0.8,0.2c0.3,0,0.6-0.1,0.8-0.2
		c0.2-0.1,0.4-0.4,0.5-0.7c0.1-0.2,0.1-0.7,0.1-1.4v-3.6h1.9v3.2c0,1.3-0.1,2.2-0.3,2.7c-0.3,0.6-0.6,1-1.1,1.3
		c-0.5,0.3-1.1,0.5-1.9,0.5c-0.8,0-1.5-0.2-2-0.5c-0.5-0.4-0.9-0.9-1.1-1.5c-0.1-0.5-0.2-1.3-0.2-2.5V43.6z"/>
	<path d="M190.5,43.6h1.6v0.9c0.2-0.4,0.4-0.6,0.7-0.8s0.6-0.3,0.9-0.3c0.2,0,0.5,0.1,0.8,0.2l-0.6,1.6c-0.2-0.1-0.4-0.2-0.5-0.2
		c-0.3,0-0.5,0.2-0.7,0.5c-0.2,0.4-0.3,1.1-0.3,2.1l0,0.4v3h-1.9V43.6z"/>
	<path d="M195.9,40.9h1.9v2.7h1.1v1.6h-1.1v5.8h-1.9v-5.8h-1v-1.6h1V40.9z"/>
</g>
<g>
	<circle class="st0" cx="32.8" cy="31.3" r="30.3"/>
</g>
<linearGradient id="SVGID_1_" gradientUnits="userSpaceOnUse" x1="32.8223" y1="60.7278" x2="32.8223" y2="37.472">
	<stop  offset="0.6854" style="stop-color:#9D8A30"/>
	<stop  offset="1" style="stop-color:#FFFFFF"/>
</linearGradient>
<path class="st1" d="M61.7,37.7c-3,13-14.9,23-28.8,23c-13.9,0-25.9-10.2-28.9-23.3h7.4c2.8,9,11.5,16.1,21.5,16.1
	c10,0,18.6-6.8,21.4-15.8H61.7z"/>
<g>
	<path class="st2" d="M53.8,31.2c0,11.6-9.4,21-21,21s-21-9.4-21-21c0-11.6,9.4-21,21-21S53.8,19.7,53.8,31.2z"/>
</g>
<g>
	<path class="st0" d="M34.5,33.7H34h-2.8V42c0,0.9,0.8,1.7,1.7,1.7c0.9,0,1.6-0.8,1.6-1.7L34.5,33.7z"/>
	<path class="st0" d="M35.7,43.9h-5.8c-0.4,0-0.8,0.3-0.8,0.6v0.8c0,0.4,0.3,0.7,0.8,0.7h5.8c0.4,0,0.8-0.3,0.8-0.7v-0.8
		C36.5,44.2,36.2,43.9,35.7,43.9z"/>
	<path class="st0" d="M36.9,46.8h-8c-0.6,0-1,0.3-1,0.7v0.8c0,0.4,0.4,0.7,1,0.7h8c0.6,0,1-0.3,1-0.7v-0.8
		C37.8,47.1,37.4,46.8,36.9,46.8z"/>
	<path class="st0" d="M49.1,23.2c0-0.3-0.2-0.5-0.4-0.6c-0.4-0.3-1-0.2-1.4,0.1c-1.1,1.1-2.7,1.7-4.4,1.7c-1.7,0-3.2-0.6-4.3-1.6
		c-1.5-1.3-3.5-2.1-5.7-2.1c-2.1,0-4.1,0.7-5.5,1.9l0,0l-0.2,0.2l0,0c-1.1,1.1-2.7,1.7-4.4,1.7c-1.7,0-3.3-0.6-4.4-1.7
		c-0.2-0.2-0.4-0.3-0.7-0.3c-0.2,0-0.5,0-0.7,0.2c-0.2,0.2-0.4,0.4-0.4,0.6l0,0v0.1c0,0.2,0.1,0.4,0.3,0.6c1.5,1.4,3.6,2.3,5.9,2.3
		c2.1,0,4-0.7,5.5-1.9l0,0c0,0,0,0,0,0c0,0,0.1-0.1,0.1-0.1c1.1-1.1,2.7-1.7,4.4-1.7c1.7,0,3.2,0.6,4.3,1.6c1.4,1.3,3.5,2.1,5.7,2.1
		c2.3,0,4.4-0.8,5.9-2.3C49,23.8,49.1,23.5,49.1,23.2C49.1,23.3,49.1,23.3,49.1,23.2z M49.1,23.2C49.1,23.2,49.1,23.2,49.1,23.2
		C49.1,23.2,49.1,23.2,49.1,23.2L49.1,23.2z"/>
	<path class="st0" d="M36.3,17c0,1.9-1.5,3.5-3.5,3.5c-1.9,0-3.4-1.5-3.4-3.5c0-1.9,1.5-3.5,3.4-3.5C34.8,13.5,36.3,15.1,36.3,17z"
		/>
	<path class="st0" d="M27.8,38.3l-5.3-12c-0.1-0.2-0.3-0.3-0.5-0.3c-0.2,0-0.4,0.1-0.5,0.4v0l-5.3,12c-0.1,0.2-0.1,0.4,0,0.6
		c1,1.9,3.3,3.2,5.8,3.2c2.5,0,4.8-1.2,5.8-3.2C27.8,38.8,27.8,38.5,27.8,38.3z M21.9,28.1c0.3,0.7,4.3,9.8,4.6,10.4h-9.2
		c0.2-0.5,3.1-7,3.1-7S21.6,28.7,21.9,28.1z"/>
	<path class="st0" d="M49.7,38.3l-5.3-12c-0.1-0.2-0.3-0.3-0.5-0.3c-0.2,0-0.4,0.1-0.5,0.4v0l-5.3,12c-0.1,0.2-0.1,0.4,0,0.6
		c1,1.9,3.3,3.2,5.8,3.2c2.5,0,4.8-1.2,5.8-3.2C49.8,38.8,49.8,38.5,49.7,38.3z M43.9,28.1c0.3,0.7,4.3,9.8,4.6,10.4h-9.2
		c0.2-0.4,2-4.5,2-4.5S43.6,28.8,43.9,28.1z"/>
	<path class="st0" d="M38.4,25.4c-1,0-0.9,0.9-0.9,0.9h-1.2v-0.5h-7v0.5h-1.2c0,0,0.1-0.9-0.9-0.9c0,0-0.8,0-0.8,1v4.4
		c0,1.1,0.8,1,0.8,1c1,0,0.9-0.9,0.9-0.9h1.2v0.5h1.8l0,1.6l3.3,0v-1.6h1.9v-0.5h1.2c0,0-0.1,0.9,0.9,0.9c0,0,0.8,0,0.8-1v-4.4
		C39.2,25.4,38.4,25.4,38.4,25.4z"/>
</g>
<g>
	<path class="st0" d="M12.2,48.8C12.2,48.8,12.2,48.8,12.2,48.8c-0.2,0.3-0.4,0.4-0.6,0.5c-0.2,0.1-0.4,0.2-0.6,0.2
		c-0.2,0.1-0.3,0.1-0.3,0c0,0,0,0,0-0.1c0,0,0.2-0.2,0.4-0.4c0,0,0.1,0,0.1,0c0.1,0,0.2,0,0.3,0c0.1,0,0.3-0.1,0.5-0.2
		C12.1,48.8,12.1,48.7,12.2,48.8z M14.9,46.8c0,0,0,0.2-0.1,0.4c0,0.1-0.1,0.1-0.1,0.2l0,0c0,0,0.1,0,0.1,0l0.1-0.1
		c0.1-0.1,0.2-0.2,0.3-0.4c0.1-0.1,0.2-0.2,0.2-0.3c0,0,0.1,0,0.1,0c0,0,0,0.1,0.1,0.3c0,0.1,0,0.2,0,0.3c0,0-0.1,0.1-0.2,0.1
		c-0.1,0-0.1,0.1-0.2,0.1l-0.1,0.1l0.3,0.3l0.4-0.3c0.1-0.1,0.2-0.3,0.3-0.4c0.1-0.1,0.1-0.2,0.2-0.2c0,0,0.1,0,0.1,0
		c0,0,0.1,0.1,0.1,0.3c0,0.2,0,0.3,0,0.4c0,0-0.1,0-0.1,0.1c-0.1,0-0.2,0.1-0.3,0.2L15.7,48l0.2,0.2c0,0,0,0,0,0c0,0,0,0,0.1,0
		c0,0,0,0,0.1,0l0.2-0.2c0.1-0.1,0.2-0.2,0.2-0.2c0,0,0.1,0,0.1,0c0,0,0,0.1,0,0.3c0,0.2,0,0.3-0.1,0.3c0,0,0,0-0.1,0
		c-0.1,0-0.2,0.1-0.3,0.2c-0.2,0.1-0.3,0.2-0.4,0.2c0,0,0,0-0.1,0c0,0,0-0.1,0-0.2c0,0,0,0,0,0c-0.2-0.2-0.3-0.3-0.5-0.5
		c-0.1-0.1-0.2-0.2-0.4-0.2c-0.1,0-0.2,0-0.2,0c0,0,0-0.1,0-0.2c0,0,0-0.1,0-0.1c0,0,0,0,0,0c-0.1,0-0.3,0-0.5,0c-0.1,0-0.1,0-0.2,0
		l-1.3,1.2c-0.1,0.1-0.1,0.1-0.1,0c0,0,0-0.2,0-0.4c0-0.2,0.1-0.3,0.2-0.4c0,0,0.1,0,0.1,0c0.1,0,0.2,0,0.2-0.1l0.4-0.4
		c-0.1,0-0.2,0-0.3,0c-0.3,0-0.5-0.1-0.8-0.2c0,0,0,0-0.1,0c0,0,0,0,0-0.1c0,0,0,0,0,0c0.5,0.1,1,0.1,1.4,0c0.4,0,0.8-0.1,1.1-0.3
		C14.8,46.8,14.9,46.8,14.9,46.8z M12.6,49.1C12.6,49.1,12.6,49.1,12.6,49.1c-0.1,0.5-0.1,0.9,0,1.2c0,0.3,0.1,0.7,0.3,1
		c0.2,0.4,0.4,0.7,0.7,1c0.1,0.1,0.1,0.1,0.2,0c0,0,0.1-0.1,0.1-0.2c0.1-0.2,0.2-0.3,0.2-0.4c0,0,0-0.1,0.1-0.1c0,0,0,0,0,0
		c0,0,0,0,0,0.1c-0.1,0.5-0.2,0.9-0.2,1.3c0,0.1,0,0.1,0,0.1c0,0-0.1,0-0.1,0c-0.1-0.1-0.2-0.2-0.4-0.3c-0.3-0.3-0.5-0.5-0.6-0.8
		c-0.1-0.2-0.3-0.5-0.3-0.8c-0.1-0.3-0.1-0.6-0.1-0.9c0-0.3,0.1-0.5,0.1-0.8C12.5,49.2,12.5,49.1,12.6,49.1
		C12.5,49.1,12.5,49.1,12.6,49.1z M15,49c0,0,0.1,0.1,0.1,0.2c0,0.1,0,0.2,0,0.2c0,0-0.1,0-0.1,0c-0.2-0.1-0.3-0.3-0.4-0.4l-0.2,0.2
		c0,0,0.1,0,0.1,0c0.1,0,0.1,0.1,0.1,0.1c0,0,0.1,0.1,0.1,0.2c0,0.1,0,0.2,0,0.2c0,0-0.1,0.1-0.1,0c-0.2-0.1-0.3-0.2-0.4-0.3
		L14,49.6l0.6,0.4c0,0,0.1,0,0.1,0.1c0,0,0.1,0.1,0,0.1c0,0,0,0-0.1,0l-1.1-0.5c-0.1-0.1-0.3-0.1-0.3-0.1c0,0-0.1,0-0.1-0.1
		c0,0-0.1-0.2-0.1-0.3c0-0.2,0-0.3,0-0.3c0,0,0,0,0.1,0c0.2,0.2,0.4,0.3,0.5,0.4l0.1,0.1l0.2-0.2c0,0,0,0,0,0
		c-0.1,0-0.1-0.1-0.1-0.1c-0.1-0.1-0.1-0.1-0.1-0.2c0-0.1,0-0.2,0-0.2c0,0,0,0,0.1,0c0.1,0.1,0.3,0.2,0.4,0.3l0.2-0.2
		c-0.1-0.1-0.1-0.1-0.2-0.1c-0.1-0.1-0.1-0.1-0.2-0.1c0-0.1-0.1-0.1-0.1-0.2c0-0.1,0-0.2,0-0.2c0,0,0,0,0.1,0
		c0.4,0.4,0.7,0.6,0.9,0.7C15,48.9,15,48.9,15,49z M15.5,46c0,0,0,0.2-0.1,0.4c0,0.1-0.1,0.2-0.1,0.2c0,0-0.1,0-0.1,0
		c-0.1,0-0.3,0-0.4,0c-0.3,0-0.5,0-0.8,0c-0.2,0-0.5-0.1-0.7-0.1c0,0,0,0,0,0c0,0,0,0,0-0.1c0,0,0,0,0,0c0.4,0,0.8,0,1.2-0.1
		C14.8,46.3,15.1,46.2,15.5,46C15.4,46,15.5,46,15.5,46z M13.4,49.9c0,0,0,0.1,0.1,0.1c0.1,0.4,0.2,0.6,0.3,0.8c0,0.1,0,0.1,0,0.2
		c-0.1,0.1-0.2,0.1-0.3,0.2c-0.1,0-0.2,0-0.2,0c0,0,0-0.1,0-0.1c0-0.2,0-0.5,0-0.7C13.3,50,13.4,49.9,13.4,49.9
		C13.4,49.9,13.4,49.9,13.4,49.9z M17.5,48c0,0,0,0.2,0,0.4c0,0.2-0.1,0.3-0.1,0.4c0,0-0.1,0-0.1,0c-0.1,0-0.2,0-0.4,0.1
		c-0.1,0-0.1,0-0.2,0.1c0.1,0.1,0.2,0.1,0.2,0.2c0.2,0.1,0.3,0.2,0.4,0.2c0,0,0.1,0,0.1,0c0.1,0.1,0.1,0.2,0.1,0.3
		c0,0.2,0,0.3,0,0.3c0,0-0.1,0-0.1,0l-0.5-0.4c0,0.1,0,0.1,0,0.2c0,0.2-0.1,0.3-0.1,0.3c0,0-0.1,0-0.1,0c-0.1,0-0.2,0.1-0.3,0.2
		c-0.2,0.1-0.4,0.2-0.6,0.2c-0.1,0.5-0.1,0.8-0.1,0.9c0,0.1,0.1,0.3,0.3,0.6c0,0,0,0.1,0,0.1c0,0-0.1,0-0.1,0
		c-0.4-0.3-0.7-0.4-0.7-0.5c0,0,0-0.1,0-0.1c0.1-0.2,0.1-0.5,0.2-0.9c-0.3,0-0.5,0-0.7,0c-0.2,0-0.4-0.1-0.6-0.2
		c-0.2-0.1-0.2-0.1-0.3-0.1c0,0,0-0.1,0-0.1c0,0,0.1,0,0.1,0c0.4,0.1,0.7,0.2,1.1,0.1c0.1,0,0.3,0,0.5-0.1c0.1-0.5,0.2-0.8,0.2-1
		c0,0,0,0,0,0c-0.1,0-0.2,0-0.3,0c0,0-0.1,0-0.1,0c0,0,0-0.1,0-0.1c0,0,0,0,0.1,0c0.3-0.1,0.5-0.2,0.8-0.4c0.3-0.1,0.5-0.3,0.7-0.4
		C17.1,48.3,17.2,48.2,17.5,48C17.4,48,17.5,48,17.5,48z M15.5,48.5c0,0,0.1,0.1,0.1,0.2c0,0.1,0,0.2,0,0.2c0,0-0.1,0-0.1,0
		c-0.2-0.2-0.4-0.3-0.6-0.5c-0.2-0.2-0.4-0.3-0.4-0.3c0,0,0,0-0.1,0c0,0-0.1-0.1-0.1-0.2c0-0.1,0-0.2,0-0.2c0,0,0.1,0,0.1,0
		c0.2,0.1,0.3,0.2,0.3,0.3c0.1,0.1,0.2,0.1,0.2,0.2c0.1,0.1,0.2,0.1,0.3,0.2C15.4,48.5,15.4,48.5,15.5,48.5
		C15.5,48.5,15.5,48.5,15.5,48.5z M14.7,51.2c0,0,0,0.1,0.1,0.1c0.1,0.4,0.2,0.8,0.2,1c0,0.1,0,0.2,0,0.3c-0.1,0.1-0.2,0.2-0.3,0.2
		c-0.1,0-0.2,0-0.2,0c0,0,0-0.1,0-0.1c0-0.3,0.1-0.6,0.1-0.9C14.6,51.4,14.6,51.2,14.7,51.2C14.7,51.2,14.7,51.2,14.7,51.2z
		 M15.9,49.3c0,0,0.1,0.1,0.1,0.1c0.1,0.1,0.1,0.2,0.1,0.3c-0.1,0.1-0.1,0.2-0.2,0.5c0.3-0.2,0.6-0.4,0.9-0.6l0,0l-0.4-0.4
		c-0.1,0-0.1,0-0.2,0.1C16,49.2,15.9,49.2,15.9,49.3z"/>
	<path class="st0" d="M25.8,56.6c0.1,0,0.2,0.1,0.2,0.2c0.1,0.1,0.1,0.2,0.1,0.2c0,0,0,0.1,0,0c-0.2,0-0.5-0.1-0.7-0.1l-0.5,1.9
		c0,0.1-0.1,0.1-0.1,0.1c-0.1,0-0.1-0.1-0.2-0.3c0-0.2,0-0.3,0-0.4c0,0,0-0.1,0.1-0.2c0.1-0.1,0.1-0.2,0.2-0.4l0.2-0.8
		c-0.2,0-0.3,0-0.5-0.1c-0.1,0-0.2,0-0.3,0c0,0.1-0.1,0.2-0.1,0.2c-0.1,0.2-0.2,0.4-0.2,0.5c-0.1,0.1-0.2,0.2-0.3,0.3
		c-0.1,0.1-0.2,0.2-0.4,0.2c-0.2,0.1-0.3,0.1-0.4,0.1c-0.1,0-0.2,0-0.3,0c0,0,0,0,0,0c0,0,0,0,0.1-0.1c0.1,0,0.2-0.1,0.3-0.2
		c0.1-0.1,0.2-0.1,0.3-0.3c0.1-0.1,0.2-0.3,0.3-0.4c0.1-0.2,0.2-0.4,0.3-0.6l0,0c-0.2,0-0.3,0-0.3,0c-0.1,0-0.1,0-0.1,0
		c0,0-0.1-0.1-0.2-0.2c-0.1-0.1-0.1-0.2-0.1-0.2c0,0,0,0,0.1,0c0.4,0.1,0.6,0.1,0.8,0.1c0-0.1,0-0.1,0-0.2c0.1-0.2,0.1-0.4,0.1-0.7
		c0-0.2,0-0.3,0-0.3c0,0,0,0,0.1,0c0,0,0.1,0.1,0.2,0.3c0.1,0.2,0.2,0.3,0.2,0.4c0,0,0,0.1-0.1,0.2c-0.1,0.1-0.1,0.2-0.2,0.4
		c0.1,0,0.2,0,0.3,0c0.2,0,0.3,0,0.5,0l0.1-0.3c0.1-0.2,0.1-0.4,0.1-0.6c0-0.2,0-0.3,0-0.3c0,0,0,0,0.1,0c0.1,0,0.1,0.1,0.3,0.3
		c0.1,0.2,0.2,0.3,0.2,0.4c0,0.1-0.1,0.2-0.1,0.3c-0.1,0.1-0.1,0.2-0.1,0.4c0.1,0,0.1,0,0.2,0C25.7,56.6,25.8,56.6,25.8,56.6z
		 M28.7,55c0.1,0,0.2,0.1,0.3,0.3c0.1,0.2,0.2,0.3,0.2,0.3c0,0,0,0-0.1,0c-0.6-0.1-1.3-0.2-2.1-0.4c-0.1,0.4-0.2,0.8-0.2,1.2
		c0,0.5,0,0.8,0,1.1c0.3-0.2,0.5-0.4,0.6-0.6c0.2-0.2,0.4-0.5,0.4-0.8c0-0.1,0.1-0.1,0.1-0.1c0,0,0.1,0.1,0.2,0.3
		c0.1,0.2,0.1,0.3,0.1,0.4c0,0,0,0.1-0.1,0.1c-0.1,0.1-0.2,0.1-0.2,0.2c-0.2,0.2-0.4,0.4-0.6,0.6c-0.1,0.1-0.3,0.2-0.4,0.3
		c0.1,0.2,0.2,0.5,0.4,0.7c0.1,0.2,0.2,0.3,0.3,0.3c0.1,0,0.1,0,0.1,0c0.1,0,0.2-0.3,0.4-0.7c0-0.1,0.1-0.1,0.1-0.1
		c0,0,0.1,0,0.1,0.1c-0.1,0.6-0.1,1,0,1.4c0,0.1,0,0.1,0,0.2c0,0.1-0.1,0.1-0.1,0.1c-0.1,0-0.2-0.1-0.4-0.3
		c-0.2-0.2-0.4-0.3-0.6-0.6c-0.2-0.2-0.3-0.5-0.4-0.8c0-0.1-0.1-0.2-0.1-0.2l0,0c-0.3,0.1-0.7,0.3-1.1,0.4c-0.1,0-0.1,0-0.1,0
		c0,0-0.1,0,0-0.1c0,0,0,0,0.1-0.1c0.3-0.1,0.5-0.2,0.6-0.3c0.2-0.1,0.3-0.2,0.5-0.3c0-0.2-0.1-0.5-0.1-0.8c0-0.5,0.1-1.1,0.1-1.9
		c-0.1,0-0.2,0-0.4-0.1c-1.1-0.2-1.6-0.3-1.7-0.3c-0.1,0-0.1,0-0.2,0c-0.1,0-0.2-0.1-0.3-0.3c-0.1-0.1-0.1-0.2-0.1-0.2
		c0-0.1,0.1-0.1,0.2-0.1c0.3,0.1,1.1,0.3,2.3,0.5c0.1,0,0.2,0,0.2,0c0-0.2,0.1-0.4,0.1-0.6c0.1-0.4,0.1-0.6,0.1-0.7
		c0-0.1,0-0.2,0-0.2c0-0.1,0-0.1,0.1-0.1c0.1,0,0.2,0.2,0.3,0.4c0.2,0.2,0.2,0.4,0.2,0.5c0,0.1-0.1,0.2-0.1,0.3
		c-0.1,0.2-0.1,0.4-0.2,0.4l0,0c0.8,0.1,1.2,0.2,1.4,0.1C28.6,55,28.7,55,28.7,55z M27.8,53.8c0,0,0.1,0,0.1,0
		c0.3,0.2,0.5,0.3,0.6,0.4c0,0,0.1,0.1,0.1,0.1c0,0.1-0.1,0.2-0.1,0.3c-0.1,0.1-0.1,0.1-0.2,0.1c0,0-0.1,0-0.1-0.1
		c-0.1-0.2-0.2-0.3-0.3-0.5C27.8,54,27.8,53.9,27.8,53.8C27.8,53.8,27.8,53.8,27.8,53.8z"/>
	<path class="st0" d="M36.7,55.8c0,0,0.1,0,0.1,0c0.4,0,0.7,0,0.9,0.1c0.1,0,0.2,0,0.2,0.1c0,0.1,0,0.2,0,0.4c0,0.1,0,0.2-0.1,0.2
		c0,0-0.1,0-0.1,0c-0.2-0.1-0.4-0.2-0.7-0.4C36.8,56,36.7,55.9,36.7,55.8C36.7,55.9,36.7,55.8,36.7,55.8z M36.9,54.3
		c0,0,0.1,0,0.1,0c0.4,0,0.7,0,0.9,0c0.1,0,0.1,0,0.2,0.1c0,0.1,0.1,0.3,0.1,0.4c0,0.1,0,0.2-0.1,0.2c0,0-0.1,0-0.1,0
		c-0.2-0.1-0.4-0.2-0.7-0.4C37,54.4,36.9,54.3,36.9,54.3C36.9,54.3,36.9,54.3,36.9,54.3z M38.5,55.8C38.6,55.8,38.6,55.8,38.5,55.8
		c0.1,0.1,0.1,0.1,0.1,0.2c0,0.7,0,1.3,0,1.8c0,0.7,0,1.2,0,1.7c0,0.1,0,0.1-0.1,0.1s-0.1,0-0.2-0.1c-0.3-0.2-0.6-0.4-0.8-0.6
		c-0.1-0.1-0.2-0.1-0.2-0.2c0,0,0-0.1,0-0.1c0,0,0.1,0,0.3,0c0.2,0.1,0.3,0.1,0.4,0.1c0.1,0,0.1-0.1,0.1-0.2c0-0.2,0.1-0.6,0.1-1.2
		C38.4,56.9,38.4,56.4,38.5,55.8C38.5,55.8,38.5,55.8,38.5,55.8z M41.1,54.1c0.1,0,0.2,0,0.3,0c0.1,0.1,0.2,0.1,0.2,0.2
		c0,0,0,0.1,0,0.1c-0.4,0.1-0.8,0.3-1.2,0.5l0.3,1.1c0.3-0.1,0.6-0.2,0.8-0.3c0.2-0.1,0.3-0.1,0.4-0.2c0.1-0.1,0.2-0.1,0.2-0.1
		c0.1,0,0.2,0,0.4,0c0.2,0.1,0.2,0.1,0.2,0.2c0,0,0,0.1,0,0.1c-0.6,0.2-1.3,0.5-2,0.7c0,0,0,0-0.1,0c0,0,0,0,0.1,0
		c0.2,0.1,0.3,0.2,0.3,0.3c0,0,0,0.1,0,0.1c-0.2,0.2-0.3,0.5-0.5,0.9c-0.2,0.3-0.3,0.6-0.5,0.9l2.3-0.9c-0.2-0.2-0.5-0.4-0.9-0.6
		c-0.1,0-0.1-0.1-0.1-0.1c0,0,0-0.1,0-0.1c0.1,0,0.1,0,0.2,0c0.4,0.1,0.7,0.2,1.1,0.4c0.1,0,0.2,0.1,0.3,0.2c0,0.2,0.1,0.4,0.1,0.5
		c0,0.2,0,0.3-0.1,0.3c0,0-0.1,0-0.1-0.1c-0.1-0.1-0.2-0.3-0.4-0.4c-0.6,0.3-1.2,0.5-1.6,0.8c-0.5,0.3-0.8,0.4-0.9,0.5
		c0,0-0.1,0.1-0.1,0.1c0,0-0.1,0-0.3-0.1c-0.1-0.1-0.2-0.1-0.2-0.2c0,0,0-0.1,0-0.1c0.2-0.1,0.3-0.2,0.4-0.4c0.2-0.5,0.4-1,0.5-1.4
		c0-0.2,0.1-0.3,0.1-0.5c-0.5,0.2-0.8,0.3-0.9,0.4c-0.1,0-0.1,0.1-0.1,0.1c-0.1,0-0.2,0-0.3-0.1c-0.1-0.1-0.2-0.1-0.2-0.1
		c0,0,0-0.1,0.1-0.1c0.6-0.2,1-0.3,1.2-0.4c0.1,0,0.2-0.1,0.3-0.1L40,55c-0.4,0.2-0.7,0.3-0.8,0.3c0,0-0.1,0-0.1,0.1
		c-0.1,0-0.2,0-0.3-0.1c-0.1,0-0.2-0.1-0.2-0.1c0,0,0-0.1,0.1-0.1c0.4-0.1,0.7-0.2,0.9-0.3c0.1-0.1,0.3-0.1,0.4-0.2l0-0.1
		c-0.1-0.4-0.2-0.7-0.4-1c-0.2-0.2-0.3-0.4-0.3-0.4c0,0,0-0.1,0.1-0.1c0.1,0,0.2,0.1,0.5,0.2c0.3,0.1,0.5,0.3,0.5,0.3
		c0,0,0,0.1,0,0.2c0,0.2,0,0.5,0.1,0.7l0,0.1c0.1-0.1,0.3-0.1,0.4-0.2c0.1-0.1,0.2-0.1,0.3-0.2C41,54.2,41.1,54.1,41.1,54.1z"/>
	<path class="st0" d="M47.5,49c0,0,0.2,0,0.5,0.1c0,0,0.1,0,0.1,0l0.4-0.6c0.1-0.1,0.1-0.2,0-0.3c0-0.1,0-0.2,0-0.2
		c0,0,0.1-0.1,0.3-0.1c0.2,0,0.3,0,0.3,0c0,0,0,0.1,0,0.1c0,0.1,0,0.4,0.1,0.7c0.1,0.4,0.2,0.6,0.2,0.6c0,0,0.1,0.1,0.3,0
		c0.3,0,0.5,0.1,0.6,0.1c0.1,0.1,0.3,0.2,0.4,0.3c0.2,0.2,0.3,0.4,0.4,0.7c0.1,0.2,0.1,0.4,0,0.5c0,0-0.1,0-0.1,0
		c-0.4-0.1-0.7-0.2-0.9-0.2c-0.1,0-0.1,0-0.1,0c0,0,0,0,0-0.1c0,0,0,0,0.1,0c0.2-0.1,0.4-0.1,0.4-0.2c0,0,0.1-0.1,0.1-0.2
		c0-0.1-0.1-0.2-0.2-0.3c-0.1-0.1-0.3-0.2-0.5-0.3c-0.1-0.1-0.3-0.1-0.5-0.1c-0.1,0-0.1,0-0.1,0c0,0,0-0.1-0.1-0.1l-0.4-0.9
		l-0.5,0.7c0.1,0,0.1,0.1,0.2,0.1c1.8,1.7,2.8,2.7,3.1,3c0.1,0.1,0.2,0.2,0.3,0.3c0.1,0.1,0.1,0.2,0.1,0.3c0,0-0.2,0-0.4,0
		c-0.1,0-0.3-0.1-0.4-0.2c0,0-0.1-0.1-0.1-0.2c-0.1-0.2-0.1-0.3-0.2-0.4c-0.4-0.4-1.2-1.2-2.3-2.2c-0.3-0.3-0.5-0.5-0.7-0.6
		c-0.2-0.1-0.3-0.2-0.4-0.3C47.4,49,47.4,49,47.5,49z M49.4,46.5C49.4,46.5,49.4,46.5,49.4,46.5c0.3-0.1,0.5-0.2,0.7-0.2
		c0.1,0,0.1,0,0.1,0c0.1,0.1,0.2,0.2,0.2,0.3c0.1,0.2,0.1,0.3,0,0.4c0,0-0.1,0-0.1,0c-0.2-0.1-0.5-0.2-0.9-0.3
		C49.4,46.6,49.4,46.6,49.4,46.5C49.4,46.5,49.4,46.5,49.4,46.5z M49.4,47.6c0,0,0.2,0,0.4,0.2l0,0l0.6-0.7c0.3-0.3,0.5-0.6,0.7-0.9
		c0.1-0.2,0.1-0.3,0.1-0.4c0-0.2,0-0.3,0-0.4c0,0,0.1,0,0.3,0c0.2,0,0.3,0,0.3,0c0,0,0,0.1,0,0.2c0,0.2,0,0.6,0,1.1
		c0,0.1,0,0.1,0,0.1c0,0-0.1,0-0.1,0c0,0,0,0,0-0.1c-0.1-0.2-0.1-0.4-0.2-0.6L50,48.1c0.1,0.2,0.2,0.4,0.3,0.5c0,0.1,0,0.2,0,0.3
		c0,0-0.1,0-0.3,0c-0.1-0.1-0.2-0.1-0.3-0.1c0,0,0-0.1,0-0.1c0.1-0.3,0-0.6-0.2-0.9C49.4,47.6,49.4,47.6,49.4,47.6z M51.5,47.2
		c0.1-0.1,0.1-0.1,0.3-0.1c0.1,0,0.2,0,0.2,0c0,0,0,0,0,0.1c-0.2,0.2-0.4,0.5-0.6,0.8c-0.2,0.3-0.3,0.4-0.4,0.5c0,0,0,0.1,0,0.1
		c0,0-0.1,0.1-0.3,0.1c-0.1,0-0.2,0-0.2,0c0,0,0-0.1,0-0.1c0.2-0.2,0.3-0.4,0.3-0.4c0.1-0.1,0.1-0.2,0.2-0.3
		c0.1-0.1,0.2-0.2,0.2-0.3C51.4,47.4,51.4,47.4,51.5,47.2C51.5,47.3,51.5,47.2,51.5,47.2z M52.8,47.1c0.1-0.1,0.2-0.1,0.3-0.1
		c0.2,0,0.2,0,0.3,0c0,0,0,0.1,0,0.1c-0.3,0.4-0.6,0.8-1,1.2c0,0,0,0,0.1,0c0.2,0,0.3,0,0.4,0c0.1,0,0.1,0.1,0.1,0.2
		c0.1,0.2,0.2,0.3,0.4,0.5l0.5,0.5c0.1,0.1,0.2,0.1,0.2,0.2c0.1,0,0.1,0,0.2,0c0.1,0,0.2-0.1,0.3-0.3c0.1-0.1,0.2-0.2,0.3-0.3
		C55,49,55,48.9,55,48.8c0,0,0-0.1,0-0.1c-0.1-0.1-0.2-0.3-0.6-0.6c-0.1-0.1-0.1-0.1-0.1-0.1c0,0,0.1,0,0.1,0
		c0.3,0.2,0.6,0.3,0.8,0.4c0.1,0,0.1,0,0.1,0c0.1,0.1,0.1,0.2,0.1,0.2c0,0.1-0.1,0.3-0.2,0.4c-0.1,0.2-0.3,0.4-0.4,0.5
		c-0.1,0.1-0.3,0.3-0.4,0.4c-0.1,0.1-0.2,0.1-0.3,0.1c-0.1,0-0.2,0-0.3,0c-0.1,0-0.2-0.1-0.3-0.2L53,49.1c-0.2-0.2-0.4-0.3-0.5-0.4
		c-0.1-0.1-0.2-0.2-0.3-0.2c-0.2,0.2-0.3,0.4-0.4,0.5c0,0,0.1,0,0.1,0c0.2,0,0.3,0.1,0.4,0.1c0,0,0.1,0.1,0.1,0.2
		c0,0.1,0,0.2,0.1,0.4c0.2,0.3,0.3,0.6,0.3,0.9c0.1,0.3,0.1,0.6,0,0.9c0,0.2-0.1,0.5-0.2,0.7c0,0.1-0.1,0.2-0.1,0.3c0,0,0,0,0,0
		c0,0,0,0,0-0.1c0-0.4,0.1-0.7,0.1-0.9c0-0.3-0.1-0.5-0.1-0.7c-0.1-0.2-0.2-0.5-0.3-0.7c-0.2-0.3-0.3-0.5-0.5-0.7
		c-0.1,0.1-0.1,0.2-0.2,0.2c0,0.1-0.1,0.1-0.1,0.1c0,0-0.1,0.1-0.3,0.1c-0.1,0-0.2,0-0.2,0c0,0,0-0.1,0-0.1c0.3-0.4,0.6-0.7,0.7-0.8
		c0.2-0.2,0.3-0.4,0.4-0.5c0.2-0.3,0.3-0.5,0.5-0.6c0.1-0.1,0.2-0.3,0.2-0.3C52.8,47.2,52.8,47.1,52.8,47.1z"/>
</g>
<g>
	<path class="st3" d="M9.1,31.4l-6-0.5l0.1-1.6c0-0.4,0.1-0.6,0.2-0.8c0.1-0.3,0.3-0.5,0.5-0.7c0.3-0.2,0.6-0.4,1.1-0.5
		s0.9-0.1,1.4-0.1c0.5,0,0.9,0.1,1.2,0.2c0.3,0.1,0.6,0.2,0.8,0.4c0.2,0.1,0.4,0.3,0.5,0.5C9,28.5,9.1,28.7,9.2,29
		c0.1,0.2,0.1,0.5,0,0.8L9.1,31.4z M8.4,30.7l0.1-1c0-0.3,0-0.6-0.1-0.7c-0.1-0.2-0.2-0.3-0.3-0.4c-0.2-0.2-0.4-0.3-0.7-0.4
		C7.1,28,6.8,28,6.3,27.9c-0.6,0-1.1,0-1.5,0.1c-0.3,0.1-0.6,0.3-0.7,0.5C4,28.8,4,29,3.9,29.4l-0.1,1L8.4,30.7z"/>
	<path class="st3" d="M9.7,26.4l-5.9-1.3L4,24.5l5.9,1.3L9.7,26.4z"/>
	<path class="st3" d="M8.2,24.1l0.1-0.6c0.3,0.1,0.5,0.1,0.8,0.1c0.2,0,0.4-0.1,0.6-0.3c0.2-0.2,0.3-0.4,0.4-0.6
		c0.1-0.2,0.1-0.4,0.1-0.6c0-0.2-0.1-0.4-0.2-0.5c-0.1-0.1-0.3-0.2-0.4-0.3c-0.2-0.1-0.3-0.1-0.5-0.1s-0.3,0.1-0.5,0.3
		c-0.1,0.1-0.3,0.3-0.6,0.7c-0.3,0.4-0.5,0.6-0.7,0.7c-0.2,0.2-0.5,0.2-0.7,0.3s-0.5,0-0.8-0.1c-0.3-0.1-0.5-0.3-0.7-0.5
		c-0.2-0.2-0.3-0.5-0.4-0.8c0-0.3,0-0.6,0.1-0.9c0.1-0.3,0.3-0.6,0.5-0.8c0.2-0.2,0.5-0.3,0.8-0.4c0.3,0,0.6,0,1,0.1l-0.2,0.6
		c-0.4-0.1-0.7-0.1-0.9,0c-0.2,0.1-0.4,0.3-0.6,0.7c-0.1,0.4-0.1,0.6,0,0.9c0.1,0.2,0.3,0.4,0.5,0.5c0.2,0.1,0.4,0.1,0.6,0
		c0.2-0.1,0.4-0.3,0.7-0.7s0.6-0.7,0.7-0.8c0.2-0.2,0.5-0.3,0.8-0.4c0.3,0,0.6,0,0.9,0.1c0.3,0.1,0.6,0.3,0.8,0.5
		c0.2,0.2,0.3,0.5,0.4,0.8c0.1,0.3,0,0.6-0.1,0.9c-0.2,0.4-0.4,0.7-0.6,0.9c-0.3,0.2-0.6,0.3-0.9,0.4C9,24.3,8.6,24.2,8.2,24.1z"/>
	<path class="st3" d="M11.9,16.3l0.5-0.4c0.5,0.5,0.8,0.9,0.9,1.4s0,0.9-0.2,1.3c-0.3,0.4-0.6,0.7-1,0.8c-0.4,0.1-0.8,0.1-1.4,0
		c-0.5-0.1-1-0.3-1.5-0.7c-0.5-0.3-0.9-0.7-1.2-1.1c-0.3-0.4-0.4-0.8-0.5-1.2s0.1-0.8,0.3-1.2c0.3-0.4,0.6-0.7,1-0.8
		s0.9-0.1,1.5,0.1l-0.2,0.6c-0.4-0.1-0.8-0.2-1.1-0.1c-0.3,0.1-0.5,0.2-0.7,0.5c-0.2,0.3-0.3,0.6-0.2,0.9c0.1,0.3,0.2,0.6,0.5,0.9
		c0.3,0.3,0.6,0.5,0.9,0.7c0.4,0.3,0.8,0.5,1.2,0.6s0.7,0.1,1,0c0.3-0.1,0.5-0.3,0.7-0.5c0.2-0.3,0.2-0.6,0.2-1
		C12.5,17,12.3,16.7,11.9,16.3z"/>
	<path class="st3" d="M14.7,16.2l-4.5-3.9l0.4-0.5l4.6,3.9L14.7,16.2z"/>
	<path class="st3" d="M15.9,14.8l-4-4.5l1.3-1.2c0.2-0.2,0.4-0.4,0.6-0.4c0.2-0.1,0.4-0.2,0.6-0.2c0.2,0,0.4,0.1,0.7,0.2
		c0.2,0.1,0.5,0.3,0.6,0.5c0.3,0.4,0.5,0.8,0.6,1.2c0,0.4-0.2,0.9-0.7,1.3l-0.9,0.8l1.6,1.8L15.9,14.8z M14.3,12l0.9-0.8
		c0.3-0.3,0.5-0.5,0.5-0.8s-0.1-0.5-0.3-0.8c-0.2-0.2-0.3-0.3-0.5-0.4c-0.2-0.1-0.4-0.1-0.5,0c-0.1,0-0.3,0.2-0.5,0.3l-0.9,0.8
		L14.3,12z"/>
	<path class="st3" d="M19.5,11.8l-3.1-5.1l0.5-0.3l2.7,4.5l2-1.2l0.4,0.6L19.5,11.8z"/>
	<path class="st3" d="M22.9,9.9l-2.5-5.5L21,4.2l2.5,5.5L22.9,9.9z"/>
	<path class="st3" d="M24.6,9.1L23,3.4l0.6-0.2l3.7,3.9L26,2.5l0.6-0.2l1.6,5.8l-0.6,0.2l-3.7-3.9L25.2,9L24.6,9.1z"/>
	<path class="st3" d="M28.9,8l1.4-6.1l0.7,0l2.3,5.9l-0.7,0L32,5.9l-2,0.1l-0.4,1.9L28.9,8z M30.1,5.4l1.6-0.1l-0.6-1.6
		c-0.2-0.5-0.3-0.9-0.4-1.2c0,0.4-0.1,0.8-0.2,1.2L30.1,5.4z"/>
	<path class="st3" d="M34.1,7.7l0.8-6L36.9,2c0.4,0.1,0.7,0.1,0.9,0.3c0.2,0.1,0.4,0.3,0.4,0.6c0.1,0.3,0.1,0.6,0.1,0.9
		c-0.1,0.4-0.2,0.8-0.5,1c-0.3,0.3-0.6,0.4-1.1,0.4c0.2,0.1,0.3,0.2,0.3,0.3c0.2,0.2,0.3,0.5,0.4,0.9l0.6,1.7l-0.8-0.1l-0.5-1.3
		c-0.1-0.4-0.2-0.7-0.3-0.9c-0.1-0.2-0.2-0.4-0.3-0.4c-0.1-0.1-0.2-0.2-0.3-0.2c-0.1,0-0.2-0.1-0.3-0.1L35,5.2l-0.3,2.6L34.1,7.7z
		 M35.1,4.5l1.3,0.2c0.3,0,0.5,0,0.7,0s0.3-0.2,0.4-0.3s0.2-0.3,0.2-0.5c0-0.3,0-0.5-0.2-0.7s-0.4-0.3-0.7-0.4l-1.5-0.2L35.1,4.5z"
		/>
	<path class="st3" d="M40.2,8.9l0.8-2.4l-0.6-3.9l0.7,0.2l0.3,2c0.1,0.4,0.1,0.7,0.1,1.1c0.2-0.3,0.5-0.5,0.8-0.8l1.4-1.4l0.7,0.2
		l-2.9,2.7l-0.8,2.4L40.2,8.9z"/>
	<path class="st3" d="M49,11.3l0.4,0.5c-0.5,0.5-1,0.7-1.4,0.8s-0.9,0-1.3-0.3c-0.4-0.3-0.7-0.6-0.8-1s-0.1-0.9,0.1-1.4
		c0.2-0.5,0.4-1,0.7-1.5c0.4-0.5,0.8-0.9,1.2-1.2s0.8-0.4,1.3-0.4c0.4,0,0.8,0.1,1.1,0.4c0.4,0.3,0.6,0.6,0.7,1.1
		c0.1,0.4,0,0.9-0.2,1.4l-0.6-0.2c0.2-0.4,0.2-0.8,0.2-1.1c-0.1-0.3-0.2-0.5-0.5-0.7c-0.3-0.2-0.6-0.3-0.9-0.3S48.2,7.7,47.9,8
		c-0.3,0.2-0.6,0.5-0.8,0.9c-0.3,0.4-0.5,0.8-0.6,1.2s-0.1,0.7-0.1,1c0.1,0.3,0.3,0.5,0.5,0.7c0.3,0.2,0.6,0.3,0.9,0.2
		C48.2,11.9,48.6,11.6,49,11.3z"/>
	<path class="st3" d="M51,11.9c0.7-0.7,1.5-1,2.2-1.1c0.7-0.1,1.3,0.1,1.7,0.6c0.3,0.3,0.5,0.7,0.5,1.1c0,0.4-0.1,0.9-0.3,1.3
		c-0.2,0.5-0.6,0.9-1,1.3c-0.5,0.4-0.9,0.7-1.4,0.9c-0.5,0.2-0.9,0.2-1.4,0.1c-0.4-0.1-0.8-0.3-1-0.6c-0.3-0.3-0.5-0.7-0.5-1.2
		c0-0.4,0.1-0.9,0.3-1.3C50.3,12.7,50.7,12.3,51,11.9z M51.5,12.4c-0.5,0.5-0.9,1-1,1.5c-0.1,0.5,0,0.9,0.3,1.3
		c0.3,0.3,0.7,0.5,1.2,0.4c0.5-0.1,1.1-0.3,1.6-0.9c0.4-0.3,0.6-0.7,0.8-1c0.2-0.3,0.3-0.7,0.2-1c0-0.3-0.1-0.6-0.3-0.8
		c-0.3-0.3-0.7-0.5-1.2-0.5S52.1,11.8,51.5,12.4z"/>
	<path class="st3" d="M59.2,17.8l0.3,0.5l-3,1.7c-0.5,0.3-1,0.5-1.3,0.6c-0.4,0.1-0.7,0.1-1-0.1c-0.3-0.1-0.6-0.4-0.8-0.8
		C53.1,19.4,53,19,53,18.7c0-0.3,0.2-0.7,0.4-0.9c0.3-0.3,0.7-0.6,1.2-0.9l3-1.7l0.3,0.5l-3,1.7c-0.5,0.3-0.8,0.5-0.9,0.7
		c-0.2,0.2-0.3,0.4-0.3,0.6c0,0.2,0,0.5,0.2,0.7c0.2,0.4,0.5,0.6,0.8,0.7c0.3,0,0.8-0.1,1.5-0.5L59.2,17.8z"/>
	<path class="st3" d="M54.8,22.5l5.7-1.8l0.6,2c0.1,0.4,0.2,0.7,0.1,1c0,0.2-0.2,0.5-0.4,0.7c-0.2,0.2-0.5,0.4-0.8,0.5
		c-0.4,0.1-0.8,0.1-1.1,0c-0.3-0.1-0.6-0.4-0.8-0.8c0,0.2-0.1,0.3-0.2,0.4c-0.1,0.2-0.4,0.5-0.6,0.7l-1.3,1.3l-0.2-0.8l1-1
		c0.3-0.3,0.5-0.5,0.7-0.7c0.1-0.2,0.2-0.3,0.3-0.4c0-0.1,0.1-0.2,0.1-0.3c0-0.1,0-0.2-0.1-0.3l-0.2-0.7L55,23.1L54.8,22.5z
		 M58.2,22.1l0.4,1.3c0.1,0.3,0.2,0.5,0.3,0.6c0.1,0.1,0.3,0.2,0.5,0.2c0.2,0,0.4,0,0.6,0c0.3-0.1,0.5-0.2,0.6-0.4
		c0.1-0.2,0.1-0.5,0-0.8l-0.5-1.4L58.2,22.1z"/>
	<path class="st3" d="M56.3,28.5l5.3-0.6l-0.2-1.5l0.7-0.1l0.4,3.7l-0.7,0.1l-0.2-1.6l-5.3,0.6L56.3,28.5z"/>
</g>
<path class="st4" d="M3.2,42.1"/>
</svg>
