<?xml version="1.0" encoding="utf-8"?>
<!-- Generator: Adobe Illustrator 24.0.2, SVG Export Plug-In . SVG Version: 6.00 Build 0)  -->
<svg version="1.1" id="圖層_1" xmlns="http://www.w3.org/2000/svg" xmlns:xlink="http://www.w3.org/1999/xlink" x="0px" y="0px"
	 viewBox="0 0 270.8 64" style="enable-background:new 0 0 270.8 64;" xml:space="preserve">
<style type="text/css">
	.st0{fill:#FFFFFF;}
	.st1{fill:url(#SVGID_1_);}
	.st2{fill:#005BAB;}
	.st3{fill:#B7A246;}
	.st4{fill:none;stroke:#FFFFFF;stroke-width:0.25;stroke-miterlimit:10;}
</style>
<g>
	<path class="st0" d="M78.8,19.7c0.7,0.2,1.4,0.4,1.9,0.6c0.2,0,0.4,0.1,0.5,0.1v-1.7c0-0.6-0.1-1.1-0.2-1.5
		c0.5,0.1,1.1,0.2,1.9,0.3c0.7,0.1,1,0.2,1,0.4c0,0.2-0.2,0.4-0.5,0.5c-0.2,0.1-0.3,0.2-0.3,0.4v1h1.2v-2.3c0-0.5-0.1-1.1-0.2-1.7
		c0.9,0.1,1.7,0.2,2.5,0.4c0.5,0,0.8,0.2,0.8,0.4c0,0.1-0.1,0.2-0.4,0.3c-0.3,0.1-0.5,0.3-0.5,0.5v2.4h1V19c0-0.6-0.1-1.1-0.2-1.5
		c0.5,0.1,1.2,0.2,1.9,0.3c0.7,0.1,1,0.2,1,0.4c0,0.2-0.2,0.4-0.5,0.5c-0.2,0.1-0.4,0.2-0.4,0.4v1.4c0,0.2-0.3,0.4-0.8,0.5
		c-0.2,0-0.4,0-0.5,0c-0.3,0-0.5-0.1-0.5-0.4v-0.1h-4.4v0.3c0,0.2-0.3,0.4-0.9,0.5c-0.2,0-0.4,0.1-0.6,0.1c-0.2,0-0.4-0.1-0.4-0.3
		c0,0-0.1,0-0.1,0c-0.3,0-0.5,0.1-0.6,0.3c-0.2,0.3-0.4,0.6-0.7,1c0.4,0.1,0.6,0.2,0.6,0.4c0,0.2-0.1,0.4-0.4,0.5
		c-0.2,0.1-0.3,0.3-0.3,0.5v6.4c0,0.3-0.4,0.5-1.1,0.6c-0.3,0-0.6,0-0.7,0c-0.5,0-0.8-0.2-0.8-0.7c0.1-1.6,0.2-3.2,0.2-4.8v-0.7
		c-0.7,0.5-1.4,1-2.2,1.4l-0.2-0.3c0.6-0.6,1.3-1.5,2.1-2.6C77.8,22.2,78.4,21.1,78.8,19.7z M77.9,15.8c0.7,0.2,1.4,0.4,2,0.6
		c0.6,0.2,1,0.4,1,0.6c0,0.2-0.2,0.3-0.5,0.4c-0.3,0-0.5,0.1-0.6,0.2c-0.5,0.8-1,1.5-1.7,2.1c-0.6,0.5-1.4,1.1-2.4,1.7L75.4,21
		c0.7-0.9,1.2-1.7,1.5-2.4C77.3,17.8,77.6,16.9,77.9,15.8z M78.7,31.9l0.5,0.1c0,1.5-0.1,2.5-0.3,3.1c-0.2,0.6-0.5,1-1,1.2
		c-0.3,0.1-0.6,0.2-0.9,0.2c-0.5,0-0.9-0.1-1.2-0.4c-0.3-0.2-0.4-0.6-0.4-1c0-0.2,0.3-0.4,0.9-0.7c0.6-0.3,1.1-0.6,1.5-1
		C78.2,33.1,78.5,32.6,78.7,31.9z M80.9,23.6c0.8,0.1,1.8,0.2,3.3,0.2h2.1c0,0,0.2-0.2,0.6-0.6c0.2-0.2,0.4-0.4,0.5-0.5h-2.8
		c-1.4,0-2.3,0-2.9,0.1l-0.4-1c0.8,0.1,1.9,0.2,3.3,0.2h1.6c0,0,0.2-0.2,0.5-0.5c0.4-0.4,0.6-0.6,0.6-0.6c0.2,0,0.4,0.2,0.8,0.6
		c0.3,0.4,0.5,0.6,0.5,0.7c0,0.3-0.1,0.4-0.2,0.4h-0.3c0.2,0.1,0.4,0.3,0.6,0.5c0.3,0.4,0.6,0.6,0.6,0.7c0.3-1,0.6-2,0.8-3
		c0.2-1.3,0.4-2.8,0.6-4.6c0.8,0.2,1.6,0.4,2.3,0.7c0.7,0.2,1.1,0.5,1.1,0.8c0,0.2-0.2,0.3-0.6,0.4c-0.4,0-0.6,0.1-0.6,0.3
		c-0.2,0.6-0.4,1.1-0.5,1.7h1.2c0,0,0.3-0.2,0.7-0.7c0.6-0.7,1-1,1.1-1c0.2,0,0.6,0.4,1.5,1.1c0.5,0.5,0.8,0.8,0.8,0.9
		c0,0.2-0.1,0.4-0.4,0.4h-1.1c-0.3,1.4-0.7,2.7-1.2,4c-0.3,0.9-0.7,1.6-1.1,2.2c0.4,0.4,0.8,0.7,1.2,1c0.6,0.4,1.5,0.8,2.4,1.1
		l-0.1,0.5c-0.6,0.1-1.1,0.5-1.4,1.1c-0.2,0.5-0.4,0.8-0.5,0.8s-0.5-0.2-1-0.7c-0.5-0.5-1.1-1.2-1.6-2.1c-0.1-0.1-0.1-0.2-0.2-0.3
		c-0.4,0.4-0.8,0.7-1.3,1.1c-1,0.7-2.2,1.2-3.4,1.6l-0.2-0.4c1-0.7,1.8-1.3,2.5-2c0.6-0.6,1.1-1.3,1.5-2.1l0,0
		c-0.1-0.3-0.2-0.7-0.3-1c-0.2-0.7-0.4-1.5-0.5-2.5c-0.5,0.7-1,1.5-1.5,2.2L89,24.9c0.1-0.2,0.1-0.3,0.1-0.4h-2.9v1.5h0.6
		c0,0,0.2-0.2,0.5-0.5c0.4-0.4,0.6-0.6,0.7-0.6c0.2,0,0.4,0.2,0.8,0.7c0.4,0.4,0.6,0.7,0.6,0.8c0,0.3-0.1,0.4-0.3,0.4h-2.8v1.2
		c1.2-0.1,2.3-0.2,3.4-0.4l0.1,0.2c-2.2,1.1-4.6,1.9-7.2,2.4c-0.3,0-0.4,0.1-0.4,0.2c0,0.1-0.1,0.2-0.1,0.3c0,0.2-0.1,0.3-0.2,0.3
		c-0.3,0-0.6-0.5-0.9-1.4c-0.1-0.3-0.3-0.7-0.5-1.3c1.2,0,2.4-0.1,3.6-0.2v-1.4c-1,0-1.8,0-2.3,0.1l-0.4-0.9
		c0.7,0.1,1.5,0.1,2.6,0.2v-1.5c-1.3,0-2.2,0-2.7,0.1L80.9,23.6z M80.5,31c0.7,0.1,1.6,0.2,2.5,0.4c0.9,0.1,1.3,0.3,1.3,0.5
		c0,0.3-0.2,0.5-0.7,0.7c-0.3,0.1-0.4,0.3-0.4,0.6v1.4c0,0.5,0.2,0.7,0.5,0.8c0.7,0.1,1.8,0.2,3.2,0.2c0.9,0,1.6-0.1,2.2-0.2
		c0.4-0.1,0.7-0.2,0.9-0.4c0.1-0.1,0.3-0.4,0.5-0.8c0.2-0.5,0.4-1.1,0.7-1.9l0.4,0.1c0,0.9,0.1,1.4,0.1,1.6c0,0.5,0.2,0.9,0.6,1.1
		c0.5,0.3,0.8,0.5,0.8,0.8c0,0.4-0.3,0.8-0.9,1c-0.5,0.2-1,0.3-1.5,0.4c-0.9,0.2-2.2,0.2-3.7,0.2c-2.4,0-3.9-0.1-4.7-0.2
		c-0.6-0.1-1.1-0.4-1.3-0.8c-0.2-0.3-0.3-0.8-0.3-1.5v-1.4C80.7,32.7,80.6,31.8,80.5,31z M84.7,30.6c1.5,0.3,2.5,0.6,3,0.9
		c0.5,0.3,0.8,0.7,0.8,1.1c0,0.4-0.2,0.7-0.5,1.1c-0.2,0.2-0.5,0.4-0.9,0.4c-0.3,0-0.6-0.3-0.9-0.8c-0.3-0.8-0.9-1.6-1.7-2.3
		L84.7,30.6z M91.4,22.2c0.1,0.5,0.3,1,0.5,1.5c0.2,0.4,0.3,0.8,0.5,1.2c0.1-0.3,0.2-0.5,0.3-0.8c0.3-1,0.6-2.1,0.8-3.3H92
		C91.8,21.3,91.6,21.8,91.4,22.2z M92.8,31.7c1.4,0.4,2.4,0.8,3,1.3c0.5,0.5,0.7,1,0.7,1.6c0,0.4-0.2,0.8-0.5,1.2
		c-0.2,0.3-0.6,0.4-1,0.4c-0.3,0-0.6-0.4-0.8-1.1c-0.3-1-0.8-2-1.6-3L92.8,31.7z"/>
	<path class="st0" d="M109.2,19.9c0.8,0.1,1.9,0.2,3.3,0.2h8.9c0-0.4-0.1-0.9-0.1-1.3c0-1-0.1-2-0.3-3.2c1.4,0.2,2.4,0.3,3,0.4
		c0.9,0.1,1.3,0.3,1.3,0.5c0,0.1,0,0.1,0,0.1c0.9,0.2,1.6,0.4,2,0.6c0.5,0.2,0.7,0.5,0.7,0.9c0,0.4-0.2,0.9-0.6,1.3
		c-0.3,0.3-0.6,0.4-1,0.4c-0.3,0-0.5-0.3-0.7-0.8c-0.2-0.6-0.6-1.2-1.1-1.8c-0.4,0.1-0.6,0.3-0.7,0.6c0,0.8,0,1.6,0,2.3h3.3
		c0.1,0,0.3-0.3,0.8-0.8c0.5-0.6,0.9-0.9,1-0.9c0.3,0,0.7,0.3,1.3,0.9s0.9,1,0.9,1.1c0,0.2-0.1,0.4-0.4,0.4h-6.8
		c0.1,1.7,0.2,3.2,0.4,4.4c0.1,1,0.3,1.9,0.5,2.7c0.7-1.5,1.3-3.5,1.9-6c0.9,0.5,1.6,0.8,2.2,1.1c1,0.5,1.5,0.9,1.5,1.1
		c0,0.2-0.2,0.4-0.7,0.4c-0.5,0-0.7,0.1-0.8,0.3c-1,2.8-2,4.8-3.1,6c0,0,0,0,0,0.1c0.3,0.7,0.7,1.3,1.1,1.9c0.7,0.9,1.1,1.3,1.4,1.3
		c0.2,0,0.4-0.5,0.7-1.4c0.1-0.5,0.4-1.3,0.6-2.2l0.4,0.1c-0.1,2-0.1,3.3-0.1,3.8c0,0.4,0.1,0.8,0.4,1.2c0.3,0.4,0.4,0.7,0.4,1
		c0,0.7-0.3,1-1,1c-0.8,0-1.8-0.4-2.8-1.1s-1.9-1.6-2.5-2.6c-0.2-0.3-0.4-0.6-0.6-1c-0.7,0.5-1.4,1.1-2.1,1.5
		c-1.7,1.1-3.6,1.9-5.6,2.5l-0.2-0.4c2.1-1.2,3.8-2.4,4.9-3.4c0.7-0.6,1.4-1.4,2.1-2.3c-0.2-0.5-0.4-1.1-0.5-1.6
		c-0.6-1.7-1-4.5-1.2-8.4h-8.9c-1.4,0-2.3,0-2.9,0.1L109.2,19.9z M109.7,27.3c0.5,0.1,1.3,0.1,2.2,0.2c0-0.7,0-1.4,0-2.2
		c0-0.9-0.1-2.1-0.2-3.5c0.8,0.1,1.6,0.3,2.4,0.4c1.1,0.2,1.6,0.4,1.6,0.7c0,0.2-0.2,0.4-0.7,0.6c-0.4,0.1-0.6,0.3-0.6,0.5
		c0,1.5,0,2.7,0,3.7h2.1v-1.7c0-1.5-0.1-2.9-0.2-4c0.7,0.1,1.6,0.2,2.7,0.4c0.8,0.1,1.1,0.3,1.1,0.5c0,0.2-0.2,0.4-0.7,0.6
		c-0.3,0.1-0.5,0.3-0.5,0.6v3.4c0.1-0.1,0.2-0.2,0.3-0.4c0.5-0.5,0.7-0.8,0.8-0.8c0.2,0,0.6,0.3,1.1,0.8c0.5,0.5,0.8,0.9,0.8,1
		c0,0.2-0.1,0.4-0.4,0.4H119v5.7c0,0.3-0.4,0.5-1.1,0.7c-0.3,0-0.6,0.1-0.7,0.1c-0.6,0-0.8-0.3-0.8-0.8c0.1-1.4,0.2-2.7,0.2-3.9
		v-1.8h-2.1c0,0.9-0.1,1.6-0.1,1.9c-0.1,1.1-0.4,2.1-0.7,2.8c-0.3,0.8-0.7,1.4-1.2,2.1c-0.5,0.6-1.3,1.2-2.3,1.8l-0.2-0.4
		c0.5-0.7,0.9-1.6,1.2-2.5c0.3-0.7,0.5-1.6,0.6-2.7c0.1-0.6,0.2-1.6,0.2-3c-0.8,0-1.4,0-1.9,0.1L109.7,27.3z"/>
	<path class="st0" d="M143.1,21.8c1.6,0.3,2.8,0.7,3.4,1.1c0.5,0.4,0.8,0.8,0.8,1.3c0,0.5-0.2,0.9-0.6,1.4c-0.3,0.3-0.6,0.4-1.1,0.4
		c-0.4,0-0.7-0.3-1-1c-0.4-0.9-1-1.8-1.9-2.7L143.1,21.8z M150.1,21.5l0.5,0.1c-1,2.8-1.7,5-2.2,6.6c-0.4,1.6-0.7,2.6-0.7,3.2
		c0,0.5,0,1,0.1,1.6c0.2,1.2,0.4,2.1,0.4,2.7c0,0.4-0.1,0.7-0.3,0.9c-0.2,0.2-0.6,0.4-1.1,0.4c-0.6,0-1.1-0.1-1.5-0.4
		c-0.2-0.2-0.3-0.5-0.3-0.9c0-0.4,0.1-0.9,0.2-1.7c0-0.6,0-1,0-1.3c0-0.6-0.1-1-0.3-1.3c-0.2-0.3-0.8-0.6-1.8-0.9l0.1-0.6
		c1.1,0,1.8-0.1,2.1-0.2c0.3-0.2,0.6-0.5,0.7-1.1L150.1,21.5z M145.2,16.2c1.7,0.3,2.8,0.7,3.5,1.1c0.6,0.4,0.8,0.8,0.8,1.3
		c0,0.5-0.2,0.9-0.6,1.3c-0.3,0.3-0.6,0.5-1.1,0.5c-0.4,0-0.7-0.3-1-1c-0.4-0.9-1-1.8-1.9-2.7L145.2,16.2z M150.7,20.7
		c0.8,0.1,1.8,0.2,3.3,0.2h1v-2.9c0-0.7-0.1-1.4-0.2-2.2c1.1,0.1,2.1,0.3,3.1,0.4c0.6,0,1,0.2,1,0.5c0,0.1-0.2,0.2-0.6,0.4
		c-0.4,0.2-0.6,0.4-0.6,0.6v3.1h1.3c0.1,0,0.3-0.4,0.8-1c0.6-0.8,0.9-1.1,1-1.1c0.3,0,0.8,0.4,1.5,1.1c0.7,0.7,1,1.2,1,1.3
		c0,0.3-0.2,0.4-0.5,0.4h-5.2v5.1h2.2c0.1,0,0.4-0.4,0.9-1.1c0.6-0.8,1-1.2,1.1-1.2c0.3,0,0.8,0.4,1.5,1.1c0.7,0.8,1.1,1.2,1.1,1.4
		c0,0.2-0.2,0.4-0.5,0.4h-6.9c-0.7,2-1.6,3.7-2.5,5.1c-0.3,0.4-0.6,0.8-0.9,1.1c2.5-0.1,4.9-0.1,7.1-0.3c-0.5-1-1.2-2.1-2.2-3.4
		l0.4-0.3c2.1,1.1,3.5,2.1,4.3,2.9c0.8,0.8,1.2,1.6,1.2,2.2c0,0.6-0.2,1.1-0.5,1.5c-0.3,0.4-0.6,0.6-1.1,0.6c-0.3,0-0.6-0.1-0.9-0.3
		c-0.2-0.2-0.5-0.9-0.8-2c0-0.2-0.1-0.4-0.2-0.6c-2.8,1-5.7,1.7-8.7,2.1c-0.4,0-0.6,0.1-0.6,0.2c0,0.1-0.1,0.2-0.1,0.4
		c-0.1,0.2-0.2,0.4-0.3,0.4c-0.3,0-0.8-0.6-1.3-1.9c-0.1-0.3-0.4-0.9-0.7-1.7c1,0,1.9,0,2.9,0c0.3-0.6,0.5-1.3,0.8-2
		c0.5-1.2,0.8-2.7,1.1-4.2h-1.6c-1.4,0-2.3,0-2.9,0.1l-0.4-0.9c0.8,0.1,1.9,0.2,3.3,0.2h2.5v-5.1h-1c-1.4,0-2.3,0-2.9,0.1
		L150.7,20.7z"/>
	<path class="st0" d="M183.6,15.8c0.2,0,0.8,0.3,1.6,1c0.6,0.5,0.9,0.9,0.9,1.1c0,0.2-0.2,0.3-0.7,0.4c-0.5,0.1-0.8,0.3-0.9,0.4
		c-1,2.1-1.9,3.8-2.8,5.1c1.1,0.9,1.8,1.7,2.3,2.5c0.3,0.5,0.6,1,0.8,1.7c0.2,0.6,0.3,1.2,0.3,1.9c0,0.9-0.2,1.5-0.5,1.9
		c-0.3,0.5-0.7,0.9-1.1,1.1c-0.4,0.2-0.8,0.4-1,0.4c-0.2,0-0.4-0.3-0.5-0.8c-0.2-0.5-0.7-1-1.7-1.5v6.2c0,0.3-0.4,0.5-1.2,0.7
		c-0.3,0-0.6,0-0.8,0c-0.5,0-0.8-0.2-0.8-0.8c0.1-0.8,0.1-1.7,0.1-2.5V19.5c0-1.2-0.1-2.4-0.2-3.5c1.1,0.3,2.2,0.7,3.4,1.2h1.1
		c0.4-0.4,0.7-0.8,0.9-1C183.2,15.9,183.4,15.8,183.6,15.8z M180.4,17.8v12.4c0.6,0.1,1,0.1,1.4,0.1c0.4,0,0.6-0.1,0.8-0.2
		c0.2-0.2,0.2-0.6,0.2-1.2c0-1-0.1-1.9-0.4-2.6c-0.3-0.9-0.8-1.7-1.5-2.6c0.6-1.8,1.1-3.7,1.4-5.9H180.4z M184.8,26.9
		c0.8,0.1,1.8,0.2,3.3,0.2h6.6c0.1,0,0.3-0.3,0.8-0.9c0.6-0.7,0.9-1.1,1-1.1c0.3,0,0.7,0.3,1.4,1c0.7,0.7,1,1.1,1,1.2
		c0,0.2-0.2,0.4-0.5,0.4h-4.1v6.4c0,0.5,0.1,0.7,0.4,0.8c0.2,0,0.5,0.1,1,0.1c0.4,0,0.6-0.1,0.8-0.4c0.2-0.4,0.5-1.5,0.9-3.1
		l0.5,0.1l0.1,1.6c0,0.6,0.2,1,0.6,1.5c0.3,0.3,0.5,0.7,0.5,1c0,0.5-0.2,0.8-0.5,0.9c-0.6,0.4-1.5,0.5-2.8,0.5h-1.4
		c-0.5,0-0.9-0.1-1.3-0.2c-0.8-0.2-1.2-0.8-1.2-1.8v-7.4h-1.5c-0.1,1.8-0.4,3.1-0.8,4.1c-0.3,0.8-0.8,1.6-1.3,2.2
		c-0.5,0.6-1.2,1.2-2,1.7c-1.1,0.7-2.3,1.2-3.6,1.7l-0.3-0.6c0.7-0.3,1.4-0.8,2.1-1.4c0.7-0.6,1.2-1.3,1.7-2.1
		c0.5-0.7,0.8-1.5,1-2.3c0.3-0.9,0.4-2.1,0.4-3.4c-1,0-1.7,0-2.2,0.1L184.8,26.9z M189.6,15.8c1,0.1,2,0.2,3,0.4
		c0.6,0,0.9,0.2,0.9,0.5c0,0.1-0.2,0.2-0.6,0.4s-0.6,0.4-0.6,0.6v1.6h2.4c0.3-0.3,0.6-0.6,0.8-0.8c0.3-0.4,0.6-0.6,0.7-0.6
		c0.2,0,0.7,0.4,1.6,1.1c0.8,0.6,1.1,1,1.1,1.3c0,0.2-0.2,0.3-0.5,0.4c-0.4,0-0.7,0-0.8,0.1c-0.7,0.5-1.5,1-2.5,1.4l0.1,0
		c0.6,0.6,0.9,1,0.9,1.1c0,0.2-0.1,0.4-0.4,0.4h-6.7c-1.4,0-2.3,0-2.9,0.1l-0.4-0.9c0.8,0.1,1.9,0.2,3.3,0.2h3.2
		c0,0,0.3-0.3,0.7-0.8c0.5-0.6,0.8-0.9,0.9-0.9c0.1,0,0.3,0.1,0.5,0.2c0.2-0.5,0.4-1.1,0.6-1.6H187c0,0.6-0.1,1-0.1,1.3
		c-0.2,0.6-0.4,1-0.8,1.3c-0.2,0.1-0.4,0.2-0.7,0.2c-0.5,0-0.9-0.1-1.2-0.4c-0.3-0.2-0.4-0.6-0.4-1c0-0.2,0.3-0.5,0.8-0.8
		c0.5-0.3,1-0.6,1.3-1s0.6-0.9,0.8-1.6l0.4,0.1c0,0.5,0,0.9,0,1.2h2.7v-1.5C189.8,17.1,189.7,16.5,189.6,15.8z"/>
</g>
<g>
	<path class="st0" d="M77.8,41H80c1.5,0,2.5,0.2,3.3,0.5s1.3,1,1.8,1.8c0.5,0.8,0.7,1.8,0.7,2.9c0,0.8-0.1,1.5-0.4,2.1
		c-0.3,0.6-0.6,1.2-1.1,1.6c-0.5,0.4-0.9,0.7-1.5,0.9c-0.5,0.2-1.4,0.2-2.7,0.2h-2.3V41z M79.7,42.9v6.3h0.9c0.9,0,1.5-0.1,1.9-0.3
		c0.4-0.2,0.7-0.5,1-1s0.4-1.1,0.4-1.8c0-1.1-0.3-1.9-0.9-2.5c-0.5-0.5-1.4-0.8-2.6-0.8H79.7z"/>
	<path class="st0" d="M88.3,40.6c0.3,0,0.6,0.1,0.8,0.4c0.2,0.2,0.4,0.5,0.4,0.9c0,0.3-0.1,0.6-0.3,0.9c-0.2,0.2-0.5,0.4-0.8,0.4
		c-0.3,0-0.6-0.1-0.8-0.4c-0.2-0.2-0.4-0.5-0.4-0.9c0-0.3,0.1-0.6,0.3-0.8S88,40.6,88.3,40.6z M87.4,43.6h1.9v7.4h-1.9V43.6z"/>
	<path class="st0" d="M95.7,44.7l-1.2,1.2c-0.5-0.5-0.9-0.7-1.3-0.7c-0.2,0-0.4,0-0.5,0.1s-0.2,0.2-0.2,0.3c0,0.1,0,0.2,0.1,0.3
		c0.1,0.1,0.3,0.2,0.6,0.3l0.7,0.3c0.7,0.4,1.2,0.7,1.5,1.1s0.4,0.8,0.4,1.3c0,0.7-0.2,1.2-0.7,1.7c-0.5,0.4-1.1,0.7-2,0.7
		c-1.1,0-2-0.4-2.6-1.3l1.1-1.3c0.2,0.3,0.5,0.5,0.8,0.6c0.3,0.2,0.6,0.2,0.8,0.2c0.2,0,0.4-0.1,0.6-0.2c0.2-0.1,0.2-0.3,0.2-0.4
		c0-0.3-0.3-0.6-0.8-0.8l-0.6-0.3c-1.2-0.6-1.8-1.4-1.8-2.3c0-0.6,0.2-1.1,0.7-1.5c0.5-0.4,1-0.6,1.7-0.6c0.5,0,0.9,0.1,1.4,0.3
		C95,44,95.4,44.3,95.7,44.7z"/>
	<path class="st0" d="M104.8,45.1l-1.6,0.9c-0.3-0.3-0.6-0.5-0.9-0.6c-0.3-0.1-0.6-0.2-1-0.2c-0.7,0-1.3,0.2-1.7,0.6
		c-0.4,0.4-0.6,0.9-0.6,1.6c0,0.6,0.2,1.1,0.6,1.5s1,0.6,1.6,0.6c0.8,0,1.5-0.3,2-0.9l1.5,1c-0.8,1-1.9,1.6-3.4,1.6
		c-1.3,0-2.3-0.4-3.1-1.2c-0.7-0.8-1.1-1.7-1.1-2.7c0-0.7,0.2-1.4,0.5-2c0.4-0.6,0.9-1.1,1.5-1.4c0.6-0.3,1.4-0.5,2.2-0.5
		c0.7,0,1.4,0.1,2,0.4S104.4,44.6,104.8,45.1z"/>
	<path class="st0" d="M107.4,40.6c0.3,0,0.6,0.1,0.8,0.4c0.2,0.2,0.4,0.5,0.4,0.9c0,0.3-0.1,0.6-0.3,0.9c-0.2,0.2-0.5,0.4-0.8,0.4
		c-0.3,0-0.6-0.1-0.8-0.4c-0.2-0.2-0.4-0.5-0.4-0.9c0-0.3,0.1-0.6,0.3-0.8S107.1,40.6,107.4,40.6z M106.5,43.6h1.9v7.4h-1.9V43.6z"
		/>
	<path class="st0" d="M112.1,43.6v0.8c0.3-0.3,0.7-0.6,1.1-0.8c0.4-0.2,0.8-0.3,1.3-0.3c1,0,1.8,0.4,2.5,1.1c0.7,0.7,1,1.7,1,2.8
		c0,1.1-0.4,2-1.1,2.8s-1.5,1.1-2.5,1.1c-0.4,0-0.8-0.1-1.2-0.2c-0.4-0.2-0.7-0.4-1.1-0.7v3.5h-1.9V43.6H112.1z M114.1,45.2
		c-0.6,0-1.1,0.2-1.5,0.6c-0.4,0.4-0.6,0.9-0.6,1.6c0,0.7,0.2,1.2,0.6,1.6c0.4,0.4,0.9,0.6,1.5,0.6c0.6,0,1-0.2,1.4-0.6
		c0.4-0.4,0.6-0.9,0.6-1.6c0-0.6-0.2-1.2-0.6-1.6C115.1,45.4,114.6,45.2,114.1,45.2z"/>
	<path class="st0" d="M119.5,40.8h1.9v10.3h-1.9V40.8z"/>
	<path class="st0" d="M124,40.6c0.3,0,0.6,0.1,0.8,0.4c0.2,0.2,0.4,0.5,0.4,0.9c0,0.3-0.1,0.6-0.3,0.9c-0.2,0.2-0.5,0.4-0.8,0.4
		c-0.3,0-0.6-0.1-0.8-0.4c-0.2-0.2-0.4-0.5-0.4-0.9c0-0.3,0.1-0.6,0.3-0.8S123.7,40.6,124,40.6z M123.1,43.6h1.9v7.4h-1.9V43.6z"/>
	<path class="st0" d="M126.8,43.6h1.9v0.8c0.4-0.4,0.8-0.6,1.2-0.7c0.3-0.1,0.7-0.2,1.1-0.2c0.7,0,1.4,0.3,1.9,0.8
		c0.4,0.4,0.6,1.1,0.6,1.9v4.9h-1.8v-3.3c0-0.9,0-1.5-0.1-1.8c-0.1-0.3-0.2-0.5-0.4-0.7c-0.2-0.2-0.4-0.2-0.7-0.2
		c-0.4,0-0.7,0.1-1,0.4c-0.3,0.3-0.5,0.6-0.6,1c-0.1,0.2-0.1,0.7-0.1,1.5v3h-1.9V43.6z"/>
	<path class="st0" d="M140.9,43.6h1.9v7.4h-1.9v-0.8c-0.4,0.3-0.7,0.6-1.1,0.7c-0.4,0.2-0.8,0.2-1.2,0.2c-1,0-1.8-0.4-2.5-1.1
		s-1.1-1.7-1.1-2.8c0-1.1,0.3-2.1,1-2.8c0.7-0.7,1.5-1.1,2.5-1.1c0.4,0,0.9,0.1,1.3,0.3c0.4,0.2,0.8,0.4,1.1,0.8V43.6z M139,45.2
		c-0.6,0-1.1,0.2-1.4,0.6c-0.4,0.4-0.6,0.9-0.6,1.6c0,0.6,0.2,1.2,0.6,1.6c0.4,0.4,0.9,0.6,1.4,0.6c0.6,0,1.1-0.2,1.5-0.6
		c0.4-0.4,0.6-0.9,0.6-1.6c0-0.6-0.2-1.2-0.6-1.6C140.1,45.4,139.6,45.2,139,45.2z"/>
	<path class="st0" d="M144.5,43.6h1.6v0.9c0.2-0.4,0.4-0.6,0.7-0.8s0.6-0.3,0.9-0.3c0.2,0,0.5,0.1,0.8,0.2l-0.6,1.6
		c-0.2-0.1-0.4-0.2-0.5-0.2c-0.3,0-0.5,0.2-0.7,0.5c-0.2,0.4-0.3,1.1-0.3,2.1l0,0.4v3h-1.9V43.6z"/>
	<path class="st0" d="M148.8,43.6h1.9l1.9,4.7l2.1-4.7h1.9L152,53.8h-1.9l1.5-3.3L148.8,43.6z"/>
	<path class="st0" d="M171.5,42.8l-1.3,1.3c-0.9-1-1.9-1.4-3.1-1.4c-1,0-1.8,0.3-2.4,1c-0.7,0.7-1,1.5-1,2.4c0,0.7,0.1,1.3,0.4,1.8
		c0.3,0.5,0.7,0.9,1.2,1.2c0.5,0.3,1.1,0.4,1.8,0.4c0.6,0,1.1-0.1,1.5-0.3c0.5-0.2,1-0.6,1.5-1.1l1.3,1.4c-0.7,0.7-1.4,1.2-2.1,1.5
		c-0.7,0.3-1.4,0.4-2.3,0.4c-1.6,0-2.8-0.5-3.8-1.5c-1-1-1.5-2.3-1.5-3.8c0-1,0.2-1.9,0.7-2.7c0.5-0.8,1.1-1.4,1.9-1.9
		c0.8-0.5,1.8-0.7,2.7-0.7c0.8,0,1.6,0.2,2.4,0.5C170.3,41.6,170.9,42.1,171.5,42.8z"/>
	<path class="st0" d="M176.7,43.4c0.7,0,1.4,0.2,2,0.5c0.6,0.4,1.1,0.8,1.4,1.4s0.5,1.3,0.5,1.9c0,0.7-0.2,1.4-0.5,2
		c-0.3,0.6-0.8,1.1-1.4,1.4c-0.6,0.3-1.3,0.5-2,0.5c-1.1,0-2-0.4-2.7-1.1c-0.8-0.8-1.1-1.7-1.1-2.8c0-1.2,0.4-2.1,1.3-2.9
		C174.8,43.8,175.7,43.4,176.7,43.4z M176.7,45.2c-0.6,0-1.1,0.2-1.4,0.6s-0.6,0.9-0.6,1.5c0,0.6,0.2,1.2,0.6,1.6
		c0.4,0.4,0.9,0.6,1.4,0.6c0.6,0,1.1-0.2,1.5-0.6c0.4-0.4,0.6-0.9,0.6-1.6c0-0.6-0.2-1.2-0.6-1.6C177.8,45.4,177.3,45.2,176.7,45.2z
		"/>
	<path class="st0" d="M182.3,43.6h1.9v3.6c0,0.7,0,1.2,0.1,1.5c0.1,0.3,0.2,0.5,0.5,0.6c0.2,0.2,0.5,0.2,0.8,0.2
		c0.3,0,0.6-0.1,0.8-0.2c0.2-0.1,0.4-0.4,0.5-0.7c0.1-0.2,0.1-0.7,0.1-1.4v-3.6h1.9v3.2c0,1.3-0.1,2.2-0.3,2.7
		c-0.3,0.6-0.6,1-1.1,1.3c-0.5,0.3-1.1,0.5-1.9,0.5c-0.8,0-1.5-0.2-2-0.5c-0.5-0.4-0.9-0.9-1.1-1.5c-0.1-0.5-0.2-1.3-0.2-2.5V43.6z"
		/>
	<path class="st0" d="M190.5,43.6h1.6v0.9c0.2-0.4,0.4-0.6,0.7-0.8s0.6-0.3,0.9-0.3c0.2,0,0.5,0.1,0.8,0.2l-0.6,1.6
		c-0.2-0.1-0.4-0.2-0.5-0.2c-0.3,0-0.5,0.2-0.7,0.5c-0.2,0.4-0.3,1.1-0.3,2.1l0,0.4v3h-1.9V43.6z"/>
	<path class="st0" d="M195.9,40.9h1.9v2.7h1.1v1.6h-1.1v5.8h-1.9v-5.8h-1v-1.6h1V40.9z"/>
</g>
<g>
	<circle class="st0" cx="32.8" cy="31.3" r="30.3"/>
</g>
<linearGradient id="SVGID_1_" gradientUnits="userSpaceOnUse" x1="32.8223" y1="60.7278" x2="32.8223" y2="37.472">
	<stop  offset="0.6854" style="stop-color:#B7A246"/>
	<stop  offset="1" style="stop-color:#FFFFFF"/>
</linearGradient>
<path class="st1" d="M61.7,37.7c-3,13-14.9,23-28.8,23c-13.9,0-25.9-10.2-28.9-23.3h7.4c2.8,9,11.5,16.1,21.5,16.1
	c10,0,18.6-6.8,21.4-15.8H61.7z"/>
<g>
	<path class="st2" d="M53.8,31.2c0,11.6-9.4,21-21,21s-21-9.4-21-21c0-11.6,9.4-21,21-21S53.8,19.7,53.8,31.2z"/>
</g>
<g>
	<path class="st0" d="M34.5,33.7H34h-2.8V42c0,0.9,0.8,1.7,1.7,1.7c0.9,0,1.6-0.8,1.6-1.7L34.5,33.7z"/>
	<path class="st0" d="M35.7,43.9h-5.8c-0.4,0-0.8,0.3-0.8,0.6v0.8c0,0.4,0.3,0.7,0.8,0.7h5.8c0.4,0,0.8-0.3,0.8-0.7v-0.8
		C36.5,44.2,36.2,43.9,35.7,43.9z"/>
	<path class="st0" d="M36.9,46.8h-8c-0.6,0-1,0.3-1,0.7v0.8c0,0.4,0.4,0.7,1,0.7h8c0.6,0,1-0.3,1-0.7v-0.8
		C37.8,47.1,37.4,46.8,36.9,46.8z"/>
	<path class="st0" d="M49.1,23.2c0-0.3-0.2-0.5-0.4-0.6c-0.4-0.3-1-0.2-1.4,0.1c-1.1,1.1-2.7,1.7-4.4,1.7c-1.7,0-3.2-0.6-4.3-1.6
		c-1.5-1.3-3.5-2.1-5.7-2.1c-2.1,0-4.1,0.7-5.5,1.9l0,0l-0.2,0.2l0,0c-1.1,1.1-2.7,1.7-4.4,1.7c-1.7,0-3.3-0.6-4.4-1.7
		c-0.2-0.2-0.4-0.3-0.7-0.3c-0.2,0-0.5,0-0.7,0.2c-0.2,0.2-0.4,0.4-0.4,0.6l0,0v0.1c0,0.2,0.1,0.4,0.3,0.6c1.5,1.4,3.6,2.3,5.9,2.3
		c2.1,0,4-0.7,5.5-1.9l0,0c0,0,0,0,0,0c0,0,0.1-0.1,0.1-0.1c1.1-1.1,2.7-1.7,4.4-1.7c1.7,0,3.2,0.6,4.3,1.6c1.4,1.3,3.5,2.1,5.7,2.1
		c2.3,0,4.4-0.8,5.9-2.3C49,23.8,49.1,23.5,49.1,23.2C49.1,23.3,49.1,23.3,49.1,23.2z M49.1,23.2C49.1,23.2,49.1,23.2,49.1,23.2
		C49.1,23.2,49.1,23.2,49.1,23.2L49.1,23.2z"/>
	<path class="st0" d="M36.3,17c0,1.9-1.5,3.5-3.5,3.5c-1.9,0-3.4-1.5-3.4-3.5c0-1.9,1.5-3.5,3.4-3.5C34.8,13.5,36.3,15.1,36.3,17z"
		/>
	<path class="st0" d="M27.8,38.3l-5.3-12c-0.1-0.2-0.3-0.3-0.5-0.3c-0.2,0-0.4,0.1-0.5,0.4v0l-5.3,12c-0.1,0.2-0.1,0.4,0,0.6
		c1,1.9,3.3,3.2,5.8,3.2c2.5,0,4.8-1.2,5.8-3.2C27.8,38.8,27.8,38.5,27.8,38.3z M21.9,28.1c0.3,0.7,4.3,9.8,4.6,10.4h-9.2
		c0.2-0.5,3.1-7,3.1-7S21.6,28.7,21.9,28.1z"/>
	<path class="st0" d="M49.7,38.3l-5.3-12c-0.1-0.2-0.3-0.3-0.5-0.3c-0.2,0-0.4,0.1-0.5,0.4v0l-5.3,12c-0.1,0.2-0.1,0.4,0,0.6
		c1,1.9,3.3,3.2,5.8,3.2c2.5,0,4.8-1.2,5.8-3.2C49.8,38.8,49.8,38.5,49.7,38.3z M43.9,28.1c0.3,0.7,4.3,9.8,4.6,10.4h-9.2
		c0.2-0.4,2-4.5,2-4.5S43.6,28.8,43.9,28.1z"/>
	<path class="st0" d="M38.4,25.4c-1,0-0.9,0.9-0.9,0.9h-1.2v-0.5h-7v0.5h-1.2c0,0,0.1-0.9-0.9-0.9c0,0-0.8,0-0.8,1v4.4
		c0,1.1,0.8,1,0.8,1c1,0,0.9-0.9,0.9-0.9h1.2v0.5h1.8l0,1.6l3.3,0v-1.6h1.9v-0.5h1.2c0,0-0.1,0.9,0.9,0.9c0,0,0.8,0,0.8-1v-4.4
		C39.2,25.4,38.4,25.4,38.4,25.4z"/>
</g>
<g>
	<path class="st0" d="M20.9,55.6c-0.4,0.3-0.8,0.6-1.2,0.8l-0.2-0.3c0.4-0.2,0.8-0.5,1.2-0.8L20.9,55.6z M22.3,53
		c-0.1,0.1-0.3,0.2-0.6,0.4l-0.7,1.7l-0.3-0.1l0.6-1.4c-0.2,0.1-0.4,0.1-0.6,0.2l0-0.3c0.5-0.1,1-0.4,1.5-0.7L22.3,53z M23.8,57.2
		c-0.1,0.2-0.2,0.3-0.3,0.4s-0.2,0.2-0.3,0.2c-0.1,0-0.4-0.1-1-0.3l-0.8-0.3c-0.3-0.1-0.4-0.3-0.3-0.6l0.4-0.9l0.3,0.1l-0.4,0.9
		c0,0.1,0,0.1,0,0.2s0.3,0.2,0.8,0.4c0.4,0.2,0.6,0.2,0.8,0.3c0.2,0,0.3-0.1,0.5-0.5L23.8,57.2z M22.7,52.1
		c-0.6,0.4-1.1,0.6-1.5,0.6l0-0.3c0.4,0,0.9-0.2,1.3-0.5L22.7,52.1z M23.5,55.8c-0.6-0.1-1.3-0.3-2.1-0.6l0.1-0.3
		c0.3,0.1,0.7,0.2,1,0.3l0.1-0.4l-0.8-0.3l0.1-0.2l0.8,0.3l0.1-0.3c-0.3-0.1-0.6-0.2-0.9-0.3l0-0.3c0.8,0.3,1.4,0.5,2,0.6l0,0.3
		c-0.3-0.1-0.6-0.1-0.8-0.2L23,54.8l0.8,0.3l-0.1,0.2L22.9,55l-0.1,0.3c0.2,0.1,0.5,0.2,0.9,0.2L23.5,55.8z M24,54.2l-1.7-0.7
		l0.1-0.2l1.7,0.7L24,54.2z M22.8,56.8l-0.3,0c0-0.2-0.1-0.5-0.2-0.9h0.3C22.7,56.3,22.8,56.6,22.8,56.8z M24.3,53.8L22.5,53
		l0.3-0.7l0.3,0.1l-0.2,0.5l0.5,0.2l0.3-0.7l0.3,0.1l-0.3,0.7l0.5,0.2l0.2-0.5l0.3,0.1L24.3,53.8z M25.3,56.8L25,56.9
		c-0.1-0.3-0.2-0.7-0.3-0.9c-0.3,0.2-0.7,0.3-1.1,0.4L23.5,56c0.5-0.1,0.9-0.2,1.1-0.4c-0.1-0.3-0.2-0.6-0.3-0.7l0.3-0.1
		c0.1,0.2,0.2,0.4,0.3,0.6c0.3-0.3,0.5-0.6,0.7-1.2L25,54.1c-0.2,0.2-0.4,0.4-0.7,0.6l-0.1-0.3c0.4-0.2,0.8-0.6,1.3-1.2l0.2,0.2
		c-0.2,0.3-0.4,0.4-0.5,0.6l1.1,0.4l-0.1,0.3l-0.3-0.1c-0.2,0.6-0.5,1-0.8,1.3C25.1,56.1,25.2,56.5,25.3,56.8z M24.8,58l-0.3,0.1
		c-0.1-0.3-0.2-0.8-0.5-1.4l0.3-0.1C24.5,57,24.7,57.5,24.8,58z"/>
	<path class="st0" d="M30,57.1L29.2,57l-0.2,1.3l-0.3,0l0.2-1.3L28,56.9c-0.1,0.9-0.6,1.7-1.3,2.1l-0.2-0.3c0.7-0.4,1.1-1.1,1.2-1.9
		l-0.9-0.1l0-0.3l0.9,0.1l0.1-1.2l0.3,0l-0.1,1.2l0.9,0.1l0.1-1.2l0.3,0l-0.1,1.2l0.7,0.1L30,57.1z M32.1,58.4
		c0,0.2-0.1,0.4-0.3,0.6c-0.1,0.2-0.2,0.4-0.3,0.4c-0.1,0-0.2,0.1-0.3,0.1c-0.2,0-0.3-0.1-0.5-0.3c-0.1-0.2-0.2-0.5-0.4-1
		c-0.4,0.4-1,0.7-1.5,1L28.7,59c0.7-0.3,1.2-0.7,1.6-1c-0.1-0.6-0.1-1.4,0-2.6L27,54.9l0-0.3l3.3,0.4c0-0.2,0.1-0.5,0.1-0.9l0.3,0
		c0,0.1,0,0.3-0.1,0.4c0,0.2,0,0.3,0,0.4l1.7,0.2l0,0.3l-1.7-0.2c-0.1,0.9-0.1,1.7-0.1,2.2c0.3-0.3,0.7-0.8,1.1-1.6l0.3,0.2
		c-0.4,0.7-0.8,1.3-1.3,1.8c0,0.3,0.1,0.6,0.2,0.8c0.1,0.2,0.2,0.4,0.3,0.4c0.2,0,0.4-0.3,0.6-1L32.1,58.4z M32.2,55l-0.3,0.2
		c-0.1-0.2-0.3-0.4-0.6-0.6l0.3-0.2C31.9,54.6,32.1,54.8,32.2,55z"/>
	<path class="st0" d="M34.8,55l-0.2,0.3c-0.3-0.2-0.7-0.5-1.1-0.6l0.2-0.3C34.1,54.6,34.4,54.8,34.8,55z M34.8,56.5l-0.2,0.3
		c-0.3-0.2-0.6-0.4-1.1-0.6l0.2-0.3C34.2,56.1,34.6,56.3,34.8,56.5z M35,57.5c-0.3,0.9-0.6,1.6-0.9,2.1l-0.3-0.2
		c0.3-0.5,0.6-1.2,0.9-2.1L35,57.5z M39.1,56.4l-2,0.3c-0.3,0.9-0.7,1.6-1.1,2.2c0.9-0.2,1.7-0.5,2.5-0.7c-0.3-0.3-0.5-0.6-0.8-0.8
		l0.3-0.2c0.6,0.6,1.1,1.2,1.4,1.7L39.1,59c-0.2-0.2-0.3-0.5-0.4-0.6c-0.9,0.3-1.9,0.6-3.1,0.9L35.4,59c0.2-0.1,0.4-0.4,0.6-0.8
		s0.5-0.9,0.6-1.4l-1.6,0.2l0-0.3l1.8-0.2l-0.2-1.2l-1.5,0.2l0-0.3l1.5-0.2L36.6,54l0.3,0l0.1,0.9l1.5-0.2l0,0.3l-1.5,0.2l0.2,1.2
		l1.8-0.2L39.1,56.4z"/>
	<path class="st0" d="M41.2,54.8c0.5,0.3,0.8,0.6,1,1.1c0.1,0.2,0.1,0.3,0,0.5c0,0.1-0.2,0.3-0.5,0.4c-0.1,0-0.1,0.1-0.2,0.1
		l-0.2-0.2l0.3-0.1c0.2-0.1,0.3-0.1,0.3-0.2c0-0.1,0-0.1,0-0.2c-0.2-0.4-0.5-0.8-1-1c0-0.4-0.1-0.9-0.1-1.5l-0.9,0.4l1.9,4.4
		l-0.3,0.1l-2-4.7l1.5-0.6l0.1,0.3C41.1,53.8,41.1,54.3,41.2,54.8z M44.9,53.1l-0.3,0.1l-0.4-0.8l-2.5,1.1l0.4,0.8l-0.3,0.1
		l-0.5-1.1l1.4-0.6c-0.1-0.1-0.2-0.3-0.4-0.4l0.3-0.2c0.2,0.1,0.3,0.3,0.5,0.5l1.4-0.6L44.9,53.1z M45.9,55.1
		c0.1,0.3,0.2,0.5,0.2,0.7s0,0.3-0.1,0.4c-0.1,0.1-0.2,0.2-0.5,0.3c-0.3,0.1-0.5,0.1-0.6-0.1l-0.7-1.7L43.5,55
		c0.2,0.6,0.3,1.2,0.2,1.5s-0.3,0.8-0.7,1.2l-0.3-0.1c0.4-0.3,0.6-0.7,0.7-1.1s0-0.8-0.2-1.3l-0.9,0.4l-0.1-0.3l3.1-1.3l0.1,0.3
		l-0.9,0.4l0.7,1.6c0,0,0,0.1,0.1,0.1c0,0,0.1,0,0.3-0.1c0.1-0.1,0.2-0.1,0.2-0.1c0,0,0.1-0.1,0.1-0.1c0,0,0-0.1-0.1-0.3
		s-0.1-0.3-0.2-0.5L45.9,55.1z M44.4,53.4l-2,0.9L42.3,54l2-0.9L44.4,53.4z"/>
</g>
<g>
	<path class="st3" d="M8.6,16.6l0.6-0.9c0.3-0.4,0.7-0.7,1.3-0.7c0.5,0,1.1,0.2,1.7,0.5s0.9,0.8,1.1,1.4c0.2,0.5,0.1,1-0.2,1.4
		l-0.6,0.8L8.6,16.6z M12.2,18.3l0.1-0.2c0.5-0.7,0.3-1.4-0.6-2s-1.6-0.5-2.1,0.2l-0.1,0.2L12.2,18.3z"/>
	<path class="st3" d="M14.8,16.1l-0.4,0.5l-3.6-3l0.4-0.5L14.8,16.1z"/>
	<path class="st3" d="M13.8,11.7c-0.3-0.1-0.6,0-0.7,0.1c-0.1,0.1-0.2,0.2-0.1,0.4s0.1,0.3,0.2,0.4s0.4,0.2,0.9,0.1
		c0.5-0.1,0.7-0.1,0.7-0.1c0.4,0,0.7,0.1,0.9,0.3c0.3,0.3,0.5,0.7,0.6,1c0.1,0.4,0,0.7-0.3,0.9c-0.3,0.3-0.8,0.4-1.4,0.2l-0.1-0.6
		c0.2,0.1,0.4,0.1,0.6,0.1s0.4,0,0.5-0.2c0.1-0.1,0.2-0.3,0.1-0.5s-0.1-0.3-0.3-0.5c-0.1-0.1-0.2-0.2-0.4-0.2c-0.1,0-0.5,0-0.9,0.2
		c-0.5,0.1-0.9,0.1-1.2-0.3c-0.3-0.3-0.4-0.6-0.5-0.9s0-0.6,0.2-0.8c0.3-0.3,0.7-0.4,1.1-0.4L13.8,11.7z"/>
	<path class="st3" d="M16.8,9.4c-0.4-0.1-0.7-0.1-0.9,0.1c-0.3,0.2-0.4,0.5-0.3,0.9c0,0.4,0.2,0.8,0.5,1.2c0.3,0.3,0.6,0.6,1,0.7
		c0.4,0.1,0.7,0.1,1-0.1c0.2-0.2,0.4-0.5,0.3-0.9l0.6,0.8c-0.1,0.3-0.3,0.6-0.5,0.7c-0.4,0.3-0.9,0.4-1.4,0.2
		c-0.6-0.2-1.1-0.5-1.5-1c-0.4-0.5-0.7-1.1-0.7-1.7s0.2-1.1,0.6-1.4c0.2-0.2,0.5-0.3,0.8-0.3L16.8,9.4z"/>
	<path class="st3" d="M20.1,11.5l-0.5,0.3L17,7.9l0.5-0.3L20.1,11.5z"/>
	<path class="st3" d="M21.1,10.8l-0.5,0.3L18.3,7l0.9-0.5c0.7-0.4,1.4-0.2,1.8,0.7c0.5,0.9,0.4,1.5-0.3,1.9l-0.4,0.2L21.1,10.8z
		 M20,8.8l0.3-0.1c0.4-0.2,0.5-0.6,0.2-1.1c-0.3-0.5-0.6-0.6-1-0.4l-0.3,0.1L20,8.8z"/>
	<path class="st3" d="M23.3,9l1-0.4l0.3,0.6L23,9.9l-1.8-4.3l0.6-0.2L23.3,9z"/>
	<path class="st3" d="M25.5,8.9l-0.6,0.2l-1.5-4.4L24,4.5L25.5,8.9z"/>
	<path class="st3" d="M25.1,4l0.5-0.1l2.8,3l-0.7-3.3l0.6-0.1l1,4.7l-0.5,0.1l-2.8-3l0.7,3.3l-0.6,0.1L25.1,4z"/>
	<path class="st3" d="M30.5,6.8l-0.3,1.1l-0.7,0L30.7,3l0.6,0l1.7,4.7l-0.7,0l-0.4-1L30.5,6.8z M31,4.2l-0.4,2l1.1-0.1L31,4.2z"/>
	<path class="st3" d="M35.7,7.9l-0.8,0L34,5.7l-0.1,2.1l-0.6,0l0.3-4.7l1,0.1c0.8,0.1,1.2,0.5,1.1,1.5c0,0.4-0.1,0.6-0.3,0.9
		c-0.2,0.2-0.4,0.3-0.6,0.4L35.7,7.9z M34.1,5.4l0.2,0c0.5,0,0.8-0.2,0.8-0.8c0-0.5-0.2-0.8-0.7-0.9l-0.2,0L34.1,5.4z"/>
	<path class="st3" d="M36.7,3.3l0.7,0.1l0.4,1.8l1.1-1.6l0.7,0.1L38,6.1l-0.4,2.1l-0.6-0.1L37.3,6L36.7,3.3z"/>
	<path class="st3" d="M44.7,6.9c-0.1-0.4-0.2-0.6-0.5-0.8c-0.3-0.1-0.6-0.1-1,0.2c-0.3,0.2-0.6,0.6-0.8,1c-0.2,0.4-0.2,0.8-0.2,1.2
		c0.1,0.4,0.3,0.7,0.6,0.8c0.3,0.1,0.6,0.1,0.9-0.1L43.4,10c-0.3,0.1-0.6,0-0.9-0.1c-0.5-0.2-0.8-0.6-0.9-1.2S41.5,7.6,41.8,7
		c0.3-0.6,0.7-1.1,1.2-1.4c0.5-0.3,1-0.4,1.5-0.2c0.2,0.1,0.5,0.3,0.6,0.6L44.7,6.9z"/>
	<path class="st3" d="M45,8.4c0.4-0.6,0.8-1,1.4-1.2c0.5-0.2,1-0.2,1.5,0.1s0.7,0.7,0.7,1.3c0,0.6-0.1,1.2-0.5,1.8s-0.8,1-1.3,1.2
		c-0.5,0.2-1,0.2-1.5-0.1s-0.7-0.7-0.7-1.3C44.4,9.5,44.6,8.9,45,8.4z M45.5,8.7c-0.2,0.4-0.4,0.8-0.3,1.2c0,0.4,0.2,0.7,0.4,0.9
		c0.3,0.2,0.6,0.2,1,0c0.4-0.2,0.7-0.5,0.9-0.9c0.2-0.4,0.4-0.8,0.3-1.2c0-0.4-0.2-0.7-0.5-0.9c-0.3-0.2-0.6-0.2-1,0
		C46.1,8,45.8,8.3,45.5,8.7z"/>
	<path class="st3" d="M50.2,9l0.5,0.4l-1.7,2c-0.7,0.8-0.8,1.3-0.4,1.6s0.9,0.1,1.5-0.7l1.7-2l0.5,0.4l-1.8,2.1
		c-0.9,1-1.6,1.2-2.3,0.6s-0.6-1.4,0.3-2.4L50.2,9z"/>
	<path class="st3" d="M51.3,16.6L50.8,16l0.9-2.2l-1.6,1.4l-0.4-0.5l3.5-3.1l0.7,0.7c0.5,0.6,0.5,1.2-0.2,1.9
		c-0.3,0.2-0.5,0.4-0.8,0.4s-0.5,0-0.7-0.2L51.3,16.6z M51.9,13.7l0.1,0.1c0.3,0.4,0.7,0.4,1.1,0c0.4-0.4,0.4-0.7,0.1-1.1l-0.1-0.1
		L51.9,13.7z"/>
	<path class="st3" d="M52.2,17.8l-0.3-0.5l3.2-2.3l-0.5-0.7l0.5-0.4l1.3,1.8l-0.5,0.4l-0.5-0.7L52.2,17.8z"/>
</g>
<path class="st4" d="M3.2,42.1"/>
</svg>
