<?xml version="1.0" encoding="utf-8"?>
<!-- Generator: Adobe Illustrator 24.0.2, SVG Export Plug-In . SVG Version: 6.00 Build 0)  -->
<svg version="1.1" id="圖層_1" xmlns="http://www.w3.org/2000/svg" xmlns:xlink="http://www.w3.org/1999/xlink" x="0px" y="0px"
	 viewBox="0 0 220.1 64" style="enable-background:new 0 0 220.1 64;" xml:space="preserve">
<style type="text/css">
	.st0{fill:#333333;}
	.st1{fill:none;stroke:#FFFFFF;stroke-width:0.25;stroke-miterlimit:10;}
	.st2{fill:#FFFFFF;}
	.st3{fill:url(#SVGID_1_);}
	.st4{fill:#96C0F8;}
	.st5{fill:#B7A246;}
	.st6{fill:#2D068D;}
	.st7{fill:#494670;}
	.st8{opacity:0.74;fill:#FFFFFF;}
	.st9{opacity:0.53;fill:#77FCFA;}
</style>
<g>
	<path class="st0" d="M116.2,26.5c-0.7,2.2-1.8,4.1-3.2,5.5c1.3,0.9,2.7,1.6,4.4,1.9c-0.5,0.4-1,1.2-1.3,1.8
		c-1.7-0.5-3.3-1.3-4.6-2.3c-1.4,1.1-2.9,1.8-4.5,2.4c-0.2-0.5-0.7-1.3-1.2-1.7v1.8h-2.1v-2.2c-2.9,0.3-5.7,0.6-7.9,0.9l-0.2-2
		c0.6,0,1.4-0.1,2.2-0.2v-7.7h-2v-1.8h21v1.8h-11V34c1.5-0.4,2.9-1.2,4.2-2.1c-1.1-1.2-1.9-2.5-2.5-4l0.6-0.2h-1.4V26h7.9l0.4-0.1
		L116.2,26.5z M100.7,22h-2.1v-7.3H114V22h-2.2v-5.7h-11.1C100.7,16.3,100.7,22,100.7,22z M99.7,24.7V26h3.9v-1.3H99.7z M99.7,29
		h3.9v-1.3h-3.9V29z M99.7,32.2c1.2-0.1,2.6-0.3,3.9-0.4v-1.2h-3.9V32.2z M110.7,17.4v1.4h-9.1v-1.4H110.7z M101.6,19.9h9.1v1.4
		h-9.1V19.9z M109.3,27.7c0.5,1.1,1.2,2.1,2.1,2.9c0.9-0.8,1.6-1.8,2.1-2.9H109.3z"/>
	<path class="st0" d="M141.9,16.3v1.9h-21v-1.9h9.5c-0.2-0.6-0.5-1.4-0.7-2l2.3-0.5c0.3,0.8,0.7,1.7,0.9,2.5H141.9z M141.2,33.7
		c0,1.1-0.3,1.5-1,1.8s-1.8,0.3-3.5,0.3c-0.1-0.5-0.4-1.2-0.7-1.7c1,0,2.2,0,2.5,0s0.4-0.1,0.4-0.4v-6.5h-15v8.7h-2.2V25.4h19.5
		V33.7z M138.8,19.3v4.9h-14.4v-4.9H138.8z M128.3,33.5v1.1h-2.1v-6.2h10.2v5.1C136.4,33.5,128.3,33.5,128.3,33.5z M136.4,20.9h-9.8
		v1.8h9.8V20.9z M128.3,30v1.8h6.1V30H128.3z"/>
	<path class="st0" d="M150.1,24.8c-0.9-0.8-2.9-1.9-4.4-2.6l1.2-1.7c1.5,0.6,3.5,1.6,4.5,2.4L150.1,24.8z M146.5,34.1
		c1.3-1.8,3.1-4.9,4.5-7.6l1.6,1.5c-1.2,2.5-2.8,5.4-4.2,7.6L146.5,34.1z M148.3,14.1c1.5,0.6,3.5,1.7,4.5,2.4l-1.3,1.8
		c-0.9-0.8-2.9-2-4.5-2.7L148.3,14.1z M165.3,35.9c-0.2-0.6-0.5-1.4-1-2.3c-8.5,1-9.6,1.2-10.3,1.6c-0.1-0.5-0.5-1.6-0.8-2.2
		c0.5-0.1,1-0.7,1.5-1.6c0.5-0.7,1.9-3,3-5.5h-4.9v-2.1h5.9v-3.9h-4.9v-2.1h4.9v-3.9h2.3v3.9h5.1v2.1H161v3.9h6v2.1h-6.6
		c-1.1,2.4-2.5,4.7-3.8,6.6l6.7-0.7c-0.6-1-1.2-1.9-1.9-2.8l1.8-0.9c1.7,2.1,3.4,4.9,4.1,6.8L165.3,35.9z"/>
	<path class="st0" d="M178.9,15.6c-0.7,2-1.5,4.3-2.2,6.2c1.6,2,1.9,3.7,1.9,5.1s-0.3,2.4-1,2.9c-0.4,0.3-0.8,0.4-1.3,0.5
		c-0.4,0-1,0-1.6,0c0-0.6-0.2-1.4-0.5-1.9c0.5,0,0.9,0,1.2,0s0.5-0.1,0.7-0.2c0.3-0.3,0.5-0.9,0.5-1.6c0-1.2-0.4-2.8-2-4.6
		c0.6-1.6,1.2-3.6,1.7-5.2h-2.6v19h-2v-21h5.4l0.3-0.1L178.9,15.6z M190.6,33.7c0.5,0,0.6-0.4,0.6-3c0.5,0.4,1.3,0.7,1.9,0.8
		c-0.2,3.2-0.7,4-2.2,4H189c-1.8,0-2.3-0.6-2.3-2.6v-5.7h-2.1c-0.4,4.2-1.5,7-6.1,8.6c-0.2-0.6-0.8-1.4-1.3-1.8
		c4-1.3,4.9-3.4,5.2-6.8h-3.1v-2h13.5v2h-4v5.6c0,0.6,0.1,0.7,0.5,0.7h1.3L190.6,33.7L190.6,33.7z M181,21.2h-1.9v-4.4h5.8
		c-0.3-0.8-0.7-1.8-1.1-2.5l2.1-0.6c0.6,1,1.2,2.2,1.5,3.1h5.2v4.4h-1.9V23H181V21.2z M181.2,18.7V21h9.3v-2.4h-9.3V18.7z"/>
</g>
<g>
	<path class="st0" d="M96.8,49.4l0.8-0.5c0.5,1,1.2,1.5,1.9,1.5c0.3,0,0.6-0.1,0.9-0.2c0.3-0.1,0.5-0.3,0.6-0.6
		c0.1-0.2,0.2-0.5,0.2-0.8s-0.1-0.6-0.3-0.9c-0.3-0.4-0.8-0.9-1.6-1.5c-0.8-0.6-1.2-1-1.4-1.2c-0.3-0.4-0.5-0.9-0.5-1.4
		c0-0.4,0.1-0.8,0.3-1.1s0.5-0.6,0.8-0.8s0.7-0.3,1.1-0.3s0.8,0.1,1.2,0.3c0.4,0.2,0.8,0.6,1.2,1.2l-0.7,0.6
		c-0.3-0.5-0.6-0.8-0.9-0.9c-0.2-0.1-0.5-0.2-0.8-0.2c-0.4,0-0.7,0.1-0.9,0.3c-0.2,0.2-0.4,0.5-0.4,0.8c0,0.2,0,0.4,0.1,0.6
		c0.1,0.2,0.2,0.4,0.5,0.6c0.1,0.1,0.5,0.4,1.2,0.9c0.8,0.6,1.3,1.1,1.6,1.6c0.3,0.5,0.4,0.9,0.4,1.4c0,0.7-0.3,1.2-0.8,1.7
		s-1.1,0.7-1.8,0.7c-0.6,0-1.1-0.1-1.5-0.4C97.6,50.6,97.2,50.1,96.8,49.4z"/>
	<path class="st0" d="M104.1,44.3h0.9v3.2c0,0.8,0,1.3,0.1,1.6c0.1,0.4,0.4,0.7,0.7,1c0.3,0.2,0.8,0.4,1.3,0.4s0.9-0.1,1.2-0.3
		c0.3-0.2,0.6-0.5,0.7-0.9c0.1-0.3,0.1-0.8,0.1-1.7v-3.2h0.9v3.3c0,0.9-0.1,1.6-0.3,2.1s-0.5,0.8-1,1.1c-0.4,0.3-1,0.4-1.6,0.4
		s-1.2-0.1-1.6-0.4s-0.8-0.6-1-1.1s-0.3-1.2-0.3-2.2L104.1,44.3L104.1,44.3z"/>
	<path class="st0" d="M112.3,44.3h0.9v1.2c0.3-0.5,0.7-0.8,1.2-1.1c0.4-0.2,0.9-0.4,1.5-0.4c1,0,1.8,0.3,2.5,1s1,1.5,1,2.5
		s-0.3,1.8-1,2.5s-1.5,1-2.4,1c-0.5,0-1-0.1-1.5-0.3s-0.9-0.6-1.2-1v3.6h-0.9L112.3,44.3L112.3,44.3z M115.8,45
		c-0.8,0-1.4,0.3-1.9,0.8s-0.8,1.2-0.8,2c0,0.5,0.1,1,0.3,1.4c0.2,0.4,0.6,0.7,1,1s0.9,0.4,1.4,0.4s0.9-0.1,1.3-0.4
		c0.4-0.2,0.7-0.6,1-1c0.2-0.4,0.4-0.9,0.4-1.4s-0.1-0.9-0.4-1.4c-0.2-0.4-0.6-0.8-1-1S116.2,45,115.8,45z"/>
	<path class="st0" d="M120.9,44.3h0.9v1c0.3-0.4,0.5-0.7,0.8-0.9s0.6-0.3,0.9-0.3c0.2,0,0.5,0.1,0.8,0.2l-0.5,0.7
		c-0.1,0-0.3,0-0.4,0c-0.3,0-0.6,0.1-0.8,0.4c-0.3,0.2-0.5,0.6-0.6,1.1c-0.1,0.4-0.2,1.2-0.2,2.3v2.3h-0.9
		C120.9,51.1,120.9,44.3,120.9,44.3z"/>
	<path class="st0" d="M131.1,48.8l0.7,0.4c-0.2,0.5-0.5,0.9-0.8,1.1c-0.3,0.2-0.7,0.5-1.1,0.7s-0.8,0.2-1.3,0.2
		c-1.1,0-2-0.4-2.6-1.1c-0.6-0.7-0.9-1.5-0.9-2.4s0.3-1.6,0.8-2.3c0.7-0.9,1.6-1.3,2.7-1.3c1.1,0,2.1,0.4,2.8,1.3
		c0.5,0.6,0.7,1.4,0.7,2.3H126c0,0.8,0.3,1.4,0.8,1.9s1.1,0.8,1.8,0.8c0.3,0,0.7-0.1,1-0.2c0.3-0.1,0.6-0.3,0.8-0.5
		C130.6,49.6,130.8,49.3,131.1,48.8z M131.1,47c-0.1-0.5-0.3-0.8-0.5-1.1s-0.5-0.5-0.9-0.7s-0.7-0.3-1.1-0.3c-0.7,0-1.2,0.2-1.7,0.6
		c-0.3,0.3-0.6,0.8-0.8,1.4L131.1,47L131.1,47z"/>
	<path class="st0" d="M134,44.3h0.9v1.2c0.3-0.4,0.6-0.7,0.9-0.9c0.4-0.3,0.9-0.4,1.4-0.4c0.3,0,0.6,0.1,0.9,0.2
		c0.3,0.1,0.5,0.3,0.7,0.5s0.3,0.5,0.5,0.9c0.3-0.5,0.7-0.9,1.1-1.2c0.4-0.3,0.9-0.4,1.4-0.4s0.9,0.1,1.2,0.4c0.4,0.2,0.6,0.6,0.8,1
		s0.3,1.1,0.3,1.9v3.7h-0.9v-3.7c0-0.7-0.1-1.2-0.2-1.5c-0.1-0.3-0.3-0.5-0.5-0.7s-0.5-0.2-0.9-0.2s-0.8,0.1-1.2,0.4
		c-0.3,0.2-0.6,0.6-0.8,1s-0.2,1.1-0.2,2.1v2.6h-0.9v-3.5c0-0.8-0.1-1.4-0.2-1.7c-0.1-0.3-0.3-0.5-0.5-0.7c-0.3-0.2-0.6-0.3-0.9-0.3
		c-0.4,0-0.8,0.1-1.1,0.4c-0.3,0.2-0.6,0.6-0.8,1s-0.3,1-0.3,1.9v2.9H134V44.3z"/>
	<path class="st0" d="M151.9,48.8l0.7,0.4c-0.2,0.5-0.5,0.9-0.8,1.1c-0.3,0.2-0.7,0.5-1.1,0.7s-0.8,0.2-1.3,0.2
		c-1.1,0-2-0.4-2.6-1.1c-0.6-0.7-0.9-1.5-0.9-2.4s0.3-1.6,0.8-2.3c0.7-0.9,1.6-1.3,2.7-1.3s2.1,0.4,2.8,1.3c0.5,0.6,0.7,1.4,0.7,2.3
		h-6.1c0,0.8,0.3,1.4,0.8,1.9s1.1,0.8,1.8,0.8c0.3,0,0.7-0.1,1-0.2c0.3-0.1,0.6-0.3,0.8-0.5C151.4,49.6,151.6,49.3,151.9,48.8z
		 M151.9,47c-0.1-0.5-0.3-0.8-0.5-1.1s-0.5-0.5-0.9-0.7s-0.7-0.3-1.1-0.3c-0.7,0-1.2,0.2-1.7,0.6c-0.3,0.3-0.6,0.8-0.8,1.4L151.9,47
		L151.9,47z"/>
	<path class="st0" d="M167.2,43.6l-0.7,0.6c-0.4-0.5-0.9-0.9-1.4-1.2c-0.6-0.3-1.2-0.4-1.8-0.4c-0.7,0-1.4,0.2-2,0.5
		s-1.1,0.8-1.4,1.4s-0.5,1.3-0.5,2c0,1.1,0.4,2,1.1,2.8s1.7,1.1,2.9,1.1c1.3,0,2.3-0.5,3.2-1.5l0.7,0.5c-0.5,0.6-1,1-1.7,1.3
		s-1.4,0.5-2.3,0.5c-1.6,0-2.9-0.5-3.8-1.6c-0.8-0.9-1.2-2-1.2-3.2c0-1.3,0.5-2.5,1.4-3.4s2.1-1.4,3.5-1.4c0.9,0,1.6,0.2,2.3,0.5
		S166.8,43,167.2,43.6z"/>
	<path class="st0" d="M172.4,44.2c1,0,1.9,0.4,2.6,1.1c0.6,0.7,0.9,1.5,0.9,2.4s-0.3,1.8-1,2.5s-1.5,1.1-2.5,1.1s-1.9-0.4-2.5-1.1
		c-0.7-0.7-1-1.5-1-2.5c0-0.9,0.3-1.7,0.9-2.4C170.5,44.5,171.4,44.2,172.4,44.2z M172.4,45c-0.7,0-1.3,0.3-1.9,0.8
		s-0.8,1.2-0.8,1.9c0,0.5,0.1,0.9,0.4,1.4s0.6,0.7,1,1s0.8,0.3,1.3,0.3s0.9-0.1,1.3-0.3s0.7-0.6,1-1s0.4-0.9,0.4-1.4
		c0-0.8-0.3-1.4-0.8-1.9S173.1,45,172.4,45z"/>
	<path class="st0" d="M177.8,44.3h0.9v3.2c0,0.8,0,1.3,0.1,1.6c0.1,0.4,0.4,0.7,0.7,1c0.3,0.2,0.8,0.4,1.3,0.4s0.9-0.1,1.2-0.3
		s0.6-0.5,0.7-0.9c0.1-0.3,0.1-0.8,0.1-1.7v-3.2h0.9v3.3c0,0.9-0.1,1.6-0.3,2.1s-0.5,0.8-1,1.1c-0.4,0.3-1,0.4-1.6,0.4
		s-1.2-0.1-1.6-0.4s-0.8-0.6-1-1.1s-0.3-1.2-0.3-2.2L177.8,44.3L177.8,44.3z"/>
	<path class="st0" d="M185.6,44.3h0.9v1c0.3-0.4,0.5-0.7,0.8-0.9s0.6-0.3,0.9-0.3c0.2,0,0.5,0.1,0.8,0.2l-0.5,0.7
		c-0.2-0.1-0.3-0.1-0.5-0.1c-0.3,0-0.6,0.1-0.8,0.4c-0.3,0.2-0.5,0.6-0.6,1.1c-0.1,0.4-0.2,1.2-0.2,2.3V51h-0.9v-6.7H185.6z"/>
	<path class="st0" d="M190.8,41.8h0.9v2.5h1.4v0.8h-1.4v6h-0.9v-6h-1.2v-0.8h1.2V41.8z"/>
</g>
<path class="st1" d="M160.4,41.9"/>
<path class="st1" d="M28.4,43.1"/>
<g>
	<circle class="st2" cx="60.9" cy="32.2" r="30.3"/>
</g>
<linearGradient id="SVGID_1_" gradientUnits="userSpaceOnUse" x1="60.8573" y1="61.6044" x2="60.8573" y2="38.3486">
	<stop  offset="0.6854" style="stop-color:#B7A246"/>
	<stop  offset="1" style="stop-color:#FFFFFF"/>
</linearGradient>
<path class="st3" d="M89.7,38.6c-3,13-14.9,23-28.8,23C47,61.6,35,51.4,32,38.3h7.4c2.8,9,11.5,16.1,21.5,16.1
	c10,0,18.6-6.8,21.4-15.8H89.7z"/>
<g>
	<g>
		<path class="st4" d="M81.8,32.1c0,11.6-9.4,21-21,21s-21-9.4-21-21c0-11.6,9.4-21,21-21S81.8,20.5,81.8,32.1z"/>
	</g>
</g>
<g>
	<path class="st2" d="M44.9,52.1l-2-2.1l-2.1,2l-0.2-0.2l0.5-0.5c-0.7-0.5-1.3-1-1.9-1.5l0.1-0.3c0.1,0.1,0.2,0.2,0.5,0.4l1.5-1.5
		l-0.4-0.4l0.2-0.2l4,4.1L44.9,52.1z M41.3,51l0.3-0.3l-1.1-1.1L40,50C40.5,50.4,41,50.8,41.3,51z M41.8,50.5l0.3-0.3L41,49.1
		l-0.3,0.3L41.8,50.5z M43,53.9l-0.3,0.1c-0.2-0.4-0.3-0.9-0.4-1.3c-0.5-0.1-0.9-0.2-1.3-0.4l0-0.3c0.4,0.2,0.8,0.3,1.2,0.4
		c0-0.6,0.1-1.1,0.3-1.6l-0.1-0.1l0.2-0.2l1.7,1.7c-0.6,0.4-1.2,0.6-1.7,0.5C42.7,53,42.8,53.4,43,53.9z M42.3,50l0.3-0.3l-1.1-1.1
		l-0.3,0.3L42.3,50z M44.7,51l-0.2-0.2l1.1-1l-2.3-2.4l-1.1,1L42,48.1l1.3-1.2l2.8,2.9L44.7,51z M44.3,50.4l-1.7-1.8l0.2-0.2
		l1.7,1.8L44.3,50.4z M43.9,52.1L42.8,51c-0.2,0.5-0.2,0.9-0.2,1.4C43,52.4,43.5,52.3,43.9,52.1z M44.8,49.9L43,48.1l0.2-0.2
		l1.7,1.8L44.8,49.9z"/>
	<path class="st2" d="M56.1,59.7c0,0.1-0.1,0.2-0.2,0.3c-0.1,0.1-0.3,0.1-0.6,0c-0.1,0-0.2-0.1-0.3-0.1l0-0.3
		c0.3,0.1,0.4,0.1,0.5,0.1c0.2,0,0.3,0,0.3-0.1l0.4-1.7l-4.1-1.1L51.5,59l-0.3-0.1l0.6-2.5l4.8,1.2L56.1,59.7z M57.4,55.8l-5.4-1.4
		l0.1-0.3l2.5,0.7c0-0.1,0-0.3-0.1-0.5l0.3,0c0,0.2,0.1,0.4,0.1,0.6l2.5,0.6L57.4,55.8z M55.1,59.2l-2.6-0.7l0.3-1.2l2.6,0.7
		L55.1,59.2z M56.1,57.1l-3.6-0.9l0.3-1.1l3.6,0.9L56.1,57.1z M54.8,58.9l0.2-0.6L53,57.8l-0.2,0.6L54.8,58.9z M55.9,56.7l0.1-0.5
		l-2.9-0.7L53,56L55.9,56.7z"/>
	<path class="st2" d="M65.9,55.3l-0.2,0.3c-0.4-0.2-0.8-0.4-1.2-0.5l0.1-0.3C65.1,55,65.5,55.1,65.9,55.3z M66.2,56.9L66,57.2
		c-0.3-0.2-0.7-0.3-1.3-0.5l0.1-0.3C65.5,56.5,65.9,56.7,66.2,56.9z M66.4,57.8c-0.2,1-0.4,1.7-0.6,2.3L65.5,60
		c0.3-0.6,0.5-1.4,0.6-2.3L66.4,57.8z M70.4,56.1l-2,0.5c-0.2,1-0.5,1.8-0.8,2.4c0.9-0.3,1.7-0.7,2.4-1.1c-0.3-0.3-0.6-0.5-0.9-0.7
		l0.2-0.2c0.7,0.5,1.3,1,1.7,1.5l-0.2,0.3c-0.2-0.2-0.4-0.4-0.5-0.6c-0.9,0.4-1.9,0.9-3,1.3l-0.2-0.3c0.2-0.1,0.4-0.4,0.5-0.9
		s0.3-1,0.4-1.6l-1.6,0.4l-0.1-0.3l1.8-0.5l-0.3-1.2l-1.5,0.4l-0.1-0.3l1.5-0.4L67.6,54l0.3-0.1l0.3,0.9l1.5-0.4l0.1,0.3l-1.5,0.4
		l0.3,1.2l1.8-0.5L70.4,56.1z"/>
	<path class="st2" d="M77.4,50.4c0.6,0,1.1,0.2,1.4,0.6c0.1,0.1,0.2,0.3,0.2,0.4c0,0.2-0.1,0.4-0.3,0.6c-0.1,0.1-0.1,0.1-0.2,0.2
		l-0.3-0.1l0.3-0.3c0.1-0.1,0.2-0.3,0.2-0.3s0-0.2-0.1-0.2c-0.3-0.3-0.8-0.5-1.4-0.5c-0.2-0.4-0.4-0.9-0.7-1.4L75.8,50l3.6,3.4
		l-0.2,0.2l-3.8-3.6l1.1-1.2l0.2,0.2C77,49.5,77.2,50,77.4,50.4z M80.3,47.3l-0.2,0.2l-0.7-0.6l-1.9,2l0.7,0.6l-0.2,0.2L77,49
		l1.1-1.1c-0.1-0.1-0.3-0.1-0.6-0.2l0.2-0.3c0.2,0.1,0.4,0.2,0.6,0.3l1.1-1.1L80.3,47.3z M80,47.9l-1.5,1.6l-0.2-0.2l1.5-1.6
		L80,47.9z M82.1,48.8c0.2,0.2,0.4,0.4,0.5,0.6c0.1,0.1,0.1,0.3,0.1,0.4c0,0.1-0.2,0.3-0.4,0.5c-0.3,0.3-0.5,0.3-0.7,0.1l-1.4-1.3
		l-0.5,0.5c0.5,0.5,0.7,1,0.8,1.4c0.1,0.4,0,0.9-0.2,1.4l-0.4,0c0.2-0.5,0.3-0.9,0.2-1.3c-0.1-0.4-0.3-0.8-0.7-1.2l-0.7,0.7
		l-0.2-0.2l2.4-2.5l0.2,0.2l-0.7,0.8l1.3,1.3c0,0,0.1,0,0.1,0c0,0,0.1-0.1,0.2-0.2c0.1-0.1,0.2-0.2,0.2-0.2c0,0,0-0.1,0-0.1
		c0,0-0.1-0.1-0.2-0.3c-0.1-0.1-0.2-0.3-0.4-0.4L82.1,48.8z"/>
</g>
<g>
	<path class="st5" d="M34.8,24c-0.3,0.1-0.5,0.2-0.6,0.5c0,0.1,0,0.3,0.1,0.4c0.1,0.1,0.2,0.2,0.4,0.3s0.5-0.1,0.8-0.3
		c0.4-0.3,0.5-0.4,0.5-0.4c0.3-0.2,0.6-0.2,1-0.1c0.5,0.1,0.8,0.3,1,0.6c0.2,0.3,0.3,0.6,0.2,1c-0.1,0.5-0.5,0.7-1.2,0.8l-0.4-0.5
		c0.2,0,0.4,0,0.5-0.1c0.2-0.1,0.3-0.2,0.3-0.4c0-0.2,0-0.3-0.1-0.5c-0.1-0.1-0.3-0.2-0.5-0.3c-0.1,0-0.3,0-0.4,0
		c-0.1,0-0.4,0.2-0.7,0.6s-0.8,0.5-1.2,0.3c-0.4-0.1-0.7-0.3-0.9-0.6s-0.3-0.5-0.2-0.8c0.1-0.4,0.4-0.7,0.8-0.8L34.8,24z"/>
	<path class="st5" d="M35.3,20.1l0.3-0.5l2.3,1.2c0.9,0.5,1.4,0.5,1.7,0.1c0.2-0.4-0.1-0.9-1-1.3l-2.3-1.2l0.3-0.5L39,19
		c1.2,0.6,1.5,1.3,1.1,2.1c-0.4,0.8-1.2,0.9-2.4,0.2L35.3,20.1z"/>
	<path class="st5" d="M42.6,17.2l-0.4,0.5l-3.5-3l0.6-0.7c0.5-0.6,1.2-0.6,1.9,0c0.7,0.6,0.9,1.2,0.4,1.8l-0.3,0.3L42.6,17.2z
		 M40.8,15.7l0.2-0.2c0.3-0.3,0.2-0.7-0.2-1.1c-0.4-0.3-0.8-0.3-1.1,0l-0.2,0.2L40.8,15.7z"/>
	<path class="st5" d="M47.3,12.8l-0.6,0.5l-2.1-1l1.3,1.6l-0.5,0.4l-2.8-3.6l0.8-0.6c0.6-0.5,1.2-0.4,1.8,0.3
		c0.2,0.3,0.3,0.5,0.4,0.8c0,0.3,0,0.5-0.2,0.7L47.3,12.8z M44.5,12.1l0.1-0.1c0.4-0.3,0.4-0.7,0.1-1.1c-0.3-0.4-0.7-0.5-1.1-0.2
		l-0.1,0.1L44.5,12.1z"/>
	<path class="st5" d="M48.2,7.8l0.5,1.1l1.1-0.5l0.3,0.6L49,9.4l0.6,1.3l1.1-0.6l0.3,0.6l-1.7,0.8l-2.1-4.1L49,6.6l0.3,0.6L48.2,7.8
		z"/>
	<path class="st5" d="M55.5,6.1l-0.1,3.3l-0.1,0l-1.6-2.9L54,9.6l-0.6,0.1L52.9,5l0.4-0.1l1.7,2.8l0.1-3.3l0.4-0.1l1.6,4.5L56.6,9
		L55.5,6.1z"/>
	<path class="st5" d="M60.2,4.7l0,1.2l1.2,0l0,0.7l-1.2,0l0,1.4l1.3,0l0,0.7l-1.9,0l-0.1-4.6l1.9,0l0,0.7L60.2,4.7z"/>
	<path class="st5" d="M71.7,7.4c-0.1-0.4-0.3-0.6-0.6-0.7c-0.3-0.1-0.6-0.1-1,0.2c-0.3,0.2-0.6,0.6-0.7,1c-0.2,0.4-0.2,0.8-0.1,1.2
		c0.1,0.4,0.3,0.7,0.6,0.8c0.3,0.1,0.6,0.1,0.9-0.2l-0.3,0.9c-0.3,0.1-0.6,0.1-0.9,0c-0.5-0.2-0.8-0.5-0.9-1.1
		c-0.2-0.6-0.1-1.1,0.1-1.8C69.1,7,69.5,6.5,70,6.2c0.5-0.3,1-0.4,1.4-0.2c0.2,0.1,0.5,0.3,0.7,0.5L71.7,7.4z"/>
	<path class="st5" d="M74,9.9c0.4-0.6,0.8-0.9,1.4-1.1c0.5-0.2,1-0.2,1.5,0.1s0.6,0.7,0.7,1.3c0,0.6-0.2,1.1-0.5,1.7
		s-0.8,0.9-1.4,1.1c-0.5,0.2-1,0.2-1.5-0.1c-0.4-0.3-0.6-0.7-0.7-1.3S73.6,10.4,74,9.9z M74.6,10.2c-0.3,0.4-0.4,0.8-0.4,1.2
		c0,0.4,0.1,0.7,0.4,0.9c0.3,0.2,0.6,0.2,1,0.1c0.4-0.1,0.7-0.4,0.9-0.8c0.3-0.4,0.4-0.7,0.4-1.1c0-0.4-0.1-0.7-0.4-0.9
		s-0.6-0.2-1-0.1C75.1,9.5,74.8,9.8,74.6,10.2z"/>
	<path class="st5" d="M81,12.4l0.4,0.5l-1.9,1.7c-0.7,0.7-0.9,1.2-0.6,1.5c0.3,0.4,0.9,0.2,1.6-0.4l1.9-1.7l0.4,0.5l-2,1.8
		c-1,0.9-1.8,1-2.4,0.3s-0.4-1.4,0.6-2.3L81,12.4z"/>
	<path class="st5" d="M82.1,21.8l-0.4-0.7l1.3-1.9l-1.8,1l-0.3-0.5l4-2.3l0.5,0.8c0.4,0.7,0.2,1.3-0.6,1.7c-0.3,0.2-0.6,0.3-0.9,0.2
		c-0.3,0-0.5-0.1-0.6-0.3L82.1,21.8z M83.3,19.1l0.1,0.2c0.2,0.4,0.6,0.5,1.1,0.2c0.5-0.3,0.6-0.6,0.3-1l-0.1-0.2L83.3,19.1z"/>
	<path class="st5" d="M83.4,25.1l-0.2-0.5l3.7-1.2l-0.3-0.8l0.6-0.2l0.7,2l-0.6,0.2l-0.3-0.8L83.4,25.1z"/>
</g>
<path class="st1" d="M37.7,138.9"/>
<polygon class="st6" points="56.5,26.3 52.7,34.9 69,34.9 64.8,26.3 "/>
<polygon class="st7" points="52.7,34.9 44.8,44.8 77.4,44.8 69,34.9 "/>
<path class="st8" d="M62.3,34.6h-0.5H59v8.2c0,0.9,0.8,1.7,1.7,1.7c0.9,0,1.6-0.8,1.6-1.7L62.3,34.6z"/>
<path class="st8" d="M63.5,44.8h-5.8c-0.4,0-0.8,0.3-0.8,0.6v0.8c0,0.4,0.3,0.7,0.8,0.7h5.8c0.4,0,0.8-0.3,0.8-0.7v-0.8
	C64.3,45.1,63.9,44.8,63.5,44.8z"/>
<path class="st2" d="M64.7,47.7h-8c-0.6,0-1,0.3-1,0.7v0.8c0,0.4,0.4,0.7,1,0.7h8c0.6,0,1-0.3,1-0.7v-0.8
	C65.6,48,65.2,47.7,64.7,47.7z"/>
<path class="st2" d="M76.9,24.1c0-0.3-0.2-0.5-0.4-0.6c-0.4-0.3-1-0.2-1.4,0.1c-1.1,1.1-2.7,1.7-4.4,1.7c-1.7,0-3.2-0.6-4.3-1.6
	c-1.5-1.3-3.5-2.1-5.7-2.1c-2.1,0-4.1,0.7-5.5,1.9l0,0l-0.2,0.2l0,0c-1.1,1.1-2.7,1.7-4.4,1.7c-1.7,0-3.3-0.6-4.4-1.7
	c-0.2-0.2-0.4-0.3-0.7-0.3c-0.2,0-0.5,0-0.7,0.2c-0.2,0.2-0.4,0.4-0.4,0.6l0,0v0.1c0,0.2,0.1,0.4,0.3,0.6c1.5,1.4,3.6,2.3,5.9,2.3
	c2.1,0,4-0.7,5.5-1.9l0,0c0,0,0,0,0,0c0,0,0.1-0.1,0.1-0.1c1.1-1.1,2.7-1.7,4.4-1.7c1.7,0,3.2,0.6,4.3,1.6c1.4,1.3,3.5,2.1,5.7,2.1
	c2.3,0,4.4-0.8,5.9-2.3C76.8,24.6,76.9,24.4,76.9,24.1C76.9,24.2,76.9,24.1,76.9,24.1z M76.9,24.1C76.9,24.1,76.9,24.1,76.9,24.1
	C76.9,24.1,76.9,24.1,76.9,24.1L76.9,24.1z"/>
<path class="st2" d="M64.1,17.9c0,1.9-1.5,3.5-3.5,3.5c-1.9,0-3.4-1.5-3.4-3.5c0-1.9,1.5-3.5,3.4-3.5C62.6,14.4,64.1,15.9,64.1,17.9
	z"/>
<path class="st8" d="M55.5,39.2l-5.3-12c-0.1-0.2-0.3-0.3-0.5-0.3c-0.2,0-0.4,0.1-0.5,0.4v0l-5.3,12c-0.1,0.2-0.1,0.4,0,0.6
	c1,1.9,3.3,3.2,5.8,3.2c2.5,0,4.8-1.2,5.8-3.2C55.6,39.6,55.6,39.4,55.5,39.2z M49.7,29c0.3,0.7,4.3,9.8,4.6,10.4h-9.2
	c0.2-0.5,3.1-7,3.1-7S49.4,29.6,49.7,29z"/>
<path class="st8" d="M77.5,39.2l-5.3-12c-0.1-0.2-0.3-0.3-0.5-0.3c-0.2,0-0.4,0.1-0.5,0.4v0l-5.3,12c-0.1,0.2-0.1,0.4,0,0.6
	c1,1.9,3.3,3.2,5.8,3.2c2.5,0,4.8-1.2,5.8-3.2C77.6,39.6,77.6,39.4,77.5,39.2z M71.7,29c0.3,0.7,4.3,9.8,4.6,10.4H67
	c0.2-0.4,2-4.5,2-4.5S71.4,29.7,71.7,29z"/>
<path class="st8" d="M66.2,26.2c-1,0-0.9,0.9-0.9,0.9h-1.2v-0.5h-7v0.5H56c0,0,0.1-0.9-0.9-0.9c0,0-0.8,0-0.8,1v4.4
	c0,1.1,0.8,1,0.8,1c1,0,0.9-0.9,0.9-0.9h1.2v0.5H59l0,1.6l3.3,0v-1.6h1.9v-0.5h1.2c0,0-0.1,0.9,0.9,0.9c0,0,0.8,0,0.8-1v-4.4
	C67,26.2,66.2,26.2,66.2,26.2z"/>
<polygon class="st9" points="60.7,14.4 56.6,26.3 64.8,26.3 "/>
</svg>
