<?xml version="1.0" encoding="utf-8"?>
<!-- Generator: Adobe Illustrator 24.0.2, SVG Export Plug-In . SVG Version: 6.00 Build 0)  -->
<svg version="1.1" id="圖層_1" xmlns="http://www.w3.org/2000/svg" xmlns:xlink="http://www.w3.org/1999/xlink" x="0px" y="0px"
	 viewBox="0 0 220.1 64" style="enable-background:new 0 0 220.1 64;" xml:space="preserve">
<style type="text/css">
	.st0{fill:#333333;}
	.st1{fill:none;stroke:#FFFFFF;stroke-width:0.25;stroke-miterlimit:10;}
	.st2{fill:#FFFFFF;}
	.st3{fill:url(#SVGID_1_);}
	.st4{fill:#005BAB;}
	.st5{fill:#B7A246;}
</style>
<g>
	<path class="st0" d="M116.2,26.5c-0.7,2.2-1.8,4.1-3.2,5.5c1.3,0.9,2.7,1.6,4.4,1.9c-0.5,0.4-1,1.2-1.3,1.8
		c-1.7-0.5-3.3-1.3-4.6-2.3c-1.4,1.1-2.9,1.8-4.5,2.4c-0.2-0.5-0.7-1.3-1.2-1.7v1.8h-2.1v-2.2c-2.9,0.3-5.7,0.6-7.9,0.9l-0.2-2
		c0.6,0,1.4-0.1,2.2-0.2v-7.7h-2v-1.8h21v1.8h-11V34c1.5-0.4,2.9-1.2,4.2-2.1c-1.1-1.2-1.9-2.5-2.5-4l0.6-0.2h-1.4V26h7.9l0.4-0.1
		L116.2,26.5z M100.7,22h-2.1v-7.3H114V22h-2.2v-5.7h-11.1V22z M99.7,24.7V26h3.9v-1.3H99.7z M99.7,29h3.9v-1.3h-3.9V29z M99.7,32.2
		c1.2-0.1,2.6-0.3,3.9-0.4v-1.2h-3.9V32.2z M110.7,17.4v1.4h-9.1v-1.4H110.7z M101.6,19.9h9.1v1.4h-9.1V19.9z M109.3,27.7
		c0.5,1.1,1.2,2.1,2.1,2.9c0.9-0.8,1.6-1.8,2.1-2.9H109.3z"/>
	<path class="st0" d="M141.9,16.3v1.9h-21v-1.9h9.5c-0.2-0.6-0.5-1.4-0.7-2l2.3-0.5c0.3,0.8,0.7,1.7,0.9,2.5H141.9z M141.2,33.7
		c0,1.1-0.3,1.5-1,1.8s-1.8,0.3-3.5,0.3c-0.1-0.5-0.4-1.2-0.7-1.7c1,0,2.2,0,2.5,0s0.4-0.1,0.4-0.4v-6.5h-15v8.7h-2.2V25.4h19.5
		C141.2,25.4,141.2,33.7,141.2,33.7z M138.8,19.3v4.9h-14.4v-4.9H138.8z M128.3,33.5v1.1h-2.1v-6.2h10.2v5.1
		C136.4,33.5,128.3,33.5,128.3,33.5z M136.4,20.9h-9.8v1.8h9.8V20.9z M128.3,30v1.8h6.1V30H128.3z"/>
	<path class="st0" d="M150.1,24.8c-0.9-0.8-2.9-1.9-4.4-2.6l1.2-1.7c1.5,0.6,3.5,1.6,4.5,2.4L150.1,24.8z M146.5,34.1
		c1.3-1.8,3.1-4.9,4.5-7.6l1.6,1.5c-1.2,2.5-2.8,5.4-4.2,7.6L146.5,34.1z M148.3,14.1c1.5,0.6,3.5,1.7,4.5,2.4l-1.3,1.8
		c-0.9-0.8-2.9-2-4.5-2.7L148.3,14.1z M165.3,35.9c-0.2-0.6-0.5-1.4-1-2.3c-8.5,1-9.6,1.2-10.3,1.6c-0.1-0.5-0.5-1.6-0.8-2.2
		c0.5-0.1,1-0.7,1.5-1.6c0.5-0.7,1.9-3,3-5.5h-4.9v-2.1h5.9v-3.9h-4.9v-2.1h4.9v-3.9h2.3v3.9h5.1v2.1H161v3.9h6v2.1h-6.6
		c-1.1,2.4-2.5,4.7-3.8,6.6l6.7-0.7c-0.6-1-1.2-1.9-1.9-2.8l1.8-0.9c1.7,2.1,3.4,4.9,4.1,6.8L165.3,35.9z"/>
	<path class="st0" d="M178.9,15.6c-0.7,2-1.5,4.3-2.2,6.2c1.6,2,1.9,3.7,1.9,5.1s-0.3,2.4-1,2.9c-0.4,0.3-0.8,0.4-1.3,0.5
		c-0.4,0-1,0-1.6,0c0-0.6-0.2-1.4-0.5-1.9c0.5,0,0.9,0,1.2,0s0.5-0.1,0.7-0.2c0.3-0.3,0.5-0.9,0.5-1.6c0-1.2-0.4-2.8-2-4.6
		c0.6-1.6,1.2-3.6,1.7-5.2h-2.6v19h-2v-21h5.4l0.3-0.1L178.9,15.6z M190.6,33.7c0.5,0,0.6-0.4,0.6-3c0.5,0.4,1.3,0.7,1.9,0.8
		c-0.2,3.2-0.7,4-2.2,4H189c-1.8,0-2.3-0.6-2.3-2.6v-5.7h-2.1c-0.4,4.2-1.5,7-6.1,8.6c-0.2-0.6-0.8-1.4-1.3-1.8
		c4-1.3,4.9-3.4,5.2-6.8h-3.1v-2h13.5v2h-4v5.6c0,0.6,0.1,0.7,0.5,0.7h1.3V33.7z M181,21.2h-1.9v-4.4h5.8c-0.3-0.8-0.7-1.8-1.1-2.5
		l2.1-0.6c0.6,1,1.2,2.2,1.5,3.1h5.2v4.4h-1.9V23H181V21.2z M181.2,18.7V21h9.3v-2.4h-9.3V18.7z"/>
</g>
<g>
	<path class="st0" d="M96.8,49.4l0.8-0.5c0.5,1,1.2,1.5,1.9,1.5c0.3,0,0.6-0.1,0.9-0.2c0.3-0.1,0.5-0.3,0.6-0.6
		c0.1-0.2,0.2-0.5,0.2-0.8s-0.1-0.6-0.3-0.9c-0.3-0.4-0.8-0.9-1.6-1.5c-0.8-0.6-1.2-1-1.4-1.2c-0.3-0.4-0.5-0.9-0.5-1.4
		c0-0.4,0.1-0.8,0.3-1.1s0.5-0.6,0.8-0.8s0.7-0.3,1.1-0.3s0.8,0.1,1.2,0.3c0.4,0.2,0.8,0.6,1.2,1.2l-0.7,0.6
		c-0.3-0.5-0.6-0.8-0.9-0.9c-0.2-0.1-0.5-0.2-0.8-0.2c-0.4,0-0.7,0.1-0.9,0.3c-0.2,0.2-0.4,0.5-0.4,0.8c0,0.2,0,0.4,0.1,0.6
		c0.1,0.2,0.2,0.4,0.5,0.6c0.1,0.1,0.5,0.4,1.2,0.9c0.8,0.6,1.3,1.1,1.6,1.6c0.3,0.5,0.4,0.9,0.4,1.4c0,0.7-0.3,1.2-0.8,1.7
		s-1.1,0.7-1.8,0.7c-0.6,0-1.1-0.1-1.5-0.4C97.6,50.6,97.2,50.1,96.8,49.4z"/>
	<path class="st0" d="M104.1,44.3h0.9v3.2c0,0.8,0,1.3,0.1,1.6c0.1,0.4,0.4,0.7,0.7,1c0.3,0.2,0.8,0.4,1.3,0.4s0.9-0.1,1.2-0.3
		c0.3-0.2,0.6-0.5,0.7-0.9c0.1-0.3,0.1-0.8,0.1-1.7v-3.2h0.9v3.3c0,0.9-0.1,1.6-0.3,2.1s-0.5,0.8-1,1.1c-0.4,0.3-1,0.4-1.6,0.4
		s-1.2-0.1-1.6-0.4s-0.8-0.6-1-1.1s-0.3-1.2-0.3-2.2L104.1,44.3L104.1,44.3z"/>
	<path class="st0" d="M112.3,44.3h0.9v1.2c0.3-0.5,0.7-0.8,1.2-1.1c0.4-0.2,0.9-0.4,1.5-0.4c1,0,1.8,0.3,2.5,1s1,1.5,1,2.5
		s-0.3,1.8-1,2.5s-1.5,1-2.4,1c-0.5,0-1-0.1-1.5-0.3s-0.9-0.6-1.2-1v3.6h-0.9L112.3,44.3L112.3,44.3z M115.8,45
		c-0.8,0-1.4,0.3-1.9,0.8s-0.8,1.2-0.8,2c0,0.5,0.1,1,0.3,1.4c0.2,0.4,0.6,0.7,1,1s0.9,0.4,1.4,0.4s0.9-0.1,1.3-0.4
		c0.4-0.2,0.7-0.6,1-1c0.2-0.4,0.4-0.9,0.4-1.4s-0.1-0.9-0.4-1.4c-0.2-0.4-0.6-0.8-1-1S116.2,45,115.8,45z"/>
	<path class="st0" d="M120.9,44.3h0.9v1c0.3-0.4,0.5-0.7,0.8-0.9s0.6-0.3,0.9-0.3c0.2,0,0.5,0.1,0.8,0.2l-0.5,0.7
		c-0.1,0-0.3,0-0.4,0c-0.3,0-0.6,0.1-0.8,0.4c-0.3,0.2-0.5,0.6-0.6,1.1c-0.1,0.4-0.2,1.2-0.2,2.3v2.3h-0.9V44.3z"/>
	<path class="st0" d="M131.1,48.8l0.7,0.4c-0.2,0.5-0.5,0.9-0.8,1.1c-0.3,0.2-0.7,0.5-1.1,0.7s-0.8,0.2-1.3,0.2
		c-1.1,0-2-0.4-2.6-1.1c-0.6-0.7-0.9-1.5-0.9-2.4s0.3-1.6,0.8-2.3c0.7-0.9,1.6-1.3,2.7-1.3c1.1,0,2.1,0.4,2.8,1.3
		c0.5,0.6,0.7,1.4,0.7,2.3H126c0,0.8,0.3,1.4,0.8,1.9s1.1,0.8,1.8,0.8c0.3,0,0.7-0.1,1-0.2c0.3-0.1,0.6-0.3,0.8-0.5
		C130.6,49.6,130.8,49.3,131.1,48.8z M131.1,47c-0.1-0.5-0.3-0.8-0.5-1.1c-0.2-0.3-0.5-0.5-0.9-0.7s-0.7-0.3-1.1-0.3
		c-0.7,0-1.2,0.2-1.7,0.6c-0.3,0.3-0.6,0.8-0.8,1.4L131.1,47L131.1,47z"/>
	<path class="st0" d="M134,44.3h0.9v1.2c0.3-0.4,0.6-0.7,0.9-0.9c0.4-0.3,0.9-0.4,1.4-0.4c0.3,0,0.6,0.1,0.9,0.2
		c0.3,0.1,0.5,0.3,0.7,0.5s0.3,0.5,0.5,0.9c0.3-0.5,0.7-0.9,1.1-1.2c0.4-0.3,0.9-0.4,1.4-0.4s0.9,0.1,1.2,0.4c0.4,0.2,0.6,0.6,0.8,1
		s0.3,1.1,0.3,1.9v3.7h-0.9v-3.7c0-0.7-0.1-1.2-0.2-1.5c-0.1-0.3-0.3-0.5-0.5-0.7c-0.2-0.2-0.5-0.2-0.9-0.2s-0.8,0.1-1.2,0.4
		c-0.3,0.2-0.6,0.6-0.8,1c-0.2,0.4-0.2,1.1-0.2,2.1v2.6h-0.9v-3.5c0-0.8-0.1-1.4-0.2-1.7c-0.1-0.3-0.3-0.5-0.5-0.7
		c-0.3-0.2-0.6-0.3-0.9-0.3c-0.4,0-0.8,0.1-1.1,0.4c-0.3,0.2-0.6,0.6-0.8,1c-0.2,0.4-0.3,1-0.3,1.9v2.9H134V44.3z"/>
	<path class="st0" d="M151.9,48.8l0.7,0.4c-0.2,0.5-0.5,0.9-0.8,1.1c-0.3,0.2-0.7,0.5-1.1,0.7s-0.8,0.2-1.3,0.2
		c-1.1,0-2-0.4-2.6-1.1c-0.6-0.7-0.9-1.5-0.9-2.4s0.3-1.6,0.8-2.3c0.7-0.9,1.6-1.3,2.7-1.3s2.1,0.4,2.8,1.3c0.5,0.6,0.7,1.4,0.7,2.3
		h-6.1c0,0.8,0.3,1.4,0.8,1.9s1.1,0.8,1.8,0.8c0.3,0,0.7-0.1,1-0.2c0.3-0.1,0.6-0.3,0.8-0.5C151.4,49.6,151.6,49.3,151.9,48.8z
		 M151.9,47c-0.1-0.5-0.3-0.8-0.5-1.1c-0.2-0.3-0.5-0.5-0.9-0.7s-0.7-0.3-1.1-0.3c-0.7,0-1.2,0.2-1.7,0.6c-0.3,0.3-0.6,0.8-0.8,1.4
		L151.9,47L151.9,47z"/>
	<path class="st0" d="M167.2,43.6l-0.7,0.6c-0.4-0.5-0.9-0.9-1.4-1.2c-0.6-0.3-1.2-0.4-1.8-0.4c-0.7,0-1.4,0.2-2,0.5
		s-1.1,0.8-1.4,1.4s-0.5,1.3-0.5,2c0,1.1,0.4,2,1.1,2.8s1.7,1.1,2.9,1.1c1.3,0,2.3-0.5,3.2-1.5l0.7,0.5c-0.5,0.6-1,1-1.7,1.3
		s-1.4,0.5-2.3,0.5c-1.6,0-2.9-0.5-3.8-1.6c-0.8-0.9-1.2-2-1.2-3.2c0-1.3,0.5-2.5,1.4-3.4s2.1-1.4,3.5-1.4c0.9,0,1.6,0.2,2.3,0.5
		S166.8,43,167.2,43.6z"/>
	<path class="st0" d="M172.4,44.2c1,0,1.9,0.4,2.6,1.1c0.6,0.7,0.9,1.5,0.9,2.4s-0.3,1.8-1,2.5s-1.5,1.1-2.5,1.1s-1.9-0.4-2.5-1.1
		c-0.7-0.7-1-1.5-1-2.5c0-0.9,0.3-1.7,0.9-2.4C170.5,44.5,171.4,44.2,172.4,44.2z M172.4,45c-0.7,0-1.3,0.3-1.9,0.8
		s-0.8,1.2-0.8,1.9c0,0.5,0.1,0.9,0.4,1.4s0.6,0.7,1,1s0.8,0.3,1.3,0.3s0.9-0.1,1.3-0.3s0.7-0.6,1-1s0.4-0.9,0.4-1.4
		c0-0.8-0.3-1.4-0.8-1.9S173.1,45,172.4,45z"/>
	<path class="st0" d="M177.8,44.3h0.9v3.2c0,0.8,0,1.3,0.1,1.6c0.1,0.4,0.4,0.7,0.7,1c0.3,0.2,0.8,0.4,1.3,0.4s0.9-0.1,1.2-0.3
		s0.6-0.5,0.7-0.9c0.1-0.3,0.1-0.8,0.1-1.7v-3.2h0.9v3.3c0,0.9-0.1,1.6-0.3,2.1s-0.5,0.8-1,1.1c-0.4,0.3-1,0.4-1.6,0.4
		s-1.2-0.1-1.6-0.4s-0.8-0.6-1-1.1s-0.3-1.2-0.3-2.2L177.8,44.3L177.8,44.3z"/>
	<path class="st0" d="M185.6,44.3h0.9v1c0.3-0.4,0.5-0.7,0.8-0.9s0.6-0.3,0.9-0.3c0.2,0,0.5,0.1,0.8,0.2l-0.5,0.7
		c-0.2-0.1-0.3-0.1-0.5-0.1c-0.3,0-0.6,0.1-0.8,0.4c-0.3,0.2-0.5,0.6-0.6,1.1c-0.1,0.4-0.2,1.2-0.2,2.3V51h-0.9v-6.7H185.6z"/>
	<path class="st0" d="M190.8,41.8h0.9v2.5h1.4v0.8h-1.4v6h-0.9v-6h-1.2v-0.8h1.2V41.8z"/>
</g>
<path class="st1" d="M160.4,41.9"/>
<g>
	<circle class="st2" cx="58" cy="32.4" r="30.3"/>
</g>
<linearGradient id="SVGID_1_" gradientUnits="userSpaceOnUse" x1="58.05" y1="2.2" x2="58.05" y2="25.4557" gradientTransform="matrix(1 0 0 -1 0 64)">
	<stop  offset="0.6854" style="stop-color:#B7A246"/>
	<stop  offset="1" style="stop-color:#FFFFFF"/>
</linearGradient>
<path class="st3" d="M86.9,38.8c-3,13-14.9,23-28.8,23S32.2,51.6,29.2,38.5h7.4c2.8,9,11.5,16.1,21.5,16.1s18.6-6.8,21.4-15.8H86.9z
	"/>
<g>
	<path class="st4" d="M79,32.3c0,11.6-9.4,21-21,21s-21-9.4-21-21s9.4-21,21-21S79,20.7,79,32.3z"/>
</g>
<g>
	<path class="st2" d="M59.7,34.8h-0.5h-2.8V43c0,0.9,0.8,1.7,1.7,1.7s1.6-0.8,1.6-1.7V34.8z"/>
	<path class="st2" d="M60.9,45h-5.8c-0.4,0-0.8,0.3-0.8,0.6v0.8c0,0.4,0.3,0.7,0.8,0.7h5.8c0.4,0,0.8-0.3,0.8-0.7v-0.8
		C61.7,45.3,61.4,45,60.9,45z"/>
	<path class="st2" d="M62.1,47.9h-8c-0.6,0-1,0.3-1,0.7v0.8c0,0.4,0.4,0.7,1,0.7h8c0.6,0,1-0.3,1-0.7v-0.8
		C63,48.2,62.6,47.9,62.1,47.9z"/>
	<path class="st2" d="M74.3,24.3c0-0.3-0.2-0.5-0.4-0.6c-0.4-0.3-1-0.2-1.4,0.1c-1.1,1.1-2.7,1.7-4.4,1.7c-1.7,0-3.2-0.6-4.3-1.6
		c-1.5-1.3-3.5-2.1-5.7-2.1c-2.1,0-4.1,0.7-5.5,1.9l0,0l-0.2,0.2l0,0c-1.1,1.1-2.7,1.7-4.4,1.7c-1.7,0-3.3-0.6-4.4-1.7
		c-0.2-0.2-0.4-0.3-0.7-0.3c-0.2,0-0.5,0-0.7,0.2s-0.4,0.4-0.4,0.6l0,0v0.1c0,0.2,0.1,0.4,0.3,0.6c1.5,1.4,3.6,2.3,5.9,2.3
		c2.1,0,4-0.7,5.5-1.9l0,0l0,0l0.1-0.1c1.1-1.1,2.7-1.7,4.4-1.7c1.7,0,3.2,0.6,4.3,1.6c1.4,1.3,3.5,2.1,5.7,2.1
		c2.3,0,4.4-0.8,5.9-2.3C74.2,24.8,74.3,24.6,74.3,24.3C74.3,24.4,74.3,24.3,74.3,24.3z M74.3,24.3L74.3,24.3L74.3,24.3L74.3,24.3z"
		/>
	<path class="st2" d="M61.5,18.1c0,1.9-1.5,3.5-3.5,3.5c-1.9,0-3.4-1.5-3.4-3.5c0-1.9,1.5-3.5,3.4-3.5C60,14.6,61.5,16.1,61.5,18.1z
		"/>
	<path class="st2" d="M53,39.4l-5.3-12c-0.1-0.2-0.3-0.3-0.5-0.3s-0.4,0.1-0.5,0.4l0,0l-5.3,12c-0.1,0.2-0.1,0.4,0,0.6
		c1,1.9,3.3,3.2,5.8,3.2s4.8-1.2,5.8-3.2C53,39.8,53,39.6,53,39.4z M47.1,29.2c0.3,0.7,4.3,9.8,4.6,10.4h-9.2c0.2-0.5,3.1-7,3.1-7
		S46.8,29.8,47.1,29.2z"/>
	<path class="st2" d="M74.9,39.4l-5.3-12c-0.1-0.2-0.3-0.3-0.5-0.3c-0.2,0-0.4,0.1-0.5,0.4l0,0l-5.3,12c-0.1,0.2-0.1,0.4,0,0.6
		c1,1.9,3.3,3.2,5.8,3.2s4.8-1.2,5.8-3.2C75,39.8,75,39.6,74.9,39.4z M69.1,29.2c0.3,0.7,4.3,9.8,4.6,10.4h-9.2c0.2-0.4,2-4.5,2-4.5
		S68.8,29.9,69.1,29.2z"/>
	<path class="st2" d="M63.6,26.4c-1,0-0.9,0.9-0.9,0.9h-1.2v-0.5h-7v0.5h-1.2c0,0,0.1-0.9-0.9-0.9c0,0-0.8,0-0.8,1v4.4
		c0,1.1,0.8,1,0.8,1c1,0,0.9-0.9,0.9-0.9h1.2v0.5h1.8V34h3.3v-1.6h1.9V32h1.2c0,0-0.1,0.9,0.9,0.9c0,0,0.8,0,0.8-1v-4.4
		C64.4,26.4,63.6,26.4,63.6,26.4z"/>
</g>
<g>
	<path class="st2" d="M50.9,57l-2.7-1.1l-1.1,2.6l-0.3-0.1l0.3-0.6c-0.9-0.2-1.6-0.4-2.3-0.7v-0.3c0.1,0,0.3,0.1,0.6,0.2l0.8-1.9
		l-0.5-0.2l0.1-0.3l5.3,2.2L50.9,57z M47.2,57.4l0.2-0.4l-1.5-0.6L45.7,57C46.3,57.2,46.8,57.4,47.2,57.4z M47.5,56.8l0.2-0.4
		l-1.5-0.6L46,56.2L47.5,56.8z M47.8,56.1l0.2-0.4l-1.5-0.6l-0.2,0.4L47.8,56.1z M50.4,56.1L50.1,56l0.6-1.4l-3.1-1.3L47,54.7
		l-0.3-0.1l0.7-1.6l3.7,1.5L50.4,56.1z M50,59.4l-0.3,0.2c-0.3-0.3-0.6-0.7-0.9-1c-0.5,0.1-0.9,0.1-1.3,0.1l-0.1-0.3
		c0.4,0,0.8,0,1.3-0.1c-0.2-0.5-0.3-1.1-0.4-1.6h-0.1l0.1-0.3l2.2,0.9c-0.4,0.6-0.8,1-1.4,1.2C49.3,58.8,49.6,59.1,50,59.4z
		 M49.8,55.7l-2.3-1l0.1-0.3l2.3,1L49.8,55.7z M50,55.1l-2.3-1l0.1-0.3l2.3,1L50,55.1z M50.1,57.4l-1.4-0.6c0,0.5,0.1,0.9,0.3,1.4
		C49.4,58,49.7,57.8,50.1,57.4z"/>
	<path class="st2" d="M57,60.2c0,0.1-0.1,0.3-0.2,0.3c-0.1,0.1-0.3,0.1-0.6,0.1c-0.1,0-0.2,0-0.4-0.1l-0.1-0.3
		c0.3,0,0.4,0.1,0.5,0.1c0.2,0,0.3,0,0.3-0.2l0.2-1.7l-4.2-0.5l-0.3,2.2h-0.3l0.3-2.5l4.9,0.6L57,60.2z M57.7,56.2l-5.5-0.7v-0.3
		l2.6,0.3c0-0.1,0-0.3-0.1-0.5l0.3-0.1c0.1,0.1,0.1,0.4,0.1,0.6l2.6,0.3V56.2z M56.6,57.7L53,57.2l0.1-1.2l3.7,0.4L56.6,57.7z
		 M55.9,59.9l-2.7-0.3l0.1-1.2l2.7,0.3L55.9,59.9z M56.3,57.3l0.1-0.6l-2.9-0.3L53.4,57L56.3,57.3z M55.6,59.6l0.1-0.6l-2-0.2
		l-0.1,0.6L55.6,59.6z"/>
	<path class="st2" d="M59.9,56l-0.2,0.3c-0.3-0.3-0.7-0.5-1.2-0.7l0.2-0.3C59.2,55.5,59.6,55.7,59.9,56z M60,57.5l-0.2,0.3
		c-0.3-0.2-0.7-0.4-1.2-0.7l0.2-0.3C59.4,57.1,59.8,57.3,60,57.5z M60.2,58.5c-0.3,0.9-0.6,1.7-0.9,2.2L59,60.5
		c0.3-0.6,0.6-1.3,0.9-2.2L60.2,58.5z M64.4,57.4l-2,0.3c-0.4,0.9-0.7,1.7-1.1,2.3c0.9-0.2,1.8-0.5,2.6-0.8
		c-0.3-0.3-0.5-0.6-0.8-0.9l0.3-0.2c0.7,0.6,1.1,1.2,1.5,1.7L64.6,60c-0.2-0.3-0.3-0.5-0.5-0.6c-0.9,0.3-2,0.6-3.2,0.9L60.6,60
		c0.2-0.1,0.4-0.4,0.7-0.8c0.2-0.5,0.5-0.9,0.7-1.5l-1.6,0.2v-0.3l1.9-0.2L62,56.2l-1.6,0.2v-0.3l1.6-0.2l-0.1-1h0.3l0.1,1l1.5-0.2
		V56l-1.5,0.2l0.2,1.2l1.8-0.2L64.4,57.4z"/>
	<path class="st2" d="M66.3,55.8c0.5,0.3,0.9,0.6,1.1,1.1c0.1,0.2,0.1,0.3,0,0.5c-0.1,0.2-0.2,0.3-0.5,0.4c-0.1,0-0.2,0.1-0.2,0.1
		l-0.2-0.2l0.3-0.1c0.2-0.1,0.3-0.2,0.3-0.2c0-0.1,0-0.2,0-0.2c-0.2-0.4-0.5-0.8-1.1-1c0-0.4-0.1-1-0.1-1.6L65,54.8l2,4.5l-0.3,0.1
		l-2.1-4.8l1.5-0.7l0.1,0.3C66.3,54.7,66.3,55.3,66.3,55.8z M70.2,54l-0.3,0.1l-0.4-0.8L67,54.4l0.4,0.8L67,55.4l-0.5-1.1l1.4-0.6
		c-0.1-0.1-0.2-0.3-0.4-0.4l0.3-0.2c0.2,0.1,0.3,0.3,0.5,0.5l1.4-0.6L70.2,54z M71.2,56.1c0.1,0.3,0.2,0.5,0.2,0.7s0,0.3-0.1,0.4
		c-0.1,0.1-0.3,0.2-0.5,0.3c-0.3,0.1-0.6,0.1-0.7-0.1l-0.8-1.7L68.7,56c0.2,0.7,0.3,1.2,0.2,1.6c-0.1,0.4-0.4,0.8-0.7,1.2l-0.3-0.2
		c0.4-0.4,0.6-0.7,0.7-1.1c0.1-0.4,0-0.8-0.2-1.4l-0.9,0.4l-0.1-0.3l3.2-1.4l0.1,0.3l-1,0.4l0.7,1.7c0,0,0,0.1,0.1,0.1
		c0,0,0.1,0,0.3-0.1c0.1-0.1,0.2-0.1,0.3-0.1s0.1-0.1,0.1-0.1s0-0.1-0.1-0.3c0-0.2-0.1-0.3-0.2-0.5L71.2,56.1z M69.7,54.4l-2.1,0.9
		L67.5,55l2.1-0.9L69.7,54.4z"/>
</g>
<g>
	<path class="st5" d="M39.6,12.3c-0.3-0.1-0.5-0.1-0.7,0.1c-0.1,0.1-0.2,0.2-0.2,0.4s0.1,0.3,0.2,0.4c0.1,0.1,0.4,0.2,0.9,0.1
		s0.7-0.1,0.7-0.1c0.4,0,0.7,0.1,0.9,0.4c0.3,0.3,0.5,0.7,0.6,1c0,0.4-0.1,0.7-0.3,0.9c-0.3,0.3-0.8,0.4-1.4,0.1L40.2,15
		c0.2,0.1,0.3,0.1,0.5,0.2c0.2,0,0.4,0,0.5-0.1s0.2-0.3,0.1-0.5c0-0.2-0.1-0.3-0.3-0.5c-0.1-0.1-0.2-0.2-0.4-0.2
		c-0.1,0-0.4,0-0.9,0.1s-0.9,0-1.2-0.3s-0.4-0.6-0.5-0.9c0-0.3,0-0.6,0.3-0.8c0.3-0.3,0.7-0.4,1.1-0.3L39.6,12.3z"/>
	<path class="st5" d="M40.1,10.6l0.5-0.4l1.5,2.1c0.6,0.8,1.1,1,1.5,0.8c0.4-0.3,0.3-0.8-0.3-1.6l-1.5-2.1L42.2,9l1.6,2.2
		c0.8,1.1,0.8,1.8,0.1,2.4c-0.7,0.5-1.5,0.3-2.3-0.8L40.1,10.6z"/>
	<path class="st5" d="M46,12.1l-0.5,0.3l-2.3-4L44,7.9c0.7-0.4,1.3-0.2,1.8,0.6s0.4,1.5-0.3,1.8l-0.4,0.2L46,12.1z M44.9,10.1
		l0.3-0.1c0.4-0.2,0.4-0.6,0.2-1.1c-0.3-0.5-0.6-0.6-1-0.4l-0.2,0.1L44.9,10.1z"/>
	<path class="st5" d="M50,10.2l-0.7,0.3L47.6,9l0.8,1.9l-0.6,0.2L46,6.9l0.9-0.4c0.7-0.3,1.3,0,1.7,0.8c0.1,0.3,0.2,0.6,0.1,0.9
		c0,0.3-0.2,0.5-0.4,0.6L50,10.2z M47.4,8.7l0.2-0.1c0.5-0.2,0.6-0.5,0.4-1.1c-0.2-0.5-0.5-0.6-1-0.4l-0.2,0.1L47.4,8.7z"/>
	<path class="st5" d="M49.8,6.1l0.3,1.1l1.2-0.3l0.2,0.6l-1.2,0.3l0.4,1.4L52,8.9l0.2,0.6L50.4,10L49,5.7l1.8-0.5L51,5.8L49.8,6.1z"
		/>
	<path class="st5" d="M55,5.9l-0.4,3.3h-0.1l-1.3-3l0.1,3.1l-0.6,0.1l-0.1-4.8L53,4.5l1.4,3l0.4-3.3l0.5-0.1l1.2,4.6l-0.6,0.1
		L55,5.9z"/>
	<path class="st5" d="M57.4,4.9v1.2h1.2v0.7h-1.2v1.4h1.3v0.7h-1.9l-0.1-4.6h1.9V5L57.4,4.9z"/>
	<path class="st5" d="M64.4,6.1c-0.1-0.4-0.4-0.6-0.7-0.6c-0.3-0.1-0.6,0.1-0.9,0.4S62.3,6.6,62.2,7s0,0.8,0.1,1.2
		c0.2,0.4,0.4,0.6,0.7,0.7c0.3,0.1,0.6,0,0.9-0.3l-0.2,0.9c-0.3,0.1-0.6,0.2-0.9,0.1c-0.5-0.1-0.9-0.4-1.1-0.9
		c-0.2-0.5-0.3-1.1-0.2-1.7c0.1-0.7,0.4-1.2,0.8-1.6c0.4-0.4,0.9-0.6,1.4-0.5C64,5,64.2,5.1,64.4,5.3V6.1z"/>
	<path class="st5" d="M64.9,7.4c0.2-0.6,0.6-1.1,1-1.4s1-0.4,1.4-0.2s0.8,0.5,1,1.1s0.1,1.2-0.1,1.8c-0.2,0.6-0.6,1.1-1,1.4
		c-0.5,0.3-1,0.4-1.4,0.2c-0.5-0.2-0.8-0.5-1-1.1C64.7,8.6,64.7,8,64.9,7.4z M65.5,7.6c-0.1,0.4-0.2,0.8-0.1,1.2s0.3,0.6,0.6,0.8
		c0.3,0.1,0.6,0.1,1-0.2c0.3-0.2,0.5-0.6,0.7-1c0.1-0.4,0.2-0.8,0.1-1.2c-0.1-0.4-0.3-0.6-0.6-0.7c-0.3-0.1-0.6-0.1-0.9,0.2
		C65.9,6.8,65.7,7.2,65.5,7.6z"/>
	<path class="st5" d="M70.1,6.9l0.5,0.3l-1.2,2.3c-0.5,0.9-0.5,1.4-0.1,1.7c0.4,0.2,0.9-0.1,1.3-1L72,7.9l0.5,0.3l-1.3,2.4
		c-0.6,1.2-1.3,1.5-2.1,1.1c-0.8-0.4-0.9-1.2-0.3-2.4L70.1,6.9z"/>
	<path class="st5" d="M72.8,14l-0.6-0.4l0.4-2.3L71.4,13l-0.5-0.4l2.7-3.7l0.8,0.6c0.7,0.5,0.7,1.1,0.2,1.8
		c-0.2,0.3-0.4,0.5-0.7,0.6c-0.2,0.1-0.5,0.1-0.7,0L72.8,14z M72.7,11l0.1,0.1c0.4,0.3,0.8,0.2,1.1-0.2c0.3-0.4,0.3-0.8-0.2-1.1
		l-0.2-0.1L72.7,11z"/>
	<path class="st5" d="M73.9,15l-0.4-0.4l2.6-2.9l-0.6-0.5l0.4-0.5l1.6,1.4l-0.4,0.5L76.5,12L73.9,15z"/>
</g>
<path class="st1" d="M28.4,43.1"/>
</svg>
