<?xml version="1.0" encoding="utf-8"?>
<!-- Generator: Adobe Illustrator 24.0.2, SVG Export Plug-In . SVG Version: 6.00 Build 0)  -->
<svg version="1.1" id="圖層_1" xmlns="http://www.w3.org/2000/svg" xmlns:xlink="http://www.w3.org/1999/xlink" x="0px" y="0px"
	 viewBox="0 0 170 64" style="enable-background:new 0 0 170 64;" xml:space="preserve">
<style type="text/css">
	.st0{fill:#333333;}
	.st1{fill:none;stroke:#FFFFFF;stroke-width:0.25;stroke-miterlimit:10;}
	.st2{fill:#FFFFFF;}
	.st3{fill:url(#SVGID_1_);}
	.st4{fill:#96C0F8;}
	.st5{fill:#B7A246;}
	.st6{fill:#2D068D;}
	.st7{fill:#494670;}
	.st8{opacity:0.74;fill:#FFFFFF;enable-background:new    ;}
	.st9{opacity:0.53;fill:#77FCFA;enable-background:new    ;}
</style>
<g>
	<path class="st0" d="M88.9,26.5c-0.7,2.2-1.8,4.1-3.2,5.5c1.3,0.9,2.7,1.6,4.4,1.9c-0.5,0.4-1,1.2-1.3,1.8
		c-1.7-0.5-3.3-1.3-4.6-2.3c-1.4,1.1-2.9,1.8-4.5,2.4c-0.2-0.5-0.7-1.3-1.2-1.7v1.8h-2.1v-2.2c-2.9,0.3-5.7,0.6-7.9,0.9l-0.2-2
		c0.6,0,1.4-0.1,2.2-0.2v-7.7h-2v-1.8h21v1.8h-11V34c1.5-0.4,2.9-1.2,4.2-2.1c-1.1-1.2-1.9-2.5-2.5-4l0.6-0.2h-1.4V26h7.9l0.4-0.1
		L88.9,26.5z M73.4,22h-2.1v-7.3h15.4V22h-2.2v-5.7H73.4V22z M72.4,24.7V26h3.9v-1.3H72.4z M72.4,29h3.9v-1.3h-3.9V29z M72.4,32.2
		c1.2-0.1,2.6-0.3,3.9-0.4v-1.2h-3.9V32.2z M83.4,17.4v1.4h-9.1v-1.4H83.4z M74.3,19.9h9.1v1.4h-9.1V19.9z M82,27.7
		c0.5,1.1,1.2,2.1,2.1,2.9c0.9-0.8,1.6-1.8,2.1-2.9H82z"/>
	<path class="st0" d="M114.6,16.3v1.9h-21v-1.9h9.5c-0.2-0.6-0.5-1.4-0.7-2l2.3-0.5c0.3,0.8,0.7,1.7,0.9,2.5
		C105.6,16.3,114.6,16.3,114.6,16.3z M113.9,33.7c0,1.1-0.3,1.5-1,1.8s-1.8,0.3-3.5,0.3c-0.1-0.5-0.4-1.2-0.7-1.7c1,0,2.2,0,2.5,0
		s0.4-0.1,0.4-0.4v-6.5h-15v8.7h-2.2V25.4h19.5C113.9,25.4,113.9,33.7,113.9,33.7z M111.5,19.3v4.9H97.1v-4.9H111.5z M101,33.5v1.1
		h-2.1v-6.2h10.2v5.1C109.1,33.5,101,33.5,101,33.5z M109.1,20.9h-9.8v1.8h9.8V20.9z M101,30v1.8h6.1V30H101z"/>
	<path class="st0" d="M122.8,24.8c-0.9-0.8-2.9-1.9-4.4-2.6l1.2-1.7c1.5,0.6,3.5,1.6,4.5,2.4L122.8,24.8z M119.2,34.1
		c1.3-1.8,3.1-4.9,4.5-7.6l1.6,1.5c-1.2,2.5-2.8,5.4-4.2,7.6L119.2,34.1z M121,14.1c1.5,0.6,3.5,1.7,4.5,2.4l-1.3,1.8
		c-0.9-0.8-2.9-2-4.5-2.7L121,14.1z M138,35.9c-0.2-0.6-0.5-1.4-1-2.3c-8.5,1-9.6,1.2-10.3,1.6c-0.1-0.5-0.5-1.6-0.8-2.2
		c0.5-0.1,1-0.7,1.5-1.6c0.5-0.7,1.9-3,3-5.5h-4.9v-2.1h5.9v-3.9h-4.9v-2.1h4.9v-3.9h2.3v3.9h5.1v2.1h-5.1v3.9h6v2.1h-6.6
		c-1.1,2.4-2.5,4.7-3.8,6.6l6.7-0.7c-0.6-1-1.2-1.9-1.9-2.8l1.8-0.9c1.7,2.1,3.4,4.9,4.1,6.8L138,35.9z"/>
	<path class="st0" d="M151.6,15.6c-0.7,2-1.5,4.3-2.2,6.2c1.6,2,1.9,3.7,1.9,5.1s-0.3,2.4-1,2.9c-0.4,0.3-0.8,0.4-1.3,0.5
		c-0.4,0-1,0-1.6,0c0-0.6-0.2-1.4-0.5-1.9c0.5,0,0.9,0,1.2,0s0.5-0.1,0.7-0.2c0.3-0.3,0.5-0.9,0.5-1.6c0-1.2-0.4-2.8-2-4.6
		c0.6-1.6,1.2-3.6,1.7-5.2h-2.6v19h-2v-21h5.4l0.3-0.1L151.6,15.6z M163.3,33.7c0.5,0,0.6-0.4,0.6-3c0.5,0.4,1.3,0.7,1.9,0.8
		c-0.2,3.2-0.7,4-2.2,4h-1.9c-1.8,0-2.3-0.6-2.3-2.6v-5.7h-2.1c-0.4,4.2-1.5,7-6.1,8.6c-0.2-0.6-0.8-1.4-1.3-1.8
		c4-1.3,4.9-3.4,5.2-6.8H152v-2h13.5v2h-4v5.6c0,0.6,0.1,0.7,0.5,0.7h1.3L163.3,33.7L163.3,33.7z M153.7,21.2h-1.9v-4.4h5.8
		c-0.3-0.8-0.7-1.8-1.1-2.5l2.1-0.6c0.6,1,1.2,2.2,1.5,3.1h5.2v4.4h-1.9V23h-9.7L153.7,21.2L153.7,21.2z M153.9,18.7V21h9.3v-2.4
		h-9.3V18.7z"/>
</g>
<g>
	<path class="st0" d="M69.5,49.4l0.8-0.5c0.5,1,1.2,1.5,1.9,1.5c0.3,0,0.6-0.1,0.9-0.2c0.3-0.1,0.5-0.3,0.6-0.6
		c0.1-0.2,0.2-0.5,0.2-0.8s-0.1-0.6-0.3-0.9c-0.3-0.4-0.8-0.9-1.6-1.5c-0.8-0.6-1.2-1-1.4-1.2c-0.3-0.4-0.5-0.9-0.5-1.4
		c0-0.4,0.1-0.8,0.3-1.1s0.5-0.6,0.8-0.8s0.7-0.3,1.1-0.3s0.8,0.1,1.2,0.3c0.4,0.2,0.8,0.6,1.2,1.2L74,43.7
		c-0.3-0.5-0.6-0.8-0.9-0.9c-0.2-0.1-0.5-0.2-0.8-0.2c-0.4,0-0.7,0.1-0.9,0.3c-0.2,0.2-0.4,0.5-0.4,0.8c0,0.2,0,0.4,0.1,0.6
		c0.1,0.2,0.2,0.4,0.5,0.6c0.1,0.1,0.5,0.4,1.2,0.9c0.8,0.6,1.3,1.1,1.6,1.6c0.3,0.5,0.4,0.9,0.4,1.4c0,0.7-0.3,1.2-0.8,1.7
		s-1.1,0.7-1.8,0.7c-0.6,0-1.1-0.1-1.5-0.4C70.3,50.6,69.9,50.1,69.5,49.4z"/>
	<path class="st0" d="M76.8,44.3h0.9v3.2c0,0.8,0,1.3,0.1,1.6c0.1,0.4,0.4,0.7,0.7,1c0.3,0.2,0.8,0.4,1.3,0.4s0.9-0.1,1.2-0.3
		c0.3-0.2,0.6-0.5,0.7-0.9c0.1-0.3,0.1-0.8,0.1-1.7v-3.2h0.9v3.3c0,0.9-0.1,1.6-0.3,2.1s-0.5,0.8-1,1.1c-0.4,0.3-1,0.4-1.6,0.4
		s-1.2-0.1-1.6-0.4s-0.8-0.6-1-1.1s-0.3-1.2-0.3-2.2L76.8,44.3L76.8,44.3z"/>
	<path class="st0" d="M85,44.3h0.9v1.2c0.3-0.5,0.7-0.8,1.2-1.1c0.4-0.2,0.9-0.4,1.5-0.4c1,0,1.8,0.3,2.5,1s1,1.5,1,2.5
		s-0.3,1.8-1,2.5s-1.5,1-2.4,1c-0.5,0-1-0.1-1.5-0.3s-0.9-0.6-1.2-1v3.6h-0.9L85,44.3L85,44.3z M88.5,45c-0.8,0-1.4,0.3-1.9,0.8
		s-0.8,1.2-0.8,2c0,0.5,0.1,1,0.3,1.4c0.2,0.4,0.6,0.7,1,1s0.9,0.4,1.4,0.4s0.9-0.1,1.3-0.4c0.4-0.2,0.7-0.6,1-1
		c0.2-0.4,0.4-0.9,0.4-1.4s-0.1-0.9-0.4-1.4c-0.2-0.4-0.6-0.8-1-1S88.9,45,88.5,45z"/>
	<path class="st0" d="M93.6,44.3h0.9v1c0.3-0.4,0.5-0.7,0.8-0.9s0.6-0.3,0.9-0.3c0.2,0,0.5,0.1,0.8,0.2L96.5,45c-0.1,0-0.3,0-0.4,0
		c-0.3,0-0.6,0.1-0.8,0.4c-0.3,0.2-0.5,0.6-0.6,1.1c-0.1,0.4-0.2,1.2-0.2,2.3v2.3h-0.9V44.3z"/>
	<path class="st0" d="M103.8,48.8l0.7,0.4c-0.2,0.5-0.5,0.9-0.8,1.1c-0.3,0.2-0.7,0.5-1.1,0.7s-0.8,0.2-1.3,0.2
		c-1.1,0-2-0.4-2.6-1.1c-0.6-0.7-0.9-1.5-0.9-2.4s0.3-1.6,0.8-2.3c0.7-0.9,1.6-1.3,2.7-1.3s2.1,0.4,2.8,1.3c0.5,0.6,0.7,1.4,0.7,2.3
		h-6.1c0,0.8,0.3,1.4,0.8,1.9s1.1,0.8,1.8,0.8c0.3,0,0.7-0.1,1-0.2c0.3-0.1,0.6-0.3,0.8-0.5C103.3,49.6,103.5,49.3,103.8,48.8z
		 M103.8,47c-0.1-0.5-0.3-0.8-0.5-1.1s-0.5-0.5-0.9-0.7s-0.7-0.3-1.1-0.3c-0.7,0-1.2,0.2-1.7,0.6c-0.3,0.3-0.6,0.8-0.8,1.4L103.8,47
		L103.8,47z"/>
	<path class="st0" d="M106.7,44.3h0.9v1.2c0.3-0.4,0.6-0.7,0.9-0.9c0.4-0.3,0.9-0.4,1.4-0.4c0.3,0,0.6,0.1,0.9,0.2
		c0.3,0.1,0.5,0.3,0.7,0.5s0.3,0.5,0.5,0.9c0.3-0.5,0.7-0.9,1.1-1.2s0.9-0.4,1.4-0.4s0.9,0.1,1.2,0.4c0.4,0.2,0.6,0.6,0.8,1
		s0.3,1.1,0.3,1.9v3.7h-0.9v-3.7c0-0.7-0.1-1.2-0.2-1.5s-0.3-0.5-0.5-0.7s-0.5-0.2-0.9-0.2s-0.8,0.1-1.2,0.4c-0.3,0.2-0.6,0.6-0.8,1
		s-0.2,1.1-0.2,2.1v2.6h-0.9v-3.5c0-0.8-0.1-1.4-0.2-1.7s-0.3-0.5-0.5-0.7c-0.3-0.2-0.6-0.3-0.9-0.3c-0.4,0-0.8,0.1-1.1,0.4
		c-0.3,0.2-0.6,0.6-0.8,1s-0.3,1-0.3,1.9v2.9h-0.7V44.3z"/>
	<path class="st0" d="M124.6,48.8l0.7,0.4c-0.2,0.5-0.5,0.9-0.8,1.1c-0.3,0.2-0.7,0.5-1.1,0.7s-0.8,0.2-1.3,0.2
		c-1.1,0-2-0.4-2.6-1.1c-0.6-0.7-0.9-1.5-0.9-2.4s0.3-1.6,0.8-2.3c0.7-0.9,1.6-1.3,2.7-1.3s2.1,0.4,2.8,1.3c0.5,0.6,0.7,1.4,0.7,2.3
		h-6.1c0,0.8,0.3,1.4,0.8,1.9s1.1,0.8,1.8,0.8c0.3,0,0.7-0.1,1-0.2c0.3-0.1,0.6-0.3,0.8-0.5C124.1,49.6,124.3,49.3,124.6,48.8z
		 M124.6,47c-0.1-0.5-0.3-0.8-0.5-1.1s-0.5-0.5-0.9-0.7s-0.7-0.3-1.1-0.3c-0.7,0-1.2,0.2-1.7,0.6c-0.3,0.3-0.6,0.8-0.8,1.4L124.6,47
		L124.6,47z"/>
	<path class="st0" d="M139.9,43.6l-0.7,0.6c-0.4-0.5-0.9-0.9-1.4-1.2c-0.6-0.3-1.2-0.4-1.8-0.4c-0.7,0-1.4,0.2-2,0.5
		s-1.1,0.8-1.4,1.4s-0.5,1.3-0.5,2c0,1.1,0.4,2,1.1,2.8s1.7,1.1,2.9,1.1c1.3,0,2.3-0.5,3.2-1.5l0.7,0.5c-0.5,0.6-1,1-1.7,1.3
		s-1.4,0.5-2.3,0.5c-1.6,0-2.9-0.5-3.8-1.6c-0.8-0.9-1.2-2-1.2-3.2c0-1.3,0.5-2.5,1.4-3.4s2.1-1.4,3.5-1.4c0.9,0,1.6,0.2,2.3,0.5
		S139.5,43,139.9,43.6z"/>
	<path class="st0" d="M145.1,44.2c1,0,1.9,0.4,2.6,1.1c0.6,0.7,0.9,1.5,0.9,2.4s-0.3,1.8-1,2.5s-1.5,1.1-2.5,1.1s-1.9-0.4-2.5-1.1
		c-0.7-0.7-1-1.5-1-2.5c0-0.9,0.3-1.7,0.9-2.4C143.2,44.5,144.1,44.2,145.1,44.2z M145.1,45c-0.7,0-1.3,0.3-1.9,0.8
		s-0.8,1.2-0.8,1.9c0,0.5,0.1,0.9,0.4,1.4s0.6,0.7,1,1s0.8,0.3,1.3,0.3s0.9-0.1,1.3-0.3s0.7-0.6,1-1s0.4-0.9,0.4-1.4
		c0-0.8-0.3-1.4-0.8-1.9S145.8,45,145.1,45z"/>
	<path class="st0" d="M150.5,44.3h0.9v3.2c0,0.8,0,1.3,0.1,1.6c0.1,0.4,0.4,0.7,0.7,1c0.3,0.2,0.8,0.4,1.3,0.4s0.9-0.1,1.2-0.3
		s0.6-0.5,0.7-0.9c0.1-0.3,0.1-0.8,0.1-1.7v-3.2h0.9v3.3c0,0.9-0.1,1.6-0.3,2.1s-0.5,0.8-1,1.1c-0.4,0.3-1,0.4-1.6,0.4
		s-1.2-0.1-1.6-0.4s-0.8-0.6-1-1.1s-0.3-1.2-0.3-2.2L150.5,44.3L150.5,44.3z"/>
	<path class="st0" d="M158.3,44.3h0.9v1c0.3-0.4,0.5-0.7,0.8-0.9s0.6-0.3,0.9-0.3c0.2,0,0.5,0.1,0.8,0.2l-0.5,0.7
		c-0.2-0.1-0.3-0.1-0.5-0.1c-0.3,0-0.6,0.1-0.8,0.4c-0.3,0.2-0.5,0.6-0.6,1.1c-0.1,0.4-0.2,1.2-0.2,2.3V51h-0.9v-6.7H158.3z"/>
	<path class="st0" d="M163.5,41.8h0.9v2.5h1.4v0.8h-1.4v6h-0.9v-6h-1.2v-0.8h1.2V41.8z"/>
</g>
<path class="st1" d="M133.1,41.9"/>
<path class="st1" d="M1.1,43.1"/>
<g>
	<circle class="st2" cx="33.6" cy="32.2" r="30.3"/>
</g>
<linearGradient id="SVGID_1_" gradientUnits="userSpaceOnUse" x1="33.5753" y1="27.6" x2="33.5753" y2="4.3442" gradientTransform="matrix(1 0 0 1 0 34)">
	<stop  offset="0.6854" style="stop-color:#B7A246"/>
	<stop  offset="1" style="stop-color:#FFFFFF"/>
</linearGradient>
<path class="st3" d="M62.4,38.6c-3,13-14.9,23-28.8,23S7.7,51.4,4.7,38.3h7.4c2.8,9,11.5,16.1,21.5,16.1S52.2,47.6,55,38.6H62.4z"/>
<g>
	<g>
		<path class="st4" d="M54.5,32.1c0,11.6-9.4,21-21,21s-21-9.4-21-21s9.4-21,21-21S54.5,20.5,54.5,32.1z"/>
	</g>
</g>
<g>
	<path class="st2" d="M17.6,52.1l-2-2.1l-2.1,2l-0.2-0.2l0.5-0.5c-0.7-0.5-1.3-1-1.9-1.5l0.1-0.3c0.1,0.1,0.2,0.2,0.5,0.4l1.5-1.5
		L13.6,48l0.2-0.2l4,4.1L17.6,52.1z M14,51l0.3-0.3l-1.1-1.1L12.7,50C13.2,50.4,13.7,50.8,14,51z M14.5,50.5l0.3-0.3l-1.1-1.1
		l-0.3,0.3L14.5,50.5z M15.7,53.9L15.4,54c-0.2-0.4-0.3-0.9-0.4-1.3c-0.5-0.1-0.9-0.2-1.3-0.4V52c0.4,0.2,0.8,0.3,1.2,0.4
		c0-0.6,0.1-1.1,0.3-1.6l-0.1-0.1l0.2-0.2l1.7,1.7c-0.6,0.4-1.2,0.6-1.7,0.5C15.4,53,15.5,53.4,15.7,53.9z M15,50l0.3-0.3l-1.1-1.1
		l-0.3,0.3L15,50z M17.4,51l-0.2-0.2l1.1-1L16,47.4l-1.1,1l-0.2-0.3l1.3-1.2l2.8,2.9L17.4,51z M17,50.4l-1.7-1.8l0.2-0.2l1.7,1.8
		L17,50.4z M16.6,52.1L15.5,51c-0.2,0.5-0.2,0.9-0.2,1.4C15.7,52.4,16.2,52.3,16.6,52.1z M17.5,49.9l-1.8-1.8l0.2-0.2l1.7,1.8
		L17.5,49.9z"/>
	<path class="st2" d="M28.8,59.7c0,0.1-0.1,0.2-0.2,0.3s-0.3,0.1-0.6,0c-0.1,0-0.2-0.1-0.3-0.1v-0.3c0.3,0.1,0.4,0.1,0.5,0.1
		c0.2,0,0.3,0,0.3-0.1l0.4-1.7l-4.1-1.1L24.2,59l-0.3-0.1l0.6-2.5l4.8,1.2L28.8,59.7z M30.1,55.8l-5.4-1.4l0.1-0.3l2.5,0.7
		c0-0.1,0-0.3-0.1-0.5h0.3c0,0.2,0.1,0.4,0.1,0.6l2.5,0.6V55.8z M27.8,59.2l-2.6-0.7l0.3-1.2l2.6,0.7L27.8,59.2z M28.8,57.1
		l-3.6-0.9l0.3-1.1l3.6,0.9L28.8,57.1z M27.5,58.9l0.2-0.6l-2-0.5l-0.2,0.6L27.5,58.9z M28.6,56.7l0.1-0.5l-2.9-0.7L25.7,56
		L28.6,56.7z"/>
	<path class="st2" d="M38.6,55.3l-0.2,0.3c-0.4-0.2-0.8-0.4-1.2-0.5l0.1-0.3C37.8,55,38.2,55.1,38.6,55.3z M38.9,56.9l-0.2,0.3
		c-0.3-0.2-0.7-0.3-1.3-0.5l0.1-0.3C38.2,56.5,38.6,56.7,38.9,56.9z M39.1,57.8c-0.2,1-0.4,1.7-0.6,2.3L38.2,60
		c0.3-0.6,0.5-1.4,0.6-2.3L39.1,57.8z M43.1,56.1l-2,0.5c-0.2,1-0.5,1.8-0.8,2.4c0.9-0.3,1.7-0.7,2.4-1.1c-0.3-0.3-0.6-0.5-0.9-0.7
		L42,57c0.7,0.5,1.3,1,1.7,1.5l-0.2,0.3c-0.2-0.2-0.4-0.4-0.5-0.6c-0.9,0.4-1.9,0.9-3,1.3l-0.2-0.3c0.2-0.1,0.4-0.4,0.5-0.9
		s0.3-1,0.4-1.6l-1.6,0.4L39,56.8l1.8-0.5l-0.3-1.2L39,55.5l-0.1-0.3l1.5-0.4L40.3,54l0.3-0.1l0.3,0.9l1.5-0.4l0.1,0.3L41,55.1
		l0.3,1.2l1.8-0.5L43.1,56.1z"/>
	<path class="st2" d="M50.1,50.4c0.6,0,1.1,0.2,1.4,0.6c0.1,0.1,0.2,0.3,0.2,0.4c0,0.2-0.1,0.4-0.3,0.6c-0.1,0.1-0.1,0.1-0.2,0.2
		l-0.3-0.1l0.3-0.3c0.1-0.1,0.2-0.3,0.2-0.3s0-0.2-0.1-0.2c-0.3-0.3-0.8-0.5-1.4-0.5c-0.2-0.4-0.4-0.9-0.7-1.4L48.5,50l3.6,3.4
		l-0.2,0.2L48.1,50l1.1-1.2l0.2,0.2C49.7,49.5,49.9,50,50.1,50.4z M53,47.3l-0.2,0.2l-0.7-0.6l-1.9,2l0.7,0.6l-0.2,0.2l-1-0.7
		l1.1-1.1c-0.1-0.1-0.3-0.1-0.6-0.2l0.2-0.3c0.2,0.1,0.4,0.2,0.6,0.3l1.1-1.1L53,47.3z M52.7,47.9l-1.5,1.6L51,49.3l1.5-1.6
		L52.7,47.9z M54.8,48.8c0.2,0.2,0.4,0.4,0.5,0.6c0.1,0.1,0.1,0.3,0.1,0.4c0,0.1-0.2,0.3-0.4,0.5c-0.3,0.3-0.5,0.3-0.7,0.1l-1.4-1.3
		l-0.5,0.5c0.5,0.5,0.7,1,0.8,1.4s0,0.9-0.2,1.4h-0.4c0.2-0.5,0.3-0.9,0.2-1.3c-0.1-0.4-0.3-0.8-0.7-1.2l-0.7,0.7l-0.2-0.2l2.4-2.5
		l0.2,0.2l-0.7,0.8l1.3,1.3h0.1c0,0,0.1-0.1,0.2-0.2c0.1-0.1,0.2-0.2,0.2-0.2v-0.1c0,0-0.1-0.1-0.2-0.3c-0.1-0.1-0.2-0.3-0.4-0.4
		L54.8,48.8z"/>
</g>
<g>
	<path class="st5" d="M7.5,24c-0.3,0.1-0.5,0.2-0.6,0.5c0,0.1,0,0.3,0.1,0.4s0.2,0.2,0.4,0.3s0.5-0.1,0.8-0.3
		c0.4-0.3,0.5-0.4,0.5-0.4c0.3-0.2,0.6-0.2,1-0.1c0.5,0.1,0.8,0.3,1,0.6c0.2,0.3,0.3,0.6,0.2,1c-0.1,0.5-0.5,0.7-1.2,0.8l-0.4-0.5
		c0.2,0,0.4,0,0.5-0.1c0.2-0.1,0.3-0.2,0.3-0.4c0-0.2,0-0.3-0.1-0.5c-0.1-0.1-0.3-0.2-0.5-0.3c-0.1,0-0.3,0-0.4,0
		c-0.1,0-0.4,0.2-0.7,0.6c-0.3,0.4-0.8,0.5-1.2,0.3c-0.4-0.1-0.7-0.3-0.9-0.6S6,24.8,6.1,24.5c0.1-0.4,0.4-0.7,0.8-0.8L7.5,24z"/>
	<path class="st5" d="M8,20.1l0.3-0.5l2.3,1.2c0.9,0.5,1.4,0.5,1.7,0.1c0.2-0.4-0.1-0.9-1-1.3L9,18.4l0.3-0.5l2.4,1.1
		c1.2,0.6,1.5,1.3,1.1,2.1c-0.4,0.8-1.2,0.9-2.4,0.2L8,20.1z"/>
	<path class="st5" d="M15.3,17.2l-0.4,0.5l-3.5-3L12,14c0.5-0.6,1.2-0.6,1.9,0s0.9,1.2,0.4,1.8L14,16.1L15.3,17.2z M13.5,15.7
		l0.2-0.2c0.3-0.3,0.2-0.7-0.2-1.1c-0.4-0.3-0.8-0.3-1.1,0l-0.2,0.2L13.5,15.7z"/>
	<path class="st5" d="M20,12.8l-0.6,0.5l-2.1-1l1.3,1.6l-0.5,0.4l-2.8-3.6l0.8-0.6c0.6-0.5,1.2-0.4,1.8,0.3c0.2,0.3,0.3,0.5,0.4,0.8
		c0,0.3,0,0.5-0.2,0.7L20,12.8z M17.2,12.1l0.1-0.1c0.4-0.3,0.4-0.7,0.1-1.1c-0.3-0.4-0.7-0.5-1.1-0.2l-0.1,0.1L17.2,12.1z"/>
	<path class="st5" d="M20.9,7.8l0.5,1.1l1.1-0.5L22.8,9l-1.1,0.4l0.6,1.3l1.1-0.6l0.3,0.6L22,11.5l-2.1-4.1l1.8-0.8L22,7.2L20.9,7.8
		z"/>
	<path class="st5" d="M28.2,6.1l-0.1,3.3H28l-1.6-2.9l0.3,3.1l-0.6,0.1L25.6,5L26,4.9l1.7,2.8l0.1-3.3l0.4-0.1l1.6,4.5L29.3,9
		L28.2,6.1z"/>
	<path class="st5" d="M32.9,4.7v1.2h1.2v0.7h-1.2V8h1.3v0.7h-1.9l-0.1-4.6h1.9v0.7L32.9,4.7z"/>
	<path class="st5" d="M44.4,7.4c-0.1-0.4-0.3-0.6-0.6-0.7s-0.6-0.1-1,0.2c-0.3,0.2-0.6,0.6-0.7,1c-0.2,0.4-0.2,0.8-0.1,1.2
		c0.1,0.4,0.3,0.7,0.6,0.8c0.3,0.1,0.6,0.1,0.9-0.2l-0.3,0.9c-0.3,0.1-0.6,0.1-0.9,0c-0.5-0.2-0.8-0.5-0.9-1.1
		c-0.2-0.6-0.1-1.1,0.1-1.8c0.3-0.7,0.7-1.2,1.2-1.5s1-0.4,1.4-0.2c0.2,0.1,0.5,0.3,0.7,0.5L44.4,7.4z"/>
	<path class="st5" d="M46.7,9.9c0.4-0.6,0.8-0.9,1.4-1.1c0.5-0.2,1-0.2,1.5,0.1s0.6,0.7,0.7,1.3c0,0.6-0.2,1.1-0.5,1.7
		S49,12.8,48.4,13c-0.5,0.2-1,0.2-1.5-0.1c-0.4-0.3-0.6-0.7-0.7-1.3S46.3,10.4,46.7,9.9z M47.3,10.2c-0.3,0.4-0.4,0.8-0.4,1.2
		s0.1,0.7,0.4,0.9s0.6,0.2,1,0.1c0.4-0.1,0.7-0.4,0.9-0.8c0.3-0.4,0.4-0.7,0.4-1.1c0-0.4-0.1-0.7-0.4-0.9s-0.6-0.2-1-0.1
		C47.8,9.5,47.5,9.8,47.3,10.2z"/>
	<path class="st5" d="M53.7,12.4l0.4,0.5l-1.9,1.7c-0.7,0.7-0.9,1.2-0.6,1.5c0.3,0.4,0.9,0.2,1.6-0.4l1.9-1.7l0.4,0.5l-2,1.8
		c-1,0.9-1.8,1-2.4,0.3c-0.6-0.7-0.4-1.4,0.6-2.3L53.7,12.4z"/>
	<path class="st5" d="M54.8,21.8l-0.4-0.7l1.3-1.9l-1.8,1l-0.3-0.5l4-2.3l0.5,0.8c0.4,0.7,0.2,1.3-0.6,1.7c-0.3,0.2-0.6,0.3-0.9,0.2
		c-0.3,0-0.5-0.1-0.6-0.3L54.8,21.8z M56,19.1l0.1,0.2c0.2,0.4,0.6,0.5,1.1,0.2s0.6-0.6,0.3-1l-0.1-0.2L56,19.1z"/>
	<path class="st5" d="M56.1,25.1l-0.2-0.5l3.7-1.2l-0.3-0.8l0.6-0.2l0.7,2L60,24.6l-0.3-0.8L56.1,25.1z"/>
</g>
<path class="st1" d="M49.4,138.9"/>
<polygon class="st6" points="29.2,26.3 25.4,34.9 41.7,34.9 37.5,26.3 "/>
<polygon class="st7" points="25.4,34.9 17.5,44.8 50.1,44.8 41.7,34.9 "/>
<path class="st8" d="M35,34.6h-0.5h-2.8v8.2c0,0.9,0.8,1.7,1.7,1.7s1.6-0.8,1.6-1.7V34.6z"/>
<path class="st8" d="M36.2,44.8h-5.8c-0.4,0-0.8,0.3-0.8,0.6v0.8c0,0.4,0.3,0.7,0.8,0.7h5.8c0.4,0,0.8-0.3,0.8-0.7v-0.8
	C37,45.1,36.6,44.8,36.2,44.8z"/>
<path class="st2" d="M37.4,47.7h-8c-0.6,0-1,0.3-1,0.7v0.8c0,0.4,0.4,0.7,1,0.7h8c0.6,0,1-0.3,1-0.7v-0.8
	C38.3,48,37.9,47.7,37.4,47.7z"/>
<path class="st2" d="M49.6,24.1c0-0.3-0.2-0.5-0.4-0.6c-0.4-0.3-1-0.2-1.4,0.1c-1.1,1.1-2.7,1.7-4.4,1.7s-3.2-0.6-4.3-1.6
	c-1.5-1.3-3.5-2.1-5.7-2.1c-2.1,0-4.1,0.7-5.5,1.9l0,0l-0.2,0.2l0,0c-1.1,1.1-2.7,1.7-4.4,1.7s-3.3-0.6-4.4-1.7
	c-0.2-0.2-0.4-0.3-0.7-0.3c-0.2,0-0.5,0-0.7,0.2s-0.4,0.4-0.4,0.6l0,0v0.1c0,0.2,0.1,0.4,0.3,0.6c1.5,1.4,3.6,2.3,5.9,2.3
	c2.1,0,4-0.7,5.5-1.9l0,0l0,0l0.1-0.1c1.1-1.1,2.7-1.7,4.4-1.7c1.7,0,3.2,0.6,4.3,1.6c1.4,1.3,3.5,2.1,5.7,2.1
	c2.3,0,4.4-0.8,5.9-2.3C49.5,24.6,49.6,24.4,49.6,24.1C49.6,24.2,49.6,24.1,49.6,24.1z M49.6,24.1L49.6,24.1L49.6,24.1L49.6,24.1z"
	/>
<path class="st2" d="M36.8,17.9c0,1.9-1.5,3.5-3.5,3.5c-1.9,0-3.4-1.5-3.4-3.5c0-1.9,1.5-3.5,3.4-3.5C35.3,14.4,36.8,15.9,36.8,17.9
	z"/>
<path class="st8" d="M28.2,39.2l-5.3-12c-0.1-0.2-0.3-0.3-0.5-0.3S22,27,21.9,27.3l0,0l-5.3,12c-0.1,0.2-0.1,0.4,0,0.6
	c1,1.9,3.3,3.2,5.8,3.2s4.8-1.2,5.8-3.2C28.3,39.6,28.3,39.4,28.2,39.2z M22.4,29c0.3,0.7,4.3,9.8,4.6,10.4h-9.2
	c0.2-0.5,3.1-7,3.1-7S22.1,29.6,22.4,29z"/>
<path class="st8" d="M50.2,39.2l-5.3-12c-0.1-0.2-0.3-0.3-0.5-0.3S44,27,43.9,27.3l0,0l-5.3,12c-0.1,0.2-0.1,0.4,0,0.6
	c1,1.9,3.3,3.2,5.8,3.2s4.8-1.2,5.8-3.2C50.3,39.6,50.3,39.4,50.2,39.2z M44.4,29c0.3,0.7,4.3,9.8,4.6,10.4h-9.3
	c0.2-0.4,2-4.5,2-4.5S44.1,29.7,44.4,29z"/>
<path class="st8" d="M38.9,26.2c-1,0-0.9,0.9-0.9,0.9h-1.2v-0.5h-7v0.5h-1.1c0,0,0.1-0.9-0.9-0.9c0,0-0.8,0-0.8,1v4.4
	c0,1.1,0.8,1,0.8,1c1,0,0.9-0.9,0.9-0.9h1.2v0.5h1.8v1.6H35v-1.6h1.9v-0.5h1.2c0,0-0.1,0.9,0.9,0.9c0,0,0.8,0,0.8-1v-4.4
	C39.7,26.2,38.9,26.2,38.9,26.2z"/>
<polygon class="st9" points="33.4,14.4 29.3,26.3 37.5,26.3 "/>
</svg>
