<?xml version="1.0" encoding="utf-8"?>
<!-- Generator: Adobe Illustrator 24.0.2, SVG Export Plug-In . SVG Version: 6.00 Build 0)  -->
<svg version="1.1" id="圖層_1" xmlns="http://www.w3.org/2000/svg" xmlns:xlink="http://www.w3.org/1999/xlink" x="0px" y="0px"
	 viewBox="0 0 193.2 64" style="enable-background:new 0 0 193.2 64;" xml:space="preserve">
<style type="text/css">
	.st0{fill:#333333;}
	.st1{fill:none;stroke:#FFFFFF;stroke-width:0.25;stroke-miterlimit:10;}
	.st2{fill:#FFFFFF;}
	.st3{fill:url(#SVGID_1_);}
	.st4{fill:#96C0F8;}
	.st5{fill:#B7A246;}
	.st6{fill:#2D068D;}
	.st7{fill:#494670;}
	.st8{opacity:0.74;fill:#FFFFFF;enable-background:new    ;}
	.st9{opacity:0.53;fill:#77FCFA;enable-background:new    ;}
</style>
<g>
	<path class="st0" d="M89.3,26.5c-0.7,2.2-1.8,4.1-3.2,5.5c1.3,0.9,2.7,1.6,4.4,1.9c-0.5,0.4-1,1.2-1.3,1.8
		c-1.7-0.5-3.3-1.3-4.6-2.3c-1.4,1.1-2.9,1.8-4.5,2.4c-0.2-0.5-0.7-1.3-1.2-1.7v1.8h-2.1v-2.2c-2.9,0.3-5.7,0.6-7.9,0.9l-0.2-2
		c0.6,0,1.4-0.1,2.2-0.2v-7.7h-2v-1.8h21v1.8h-11V34c1.5-0.4,2.9-1.2,4.2-2.1c-1.1-1.2-1.9-2.5-2.5-4l0.6-0.2h-1.4V26h7.9l0.4-0.1
		L89.3,26.5z M73.8,22h-2.1v-7.3h15.4V22h-2.2v-5.7H73.8C73.8,16.3,73.8,22,73.8,22z M72.8,24.7V26h3.9v-1.3H72.8z M72.8,29h3.9
		v-1.3h-3.9V29z M72.8,32.2c1.2-0.1,2.6-0.3,3.9-0.4v-1.2h-3.9V32.2z M83.8,17.4v1.4h-9.1v-1.4H83.8z M74.7,19.9h9.1v1.4h-9.1V19.9z
		 M82.4,27.7c0.5,1.1,1.2,2.1,2.1,2.9c0.9-0.8,1.6-1.8,2.1-2.9H82.4z"/>
	<path class="st0" d="M115,16.3v1.9H94v-1.9h9.5c-0.2-0.6-0.5-1.4-0.7-2l2.3-0.5c0.3,0.8,0.7,1.7,0.9,2.5H115z M114.3,33.7
		c0,1.1-0.3,1.5-1,1.8s-1.8,0.3-3.5,0.3c-0.1-0.5-0.4-1.2-0.7-1.7c1,0,2.2,0,2.5,0s0.4-0.1,0.4-0.4v-6.5H97v8.7h-2.2V25.4h19.5V33.7
		z M111.9,19.3v4.9H97.5v-4.9H111.9z M101.4,33.5v1.1h-2.1v-6.2h10.2v5.1C109.5,33.5,101.4,33.5,101.4,33.5z M109.5,20.9h-9.8v1.8
		h9.8V20.9z M101.4,30v1.8h6.1V30H101.4z"/>
	<path class="st0" d="M123.2,24.8c-0.9-0.8-2.9-1.9-4.4-2.6l1.2-1.7c1.5,0.6,3.5,1.6,4.5,2.4L123.2,24.8z M119.6,34.1
		c1.3-1.8,3.1-4.9,4.5-7.6l1.6,1.5c-1.2,2.5-2.8,5.4-4.2,7.6L119.6,34.1z M121.4,14.1c1.5,0.6,3.5,1.7,4.5,2.4l-1.3,1.8
		c-0.9-0.8-2.9-2-4.5-2.7L121.4,14.1z M138.4,35.9c-0.2-0.6-0.5-1.4-1-2.3c-8.5,1-9.6,1.2-10.3,1.6c-0.1-0.5-0.5-1.6-0.8-2.2
		c0.5-0.1,1-0.7,1.5-1.6c0.5-0.7,1.9-3,3-5.5h-4.9v-2.1h5.9v-3.9h-4.9v-2.1h4.9v-3.9h2.3v3.9h5.1v2.1h-5.1v3.9h6v2.1h-6.6
		c-1.1,2.4-2.5,4.7-3.8,6.6l6.7-0.7c-0.6-1-1.2-1.9-1.9-2.8l1.8-0.9c1.7,2.1,3.4,4.9,4.1,6.8L138.4,35.9z"/>
	<path class="st0" d="M152,15.6c-0.7,2-1.5,4.3-2.2,6.2c1.6,2,1.9,3.7,1.9,5.1s-0.3,2.4-1,2.9c-0.4,0.3-0.8,0.4-1.3,0.5
		c-0.4,0-1,0-1.6,0c0-0.6-0.2-1.4-0.5-1.9c0.5,0,0.9,0,1.2,0s0.5-0.1,0.7-0.2c0.3-0.3,0.5-0.9,0.5-1.6c0-1.2-0.4-2.8-2-4.6
		c0.6-1.6,1.2-3.6,1.7-5.2h-2.6v19h-2v-21h5.4l0.3-0.1L152,15.6z M163.7,33.7c0.5,0,0.6-0.4,0.6-3c0.5,0.4,1.3,0.7,1.9,0.8
		c-0.2,3.2-0.7,4-2.2,4h-1.9c-1.8,0-2.3-0.6-2.3-2.6v-5.7h-2.1c-0.4,4.2-1.5,7-6.1,8.6c-0.2-0.6-0.8-1.4-1.3-1.8
		c4-1.3,4.9-3.4,5.2-6.8h-3.1v-2h13.5v2h-4v5.6c0,0.6,0.1,0.7,0.5,0.7h1.3L163.7,33.7L163.7,33.7z M154.1,21.2h-1.9v-4.4h5.8
		c-0.3-0.8-0.7-1.8-1.1-2.5l2.1-0.6c0.6,1,1.2,2.2,1.5,3.1h5.2v4.4h-1.9V23h-9.7V21.2z M154.3,18.7V21h9.3v-2.4h-9.3V18.7z"/>
</g>
<g>
	<path class="st0" d="M69.9,49.4l0.8-0.5c0.5,1,1.2,1.5,1.9,1.5c0.3,0,0.6-0.1,0.9-0.2c0.3-0.1,0.5-0.3,0.6-0.6
		c0.1-0.2,0.2-0.5,0.2-0.8s-0.1-0.6-0.3-0.9c-0.3-0.4-0.8-0.9-1.6-1.5c-0.8-0.6-1.2-1-1.4-1.2c-0.3-0.4-0.5-0.9-0.5-1.4
		c0-0.4,0.1-0.8,0.3-1.1s0.5-0.6,0.8-0.8s0.7-0.3,1.1-0.3s0.8,0.1,1.2,0.3c0.4,0.2,0.8,0.6,1.2,1.2l-0.7,0.6
		c-0.3-0.5-0.6-0.8-0.9-0.9c-0.2-0.1-0.5-0.2-0.8-0.2c-0.4,0-0.7,0.1-0.9,0.3c-0.2,0.2-0.4,0.5-0.4,0.8c0,0.2,0,0.4,0.1,0.6
		c0.1,0.2,0.2,0.4,0.5,0.6c0.1,0.1,0.5,0.4,1.2,0.9c0.8,0.6,1.3,1.1,1.6,1.6c0.3,0.5,0.4,0.9,0.4,1.4c0,0.7-0.3,1.2-0.8,1.7
		s-1.1,0.7-1.8,0.7c-0.6,0-1.1-0.1-1.5-0.4C70.7,50.6,70.3,50.1,69.9,49.4z"/>
	<path class="st0" d="M77.2,44.3h0.9v3.2c0,0.8,0,1.3,0.1,1.6c0.1,0.4,0.4,0.7,0.7,1c0.3,0.2,0.8,0.4,1.3,0.4s0.9-0.1,1.2-0.3
		c0.3-0.2,0.6-0.5,0.7-0.9c0.1-0.3,0.1-0.8,0.1-1.7v-3.2h0.9v3.3c0,0.9-0.1,1.6-0.3,2.1s-0.5,0.8-1,1.1c-0.4,0.3-1,0.4-1.6,0.4
		s-1.2-0.1-1.6-0.4s-0.8-0.6-1-1.1s-0.3-1.2-0.3-2.2L77.2,44.3L77.2,44.3z"/>
	<path class="st0" d="M85.4,44.3h0.9v1.2c0.3-0.5,0.7-0.8,1.2-1.1c0.4-0.2,0.9-0.4,1.5-0.4c1,0,1.8,0.3,2.5,1s1,1.5,1,2.5
		s-0.3,1.8-1,2.5s-1.5,1-2.4,1c-0.5,0-1-0.1-1.5-0.3s-0.9-0.6-1.2-1v3.6h-0.9L85.4,44.3L85.4,44.3z M88.9,45c-0.8,0-1.4,0.3-1.9,0.8
		s-0.8,1.2-0.8,2c0,0.5,0.1,1,0.3,1.4c0.2,0.4,0.6,0.7,1,1s0.9,0.4,1.4,0.4s0.9-0.1,1.3-0.4c0.4-0.2,0.7-0.6,1-1
		c0.2-0.4,0.4-0.9,0.4-1.4s-0.1-0.9-0.4-1.4c-0.2-0.4-0.6-0.8-1-1S89.3,45,88.9,45z"/>
	<path class="st0" d="M94,44.3h0.9v1c0.3-0.4,0.5-0.7,0.8-0.9s0.6-0.3,0.9-0.3c0.2,0,0.5,0.1,0.8,0.2L96.9,45c-0.1,0-0.3,0-0.4,0
		c-0.3,0-0.6,0.1-0.8,0.4c-0.3,0.2-0.5,0.6-0.6,1.1c-0.1,0.4-0.2,1.2-0.2,2.3v2.3H94C94,51.1,94,44.3,94,44.3z"/>
	<path class="st0" d="M104.2,48.8l0.7,0.4c-0.2,0.5-0.5,0.9-0.8,1.1c-0.3,0.2-0.7,0.5-1.1,0.7s-0.8,0.2-1.3,0.2
		c-1.1,0-2-0.4-2.6-1.1c-0.6-0.7-0.9-1.5-0.9-2.4s0.3-1.6,0.8-2.3c0.7-0.9,1.6-1.3,2.7-1.3c1.1,0,2.1,0.4,2.8,1.3
		c0.5,0.6,0.7,1.4,0.7,2.3h-6.1c0,0.8,0.3,1.4,0.8,1.9s1.1,0.8,1.8,0.8c0.3,0,0.7-0.1,1-0.2c0.3-0.1,0.6-0.3,0.8-0.5
		C103.7,49.6,103.9,49.3,104.2,48.8z M104.2,47c-0.1-0.5-0.3-0.8-0.5-1.1s-0.5-0.5-0.9-0.7s-0.7-0.3-1.1-0.3c-0.7,0-1.2,0.2-1.7,0.6
		c-0.3,0.3-0.6,0.8-0.8,1.4L104.2,47L104.2,47z"/>
	<path class="st0" d="M107.1,44.3h0.9v1.2c0.3-0.4,0.6-0.7,0.9-0.9c0.4-0.3,0.9-0.4,1.4-0.4c0.3,0,0.6,0.1,0.9,0.2
		c0.3,0.1,0.5,0.3,0.7,0.5s0.3,0.5,0.5,0.9c0.3-0.5,0.7-0.9,1.1-1.2c0.4-0.3,0.9-0.4,1.4-0.4s0.9,0.1,1.2,0.4c0.4,0.2,0.6,0.6,0.8,1
		s0.3,1.1,0.3,1.9v3.7h-0.9v-3.7c0-0.7-0.1-1.2-0.2-1.5c-0.1-0.3-0.3-0.5-0.5-0.7s-0.5-0.2-0.9-0.2s-0.8,0.1-1.2,0.4
		c-0.3,0.2-0.6,0.6-0.8,1s-0.2,1.1-0.2,2.1v2.6h-0.9v-3.5c0-0.8-0.1-1.4-0.2-1.7c-0.1-0.3-0.3-0.5-0.5-0.7c-0.3-0.2-0.6-0.3-0.9-0.3
		c-0.4,0-0.8,0.1-1.1,0.4c-0.3,0.2-0.6,0.6-0.8,1s-0.3,1-0.3,1.9v2.9h-0.7V44.3z"/>
	<path class="st0" d="M125,48.8l0.7,0.4c-0.2,0.5-0.5,0.9-0.8,1.1c-0.3,0.2-0.7,0.5-1.1,0.7s-0.8,0.2-1.3,0.2c-1.1,0-2-0.4-2.6-1.1
		c-0.6-0.7-0.9-1.5-0.9-2.4s0.3-1.6,0.8-2.3c0.7-0.9,1.6-1.3,2.7-1.3s2.1,0.4,2.8,1.3c0.5,0.6,0.7,1.4,0.7,2.3h-6.1
		c0,0.8,0.3,1.4,0.8,1.9s1.1,0.8,1.8,0.8c0.3,0,0.7-0.1,1-0.2c0.3-0.1,0.6-0.3,0.8-0.5C124.5,49.6,124.7,49.3,125,48.8z M125,47
		c-0.1-0.5-0.3-0.8-0.5-1.1s-0.5-0.5-0.9-0.7s-0.7-0.3-1.1-0.3c-0.7,0-1.2,0.2-1.7,0.6c-0.3,0.3-0.6,0.8-0.8,1.4L125,47L125,47z"/>
	<path class="st0" d="M140.3,43.6l-0.7,0.6c-0.4-0.5-0.9-0.9-1.4-1.2c-0.6-0.3-1.2-0.4-1.8-0.4c-0.7,0-1.4,0.2-2,0.5
		s-1.1,0.8-1.4,1.4s-0.5,1.3-0.5,2c0,1.1,0.4,2,1.1,2.8s1.7,1.1,2.9,1.1c1.3,0,2.3-0.5,3.2-1.5l0.7,0.5c-0.5,0.6-1,1-1.7,1.3
		s-1.4,0.5-2.3,0.5c-1.6,0-2.9-0.5-3.8-1.6c-0.8-0.9-1.2-2-1.2-3.2c0-1.3,0.5-2.5,1.4-3.4s2.1-1.4,3.5-1.4c0.9,0,1.6,0.2,2.3,0.5
		S139.9,43,140.3,43.6z"/>
	<path class="st0" d="M145.5,44.2c1,0,1.9,0.4,2.6,1.1c0.6,0.7,0.9,1.5,0.9,2.4s-0.3,1.8-1,2.5s-1.5,1.1-2.5,1.1s-1.9-0.4-2.5-1.1
		c-0.7-0.7-1-1.5-1-2.5c0-0.9,0.3-1.7,0.9-2.4C143.6,44.5,144.5,44.2,145.5,44.2z M145.5,45c-0.7,0-1.3,0.3-1.9,0.8
		s-0.8,1.2-0.8,1.9c0,0.5,0.1,0.9,0.4,1.4s0.6,0.7,1,1s0.8,0.3,1.3,0.3s0.9-0.1,1.3-0.3s0.7-0.6,1-1s0.4-0.9,0.4-1.4
		c0-0.8-0.3-1.4-0.8-1.9S146.2,45,145.5,45z"/>
	<path class="st0" d="M150.9,44.3h0.9v3.2c0,0.8,0,1.3,0.1,1.6c0.1,0.4,0.4,0.7,0.7,1c0.3,0.2,0.8,0.4,1.3,0.4s0.9-0.1,1.2-0.3
		s0.6-0.5,0.7-0.9c0.1-0.3,0.1-0.8,0.1-1.7v-3.2h0.9v3.3c0,0.9-0.1,1.6-0.3,2.1s-0.5,0.8-1,1.1c-0.4,0.3-1,0.4-1.6,0.4
		s-1.2-0.1-1.6-0.4s-0.8-0.6-1-1.1s-0.3-1.2-0.3-2.2L150.9,44.3L150.9,44.3z"/>
	<path class="st0" d="M158.7,44.3h0.9v1c0.3-0.4,0.5-0.7,0.8-0.9s0.6-0.3,0.9-0.3c0.2,0,0.5,0.1,0.8,0.2l-0.5,0.7
		c-0.2-0.1-0.3-0.1-0.5-0.1c-0.3,0-0.6,0.1-0.8,0.4c-0.3,0.2-0.5,0.6-0.6,1.1c-0.1,0.4-0.2,1.2-0.2,2.3V51h-0.9v-6.7H158.7z"/>
	<path class="st0" d="M163.9,41.8h0.9v2.5h1.4v0.8h-1.4v6h-0.9v-6h-1.2v-0.8h1.2V41.8z"/>
</g>
<path class="st1" d="M133.5,41.9"/>
<path class="st1" d="M1.5,43.1"/>
<g>
	<circle class="st2" cx="34" cy="32.2" r="30.3"/>
</g>
<linearGradient id="SVGID_1_" gradientUnits="userSpaceOnUse" x1="33.9311" y1="2.4" x2="33.9311" y2="25.6558" gradientTransform="matrix(1 0 0 -1 0 64)">
	<stop  offset="0.6854" style="stop-color:#B7A246"/>
	<stop  offset="1" style="stop-color:#FFFFFF"/>
</linearGradient>
<path class="st3" d="M62.8,38.6c-3,13-14.9,23-28.8,23S8.1,51.4,5.1,38.3h7.4c2.8,9,11.5,16.1,21.5,16.1s18.6-6.8,21.4-15.8
	C55.4,38.6,62.8,38.6,62.8,38.6z"/>
<g>
	<g>
		<path class="st4" d="M54.9,32.1c0,11.6-9.4,21-21,21s-21-9.4-21-21s9.4-21,21-21S54.9,20.5,54.9,32.1z"/>
	</g>
</g>
<g>
	<path class="st2" d="M18,52.1L16,50l-2.1,2l-0.2-0.2l0.5-0.5c-0.7-0.5-1.3-1-1.9-1.5l0.1-0.3c0.1,0.1,0.2,0.2,0.5,0.4l1.5-1.5
		L14,48l0.2-0.2l4,4.1L18,52.1z M14.4,51l0.3-0.3l-1.1-1.1L13.1,50C13.6,50.4,14.1,50.8,14.4,51z M14.9,50.5l0.3-0.3l-1.1-1.1
		l-0.3,0.3L14.9,50.5z M16.1,53.9L15.8,54c-0.2-0.4-0.3-0.9-0.4-1.3c-0.5-0.1-0.9-0.2-1.3-0.4V52c0.4,0.2,0.8,0.3,1.2,0.4
		c0-0.6,0.1-1.1,0.3-1.6l-0.1-0.1l0.2-0.2l1.7,1.7c-0.6,0.4-1.2,0.6-1.7,0.5C15.8,53,15.9,53.4,16.1,53.9z M15.4,50l0.3-0.3
		l-1.1-1.1l-0.3,0.3L15.4,50z M17.8,51l-0.2-0.2l1.1-1l-2.3-2.4l-1.1,1l-0.2-0.3l1.3-1.2l2.8,2.9L17.8,51z M17.4,50.4l-1.7-1.8
		l0.2-0.2l1.7,1.8L17.4,50.4z M17,52.1L15.9,51c-0.2,0.5-0.2,0.9-0.2,1.4C16.1,52.4,16.6,52.3,17,52.1z M17.9,49.9l-1.8-1.8l0.2-0.2
		l1.7,1.8L17.9,49.9z"/>
	<path class="st2" d="M29.2,59.7c0,0.1-0.1,0.2-0.2,0.3c-0.1,0.1-0.3,0.1-0.6,0c-0.1,0-0.2-0.1-0.3-0.1v-0.3
		c0.3,0.1,0.4,0.1,0.5,0.1c0.2,0,0.3,0,0.3-0.1l0.4-1.7l-4.1-1.1L24.6,59l-0.3-0.1l0.6-2.5l4.8,1.2L29.2,59.7z M30.5,55.8l-5.4-1.4
		l0.1-0.3l2.5,0.7c0-0.1,0-0.3-0.1-0.5h0.3c0,0.2,0.1,0.4,0.1,0.6l2.5,0.6L30.5,55.8z M28.2,59.2l-2.6-0.7l0.3-1.2l2.6,0.7
		L28.2,59.2z M29.2,57.1l-3.6-0.9l0.3-1.1l3.6,0.9L29.2,57.1z M27.9,58.9l0.2-0.6l-2-0.5l-0.2,0.6L27.9,58.9z M29,56.7l0.1-0.5
		l-2.9-0.7L26.1,56L29,56.7z"/>
	<path class="st2" d="M39,55.3l-0.2,0.3c-0.4-0.2-0.8-0.4-1.2-0.5l0.1-0.3C38.2,55,38.6,55.1,39,55.3z M39.3,56.9l-0.2,0.3
		c-0.3-0.2-0.7-0.3-1.3-0.5l0.1-0.3C38.6,56.5,39,56.7,39.3,56.9z M39.5,57.8c-0.2,1-0.4,1.7-0.6,2.3L38.6,60
		c0.3-0.6,0.5-1.4,0.6-2.3L39.5,57.8z M43.5,56.1l-2,0.5c-0.2,1-0.5,1.8-0.8,2.4c0.9-0.3,1.7-0.7,2.4-1.1c-0.3-0.3-0.6-0.5-0.9-0.7
		l0.2-0.2c0.7,0.5,1.3,1,1.7,1.5l-0.2,0.3c-0.2-0.2-0.4-0.4-0.5-0.6c-0.9,0.4-1.9,0.9-3,1.3l-0.2-0.3c0.2-0.1,0.4-0.4,0.5-0.9
		s0.3-1,0.4-1.6l-1.6,0.4l-0.1-0.3l1.8-0.5l-0.3-1.2l-1.5,0.4l-0.1-0.3l1.5-0.4L40.7,54l0.3-0.1l0.3,0.9l1.5-0.4l0.1,0.3l-1.5,0.4
		l0.3,1.2l1.8-0.5L43.5,56.1z"/>
	<path class="st2" d="M50.5,50.4c0.6,0,1.1,0.2,1.4,0.6c0.1,0.1,0.2,0.3,0.2,0.4c0,0.2-0.1,0.4-0.3,0.6c-0.1,0.1-0.1,0.1-0.2,0.2
		l-0.3-0.1l0.3-0.3c0.1-0.1,0.2-0.3,0.2-0.3s0-0.2-0.1-0.2c-0.3-0.3-0.8-0.5-1.4-0.5c-0.2-0.4-0.4-0.9-0.7-1.4L48.9,50l3.6,3.4
		l-0.2,0.2L48.5,50l1.1-1.2l0.2,0.2C50.1,49.5,50.3,50,50.5,50.4z M53.4,47.3l-0.2,0.2l-0.7-0.6l-1.9,2l0.7,0.6l-0.2,0.2l-1-0.7
		l1.1-1.1c-0.1-0.1-0.3-0.1-0.6-0.2l0.2-0.3c0.2,0.1,0.4,0.2,0.6,0.3l1.1-1.1L53.4,47.3z M53.1,47.9l-1.5,1.6l-0.2-0.2l1.5-1.6
		L53.1,47.9z M55.2,48.8c0.2,0.2,0.4,0.4,0.5,0.6c0.1,0.1,0.1,0.3,0.1,0.4c0,0.1-0.2,0.3-0.4,0.5c-0.3,0.3-0.5,0.3-0.7,0.1l-1.4-1.3
		l-0.5,0.5c0.5,0.5,0.7,1,0.8,1.4c0.1,0.4,0,0.9-0.2,1.4H53c0.2-0.5,0.3-0.9,0.2-1.3c-0.1-0.4-0.3-0.8-0.7-1.2l-0.7,0.7l-0.2-0.2
		l2.4-2.5l0.2,0.2l-0.7,0.8l1.3,1.3h0.1c0,0,0.1-0.1,0.2-0.2c0.1-0.1,0.2-0.2,0.2-0.2v-0.1c0,0-0.1-0.1-0.2-0.3
		c-0.1-0.1-0.2-0.3-0.4-0.4L55.2,48.8z"/>
</g>
<g>
	<path class="st5" d="M7.9,24c-0.3,0.1-0.5,0.2-0.6,0.5c0,0.1,0,0.3,0.1,0.4s0.2,0.2,0.4,0.3s0.5-0.1,0.8-0.3
		c0.4-0.3,0.5-0.4,0.5-0.4c0.3-0.2,0.6-0.2,1-0.1c0.5,0.1,0.8,0.3,1,0.6c0.2,0.3,0.3,0.6,0.2,1c-0.1,0.5-0.5,0.7-1.2,0.8l-0.4-0.5
		c0.2,0,0.4,0,0.5-0.1c0.2-0.1,0.3-0.2,0.3-0.4c0-0.2,0-0.3-0.1-0.5c-0.1-0.1-0.3-0.2-0.5-0.3c-0.1,0-0.3,0-0.4,0
		c-0.1,0-0.4,0.2-0.7,0.6S8,26.1,7.6,25.9c-0.4-0.1-0.7-0.3-0.9-0.6s-0.3-0.5-0.2-0.8c0.1-0.4,0.4-0.7,0.8-0.8L7.9,24z"/>
	<path class="st5" d="M8.4,20.1l0.3-0.5l2.3,1.2c0.9,0.5,1.4,0.5,1.7,0.1c0.2-0.4-0.1-0.9-1-1.3l-2.3-1.2l0.3-0.5l2.4,1.1
		c1.2,0.6,1.5,1.3,1.1,2.1c-0.4,0.8-1.2,0.9-2.4,0.2L8.4,20.1z"/>
	<path class="st5" d="M15.7,17.2l-0.4,0.5l-3.5-3l0.6-0.7c0.5-0.6,1.2-0.6,1.9,0s0.9,1.2,0.4,1.8l-0.3,0.3L15.7,17.2z M13.9,15.7
		l0.2-0.2c0.3-0.3,0.2-0.7-0.2-1.1c-0.4-0.3-0.8-0.3-1.1,0l-0.2,0.2L13.9,15.7z"/>
	<path class="st5" d="M20.4,12.8l-0.6,0.5l-2.1-1l1.3,1.6l-0.5,0.4l-2.8-3.6l0.8-0.6c0.6-0.5,1.2-0.4,1.8,0.3
		c0.2,0.3,0.3,0.5,0.4,0.8c0,0.3,0,0.5-0.2,0.7L20.4,12.8z M17.6,12.1l0.1-0.1c0.4-0.3,0.4-0.7,0.1-1.1c-0.3-0.4-0.7-0.5-1.1-0.2
		l-0.1,0.1L17.6,12.1z"/>
	<path class="st5" d="M21.3,7.8l0.5,1.1l1.1-0.5L23.2,9l-1.1,0.4l0.6,1.3l1.1-0.6l0.3,0.6l-1.7,0.8l-2.1-4.1l1.8-0.8l0.3,0.6
		L21.3,7.8z"/>
	<path class="st5" d="M28.6,6.1l-0.1,3.3h-0.1l-1.6-2.9l0.3,3.1l-0.6,0.1L26,5l0.4-0.1l1.7,2.8l0.1-3.3l0.4-0.1l1.6,4.5L29.7,9
		L28.6,6.1z"/>
	<path class="st5" d="M33.3,4.7v1.2h1.2v0.7h-1.2V8h1.3v0.7h-1.9l-0.1-4.6h1.9v0.7L33.3,4.7z"/>
	<path class="st5" d="M44.8,7.4c-0.1-0.4-0.3-0.6-0.6-0.7c-0.3-0.1-0.6-0.1-1,0.2c-0.3,0.2-0.6,0.6-0.7,1c-0.2,0.4-0.2,0.8-0.1,1.2
		c0.1,0.4,0.3,0.7,0.6,0.8c0.3,0.1,0.6,0.1,0.9-0.2l-0.3,0.9c-0.3,0.1-0.6,0.1-0.9,0c-0.5-0.2-0.8-0.5-0.9-1.1
		c-0.2-0.6-0.1-1.1,0.1-1.8c0.3-0.7,0.7-1.2,1.2-1.5s1-0.4,1.4-0.2c0.2,0.1,0.5,0.3,0.7,0.5L44.8,7.4z"/>
	<path class="st5" d="M47.1,9.9c0.4-0.6,0.8-0.9,1.4-1.1c0.5-0.2,1-0.2,1.5,0.1s0.6,0.7,0.7,1.3c0,0.6-0.2,1.1-0.5,1.7
		s-0.8,0.9-1.4,1.1c-0.5,0.2-1,0.2-1.5-0.1c-0.4-0.3-0.6-0.7-0.7-1.3S46.7,10.4,47.1,9.9z M47.7,10.2c-0.3,0.4-0.4,0.8-0.4,1.2
		s0.1,0.7,0.4,0.9s0.6,0.2,1,0.1c0.4-0.1,0.7-0.4,0.9-0.8c0.3-0.4,0.4-0.7,0.4-1.1c0-0.4-0.1-0.7-0.4-0.9s-0.6-0.2-1-0.1
		C48.2,9.5,47.9,9.8,47.7,10.2z"/>
	<path class="st5" d="M54.1,12.4l0.4,0.5l-1.9,1.7c-0.7,0.7-0.9,1.2-0.6,1.5c0.3,0.4,0.9,0.2,1.6-0.4l1.9-1.7l0.4,0.5l-2,1.8
		c-1,0.9-1.8,1-2.4,0.3s-0.4-1.4,0.6-2.3L54.1,12.4z"/>
	<path class="st5" d="M55.2,21.8l-0.4-0.7l1.3-1.9l-1.8,1L54,19.7l4-2.3l0.5,0.8c0.4,0.7,0.2,1.3-0.6,1.7c-0.3,0.2-0.6,0.3-0.9,0.2
		c-0.3,0-0.5-0.1-0.6-0.3L55.2,21.8z M56.4,19.1l0.1,0.2c0.2,0.4,0.6,0.5,1.1,0.2s0.6-0.6,0.3-1l-0.1-0.2L56.4,19.1z"/>
	<path class="st5" d="M56.5,25.1l-0.2-0.5l3.7-1.2l-0.3-0.8l0.6-0.2l0.7,2l-0.6,0.2l-0.3-0.8L56.5,25.1z"/>
</g>
<path class="st1" d="M10.8,138.9"/>
<polygon class="st6" points="29.6,26.3 25.8,34.9 42.1,34.9 37.9,26.3 "/>
<polygon class="st7" points="25.8,34.9 17.9,44.8 50.5,44.8 42.1,34.9 "/>
<path class="st8" d="M35.4,34.6h-0.5h-2.8v8.2c0,0.9,0.8,1.7,1.7,1.7s1.6-0.8,1.6-1.7V34.6z"/>
<path class="st8" d="M36.6,44.8h-5.8c-0.4,0-0.8,0.3-0.8,0.6v0.8c0,0.4,0.3,0.7,0.8,0.7h5.8c0.4,0,0.8-0.3,0.8-0.7v-0.8
	C37.4,45.1,37,44.8,36.6,44.8z"/>
<path class="st2" d="M37.8,47.7h-8c-0.6,0-1,0.3-1,0.7v0.8c0,0.4,0.4,0.7,1,0.7h8c0.6,0,1-0.3,1-0.7v-0.8
	C38.7,48,38.3,47.7,37.8,47.7z"/>
<path class="st2" d="M50,24.1c0-0.3-0.2-0.5-0.4-0.6c-0.4-0.3-1-0.2-1.4,0.1c-1.1,1.1-2.7,1.7-4.4,1.7c-1.7,0-3.2-0.6-4.3-1.6
	c-1.5-1.3-3.5-2.1-5.7-2.1c-2.1,0-4.1,0.7-5.5,1.9l0,0l-0.2,0.2l0,0c-1.1,1.1-2.7,1.7-4.4,1.7s-3.3-0.6-4.4-1.7
	c-0.2-0.2-0.4-0.3-0.7-0.3c-0.2,0-0.5,0-0.7,0.2s-0.4,0.4-0.4,0.6l0,0v0.1c0,0.2,0.1,0.4,0.3,0.6c1.5,1.4,3.6,2.3,5.9,2.3
	c2.1,0,4-0.7,5.5-1.9l0,0l0,0l0.1-0.1c1.1-1.1,2.7-1.7,4.4-1.7c1.7,0,3.2,0.6,4.3,1.6c1.4,1.3,3.5,2.1,5.7,2.1
	c2.3,0,4.4-0.8,5.9-2.3C49.9,24.6,50,24.4,50,24.1C50,24.2,50,24.1,50,24.1z M50,24.1L50,24.1L50,24.1L50,24.1z"/>
<path class="st2" d="M37.2,17.9c0,1.9-1.5,3.5-3.5,3.5c-1.9,0-3.4-1.5-3.4-3.5c0-1.9,1.5-3.5,3.4-3.5C35.7,14.4,37.2,15.9,37.2,17.9
	z"/>
<path class="st8" d="M28.6,39.2l-5.3-12c-0.1-0.2-0.3-0.3-0.5-0.3s-0.4,0.1-0.5,0.4l0,0l-5.3,12c-0.1,0.2-0.1,0.4,0,0.6
	c1,1.9,3.3,3.2,5.8,3.2s4.8-1.2,5.8-3.2C28.7,39.6,28.7,39.4,28.6,39.2z M22.8,29c0.3,0.7,4.3,9.8,4.6,10.4h-9.2
	c0.2-0.5,3.1-7,3.1-7S22.5,29.6,22.8,29z"/>
<path class="st8" d="M50.6,39.2l-5.3-12c-0.1-0.2-0.3-0.3-0.5-0.3s-0.4,0.1-0.5,0.4l0,0l-5.3,12c-0.1,0.2-0.1,0.4,0,0.6
	c1,1.9,3.3,3.2,5.8,3.2s4.8-1.2,5.8-3.2C50.7,39.6,50.7,39.4,50.6,39.2z M44.8,29c0.3,0.7,4.3,9.8,4.6,10.4h-9.3
	c0.2-0.4,2-4.5,2-4.5S44.5,29.7,44.8,29z"/>
<path class="st8" d="M39.3,26.2c-1,0-0.9,0.9-0.9,0.9h-1.2v-0.5h-7v0.5h-1.1c0,0,0.1-0.9-0.9-0.9c0,0-0.8,0-0.8,1v4.4
	c0,1.1,0.8,1,0.8,1c1,0,0.9-0.9,0.9-0.9h1.2v0.5h1.8v1.6h3.3v-1.6h1.9v-0.5h1.2c0,0-0.1,0.9,0.9,0.9c0,0,0.8,0,0.8-1v-4.4
	C40.1,26.2,39.3,26.2,39.3,26.2z"/>
<polygon class="st9" points="33.8,14.4 29.7,26.3 37.9,26.3 "/>
</svg>
