<?xml version="1.0" encoding="utf-8"?>
<!-- Generator: Adobe Illustrator 24.0.2, SVG Export Plug-In . SVG Version: 6.00 Build 0)  -->
<svg version="1.1" id="圖層_1" xmlns="http://www.w3.org/2000/svg" xmlns:xlink="http://www.w3.org/1999/xlink" x="0px" y="0px"
	 viewBox="0 0 270.8 64" style="enable-background:new 0 0 270.8 64;" xml:space="preserve">
<style type="text/css">
	.st0{fill:#333333;}
	.st1{fill:none;stroke:#FFFFFF;stroke-width:0.25;stroke-miterlimit:10;}
	.st2{fill:#FFFFFF;}
	.st3{fill:url(#SVGID_1_);}
	.st4{fill:#005BAB;}
	.st5{fill:#B7A246;}
</style>
<g>
	<path class="st0" d="M91.2,26.5c-0.7,2.2-1.8,4.1-3.2,5.5c1.3,0.9,2.7,1.6,4.4,1.9c-0.5,0.4-1,1.2-1.3,1.8
		c-1.7-0.5-3.3-1.3-4.6-2.3c-1.4,1.1-2.9,1.8-4.5,2.4c-0.2-0.5-0.7-1.3-1.2-1.7v1.8h-2.1v-2.2c-2.9,0.3-5.7,0.6-7.9,0.9l-0.2-2
		c0.6,0,1.4-0.1,2.2-0.2v-7.7h-2v-1.8h21v1.8h-11V34c1.5-0.4,2.9-1.2,4.2-2.1c-1.1-1.2-1.9-2.5-2.5-4l0.6-0.2h-1.4V26h7.9l0.4-0.1
		L91.2,26.5z M75.7,22h-2.1v-7.3H89V22h-2.2v-5.7H75.7V22z M74.7,24.7v1.3h3.9v-1.3H74.7z M74.7,29h3.9v-1.3h-3.9V29z M74.7,32.2
		c1.2-0.1,2.6-0.3,3.9-0.4v-1.2h-3.9V32.2z M85.7,17.4v1.4h-9.1v-1.4H85.7z M76.6,19.9h9.1v1.4h-9.1V19.9z M84.3,27.7
		c0.5,1.1,1.2,2.1,2.1,2.9c0.9-0.8,1.6-1.8,2.1-2.9H84.3z"/>
	<path class="st0" d="M116.9,16.3v1.9H95.9v-1.9h9.5c-0.2-0.6-0.5-1.4-0.7-2l2.3-0.5c0.3,0.8,0.7,1.7,0.9,2.5H116.9z M116.2,33.7
		c0,1.1-0.3,1.5-1,1.8c-0.7,0.3-1.8,0.3-3.5,0.3c-0.1-0.5-0.4-1.2-0.7-1.7c1,0,2.2,0,2.5,0c0.3,0,0.4-0.1,0.4-0.4v-6.5H98.9v8.7
		h-2.2V25.4h19.5V33.7z M113.8,19.3v4.9H99.4v-4.9H113.8z M103.3,33.5v1.1h-2.1v-6.2h10.2v5.1H103.3z M111.4,20.9h-9.8v1.8h9.8V20.9
		z M103.3,30v1.8h6.1V30H103.3z"/>
	<path class="st0" d="M125.1,24.8c-0.9-0.8-2.9-1.9-4.4-2.6l1.2-1.7c1.5,0.6,3.5,1.6,4.5,2.4L125.1,24.8z M121.5,34.1
		c1.3-1.8,3.1-4.9,4.5-7.6l1.6,1.5c-1.2,2.5-2.8,5.4-4.2,7.6L121.5,34.1z M123.3,14.1c1.5,0.6,3.5,1.7,4.5,2.4l-1.3,1.8
		c-0.9-0.8-2.9-2-4.5-2.7L123.3,14.1z M140.3,35.9c-0.2-0.6-0.5-1.4-1-2.3c-8.5,1-9.6,1.2-10.3,1.6c-0.1-0.5-0.5-1.6-0.8-2.2
		c0.5-0.1,1-0.7,1.5-1.6c0.5-0.7,1.9-3,3-5.5h-4.9v-2.1h5.9v-3.9h-4.9v-2.1h4.9v-3.9h2.3v3.9h5.1v2.1H136v3.9h6v2.1h-6.6
		c-1.1,2.4-2.5,4.7-3.8,6.6l6.7-0.7c-0.6-1-1.2-1.9-1.9-2.8l1.8-0.9c1.7,2.1,3.4,4.9,4.1,6.8L140.3,35.9z"/>
	<path class="st0" d="M153.9,15.6c-0.7,2-1.5,4.3-2.2,6.2c1.6,2,1.9,3.7,1.9,5.1c0,1.4-0.3,2.4-1,2.9c-0.4,0.3-0.8,0.4-1.3,0.5
		c-0.4,0-1,0-1.6,0c0-0.6-0.2-1.4-0.5-1.9c0.5,0,0.9,0,1.2,0c0.3,0,0.5-0.1,0.7-0.2c0.3-0.3,0.5-0.9,0.5-1.6c0-1.2-0.4-2.8-2-4.6
		c0.6-1.6,1.2-3.6,1.7-5.2h-2.6v19h-2v-21h5.4l0.3-0.1L153.9,15.6z M165.6,33.7c0.5,0,0.6-0.4,0.6-3c0.5,0.4,1.3,0.7,1.9,0.8
		c-0.2,3.2-0.7,4-2.2,4h-1.9c-1.8,0-2.3-0.6-2.3-2.6v-5.7h-2.1c-0.4,4.2-1.5,7-6.1,8.6c-0.2-0.6-0.8-1.4-1.3-1.8
		c4-1.3,4.9-3.4,5.2-6.8h-3.1v-2h13.5v2h-4v5.6c0,0.6,0.1,0.7,0.5,0.7H165.6z M156,21.2h-1.9v-4.4h5.8c-0.3-0.8-0.7-1.8-1.1-2.5
		l2.1-0.6c0.6,1,1.2,2.2,1.5,3.1h5.2v4.4h-1.9V23H156V21.2z M156.2,18.7V21h9.3v-2.4H156.2z"/>
</g>
<g>
	<path class="st0" d="M71.8,49.4l0.8-0.5c0.5,1,1.2,1.5,1.9,1.5c0.3,0,0.6-0.1,0.9-0.2c0.3-0.1,0.5-0.3,0.6-0.6
		c0.1-0.2,0.2-0.5,0.2-0.8c0-0.3-0.1-0.6-0.3-0.9c-0.3-0.4-0.8-0.9-1.6-1.5c-0.8-0.6-1.2-1-1.4-1.2c-0.3-0.4-0.5-0.9-0.5-1.4
		c0-0.4,0.1-0.8,0.3-1.1s0.5-0.6,0.8-0.8c0.3-0.2,0.7-0.3,1.1-0.3c0.4,0,0.8,0.1,1.2,0.3c0.4,0.2,0.8,0.6,1.2,1.2l-0.7,0.6
		c-0.3-0.5-0.6-0.8-0.9-0.9c-0.2-0.1-0.5-0.2-0.8-0.2c-0.4,0-0.7,0.1-0.9,0.3c-0.2,0.2-0.4,0.5-0.4,0.8c0,0.2,0,0.4,0.1,0.6
		c0.1,0.2,0.2,0.4,0.5,0.6c0.1,0.1,0.5,0.4,1.2,0.9c0.8,0.6,1.3,1.1,1.6,1.6c0.3,0.5,0.4,0.9,0.4,1.4c0,0.7-0.3,1.2-0.8,1.7
		c-0.5,0.5-1.1,0.7-1.8,0.7c-0.6,0-1.1-0.1-1.5-0.4C72.6,50.6,72.2,50.1,71.8,49.4z"/>
	<path class="st0" d="M79.1,44.3H80v3.2c0,0.8,0,1.3,0.1,1.6c0.1,0.4,0.4,0.7,0.7,1c0.3,0.2,0.8,0.4,1.3,0.4s0.9-0.1,1.2-0.3
		c0.3-0.2,0.6-0.5,0.7-0.9c0.1-0.3,0.1-0.8,0.1-1.7v-3.2H85v3.3c0,0.9-0.1,1.6-0.3,2.1s-0.5,0.8-1,1.1c-0.4,0.3-1,0.4-1.6,0.4
		s-1.2-0.1-1.6-0.4s-0.8-0.6-1-1.1c-0.2-0.5-0.3-1.2-0.3-2.2V44.3z"/>
	<path class="st0" d="M87.3,44.3h0.9v1.2c0.3-0.5,0.7-0.8,1.2-1.1c0.4-0.2,0.9-0.4,1.5-0.4c1,0,1.8,0.3,2.5,1s1,1.5,1,2.5
		c0,1-0.3,1.8-1,2.5c-0.7,0.7-1.5,1-2.4,1c-0.5,0-1-0.1-1.5-0.3c-0.5-0.2-0.9-0.6-1.2-1v3.6h-0.9V44.3z M90.8,45
		c-0.8,0-1.4,0.3-1.9,0.8c-0.5,0.5-0.8,1.2-0.8,2c0,0.5,0.1,1,0.3,1.4c0.2,0.4,0.6,0.7,1,1s0.9,0.4,1.4,0.4c0.5,0,0.9-0.1,1.3-0.4
		c0.4-0.2,0.7-0.6,1-1c0.2-0.4,0.4-0.9,0.4-1.4c0-0.5-0.1-0.9-0.4-1.4c-0.2-0.4-0.6-0.8-1-1S91.2,45,90.8,45z"/>
	<path class="st0" d="M95.9,44.3h0.9v1c0.3-0.4,0.5-0.7,0.8-0.9c0.3-0.2,0.6-0.3,0.9-0.3c0.2,0,0.5,0.1,0.8,0.2l-0.5,0.7
		C98.7,45,98.5,45,98.4,45c-0.3,0-0.6,0.1-0.8,0.4c-0.3,0.2-0.5,0.6-0.6,1.1c-0.1,0.4-0.2,1.2-0.2,2.3v2.3h-0.9V44.3z"/>
	<path class="st0" d="M106.1,48.8l0.7,0.4c-0.2,0.5-0.5,0.9-0.8,1.1s-0.7,0.5-1.1,0.7c-0.4,0.2-0.8,0.2-1.3,0.2
		c-1.1,0-2-0.4-2.6-1.1c-0.6-0.7-0.9-1.5-0.9-2.4c0-0.9,0.3-1.6,0.8-2.3c0.7-0.9,1.6-1.3,2.7-1.3c1.1,0,2.1,0.4,2.8,1.3
		c0.5,0.6,0.7,1.4,0.7,2.3H101c0,0.8,0.3,1.4,0.8,1.9s1.1,0.8,1.8,0.8c0.3,0,0.7-0.1,1-0.2c0.3-0.1,0.6-0.3,0.8-0.5
		C105.6,49.6,105.8,49.3,106.1,48.8z M106.1,47c-0.1-0.5-0.3-0.8-0.5-1.1c-0.2-0.3-0.5-0.5-0.9-0.7s-0.7-0.3-1.1-0.3
		c-0.7,0-1.2,0.2-1.7,0.6c-0.3,0.3-0.6,0.8-0.8,1.4H106.1z"/>
	<path class="st0" d="M109,44.3h0.9v1.2c0.3-0.4,0.6-0.7,0.9-0.9c0.4-0.3,0.9-0.4,1.4-0.4c0.3,0,0.6,0.1,0.9,0.2
		c0.3,0.1,0.5,0.3,0.7,0.5c0.2,0.2,0.3,0.5,0.5,0.9c0.3-0.5,0.7-0.9,1.1-1.2c0.4-0.3,0.9-0.4,1.4-0.4c0.5,0,0.9,0.1,1.2,0.4
		c0.4,0.2,0.6,0.6,0.8,1c0.2,0.4,0.3,1.1,0.3,1.9v3.7h-0.9v-3.7c0-0.7-0.1-1.2-0.2-1.5c-0.1-0.3-0.3-0.5-0.5-0.7
		c-0.2-0.2-0.5-0.2-0.9-0.2c-0.4,0-0.8,0.1-1.2,0.4c-0.3,0.2-0.6,0.6-0.8,1c-0.2,0.4-0.2,1.1-0.2,2.1v2.6h-0.9v-3.5
		c0-0.8-0.1-1.4-0.2-1.7c-0.1-0.3-0.3-0.5-0.5-0.7c-0.3-0.2-0.6-0.3-0.9-0.3c-0.4,0-0.8,0.1-1.1,0.4c-0.3,0.2-0.6,0.6-0.8,1
		c-0.2,0.4-0.3,1-0.3,1.9v2.9H109V44.3z"/>
	<path class="st0" d="M126.9,48.8l0.7,0.4c-0.2,0.5-0.5,0.9-0.8,1.1s-0.7,0.5-1.1,0.7c-0.4,0.2-0.8,0.2-1.3,0.2
		c-1.1,0-2-0.4-2.6-1.1c-0.6-0.7-0.9-1.5-0.9-2.4c0-0.9,0.3-1.6,0.8-2.3c0.7-0.9,1.6-1.3,2.7-1.3c1.1,0,2.1,0.4,2.8,1.3
		c0.5,0.6,0.7,1.4,0.7,2.3h-6.1c0,0.8,0.3,1.4,0.8,1.9s1.1,0.8,1.8,0.8c0.3,0,0.7-0.1,1-0.2c0.3-0.1,0.6-0.3,0.8-0.5
		C126.4,49.6,126.6,49.3,126.9,48.8z M126.9,47c-0.1-0.5-0.3-0.8-0.5-1.1c-0.2-0.3-0.5-0.5-0.9-0.7s-0.7-0.3-1.1-0.3
		c-0.7,0-1.2,0.2-1.7,0.6c-0.3,0.3-0.6,0.8-0.8,1.4H126.9z"/>
	<path class="st0" d="M142.2,43.6l-0.7,0.6c-0.4-0.5-0.9-0.9-1.4-1.2c-0.6-0.3-1.2-0.4-1.8-0.4c-0.7,0-1.4,0.2-2,0.5
		s-1.1,0.8-1.4,1.4s-0.5,1.3-0.5,2c0,1.1,0.4,2,1.1,2.8s1.7,1.1,2.9,1.1c1.3,0,2.3-0.5,3.2-1.5l0.7,0.5c-0.5,0.6-1,1-1.7,1.3
		c-0.7,0.3-1.4,0.5-2.3,0.5c-1.6,0-2.9-0.5-3.8-1.6c-0.8-0.9-1.2-2-1.2-3.2c0-1.3,0.5-2.5,1.4-3.4c0.9-0.9,2.1-1.4,3.5-1.4
		c0.9,0,1.6,0.2,2.3,0.5S141.8,43,142.2,43.6z"/>
	<path class="st0" d="M147.4,44.2c1,0,1.9,0.4,2.6,1.1c0.6,0.7,0.9,1.5,0.9,2.4c0,0.9-0.3,1.8-1,2.5c-0.7,0.7-1.5,1.1-2.5,1.1
		c-1,0-1.9-0.4-2.5-1.1c-0.7-0.7-1-1.5-1-2.5c0-0.9,0.3-1.7,0.9-2.4C145.5,44.5,146.4,44.2,147.4,44.2z M147.4,45
		c-0.7,0-1.3,0.3-1.9,0.8s-0.8,1.2-0.8,1.9c0,0.5,0.1,0.9,0.4,1.4s0.6,0.7,1,1s0.8,0.3,1.3,0.3c0.5,0,0.9-0.1,1.3-0.3s0.7-0.6,1-1
		s0.4-0.9,0.4-1.4c0-0.8-0.3-1.4-0.8-1.9S148.1,45,147.4,45z"/>
	<path class="st0" d="M152.8,44.3h0.9v3.2c0,0.8,0,1.3,0.1,1.6c0.1,0.4,0.4,0.7,0.7,1c0.3,0.2,0.8,0.4,1.3,0.4s0.9-0.1,1.2-0.3
		c0.3-0.2,0.6-0.5,0.7-0.9c0.1-0.3,0.1-0.8,0.1-1.7v-3.2h0.9v3.3c0,0.9-0.1,1.6-0.3,2.1s-0.5,0.8-1,1.1c-0.4,0.3-1,0.4-1.6,0.4
		s-1.2-0.1-1.6-0.4s-0.8-0.6-1-1.1c-0.2-0.5-0.3-1.2-0.3-2.2V44.3z"/>
	<path class="st0" d="M160.6,44.3h0.9v1c0.3-0.4,0.5-0.7,0.8-0.9c0.3-0.2,0.6-0.3,0.9-0.3c0.2,0,0.5,0.1,0.8,0.2l-0.5,0.7
		c-0.2-0.1-0.3-0.1-0.5-0.1c-0.3,0-0.6,0.1-0.8,0.4c-0.3,0.2-0.5,0.6-0.6,1.1c-0.1,0.4-0.2,1.2-0.2,2.3v2.3h-0.9V44.3z"/>
	<path class="st0" d="M165.8,41.8h0.9v2.5h1.4v0.8h-1.4v6h-0.9v-6h-1.2v-0.8h1.2V41.8z"/>
</g>
<path class="st1" d="M135.4,41.9"/>
<g>
	<circle class="st2" cx="33" cy="32.4" r="30.3"/>
</g>
<linearGradient id="SVGID_1_" gradientUnits="userSpaceOnUse" x1="33.0257" y1="61.807" x2="33.0257" y2="38.5513">
	<stop  offset="0.6854" style="stop-color:#B7A246"/>
	<stop  offset="1" style="stop-color:#FFFFFF"/>
</linearGradient>
<path class="st3" d="M61.9,38.8c-3,13-14.9,23-28.8,23c-13.9,0-25.9-10.2-28.9-23.3h7.4c2.8,9,11.5,16.1,21.5,16.1
	c10,0,18.6-6.8,21.4-15.8H61.9z"/>
<g>
	<path class="st4" d="M54,32.3c0,11.6-9.4,21-21,21s-21-9.4-21-21c0-11.6,9.4-21,21-21S54,20.7,54,32.3z"/>
</g>
<g>
	<path class="st2" d="M34.7,34.8h-0.5h-2.8V43c0,0.9,0.8,1.7,1.7,1.7c0.9,0,1.6-0.8,1.6-1.7L34.7,34.8z"/>
	<path class="st2" d="M35.9,45h-5.8c-0.4,0-0.8,0.3-0.8,0.6v0.8c0,0.4,0.3,0.7,0.8,0.7h5.8c0.4,0,0.8-0.3,0.8-0.7v-0.8
		C36.7,45.3,36.4,45,35.9,45z"/>
	<path class="st2" d="M37.1,47.9h-8c-0.6,0-1,0.3-1,0.7v0.8c0,0.4,0.4,0.7,1,0.7h8c0.6,0,1-0.3,1-0.7v-0.8
		C38,48.2,37.6,47.9,37.1,47.9z"/>
	<path class="st2" d="M49.3,24.3c0-0.3-0.2-0.5-0.4-0.6c-0.4-0.3-1-0.2-1.4,0.1c-1.1,1.1-2.7,1.7-4.4,1.7c-1.7,0-3.2-0.6-4.3-1.6
		c-1.5-1.3-3.5-2.1-5.7-2.1c-2.1,0-4.1,0.7-5.5,1.9l0,0l-0.2,0.2l0,0c-1.1,1.1-2.7,1.7-4.4,1.7c-1.7,0-3.3-0.6-4.4-1.7
		c-0.2-0.2-0.4-0.3-0.7-0.3c-0.2,0-0.5,0-0.7,0.2c-0.2,0.2-0.4,0.4-0.4,0.6l0,0v0.1c0,0.2,0.1,0.4,0.3,0.6c1.5,1.4,3.6,2.3,5.9,2.3
		c2.1,0,4-0.7,5.5-1.9l0,0c0,0,0,0,0,0c0,0,0.1-0.1,0.1-0.1c1.1-1.1,2.7-1.7,4.4-1.7c1.7,0,3.2,0.6,4.3,1.6c1.4,1.3,3.5,2.1,5.7,2.1
		c2.3,0,4.4-0.8,5.9-2.3C49.2,24.8,49.3,24.6,49.3,24.3C49.3,24.4,49.3,24.3,49.3,24.3z M49.3,24.3C49.3,24.3,49.3,24.3,49.3,24.3
		C49.3,24.3,49.3,24.3,49.3,24.3L49.3,24.3z"/>
	<path class="st2" d="M36.5,18.1c0,1.9-1.5,3.5-3.5,3.5c-1.9,0-3.4-1.5-3.4-3.5c0-1.9,1.5-3.5,3.4-3.5C35,14.6,36.5,16.1,36.5,18.1z
		"/>
	<path class="st2" d="M28,39.4l-5.3-12c-0.1-0.2-0.3-0.3-0.5-0.3c-0.2,0-0.4,0.1-0.5,0.4v0l-5.3,12c-0.1,0.2-0.1,0.4,0,0.6
		c1,1.9,3.3,3.2,5.8,3.2c2.5,0,4.8-1.2,5.8-3.2C28,39.8,28,39.6,28,39.4z M22.1,29.2c0.3,0.7,4.3,9.8,4.6,10.4h-9.2
		c0.2-0.5,3.1-7,3.1-7S21.8,29.8,22.1,29.2z"/>
	<path class="st2" d="M49.9,39.4l-5.3-12c-0.1-0.2-0.3-0.3-0.5-0.3c-0.2,0-0.4,0.1-0.5,0.4v0l-5.3,12c-0.1,0.2-0.1,0.4,0,0.6
		c1,1.9,3.3,3.2,5.8,3.2c2.5,0,4.8-1.2,5.8-3.2C50,39.8,50,39.6,49.9,39.4z M44.1,29.2c0.3,0.7,4.3,9.8,4.6,10.4h-9.2
		c0.2-0.4,2-4.5,2-4.5S43.8,29.9,44.1,29.2z"/>
	<path class="st2" d="M38.6,26.4c-1,0-0.9,0.9-0.9,0.9h-1.2v-0.5h-7v0.5h-1.2c0,0,0.1-0.9-0.9-0.9c0,0-0.8,0-0.8,1v4.4
		c0,1.1,0.8,1,0.8,1c1,0,0.9-0.9,0.9-0.9h1.2v0.5h1.8l0,1.6l3.3,0v-1.6h1.9V32h1.2c0,0-0.1,0.9,0.9,0.9c0,0,0.8,0,0.8-1v-4.4
		C39.4,26.4,38.6,26.4,38.6,26.4z"/>
</g>
<g>
	<path class="st2" d="M25.9,57l-2.7-1.1l-1.1,2.6l-0.3-0.1l0.3-0.6c-0.9-0.2-1.6-0.4-2.3-0.7l0-0.3c0.1,0,0.3,0.1,0.6,0.2l0.8-1.9
		l-0.5-0.2l0.1-0.3l5.3,2.2L25.9,57z M22.2,57.4l0.2-0.4l-1.5-0.6L20.7,57C21.3,57.2,21.8,57.4,22.2,57.4z M22.5,56.8l0.2-0.4
		l-1.5-0.6L21,56.2L22.5,56.8z M22.8,56.1l0.2-0.4l-1.5-0.6l-0.2,0.4L22.8,56.1z M25.4,56.1L25.1,56l0.6-1.4l-3.1-1.3L22,54.7
		l-0.3-0.1l0.7-1.6l3.7,1.5L25.4,56.1z M25,59.4l-0.3,0.2c-0.3-0.3-0.6-0.7-0.9-1c-0.5,0.1-0.9,0.1-1.3,0.1l-0.1-0.3
		c0.4,0,0.8,0,1.3-0.1c-0.2-0.5-0.3-1.1-0.4-1.6l-0.1,0l0.1-0.3l2.2,0.9c-0.4,0.6-0.8,1-1.4,1.2C24.3,58.8,24.6,59.1,25,59.4z
		 M24.8,55.7l-2.3-1l0.1-0.3l2.3,1L24.8,55.7z M25,55.1l-2.3-1l0.1-0.3l2.3,1L25,55.1z M25.1,57.4l-1.4-0.6c0,0.5,0.1,0.9,0.3,1.4
		C24.4,58,24.7,57.8,25.1,57.4z"/>
	<path class="st2" d="M32,60.2c0,0.1-0.1,0.3-0.2,0.3c-0.1,0.1-0.3,0.1-0.6,0.1c-0.1,0-0.2,0-0.4-0.1l-0.1-0.3
		c0.3,0,0.4,0.1,0.5,0.1c0.2,0,0.3,0,0.3-0.2l0.2-1.7l-4.2-0.5l-0.3,2.2l-0.3,0l0.3-2.5l4.9,0.6L32,60.2z M32.7,56.2l-5.5-0.7l0-0.3
		l2.6,0.3c0-0.1,0-0.3-0.1-0.5l0.3-0.1c0.1,0.1,0.1,0.4,0.1,0.6l2.6,0.3L32.7,56.2z M31.6,57.7L28,57.2l0.1-1.2l3.7,0.4L31.6,57.7z
		 M30.9,59.9l-2.7-0.3l0.1-1.2l2.7,0.3L30.9,59.9z M31.3,57.3l0.1-0.6l-2.9-0.3L28.4,57L31.3,57.3z M30.6,59.6l0.1-0.6l-2-0.2
		l-0.1,0.6L30.6,59.6z"/>
	<path class="st2" d="M34.9,56l-0.2,0.3c-0.3-0.3-0.7-0.5-1.2-0.7l0.2-0.3C34.2,55.5,34.6,55.7,34.9,56z M35,57.5l-0.2,0.3
		c-0.3-0.2-0.7-0.4-1.2-0.7l0.2-0.3C34.4,57.1,34.8,57.3,35,57.5z M35.2,58.5c-0.3,0.9-0.6,1.7-0.9,2.2l-0.3-0.2
		c0.3-0.6,0.6-1.3,0.9-2.2L35.2,58.5z M39.4,57.4l-2,0.3c-0.4,0.9-0.7,1.7-1.1,2.3c0.9-0.2,1.8-0.5,2.6-0.8
		c-0.3-0.3-0.5-0.6-0.8-0.9l0.3-0.2c0.7,0.6,1.1,1.2,1.5,1.7l-0.3,0.2c-0.2-0.3-0.3-0.5-0.5-0.6c-0.9,0.3-2,0.6-3.2,0.9L35.6,60
		c0.2-0.1,0.4-0.4,0.7-0.8c0.2-0.5,0.5-0.9,0.7-1.5l-1.6,0.2l0-0.3l1.9-0.2L37,56.2l-1.6,0.2l0-0.3l1.6-0.2l-0.1-1l0.3,0l0.1,1
		l1.5-0.2l0,0.3l-1.5,0.2l0.2,1.2l1.8-0.2L39.4,57.4z"/>
	<path class="st2" d="M41.3,55.8c0.5,0.3,0.9,0.6,1.1,1.1c0.1,0.2,0.1,0.3,0,0.5s-0.2,0.3-0.5,0.4c-0.1,0-0.2,0.1-0.2,0.1l-0.2-0.2
		l0.3-0.1c0.2-0.1,0.3-0.2,0.3-0.2c0-0.1,0-0.2,0-0.2c-0.2-0.4-0.5-0.8-1.1-1c0-0.4-0.1-1-0.1-1.6L40,54.8l2,4.5l-0.3,0.1l-2.1-4.8
		l1.5-0.7l0.1,0.3C41.3,54.7,41.3,55.3,41.3,55.8z M45.2,54l-0.3,0.1l-0.4-0.8L42,54.4l0.4,0.8L42,55.4l-0.5-1.1l1.4-0.6
		c-0.1-0.1-0.2-0.3-0.4-0.4l0.3-0.2c0.2,0.1,0.3,0.3,0.5,0.5l1.4-0.6L45.2,54z M46.2,56.1c0.1,0.3,0.2,0.5,0.2,0.7
		c0,0.2,0,0.3-0.1,0.4c-0.1,0.1-0.3,0.2-0.5,0.3c-0.3,0.1-0.6,0.1-0.7-0.1l-0.8-1.7L43.7,56c0.2,0.7,0.3,1.2,0.2,1.6
		c-0.1,0.4-0.4,0.8-0.7,1.2l-0.3-0.2c0.4-0.4,0.6-0.7,0.7-1.1c0.1-0.4,0-0.8-0.2-1.4l-0.9,0.4l-0.1-0.3l3.2-1.4l0.1,0.3l-1,0.4
		l0.7,1.7c0,0,0,0.1,0.1,0.1c0,0,0.1,0,0.3-0.1c0.1-0.1,0.2-0.1,0.3-0.1s0.1-0.1,0.1-0.1s0-0.1-0.1-0.3c0-0.2-0.1-0.3-0.2-0.5
		L46.2,56.1z M44.7,54.4l-2.1,0.9L42.5,55l2.1-0.9L44.7,54.4z"/>
</g>
<g>
	<path class="st5" d="M14.6,12.3c-0.3-0.1-0.5-0.1-0.7,0.1c-0.1,0.1-0.2,0.2-0.2,0.4c0,0.2,0.1,0.3,0.2,0.4c0.1,0.1,0.4,0.2,0.9,0.1
		s0.7-0.1,0.7-0.1c0.4,0,0.7,0.1,0.9,0.4c0.3,0.3,0.5,0.7,0.6,1c0,0.4-0.1,0.7-0.3,0.9c-0.3,0.3-0.8,0.4-1.4,0.1l-0.1-0.6
		c0.2,0.1,0.3,0.1,0.5,0.2c0.2,0,0.4,0,0.5-0.1c0.1-0.1,0.2-0.3,0.1-0.5c0-0.2-0.1-0.3-0.3-0.5c-0.1-0.1-0.2-0.2-0.4-0.2
		c-0.1,0-0.4,0-0.9,0.1c-0.5,0.1-0.9,0-1.2-0.3c-0.3-0.3-0.4-0.6-0.5-0.9c0-0.3,0-0.6,0.3-0.8c0.3-0.3,0.7-0.4,1.1-0.3L14.6,12.3z"
		/>
	<path class="st5" d="M15.1,10.6l0.5-0.4l1.5,2.1c0.6,0.8,1.1,1,1.5,0.8c0.4-0.3,0.3-0.8-0.3-1.6l-1.5-2.1L17.2,9l1.6,2.2
		c0.8,1.1,0.8,1.8,0.1,2.4c-0.7,0.5-1.5,0.3-2.3-0.8L15.1,10.6z"/>
	<path class="st5" d="M21,12.1l-0.5,0.3l-2.3-4l0.8-0.5c0.7-0.4,1.3-0.2,1.8,0.6c0.5,0.8,0.4,1.5-0.3,1.8l-0.4,0.2L21,12.1z
		 M19.9,10.1l0.3-0.1c0.4-0.2,0.4-0.6,0.2-1.1c-0.3-0.5-0.6-0.6-1-0.4l-0.2,0.1L19.9,10.1z"/>
	<path class="st5" d="M25,10.2l-0.7,0.3L22.6,9l0.8,1.9l-0.6,0.2L21,6.9l0.9-0.4c0.7-0.3,1.3,0,1.7,0.8c0.1,0.3,0.2,0.6,0.1,0.9
		c0,0.3-0.2,0.5-0.4,0.6L25,10.2z M22.4,8.7l0.2-0.1c0.5-0.2,0.6-0.5,0.4-1.1c-0.2-0.5-0.5-0.6-1-0.4l-0.2,0.1L22.4,8.7z"/>
	<path class="st5" d="M24.8,6.1l0.3,1.1l1.2-0.3l0.2,0.6l-1.2,0.3l0.4,1.4L27,8.9l0.2,0.6l-1.8,0.5L24,5.7l1.8-0.5L26,5.8L24.8,6.1z
		"/>
	<path class="st5" d="M30,5.9l-0.4,3.3l-0.1,0l-1.3-3l0.1,3.1l-0.6,0.1l-0.1-4.8l0.4-0.1l1.4,3l0.4-3.3l0.5-0.1l1.2,4.6l-0.6,0.1
		L30,5.9z"/>
	<path class="st5" d="M32.4,4.9l0,1.2l1.2,0l0,0.7l-1.2,0l0,1.4l1.3,0l0,0.7l-1.9,0l-0.1-4.6l1.9,0l0,0.7L32.4,4.9z"/>
	<path class="st5" d="M39.4,6.1c-0.1-0.4-0.4-0.6-0.7-0.6c-0.3-0.1-0.6,0.1-0.9,0.4s-0.5,0.7-0.6,1.1c-0.1,0.4,0,0.8,0.1,1.2
		c0.2,0.4,0.4,0.6,0.7,0.7c0.3,0.1,0.6,0,0.9-0.3l-0.2,0.9c-0.3,0.1-0.6,0.2-0.9,0.1c-0.5-0.1-0.9-0.4-1.1-0.9
		c-0.2-0.5-0.3-1.1-0.2-1.7c0.1-0.7,0.4-1.2,0.8-1.6c0.4-0.4,0.9-0.6,1.4-0.5c0.3,0.1,0.5,0.2,0.7,0.4L39.4,6.1z"/>
	<path class="st5" d="M39.9,7.4c0.2-0.6,0.6-1.1,1-1.4s1-0.4,1.4-0.2s0.8,0.5,1,1.1c0.2,0.6,0.1,1.2-0.1,1.8c-0.2,0.6-0.6,1.1-1,1.4
		c-0.5,0.3-1,0.4-1.4,0.2c-0.5-0.2-0.8-0.5-1-1.1C39.7,8.6,39.7,8,39.9,7.4z M40.5,7.6c-0.1,0.4-0.2,0.8-0.1,1.2s0.3,0.6,0.6,0.8
		c0.3,0.1,0.6,0.1,1-0.2c0.3-0.2,0.5-0.6,0.7-1c0.1-0.4,0.2-0.8,0.1-1.2s-0.3-0.6-0.6-0.7s-0.6-0.1-0.9,0.2
		C40.9,6.8,40.7,7.2,40.5,7.6z"/>
	<path class="st5" d="M45.1,6.9l0.5,0.3l-1.2,2.3c-0.5,0.9-0.5,1.4-0.1,1.7c0.4,0.2,0.9-0.1,1.3-1L47,7.9l0.5,0.3l-1.3,2.4
		c-0.6,1.2-1.3,1.5-2.1,1.1s-0.9-1.2-0.3-2.4L45.1,6.9z"/>
	<path class="st5" d="M47.8,14l-0.6-0.4l0.4-2.3l-1.2,1.7l-0.5-0.4l2.7-3.7l0.8,0.6c0.7,0.5,0.7,1.1,0.2,1.8
		c-0.2,0.3-0.4,0.5-0.7,0.6c-0.2,0.1-0.5,0.1-0.7,0L47.8,14z M47.7,11l0.1,0.1c0.4,0.3,0.8,0.2,1.1-0.2c0.3-0.4,0.3-0.8-0.2-1.1
		l-0.2-0.1L47.7,11z"/>
	<path class="st5" d="M48.9,15l-0.4-0.4l2.6-2.9l-0.6-0.5l0.4-0.5l1.6,1.4l-0.4,0.5L51.5,12L48.9,15z"/>
</g>
<path class="st1" d="M3.4,43.1"/>
</svg>
