<?xml version="1.0" encoding="utf-8"?>
<!-- Generator: Adobe Illustrator 24.0.2, SVG Export Plug-In . SVG Version: 6.00 Build 0)  -->
<svg version="1.1" id="圖層_1" xmlns="http://www.w3.org/2000/svg" xmlns:xlink="http://www.w3.org/1999/xlink" x="0px" y="0px"
	 viewBox="0 0 20 20" style="enable-background:new 0 0 20 20;" xml:space="preserve">
<style type="text/css">
	.st0{fill:#FFFFFF;}
</style>
<path class="st0" d="M8.9,17.6c-0.2,0-0.5-0.1-0.8-0.1c-0.3-0.1-1.1-0.7-1.4-1l-5.8-5.8c-0.2-0.2-0.2-0.6,0-0.8l2.3-2.3
	c0.2-0.2,0.6-0.2,0.8,0L8,11.7c0.2,0.2,0.6,0.2,0.8,0l6.6-8.2c0.2-0.3,0.6-0.3,0.8-0.1l2.5,2c0.3,0.2,0.3,0.6,0.1,0.8l-8.1,10.1
	c-0.2,0.3-0.6,0.6-0.8,0.9C9.9,17.2,9.5,17.6,8.9,17.6C8.9,17.6,8.9,17.6,8.9,17.6z"/>
</svg>
