<?xml version="1.0" encoding="utf-8"?>
<!-- Generator: Adobe Illustrator 24.0.2, SVG Export Plug-In . SVG Version: 6.00 Build 0)  -->
<svg version="1.1" id="圖層_1" xmlns="http://www.w3.org/2000/svg" xmlns:xlink="http://www.w3.org/1999/xlink" x="0px" y="0px"
	 viewBox="0 0 100 67" style="enable-background:new 0 0 100 67;" xml:space="preserve">
<style type="text/css">
	.st0{fill:#B28D38;}
</style>
<g>
	<path class="st0" d="M52.7,34.5H52l-4,0l0,11.6c0,1.3,1.1,2.3,2.4,2.3c1.3,0,2.3-1.1,2.3-2.3L52.7,34.5z"/>
	<path class="st0" d="M54.4,48.9h-8.2c-0.6,0-1.1,0.4-1.1,0.9v1.1c0,0.5,0.5,0.9,1.1,0.9h8.2c0.6,0,1.1-0.4,1.1-0.9v-1.1
		C55.5,49.3,55,48.9,54.4,48.9z"/>
	<path class="st0" d="M56,53H44.7c-0.8,0-1.4,0.4-1.4,1V55c0,0.6,0.6,1,1.4,1H56c0.8,0,1.4-0.4,1.4-1V54C57.4,53.4,56.8,53,56,53z"
		/>
	<path class="st0" d="M73.3,19.7c0-0.4-0.2-0.7-0.6-0.9c-0.6-0.4-1.4-0.3-1.9,0.2c-1.5,1.5-3.8,2.4-6.2,2.4c-2.3,0-4.6-0.8-6.1-2.2
		c-2-1.9-5-3-8.1-3c-2.9,0-5.8,1-7.8,2.7l0.1,0L42.5,19l0,0c-1.5,1.5-3.8,2.4-6.2,2.4c-2.4,0-4.7-0.9-6.2-2.4
		c-0.2-0.3-0.6-0.4-1-0.4c-0.3,0-0.7,0.1-1,0.2c-0.3,0.2-0.5,0.5-0.6,0.9v0v0.1c0,0.3,0.1,0.6,0.4,0.8c2.1,2,5.1,3.2,8.3,3.2
		c2.9,0,5.7-1,7.8-2.7l0,0c0,0,0,0,0,0c0,0,0.2-0.2,0.2-0.2c1.5-1.5,3.8-2.4,6.2-2.4c2.3,0,4.6,0.8,6.1,2.2c2,1.9,5,3,8.1,3
		c3.2,0,6.3-1.2,8.3-3.2c0.2-0.2,0.4-0.5,0.4-0.9C73.3,19.8,73.3,19.7,73.3,19.7z M73.3,19.7C73.3,19.7,73.3,19.7,73.3,19.7
		L73.3,19.7L73.3,19.7z"/>
	<path class="st0" d="M55.3,10.9c0,2.7-2.2,4.9-4.9,4.9c-2.7,0-4.9-2.2-4.9-4.9c0-2.7,2.2-4.9,4.9-4.9C53.1,6,55.3,8.1,55.3,10.9z"
		/>
	<path class="st0" d="M43.2,41l-7.5-16.9c-0.1-0.3-0.4-0.5-0.7-0.5c-0.3,0-0.6,0.2-0.7,0.5v0L26.7,41c-0.1,0.3-0.1,0.6,0,0.9
		c1.4,2.7,4.6,4.5,8.2,4.5c3.6,0,6.8-1.8,8.2-4.5C43.3,41.6,43.3,41.3,43.2,41z M34.9,26.5c0.4,1,6.1,13.8,6.5,14.7h-13
		c0.3-0.8,4.4-9.9,4.4-9.9S34.5,27.4,34.9,26.5z"/>
	<path class="st0" d="M74.2,41l-7.5-16.9c-0.1-0.3-0.4-0.5-0.7-0.5c-0.3,0-0.6,0.2-0.8,0.5v0L57.7,41c-0.1,0.3-0.1,0.6,0,0.9
		c1.4,2.7,4.6,4.5,8.2,4.5c3.6,0,6.8-1.8,8.2-4.5C74.3,41.6,74.3,41.3,74.2,41z M65.9,26.5c0.4,1,6.1,13.8,6.5,14.7h-13
		c0.3-0.6,2.8-6.4,2.8-6.4S65.5,27.5,65.9,26.5z"/>
	<path class="st0" d="M58.3,22.7C56.9,22.7,57,24,57,24h-1.6v-0.8h-10V24h-1.6c0,0,0.1-1.3-1.2-1.3c0,0-1.1,0-1.1,1.5v6.2
		c0,1.5,1.1,1.5,1.1,1.5c1.4,0,1.2-1.3,1.2-1.3h1.6v0.8H48l0,2.2h4.7v-2.2h2.7v-0.8H57c0,0-0.1,1.3,1.2,1.3c0,0,1.1,0,1.1-1.5v-6.2
		C59.3,22.7,58.3,22.7,58.3,22.7z"/>
</g>
</svg>
