<?xml version="1.0" encoding="utf-8"?>
<!-- Generator: Adobe Illustrator 24.0.2, SVG Export Plug-In . SVG Version: 6.00 Build 0)  -->
<svg version="1.1" id="圖層_1" xmlns="http://www.w3.org/2000/svg" xmlns:xlink="http://www.w3.org/1999/xlink" x="0px" y="0px"
	 viewBox="0 0 30 30" style="enable-background:new 0 0 30 30;" xml:space="preserve">
<style type="text/css">
	.st0{fill:#082354;}
</style>
<g>
	<path class="st0" d="M23,29.6c-0.3,0-0.6-0.3-0.6-0.6v-6.1c0-0.2,0.1-0.4,0.3-0.5c3.6-2.3,5.6-6.3,5.3-10.6
		C27.5,6.4,23.1,2,17.7,1.5c-4.6-0.4-9,2-11.1,6.1l-4.3,10h2.5c0.3,0,0.6,0.3,0.6,0.6v3.5c0,1.3,1.1,2.4,2.4,2.4h2.5
		c0.3,0,0.6,0.3,0.6,0.6V29c0,0.3-0.3,0.6-0.6,0.6S9.7,29.4,9.7,29v-3.7H7.8c-2,0-3.6-1.6-3.6-3.6v-2.9H1.4c-0.2,0-0.4-0.1-0.5-0.3
		c-0.1-0.2-0.1-0.4,0-0.6L5.5,7.1c2.3-4.6,7.2-7.3,12.3-6.8c6,0.5,10.8,5.4,11.3,11.4c0.4,4.6-1.7,9-5.6,11.5V29
		C23.6,29.4,23.3,29.6,23,29.6z"/>
	<g>
		<path class="st0" d="M23.1,15.8c-1,0-1.9-0.4-2.8-1.1c-0.2-0.1-0.2-0.4-0.1-0.6c0.1-0.2,0.4-0.2,0.6-0.1c1,0.8,2,1.1,3,0.8
			c0.7-0.2,1.3-0.6,1.5-1.2c0.2-0.5,0.2-1,0-1.5s-0.7-1-1.3-1.2c-0.2-0.1-0.3-0.3-0.3-0.5c0.1-0.2,0.3-0.3,0.5-0.3
			c0.8,0.3,1.4,0.9,1.8,1.6c0.3,0.7,0.3,1.4,0,2.1c-0.3,0.8-1.1,1.4-2,1.7C23.7,15.7,23.4,15.8,23.1,15.8z"/>
		<path class="st0" d="M21,10.6c-0.2,0-0.4-0.1-0.4-0.3s0.1-0.4,0.3-0.5C22.2,9.5,22.5,8,22.5,8c0.1-0.6-0.1-1.1-0.5-1.6
			c-0.4-0.4-1-0.7-1.6-0.8c-0.9-0.1-1.8,0.3-2.3,1.1C18,6.9,17.8,7,17.6,6.9c-0.2-0.1-0.3-0.4-0.1-0.6c0.6-1,1.8-1.6,3.1-1.5
			c0.8,0.1,1.6,0.5,2.1,1.1s0.8,1.4,0.7,2.2C23.2,8.2,22.9,10.2,21,10.6L21,10.6z"/>
		<path class="st0" d="M14.1,6.1c-0.1,0-0.2,0-0.3-0.1c-0.2-0.1-0.2-0.4,0-0.6c0.7-0.9,1.8-1.3,3.1-1.2c1.1,0.1,2.1,0.5,2.4,1
			c0.1,0.2,0.1,0.4-0.1,0.6c-0.2,0.1-0.4,0.1-0.6-0.1c-0.1-0.2-0.8-0.6-1.8-0.6c-0.6,0-1.7,0-2.5,1C14.3,6.1,14.2,6.1,14.1,6.1z"/>
		<path class="st0" d="M12,14.4c-1.5,0-2.9-0.5-3.7-1.3c-0.7-0.7-1-1.6-0.9-2.7C7.6,9.3,8.2,8.2,9,7.6s1.7-0.8,2.6-0.6
			c0.1,0,2.8,0.5,2.7,2.5c0,0.2-0.2,0.4-0.4,0.4s-0.4-0.2-0.4-0.4c0.1-1.2-2-1.6-2-1.6c-0.7-0.1-1.4,0-1.9,0.4
			c-0.7,0.5-1.1,1.3-1.2,2.3c-0.1,0.8,0.1,1.5,0.7,2c0.8,0.8,2.3,1.2,3.9,1c0.2,0,0.4,0.1,0.4,0.4c0,0.2-0.1,0.4-0.4,0.4
			C12.6,14.4,12.3,14.4,12,14.4z"/>
		<path class="st0" d="M19.6,13.1c-0.2,0-0.4,0-0.5,0c-1.3-0.2-2.3-1.5-2.3-1.5c-0.1-0.2-0.1-0.4,0.1-0.6c0.2-0.1,0.4-0.1,0.6,0.1
			c0,0,0.8,1.1,1.8,1.2c1,0.1,2.3-0.2,2.8-1.3c0.1-0.2,0.3-0.3,0.5-0.2s0.3,0.3,0.2,0.5C22.1,12.6,20.8,13.1,19.6,13.1z"/>
		<path class="st0" d="M25.4,11.8c-0.1,0-0.1,0-0.2-0.1c-0.2-0.1-0.3-0.4-0.1-0.6c0.2-0.3,0.3-0.7,0.3-1c0.1-0.7-0.2-1.4-0.7-2
			s-1.2-0.9-2-1c-0.2,0-0.4-0.2-0.4-0.4c0-0.2,0.2-0.4,0.4-0.4c1,0.1,1.9,0.6,2.5,1.3c0.7,0.7,1,1.7,0.9,2.6c0,0.5-0.2,0.9-0.4,1.3
			C25.6,11.8,25.5,11.8,25.4,11.8z"/>
		<path class="st0" d="M18.7,9.3c-0.2,0-0.4-0.2-0.4-0.4s0.2-0.4,0.4-0.4c0,0,1-0.1,1.2-0.8c0.1-0.2,0.3-0.3,0.5-0.3
			c0.2,0.1,0.3,0.3,0.3,0.5C20.3,9.2,18.8,9.3,18.7,9.3z"/>
		<path class="st0" d="M16.9,16.3c-2.2,0-3.6-0.6-4.2-1.7c-0.4-0.9-0.3-2,0.3-2.8s1.7-1.1,2.9-0.9c1.1,0.2,1.7-0.4,1.8-0.7
			c0.3-0.5,0.3-1.1,0-1.6c-0.1-0.2-0.1-0.4,0.1-0.6c0.2-0.1,0.4-0.1,0.6,0.1c0.5,0.7,0.5,1.7,0,2.5c-0.6,0.9-1.6,1.2-2.7,1
			c-0.9-0.2-1.6,0-2.1,0.6c-0.4,0.5-0.5,1.3-0.2,2c0.6,1.3,3.3,1.6,6.9,0.9c0.2,0,0.4,0.1,0.5,0.3c0,0.2-0.1,0.4-0.3,0.5
			C19.2,16.2,18,16.3,16.9,16.3z"/>
		<path class="st0" d="M20.3,17.8c-0.3,0-0.7,0-1.1-0.1c-0.2,0-0.4-0.3-0.3-0.5c0-0.2,0.3-0.4,0.5-0.3c2.7,0.5,3.2-1.4,3.3-1.5
			c0.1-0.2,0.3-0.3,0.5-0.3c0.2,0.1,0.3,0.3,0.3,0.5C23.4,15.7,22.8,17.8,20.3,17.8z"/>
		<path class="st0" d="M13.9,8.9c-0.2,0-0.3,0-0.3,0c-0.2,0-0.4-0.2-0.4-0.5c0-0.2,0.2-0.4,0.4-0.4s0.9,0,1.2-0.3
			c0.2-0.1,0.3-0.3,0.3-0.6c0-0.2,0.2-0.4,0.4-0.4s0.4,0.2,0.4,0.4c0,0.5-0.2,0.9-0.6,1.2C15,8.9,14.3,8.9,13.9,8.9z"/>
		<path class="st0" d="M12.9,12.5c-0.6,0-2-0.1-2.5-1.4c-0.1-0.2,0-0.4,0.2-0.5s0.4,0,0.5,0.2c0.5,1,2,0.9,2,0.9
			c0.2,0,0.4,0.1,0.4,0.4c0,0.2-0.1,0.4-0.4,0.4C13.1,12.5,13,12.5,12.9,12.5z"/>
		<path class="st0" d="M18.7,19.5c-0.1,0-0.3-0.1-0.3-0.2l-2.2-3.1c-0.1-0.2-0.1-0.4,0.1-0.6c0.2-0.1,0.4-0.1,0.6,0.1l2.2,3.1
			c0.1,0.2,0.1,0.4-0.1,0.6C18.8,19.5,18.8,19.5,18.7,19.5z"/>
		<path class="st0" d="M20.5,19.5c-0.1,0-0.3-0.1-0.3-0.2l-1.9-2.8c-0.1-0.2-0.1-0.4,0.1-0.6c0.2-0.1,0.4-0.1,0.6,0.1l1.9,2.8
			c0.1,0.2,0.1,0.4-0.1,0.6C20.6,19.4,20.5,19.5,20.5,19.5z"/>
		<path class="st0" d="M10.8,7.8L10.8,7.8c-0.3,0-0.4-0.2-0.4-0.5c0,0,0.2-1.2,1.5-2.1c1.4-0.9,2.6-0.4,2.7-0.4
			c0.2,0.1,0.3,0.3,0.2,0.5s-0.3,0.3-0.5,0.2c0,0-0.9-0.4-1.9,0.3s-1.1,1.5-1.1,1.5C11.2,7.6,11,7.8,10.8,7.8z"/>
		<path class="st0" d="M23.3,13.8c-0.2,0-0.3-0.1-0.4-0.3c-0.2-0.9-1.6-0.7-1.6-0.7c-0.2,0-0.4-0.1-0.4-0.4c0-0.2,0.1-0.4,0.4-0.4
			c0.1,0,2.1-0.2,2.4,1.3C23.8,13.6,23.6,13.8,23.3,13.8C23.4,13.8,23.4,13.8,23.3,13.8z"/>
		<path class="st0" d="M16.9,14.3c-0.3,0-0.6,0-0.9-0.2c-0.2-0.1-0.3-0.3-0.2-0.5s0.3-0.3,0.5-0.2c1.5,0.5,2.6-0.9,2.6-0.9
			c0.1-0.2,0.4-0.2,0.6-0.1c0.2,0.1,0.2,0.4,0.1,0.6C19.4,13,18.4,14.3,16.9,14.3z"/>
	</g>
</g>
</svg>
