<?xml version="1.0" encoding="utf-8"?>
<!-- Generator: Adobe Illustrator 24.0.2, SVG Export Plug-In . SVG Version: 6.00 Build 0)  -->
<svg version="1.1" id="圖層_1" xmlns="http://www.w3.org/2000/svg" xmlns:xlink="http://www.w3.org/1999/xlink" x="0px" y="0px"
	 viewBox="0 0 30 30" style="enable-background:new 0 0 30 30;" xml:space="preserve">
<style type="text/css">
	.st0{fill:#082354;}
</style>
<g>
	<path class="st0" d="M29.1,23.5c-0.3,0-0.5-0.2-0.5-0.5v-0.8c0-0.3,0.2-0.5,0.5-0.5s0.5,0.2,0.5,0.5V23
		C29.6,23.3,29.4,23.5,29.1,23.5z"/>
	<path class="st0" d="M29.1,20.3c-0.3,0-0.5-0.2-0.5-0.5v-1.2c0-0.3,0.2-0.5,0.5-0.5s0.5,0.2,0.5,0.5v1.2
		C29.6,20.1,29.4,20.3,29.1,20.3z"/>
	<path class="st0" d="M29.1,16.8c-0.3,0-0.5-0.2-0.5-0.5v-0.8c0-0.3,0.2-0.5,0.5-0.5s0.5,0.2,0.5,0.5v0.8
		C29.6,16.5,29.4,16.8,29.1,16.8z"/>
	<path class="st0" d="M26.1,29.3H3.9c-2,0-3.6-1.6-3.6-3.6V13c0-0.3,0.2-0.5,0.5-0.5H29c0.3,0,0.5,0.2,0.5,0.5v2.4
		c0,0.3-0.2,0.5-0.5,0.5s-0.5-0.2-0.5-0.5v-1.9H1.4v12.2c0,1.4,1.1,2.5,2.5,2.5H26c1.4,0,2.5-1.1,2.5-2.5V23c0-0.3,0.2-0.5,0.5-0.5
		s0.5,0.2,0.5,0.5v2.8C29.6,27.7,28,29.3,26.1,29.3z"/>
	<path class="st0" d="M25.7,13.6H4.3c-0.3,0-0.5-0.2-0.5-0.5V9.7c0-0.3,0.2-0.5,0.5-0.5h21.5c0.3,0,0.5,0.2,0.5,0.5V13
		C26.3,13.3,26,13.6,25.7,13.6z M4.8,12.5h20.4v-2.2H4.8V12.5z"/>
	<path class="st0" d="M24.1,10.3H5.9c-0.3,0-0.5-0.2-0.5-0.5V6.9c0-0.3,0.2-0.5,0.5-0.5H24c0.3,0,0.5,0.2,0.5,0.5v2.8
		C24.6,10,24.3,10.3,24.1,10.3z M6.5,9.2h17.1V7.4H6.5V9.2z"/>
	<path class="st0" d="M22.3,7.4H7.7c-0.3,0-0.5-0.2-0.5-0.5V4c0-0.3,0.2-0.5,0.5-0.5h14.5c0.3,0,0.5,0.2,0.5,0.5v2.8
		C22.8,7.2,22.6,7.4,22.3,7.4z M8.3,6.4h13.5V4.6H8.3V6.4z"/>
	<path class="st0" d="M19.7,4.6h-9.3C10,4.6,9.8,4.3,9.8,4V1.2c0-0.3,0.2-0.5,0.5-0.5h9.3c0.3,0,0.5,0.2,0.5,0.5V4
		C20.2,4.3,20,4.6,19.7,4.6z M10.9,3.5h8.3V1.7h-8.3C10.9,1.7,10.9,3.5,10.9,3.5z"/>
	<path class="st0" d="M29.1,13.6H0.9c-0.2,0-0.4-0.1-0.5-0.3s-0.1-0.4,0-0.5L6.3,1.6c0.1-0.2,0.3-0.3,0.5-0.3h3.6
		c0.3,0,0.5,0.2,0.5,0.5v1.7h8.3V1.8c0-0.3,0.2-0.5,0.5-0.5h3.6c0.2,0,0.4,0.1,0.5,0.3l5.9,11.2c0.1,0.2,0.1,0.4,0,0.5
		C29.4,13.5,29.3,13.6,29.1,13.6z M1.8,12.5h26.4L22.9,2.4h-2.7V4c0,0.3-0.2,0.5-0.5,0.5h-9.3C10,4.6,9.8,4.3,9.8,4V2.4H7.1
		L1.8,12.5z"/>
	<path class="st0" d="M18.7,19.8h-7.4c-1.2,0-2.2-1-2.2-2.2s1-2.2,2.2-2.2h7.4c1.2,0,2.2,1,2.2,2.2C20.9,18.8,19.9,19.8,18.7,19.8z
		 M11.3,16.3c-0.7,0-1.2,0.5-1.2,1.2s0.5,1.2,1.2,1.2h7.4c0.7,0,1.2-0.5,1.2-1.2s-0.5-1.2-1.2-1.2H11.3z"/>
	<path class="st0" d="M26,24.8h-3.9c-0.3,0-0.5-0.2-0.5-0.5s0.2-0.5,0.5-0.5H26c0.3,0,0.5,0.2,0.5,0.5C26.5,24.6,26.3,24.8,26,24.8z
		"/>
	<path class="st0" d="M24.3,26.8H22c-0.3,0-0.5-0.2-0.5-0.5s0.2-0.5,0.5-0.5h2.3c0.3,0,0.5,0.2,0.5,0.5
		C24.9,26.5,24.6,26.8,24.3,26.8z"/>
</g>
</svg>
