<?xml version="1.0" encoding="utf-8"?>
<!-- Generator: Adobe Illustrator 24.0.2, SVG Export Plug-In . SVG Version: 6.00 Build 0)  -->
<svg version="1.1" id="圖層_1" xmlns="http://www.w3.org/2000/svg" xmlns:xlink="http://www.w3.org/1999/xlink" x="0px" y="0px"
	 viewBox="0 0 30 30" style="enable-background:new 0 0 30 30;" xml:space="preserve">
<style type="text/css">
	.st0{fill:#082354;}
</style>
<g>
	<polygon class="st0" points="28.9,24.2 26.8,24.2 26.8,23.3 28,23.3 28,5.1 1.6,5.1 1.6,23.3 18.4,23.3 18.4,24.2 0.7,24.2 
		0.7,4.3 28.9,4.3 	"/>
	<rect x="3.6" y="19.3" class="st0" width="11.2" height="0.9"/>
	<rect x="3.6" y="14.6" class="st0" width="14.9" height="0.9"/>
	<rect x="3.6" y="16.9" class="st0" width="14.9" height="0.9"/>
	<rect x="3.6" y="12" class="st0" width="14.9" height="0.9"/>
	<path class="st0" d="M28.9,5.1H0.7V1.1h28.2V5.1z M1.6,4.3H28V1.9H1.6V4.3z"/>
	<rect x="2.4" y="2.6" class="st0" width="1" height="0.9"/>
	<rect x="4.2" y="2.6" class="st0" width="1" height="0.9"/>
	<rect x="6" y="2.6" class="st0" width="1" height="0.9"/>
	<g>
		<path class="st0" d="M13.2,10.1H3.8V7.1h9.5V10.1z M4.6,9.2h7.7V8H4.6V9.2z"/>
	</g>
	<g>
		<polygon class="st0" points="24.3,11.8 24.3,11.3 22.6,8.5 21,11.3 21,11.8 20.1,11.8 20.1,11.1 22.6,6.8 25.1,11.1 25.1,11.8 		
			"/>
		<polygon class="st0" points="21,23.6 20.1,23.6 20.1,11.2 25.1,11.2 25.1,23.6 24.3,23.6 24.3,12 21,12 		"/>
		<path class="st0" d="M24.2,29.4H21c-0.5,0-0.9-0.3-0.9-0.8v-1H21v0.9c0,0,0,0,0,0h3.2c0,0,0,0,0,0v-0.9h0.9v1
			C25.1,29.1,24.7,29.4,24.2,29.4z"/>
		<path class="st0" d="M20.1,26.5v-3.3h5l0,3.3L20.1,26.5z M21,24.2v1.5l3.3,0l0-1.5H21z"/>
	</g>
</g>
</svg>
