<?xml version="1.0" encoding="utf-8"?>
<!-- Generator: Adobe Illustrator 24.0.2, SVG Export Plug-In . SVG Version: 6.00 Build 0)  -->
<svg version="1.1" id="圖層_1" xmlns="http://www.w3.org/2000/svg" xmlns:xlink="http://www.w3.org/1999/xlink" x="0px" y="0px"
	 viewBox="0 0 270.8 64" style="enable-background:new 0 0 270.8 64;" xml:space="preserve">
<style type="text/css">
	.st0{fill:#FFFFFF;}
	.st1{fill:url(#SVGID_1_);}
	.st2{fill:#005BAB;}
	.st3{fill:#B7A246;}
	.st4{fill:none;stroke:#FFFFFF;stroke-width:0.25;stroke-miterlimit:10;}
	.st5{fill:none;}
</style>
<g>
	<circle class="st0" cx="32.6" cy="31.4" r="30.3"/>
</g>
<linearGradient id="SVGID_1_" gradientUnits="userSpaceOnUse" x1="32.6453" y1="60.7748" x2="32.6453" y2="37.519">
	<stop  offset="0.6854" style="stop-color:#B7A246"/>
	<stop  offset="1" style="stop-color:#FFFFFF"/>
</linearGradient>
<path class="st1" d="M61.5,37.8c-3,13-14.9,23-28.8,23c-13.9,0-25.9-10.2-28.9-23.3h7.4c2.8,9,11.5,16.1,21.5,16.1
	c10,0,18.6-6.8,21.4-15.8H61.5z"/>
<g>
	<path class="st2" d="M53.6,31.3c0,11.6-9.4,21-21,21s-21-9.4-21-21c0-11.6,9.4-21,21-21S53.6,19.7,53.6,31.3z"/>
</g>
<g>
	<path class="st0" d="M34.3,33.8h-0.5H31V42c0,0.9,0.8,1.7,1.7,1.7c0.9,0,1.6-0.8,1.6-1.7L34.3,33.8z"/>
	<path class="st0" d="M35.6,44h-5.8c-0.4,0-0.8,0.3-0.8,0.6v0.8c0,0.4,0.3,0.7,0.8,0.7h5.8c0.4,0,0.8-0.3,0.8-0.7v-0.8
		C36.3,44.3,36,44,35.6,44z"/>
	<path class="st0" d="M36.7,46.9h-8c-0.6,0-1,0.3-1,0.7v0.8c0,0.4,0.4,0.7,1,0.7h8c0.6,0,1-0.3,1-0.7v-0.8
		C37.6,47.2,37.2,46.9,36.7,46.9z"/>
	<path class="st0" d="M48.9,23.3c0-0.3-0.2-0.5-0.4-0.6c-0.4-0.3-1-0.2-1.4,0.1c-1.1,1.1-2.7,1.7-4.4,1.7c-1.7,0-3.2-0.6-4.3-1.6
		c-1.5-1.3-3.5-2.1-5.7-2.1c-2.1,0-4.1,0.7-5.5,1.9l0,0l-0.2,0.2l0,0c-1.1,1.1-2.7,1.7-4.4,1.7c-1.7,0-3.3-0.6-4.4-1.7
		c-0.2-0.2-0.4-0.3-0.7-0.3c-0.2,0-0.5,0-0.7,0.2c-0.2,0.2-0.4,0.4-0.4,0.6l0,0v0.1c0,0.2,0.1,0.4,0.3,0.6c1.5,1.4,3.6,2.3,5.9,2.3
		c2.1,0,4-0.7,5.5-1.9l0,0c0,0,0,0,0,0c0,0,0.1-0.1,0.1-0.1c1.1-1.1,2.7-1.7,4.4-1.7c1.7,0,3.2,0.6,4.3,1.6c1.4,1.3,3.5,2.1,5.7,2.1
		c2.3,0,4.4-0.8,5.9-2.3C48.8,23.8,48.9,23.6,48.9,23.3C48.9,23.3,48.9,23.3,48.9,23.3z M48.9,23.3C48.9,23.3,48.9,23.3,48.9,23.3
		C48.9,23.3,48.9,23.3,48.9,23.3L48.9,23.3z"/>
	<path class="st0" d="M36.1,17c0,1.9-1.5,3.5-3.5,3.5c-1.9,0-3.4-1.5-3.4-3.5c0-1.9,1.5-3.5,3.4-3.5C34.6,13.6,36.1,15.1,36.1,17z"
		/>
	<path class="st0" d="M27.6,38.4l-5.3-12C22.2,26.2,22,26,21.7,26c-0.2,0-0.4,0.1-0.5,0.4v0l-5.3,12c-0.1,0.2-0.1,0.4,0,0.6
		c1,1.9,3.3,3.2,5.8,3.2c2.5,0,4.8-1.2,5.8-3.2C27.6,38.8,27.7,38.6,27.6,38.4z M21.7,28.1c0.3,0.7,4.3,9.8,4.6,10.4h-9.2
		c0.2-0.5,3.1-7,3.1-7S21.5,28.8,21.7,28.1z"/>
	<path class="st0" d="M49.5,38.4l-5.3-12c-0.1-0.2-0.3-0.3-0.5-0.3c-0.2,0-0.4,0.1-0.5,0.4v0l-5.3,12c-0.1,0.2-0.1,0.4,0,0.6
		c1,1.9,3.3,3.2,5.8,3.2c2.5,0,4.8-1.2,5.8-3.2C49.6,38.8,49.6,38.6,49.5,38.4z M43.7,28.1c0.3,0.7,4.3,9.8,4.6,10.4h-9.2
		c0.2-0.4,2-4.5,2-4.5S43.4,28.8,43.7,28.1z"/>
	<path class="st0" d="M38.3,25.4c-1,0-0.9,0.9-0.9,0.9h-1.2v-0.5h-7v0.5H28c0,0,0.1-0.9-0.9-0.9c0,0-0.8,0-0.8,1v4.4
		c0,1.1,0.8,1,0.8,1c1,0,0.9-0.9,0.9-0.9h1.2v0.5H31l0,1.6l3.3,0v-1.6h1.9v-0.5h1.2c0,0-0.1,0.9,0.9,0.9c0,0,0.8,0,0.8-1v-4.4
		C39,25.4,38.3,25.4,38.3,25.4z"/>
</g>
<g>
	<path class="st0" d="M19.2,53.2L17,51.4l-1.7,2.2L15,53.3l0.4-0.5c-0.7-0.4-1.4-0.8-2-1.2l0.1-0.3c0.1,0.1,0.2,0.2,0.5,0.3l1.3-1.6
		l-0.4-0.3l0.2-0.2l4.3,3.5L19.2,53.2z M15.6,52.6l0.3-0.3l-1.2-1l-0.4,0.5C14.8,52.1,15.3,52.4,15.6,52.6z M16,52l0.3-0.3l-1.2-1
		l-0.3,0.3L16,52z M16.5,51.5l0.2-0.3l-1.2-1l-0.2,0.3L16.5,51.5z M17.6,55.2l-0.3,0.1c-0.2-0.4-0.4-0.8-0.5-1.2
		c-0.5,0-0.9-0.1-1.3-0.3l0-0.3c0.4,0.1,0.8,0.2,1.2,0.3c-0.1-0.5,0-1.1,0.1-1.6l-0.1-0.1l0.2-0.2l1.8,1.5c-0.5,0.4-1.1,0.7-1.6,0.7
		C17.2,54.4,17.4,54.8,17.6,55.2z M18.9,52.2L18.7,52l0.9-1.1l-2.5-2l-0.9,1.1l-0.3-0.2l1.1-1.3l3,2.4L18.9,52.2z M18.4,51.6
		l-1.9-1.5l0.2-0.2l1.9,1.5L18.4,51.6z M18.9,51.1l-1.9-1.5l0.2-0.2l1.9,1.5L18.9,51.1z M18.3,53.3l-1.2-0.9
		c-0.1,0.5-0.1,0.9-0.1,1.4C17.5,53.7,17.9,53.6,18.3,53.3z"/>
	<path class="st0" d="M24.2,58c-0.1,0.1-0.1,0.2-0.2,0.3c-0.1,0-0.3,0-0.6-0.1c-0.1,0-0.2-0.1-0.3-0.1l0-0.3
		c0.2,0.1,0.4,0.2,0.5,0.2c0.2,0.1,0.3,0,0.3-0.1l0.6-1.5l-3.8-1.6l-0.8,2l-0.3-0.1l1-2.3l4.4,1.9L24.2,58z M23.2,57.4l-2.4-1
		l0.5-1.1l2.4,1L23.2,57.4z M26,54.4l-5-2.1l0.1-0.3l2.3,1c0-0.1,0-0.3,0-0.5l0.3,0c0,0.2,0,0.4,0,0.6l2.3,1L26,54.4z M23,57
		l0.2-0.5l-1.8-0.7l-0.2,0.5L23,57z M24.5,55.5l-3.3-1.4l0.4-1.1l3.3,1.4L24.5,55.5z M24.3,55.1l0.2-0.5l-2.7-1.1L21.7,54L24.3,55.1
		z"/>
	<path class="st0" d="M28.7,55.4c-0.2,0.3-0.4,0.5-0.7,0.7l-0.4,3l-0.3,0l0.3-2.7c-0.3,0.2-0.6,0.4-0.9,0.6l-0.1-0.3
		c0.9-0.6,1.5-1.1,1.9-1.6L28.7,55.4z M28.7,54.2c-0.4,0.4-1,0.7-1.7,1L26.8,55c0.7-0.3,1.3-0.7,1.7-1L28.7,54.2z M32.2,56.6l-1-0.1
		l-0.3,2.6c0,0.1-0.1,0.2-0.1,0.3c-0.1,0.1-0.2,0.1-0.3,0.1c-0.1,0-0.3,0-0.6,0c-0.2,0-0.4-0.1-0.6-0.1L29.3,59
		c0.2,0,0.4,0.1,0.6,0.1c0.4,0,0.6,0.1,0.6,0.1c0,0,0.1,0,0.1-0.1l0.3-2.7l-2.2-0.3l0-0.3l3.6,0.4L32.2,56.6z M32.1,55l-3-0.4l0-0.3
		l3,0.4L32.1,55z"/>
	<path class="st0" d="M36.4,58.1c-1,0.5-1.8,1-2.6,1.3l-0.2-0.3c0.2-0.1,0.3-0.1,0.4-0.2L33.6,56l0.3,0l0.4,2.8
		c0.1,0,0.3-0.1,0.6-0.3l-0.5-3.6L33.2,55l0-0.3l2.7-0.3l0,0.3l-1.1,0.1l0.2,1.5l0.9-0.1l0,0.3L35,56.6l0.2,1.7
		c0.3-0.1,0.6-0.3,1.1-0.6L36.4,58.1z M39.3,58.7L39.1,59c-0.7-0.2-1.2-0.5-1.5-0.9c-0.4,0.5-0.8,0.9-1.4,1.2l-0.2-0.2
		c0.6-0.4,1.1-0.8,1.4-1.2c-0.3-0.4-0.6-0.8-0.8-1.3l0.3-0.1c0.2,0.5,0.4,0.9,0.7,1.2c0.3-0.6,0.5-1.5,0.4-2.5l-1.2,0.2
		c-0.1,0.5-0.2,0.9-0.4,1.4L36,56.5c0.3-0.7,0.5-1.5,0.5-2.5l0.3,0c0,0.3,0,0.7-0.1,0.9l1.8-0.2l0,0.3l-0.4,0.1
		c0.1,1.2-0.1,2.2-0.5,2.8C38.1,58.3,38.6,58.5,39.3,58.7z"/>
	<path class="st0" d="M40.8,53.8l-0.1,0.3c-0.4-0.1-0.8-0.2-1.3-0.3l0.1-0.3C39.9,53.5,40.4,53.6,40.8,53.8z M41.2,55.2l-0.1,0.3
		c-0.3-0.1-0.7-0.2-1.3-0.3l0.1-0.3C40.5,55,41,55.1,41.2,55.2z M41.6,56c0,0.9-0.1,1.7-0.2,2.3l-0.3-0.1c0.2-0.6,0.2-1.4,0.3-2.3
		L41.6,56z M45.3,53.9l-1.8,0.8c-0.1,1-0.2,1.8-0.5,2.4c0.8-0.5,1.5-0.9,2.2-1.4c-0.3-0.2-0.7-0.4-1-0.6l0.2-0.3
		c0.8,0.4,1.4,0.8,1.9,1.2L46,56.4c-0.2-0.2-0.4-0.4-0.6-0.5c-0.8,0.6-1.7,1.1-2.7,1.7l-0.3-0.2c0.1-0.1,0.3-0.5,0.4-1
		c0.1-0.5,0.2-1,0.2-1.6l-1.4,0.6l-0.1-0.3l1.7-0.7l-0.5-1.1L41.3,54l-0.1-0.3l1.4-0.6l-0.4-0.9l0.3-0.1l0.4,0.9l1.4-0.6l0.1,0.3
		L43,53.2l0.5,1.1l1.7-0.7L45.3,53.9z"/>
	<path class="st0" d="M46.8,51.7c0.6,0.1,1,0.4,1.3,0.7c0.1,0.1,0.2,0.3,0.2,0.4c0,0.2-0.1,0.3-0.4,0.5c-0.1,0.1-0.1,0.1-0.2,0.1
		l-0.3-0.2l0.3-0.2c0.2-0.1,0.2-0.2,0.2-0.3c0-0.1,0-0.1-0.1-0.2c-0.3-0.3-0.7-0.6-1.3-0.7c-0.1-0.4-0.3-0.9-0.6-1.4l-0.7,0.6l3,3.7
		L48.1,55l-3.2-4l1.2-1l0.2,0.2C46.5,50.8,46.7,51.2,46.8,51.7z M50,49.1l-0.3,0.2l-0.6-0.7l-2.1,1.7l0.6,0.7l-0.3,0.2l-0.8-0.9
		l1.1-0.9c-0.1-0.1-0.3-0.2-0.5-0.3l0.2-0.3c0.2,0.1,0.4,0.2,0.6,0.3l1.2-1L50,49.1z M49.6,49.5l-1.7,1.4l-0.2-0.2l1.7-1.4
		L49.6,49.5z M51.5,50.7c0.2,0.2,0.3,0.4,0.4,0.6c0.1,0.2,0.1,0.3,0,0.4c0,0.1-0.2,0.3-0.4,0.5c-0.3,0.2-0.5,0.2-0.7,0.1l-1.2-1.4
		l-0.6,0.5c0.4,0.6,0.6,1,0.6,1.4c0,0.4-0.1,0.8-0.4,1.3l-0.4,0c0.3-0.4,0.4-0.8,0.4-1.2c0-0.4-0.2-0.8-0.5-1.2l-0.7,0.6L48,51.8
		l2.6-2.1l0.2,0.2L50,50.6l1.1,1.4c0,0,0.1,0,0.1,0c0,0,0.1,0,0.2-0.1c0.1-0.1,0.2-0.2,0.2-0.2c0,0,0-0.1,0-0.1c0,0,0-0.1-0.1-0.3
		c-0.1-0.1-0.2-0.3-0.3-0.4L51.5,50.7z"/>
</g>
<g>
	<path class="st3" d="M5.3,32.2c-0.3,0.2-0.4,0.4-0.4,0.6c0,0.2,0.1,0.3,0.2,0.4s0.3,0.1,0.5,0.1c0.2,0,0.4-0.2,0.7-0.6
		c0.3-0.4,0.4-0.6,0.4-0.6c0.2-0.3,0.5-0.4,0.9-0.5c0.5,0,0.9,0.1,1.2,0.3c0.3,0.2,0.5,0.5,0.5,0.9c0,0.5-0.3,0.9-0.8,1.2l-0.5-0.4
		c0.2-0.1,0.3-0.2,0.5-0.3c0.1-0.1,0.2-0.3,0.2-0.4c0-0.2-0.1-0.3-0.3-0.4c-0.2-0.1-0.3-0.1-0.6-0.1c-0.2,0-0.3,0.1-0.4,0.1
		c-0.1,0.1-0.3,0.4-0.5,0.8s-0.6,0.7-1,0.7c-0.4,0-0.7-0.1-1-0.3c-0.3-0.2-0.4-0.4-0.4-0.7c0-0.4,0.1-0.8,0.5-1L5.3,32.2z"/>
	<path class="st3" d="M4.3,30.7l0-0.6l2.6,0.2c1,0.1,1.5-0.1,1.6-0.6s-0.4-0.8-1.5-0.9l-2.6-0.2l0-0.6l2.8,0.2
		c1.3,0.1,2,0.6,1.9,1.5c-0.1,0.9-0.8,1.3-2.1,1.2L4.3,30.7z"/>
	<path class="st3" d="M9.4,27.1l-0.1,0.6l-4.6-0.9l0.2-1c0.2-0.8,0.7-1.2,1.7-1c1,0.2,1.4,0.7,1.2,1.4l-0.1,0.4L9.4,27.1z M7.1,26.6
		l0.1-0.3c0.1-0.4-0.1-0.7-0.7-0.8c-0.5-0.1-0.8,0.1-0.9,0.5l-0.1,0.3L7.1,26.6z"/>
	<path class="st3" d="M10.6,22.8l-0.2,0.7L8,23.9l2,0.7l-0.2,0.6l-4.4-1.5l0.3-0.9c0.3-0.8,0.8-1,1.7-0.7c0.3,0.1,0.6,0.3,0.8,0.5
		s0.2,0.4,0.2,0.7L10.6,22.8z M7.7,23.8l0.1-0.2c0.2-0.5,0-0.8-0.6-1c-0.5-0.2-0.8,0-1,0.5l-0.1,0.2L7.7,23.8z"/>
	<path class="st3" d="M7.4,20.2l1.1,0.5L9,19.6l0.6,0.3L9.1,21l1.3,0.6l0.5-1.2l0.6,0.3l-0.8,1.7l-4.2-2l0.8-1.7L7.9,19L7.4,20.2z"
		/>
	<path class="st3" d="M10.6,16.1l2.2,2.5l-0.1,0.1l-3.2-1l2.4,2.1l-0.3,0.5L8,17.2l0.2-0.4l3.2,0.9l-2.2-2.5l0.3-0.4l4.3,2.1
		l-0.3,0.5L10.6,16.1z"/>
	<path class="st3" d="M11.5,13.6l0.9,0.8l0.8-0.9l0.5,0.4L13,14.8l1.1,0.9l0.8-1l0.5,0.4l-1.2,1.4l-3.5-3.1l1.2-1.4l0.5,0.4
		L11.5,13.6z"/>
	<path class="st3" d="M17.3,12.1l0.4,1l-0.5,0.4l-1.7-4.7l0.4-0.3l4,3l-0.5,0.4l-0.9-0.7L17.3,12.1z M16.3,9.6l0.8,1.9l0.9-0.7
		L16.3,9.6z"/>
	<path class="st3" d="M17.9,7.2l0.9-0.5c0.5-0.3,0.9-0.3,1.4,0c0.5,0.2,0.9,0.6,1.2,1.2c0.3,0.6,0.4,1.2,0.4,1.7s-0.3,0.9-0.8,1.2
		l-0.9,0.5L17.9,7.2z M20.3,10.4l0.2-0.1c0.8-0.4,0.9-1.1,0.4-2.1c-0.5-0.9-1.2-1.2-1.9-0.8l-0.2,0.1L20.3,10.4z"/>
	<path class="st3" d="M24.6,5.9l0.2,3.3l-0.1,0.1l-1.9-2.8l0.7,3.1l-0.6,0.2l-1-4.7L22.3,5l2,2.7L24,4.3l0.4-0.2l2.1,4.3L26,8.7
		L24.6,5.9z"/>
	<path class="st3" d="M27.7,8.3l-0.6,0.1l-1-4.6l0.6-0.1L27.7,8.3z"/>
	<path class="st3" d="M27.8,3.4l0.5-0.1l2.5,3.3l-0.4-3.4l0.6-0.1l0.5,4.7L31,7.9l-2.5-3.2l0.4,3.4l-0.6,0.1L27.8,3.4z"/>
	<path class="st3" d="M32.8,7.8l-0.6,0l-0.1-4.7l0.6,0L32.8,7.8z"/>
	<path class="st3" d="M35.5,4.2c-0.1-0.3-0.3-0.4-0.6-0.5c-0.2,0-0.3,0-0.4,0.1c-0.1,0.1-0.2,0.3-0.2,0.5c0,0.2,0.2,0.4,0.5,0.7
		c0.4,0.3,0.5,0.5,0.5,0.5c0.3,0.3,0.4,0.6,0.3,0.9c0,0.5-0.2,0.9-0.4,1.1C35.1,7.9,34.8,8,34.4,8c-0.5,0-0.8-0.4-1.1-1l0.4-0.5
		c0,0.2,0.1,0.4,0.3,0.5c0.1,0.2,0.3,0.2,0.4,0.3c0.2,0,0.3-0.1,0.4-0.2C35,7,35.1,6.8,35.1,6.6c0-0.2,0-0.3-0.1-0.4
		s-0.3-0.3-0.7-0.6s-0.6-0.7-0.6-1.1c0-0.4,0.2-0.7,0.4-1c0.2-0.3,0.5-0.4,0.8-0.3c0.4,0,0.7,0.2,1,0.6L35.5,4.2z"/>
	<path class="st3" d="M37.2,8.2l-0.6-0.1l0.7-3.9l-0.8-0.1l0.1-0.7l2.2,0.4l-0.1,0.7l-0.8-0.1L37.2,8.2z"/>
	<path class="st3" d="M40.7,9.2l-0.7-0.2l-0.4-2.3l-0.6,2l-0.6-0.2L39.7,4l0.9,0.3c0.8,0.2,1,0.8,0.8,1.7c-0.1,0.3-0.3,0.6-0.5,0.8
		S40.5,7,40.3,7L40.7,9.2z M39.6,6.3l0.2,0.1c0.5,0.1,0.8,0,1-0.6c0.2-0.5,0-0.8-0.5-1l-0.2-0.1L39.6,6.3z"/>
	<path class="st3" d="M42.1,8.6l-0.7,0.8l-0.6-0.3L44,5.4l0.5,0.2l-0.7,4.9l-0.6-0.3l0.1-1.1L42.1,8.6z M43.8,6.5l-1.3,1.6l1,0.4
		L43.8,6.5z"/>
	<path class="st3" d="M45.1,11.3L44.6,11l2.1-3.4L46,7.2l0.3-0.6l1.9,1.1l-0.3,0.6l-0.7-0.4L45.1,11.3z"/>
	<path class="st3" d="M46.6,12.4L46.1,12l2.7-3.8l0.5,0.4L46.6,12.4z"/>
	<path class="st3" d="M48.9,12.7l3-2l0.5,0.5l-4.2,2.7l-0.3-0.3L50,9l0.5,0.4L48.9,12.7z"/>
	<path class="st3" d="M52.9,12.7L52,13.5l0.8,0.9l-0.5,0.5l-0.8-0.9l-1.1,1l0.9,0.9l-0.5,0.5l-1.3-1.4l3.5-3.1l1.3,1.4l-0.5,0.5
		L52.9,12.7z"/>
	<path class="st3" d="M56.8,18.8c0.2-0.4,0.2-0.7,0-0.9c-0.2-0.3-0.5-0.4-0.9-0.5c-0.4,0-0.8,0.1-1.2,0.3c-0.4,0.2-0.7,0.5-0.8,0.9
		c-0.2,0.4-0.2,0.7,0,1c0.2,0.3,0.4,0.4,0.8,0.4l-0.8,0.5c-0.3-0.2-0.5-0.4-0.7-0.6c-0.3-0.4-0.3-0.9,0-1.5c0.2-0.5,0.6-1,1.2-1.3
		c0.6-0.3,1.2-0.5,1.8-0.4s1,0.3,1.3,0.7c0.1,0.2,0.2,0.5,0.2,0.8L56.8,18.8z"/>
	<path class="st3" d="M56.1,20.1c0.6-0.3,1.2-0.3,1.8-0.2c0.6,0.1,1,0.5,1.2,0.9c0.2,0.5,0.1,1-0.2,1.5s-0.8,0.9-1.4,1.1
		s-1.2,0.3-1.8,0.2c-0.6-0.1-1-0.5-1.2-0.9c-0.2-0.5-0.1-1,0.2-1.5C55,20.7,55.5,20.3,56.1,20.1z M56.4,20.7c-0.4,0.2-0.8,0.4-1,0.8
		s-0.3,0.7-0.2,1c0.1,0.3,0.4,0.5,0.8,0.6c0.4,0.1,0.8,0,1.3-0.2c0.4-0.2,0.7-0.4,1-0.7s0.3-0.6,0.1-1c-0.1-0.3-0.4-0.5-0.8-0.6
		C57.2,20.5,56.8,20.5,56.4,20.7z"/>
	<path class="st3" d="M60,23.8l0.1,0.6L57.5,25c-1,0.2-1.4,0.6-1.3,1.1c0.1,0.5,0.7,0.6,1.6,0.4l2.6-0.6l0.1,0.6l-2.7,0.6
		c-1.3,0.3-2.1,0-2.3-0.9c-0.2-0.9,0.3-1.5,1.6-1.8L60,23.8z"/>
	<path class="st3" d="M56.3,30.5l-0.1-0.8l2-1.2l-2.1,0.2l-0.1-0.6l4.7-0.4l0.1,1c0.1,0.8-0.4,1.3-1.3,1.4c-0.4,0-0.7,0-0.9-0.1
		s-0.4-0.3-0.5-0.5L56.3,30.5z M58.5,28.5l0,0.2c0,0.5,0.4,0.7,0.9,0.7c0.5-0.1,0.8-0.3,0.7-0.8l0-0.2L58.5,28.5z"/>
	<path class="st3" d="M56.3,32.1l0-0.6l4,0.1l0-0.8l0.7,0l0,2.2l-0.7,0l0-0.8L56.3,32.1z"/>
</g>
<path class="st4" d="M3,42.1"/>
<path d="M84.7,55.6c-0.1,0-0.1,0-0.2-0.1c-0.1-0.1,0-0.2,0.2-0.3c0.1,0,0.2-0.1,0.3-0.2c0.1-0.1,0.1-0.2,0.2-0.3c0-0.2,0-7.5,0-7.7
	c0-0.1,0-0.2-0.2-0.3c-0.1-0.1-0.2-0.2-0.3-0.2c-0.2-0.1-0.3-0.2-0.2-0.3l0.1-0.1l1.3,0l1.3,0l0.1,0.1c0.1,0,0.1,0.1,0.2,0.2
	c0,0.1,0.1,0.2,0.1,0.2c0,0,0.1-0.1,0.2-0.2c0.1-0.1,0.3-0.2,0.5-0.3c0.3-0.2,0.3-0.2,0.6-0.2c0.8-0.1,1.3,0.1,1.8,0.6
	c0.4,0.4,0.6,0.7,0.8,1.3c0.1,0.2,0.2,0.9,0.3,1.2c0,0.3,0,1-0.1,1.2c0,0.1-0.1,0.3-0.1,0.5c-0.1,0.5-0.4,1-0.7,1.4
	c-0.2,0.2-0.5,0.4-0.8,0.6l-0.3,0.2l-0.6,0l-0.6,0l-0.3-0.1c-0.2-0.1-0.4-0.2-0.5-0.2c-0.1-0.1-0.2-0.1-0.2-0.1l-0.1,0l0,1.3
	c0,1.3,0,1.3,0.1,1.4c0.1,0.2,0.2,0.3,0.5,0.3c0.2,0,0.3,0.1,0.3,0.2c0,0.2,0,0.2-1.8,0.2C85.6,55.7,84.8,55.6,84.7,55.6L84.7,55.6z
	 M88.8,52c0.3-0.2,0.4-0.4,0.5-1c0.2-1.1,0.2-2,0-3.1c-0.1-0.5-0.2-0.7-0.4-0.9c-0.3-0.3-0.6-0.4-0.9-0.1c-0.2,0.2-0.4,0.4-0.5,0.6
	l-0.1,0.2v1.8c0,2.1,0,1.9,0.3,2.2c0.1,0.1,0.3,0.2,0.4,0.3c0.2,0.1,0.3,0.2,0.4,0.2C88.6,52.1,88.7,52.1,88.8,52L88.8,52z
	 M71.9,52.7c-0.2,0-0.4-0.1-0.8-0.2c-0.3-0.1-0.5-0.2-0.6-0.2c-0.1,0-0.2-0.1-0.4-0.1h-0.3l-0.2,0.2c-0.3,0.2-0.4,0.3-0.5,0.2
	c0,0-0.1-0.3-0.1-1.3c0-1.5,0-1.9,0.1-2c0.1-0.1,0.2-0.1,0.3,0.2c0,0.1,0.1,0.2,0.1,0.3c0,0.1,0.1,0.2,0.1,0.3
	c0.1,0.3,0.4,0.7,0.7,1.1c0.4,0.4,0.7,0.6,1.5,0.9c0.2,0.1,0.2,0.1,0.6,0.1l0.4,0l0.3-0.2c0.4-0.2,0.5-0.4,0.7-0.7
	c0.1-0.2,0.1-0.3,0.1-0.5c0-0.3,0-0.3-0.2-0.6c-0.2-0.4-0.4-0.6-1.1-1c-0.2-0.1-0.5-0.3-0.9-0.5c-0.3-0.2-0.6-0.3-0.7-0.4
	c-0.9-0.5-0.8-0.5-1.3-1c-0.4-0.4-0.4-0.4-0.6-0.8l-0.2-0.4l0-0.6c0-0.7,0-0.9,0.3-1.4c0.2-0.3,0.2-0.4,0.5-0.7
	c0.3-0.3,0.6-0.5,1-0.6c0.1,0,0.3-0.1,0.4-0.2c0.2-0.1,0.2-0.1,0.9-0.1c0.7,0,0.7,0,1,0.1c0.1,0.1,0.4,0.1,0.5,0.2
	c0.1,0,0.3,0.1,0.4,0.2c0.2,0.1,0.4,0.1,0.5,0.1c0,0,0.1-0.1,0.1-0.2c0.1-0.2,0.1-0.2,0.2-0.2c0.1,0,0.2,0.1,0.3,0.2
	c0,0.1,0.1,1.6,0.1,2.3c0,0.3,0,0.6,0,0.6c-0.1,0.1-0.2,0.1-0.3,0c0-0.1-0.1-0.1-0.1-0.2c0,0,0-0.2-0.1-0.3c-0.3-0.9-1.2-1.8-2.1-2
	c-0.1,0-0.4,0-0.5,0c-0.3,0-0.3,0-0.6,0.2c-0.2,0.1-0.3,0.2-0.5,0.3c-0.2,0.2-0.3,0.4-0.3,0.7c0,0.3,0,0.4,0.2,0.7
	c0.3,0.4,0.7,0.6,2,1.3c1.7,0.8,2.4,1.5,2.7,2.4c0.1,0.4,0.1,0.4,0.1,0.9l0,0.5l-0.1,0.3c-0.1,0.2-0.2,0.4-0.2,0.5
	c-0.1,0.1-0.2,0.2-0.2,0.3c-0.1,0.2-0.6,0.6-0.8,0.8c-0.2,0.1-0.7,0.3-1,0.4C73.2,52.7,72.3,52.8,71.9,52.7z M78.8,52.7
	c-0.1,0-0.2-0.1-0.3-0.1c-0.1,0-0.2-0.1-0.3-0.2c-0.3-0.1-0.5-0.5-0.7-1.1c-0.1-0.2-0.1-0.4-0.1-2.2c0-1.9,0-2.3-0.1-2.4
	c0,0-0.2-0.1-0.3-0.2c-0.3-0.2-0.3-0.2-0.2-0.3c0.1,0,0.3,0,1.3-0.1c0.7,0,1.2,0,1.3,0c0.1,0,0.1,0.1,0.1,0.1c0,0.1,0,1.2,0,2.6
	l0,2.4l0.2,0.2c0.1,0.2,0.2,0.2,0.3,0.2c0.3,0,0.6-0.2,0.8-0.6l0.2-0.2l0-2c0-2.3,0-2.1-0.4-2.3c-0.1-0.1-0.2-0.2-0.3-0.2
	c0,0,0-0.1,0.1-0.1c0.1-0.1,0.2-0.1,1.3-0.1c0.9,0,1.2,0,1.3,0.1l0.1,0l0,2.7c0,1.5,0,2.8,0,2.8c0,0.1,0.2,0.3,0.4,0.4
	c0.2,0.1,0.3,0.2,0.3,0.2c0,0.1-0.2,0.1-1.5,0.1l-1.2,0l-0.1-0.1c-0.1-0.1-0.1-0.1-0.1-0.3c0-0.1,0-0.2-0.1-0.2c0,0-0.1,0-0.3,0.2
	c-0.2,0.2-0.3,0.3-0.6,0.4l-0.4,0.2l-0.4,0C79.1,52.7,78.9,52.7,78.8,52.7L78.8,52.7z M119.3,52.7c-0.8-0.3-0.9-0.3-1.2-0.7
	c-0.3-0.3-0.6-0.8-0.6-1.1c0-0.1-0.1-0.3-0.1-0.4c-0.1-0.2-0.1-0.3-0.1-1v-0.8l0.1-0.4c0.4-1.1,1-1.8,1.9-2.2l0.4-0.1l0.5,0
	c0.6,0,0.7,0,1.1,0.3c0.3,0.2,0.9,0.8,1.1,1.1c0.2,0.3,0.4,1.2,0.4,1.5c0,0.3,0,0.3-0.8,0.3c-0.4,0-1.1,0-1.5,0c-0.5,0-0.9,0-1,0
	l-0.2,0l0,0.1c0,0.1,0,0.2,0.1,0.3c0,0.1,0.1,0.3,0.1,0.4c0,0.3,0.3,0.8,0.5,1c0.1,0.1,0.1,0.2,0.1,0.2s0.1,0.1,0.3,0.2
	c0.3,0.2,0.3,0.2,0.6,0.2c0.3,0,0.5,0,0.8-0.2c0.2-0.2,0.3-0.3,0.6-0.6c0.1-0.1,0.1-0.1,0.2-0.1c0.1,0,0.2,0.2,0.2,0.3
	c0,0.3-0.6,1.1-1,1.4c-0.1,0.1-0.4,0.2-0.6,0.3l-0.4,0.2l-0.6,0C119.6,52.8,119.5,52.8,119.3,52.7L119.3,52.7z M120.8,48.4
	c0.1,0,0.1-0.2,0.1-0.7c0-0.5,0-0.5-0.1-0.7c-0.1-0.1-0.2-0.3-0.3-0.4c-0.2-0.2-0.2-0.2-0.3-0.2c-0.1,0-0.2,0-0.2,0
	c-0.1,0-0.4,0.3-0.5,0.5c-0.1,0.1-0.3,0.9-0.3,1.1c0,0.2,0,0.3,0,0.3c0,0,0.2,0,0.8,0C120.4,48.4,120.8,48.4,120.8,48.4 M172.8,52.7
	c-0.1,0-0.1-0.2-0.1-0.4c0-0.1,0-0.4,0-0.6c0-0.3-0.1-0.7-0.1-0.9c0-0.4,0-0.4,0.2-0.4c0.1,0,0.2,0,0.3,0.3c0.1,0.3,0.4,0.7,0.6,0.9
	c0.1,0.1,0.3,0.2,0.5,0.3l0.3,0.2h0.3h0.3l0.1-0.1c0.2-0.2,0.2-0.3,0.2-0.5c0-0.3-0.1-0.4-0.3-0.6c-0.2-0.2-0.7-0.6-0.9-0.7
	c-0.1,0-0.2-0.1-0.2-0.2c-0.1-0.1-0.2-0.2-0.3-0.2c-0.1-0.1-0.3-0.3-0.5-0.4c-0.3-0.3-0.3-0.3-0.5-0.6c-0.2-0.4-0.2-0.7-0.2-1.1
	c0-0.3,0-0.3,0.2-0.6c0.2-0.5,0.5-0.7,0.9-1l0.3-0.2l0.6,0c0.6,0,0.6,0,0.9,0.1c0.4,0.1,0.6,0.1,0.7,0c0.1-0.1,0.3-0.1,0.4,0
	c0.1,0.1,0.1,0.2,0.1,1.3c0,1,0,1-0.2,1c-0.2,0-0.2-0.1-0.3-0.3c-0.1-0.1-0.1-0.3-0.2-0.4c-0.1-0.1-0.1-0.2-0.1-0.2
	c0,0-0.1-0.1-0.2-0.2c-0.1-0.1-0.3-0.3-0.4-0.4c-0.3-0.2-0.4-0.2-0.7-0.2c-0.1,0-0.2,0-0.3,0.1c-0.2,0.1-0.3,0.3-0.3,0.5
	c0,0.1,0.1,0.3,0.2,0.4c0.2,0.2,0.3,0.3,1.3,1c0.1,0.1,0.2,0.2,0.3,0.2c0.1,0.1,0.2,0.2,0.3,0.3c0.2,0.2,0.5,0.5,0.7,0.9
	C177,50,177,50,177,50.5c0,0.5,0,0.7-0.2,1.1c-0.2,0.5-0.5,0.7-1,1l-0.4,0.2l-0.6,0c-0.6,0-0.6,0-1.1-0.1c-0.5-0.1-0.5-0.1-0.8,0.1
	C172.9,52.8,172.9,52.8,172.8,52.7 M190.2,52.7c-0.3,0-0.4-0.1-0.7-0.4c-0.1-0.1-0.2-0.3-0.3-0.4c-0.1-0.2-0.2-0.6-0.1-0.7
	c0-0.2,0.2-0.5,0.2-0.7c0.2-0.4,1-1,1.7-1.4c0.1-0.1,0.2-0.1,0.3-0.1c0,0,0.1-0.1,0.2-0.1c0.1,0,0.2-0.1,0.3-0.2
	c0.1,0,0.2-0.1,0.3-0.1c0.4-0.1,0.5-0.4,0.4-1.2c0-0.3-0.1-0.6-0.1-0.7c0-0.1-0.1-0.2-0.3-0.3c-0.2-0.2-0.2-0.2-0.5-0.2
	c-0.2,0-0.3,0-0.5,0.1c-0.1,0.1-0.2,0.1-0.3,0.2c0,0.1,0,0.3,0.2,0.6c0.1,0.1,0.2,0.3,0.2,0.4c0.1,0.2,0.1,0.2,0,0.4
	c-0.1,0.2-0.1,0.3-0.2,0.4c-0.2,0.2-0.3,0.2-0.5,0.2c-0.4,0-0.6,0-0.8-0.2c-0.1-0.1-0.2-0.2-0.3-0.3c-0.1-0.1-0.1-0.1-0.1-0.6l0-0.4
	l0.1-0.2c0.1-0.1,0.3-0.3,0.4-0.5c0.3-0.3,0.7-0.5,1.4-0.7l0.5-0.1l0.7,0l0.7,0l0.3,0.1c0.4,0.2,0.6,0.3,0.8,0.5
	c0.3,0.3,0.4,0.6,0.5,0.9c0,0.1,0,1.1,0.1,2.2c0,1.1,0,2,0,2c0,0,0.1,0.1,0.3,0.1c0.3,0,0.4,0.1,0.4,0.2c0,0.1-0.2,0.3-0.4,0.5
	c-0.1,0.1-0.3,0.2-0.4,0.3l-0.3,0.2l-0.5,0c-0.4,0-0.5,0-0.6-0.1c-0.2-0.1-0.4-0.3-0.5-0.5c-0.1-0.2-0.1-0.2-0.2-0.2
	c-0.1,0-0.2,0-0.3,0.1c-0.1,0.1-0.3,0.2-0.3,0.2c-0.1,0.1-0.3,0.2-0.5,0.2c-0.3,0.1-0.4,0.1-0.6,0.2
	C190.6,52.7,190.3,52.7,190.2,52.7 M192.2,51.4c0.2-0.1,0.2-0.2,0.3-0.3c0.1-0.2,0.1-1.2,0.1-1.5c0-0.3-0.1-0.4-0.2-0.3
	c-0.2,0.1-0.7,0.6-0.9,0.9c-0.2,0.3-0.2,0.4-0.2,0.8c0,0.3,0.1,0.4,0.2,0.5C191.7,51.7,191.9,51.6,192.2,51.4 M198.1,52.7
	c-0.5-0.1-1.1-0.6-1.3-1.2c0-0.1,0-0.8-0.1-2.3c0-2,0-2.2-0.1-2.2c0,0-0.1,0-0.3,0c-0.4,0-0.6-0.1-0.5-0.3c0.1-0.2,0.3-0.3,0.4-0.5
	c0.8-0.6,1.6-1.5,1.9-2.2c0.1-0.1,0.1-0.2,0.2-0.2c0.1-0.1,0.2-0.1,0.3,0c0.1,0,0.1,0.1,0.1,1.1c0,0.8,0,1.1,0.1,1.1
	c0,0,0.2,0,0.6,0.1c0.5,0,0.6,0,0.7,0.1c0.1,0.1,0.1,0.1,0.1,0.3c0,0.2,0,0.3,0,0.3c-0.1,0.1-0.1,0.1-0.8,0.1c-0.4,0-0.6,0-0.7,0.1
	c-0.1,0-0.1,0.2,0,2.1c0,2,0,2.1,0.1,2.2c0.1,0.2,0.2,0.2,0.4,0.2c0.2,0,0.2,0,0.5-0.3c0.2-0.2,0.2-0.2,0.3-0.1
	c0.1,0.1,0.1,0.3,0.1,0.4c0,0.2-0.4,0.6-0.6,0.8c-0.1,0.1-0.3,0.2-0.4,0.3c-0.2,0.1-0.2,0.1-0.6,0.1
	C198.5,52.7,198.2,52.7,198.1,52.7 M207.9,52.7c-0.1,0-0.3-0.2-0.3-0.4c0-0.1-0.1-0.3-0.2-0.4c-0.1-0.1-0.1-0.3-0.1-0.3
	c0-0.1-0.1-0.2-0.2-0.4c-0.1-0.1-0.1-0.2-0.1-0.2c0,0,0-0.1-0.1-0.2c-0.1-0.1-0.1-0.3-0.2-0.4c0-0.1-0.1-0.2-0.1-0.3
	c0-0.1-0.1-0.2-0.1-0.3c0-0.1-0.2-0.5-0.4-0.9c-0.2-0.4-0.4-0.8-0.4-0.9c0-0.1-0.1-0.2-0.1-0.3c0,0-0.1-0.2-0.1-0.3
	c-0.1-0.3-0.3-0.6-0.6-0.9c-0.2-0.2-0.3-0.3-0.3-0.4c0,0,0-0.1,0.1-0.1c0.1-0.1,0.2-0.1,1.2-0.1c1.4,0,2.2,0,2.3,0.1
	c0.1,0.1,0,0.2-0.2,0.3c-0.1,0-0.2,0.1-0.3,0.2c-0.1,0.1-0.1,0.1-0.1,0.3c0.1,0.4,0.2,0.7,0.5,1.4c0.2,0.5,0.4,0.9,0.4,1
	c0,0,0.1,0.2,0.2,0.3c0.2,0.3,0.2,0.3,0.4-0.2c0.1-0.2,0.2-0.5,0.3-0.6c0.1-0.3,0.3-0.6,0.4-1c0.1-0.2,0.1-0.4,0.2-0.5
	c0-0.1,0.1-0.3,0.1-0.4l0-0.2l-0.2-0.1c-0.1-0.1-0.2-0.2-0.3-0.2c-0.1,0-0.3-0.1-0.2-0.2c0-0.1,0.2-0.1,1.1-0.1c0.7,0,0.9,0,1,0
	c0.2,0.1,0.1,0.1-0.2,0.4c-0.3,0.2-0.3,0.3-0.5,0.5c-0.1,0.1-0.2,0.3-0.2,0.4c0,0.1-0.1,0.2-0.1,0.3c0,0.1-0.1,0.2-0.1,0.3
	c0,0.1-0.1,0.2-0.1,0.3c0,0.1-0.1,0.2-0.1,0.3c0,0.1-0.1,0.3-0.1,0.3c0,0.1-0.1,0.2-0.1,0.2c0,0.1-0.1,0.2-0.2,0.4
	c-0.1,0.1-0.1,0.2-0.1,0.3c0,0,0,0.1-0.1,0.3c-0.1,0.1-0.1,0.3-0.2,0.5c-0.1,0.1-0.1,0.3-0.1,0.3c0,0-0.1,0.1-0.1,0.2
	c0,0.1-0.1,0.3-0.1,0.3c0,0.1-0.1,0.2-0.1,0.3c0,0.1-0.1,0.2-0.1,0.3c0,0.1-0.1,0.2-0.1,0.3c0,0.1-0.1,0.2-0.1,0.3
	C208.3,52.7,208.1,52.8,207.9,52.7 M226.6,52.7c-0.3,0-0.5-0.1-0.9-0.2c-0.3-0.1-0.5-0.2-0.6-0.2c-0.1,0-0.2-0.1-0.3-0.2
	c-0.2-0.1-0.8-0.5-1.1-0.8c-0.3-0.3-0.9-1.1-1-1.4c0-0.1-0.1-0.2-0.1-0.2c-0.1-0.2-0.3-1.1-0.4-1.5c0-0.5,0-1.2,0.2-1.7
	c0.1-0.4,0.3-0.9,0.4-1.1c0-0.1,0.1-0.2,0.2-0.3c0.4-0.7,1.1-1.4,1.8-1.9c0.2-0.1,0.6-0.3,1.2-0.5c0.6-0.2,0.8-0.2,1.8-0.2
	c0.7,0,0.7,0,1.2,0.1c0.6,0.1,0.8,0.2,1,0.3c0.4,0.1,0.5,0.1,0.8-0.2c0.2-0.2,0.2-0.2,0.3-0.2c0.1,0,0.1,0.1,0.1,0.4
	c0,0.5,0,2.7,0,2.8c0,0-0.1,0-0.1,0c-0.1,0-0.2-0.2-0.4-0.7c-0.1-0.4-0.4-0.8-0.7-1.1c-0.2-0.3-0.7-0.6-1-0.7
	c-0.1,0-0.3-0.1-0.4-0.1c-0.2-0.1-0.3-0.1-0.7-0.1c-0.3,0-0.5,0-0.6,0c-0.5,0.2-0.6,0.2-0.9,0.4c-0.2,0.1-0.6,0.5-0.8,0.8
	c-0.1,0.2-0.4,0.7-0.4,0.8c0,0-0.1,0.2-0.1,0.4c-0.2,0.5-0.2,0.9-0.2,2c0,1,0.1,1.6,0.2,1.9c0,0.1,0.1,0.3,0.1,0.4
	c0.2,0.6,0.4,1.1,0.8,1.4c0.2,0.2,0.6,0.5,0.8,0.5c0.1,0,0.2,0.1,0.4,0.1c0.2,0.1,0.3,0.1,0.8,0.1l0.5,0l0.4-0.1
	c0.7-0.2,1-0.4,1.6-1c0.3-0.3,0.4-0.3,0.4-0.3c0.1,0,0.2,0.1,0.2,0.2c0,0.1,0,0.2-0.1,0.4c-0.1,0.1-0.1,0.2-0.2,0.3
	c0,0-0.2,0.1-0.2,0.2c-0.2,0.2-0.7,0.5-0.9,0.6c-0.1,0-0.2,0.1-0.3,0.1c-0.1,0-0.2,0.1-0.4,0.1c-0.1,0-0.4,0.1-0.5,0.1
	c-0.3,0.1-0.3,0.1-0.9,0.1C227.3,52.7,226.8,52.7,226.6,52.7L226.6,52.7z M241.5,52.7c-0.1,0-0.2-0.1-0.3-0.1
	c-0.1,0-0.2-0.1-0.3-0.2c-0.2-0.1-0.2-0.1-0.4-0.4c-0.1-0.2-0.2-0.3-0.3-0.6c0-0.2-0.1-0.4-0.1-0.5c0-0.1,0-1,0-2
	c0-1.8,0-2.2-0.1-2.3c0,0-0.2-0.1-0.3-0.2c-0.3-0.2-0.3-0.2-0.2-0.3c0.1,0,0.3,0,1.3,0c0.7,0,1.2,0,1.3,0c0.1,0,0.1,0.1,0.1,0.1
	c0,0.1,0,1.2,0,2.6l0,2.4l0.2,0.2c0.1,0.2,0.2,0.2,0.3,0.2c0.3,0,0.6-0.2,0.8-0.6l0.2-0.2l0-1.9c0-1.4,0-2,0-2.1
	c0-0.1-0.1-0.2-0.5-0.4c-0.1-0.1-0.2-0.1-0.2-0.1c0,0,0-0.1,0.1-0.1c0.1-0.1,0.1-0.1,1.3-0.1c0.9,0,1.2,0,1.3,0.1l0.1,0l0,2.7
	c0,1.5,0,2.8,0,2.8c0,0.1,0.2,0.3,0.4,0.4c0.2,0.1,0.3,0.2,0.3,0.2c0,0,0,0.1-0.1,0.1c-0.1,0-0.3,0.1-1.3,0.1l-1.2,0l-0.1-0.1
	c0-0.1-0.1-0.2-0.1-0.3c0-0.1,0-0.2-0.1-0.2c0,0-0.1,0-0.3,0.2c-0.2,0.2-0.3,0.3-0.6,0.4l-0.4,0.2l-0.4,0
	C241.9,52.7,241.6,52.7,241.5,52.7L241.5,52.7z M101,52.7c-0.1,0-0.2-0.1-0.4-0.2c-0.3-0.1-0.5-0.2-0.8-0.5
	c-0.2-0.2-0.3-0.4-0.4-0.6c-0.1-0.2-0.2-0.4-0.2-0.4c0,0,0-0.2-0.1-0.3c-0.1-0.2-0.1-0.3-0.1-0.8c0-0.8,0-1.3,0.2-1.8
	c0.3-0.9,0.9-1.6,1.5-1.9c0.1,0,0.3-0.1,0.4-0.2c0.4-0.1,0.7-0.2,1.2-0.1c0.3,0,0.3,0.1,0.7,0.2c0.4,0.2,0.4,0.2,1,0.8
	c0,0,0.1,0.2,0.2,0.3c0.2,0.4,0.5,1.7,0.4,1.8c0,0-0.2,0.1-1.4,0.1c-0.8,0-1.5,0-1.7,0l-0.3,0l0,0.1c0,0.1,0.2,1.1,0.3,1.2
	c0,0,0.1,0.1,0.1,0.3c0.1,0.3,0.4,0.6,0.7,0.8l0.3,0.2l0.4,0l0.4,0l0.2-0.1c0.3-0.2,0.6-0.5,0.7-0.7c0.1-0.2,0.2-0.2,0.3-0.1
	c0.1,0.1,0.1,0.2,0.1,0.4c-0.1,0.2-0.4,0.7-0.7,0.9c-0.3,0.3-0.4,0.4-0.9,0.6l-0.3,0.1h-0.7C101.2,52.7,101.1,52.7,101,52.7
	 M102.7,48.4c0-0.1,0-0.8,0-1.1c-0.1-0.4-0.4-0.8-0.8-0.8c-0.2,0-0.5,0.3-0.7,0.6c-0.2,0.4-0.4,1.3-0.3,1.4
	C101,48.5,102.7,48.4,102.7,48.4 M138.4,52.5c-0.2-0.1-0.4-0.3-0.5-0.4c-0.2-0.2-0.5-0.6-0.7-0.9c-0.2-0.3-0.3-0.9-0.4-1.4
	c-0.1-0.6,0-1.4,0.1-1.7c0-0.1,0.1-0.3,0.1-0.3c0-0.1,0.1-0.3,0.2-0.5c0.2-0.3,0.2-0.4,0.6-0.8c0.4-0.4,0.4-0.4,0.6-0.5
	c0.1,0,0.3-0.1,0.3-0.2c0.2-0.1,0.6-0.1,1-0.1c0.4,0,0.4,0,0.6,0.2c0.1,0.1,0.3,0.2,0.3,0.2c0.1,0.1,0.2,0.1,0.2,0
	c0-0.1,0.1-1.8,0-2.3l0-0.4l-0.2-0.2c-0.1-0.1-0.2-0.2-0.4-0.2c-0.3,0-0.4-0.1-0.3-0.3c0.1-0.1,0.1-0.1,1.4-0.1c0.7,0,1.4,0,1.4,0
	c0,0,0.1,0,0.1,0.1c0,0,0,1.9,0,4.1c0,2.2,0,4.1,0,4.3c0,0.2,0,0.2,0.2,0.3c0.1,0.1,0.2,0.1,0.3,0.1c0.3,0.1,0.4,0.2,0.2,0.3
	c-0.1,0.1-0.6,0.2-1,0.3c-0.5,0.1-0.8,0.1-1.1,0.2c-0.3,0.1-0.5,0.1-0.7,0c-0.1-0.1-0.1-0.1-0.1-0.2c0-0.1,0-0.4-0.1-0.4
	c0,0-0.1,0.1-0.2,0.2c-0.1,0.1-0.3,0.2-0.5,0.3l-0.3,0.2l-0.6,0l-0.6,0L138.4,52.5L138.4,52.5z M140.4,51.7c0.2-0.2,0.4-0.4,0.6-0.6
	L141,51l0-1.6c0-1.2,0-1.7,0-1.8c0-0.1-0.1-0.3-0.2-0.4c-0.1-0.2-0.2-0.3-0.4-0.5c-0.4-0.3-0.6-0.3-0.9,0c-0.2,0.2-0.2,0.2-0.3,0.6
	l-0.1,0.4l0,1.2c0,1.4,0,1.5,0.2,2.1c0.1,0.4,0.3,0.7,0.5,0.8c0.1,0.1,0.2,0.1,0.3,0.1C140.2,51.9,140.2,51.8,140.4,51.7L140.4,51.7
	z M179.6,52.7c-0.4-0.2-0.5-0.3-0.7-0.5c-0.1-0.1-0.2-0.3-0.3-0.4c-0.1-0.3-0.1-0.7-0.1-2.9c0-1.5,0-1.8-0.1-1.8
	c0,0-0.4-0.1-0.6-0.1c0,0-0.1,0-0.1-0.1c-0.1-0.1,0-0.3,0.5-0.7c0.2-0.2,0.3-0.2,0.8-0.7c0.2-0.2,0.3-0.3,0.3-0.3
	c0,0,0.1-0.1,0.2-0.3c0.3-0.4,0.5-0.7,0.6-0.9c0.1-0.2,0.1-0.2,0.2-0.2c0.3-0.1,0.3-0.1,0.3,1.1c0,0.6,0,1.1,0,1.1
	c0,0,0.3,0,0.6,0.1c0.6,0,0.8,0.1,0.8,0.2c0,0,0,0.2,0,0.3c0,0.2,0,0.2-0.1,0.3c-0.1,0.1-0.1,0.1-0.8,0.1c-0.4,0-0.6,0-0.6,0.1
	c0,0,0,0.5,0,2c0,2.2,0,2.3,0.2,2.4c0.2,0.1,0.5,0,0.8-0.2c0.2-0.2,0.4-0.2,0.4,0.2c0,0.2,0,0.2-0.2,0.5c-0.2,0.3-0.4,0.5-0.7,0.6
	l-0.3,0.1h-0.5C179.8,52.7,179.7,52.7,179.6,52.7L179.6,52.7z M213.9,52.6c-0.5-0.2-0.6-0.3-0.9-0.6c-0.3-0.3-0.6-0.8-0.7-1
	c0-0.1-0.1-0.3-0.1-0.4c-0.1-0.3-0.2-1-0.1-1.7c0-0.4,0.1-0.5,0.2-0.9c0.1-0.4,0.3-0.8,0.5-1c0.2-0.2,0.5-0.6,0.8-0.8
	c0.2-0.1,0.4-0.2,0.6-0.3c0.3-0.1,0.4-0.1,0.7-0.1c0.5,0,0.9,0,1.2,0.2c0.6,0.3,1.2,0.9,1.4,1.6c0.1,0.3,0.3,1.1,0.2,1.3
	c0,0.1,0,0.1-0.1,0.2c-0.1,0-0.5,0-1.6,0.1c-0.8,0-1.6,0-1.7,0l-0.2,0l0,0.2c0,0.1,0,0.4,0.1,0.6c0.2,0.7,0.6,1.3,1.1,1.6
	c0.2,0.1,0.3,0.1,0.6,0.1l0.3,0l0.2-0.1c0.3-0.2,0.5-0.4,0.6-0.6c0.1-0.2,0.2-0.2,0.3-0.2c0.1,0,0.2,0.2,0.2,0.3
	c0,0.2-0.3,0.7-0.6,1c-0.3,0.3-0.5,0.4-0.9,0.6l-0.4,0.1h-0.7l-0.7,0L213.9,52.6L213.9,52.6z M215.7,48.4c0.1,0,0.1-0.1,0-0.6
	c0-0.6,0-0.6-0.2-0.9c0-0.1-0.1-0.2-0.2-0.3c-0.2-0.2-0.2-0.2-0.4-0.1c-0.2,0-0.2,0-0.4,0.2c-0.2,0.3-0.3,0.4-0.4,0.9
	c-0.1,0.4-0.1,0.7,0,0.8c0,0,0.2,0.1,0.8,0.1C215.5,48.4,215.7,48.4,215.7,48.4 M234.6,52.7c-0.1,0-0.2-0.1-0.3-0.1
	c-0.4-0.2-1.1-0.7-1.3-1.2c-0.2-0.3-0.4-0.9-0.5-1.3c-0.1-0.4,0-1.6,0-1.8c0-0.1,0.1-0.3,0.1-0.4c0.2-0.5,0.4-0.8,0.8-1.3
	c0.3-0.3,0.4-0.4,0.5-0.5c0.1,0,0.2-0.1,0.3-0.1c0.1,0,0.2-0.1,0.2-0.1c0.2,0,1.2-0.1,1.5-0.1c0.3,0,0.9,0.2,1,0.3
	c0.1,0,0.2,0.1,0.3,0.2c0.2,0.1,0.6,0.5,0.7,0.8c0.1,0.1,0.1,0.2,0.2,0.3c0,0.1,0.1,0.2,0.1,0.3c0,0.1,0.1,0.2,0.1,0.4
	c0.1,0.1,0.1,0.3,0.1,0.5c0,0.4,0,1.5,0,1.8c-0.1,0.3-0.3,0.8-0.3,0.8c0,0-0.1,0.1-0.2,0.3c-0.2,0.4-0.8,0.9-1.2,1.1
	c-0.1,0-0.2,0.1-0.2,0.1c-0.1,0.1-0.5,0.1-1.2,0.1C234.8,52.7,234.7,52.7,234.6,52.7 M235.7,52.1c0.1,0,0.2-0.1,0.3-0.2
	c0.1-0.1,0.2-0.2,0.3-0.4c0.1-0.3,0.1-0.3,0.2-1c0-0.4,0-1.3,0-2l0-1.2l-0.1-0.3c-0.1-0.1-0.2-0.3-0.3-0.5l-0.2-0.2l-0.2,0
	c-0.3,0-0.4,0.1-0.5,0.2c-0.2,0.2-0.3,0.5-0.4,0.8c0,0.3-0.1,3,0,3.5c0,0.3,0,0.4,0.2,0.6C235,52,235.3,52.2,235.7,52.1 M255.3,52.6
	c-0.4-0.2-0.7-0.5-0.9-0.9c-0.1-0.3-0.1-0.8-0.1-2.9c0-1.7,0-1.8-0.1-1.9c0,0-0.2,0-0.3,0c-0.2,0-0.3,0-0.4-0.1
	c-0.1-0.1,0-0.3,0.2-0.5c0.4-0.3,0.6-0.4,0.9-0.8c0.5-0.5,1-1.2,1.3-1.7c0.1-0.2,0.1-0.2,0.3-0.2c0.2,0,0.2,0,0.2,1.2
	c0,0.6,0,1.1,0,1.1c0,0,0.3,0,0.6,0c0.5,0,0.6,0,0.7,0.1l0.1,0.1v0.3v0.3l-0.1,0.1c-0.1,0.1-0.2,0.1-0.7,0.1c-0.4,0-0.6,0-0.6,0
	c-0.1,0-0.1,0.1-0.1,1.7c0,1.7,0,2.5,0.1,2.7c0.1,0.1,0.2,0.2,0.4,0.2c0.1,0,0.3-0.1,0.5-0.3c0.2-0.1,0.2-0.2,0.3-0.1
	c0.1,0.1,0.1,0.4,0,0.5c-0.2,0.4-0.5,0.7-0.9,0.9l-0.2,0.1h-0.5l-0.5,0L255.3,52.6L255.3,52.6z M93.4,52.5c-0.3,0-0.4,0-0.5-0.1
	c-0.1-0.1-0.1-0.1,0.2-0.3c0.1-0.1,0.3-0.2,0.3-0.2l0.1-0.1l0-2.4c0-2.2,0-2.4-0.1-2.5c-0.1-0.2-0.2-0.3-0.4-0.4
	c-0.1,0-0.2-0.1-0.2-0.1c-0.1-0.1,0-0.2,0.1-0.2c0.1,0,1.7-0.1,2.2,0c0.3,0,0.4,0,0.4,0.1c0,0,0,0.3,0.1,0.5c0,0.2,0,0.4,0.1,0.5
	c0,0,0.1,0,0.1-0.1c0.1-0.1,0.6-0.7,0.7-0.8c0.1-0.1,0.4-0.3,0.6-0.4c0.1,0,0.2-0.1,0.5-0.1l0.4,0l0.2,0.2c0.2,0.2,0.2,0.2,0.2,0.4
	c0,0.2,0,0.4,0,0.7c0,0.1-0.1,0.2-0.2,0.3c-0.2,0.2-0.3,0.3-0.7,0.2c-0.2,0-0.2,0-0.4-0.1c-0.5-0.4-0.6-0.4-0.8-0.2
	c-0.2,0.2-0.4,0.5-0.5,0.7c0,0.1-0.1,0.4-0.1,0.5l-0.1,0.3l0,1.4l0,1.4l0.1,0.1c0.1,0.2,0.4,0.4,0.5,0.4c0.1,0,0.3,0.1,0.3,0.2
	c0,0-0.1,0.1-0.1,0.1c-0.1,0-0.3,0.1-1.4,0.1C94.4,52.5,93.6,52.5,93.4,52.5 M105.6,52.5c-0.1,0-0.2,0-0.2-0.1
	c-0.1-0.1,0-0.1,0.2-0.3c0.1-0.1,0.2-0.2,0.3-0.2l0.1-0.1l0-2.4c0-1.9,0-2.4-0.1-2.5c-0.1-0.2-0.2-0.3-0.4-0.4
	c-0.2-0.1-0.2-0.2-0.1-0.3c0.1,0,1.7-0.1,2.2,0c0.4,0,0.5,0.1,0.5,0.4c0,0.1,0,0.3,0,0.3c0,0,0.2-0.1,0.3-0.3
	c0.2-0.2,0.4-0.4,0.6-0.4c0.2-0.1,0.3-0.2,0.6-0.2c0.4-0.1,0.9,0,1.1,0.1c0.2,0.1,0.6,0.5,0.7,0.6c0,0.1,0.1,0.2,0.2,0.3l0.1,0.1
	l0.3-0.3c0.4-0.4,0.5-0.5,0.9-0.7c0.3-0.2,0.4-0.2,0.6-0.2c0.4,0,0.8,0,1.1,0.1c0.3,0.1,0.6,0.5,0.8,0.8c0.2,0.5,0.2,0.5,0.3,3.1
	l0,1.9l0.1,0.1c0.1,0.1,0.2,0.2,0.3,0.3c0.2,0.1,0.3,0.2,0.1,0.3c-0.1,0-0.3,0.1-1.6,0.1c-1.6,0-1.7,0-1.7-0.2c0-0.1,0-0.1,0.2-0.2
	c0.3-0.2,0.4-0.3,0.4-0.6c0-0.3,0-3.1,0-3.7c0-0.5-0.1-0.6-0.3-0.7c-0.1-0.1-0.2-0.1-0.3-0.1c-0.3,0-0.9,0.5-1,0.8
	c0,0.1-0.1,0.4-0.1,1.9c0,1.8,0,2.2,0.1,2.3c0,0,0.2,0.1,0.3,0.2c0.1,0.1,0.2,0.1,0.2,0.2c0,0,0,0.1-0.1,0.1
	c-0.1,0.1-0.1,0.1-1.6,0.1l-1.5,0l-0.1-0.1c-0.1-0.1-0.1-0.1,0-0.2c0,0,0.1-0.1,0.2-0.1c0.1,0,0.2-0.1,0.3-0.2l0.1-0.1l0-2.2
	c0-2.4,0-2.3-0.2-2.5c-0.1-0.2-0.3-0.2-0.5-0.1c-0.2,0-0.6,0.3-0.8,0.6l-0.2,0.2l0,2l0,2l0.1,0.1c0.1,0.1,0.2,0.2,0.3,0.3
	c0.1,0.1,0.2,0.2,0.2,0.2s0,0.1-0.1,0.1c-0.1,0.1-0.2,0.1-1.5,0.1C106.4,52.5,105.7,52.5,105.6,52.5 M126,52.5
	c-0.2,0-0.2-0.1-0.2-0.2c0-0.1,0.4-0.3,0.5-0.3c0.2-0.1,0.3-0.2,0.4-0.4c0.2-0.3,0.5-0.8,0.5-1c0-0.1,0.1-0.3,0.2-0.4
	c0.1-0.1,0.2-0.4,0.2-0.5c0.1-0.1,0.2-0.4,0.3-0.6c0.1-0.2,0.2-0.4,0.2-0.4c0,0,0.1-0.2,0.1-0.3c0.1-0.1,0.1-0.3,0.2-0.3
	c0-0.1,0.2-0.5,0.4-0.8c0.1-0.2,0.3-0.6,0.4-1c0.1-0.1,0.2-0.4,0.3-0.6c0.1-0.2,0.2-0.5,0.2-0.5c0-0.1,0.1-0.2,0.1-0.3
	s0.1-0.2,0.1-0.3c0-0.1,0.1-0.3,0.1-0.3c0-0.1,0.1-0.2,0.1-0.3c0.1-0.2,0.6-1.2,0.6-1.2c0.1,0,0.3,0,0.4,0.1c0,0,0.1,0.2,0.1,0.3
	c0,0.1,0.1,0.3,0.2,0.4c0.1,0.1,0.1,0.2,0.1,0.3c0,0.1,0.3,0.7,0.4,0.9c0,0.1,0.1,0.2,0.1,0.3c0,0.1,0.1,0.2,0.1,0.3
	c0,0,0.1,0.2,0.1,0.3c0,0.1,0.1,0.3,0.1,0.3c0,0,0.3,0.7,0.4,0.9c0,0.1,0.1,0.3,0.2,0.4c0.1,0.1,0.1,0.2,0.1,0.2c0,0,0,0.1,0.1,0.2
	c0,0.1,0.1,0.3,0.2,0.4c0.1,0.3,0.3,0.8,0.5,1.2c0.1,0.3,0.4,0.9,0.5,1.2c0,0.1,0.1,0.3,0.2,0.5c0.1,0.2,0.1,0.3,0.1,0.3
	s0,0.1,0.1,0.1c0,0.1,0.1,0.2,0.2,0.3c0.1,0.2,0.3,0.4,0.6,0.5c0.1,0.1,0.3,0.2,0.3,0.2c0,0,0,0.1-0.1,0.1c-0.1,0.1-0.3,0.1-2.2,0.1
	l-2.1,0l-0.1-0.1c-0.1,0-0.1-0.1-0.1-0.1c0-0.1,0.2-0.1,0.5-0.2l0.3,0l0.2-0.2l0.2-0.2l0-0.3c0-0.2,0-0.3-0.1-0.5
	c-0.1-0.1-0.1-0.3-0.2-0.4c0-0.1-0.1-0.2-0.1-0.3c-0.1-0.1-0.1-0.2-0.1-0.3c0-0.1-0.1-0.2-0.2-0.3l-0.1-0.1H130c-0.8,0-1.5,0-1.5,0
	c-0.1,0-0.1,0.1-0.2,0.2c-0.1,0.1-0.1,0.3-0.2,0.4c0,0.1-0.1,0.2-0.1,0.3c-0.1,0.2-0.2,0.6-0.2,0.9c0,0.4,0,0.4,0.4,0.5
	c0.1,0.1,0.4,0.1,0.5,0.2c0.3,0.1,0.4,0.2,0.2,0.3c-0.1,0.1-0.2,0.1-1.4,0.1C126.7,52.5,126,52.5,126,52.5L126,52.5z M131.2,48.9
	c0,0,0-0.1,0-0.2c0-0.1-0.1-0.2-0.1-0.2c0-0.1-0.1-0.2-0.4-0.8c0-0.1-0.1-0.3-0.2-0.5c-0.1-0.1-0.1-0.3-0.1-0.3c0,0-0.1-0.2-0.1-0.3
	c0-0.1-0.1-0.2-0.1-0.3c0-0.1-0.1-0.1-0.1-0.2c-0.1-0.1-0.3,0.2-0.4,0.4c0,0.1-0.1,0.2-0.1,0.3c0,0.1-0.1,0.2-0.1,0.3
	c0,0.1-0.1,0.2-0.1,0.3c-0.1,0.1-0.1,0.3-0.2,0.4c0,0.1-0.1,0.2-0.1,0.3c-0.1,0.1-0.3,0.7-0.3,0.8c0,0,0,0,0.1,0.1c0,0,0.6,0,1.2,0
	C131,49,131.2,49,131.2,48.9L131.2,48.9z M145,52.5c-0.2,0-0.2,0-0.3-0.1c-0.1-0.1,0-0.2,0.2-0.3c0.1-0.1,0.2-0.2,0.3-0.2
	c0.1-0.1,0.1-0.1,0.1-0.6c0-0.3,0-1.4,0-2.4c0-1.7,0-1.9-0.1-2.1c-0.1-0.2-0.2-0.3-0.3-0.4c-0.1,0-0.2-0.1-0.2-0.1l-0.1-0.1l0.1-0.1
	c0.1-0.1,0.1-0.1,1-0.1c1.1,0,1.5,0,1.6,0.1c0.1,0,0.1,0.1,0.1,0.3c0,0.1,0,0.3,0,0.3c0,0,0.2-0.1,0.4-0.3c0.2-0.2,0.5-0.4,0.7-0.5
	l0.3-0.1l0.6,0c0.5,0,0.6,0,0.7,0.1c0.2,0.1,0.5,0.4,0.7,0.6c0.1,0.1,0.2,0.3,0.3,0.3l0.1,0.1l0.3-0.3c0.4-0.4,0.6-0.5,0.9-0.7
	c0.4-0.2,0.7-0.2,1.2-0.1c0.7,0.1,1.1,0.5,1.3,1.2l0.1,0.3l0,1.2c0,0.7,0,1.7,0,2.2l0,1l0.2,0.1c0.1,0.1,0.2,0.2,0.4,0.2
	c0.2,0.1,0.3,0.2,0.1,0.3c-0.1,0.1-0.2,0.1-1.7,0.1h-1.6l-0.1-0.1c0,0-0.1-0.1,0-0.1c0,0,0.1-0.1,0.2-0.2c0.3-0.2,0.3-0.3,0.4-0.7
	c0-0.4,0-3.4,0-3.8c-0.1-0.6-0.2-0.7-0.6-0.7c-0.2,0-0.6,0.2-0.8,0.5c-0.3,0.3-0.3,0.2-0.3,2.4c0,2.1,0,2,0.2,2.2
	c0,0,0.2,0.1,0.2,0.2c0.1,0.1,0.2,0.1,0.2,0.2c0,0.2,0,0.2-1.7,0.2c-1.5,0-1.5,0-1.6-0.1c-0.1,0-0.1-0.1-0.1-0.1
	c0,0,0.1-0.1,0.2-0.1c0.3-0.2,0.4-0.3,0.4-0.4c0-0.2,0-3.7,0-4.1c0-0.3,0-0.3-0.2-0.5c-0.2-0.2-0.3-0.3-0.5-0.2
	c-0.2,0-0.6,0.3-0.8,0.6l-0.1,0.2l0,2l0,2l0.1,0.1c0.1,0.1,0.2,0.2,0.3,0.2c0.2,0.1,0.3,0.2,0.2,0.3c-0.1,0.1-0.2,0.1-1.4,0.1
	C145.9,52.5,145.2,52.5,145,52.5L145,52.5z M156.6,52.5c-0.2,0-0.2,0-0.3-0.1c-0.1-0.1,0-0.1,0.2-0.3c0.1,0,0.3-0.1,0.3-0.2
	c0.1-0.1,0.1-0.1,0.2-0.4c0-0.2,0-1.1,0-2.4l0-2.2l-0.1-0.2c-0.1-0.2-0.2-0.2-0.4-0.3c-0.2-0.1-0.2-0.1-0.2-0.2
	c0-0.2,0.1-0.2,1.4-0.2c1.1,0,1.2,0,1.3,0.1c0,0,0.1,0.1,0.1,0.1c0,0,0,1.1,0,2.5c0,1.3,0,2.5,0,2.7c0,0.4,0.1,0.5,0.5,0.7
	c0.1,0.1,0.3,0.1,0.3,0.2c0,0,0,0.1-0.1,0.1c-0.1,0.1-0.3,0.1-1.6,0.1C157.5,52.5,156.8,52.5,156.6,52.5 M160.9,52.5
	c-0.3,0-0.4-0.1-0.4-0.1c0,0,0.2-0.2,0.2-0.2c0.1,0,0.3-0.2,0.4-0.3l0.1-0.1l0-2.1c0-1.3,0-2.2,0-2.5c0-0.4,0-0.4-0.1-0.5
	c-0.1-0.1-0.2-0.2-0.3-0.2c-0.2-0.1-0.3-0.2-0.2-0.2c0.1,0,0.1-0.1,0.3-0.1c0.4,0,1.8,0,2.1,0c0.3,0,0.3,0.1,0.3,0.3
	c0,0.1,0,0.2,0,0.2c0,0.1,0,0.1,0.2-0.1c0.2-0.2,0.5-0.4,0.7-0.5c0.1,0,0.2-0.1,0.3-0.1c0.1-0.1,0.7-0.1,1-0.1c0.2,0,0.3,0,0.4,0.1
	c0.1,0.1,0.2,0.1,0.3,0.2c0.2,0.1,0.4,0.4,0.5,0.7c0.2,0.5,0.2,0.4,0.2,2.8l0,2.2l0.1,0.1c0.1,0.1,0.2,0.2,0.3,0.3
	c0.1,0.1,0.2,0.2,0.2,0.2c0,0,0,0.1-0.1,0.1c-0.1,0.1-0.2,0.1-1.6,0.1c-1.7,0-1.6,0-1.6-0.2c0-0.1,0-0.1,0.2-0.2
	c0.1-0.1,0.2-0.2,0.3-0.2l0.1-0.1l0-2.3l0-2.3l-0.2-0.2c-0.2-0.2-0.2-0.2-0.3-0.2c-0.1,0-0.2,0-0.2,0.1c0,0-0.2,0.1-0.3,0.2
	c-0.1,0.1-0.2,0.2-0.3,0.3l-0.1,0.2v2.1c0,1.9,0,2.1,0.1,2.1c0,0,0.2,0.1,0.3,0.2c0.1,0.1,0.3,0.2,0.3,0.2c0,0-0.1,0.1-0.1,0.1
	c-0.1,0.1-0.3,0.1-1.4,0.1C161.7,52.5,161,52.5,160.9,52.5L160.9,52.5z M168.6,52.5c-0.2,0-0.3,0-0.3-0.1c0-0.1,0.1-0.2,0.3-0.2
	c0.1,0,0.2-0.1,0.3-0.2l0.2-0.1l0-0.3c0-0.2,0-1.3,0-2.4c0-2.3,0-2.2-0.2-2.4c-0.1-0.1-0.2-0.2-0.3-0.2c-0.2-0.1-0.3-0.2-0.2-0.3
	c0.1-0.1,0.1-0.1,1.3-0.1c1.2,0,1.2,0,1.4,0.1l0.1,0.1l0,2.7c0,2.4,0,2.7,0.1,2.8c0.1,0.2,0.1,0.3,0.4,0.5c0.1,0.1,0.3,0.1,0.3,0.2
	c0,0,0,0.1-0.1,0.1c-0.1,0.1-0.3,0.1-1.5,0.1C169.4,52.5,168.7,52.5,168.6,52.5L168.6,52.5z M182.8,52.4c-0.1-0.1-0.1-0.1,0-0.1
	c0,0,0.1-0.1,0.3-0.1c0.1-0.1,0.2-0.1,0.3-0.2l0.1-0.1v-2.3c0-1.5,0-2.3,0-2.5c-0.1-0.3-0.1-0.4-0.4-0.6c-0.1-0.1-0.2-0.2-0.2-0.2
	c0,0,0-0.1,0.1-0.1c0.1-0.1,0.2-0.1,1.3-0.1c1.1,0,1.2,0,1.3,0.1c0,0,0.1,0.2,0.1,0.5c0,0.2,0,0.5,0.1,0.5c0,0,0.1,0,0.1-0.1
	c0.1-0.2,0.9-0.9,0.9-0.9c0,0,0.1,0,0.2-0.1c0.2-0.1,0.5-0.2,0.9-0.1l0.3,0l0.2,0.2l0.2,0.2l0,0.4c0,0.2,0,0.5,0,0.5
	c0,0-0.1,0.2-0.2,0.3c-0.2,0.2-0.2,0.2-0.4,0.2c-0.1,0-0.3,0-0.4,0c-0.2,0-0.2,0-0.7-0.4c-0.1,0-0.2-0.1-0.2-0.1
	c-0.1,0-0.1,0-0.3,0.1c-0.1,0.1-0.4,0.4-0.4,0.5c0,0-0.1,0.3-0.2,0.5l-0.1,0.5v1.4c0,1.3,0,1.4,0.1,1.5c0.1,0.1,0.4,0.4,0.5,0.5
	c0.1,0,0.3,0.1,0.3,0.2c0,0,0,0.1-0.1,0.1c-0.1,0.1-0.3,0.1-1.8,0.1L182.8,52.4L182.8,52.4L182.8,52.4z M201,52.5
	c-0.2,0-0.3,0-0.3-0.1c-0.1-0.1,0-0.1,0.2-0.3c0.1-0.1,0.3-0.2,0.3-0.2c0.1-0.1,0.1-0.2,0.2-0.3c0-0.3,0-4.3,0-4.6
	c0-0.3-0.2-0.5-0.5-0.6c-0.2-0.1-0.3-0.2-0.1-0.3l0.1-0.1l1.2,0c1.3,0,1.4,0,1.4,0.2c0,0,0,1.2,0,2.5c0,1.3,0,2.5,0,2.7
	c0,0.4,0.1,0.5,0.5,0.7c0.1,0.1,0.3,0.1,0.3,0.2c0,0,0,0.1-0.1,0.1c-0.1,0.1-0.2,0.1-1.5,0.1C201.9,52.5,201.2,52.5,201,52.5
	L201,52.5z M247.8,52.5c-0.2,0-0.3,0-0.3-0.1c-0.1-0.1,0-0.1,0.2-0.2c0.2-0.1,0.3-0.2,0.4-0.3c0-0.1,0.1-0.4,0.1-2.2
	c0-1.3,0-2.2,0-2.4c0-0.4-0.1-0.5-0.4-0.7c-0.3-0.1-0.3-0.2-0.2-0.3c0.1-0.1,0.4-0.1,1.6-0.1l1,0l0.1,0.1c0.1,0.1,0.1,0.1,0.1,0.4
	c0,0.2,0,0.4,0,0.4l0,0.1l0.1-0.1c0.3-0.3,0.7-0.7,1-0.9c0.2-0.1,0.3-0.2,0.5-0.2c0.1,0,0.3,0,0.5,0l0.2,0l0.2,0.2l0.2,0.2l0,0.3
	c0,0.5,0,0.7-0.3,1c-0.2,0.2-0.3,0.2-0.6,0.2c-0.2,0-0.2,0-0.5-0.2c-0.1-0.1-0.3-0.2-0.3-0.2c0,0-0.1,0-0.2,0c-0.2,0-0.2,0-0.3,0.2
	c-0.2,0.2-0.3,0.4-0.4,0.6c0,0.1-0.1,0.3-0.1,0.5l-0.1,0.2l0,1.4l0,1.4l0.1,0.1c0.1,0.2,0.2,0.3,0.5,0.4c0.1,0.1,0.2,0.1,0.2,0.2
	c0,0.1-0.1,0.2-1.5,0.2C248.7,52.5,247.9,52.5,247.8,52.5 M157.9,44.8c-0.1,0-0.2-0.1-0.5-0.3c-0.2-0.2-0.3-0.4-0.3-0.8
	c0-0.5,0.2-0.8,0.6-1c0.1-0.1,0.2-0.1,0.5-0.1c0.3,0,0.4,0,0.5,0.1c0.3,0.2,0.6,0.5,0.6,0.9c0.1,0.4-0.2,0.9-0.6,1.1
	c-0.1,0.1-0.2,0.1-0.4,0.1C158.1,44.8,157.9,44.8,157.9,44.8 M202.2,44.8c-0.1,0-0.2-0.1-0.5-0.3c-0.2-0.2-0.3-0.4-0.3-0.8
	c0-0.5,0.2-0.8,0.6-1c0.1-0.1,0.2-0.1,0.5-0.1c0.3,0,0.4,0,0.5,0.1c0.3,0.2,0.6,0.5,0.6,0.9c0.1,0.4-0.2,0.9-0.6,1.1
	c-0.1,0.1-0.2,0.1-0.4,0.1C202.5,44.8,202.3,44.8,202.2,44.8 M169.6,44.7c-0.1,0-0.2-0.1-0.3-0.2c-0.2-0.1-0.2-0.2-0.3-0.4
	c-0.1-0.3-0.1-0.6,0-0.8c0.1-0.2,0.3-0.5,0.5-0.6c0.1-0.1,0.2-0.1,0.5-0.1c0.4,0,0.4,0,0.7,0.2c0.2,0.1,0.3,0.2,0.4,0.4
	c0.1,0.1,0.1,0.2,0.1,0.4c0,0.4-0.2,0.7-0.5,0.9l-0.2,0.1l-0.4,0C169.8,44.8,169.7,44.8,169.6,44.7"/>
<path d="M253.5,33.8c-0.1,0-0.2-0.1-0.3-0.1c-0.1,0-0.3-0.1-0.4-0.2c-0.1,0-0.3-0.1-0.4-0.2c-0.1-0.1-0.3-0.1-0.4-0.2
	c-0.1,0-0.3-0.1-0.4-0.1c-0.1,0-0.2-0.1-0.3-0.1c-0.4-0.1-1.7-0.7-2.1-1c-0.7-0.4-1.1-0.8-1.4-1.1c-0.2-0.3-0.3-0.4-0.4-0.8
	c-0.1-0.4-0.1-0.5-0.1-1.3c0-0.8,0-1,0.1-1.4c0-0.3,0.1-0.8,0.2-1.2c0-0.4,0.1-0.9,0.1-1.2c0-0.3,0.1-0.7,0.1-0.9v-0.4l-0.2,0
	c-0.3-0.1-0.7-0.1-0.9,0c-0.2,0.1-0.4,1-0.4,1.7c0,0.3-0.1,0.7-0.1,0.8c0,0.1-0.1,0.4-0.2,0.6c-0.1,0.2-0.1,0.5-0.2,0.6
	c0,0.1-0.1,0.2-0.1,0.3c-0.1,0.2-0.3,0.6-0.6,1c-0.1,0.2-0.2,0.4-0.3,0.5c-0.2,0.3-0.9,1.1-1.4,1.5c-0.6,0.5-1.1,0.9-1.8,1.2
	c-0.3,0.1-0.6,0.3-0.8,0.4c-0.3,0.1-0.8,0.3-1.2,0.3c-0.2,0-0.3,0-0.7-0.1c-0.5-0.1-0.8-0.3-1-0.6c-0.1-0.2-0.1-0.2-0.1-0.5
	c0-0.3,0-0.4,0.1-0.5c0.3-0.6,1.3-1.3,2.3-1.5c0.4-0.1,1.3-0.5,1.8-0.9c0.4-0.3,1.1-1,1.4-1.5c0.3-0.4,0.6-1,0.6-1.3
	c0.1-0.3,0.2-1.2,0.2-1.4c0-0.1-0.1-0.1-0.4,0c-1,0.3-2,0.4-2.4,0.2c-0.3-0.1-0.3-0.2-0.5-0.6l-0.1-0.3L241,23
	c0-0.2,0.1-0.4,0.2-0.5c0.1-0.2,0.6-0.7,1-0.9l0.3-0.2l5.7,0c4.4,0,5.8,0,5.8,0.1c0.2,0.1,0.3,0.5,0.2,0.7c-0.1,0.2-0.9,1-1.3,1.2
	c-0.4,0.2-1,0.3-1.6,0.2c-0.6-0.1-1.2-0.2-1.3-0.1c-0.1,0-0.1,0.1-0.1,0.2c0,0.3-0.1,0.9-0.2,1.4c-0.1,0.2-0.1,0.7-0.2,1.1
	c-0.1,0.4-0.1,0.9-0.2,1.2l-0.1,0.5l0.1,0.3c0.1,0.3,0.3,0.7,0.5,0.9c0.1,0.1,0.6,0.4,1,0.6c0.1,0.1,0.3,0.1,0.4,0.2
	c0.2,0.1,1.2,0.3,1.6,0.3c0.6,0,1.5-0.1,1.9-0.3c0.2-0.1,0.4-0.1,0.5-0.2c0.1,0,0.5-0.2,1-0.4c1.1-0.5,1.1-0.5,1.3-0.5
	c0.2,0.1,0.3,0.3,0.3,0.6c0,0.2,0,0.4-0.1,0.8c-0.1,0.3-0.2,0.7-0.2,0.8c-0.1,0.1-0.1,0.3-0.2,0.4c-0.1,0.2-0.2,0.4-0.5,0.9
	c-0.3,0.5-0.8,0.9-1.2,1.1c-0.1,0-0.3,0.1-0.4,0.2c-0.2,0.1-0.2,0.1-0.8,0.1C254,33.8,253.6,33.8,253.5,33.8 M80.9,32.9
	c-0.4-0.2-0.8-0.6-0.9-0.8c0-0.1-0.1-0.4-0.1-0.7c-0.1-0.6-0.1-0.7-0.3-0.8c-0.1,0-0.4,0-0.8,0.1c-0.4,0.1-0.8,0.1-1.1,0.2
	c-0.2,0-0.6,0.1-0.8,0.1c-0.2,0-0.6,0.1-0.8,0.2c-0.3,0.1-0.5,0.1-0.6,0.2c-0.1,0-0.3,0.1-0.6,0.1c-0.2,0-0.5,0.1-0.6,0.2
	c-0.1,0-0.3,0.1-0.4,0.2c-0.2,0.1-0.4,0.1-0.5,0.2c-0.3,0.1-0.7,0.1-0.9,0c-0.1,0-0.2-0.1-0.2-0.2c-0.1-0.1-0.1-0.2-0.1-0.5
	c0-0.3,0-0.4,0.2-0.7c0.3-0.5,0.5-0.8,0.8-1.1c0.2-0.2,0.3-0.3,0.3-0.6c0.3-0.8,0.4-2.2,0.3-3.9c-0.1-2.1-0.2-2.7-0.5-2.7
	c-0.2,0-0.8,0.1-1.2,0.2c-0.3,0.1-0.5,0.1-1-0.1c-0.3-0.1-0.6-0.3-0.6-0.4c-0.2-0.4-0.2-1,0.1-1.3c0.1-0.1,0.2-0.2,0.2-0.3
	c0.1-0.1,0.4-0.4,1-0.6c0.3-0.1,1.3-0.4,1.9-0.5c0.6-0.1,9.4-0.2,10.5-0.1c0.4,0,2.1,0.1,3.7,0.1c4.5,0.1,6.8,0.1,7.1,0.2
	s0.6,0.2,0.7,0.3c0,0,0.1,0.1,0.1,0.3c0,0.3-0.4,0.9-1.3,1.9c-0.6,0.7-1.2,1-1.8,1c-0.3,0-0.9-0.1-1.1-0.3c-0.2-0.1-0.9-0.4-1.4-0.5
	c-0.2-0.1-0.5-0.1-0.6-0.2c-0.1-0.1-0.5-0.1-0.7-0.2c-0.2,0-0.5-0.1-0.7-0.2c-0.2,0-0.6-0.1-0.9-0.2c-0.3,0-0.7-0.1-1-0.1
	c-0.7-0.1-1.6-0.2-2.9-0.2c-1.4,0-1.4,0-1.3,0.3c0.1,0.3,0,0.8,0,1.1c-0.1,0.6-0.2,0.8-0.2,2c-0.1,1.3-0.1,2,0,3.1
	c0,0.4,0.1,1.2,0.1,1.7c0,0.5,0.1,1,0.1,1c0,0,0,0,0-0.2c0-0.2,0-0.2,0.2-0.4c0.3-0.3,0.4-0.3,0.9-0.4c0.3,0,0.5-0.1,0.7-0.1
	c0.1,0,0.4-0.1,0.7-0.2c0.7-0.2,1.6-0.6,1.6-0.8c0-0.1-0.7-0.5-2-1.1c-0.3-0.1-0.5-0.3-0.5-0.3c0-0.1-0.1-0.2-0.1-0.4l0-0.3l0.2-0.2
	c0.2-0.2,0.4-0.2,0.8-0.2c0.4,0,1,0.3,1.5,0.6c0.2,0.1,0.5,0.3,0.6,0.3c0.1,0,0.2,0.1,0.3,0.2c0.1,0.1,0.3,0.2,0.4,0.3
	c0.3,0.1,0.3,0.1,0.4,0.1c0.2-0.1,1-1,1.2-1.3c0.2-0.3,0.2-0.5,0.2-0.8c0-0.2-0.1-0.2-0.2-0.4c-0.3-0.2-0.4-0.2-1.1-0.1
	c-0.3,0-0.8,0.1-1.1,0.1c-0.3,0-0.6,0.1-0.8,0.1c-0.5,0.1-1.1,0.2-1.4,0.2c-0.6,0-0.7-0.1-0.7-0.7c0-0.4,0.1-0.5,0.6-1
	c0.7-0.7,0.9-0.8,1.8-0.7c0.3,0,0.7,0.1,0.9,0.1c0.5,0.1,0.8,0.1,2.2,0.2l1.2,0l0.4,0.2c0.5,0.2,0.6,0.4,0.7,0.7
	c0.1,0.4,0,1-0.2,1.5c0,0.1-0.1,0.3-0.1,0.4c0,0.1-0.2,0.4-0.3,0.6c-0.1,0.2-0.3,0.5-0.3,0.6c-0.1,0.1-0.3,0.4-0.4,0.6
	c-0.3,0.4-0.4,0.6-0.3,0.7c0,0,0.1,0.1,0.2,0.1c0.1,0,0.3,0.1,0.4,0.1c0.1,0.1,0.3,0.1,0.5,0.2c0.2,0,0.4,0.1,0.6,0.2
	c0.1,0.1,0.3,0.1,0.3,0.1c0,0,0.2,0.1,0.4,0.1c0.3,0.1,0.8,0.3,1.4,0.5c0.2,0.1,0.4,0.1,0.6,0.2c0.1,0.1,0.4,0.1,0.6,0.2
	c0.2,0,0.5,0.1,0.7,0.2c0.2,0.1,0.4,0.1,0.6,0.1c0.3,0.1,0.4,0.1,0.6,0.4L97,31l-0.1,0.2c-0.1,0.3-0.4,0.5-0.8,0.6
	c-0.1,0-0.3,0.1-0.4,0.2c-0.1,0.1-0.3,0.1-0.4,0.2c-0.1,0-0.3,0.1-0.3,0.1c-0.1,0.1-0.6,0.2-0.9,0.3c-0.1,0-0.3,0.1-0.4,0.1
	c-0.2,0.1-0.4,0.1-1.2,0.1l-0.9,0l-0.2-0.1c-0.5-0.2-0.9-0.6-1.4-1.3c-0.8-0.9-1.4-1.5-1.6-1.5c-0.1,0-0.2,0.1-0.3,0.2
	c-0.1,0.1-0.3,0.2-0.4,0.3c-0.1,0.1-0.3,0.2-0.5,0.3c-0.3,0.3-0.8,0.6-1.1,0.7c-0.1,0.1-0.3,0.1-0.4,0.2c-0.6,0.3-1.4,0.4-2,0.2
	c-0.4-0.1-0.8-0.4-1-0.7c-0.1-0.1-0.1-0.3-0.2-0.3c-0.1-0.1-0.1-0.1-0.1,0.1c-0.1,0.1-0.1,0.2-0.1,0.7c0,0.5,0,0.6-0.1,0.7
	c-0.2,0.3-0.3,0.4-0.6,0.5c-0.2,0.1-0.4,0.1-0.4,0.1C81.2,33,81,33,80.9,32.9z M79.9,28.6c0-0.1-0.1-0.8-0.2-0.9
	c-0.1-0.2-0.2-0.2-1.8-0.2c-1.8,0-1.9,0-1.9,0.3c0,0.2,0.1,0.7,0.1,0.8c0,0.1,0.1,0.1,0.3,0.1c0.2,0,0.4,0,0.6-0.1
	c0.5-0.1,1.2-0.1,1.6,0c0.4,0.1,0.5,0.1,0.9,0.1C79.9,28.7,79.9,28.7,79.9,28.6L79.9,28.6z M79.6,25.7c0.1,0,0.2-0.3,0.2-0.7
	c0-0.3,0-0.4-0.1-0.4c-0.1-0.1-0.5-0.1-1.6-0.1c-1.3,0-1.9,0.1-2,0.2c-0.1,0.1-0.1,0.9-0.1,1c0,0,0.1,0.1,0.1,0.1
	C76.3,25.7,79.5,25.7,79.6,25.7z M79.4,22.7c0.3,0,0.3-0.1,0.3-0.7c0-0.3,0-0.5-0.1-0.6c-0.1-0.1-0.3-0.1-0.7-0.1
	c-0.1,0-0.7,0.1-1.3,0.2c-1.2,0.2-1.4,0.2-1.5,0.3c-0.2,0.1-0.2,0.3-0.2,0.6c0,0.3,0.1,0.4,0.5,0.4C77.1,22.7,79.1,22.7,79.4,22.7
	 M153.1,32.8c-0.3-0.1-0.4-0.2-0.6-0.6c-0.3-0.5-0.3-0.6-0.3-6.1c0-4.7,0-5.8-0.1-6c0-0.1-0.1-0.1-0.2-0.2c-0.2-0.1-0.9-0.1-1.3-0.1
	c-0.6,0.1-2,0.3-2.1,0.4c-0.1,0-0.3,0.1-0.4,0.2c-0.2,0.1-0.4,0.1-0.5,0.2c-0.1,0.1-0.3,0.1-0.5,0.2c-0.1,0-0.4,0.1-0.5,0.2
	c-0.2,0.1-0.3,0.1-0.6,0.1c-0.4,0-0.6,0-0.9-0.3c-0.3-0.3-0.4-0.5-0.4-0.9c0-0.4,0.1-0.6,0.3-1c0.2-0.3,0.3-0.4,0.6-0.5
	c0.3-0.1,0.6-0.2,1.8-0.3c1.1-0.1,1.1-0.1,2-0.2l0.6-0.1l2.7,0c2.5,0,2.7,0,3.2,0.1c0.3,0.1,1,0.1,1.4,0.2c1,0.1,1,0.1,1.4,0.2
	c0.1,0,0.6,0.1,0.9,0.1c0.3,0,0.7,0.1,0.7,0.1c0.1,0,0.2,0.1,0.2,0.2l0.1,0.2l-0.1,0.3c-0.1,0.4-0.5,0.9-1.2,1.6
	c-0.6,0.6-0.8,0.7-1.3,0.7l-0.4,0l-0.6-0.3c-1-0.5-1.3-0.6-1.8-0.7c-0.6-0.2-0.7-0.2-0.7,0c-0.1,0.4-0.1,3.4,0.1,5
	c0.1,1.1,0.1,1.3,0.2,2.7c0.1,1.5,0.1,2.1,0,2.9c-0.1,0.6-0.1,0.7-0.2,0.9c-0.3,0.6-0.7,0.9-1.3,0.9
	C153.5,32.9,153.3,32.9,153.1,32.8L153.1,32.8z M200.8,32.8c-0.1,0-0.3-0.1-0.3-0.2c-0.2-0.2-0.4-0.6-0.6-1
	c-0.1-0.3-0.1-0.4-0.1-0.7c0-0.3,0-0.3,0.2-0.6c0.2-0.4,0.2-0.4,0.5-0.6c0.4-0.3,0.5-0.3,0.8-0.3c0.2,0,0.5-0.1,0.6-0.2
	c0.2-0.1,0.5-0.1,0.7-0.2c0.2,0,0.5-0.1,0.6-0.2c0.1,0,0.4-0.1,0.6-0.2c0.2,0,0.4-0.1,0.5-0.2c0.1,0,0.3-0.1,0.5-0.2
	c0.2,0,0.5-0.1,0.6-0.2c0.1-0.1,0.4-0.1,0.5-0.1c0.3,0,0.3,0,0.4,0.1c0.2,0.2,0.2,0.4,0.1,0.8c-0.1,0.2-0.1,0.3-0.3,0.5
	c-0.1,0.1-0.4,0.3-0.5,0.4c-0.3,0.2-0.7,0.5-1.3,1c-0.2,0.2-0.4,0.4-0.6,0.5c-0.1,0.1-0.4,0.4-0.7,0.6c-0.2,0.2-0.6,0.5-0.7,0.6
	C201.8,32.9,201.2,33,200.8,32.8 M209.6,32.9c-0.3-0.1-0.4-0.1-0.7-0.3c-0.1-0.1-0.3-0.3-0.3-0.4c-0.1-0.1-0.1-0.6,0-0.9
	c0.1-0.4,0.7-1.2,1.4-2.1c0.3-0.3,0.5-0.6,0.5-0.7c0-0.1,0.1-0.1,0.1-0.1c0,0,0.1-0.1,0.2-0.2c0.1-0.1,0.3-0.4,0.5-0.6
	c0.7-0.9,1.3-1.6,1.6-2.1c0.4-0.5,0.4-0.6,0.1-0.7c-0.1-0.1-1.9,0-2.2,0.1c-1.2,0.3-1.6,0.4-2,0.5c-0.2,0.1-0.5,0.2-0.7,0.3
	c-1.3,0.6-1.5,0.7-1.7,0.8c-0.3,0.1-0.7,0.1-1,0c-0.3-0.1-0.6-0.3-0.7-0.6c-0.1-0.2-0.1-0.2-0.1-0.6c0-0.4,0-0.4,0.2-0.8
	c0.2-0.4,0.3-0.5,0.5-0.7c0.3-0.3,0.3-0.3,0.6-0.4c0.2,0,0.4-0.1,0.4-0.1c0.1,0,0.3,0,0.5-0.1c0.2,0,0.7-0.1,1.2-0.1
	c1.3-0.1,1.7-0.1,2.1-0.2c0.5-0.1,1.2-0.2,2-0.2c0.8,0,0.8,0,0.9-0.3c0.1-0.3,0.1-2.2,0.1-2.5c0-0.1-0.1-0.2-0.1-0.3
	c-0.1-0.1-0.1-0.1-0.5-0.1c-0.2,0-0.5,0-0.5,0c-0.1,0-0.4,0.1-0.7,0.1c-0.3,0-0.8,0.1-1.1,0.2c-0.4,0.1-0.6,0.1-1.2,0.1h-0.7
	l-0.2-0.1c-0.1-0.1-0.3-0.2-0.3-0.2c-0.1-0.1-0.3-0.6-0.3-0.8c0-0.2,0.2-0.7,0.4-0.8c0.2-0.2,0.6-0.4,0.8-0.4c0.1,0,0.4-0.1,0.6-0.1
	c0.7-0.2,0.8-0.2,2.3-0.2c1.3,0,1.3,0,1.4-0.1c0.1-0.2,0-2.5-0.2-2.9c-0.1-0.2-0.1-0.4-0.1-0.6c0-0.3,0-0.4,0.1-0.7
	c0.2-0.4,0.5-0.8,0.8-0.9c0.6-0.2,1.6,0.3,2,1c0.2,0.4,0.2,0.8,0.1,1.7c0,0.4-0.1,1.2-0.1,1.6c0,0.4-0.1,0.8-0.1,0.8
	c0,0.1,0.1,0.1,0.5,0.1c0.2,0,1,0,1.7,0.1c1.7,0.1,2.7,0.2,3,0.4c0.1,0,0.2,0.2,0.2,0.3l0.1,0.2l0,0.4c0,0.4,0,0.4-0.1,0.6
	c-0.2,0.3-0.4,0.6-0.7,0.7c-0.2,0.1-0.3,0.1-0.5,0.1c-0.2,0-0.4,0-0.6-0.1c-0.5-0.1-0.8-0.2-1.3-0.2c-0.3,0-0.8-0.1-1.2-0.2
	c-0.6-0.1-0.7-0.1-0.8,0c-0.2,0.1-0.3,0.2-0.3,0.7c0,0.5,0.1,1.9,0.2,2.2l0.1,0.2l0.2,0c1.1,0,3.2,0.1,4.2,0.3
	c0.4,0.1,1,0.1,1.3,0.1c0.3,0,0.9,0.1,1.2,0.1c0.4,0.1,0.9,0.1,1.1,0.1c0.8,0.1,1.2,0.1,1.2,0.2c0.2,0.1,0.3,0.3,0.3,0.4
	c0,0.3,0,0.5-0.2,0.8c-1,1.4-1.3,1.7-2.1,1.9c-0.3,0.1-0.4,0.1-0.6,0.1c-0.3,0-0.8-0.2-1.4-0.5c-0.3-0.2-0.7-0.3-0.8-0.4
	c-0.1,0-0.3-0.1-0.3-0.2c-0.1,0-0.3-0.1-0.4-0.2c-0.2,0-0.4-0.1-0.5-0.1c-0.1,0-0.4-0.1-0.8-0.2c-0.3-0.1-0.7-0.2-0.8-0.2
	c-0.5-0.1-2.1-0.2-2.2-0.1c-0.1,0.1,0.5,0.7,1.5,1.3c0.8,0.5,1.3,0.9,1.8,1.4c0.2,0.2,0.5,0.5,0.6,0.5c0.3,0.2,1.5,1.5,1.7,1.8
	c0.1,0.1,0.3,0.4,0.4,0.5l0.2,0.3l0,0.4c0,0.4,0,0.4-0.2,0.6c-0.2,0.3-0.3,0.3-0.7,0.5c-0.5,0.2-1,0.2-3,0.3
	c-1.8,0.1-2.3,0.1-3.2,0.2C213.3,32.8,210,33,209.6,32.9z M216,30.7c0.7-0.1,2.1-0.2,2.2-0.3c0.2-0.1,0.2-0.2-0.3-0.6
	c-0.4-0.4-1.1-0.9-1.4-1c-0.1,0-0.2-0.1-0.2-0.1c-0.1-0.1-0.7-0.4-1.2-0.6c-0.6-0.2-0.8-0.3-1-0.2c-0.2,0.1-1.2,1-1.7,1.7
	c-0.3,0.5-0.4,0.6-0.4,0.7c0,0.1,0.2,0.3,0.3,0.3C212.9,30.7,215,30.8,216,30.7 M232.6,32.8c-0.3-0.2-0.7-0.8-0.9-1.3
	c0-0.1-0.1-0.4-0.2-0.5c-0.1-0.2-0.1-0.3-0.1-1.9c0-1.6,0-2.5,0.1-4.2c0-0.5,0.1-2.3,0.1-4.8c0-4.1,0-4.3-0.2-5.5
	c-0.1-0.5-0.1-0.6-0.2-0.7c-0.4-0.4-0.4-1.1,0.1-1.6c0.4-0.4,1-0.7,1.9-0.7c0.5,0,0.6,0,0.9,0.1c0.2,0,0.5,0.1,0.6,0.1
	c0.1,0,0.4,0.1,0.5,0.2c0.2,0.1,0.5,0.2,0.9,0.2c0.3,0.1,0.6,0.1,0.6,0.1c0,0,0.3,0,0.7,0.1c0.9,0.1,1.1,0.1,1.5,0.3
	c0.7,0.3,0.9,0.7,1,1.4c0,0.2,0,0.3-0.1,0.6c-0.2,0.5-0.3,0.6-0.9,1.2c-0.3,0.3-0.6,0.6-0.7,0.8c-0.2,0.3-0.2,0.3-0.2,0.6
	c0,0.2,0,0.3,0.1,0.5c0.1,0.1,0.2,0.3,0.3,0.4c0.1,0.1,0.2,0.3,0.3,0.4c0.1,0.1,0.1,0.3,0.2,0.3c0,0,0.1,0.2,0.2,0.4
	c0.1,0.2,0.2,0.4,0.2,0.5c0.1,0.3,0.2,1.1,0.2,1.9c0,0.6,0,0.6-0.2,1c-0.3,0.6-0.5,0.8-0.9,1.2c-0.9,0.7-1.3,0.9-2.1,1.1
	c-0.6,0.2-1,0.2-1.6,0.1c-0.3-0.1-0.3-0.1-0.4,0c-0.1,0.2-0.1,2,0,4.2c0,0.9,0,1.4-0.1,2.1c-0.1,0.3-0.3,0.9-0.5,1.1
	C233.4,32.9,232.9,33,232.6,32.8L232.6,32.8z M234.9,23.5c0.3-0.1,0.5-0.2,0.6-0.3c0.1-0.1,0.3-0.2,0.5-0.4c0.3-0.2,0.7-0.8,0.9-1.1
	c0.1-0.3,0.2-0.6,0.2-1.2c0-0.3,0-0.6-0.1-0.7c-0.1-0.2-0.4-0.6-0.6-0.7c-0.2-0.1-0.6,0-0.8,0.1c-0.1,0.1-0.3,0.1-0.3,0.1
	c-0.1,0-0.2-0.1-0.3-0.2c-0.2-0.2-0.2-0.2-0.2-0.4c0-0.1,0.1-0.3,0.2-0.5c0.1-0.3,0.2-0.4,0.3-0.5c0.1-0.1,0.2-0.2,0.3-0.3
	c0.1-0.1,0.2-0.2,0.3-0.2c0.1-0.1,0.2-0.2,0.4-0.4c0.1-0.2,0.3-0.3,0.3-0.4c0,0,0.1-0.1,0.1-0.2c0.4-0.9,0.5-1.5,0.2-1.7
	c-0.2-0.2-0.8-0.4-1.2-0.5c-0.5-0.1-1.1-0.1-1.3,0c-0.3,0.1-0.3-0.2-0.3,4.9c0,5,0,4.6,0.3,4.6C234.5,23.6,234.7,23.5,234.9,23.5
	L234.9,23.5z M177.4,32.8c-0.3-0.1-0.8-0.3-1-0.6c-0.1-0.1-0.2-0.3-0.3-0.4c-0.1-0.2-0.1-0.3-0.1-0.5c0-0.3,0.2-0.7,0.5-0.9
	c0.5-0.4,1.3-0.6,2.3-0.4c0.6,0.1,0.6,0.1,1.3,0c0.9-0.1,1.4-0.2,1.4-0.3c0,0,0.2-0.1,0.3-0.1c0.4-0.1,0.9-0.4,1.3-0.7
	c0.2-0.1,0.6-0.5,0.9-0.8l0.6-0.6l-0.1-0.1c0-0.1-0.3-0.3-0.5-0.5c-0.4-0.3-0.5-0.4-1.1-0.7c-0.6-0.3-1.1-0.5-1.8-0.8
	c-0.5-0.2-0.8-0.5-0.9-0.7c-0.1-0.3-0.1-0.4-0.2-0.4c0,0-0.2,0.1-0.3,0.2c-0.6,0.4-1.2,0.7-1.6,0.5c-0.3-0.1-0.3-0.2-0.4-0.6
	c0-0.4,0.1-0.8,0.3-1.2c0.1-0.2,0.2-0.4,0.2-0.4c0,0,0.3-0.4,0.5-0.9c0.1-0.1,0.2-0.3,0.2-0.4c0.1-0.3,0.4-0.9,0.4-0.9
	c0,0,0.1-0.1,0.1-0.3c0.1-0.1,0.2-0.4,0.2-0.5c0-0.1,0.1-0.4,0.2-0.5c0.1-0.1,0.2-0.5,0.2-0.7c0.1-0.2,0.1-0.5,0.2-0.6
	c0.1-0.2,0.2-0.9,0.3-1.9c0-0.5,0.1-1,0.1-1.1c0-0.2,0-0.3,0-0.4c0-0.1-0.1-0.4-0.1-0.6l0-0.5l0.2-0.2c0.1-0.1,0.2-0.3,0.3-0.3
	c0.1-0.1,0.5-0.1,0.9-0.1c0.3,0.1,0.7,0.3,1.1,0.7c0.4,0.3,0.5,0.6,0.7,0.9c0.1,0.3,0.1,0.3,0.1,0.5c-0.1,0.4-0.1,0.6-0.3,0.9
	c-0.1,0.1-0.2,0.4-0.2,0.5c0,0.1-0.1,0.3-0.1,0.4c-0.1,0.3-0.5,1.3-0.6,1.5c0,0.1,0,0.2,0.1,0.2c0.1,0.1,0.4,0.1,4.1,0.1l4,0
	l0.2,0.2c0.3,0.3,0.3,0.5,0.3,0.8c0,0.1-0.1,0.2-0.1,0.3c0,0.1-0.1,0.2-0.2,0.3c-0.2,0.4-0.4,0.7-0.9,0.9c-0.2,0.1-0.3,0.1-0.7,0.1
	c-0.4,0-0.5,0-0.7-0.1c-0.3-0.1-0.6-0.2-1.2-0.3c-0.3,0-0.6-0.1-0.8-0.1c-0.1,0-0.6-0.1-1.1-0.1c-0.9,0-1.6,0-2.4,0.1
	c-1.1,0.2-1.4,0.2-1.4,0.2c-0.1,0.1-0.4,0.6-0.5,0.9c-0.1,0.2-0.2,0.4-0.2,0.5c-0.1,0.1-0.1,0.3-0.2,0.4c0,0.1-0.1,0.2-0.1,0.3
	c-0.2,0.2-0.2,0.6-0.1,0.6c0,0,0.1,0,0.2-0.1c0.2-0.1,0.2-0.1,0.7-0.1c0.5,0,0.5,0,0.9,0.2c0.8,0.3,1.6,0.7,1.9,1
	c0,0,0.1,0.1,0.1,0.1c0,0,0.2,0.2,0.5,0.3c0.2,0.2,0.5,0.3,0.5,0.3c0.1,0,0.1-0.5,0.2-1.6c0.1-1.2,0.1-1.2,0.2-1.4
	c0.2-0.3,0.3-0.5,0.7-0.7c0.4-0.2,0.4-0.2,1,0.1c0.4,0.2,0.6,0.4,0.8,0.6c0.1,0.2,0.3,0.8,0.3,1c0,0.2-0.1,0.6-0.4,1
	c-0.1,0.2-0.2,0.4-0.2,0.5c0,0.1-0.1,0.3-0.2,0.5c-0.1,0.2-0.2,0.5-0.2,0.6c0,0.1-0.1,0.3-0.2,0.4c-0.1,0.2-0.1,0.4-0.1,0.5
	c0,0.1,0.8,0.8,1.1,0.9c0.1,0.1,1,0.7,1.5,1.1c0.1,0.1,0.2,0.1,0.3,0.2c0.1,0.1,0.3,0.2,0.5,0.3c0.2,0.1,0.3,0.3,0.4,0.3
	c0.1,0,0.3,0.2,0.6,0.4c1.1,0.7,1.3,0.9,1.5,0.9c0.1,0,0.3,0.2,0.4,0.3c0.2,0.2,0.3,0.4,0.1,0.6c-0.1,0.1-0.3,0.3-0.5,0.3
	c0,0-0.2,0.1-0.3,0.1c-0.1,0.1-0.4,0.2-0.5,0.2c-0.2,0-0.4,0.1-0.5,0.1c-0.4,0.1-0.8,0.2-1.9,0.2l-1,0l-0.4-0.2
	c-0.5-0.3-0.9-0.7-1.2-1.2c-0.1-0.2-0.2-0.4-0.2-0.4s-0.1-0.1-0.1-0.2c-0.1-0.1-0.2-0.2-0.2-0.3c-0.1-0.3-0.7-1.3-0.8-1.3
	c0,0-0.3,0.2-0.5,0.4c-0.8,0.9-1.3,1.3-1.9,1.5c-0.1,0-0.2,0.1-0.3,0.2c-0.2,0.1-1.4,0.7-1.8,0.9c-0.3,0.1-0.6,0.2-1.2,0.4l-0.5,0.2
	l-1.1,0C177.9,32.8,177.5,32.8,177.4,32.8L177.4,32.8z M104.9,32.5c-0.4-0.2-0.6-0.6-0.7-1.4c-0.1-0.4,0-1.3,0.1-1.9
	c0-0.2,0.1-0.6,0.1-1c0.1-0.7,0.1-0.8,0.2-1.1c0-0.1,0.1-0.4,0.1-0.6c0-0.3,0.1-0.6,0.1-0.8s0.1-0.5,0.2-0.8
	c0.1-0.4,0.1-0.6,0.2-0.6c0,0,0.1-0.1,0.1-0.2c0.1-0.2,0.5-0.5,0.8-0.6c0.1,0,0.3-0.1,0.5-0.2c0.5-0.2,1-0.2,4.3-0.2
	c1.3,0,2.8-0.1,3.3-0.1c1.1-0.1,1.2-0.1,2.6,0c0.6,0,2,0.1,3,0.1c2.2,0,2.5,0.1,3.3,0.3c0.8,0.2,1.4,0.5,1.8,0.9
	c0.5,0.5,0.5,0.4,0.5,2.3c0,0.9,0,1.7,0.1,1.9c0,0.1,0.1,0.4,0.1,0.6c0.1,0.3,0.1,0.5,0.1,1.1c0,0.9,0,1.2-0.3,1.7
	c-0.3,0.7-0.5,0.8-1.1,0.8c-0.5,0-0.6-0.1-0.8-0.4c-0.2-0.3-0.5-1.1-0.5-1.6c0-0.2-0.1-0.9-0.1-1.5c0-0.7-0.1-1.3-0.1-1.3
	c0-0.1-0.1-0.4-0.1-0.6c-0.1-0.8-0.1-0.9-0.4-1.1c-0.1-0.1-0.3-0.3-0.3-0.3c-0.1,0-0.3-0.1-0.6-0.2c-0.9-0.2-1.2-0.2-6.1-0.2
	c-2.5,0-4.7,0-5,0c-0.7,0-2.3,0.4-2.5,0.5c-0.2,0.1-0.6,0.6-0.7,0.8c0,0.1-0.2,0.5-0.3,0.8l-0.2,0.6l0,1.9l0,1.9l-0.1,0.2
	c-0.1,0.3-0.5,0.6-0.8,0.7C105.7,32.6,105.2,32.6,104.9,32.5 M111.5,31.9c-0.4-0.2-0.6-0.7-0.7-1.3c-0.1-0.6-0.1-2.6,0-3.1
	c0.1-0.8,0.2-0.9,0.6-1.2c0.2-0.1,0.3-0.1,0.6-0.1c0.2,0,0.6,0,0.9,0.1c0.4,0,0.6,0,0.8,0c0.4-0.1,3.1-0.1,3.7,0
	c0.6,0.1,1.3,0.2,1.4,0.2c0.2,0.1,0.4,0.3,0.6,0.6c0.2,0.4,0.2,0.6,0.1,1c-0.1,0.3-0.1,0.4-0.1,1.1c0,0.8-0.1,1.1-0.2,1.2
	c0,0-0.1,0.2-0.2,0.4c-0.2,0.4-0.5,0.7-0.9,0.9l-0.3,0.2l-0.9,0c-0.6,0-1,0-1.4-0.1c-0.7-0.1-1-0.1-1.4,0
	C113.1,31.9,111.7,32,111.5,31.9 M116.7,29.7c0.1-0.1,0.2-0.2,0.2-0.9c0-0.6,0-0.6-0.1-0.7c0-0.1-0.1-0.1-0.2-0.2
	c-0.2-0.1-2.2-0.1-2.8,0c-0.8,0.1-0.9,0.1-0.9,0.9c0,0.3,0,0.6,0.1,0.7l0.1,0.2l0.4,0c0.2,0,0.7,0,1.1,0.1
	C115.3,29.7,116.6,29.7,116.7,29.7z M136.2,31.3c-0.4-0.1-0.5-0.2-0.7-0.6c-0.2-0.3-0.2-0.4-0.2-0.7c0-0.3,0-0.4,0.1-0.6
	c0.1-0.2,0.2-0.4,0.3-0.5c0.2-0.2,1.1-1,1.4-1.2c0.1-0.1,0.8-0.7,1.5-1.4l1.3-1.3l0.3-0.6c0.6-1,0.7-1.3,0.8-2
	c0.1-0.4,0.1-0.8,0.1-0.9c0-0.2-0.2-1.3-0.3-1.4c-0.1-0.2-0.4-0.2-1.5-0.2c-0.5,0-1.1,0-1.3,0.1c-0.2,0-0.7,0-1.2,0l-0.8,0l-0.3-0.2
	c-0.2-0.1-0.4-0.3-0.5-0.3c-0.2-0.2-0.4-0.5-0.4-0.7c0-0.4,0.6-0.9,1.4-1.3c0.4-0.2,0.7-0.3,1.3-0.3c0.6,0,2.1,0.1,2.7,0.2
	c0.2,0,0.7,0.1,1,0.1c0.7,0.1,0.9,0.1,1.4,0.4c0.3,0.2,0.5,0.3,0.7,0.6c0.1,0.2,0.2,0.3,0.1,0.5c0,0.1-0.1,0.3-0.1,0.5
	c-0.1,0.3-0.1,0.4-0.2,0.9c0,0.7-0.1,1.3-0.2,1.8c0,0.2-0.1,0.7-0.1,1c0,0.4-0.1,0.8-0.2,0.9c-0.1,0.2-0.1,0.5-0.2,0.6
	c0,0.2-0.1,0.4-0.2,0.6c-0.1,0.2-0.1,0.3-0.1,0.4c0,0-0.6,1.1-0.8,1.3c-0.1,0.1-0.2,0.3-0.4,0.5c-0.3,0.5-0.7,0.9-0.9,1.1
	c-0.1,0.1-0.3,0.3-0.5,0.5c-0.3,0.3-1.1,1.1-1.3,1.2c-0.1,0-0.2,0.2-0.4,0.3c-0.5,0.3-1.2,0.6-1.5,0.6
	C136.5,31.4,136.3,31.3,136.2,31.3 M166.7,31.3c-0.7-0.2-0.9-0.5-0.7-1.2c0-0.2,0.1-0.3,0.4-0.5c0.2-0.2,0.5-0.4,0.7-0.6
	c0.2-0.1,0.5-0.4,0.6-0.5l0.3-0.2v-0.6c0-0.3,0-0.8-0.1-1c0-0.2-0.1-1-0.2-1.7c-0.1-0.8-0.1-1.4-0.2-1.6c0-0.2-0.1-0.6-0.1-0.9
	c0-0.5,0-0.6,0.1-0.7c0.1-0.2,0.3-0.4,0.5-0.6c0.1-0.1,0.2-0.1,0.5-0.1c0.3,0,0.4,0,0.6,0.2c0.5,0.3,0.7,0.5,0.9,1l0.1,0.3l0,0.9
	c0,0.7,0,1.1,0,1.7c0,0.5,0,1.1,0,1.5c0,0.7,0,1,0.1,1c0.1,0.1,0.9,0,1-0.1c0.1-0.1,0.2-0.3,0.3-0.6c0.1-0.4,0.2-1.7,0.1-5.1
	c0-3.7,0-3.5-0.3-3.6c-0.3-0.1-1-0.1-1.4,0.1c-1,0.3-1.5,0.4-1.9,0.4c-0.4,0-0.4,0-0.7-0.1c-0.2-0.1-0.3-0.2-0.3-0.2
	c-0.1-0.1-0.2-0.6-0.2-0.7c0-0.2,0.2-0.8,0.4-1c0.2-0.3,0.5-0.6,0.7-0.7c0.1-0.1,0.2-0.1,0.3-0.2c0.1,0,0.3-0.1,0.5-0.2l0.4-0.1
	l0.6,0.1c0.8,0.1,2.1,0.2,4.7,0.2l2.2,0l0.4,0.1c0.8,0.2,0.9,0.3,0.9,1c0,0.4,0,0.5-0.1,0.6c-0.1,0.2-0.3,0.4-0.6,0.5
	c-0.2,0.1-0.3,0.1-1.4,0.1c-0.6,0-1.2,0-1.2,0.1c-0.1,0.1-0.1,0.2-0.2,0.9c0,0.4-0.1,0.8-0.1,0.9c0,0.2-0.1,1.4-0.1,2
	c0,0.3,0,0.3,0.2,0.3c0.2,0,0.8-0.5,1.2-0.8c0.4-0.4,0.6-0.5,0.8-0.4c0.4,0.2,1,0.7,1.3,1.2c0.1,0.2,0.1,0.3,0.1,0.5
	c0,0.3,0,0.3-0.2,0.4c-0.4,0.3-0.9,0.4-1.9,0.5c-1.3,0.1-1.5,0.1-1.5,0.1c0,0,0,2.9,0,3c0,0.1,0.1,0.1,0.2,0.1c0.1,0,0.3,0,0.4-0.1
	c0.1,0,0.4-0.1,0.7-0.2c0.3-0.1,0.6-0.1,0.7-0.2c0.3-0.1,0.6-0.1,1.1,0c0.6,0.1,0.7,0.2,0.8,0.4c0.1,0.3,0.1,0.5,0,0.7
	c0,0.1-0.1,0.2-0.2,0.2c-0.1,0.1-0.6,0.3-1.2,0.5c-0.2,0.1-0.5,0.2-0.6,0.2c-0.1,0-0.3,0.1-0.5,0.2c-0.2,0.1-0.5,0.2-0.7,0.2
	c-0.7,0.2-1.2,0.4-1.6,0.5c-0.6,0.2-1.1,0.3-1.5,0.4c-0.2,0.1-0.5,0.2-0.8,0.2c-0.4,0.1-0.6,0.2-1.4,0.4c-0.4,0.1-1,0.3-1.2,0.4
	C167.9,31.4,167.2,31.5,166.7,31.3L166.7,31.3z M200,23.9c-0.6-0.2-0.7-0.4-0.8-0.9c0-0.5,0-0.8,0.2-1c0.2-0.3,0.6-0.7,0.9-0.9
	c0.2-0.1,0.2-0.1,0.7-0.1h0.5l0.4,0.2c0.2,0.1,0.4,0.2,0.5,0.3c0,0,0.2,0.1,0.4,0.2c0.9,0.3,1.3,0.6,1.5,0.9c0.2,0.3,0,0.7-0.4,0.9
	c-0.3,0.2-0.5,0.2-1.4,0.3c-0.7,0-1,0.1-1.5,0.2C200.6,24,200.2,24,200,23.9 M111.3,22.3c-0.5-0.2-0.7-0.4-0.9-1
	c-0.2-0.5-0.2-1-0.2-2.3l0-1.1l0.1-0.3c0.2-0.4,0.3-0.6,0.5-0.7c0.1-0.1,0.2-0.1,2.1-0.1c2.4-0.1,4.1,0,4.8,0c0.5,0,0.6,0.1,0.8,0.2
	c0.3,0.1,0.6,0.4,0.6,0.7c0,0.1,0,0.5,0,1.4l0,1.2l-0.2,0.4c-0.2,0.5-0.5,1-0.7,1.1c-0.1,0.1-0.3,0.2-0.5,0.3l-0.3,0.2h-0.6
	c-0.3,0-0.9,0-1.3-0.1c-0.4,0-1-0.1-1.5-0.1c-0.9,0-1.3,0.1-2.1,0.3C111.6,22.4,111.6,22.4,111.3,22.3L111.3,22.3z M116.6,19.9
	c0.2-0.2,0.3-0.3,0.2-0.8c0-0.2,0-0.5,0-0.5c-0.1-0.2-0.5-0.3-1.6-0.4c-0.5-0.1-0.7,0-1.8,0.1c-1.1,0.1-1.1,0.2-1.1,0.8
	c0,0.5,0,0.6,0.2,0.7c0.2,0.1,1.4,0.2,2.8,0.2C116.4,20,116.5,20,116.6,19.9 M244.4,20.4c-0.2-0.1-0.5-0.4-0.5-0.6
	c-0.1-0.3,0-0.7,0.3-1.2c0.3-0.3,0.5-0.5,0.9-0.7c0.3-0.2,0.3-0.2,0.7-0.2c0.4,0,1.1,0.1,1.5,0.1c0.3,0.1,0.7,0.1,2.5,0.1
	c1.3,0,1.4,0.1,1.5,0.4c0.1,0.2,0.1,0.6,0.1,0.8c0,0.2-0.3,0.5-0.5,0.6c0,0-0.2,0.1-0.4,0.1c-0.2,0.1-0.5,0.1-2.1,0.1
	c-1,0-2,0.1-2.1,0.1c-0.1,0-0.4,0.1-0.5,0.2c-0.2,0.1-0.3,0.1-0.8,0.1C244.6,20.4,244.5,20.4,244.4,20.4 M240.9,19.9
	c-0.2-0.1-0.5-0.3-0.6-0.6l-0.1-0.3v-0.9c0-0.9,0-0.9,0.1-1.1c0.1-0.1,0.1-0.4,0.2-0.6s0.1-0.5,0.2-0.6c0-0.1,0.1-0.3,0.1-0.4
	c0-0.2,0.1-0.3,0.1-0.4c0.1-0.2,0.6-0.5,1-0.5c1.3-0.2,2.2-0.3,3.5-0.3c0.7,0,0.7,0,0.8-0.1c0-0.1,0-0.4,0-0.9c0-0.8,0-0.8,0-1
	c0.1-0.2,0.2-0.3,0.6-0.5c0.5-0.2,0.7-0.2,1.5,0c0.4,0.1,0.6,0.3,0.8,0.7c0.2,0.3,0.2,0.5,0,0.8c-0.1,0.3-0.2,0.6-0.2,0.8
	c0,0.1,0.1,0.1,0.1,0.1c0.1,0,0.8,0.1,1.6,0.1c0.9,0,1.6,0.1,1.8,0.1c0.1,0,0.5,0.1,0.8,0.1c0.7,0.1,0.7,0.1,1.2,0.4
	c0.5,0.2,0.8,0.6,1,1l0.1,0.3l0,1.4l0,1.4l-0.2,0.4c-0.1,0.2-0.2,0.4-0.3,0.5c-0.2,0.2-0.6,0.3-1.1,0.3c-0.3-0.1-0.5-0.2-0.6-0.5
	c0-0.1-0.1-0.3-0.2-0.4c-0.1-0.1-0.1-0.3-0.1-0.5c0-0.2-0.1-0.4-0.1-0.5c0-0.1-0.1-0.4-0.2-0.7c-0.1-0.2-0.1-0.5-0.2-0.6
	c-0.1-0.2-0.3-0.3-0.8-0.4l-0.5-0.1l-3.3,0c-2.5,0-3.4,0-3.6,0c-0.5,0.1-1.4,0.4-1.5,0.5c0,0-0.2,0.2-0.3,0.3l-0.2,0.2v0.4
	c0,0.7-0.1,1.4-0.2,1.7c-0.1,0.2-0.4,0.5-0.6,0.6C241.5,20,241.1,20,240.9,19.9L240.9,19.9z M78.1,19c-0.6-0.2-0.9-0.7-1-1.6
	c-0.1-0.4-0.2-3.4-0.2-4.1c0-0.6,0.1-1,0.3-1.3c0.1-0.2,0.2-0.3,0.4-0.3c0.6-0.3,1.2-0.3,5.4-0.3c3.6,0,3.4,0,4.7,0.2
	c0.7,0.1,0.8,0.2,1.1,0.5c0.2,0.3,0.3,0.5,0.4,0.9c0.1,0.3,0,0.4-0.1,1.6c-0.1,0.7-0.2,1.5-0.2,1.9c-0.1,0.8-0.1,0.9-0.3,1.3
	c-0.2,0.3-0.4,0.6-0.8,0.8l-0.3,0.2l-3,0c-3.2,0-3.6,0-4.4,0.2c-0.3,0.1-0.5,0.1-1,0.1C78.4,19.1,78.3,19.1,78.1,19z M81.1,16.6
	c0.4,0,0.9-0.1,1.1-0.1c0.4-0.1,1.1-0.1,2.5-0.2c0.6,0,1.2-0.1,1.3-0.1l0.3,0l0.1-0.2c0.1-0.2,0.1-0.2-0.1-0.4
	c-0.1-0.1-0.2-0.1-0.7-0.1c-0.3,0-0.8-0.1-1-0.1c-0.4,0-1.2,0-3.5,0.1c-1.3,0.1-1.6,0.1-1.7,0.2c-0.1,0.1-0.1,0.2,0,0.4
	c0.1,0.2,0.2,0.4,0.4,0.4C80,16.7,80.2,16.7,81.1,16.6z M86.4,14c0.1-0.1,0.2-0.2,0-0.4c-0.1-0.2-0.2-0.2-0.7-0.3
	c-0.4-0.1-0.6-0.1-2.2-0.1c-1,0-2,0-2.2,0c-0.6,0.1-1.7,0.2-1.9,0.2c-0.1,0-0.2,0.2-0.2,0.3c0,0.1,0.1,0.2,0.3,0.2
	c0.1,0,1.6,0,3.4,0C85.3,14,86.3,14,86.4,14z M204.4,18c-0.1-0.1-0.3-0.1-0.5-0.2c-0.2,0-0.4-0.1-0.5-0.2c-0.1,0-0.4-0.1-0.7-0.2
	c-0.3-0.1-0.8-0.2-1-0.3c-0.4-0.1-0.5-0.2-0.7-0.4c-0.3-0.3-0.3-0.4-0.3-0.8c0-0.5,0.5-1.2,1-1.3c0.1,0,0.3-0.1,0.4-0.2
	c0.1-0.1,0.2-0.1,0.6-0.1c0.6,0,0.7,0.1,1.5,0.8c0.4,0.4,0.7,0.6,0.9,0.8c0.5,0.3,0.7,0.5,0.8,0.9c0.3,0.5,0.2,0.7-0.2,1
	c-0.2,0.1-0.2,0.1-0.6,0.1C204.6,18.1,204.5,18,204.4,18 M124.1,17.2c-0.1,0-0.3-0.1-0.6-0.3c-1-0.5-1.4-0.7-1.7-0.8
	c-0.2,0-0.4-0.1-0.5-0.2c-0.1,0-0.5-0.1-0.8-0.2c-0.3-0.1-0.7-0.1-0.8-0.1c-0.6-0.1-1.3-0.2-4.4-0.2c-3.2,0-3.5,0-4.4,0.2
	c-0.3,0.1-0.7,0.1-0.9,0.1c-0.2,0-0.6,0.1-0.8,0.1c-0.2,0.1-0.7,0.1-1,0.2c-0.3,0.1-0.6,0.1-0.7,0.2c0,0-0.3,0.1-0.6,0.2
	c-0.8,0.2-1.3,0.4-1.7,0.5c-0.3,0.1-0.4,0.1-0.9,0.1c-0.8,0-0.8,0-1.2-0.3l-0.3-0.3v-0.4c0-0.4,0-0.4,0.2-0.8
	c0.3-0.7,1.1-1.4,1.7-1.6c0.9-0.3,1.4-0.3,5.9-0.4c1.5,0,2.9,0,3-0.1l0.1,0l0-0.2c0-0.1,0-0.3-0.1-0.4c-0.1-0.2-0.1-0.7,0-0.9
	c0.1-0.3,0.3-0.4,0.6-0.5c0.5-0.2,0.9-0.2,1.3,0c0.6,0.2,0.9,0.5,1,1c0,0.2,0,0.2-0.1,0.6c-0.1,0.2-0.1,0.4-0.1,0.4s0.1,0,0.1,0.1
	c0.2,0,0.9,0.1,4,0.1c1.2,0,2.6,0.1,3,0.1s1.3,0.1,1.9,0.1c2.1,0.1,2.2,0.1,2.4,0.4c0.2,0.3,0.1,0.8-0.6,1.6
	c-0.3,0.3-0.8,0.9-0.9,0.9c0,0-0.2,0.1-0.3,0.2c-0.4,0.2-0.9,0.5-1.1,0.5C124.9,17.2,124.4,17.2,124.1,17.2L124.1,17.2z M148.9,15
	c-0.4-0.2-0.5-0.2-0.6-0.5c-0.2-0.3-0.2-0.4,0-0.9c0.1-0.3,0.1-0.3,0.6-0.9c0.8-0.8,1-0.9,2.4-0.7c0.5,0,1.2,0.1,1.4,0.2
	c0.3,0,0.9,0.1,1.5,0.1c0.6,0,1.3,0.1,1.6,0.1c0.5,0,0.6,0.1,0.8,0.2c0.1,0.1,0.3,0.2,0.3,0.2c0.1,0.1,0.1,0.5,0.1,0.8
	c0,0.2-0.1,0.3-0.2,0.5c-0.1,0.1-0.3,0.3-0.4,0.3l-0.2,0.1l-2.1,0c-2.1,0-2.1,0-2.8,0.2c-0.4,0.1-0.9,0.2-1.1,0.2
	C149.7,15,149.1,15,148.9,15L148.9,15z M137.3,14.8c-0.1,0-0.3-0.1-0.4-0.2c-0.5-0.4-0.4-0.8,0.2-1.4c0.6-0.6,1.4-1,2.2-1
	c0.3,0,0.5,0,1,0.1c0.3,0.1,0.7,0.2,0.9,0.2c0.2,0.1,0.6,0.2,1,0.3c1,0.2,1.2,0.3,1.5,0.6c0.3,0.3,0.4,0.4,0.4,0.7
	c0,0.2,0,0.2-0.2,0.4c-0.1,0.1-0.3,0.2-0.4,0.2C143.2,14.8,137.6,14.9,137.3,14.8"/>
<rect x="69.1" y="11.1" class="st5" width="188.9" height="44.5"/>
</svg>
