<?xml version="1.0" encoding="utf-8"?>
<!-- Generator: Adobe Illustrator 24.0.2, SVG Export Plug-In . SVG Version: 6.00 Build 0)  -->
<svg version="1.1" id="圖層_1" xmlns="http://www.w3.org/2000/svg" xmlns:xlink="http://www.w3.org/1999/xlink" x="0px" y="0px"
	 viewBox="0 0 30 30" style="enable-background:new 0 0 30 30;" xml:space="preserve">
<style type="text/css">
	.st0{fill:#FFFFFF;}
</style>
<g>
	<path class="st0" d="M14.7,27H5.2c-0.2,0-0.4-0.2-0.5-0.4l-0.1-0.8c-0.1-0.6,0.1-1.1,0.5-1.6c0.4-0.4,0.9-0.7,1.5-0.7l6.4-0.1
		c1,0,1.8,0.7,2,1.6l0.2,1.3c0,0.1,0,0.3-0.1,0.4C15,26.9,14.8,27,14.7,27z M5.6,26h8.5L14,25.3c-0.1-0.5-0.5-0.8-1-0.8
		c0,0-6.4,0.1-6.4,0.1c-0.3,0-0.6,0.1-0.8,0.4c-0.2,0.2-0.3,0.5-0.2,0.8L5.6,26z"/>
	<path class="st0" d="M25.9,15.1C25.9,15.1,25.9,15.1,25.9,15.1c-0.3,0-0.5-0.3-0.5-0.5l0.8-7.3c-0.2-0.3-0.7-0.4-1.1-0.3
		c-0.4,0.2-0.7,0.6-0.6,1l0.9,6.1c0,0.3-0.1,0.5-0.4,0.6c-0.3,0-0.5-0.1-0.6-0.4l-0.9-6.1c-0.1-0.9,0.4-1.7,1.2-2.1
		c0.9-0.3,1.9,0,2.3,0.8c0,0.1,0.1,0.2,0.1,0.3l-0.8,7.5C26.4,14.9,26.1,15.1,25.9,15.1z"/>
	<path class="st0" d="M23.5,24.5C23.5,24.5,23.4,24.5,23.5,24.5l-5.7-0.1c-0.2,0-0.4-0.2-0.5-0.4c-0.7-4.5,1.5-7.7,3.6-9.6
		c1.3-1.2,3.1-1.4,4.6-0.7l0.7-6.7c0.1-0.9,0.8-1.6,1.7-1.7c0.6-0.1,1.1,0.1,1.5,0.5C29.8,6.3,30,6.8,30,7.4l-0.6,7.9
		c0,0.5-0.2,1-0.5,1.4l-4.5,5.6c-0.3,0.4-0.5,0.9-0.4,1.4l0,0.3c0,0.1,0,0.3-0.1,0.4C23.8,24.5,23.6,24.5,23.5,24.5z M18.2,23.5
		l4.7,0c0-0.7,0.2-1.4,0.7-1.9l4.5-5.6c0.2-0.2,0.3-0.5,0.3-0.8L29,7.3c0-0.3-0.1-0.5-0.3-0.7c-0.2-0.2-0.5-0.3-0.7-0.3
		c-0.4,0-0.8,0.4-0.8,0.8l-0.8,7.5c0,0.2-0.1,0.3-0.3,0.4c-0.2,0.1-0.4,0-0.5-0.1c-1.2-0.9-2.9-0.9-4,0.2
		C19.8,16.9,17.8,19.7,18.2,23.5z"/>
	<path class="st0" d="M22.6,19.2c-0.1,0-0.2,0-0.3-0.1c-0.2-0.2-0.2-0.5-0.1-0.7l3.3-4.1c0.2-0.2,0.5-0.2,0.7-0.1
		c0.2,0.2,0.2,0.5,0.1,0.7L23,19.1C22.9,19.2,22.7,19.2,22.6,19.2z"/>
	<path class="st0" d="M4.1,15.1c-0.2,0-0.5-0.2-0.5-0.4L2.8,7.2c0-0.1,0-0.2,0.1-0.3C3.4,6.1,4.3,5.7,5.2,6c0.8,0.3,1.3,1.2,1.2,2.1
		l-0.9,6.1c0,0.3-0.3,0.5-0.6,0.4c-0.3,0-0.5-0.3-0.4-0.6l0.9-6.1c0.1-0.4-0.2-0.8-0.6-1c-0.4-0.1-0.8,0-1.1,0.3l0.8,7.3
		C4.6,14.9,4.4,15.1,4.1,15.1C4.1,15.1,4.1,15.1,4.1,15.1z"/>
	<path class="st0" d="M6.5,24.5c-0.1,0-0.3-0.1-0.4-0.2C6.1,24.3,6,24.1,6,24l0-0.3c0-0.5-0.1-1-0.4-1.4l-4.5-5.6
		c-0.3-0.4-0.5-0.9-0.5-1.4L0,7.4c0-0.6,0.2-1.1,0.6-1.5c0.4-0.4,1-0.6,1.5-0.5C3,5.5,3.7,6.2,3.8,7.1l0.7,6.7
		c1.5-0.7,3.3-0.5,4.6,0.7c2,1.9,4.3,5.1,3.6,9.6c0,0.2-0.2,0.4-0.5,0.4L6.5,24.5C6.6,24.5,6.6,24.5,6.5,24.5
		C6.5,24.5,6.5,24.5,6.5,24.5z M1.9,6.3c-0.2,0-0.5,0.1-0.6,0.3C1.1,6.8,1,7.1,1,7.3l0.6,7.9c0,0.3,0.1,0.6,0.3,0.8l4.5,5.6
		c0.4,0.5,0.7,1.2,0.7,1.9l4.7,0c0.5-3.8-1.5-6.6-3.3-8.3c-1.1-1-2.8-1.1-4-0.2c-0.1,0.1-0.3,0.1-0.5,0.1c-0.2-0.1-0.3-0.2-0.3-0.4
		L2.8,7.2c0-0.4-0.4-0.8-0.8-0.8C2,6.3,1.9,6.3,1.9,6.3z"/>
	<path class="st0" d="M7.4,19.2c-0.1,0-0.3-0.1-0.4-0.2l-3.3-4.1c-0.2-0.2-0.1-0.5,0.1-0.7c0.2-0.2,0.5-0.1,0.7,0.1l3.3,4.1
		C8,18.7,7.9,19,7.7,19.1C7.6,19.2,7.5,19.2,7.4,19.2z"/>
	<path class="st0" d="M24.8,27h-9.5c-0.1,0-0.3-0.1-0.4-0.2c-0.1-0.1-0.1-0.3-0.1-0.4l0.2-1.3c0.2-1,1-1.7,2-1.6l6.4,0.1
		c0.6,0,1.1,0.3,1.5,0.7c0.4,0.4,0.5,1,0.5,1.6l-0.1,0.8C25.2,26.8,25,27,24.8,27z M15.9,26h8.5l0.1-0.3c0-0.3,0-0.6-0.2-0.8
		c-0.2-0.2-0.5-0.3-0.8-0.4L17,24.5c-0.5,0-0.9,0.3-1,0.8L15.9,26z"/>
	<path class="st0" d="M26.4,27H3.6c-0.3,0-0.5-0.2-0.5-0.5S3.3,26,3.6,26h22.9c0.3,0,0.5,0.2,0.5,0.5S26.7,27,26.4,27z"/>
	<path class="st0" d="M15,18.7c-2.9,0-5.3-3.5-5.3-7.9C9.7,6.5,12.1,3,15,3c2.9,0,5.3,3.5,5.3,7.9C20.3,15.2,17.9,18.7,15,18.7z
		 M15,4c-2.4,0-4.3,3.1-4.3,6.9c0,3.8,1.9,6.9,4.3,6.9s4.3-3.1,4.3-6.9C19.3,7.1,17.4,4,15,4z"/>
	<path class="st0" d="M15,18.7c-1.8,0-2.6-4.1-2.6-7.9C12.4,7.1,13.2,3,15,3c1.8,0,2.6,4.1,2.6,7.9C17.6,14.7,16.8,18.7,15,18.7z
		 M15,4c-0.6,0-1.6,2.6-1.6,6.9c0,4.3,1,6.9,1.6,6.9c0.6,0,1.6-2.6,1.6-6.9C16.6,6.6,15.6,4,15,4z"/>
	<path class="st0" d="M22.4,11.4H7.6c-0.3,0-0.5-0.2-0.5-0.5c0-0.3,0.2-0.5,0.5-0.5h14.8c0.3,0,0.5,0.2,0.5,0.5
		C22.9,11.1,22.7,11.4,22.4,11.4z"/>
	<path class="st0" d="M15,18.7c-1.8,0-3.5-0.6-4.9-1.7c0,0-0.1-0.1-0.1-0.1c-0.4-0.6-1-1.2-1.5-1.7c0,0-0.1,0-0.1,0
		c0,0-0.1-0.1-0.1-0.1c-0.8-1.3-1.2-2.7-1.2-4.2C7.1,6.5,10.6,3,15,3s7.9,3.5,7.9,7.9c0,1.5-0.4,2.9-1.2,4.2c0,0-0.1,0.1-0.1,0.1
		c0,0,0,0,0,0l-0.3-0.3l0.3,0.4c-0.6,0.5-1.1,1.1-1.5,1.7c0,0-0.1,0.1-0.1,0.1C18.5,18.1,16.8,18.7,15,18.7z M10.7,16.3
		c1.2,1,2.7,1.5,4.3,1.5c1.6,0,3-0.5,4.3-1.5c0.5-0.6,1-1.2,1.6-1.8c0.7-1.1,1-2.3,1-3.6C21.9,7.1,18.8,4,15,4
		c-3.8,0-6.9,3.1-6.9,6.9c0,1.3,0.4,2.5,1,3.6C9.7,15,10.2,15.6,10.7,16.3z"/>
</g>
</svg>
