<?xml version="1.0" encoding="utf-8"?>
<!-- Generator: Adobe Illustrator 24.0.2, SVG Export Plug-In . SVG Version: 6.00 Build 0)  -->
<svg version="1.1" id="圖層_1" xmlns="http://www.w3.org/2000/svg" xmlns:xlink="http://www.w3.org/1999/xlink" x="0px" y="0px"
	 viewBox="0 0 270.8 64" style="enable-background:new 0 0 270.8 64;" xml:space="preserve">
<style type="text/css">
	.st0{fill:#333333;}
	.st1{fill:none;stroke:#FFFFFF;stroke-width:0.25;stroke-miterlimit:10;}
	.st2{fill:#FFFFFF;}
	.st3{fill:url(#SVGID_1_);}
	.st4{fill:#005BAB;}
	.st5{fill:#B7A246;}
</style>
<g>
	<path class="st0" d="M91.7,15.2v1.5h-9.4v1h7.6V19H72.6v-1.4H80v-1h-9.2v-1.5H80v-1.3h2.3v1.3H91.7z M82.3,33.8h9.4v1.6H70.8v-1.6
		H80v-1.1h-6.9v-1.4H80v-1c-4.4,0.1-5.1,0.2-5.6,0.3c-0.1-0.3-0.3-1.1-0.5-1.5c0.4,0,0.8-0.1,1.3-0.3c0.3-0.1,1.2-0.5,2-1h-3.7v-1.3
		h15.2v1.3h-2.3c1.2,0.7,2.3,1.5,3.1,2.1l-1.3,1.1c-0.3-0.3-0.7-0.6-1.2-1l-4.7,0.1v1h7.2v1.4h-7.2V33.8z M71.2,24.3h20.2v3.5h-2.1
		v-2H73.2v2h-2V24.3z M89,19.9v3.5H73.6v-3.5H89z M86.8,21.1H75.7v1.2h11.1V21.1z M79.8,27.9c-0.7,0.5-1.4,0.8-2.1,1.2l7.6-0.1
		c-0.5-0.3-1.1-0.6-1.6-0.9l0.2-0.1H79.8z"/>
	<path class="st0" d="M98.7,24.5c-0.7-0.8-2.2-1.8-3.4-2.5l1.2-1.5c1.2,0.6,2.8,1.6,3.5,2.3L98.7,24.5z M95.8,34.5
		c0.9-1.8,2.1-4.9,3-7.6l1.8,1.2c-0.8,2.5-1.8,5.4-2.8,7.6L95.8,34.5z M99.1,18.3c-0.6-0.8-2.1-1.9-3.3-2.7l1.3-1.5
		c1.2,0.6,2.7,1.7,3.4,2.4L99.1,18.3z M102,22.9c-0.2,1.2-0.6,2.4-1,3.2c-0.2-0.2-0.7-0.5-1-0.7c0.5-0.8,0.7-1.8,0.9-2.8L102,22.9z
		 M105.1,21.9c0-0.2-0.1-0.5-0.2-0.7c-3.1,0.4-3.7,0.5-4.1,0.7c-0.1-0.2-0.3-0.7-0.5-1c0.4,0,0.7-0.4,1.1-0.8
		c0.2-0.2,0.8-0.9,1.3-1.7c-1.4,0.1-1.8,0.2-2.1,0.3c-0.1-0.2-0.3-0.8-0.5-1c0.3,0,0.5-0.3,0.8-0.6c0.2-0.4,1.1-1.7,1.4-3l1.3,0.5
		c-0.4,0.9-1,1.9-1.6,2.7l1.4-0.1c0.2-0.4,0.4-0.7,0.6-1.1l1.3,0.5c-0.8,1.3-1.8,2.6-2.8,3.7l1.8-0.2c-0.1-0.2-0.3-0.5-0.4-0.7
		l1-0.4c0.5,0.7,0.9,1.8,1.1,2.4L105.1,21.9z M116.4,31c0,0,0,0.6-0.1,0.8c-0.4,2-0.9,3-1.5,3.5c-0.6,0.4-1.1,0.5-2,0.6
		c-0.7,0-2.2,0-3.7-0.1c0-0.5-0.3-1.2-0.6-1.7c1.5,0.1,3,0.2,3.6,0.2c0.5,0,0.8,0,1-0.2c0.3-0.2,0.6-0.8,0.9-1.7h-12.4
		c0.4-1.1,0.8-2.5,1.1-3.8h10.5v-1h-11.3v-1.3h13.4V30h-10.8l-0.3,1H116.4z M102.8,25.7c0-0.8-0.2-2-0.5-2.9l1.1-0.3
		c0.3,0.9,0.5,2,0.6,2.8L102.8,25.7z M104.9,25.1c-0.1-0.7-0.4-1.8-0.7-2.6l1-0.3c0.4,0.8,0.7,1.8,0.8,2.5L104.9,25.1z M111.5,17.5
		h-5.7v-1.2h2.4c-0.2-0.5-0.6-1.3-0.8-1.8l1.5-0.3c0.4,0.6,0.8,1.4,1,1.9l-1.1,0.3h2.8V17.5z M106.4,21.9h4.5v3.5h-4.5V21.9z
		 M110.9,19.4h-4.5v-1.1h4.5V19.4z M106.4,20h4.5v1.1h-4.5V20z M107.8,24.4h1.7v-1.3h-1.7V24.4z M113.1,22.8c-0.2,1.2-0.6,2.4-1,3.2
		c-0.2-0.2-0.7-0.6-1-0.7c0.5-0.8,0.7-1.8,0.9-2.8L113.1,22.8z M116.3,21.9c-0.1-0.2-0.2-0.5-0.3-0.8c-3.1,0.4-3.7,0.6-4.1,0.7
		c-0.1-0.2-0.3-0.7-0.5-1c0.3,0,0.7-0.3,1.1-0.8c0.2-0.2,0.8-0.9,1.3-1.7c-1.4,0.1-1.8,0.2-2.1,0.3c-0.1-0.2-0.3-0.8-0.5-1
		c0.3,0,0.5-0.3,0.8-0.6c0.2-0.3,1.1-1.7,1.4-3l1.3,0.5c-0.4,0.9-1,1.9-1.5,2.7l1.4-0.1c0.2-0.4,0.4-0.7,0.6-1.1l1.3,0.6
		c-0.8,1.3-1.7,2.6-2.8,3.7l1.8-0.2c-0.1-0.2-0.3-0.5-0.4-0.7l1-0.4c0.5,0.8,1,1.8,1.2,2.5L116.3,21.9z M114,25.9
		c0-0.8-0.2-2.1-0.5-3.1l1.1-0.3c0.3,1,0.5,2.2,0.6,3L114,25.9z M116.3,22.1c0.5,1,0.9,2.2,1,3l-1,0.5c-0.1-0.8-0.5-2.1-0.9-3.1
		L116.3,22.1z"/>
	<path class="st0" d="M142.1,16.3v1.9h-20.9v-1.9h9.5c-0.2-0.6-0.5-1.4-0.7-2l2.3-0.5c0.3,0.8,0.7,1.7,0.9,2.5H142.1z M141.4,33.7
		c0,1.1-0.3,1.5-1,1.8c-0.7,0.3-1.8,0.3-3.5,0.3c-0.1-0.5-0.4-1.2-0.7-1.7c1,0,2.2,0,2.5,0c0.3,0,0.4-0.1,0.4-0.4v-6.5h-15.1v8.7
		h-2.2V25.4h19.5V33.7z M139,19.3v4.9h-14.4v-4.9H139z M128.5,33.5v1.1h-2.1v-6.2h10.2v5.1H128.5z M136.6,20.9h-9.8v1.8h9.8V20.9z
		 M128.5,30v1.8h6.1V30H128.5z"/>
	<path class="st0" d="M149.7,17.4c-0.7,1.1-1.5,2-2.3,2.8c-0.3-0.4-1.1-1.2-1.5-1.5c1.5-1.2,2.9-3.1,3.6-4.9l2,0.6
		c-0.2,0.4-0.4,0.8-0.6,1.2h5.8v1.9h-4c0.7,0.6,1.5,1.3,1.9,1.9l-1.4,1.3c-0.5-0.6-1.6-1.7-2.4-2.4l0.8-0.7H149.7z M162.7,28.3h4.6
		v1.8h-4.6v3.6c0,1.1-0.3,1.7-1.2,1.9c-0.9,0.3-2.3,0.3-4.3,0.3c-0.1-0.6-0.4-1.3-0.6-1.8c1.4,0.1,2.9,0,3.3,0
		c0.4,0,0.5-0.1,0.5-0.5v-3.5h-8.6c1.3,1,3,2.5,3.8,3.4l-1.7,1.3c-0.8-0.9-2.5-2.5-3.8-3.6l1.5-1.1h-5.4v-1.8h14.2v-1.5h2.3V28.3z
		 M167.8,15.5v1.9H163c0.7,0.7,1.5,1.5,1.9,2.1l-1.5,1.3c-0.4-0.7-1.4-1.8-2.2-2.6l1-0.8H160c-0.6,1.1-1.3,2.1-2,2.9l-0.1-0.1v0.7
		h8.6v1.9H158v1.8h7.2v1.8h-16.8v-1.8h7.3v-1.8h-8.5v-1.9h8.5v-1.3h1.5c-0.3-0.2-0.6-0.5-0.8-0.6c1.3-1.3,2.4-3.3,3-5.3l2,0.5
		c-0.1,0.5-0.3,0.9-0.5,1.3H167.8z"/>
	<path class="st0" d="M175.5,24.8c-0.9-0.8-2.9-1.9-4.4-2.6l1.2-1.7c1.5,0.6,3.5,1.6,4.5,2.4L175.5,24.8z M171.9,34.1
		c1.3-1.8,3.1-4.9,4.5-7.6l1.6,1.5c-1.2,2.5-2.8,5.4-4.2,7.6L171.9,34.1z M173.7,14.1c1.5,0.6,3.5,1.7,4.5,2.4l-1.3,1.8
		c-0.9-0.8-2.9-2-4.5-2.7L173.7,14.1z M190.7,35.9c-0.2-0.6-0.5-1.4-1-2.3c-8.5,1-9.6,1.2-10.3,1.6c-0.1-0.5-0.5-1.6-0.8-2.2
		c0.5-0.1,1-0.7,1.5-1.6c0.5-0.7,1.9-3,3-5.5h-4.9v-2.1h5.9v-3.9h-4.9v-2.1h4.9v-3.9h2.3v3.9h5.1v2.1h-5.1v3.9h6v2.1h-6.6
		c-1.1,2.4-2.5,4.7-3.8,6.6l6.7-0.7c-0.6-1-1.2-1.9-1.9-2.8l1.8-0.9c1.7,2.1,3.4,4.9,4.1,6.8L190.7,35.9z"/>
	<path class="st0" d="M204.3,15.6c-0.7,2-1.5,4.3-2.2,6.2c1.6,2,1.9,3.7,1.9,5.1c0,1.4-0.3,2.4-1,2.9c-0.4,0.3-0.8,0.4-1.3,0.5
		c-0.4,0-1,0-1.6,0c0-0.6-0.2-1.4-0.5-1.9c0.5,0,0.9,0,1.2,0c0.3,0,0.5-0.1,0.7-0.2c0.3-0.3,0.5-0.9,0.5-1.6c0-1.2-0.4-2.8-2-4.6
		c0.6-1.6,1.2-3.6,1.7-5.2h-2.6v19h-2v-21h5.4l0.3-0.1L204.3,15.6z M216,33.7c0.5,0,0.6-0.4,0.6-3c0.5,0.4,1.3,0.7,1.9,0.8
		c-0.2,3.2-0.7,4-2.2,4h-1.9c-1.8,0-2.3-0.6-2.3-2.6v-5.7h-2.1c-0.4,4.2-1.5,7-6.1,8.6c-0.2-0.6-0.8-1.4-1.3-1.8
		c4-1.3,4.9-3.4,5.2-6.8h-3.1v-2h13.5v2h-4v5.6c0,0.6,0.1,0.7,0.5,0.7H216z M206.4,21.2h-1.9v-4.4h5.8c-0.3-0.8-0.7-1.8-1.1-2.5
		l2.1-0.6c0.6,1,1.2,2.2,1.5,3.1h5.2v4.4h-1.9V23h-9.7V21.2z M206.6,18.7V21h9.3v-2.4H206.6z"/>
</g>
<g>
	<path class="st0" d="M71.9,41.8v-1.1h6.2v1.1h-2.5v10.2h-1.2V41.8H71.9z"/>
	<path class="st0" d="M88.3,43.7v8.4h-1.1v-1.4c-0.5,0.6-1,1-1.5,1.2c-0.6,0.3-1.2,0.4-1.8,0.4c-1.2,0-2.2-0.4-3-1.3
		s-1.3-1.9-1.3-3.1c0-1.2,0.4-2.2,1.3-3.1c0.8-0.9,1.9-1.3,3.1-1.3c0.7,0,1.3,0.1,1.9,0.4c0.6,0.3,1,0.7,1.5,1.3v-1.5H88.3z
		 M84,44.5c-0.6,0-1.2,0.1-1.7,0.4c-0.5,0.3-0.9,0.7-1.2,1.2c-0.3,0.5-0.5,1.1-0.5,1.7c0,0.6,0.2,1.2,0.5,1.7c0.3,0.5,0.7,1,1.2,1.3
		c0.5,0.3,1.1,0.5,1.6,0.5c0.6,0,1.2-0.1,1.7-0.4s0.9-0.7,1.2-1.2s0.4-1.1,0.4-1.7c0-1-0.3-1.8-1-2.4C85.7,44.8,84.9,44.5,84,44.5z"
		/>
	<path class="st0" d="M91.5,40.2c0.2,0,0.5,0.1,0.6,0.3c0.2,0.2,0.3,0.4,0.3,0.6c0,0.2-0.1,0.5-0.3,0.6C92,41.9,91.8,42,91.5,42
		c-0.2,0-0.4-0.1-0.6-0.3c-0.2-0.2-0.3-0.4-0.3-0.6c0-0.2,0.1-0.5,0.3-0.6C91.1,40.3,91.3,40.2,91.5,40.2z M91,43.7h1.1v8.4H91V43.7
		z"/>
	<path class="st0" d="M93.6,43.7h1.1l2.6,6.1l2.7-6.1h0.2l2.7,6.1l2.6-6.1h1.1l-3.6,8.4h-0.2l-2.7-6l-2.7,6h-0.2L93.6,43.7z"/>
	<path class="st0" d="M116.6,43.7v8.4h-1.1v-1.4c-0.5,0.6-1,1-1.5,1.2c-0.6,0.3-1.2,0.4-1.8,0.4c-1.2,0-2.2-0.4-3-1.3
		s-1.3-1.9-1.3-3.1c0-1.2,0.4-2.2,1.3-3.1c0.8-0.9,1.9-1.3,3.1-1.3c0.7,0,1.3,0.1,1.9,0.4c0.6,0.3,1,0.7,1.5,1.3v-1.5H116.6z
		 M112.3,44.5c-0.6,0-1.2,0.1-1.7,0.4c-0.5,0.3-0.9,0.7-1.2,1.2c-0.3,0.5-0.5,1.1-0.5,1.7c0,0.6,0.2,1.2,0.5,1.7
		c0.3,0.5,0.7,1,1.2,1.3c0.5,0.3,1.1,0.5,1.6,0.5c0.6,0,1.2-0.1,1.7-0.4s0.9-0.7,1.2-1.2s0.4-1.1,0.4-1.7c0-1-0.3-1.8-1-2.4
		C114,44.8,113.2,44.5,112.3,44.5z"/>
	<path class="st0" d="M119.4,43.7h1.1v1.5c0.4-0.6,0.9-1,1.4-1.3c0.5-0.3,1.1-0.4,1.7-0.4c0.6,0,1.2,0.2,1.7,0.5
		c0.5,0.3,0.8,0.7,1.1,1.3s0.3,1.4,0.3,2.5v4.3h-1.1v-4c0-1,0-1.6-0.1-1.9c-0.1-0.6-0.4-1-0.7-1.3c-0.4-0.3-0.8-0.4-1.4-0.4
		c-0.7,0-1.2,0.2-1.8,0.6c-0.5,0.4-0.9,1-1,1.6c-0.1,0.4-0.2,1.2-0.2,2.3v3.1h-1.1V43.7z"/>
	<path class="st0" d="M134.4,40.7h1.1v4.8h5.8v-4.8h1.1v11.3h-1.1v-5.5h-5.8v5.5h-1.1V40.7z"/>
	<path class="st0" d="M145.8,40.2c0.2,0,0.5,0.1,0.6,0.3c0.2,0.2,0.3,0.4,0.3,0.6c0,0.2-0.1,0.5-0.3,0.6c-0.2,0.2-0.4,0.3-0.6,0.3
		c-0.2,0-0.4-0.1-0.6-0.3c-0.2-0.2-0.3-0.4-0.3-0.6c0-0.2,0.1-0.5,0.3-0.6C145.3,40.3,145.5,40.2,145.8,40.2z M145.2,43.7h1.1v8.4
		h-1.1V43.7z"/>
	<path class="st0" d="M156.2,43.7h1.1v6.7c0,1.2-0.1,2-0.3,2.6c-0.3,0.8-0.8,1.4-1.5,1.8c-0.7,0.4-1.5,0.6-2.5,0.6
		c-0.7,0-1.4-0.1-1.9-0.3c-0.6-0.2-1-0.5-1.4-0.8c-0.4-0.3-0.7-0.8-1-1.5h1.2c0.3,0.6,0.7,1,1.2,1.2c0.5,0.3,1.1,0.4,1.9,0.4
		c0.7,0,1.4-0.1,1.9-0.4c0.5-0.3,0.9-0.6,1.1-1c0.2-0.4,0.3-1.1,0.3-2v-0.4c-0.4,0.5-0.9,0.9-1.5,1.2c-0.6,0.3-1.2,0.4-1.9,0.4
		c-0.8,0-1.5-0.2-2.2-0.6c-0.7-0.4-1.2-0.9-1.6-1.5c-0.4-0.6-0.6-1.4-0.6-2.1c0-0.8,0.2-1.5,0.6-2.2c0.4-0.7,0.9-1.2,1.6-1.6
		c0.7-0.4,1.4-0.6,2.2-0.6c0.6,0,1.2,0.1,1.8,0.4c0.5,0.3,1.1,0.7,1.6,1.3V43.7z M153,44.5c-0.6,0-1.2,0.1-1.7,0.4s-0.9,0.7-1.2,1.2
		c-0.3,0.5-0.4,1.1-0.4,1.7c0,0.9,0.3,1.7,0.9,2.3s1.4,0.9,2.4,0.9c1,0,1.8-0.3,2.4-0.9c0.6-0.6,0.9-1.4,0.9-2.4
		c0-0.6-0.1-1.2-0.4-1.7c-0.3-0.5-0.7-0.9-1.2-1.2C154.1,44.6,153.6,44.5,153,44.5z"/>
	<path class="st0" d="M160,40.4h1.1v4.7c0.4-0.6,0.9-1,1.4-1.3c0.5-0.3,1.1-0.4,1.7-0.4c0.6,0,1.2,0.2,1.7,0.5
		c0.5,0.3,0.8,0.7,1.1,1.3s0.3,1.4,0.3,2.5v4.3h-1.1v-4c0-1,0-1.6-0.1-1.9c-0.1-0.6-0.4-1-0.7-1.3c-0.4-0.3-0.8-0.4-1.4-0.4
		c-0.7,0-1.2,0.2-1.8,0.6c-0.5,0.4-0.9,1-1,1.6c-0.1,0.4-0.2,1.2-0.2,2.3v3.1H160V40.4z"/>
	<path class="st0" d="M185.5,42.8l-0.9,0.7c-0.5-0.6-1.1-1.1-1.8-1.5c-0.7-0.3-1.5-0.5-2.3-0.5c-0.9,0-1.7,0.2-2.5,0.7
		s-1.4,1-1.8,1.8c-0.4,0.7-0.6,1.6-0.6,2.5c0,1.4,0.5,2.5,1.4,3.5s2.1,1.4,3.6,1.4c1.6,0,2.9-0.6,4-1.9l0.9,0.7
		c-0.6,0.7-1.3,1.3-2.1,1.7c-0.8,0.4-1.8,0.6-2.8,0.6c-2,0-3.6-0.7-4.7-2c-1-1.1-1.4-2.5-1.4-4c0-1.7,0.6-3.1,1.7-4.2
		s2.6-1.7,4.4-1.7c1.1,0,2,0.2,2.9,0.6C184.3,41.5,185,42.1,185.5,42.8z"/>
	<path class="st0" d="M192,43.5c1.3,0,2.4,0.5,3.2,1.4c0.8,0.9,1.2,1.9,1.2,3c0,1.2-0.4,2.2-1.2,3.1c-0.8,0.9-1.9,1.3-3.1,1.3
		c-1.3,0-2.3-0.4-3.2-1.3c-0.8-0.9-1.2-1.9-1.2-3.1c0-1.2,0.4-2.2,1.2-3C189.6,43.9,190.7,43.5,192,43.5z M192,44.5
		c-0.9,0-1.7,0.3-2.3,1c-0.6,0.7-1,1.5-1,2.4c0,0.6,0.1,1.2,0.4,1.7c0.3,0.5,0.7,0.9,1.2,1.2c0.5,0.3,1.1,0.4,1.6,0.4
		s1.1-0.1,1.6-0.4c0.5-0.3,0.9-0.7,1.2-1.2c0.3-0.5,0.4-1.1,0.4-1.7c0-0.9-0.3-1.7-1-2.4C193.7,44.9,192.9,44.5,192,44.5z"/>
	<path class="st0" d="M198.6,43.7h1.1v3.9c0,1,0.1,1.6,0.2,2c0.2,0.5,0.5,0.9,0.9,1.2c0.4,0.3,1,0.4,1.6,0.4c0.6,0,1.1-0.1,1.5-0.4
		c0.4-0.3,0.7-0.7,0.9-1.1c0.1-0.3,0.2-1,0.2-2.1v-3.9h1.1v4.1c0,1.2-0.1,2-0.4,2.6c-0.3,0.6-0.7,1-1.2,1.4c-0.5,0.3-1.2,0.5-2,0.5
		c-0.8,0-1.5-0.2-2-0.5c-0.5-0.3-1-0.8-1.2-1.4c-0.3-0.6-0.4-1.5-0.4-2.7V43.7z"/>
	<path class="st0" d="M208.4,43.7h1.1v1.2c0.3-0.5,0.7-0.8,1-1.1s0.7-0.4,1.1-0.4c0.3,0,0.6,0.1,1,0.3l-0.6,0.9
		c-0.2-0.1-0.4-0.1-0.6-0.1c-0.4,0-0.7,0.1-1,0.4c-0.3,0.3-0.6,0.8-0.8,1.4c-0.1,0.5-0.2,1.4-0.2,2.9v2.8h-1.1V43.7z"/>
	<path class="st0" d="M214.8,40.6h1.1v3.1h1.7v0.9h-1.7v7.5h-1.1v-7.5h-1.5v-0.9h1.5V40.6z"/>
</g>
<path class="st1" d="M135.4,41.9"/>
<g>
	<circle class="st2" cx="34" cy="32.1" r="30.3"/>
</g>
<linearGradient id="SVGID_1_" gradientUnits="userSpaceOnUse" x1="33.9546" y1="61.4714" x2="33.9546" y2="38.2156">
	<stop  offset="0.6854" style="stop-color:#B7A246"/>
	<stop  offset="1" style="stop-color:#FFFFFF"/>
</linearGradient>
<path class="st3" d="M62.8,38.5c-3,13-14.9,23-28.8,23c-13.9,0-25.9-10.2-28.9-23.3h7.4c2.8,9,11.5,16.1,21.5,16.1
	c10,0,18.6-6.8,21.4-15.8H62.8z"/>
<g>
	<path class="st4" d="M54.9,32c0,11.6-9.4,21-21,21s-21-9.4-21-21c0-11.6,9.4-21,21-21S54.9,20.4,54.9,32z"/>
</g>
<g>
	<path class="st2" d="M35.6,34.5h-0.5h-2.8v8.2c0,0.9,0.8,1.7,1.7,1.7c0.9,0,1.6-0.8,1.6-1.7L35.6,34.5z"/>
	<path class="st2" d="M36.9,44.7H31c-0.4,0-0.8,0.3-0.8,0.6v0.8c0,0.4,0.3,0.7,0.8,0.7h5.8c0.4,0,0.8-0.3,0.8-0.7v-0.8
		C37.6,45,37.3,44.7,36.9,44.7z"/>
	<path class="st2" d="M38,47.6h-8c-0.6,0-1,0.3-1,0.7V49c0,0.4,0.4,0.7,1,0.7h8c0.6,0,1-0.3,1-0.7v-0.8C39,47.9,38.6,47.6,38,47.6z"
		/>
	<path class="st2" d="M50.2,24c0-0.3-0.2-0.5-0.4-0.6c-0.4-0.3-1-0.2-1.4,0.1c-1.1,1.1-2.7,1.7-4.4,1.7c-1.7,0-3.2-0.6-4.3-1.6
		c-1.5-1.3-3.5-2.1-5.7-2.1c-2.1,0-4.1,0.7-5.5,1.9l0,0l-0.2,0.2l0,0c-1.1,1.1-2.7,1.7-4.4,1.7c-1.7,0-3.3-0.6-4.4-1.7
		c-0.2-0.2-0.4-0.3-0.7-0.3c-0.2,0-0.5,0-0.7,0.2c-0.2,0.2-0.4,0.4-0.4,0.6l0,0v0.1c0,0.2,0.1,0.4,0.3,0.6c1.5,1.4,3.6,2.3,5.9,2.3
		c2.1,0,4-0.7,5.5-1.9l0,0c0,0,0,0,0,0c0,0,0.1-0.1,0.1-0.1c1.1-1.1,2.7-1.7,4.4-1.7c1.7,0,3.2,0.6,4.3,1.6c1.4,1.3,3.5,2.1,5.7,2.1
		c2.3,0,4.4-0.8,5.9-2.3C50.1,24.5,50.2,24.3,50.2,24C50.2,24,50.2,24,50.2,24z M50.2,24C50.2,24,50.2,24,50.2,24
		C50.2,24,50.2,24,50.2,24L50.2,24z"/>
	<path class="st2" d="M37.4,17.7c0,1.9-1.5,3.5-3.5,3.5c-1.9,0-3.4-1.5-3.4-3.5c0-1.9,1.5-3.5,3.4-3.5
		C35.9,14.3,37.4,15.8,37.4,17.7z"/>
	<path class="st2" d="M28.9,39.1l-5.3-12c-0.1-0.2-0.3-0.3-0.5-0.3c-0.2,0-0.4,0.1-0.5,0.4v0l-5.3,12c-0.1,0.2-0.1,0.4,0,0.6
		c1,1.9,3.3,3.2,5.8,3.2c2.5,0,4.8-1.2,5.8-3.2C29,39.5,29,39.3,28.9,39.1z M23,28.8c0.3,0.7,4.3,9.8,4.6,10.4h-9.2
		c0.2-0.5,3.1-7,3.1-7S22.8,29.5,23,28.8z"/>
	<path class="st2" d="M50.8,39.1l-5.3-12c-0.1-0.2-0.3-0.3-0.5-0.3c-0.2,0-0.4,0.1-0.5,0.4v0l-5.3,12c-0.1,0.2-0.1,0.4,0,0.6
		c1,1.9,3.3,3.2,5.8,3.2c2.5,0,4.8-1.2,5.8-3.2C50.9,39.5,50.9,39.3,50.8,39.1z M45,28.8c0.3,0.7,4.3,9.8,4.6,10.4h-9.2
		c0.2-0.4,2-4.5,2-4.5S44.7,29.5,45,28.8z"/>
	<path class="st2" d="M39.6,26.1c-1,0-0.9,0.9-0.9,0.9h-1.2v-0.5h-7V27h-1.2c0,0,0.1-0.9-0.9-0.9c0,0-0.8,0-0.8,1v4.4
		c0,1.1,0.8,1,0.8,1c1,0,0.9-0.9,0.9-0.9h1.2v0.5h1.8l0,1.6l3.3,0v-1.6h1.9v-0.5h1.2c0,0-0.1,0.9,0.9,0.9c0,0,0.8,0,0.8-1v-4.4
		C40.3,26.1,39.6,26.1,39.6,26.1z"/>
</g>
<g>
	<path class="st2" d="M19.6,56.5l-4.3-3.2l0.2-0.2l2,1.5l0.2-0.3L15.9,53l0.1-0.2l1.7,1.3l0.2-0.3c-0.2-0.2-0.8-0.6-1.5-1.1l0.1-0.2
		c0.3,0.2,0.7,0.3,1.1,0.3L17,52.3l0.1-0.2l3,2.3l-0.1,0.2l-0.3-0.3c0.1,0.3,0.1,0.6,0.1,0.9l-0.3,0c0-0.1,0-0.3,0-0.4
		c-0.6-0.4-1-0.7-1.2-0.8l-0.2,0.3l1.7,1.3l-0.1,0.2L18,54.5l-0.2,0.3l2,1.5L19.6,56.5z M20.6,55l-0.3-0.2l0.3-0.5l-3.6-2.7L16.8,52
		l-0.3-0.2l0.5-0.6l4.1,3.1L20.6,55z M19.5,54.5c0-0.1,0-0.2,0-0.3l0.2,0l-1.5-1.1c-0.3,0-0.6,0-0.8-0.1
		C17.7,53.3,18.4,53.8,19.5,54.5z M20.8,53.7l-3.2-2.4l0.5-0.7l3.2,2.4L20.8,53.7z M22.4,52.8l-2-1.5l-0.2,0.2l1.8,1.3l-0.2,0.2
		L18,50.2l0.2-0.2l1.8,1.3l0.2-0.2l-2-1.5l0.2-0.2l2,1.5l0.2-0.2l0.3,0.2l-0.2,0.2l2,1.5L22.4,52.8z M20.7,53.3l0.2-0.3l-2.6-2
		l-0.2,0.3L20.7,53.3z"/>
	<path class="st2" d="M22.8,56c-0.5,0.6-1,1-1.5,1.5l-0.2-0.3c0.5-0.4,1-0.9,1.5-1.5L22.8,56z M23.1,54.9L22.9,55
		c-0.1-0.3-0.3-0.6-0.5-1l0.3-0.1C22.9,54.3,23,54.6,23.1,54.9z M26.3,58.4L26,58.9C26,59,25.9,59,25.8,59.1c-0.1,0-0.2,0-0.4,0
		l-1.3-0.5l0-0.3l1.4,0.6c0.1,0,0.2,0,0.3-0.1l0.1-0.2l-3.4-1.3l0.6-0.7l2.9,1.1l0.1-0.3L23,56l0.1-0.2l3.5,1.4L26.2,58l-2.9-1.2
		L23,57.1L26.3,58.4z M23.6,55.1c-0.1,0.2-0.3,0.4-0.4,0.5l-0.2-0.2c0.2-0.2,0.3-0.3,0.4-0.5L23.6,55.1z M23.8,53.6l-0.3,0.1
		c-0.1-0.3-0.3-0.6-0.5-1l0.3-0.1C23.5,52.9,23.6,53.2,23.8,53.6z M24.7,55.2l-0.3,0c0,0,0-0.1,0-0.2c-0.3-0.1-0.7-0.1-1-0.2l0-0.2
		c0.4-0.2,0.7-0.3,0.9-0.4C24,54.1,23.9,54,23.8,54l0-0.2c0.4-0.2,0.8-0.4,1-0.6l0.2,0.2c-0.2,0.2-0.5,0.3-0.8,0.5
		c0.2,0.1,0.3,0.1,0.5,0.1c0.1,0,0.2-0.1,0.3-0.2l0.2,0.2c-0.3,0.2-0.7,0.4-1.2,0.6c0.2,0,0.3,0.1,0.5,0.1c0-0.1,0-0.1,0-0.2l0.3,0
		C24.7,54.7,24.7,54.9,24.7,55.2z M23.8,55.8l-0.2-0.1c0.1-0.2,0.1-0.5,0.1-0.6l0.3,0.1C23.9,55.5,23.8,55.7,23.8,55.8z M24.3,55.9
		l-0.3,0c0-0.2,0.1-0.4,0.1-0.6l0.3,0C24.4,55.5,24.4,55.7,24.3,55.9z M25.5,56.5l-1-0.4l0.3-0.8l1,0.4L25.5,56.5z M25.4,56.1
		l0.1-0.4L25,55.6l-0.1,0.4L25.4,56.1z M25.9,55.4l-1-0.4l0.1-0.2l1,0.4L25.9,55.4z M26.1,54.9l-1-0.4l0.1-0.2l1,0.4L26.1,54.9z
		 M26.5,54.5L25.2,54l0.1-0.2l0.6,0.2c0-0.1,0-0.2,0-0.4l0.3,0c0,0.1,0,0.3,0,0.5l0.5,0.2L26.5,54.5z M26.2,56.1
		c-0.1,0.2-0.2,0.4-0.4,0.6l-0.2-0.2c0.1-0.1,0.3-0.3,0.4-0.6L26.2,56.1z M27.4,56.3l-0.3,0c0-0.1,0-0.1,0-0.2
		c-0.4-0.1-0.8-0.2-1.1-0.2l0-0.2c0.3-0.1,0.6-0.2,0.9-0.4L26.4,55l0-0.2c0.5-0.2,0.9-0.5,1.1-0.6l0.2,0.2c-0.2,0.2-0.5,0.3-0.9,0.5
		C27,55,27.2,55,27.3,55c0.1-0.1,0.2-0.2,0.3-0.2l0.2,0.2c-0.3,0.2-0.7,0.4-1.2,0.6c0.1,0,0.3,0.1,0.5,0.1c0-0.1,0-0.1,0-0.2l0.3,0
		C27.4,55.9,27.4,56.1,27.4,56.3z M26.6,56.9l-0.3-0.1c0.1-0.2,0.1-0.4,0.2-0.6l0.2,0.1C26.7,56.5,26.6,56.7,26.6,56.9z M27.1,57.1
		l-0.3,0c0-0.3,0-0.5,0-0.7l0.2,0C27.1,56.6,27.1,56.8,27.1,57.1z"/>
	<path class="st2" d="M33,59.9c0,0.1-0.1,0.2-0.2,0.3c-0.1,0.1-0.3,0.1-0.6,0.1c-0.1,0-0.2,0-0.3,0l-0.1-0.3c0.3,0,0.4,0.1,0.5,0.1
		c0.2,0,0.3,0,0.3-0.2l0.2-1.7l-4.1-0.5l-0.2,2.2l-0.3,0l0.3-2.5l4.8,0.5L33,59.9z M33.7,56l-5.3-0.6l0-0.3l2.5,0.3
		c0-0.1,0-0.3-0.1-0.5l0.3-0.1c0.1,0.1,0.1,0.3,0.1,0.6l2.5,0.3L33.7,56z M32.6,57.4L29.1,57l0.1-1.1l3.6,0.4L32.6,57.4z M31.9,59.6
		l-2.6-0.3l0.1-1.2l2.6,0.3L31.9,59.6z M32.3,57.1l0.1-0.5l-2.9-0.3l-0.1,0.5L32.3,57.1z M31.6,59.3l0.1-0.6l-1.9-0.2l-0.1,0.6
		L31.6,59.3z"/>
	<path class="st2" d="M37,55.7l-1.8,0.2c-0.2,0.3-0.4,0.5-0.6,0.7l-0.3-0.2c0.4-0.4,0.7-0.8,0.9-1.4l0.3,0.1
		c-0.1,0.2-0.1,0.3-0.2,0.5l1.6-0.2L37,55.7z M40.2,58.2L39,58.4l0.1,0.9c0,0.2,0,0.4-0.1,0.5c-0.1,0.1-0.3,0.1-0.6,0.2
		c-0.1,0-0.3,0-0.5,0l-0.2-0.3c0.2,0,0.4,0,0.6-0.1c0.2,0,0.3,0,0.4-0.1s0.1-0.1,0.1-0.2l-0.1-1l-4,0.5l0-0.3l4-0.5l-0.1-0.6
		L35.1,58l0-0.3l2-0.2l-0.1-0.5l-2.3,0.3l0-0.3l2.3-0.3l0-0.4l0.3,0l0,0.4l2.3-0.3l0,0.3l-2.3,0.3l0.1,0.5l2-0.2l0,0.3l-0.6,0.1
		l0.1,0.6l1.1-0.1L40.2,58.2z M36.3,56.4L36,56.6c-0.1-0.1-0.3-0.3-0.5-0.4l0.3-0.2C36,56.1,36.1,56.2,36.3,56.4z M37.2,59.6
		L37,59.8c-0.4-0.3-0.7-0.5-1-0.7l0.2-0.2C36.6,59.2,37,59.4,37.2,59.6z M39.7,55.3l-2,0.2c-0.1,0.2-0.2,0.3-0.3,0.4l-0.3-0.1
		c0.3-0.4,0.5-0.7,0.7-1.1l0.3,0.1C38,55,38,55.1,37.9,55.3l1.8-0.2L39.7,55.3z M39,56.1l-0.3,0.2c-0.1-0.1-0.3-0.3-0.5-0.4l0.3-0.2
		C38.7,55.8,38.9,55.9,39,56.1z"/>
	<path class="st2" d="M41.6,54.6l-0.1,0.3c-0.4-0.2-0.8-0.3-1.3-0.3l0.1-0.3C40.8,54.4,41.2,54.5,41.6,54.6z M42,56l-0.1,0.3
		c-0.3-0.1-0.7-0.3-1.3-0.3l0.1-0.3C41.3,55.8,41.8,55.9,42,56z M42.4,56.9c0,0.9-0.1,1.7-0.3,2.3l-0.3-0.1c0.2-0.6,0.3-1.4,0.3-2.3
		L42.4,56.9z M46.1,54.9l-1.9,0.8c-0.1,1-0.3,1.8-0.5,2.4c0.8-0.4,1.6-0.9,2.2-1.3c-0.3-0.2-0.7-0.4-1-0.6l0.2-0.3
		c0.8,0.4,1.4,0.9,1.8,1.2l-0.2,0.3c-0.2-0.2-0.4-0.4-0.6-0.5c-0.8,0.5-1.7,1.1-2.7,1.6l-0.2-0.2c0.2-0.1,0.3-0.5,0.4-0.9
		c0.1-0.5,0.2-1,0.2-1.6l-1.5,0.6l-0.1-0.3l1.7-0.7l-0.4-1.1l-1.4,0.6L42,54.6l1.4-0.6l-0.4-0.9l0.3-0.1l0.4,0.9l1.4-0.6l0.1,0.3
		l-1.4,0.6l0.4,1.1l1.7-0.7L46.1,54.9z"/>
	<path class="st2" d="M47.4,52.9c0.5,0.1,1,0.4,1.3,0.8c0.1,0.1,0.2,0.3,0.2,0.4c0,0.2-0.1,0.3-0.4,0.5c-0.1,0-0.1,0.1-0.2,0.1
		L48,54.6l0.3-0.2c0.2-0.1,0.2-0.2,0.3-0.3c0-0.1,0-0.1-0.1-0.2c-0.3-0.4-0.7-0.6-1.3-0.7c-0.1-0.4-0.3-0.9-0.5-1.5L46,52.3l2.9,3.8
		l-0.3,0.2l-3.1-4.1l1.3-1l0.2,0.2C47.1,52,47.3,52.4,47.4,52.9z M50.7,50.4l-0.3,0.2l-0.5-0.7l-2.1,1.6l0.5,0.7L48,52.4l-0.7-1
		l1.2-0.9c-0.1-0.1-0.3-0.2-0.5-0.3l0.2-0.3c0.2,0.1,0.4,0.2,0.6,0.4l1.2-0.9L50.7,50.4z M50.3,50.8l-1.7,1.3l-0.2-0.2l1.7-1.3
		L50.3,50.8z M52.2,52.1c0.2,0.3,0.3,0.5,0.4,0.6c0.1,0.2,0.1,0.3,0,0.4s-0.2,0.3-0.4,0.4c-0.3,0.2-0.5,0.2-0.7,0l-1.1-1.5l-0.6,0.4
		c0.4,0.6,0.6,1,0.6,1.4s-0.1,0.8-0.4,1.3l-0.4-0.1c0.3-0.4,0.4-0.8,0.4-1.2c0-0.4-0.2-0.8-0.5-1.3l-0.8,0.6l-0.2-0.2l2.7-2l0.2,0.2
		l-0.8,0.6l1.1,1.4c0,0,0,0,0.1,0c0,0,0.1,0,0.3-0.1c0.1-0.1,0.2-0.2,0.2-0.2s0-0.1,0-0.1c0,0,0-0.1-0.1-0.3
		c-0.1-0.1-0.2-0.3-0.3-0.4L52.2,52.1z"/>
</g>
<g>
	<path class="st5" d="M14.7,18.3l-0.3,0.4l-3-2.1l-0.4,0.6l-0.5-0.4l1.2-1.6l0.5,0.4l-0.4,0.6L14.7,18.3z"/>
	<path class="st5" d="M15.1,16.4l0.5,0.9l-0.4,0.4l-2.4-3.9l0.3-0.4l4.1,1.9l-0.4,0.5l-0.9-0.4L15.1,16.4z M13.7,14.3l1,1.6l0.7-0.7
		L13.7,14.3z"/>
	<path class="st5" d="M17.9,14.8l-0.4,0.4l-2.9-3.1l0.4-0.4L17.9,14.8z"/>
	<path class="st5" d="M18.5,12.8l-1.3-3l0.2-0.2l2.5,2.1l-1.3-3l0.5-0.4l1.7,4.2l-0.3,0.3l-2.3-1.9l1.2,2.8L19,13.9L15.6,11l0.5-0.4
		L18.5,12.8z"/>
	<path class="st5" d="M22.1,10.6l0.2,1l-0.5,0.3l-0.8-4.5l0.4-0.2l3.1,3.3l-0.5,0.3L23.3,10L22.1,10.6z M21.6,8.2L22,10l0.9-0.5
		L21.6,8.2z"/>
	<path class="st5" d="M23.4,6.2L23.8,6l2.8,2.4l-1-2.9l0.5-0.2l1.4,4.1l-0.4,0.1l-2.8-2.4l1,2.9l-0.5,0.2L23.4,6.2z"/>
	<path class="st5" d="M31.6,6.1l-0.2-1.7L32,4.3l0.5,4.2l-0.6,0.1l-0.2-1.9l-1.4,0.2l0.2,1.9L30,8.8l-0.5-4.2l0.6-0.1l0.2,1.7
		L31.6,6.1z"/>
	<path class="st5" d="M33.7,8.5l-0.6,0L33,4.3l0.6,0L33.7,8.5z"/>
	<path class="st5" d="M37.4,6.4l0,0.1c0,0.7-0.2,1.2-0.5,1.6c-0.3,0.4-0.7,0.6-1.2,0.5c-0.5,0-0.8-0.3-1.1-0.7s-0.4-1-0.3-1.6
		c0-0.6,0.2-1.2,0.6-1.6s0.7-0.6,1.2-0.6c0.6,0,1,0.4,1.2,1.1l-0.5,0.3c-0.1-0.5-0.4-0.8-0.8-0.8c-0.3,0-0.6,0.1-0.8,0.4
		C35,5.6,34.9,6,34.8,6.4c0,0.4,0,0.8,0.2,1.1s0.4,0.5,0.7,0.5c0.3,0,0.5-0.1,0.6-0.3c0.2-0.2,0.3-0.5,0.3-0.8l-0.8-0.1l0-0.6
		L37.4,6.4z"/>
	<path class="st5" d="M40.1,6.7L40.5,5L41,5.1l-0.9,4.2l-0.5-0.1L40,7.3L38.6,7l-0.4,1.9l-0.6-0.1l0.9-4.2l0.6,0.1l-0.4,1.7
		L40.1,6.7z"/>
	<path class="st5" d="M45.9,8c-0.1-0.4-0.2-0.6-0.5-0.7c-0.3-0.1-0.6-0.1-0.9,0.1c-0.3,0.2-0.6,0.5-0.7,0.9
		c-0.2,0.4-0.2,0.7-0.2,1.1c0.1,0.4,0.2,0.6,0.5,0.7c0.3,0.1,0.6,0.1,0.9-0.1l-0.4,0.8c-0.3,0-0.6,0-0.8-0.1
		c-0.4-0.2-0.7-0.5-0.8-1.1c-0.1-0.5,0-1.1,0.2-1.6c0.3-0.6,0.6-1,1.1-1.3c0.5-0.3,0.9-0.3,1.3-0.1c0.2,0.1,0.4,0.3,0.6,0.5L45.9,8z
		"/>
	<path class="st5" d="M46,9.3c0.3-0.5,0.7-0.9,1.2-1.1C47.8,8,48.2,8,48.6,8.3s0.6,0.6,0.7,1.2c0,0.5-0.1,1.1-0.4,1.6
		c-0.3,0.5-0.7,0.9-1.2,1.1s-0.9,0.2-1.4-0.1c-0.4-0.3-0.6-0.6-0.7-1.2C45.6,10.4,45.7,9.9,46,9.3z M46.6,9.6
		c-0.2,0.4-0.3,0.7-0.3,1.1c0,0.4,0.1,0.6,0.4,0.8c0.3,0.2,0.6,0.2,0.9,0s0.6-0.4,0.8-0.8c0.2-0.4,0.3-0.7,0.3-1.1s-0.2-0.6-0.4-0.8
		c-0.3-0.2-0.6-0.2-0.9,0C47.1,9,46.8,9.2,46.6,9.6z"/>
	<path class="st5" d="M50.8,9.9l0.4,0.4l-1.5,1.8c-0.6,0.7-0.7,1.2-0.4,1.5s0.8,0.1,1.4-0.6l1.5-1.8l0.4,0.4l-1.6,2
		c-0.8,0.9-1.5,1.1-2.1,0.6c-0.6-0.5-0.6-1.3,0.2-2.2L50.8,9.9z"/>
	<path class="st5" d="M51.9,16.7l-0.5-0.5l0.7-2l-1.4,1.3l-0.4-0.4l3.1-2.9l0.6,0.6c0.5,0.5,0.5,1.1-0.2,1.7
		c-0.2,0.2-0.5,0.4-0.7,0.4c-0.2,0.1-0.5,0-0.6-0.1L51.9,16.7z M52.4,14l0.1,0.1c0.3,0.3,0.7,0.3,1,0c0.4-0.3,0.4-0.7,0.1-1L53.5,13
		L52.4,14z"/>
	<path class="st5" d="M52.8,17.8l-0.3-0.4l2.9-2.2l-0.5-0.6l0.5-0.4l1.2,1.6l-0.5,0.4l-0.5-0.6L52.8,17.8z"/>
</g>
<path class="st1" d="M4.3,42.8"/>
</svg>
