<?xml version="1.0" encoding="utf-8"?>
<!-- Generator: Adobe Illustrator 24.0.2, SVG Export Plug-In . SVG Version: 6.00 Build 0)  -->
<svg version="1.1" id="圖層_1" xmlns="http://www.w3.org/2000/svg" xmlns:xlink="http://www.w3.org/1999/xlink" x="0px" y="0px"
	 viewBox="0 0 220 64" style="enable-background:new 0 0 220 64;" xml:space="preserve">
<style type="text/css">
	.st0{fill:#333333;}
	.st1{fill:none;stroke:#FFFFFF;stroke-width:0.25;stroke-miterlimit:10;}
	.st2{fill:#FFFFFF;}
	.st3{fill:url(#SVGID_1_);}
	.st4{fill:#005BAB;}
	.st5{fill:#B7A246;}
</style>
<g>
	<path class="st0" d="M88.8,14.2v1.5h-9.4v1H87V18H69.7v-1.4h7.4v-1h-9.2v-1.5h9.2v-1.3h2.3v1.3L88.8,14.2L88.8,14.2z M79.4,32.8
		h9.4v1.6H67.9v-1.6h9.2v-1.1h-6.9v-1.4h6.9v-1c-4.4,0.1-5.1,0.2-5.6,0.3c-0.1-0.3-0.3-1.1-0.5-1.5c0.4,0,0.8-0.1,1.3-0.3
		c0.3-0.1,1.2-0.5,2-1h-3.7v-1.3h15.2v1.3h-2.3c1.2,0.7,2.3,1.5,3.1,2.1L85.3,30c-0.3-0.3-0.7-0.6-1.2-1l-4.7,0.1v1h7.2v1.4h-7.2
		C79.4,31.5,79.4,32.8,79.4,32.8z M68.3,23.3h20.2v3.5h-2.1v-2H70.3v2h-2V23.3z M86.1,18.9v3.5H70.7v-3.5H86.1z M83.9,20.1H72.8v1.2
		h11.1C83.9,21.3,83.9,20.1,83.9,20.1z M76.9,26.9c-0.7,0.5-1.4,0.8-2.1,1.2l7.6-0.1c-0.5-0.3-1.1-0.6-1.6-0.9L81,27h-4.1V26.9z"/>
	<path class="st0" d="M95.8,23.5c-0.7-0.8-2.2-1.8-3.4-2.5l1.2-1.5c1.2,0.6,2.8,1.6,3.5,2.3L95.8,23.5z M92.9,33.5
		c0.9-1.8,2.1-4.9,3-7.6l1.8,1.2c-0.8,2.5-1.8,5.4-2.8,7.6L92.9,33.5z M96.2,17.3c-0.6-0.8-2.1-1.9-3.3-2.7l1.3-1.5
		c1.2,0.6,2.7,1.7,3.4,2.4L96.2,17.3z M99.1,21.9c-0.2,1.2-0.6,2.4-1,3.2c-0.2-0.2-0.7-0.5-1-0.7c0.5-0.8,0.7-1.8,0.9-2.8L99.1,21.9
		z M102.2,20.9c0-0.2-0.1-0.5-0.2-0.7c-3.1,0.4-3.7,0.5-4.1,0.7c-0.1-0.2-0.3-0.7-0.5-1c0.4,0,0.7-0.4,1.1-0.8
		c0.2-0.2,0.8-0.9,1.3-1.7c-1.4,0.1-1.8,0.2-2.1,0.3c-0.1-0.2-0.3-0.8-0.5-1c0.3,0,0.5-0.3,0.8-0.6c0.2-0.4,1.1-1.7,1.4-3l1.3,0.5
		c-0.4,0.9-1,1.9-1.6,2.7l1.4-0.1c0.2-0.4,0.4-0.7,0.6-1.1l1.3,0.5c-0.8,1.3-1.8,2.6-2.8,3.7l1.8-0.2c-0.1-0.2-0.3-0.5-0.4-0.7
		l1-0.4c0.5,0.7,0.9,1.8,1.1,2.4L102.2,20.9z M113.5,30c0,0,0,0.6-0.1,0.8c-0.4,2-0.9,3-1.5,3.5c-0.6,0.4-1.1,0.5-2,0.6
		c-0.7,0-2.2,0-3.7-0.1c0-0.5-0.3-1.2-0.6-1.7c1.5,0.1,3,0.2,3.6,0.2c0.5,0,0.8,0,1-0.2c0.3-0.2,0.6-0.8,0.9-1.7H98.7
		c0.4-1.1,0.8-2.5,1.1-3.8h10.5v-1H99v-1.3h13.4V29h-10.8l-0.3,1H113.5z M99.9,24.7c0-0.8-0.2-2-0.5-2.9l1.1-0.3
		c0.3,0.9,0.5,2,0.6,2.8L99.9,24.7z M102,24.1c-0.1-0.7-0.4-1.8-0.7-2.6l1-0.3c0.4,0.8,0.7,1.8,0.8,2.5L102,24.1z M108.6,16.5h-5.7
		v-1.2h2.4c-0.2-0.5-0.6-1.3-0.8-1.8l1.5-0.3c0.4,0.6,0.8,1.4,1,1.9l-1.1,0.3h2.8v1.1C108.7,16.5,108.6,16.5,108.6,16.5z
		 M103.5,20.9h4.5v3.5h-4.5V20.9z M108,18.4h-4.5v-1.1h4.5V18.4z M103.5,19h4.5v1.1h-4.5V19z M104.9,23.4h1.7v-1.3h-1.7V23.4z
		 M110.2,21.8c-0.2,1.2-0.6,2.4-1,3.2c-0.2-0.2-0.7-0.6-1-0.7c0.5-0.8,0.7-1.8,0.9-2.8L110.2,21.8z M113.4,20.9
		c-0.1-0.2-0.2-0.5-0.3-0.8c-3.1,0.4-3.7,0.6-4.1,0.7c-0.1-0.2-0.3-0.7-0.5-1c0.3,0,0.7-0.3,1.1-0.8c0.2-0.2,0.8-0.9,1.3-1.7
		c-1.4,0.1-1.8,0.2-2.1,0.3c-0.1-0.2-0.3-0.8-0.5-1c0.3,0,0.5-0.3,0.8-0.6c0.2-0.3,1.1-1.7,1.4-3l1.3,0.5c-0.4,0.9-1,1.9-1.5,2.7
		l1.4-0.1c0.2-0.4,0.4-0.7,0.6-1.1l1.3,0.6c-0.8,1.3-1.7,2.6-2.8,3.7l1.8-0.2c-0.1-0.2-0.3-0.5-0.4-0.7l1-0.4c0.5,0.8,1,1.8,1.2,2.5
		L113.4,20.9z M111.1,24.9c0-0.8-0.2-2.1-0.5-3.1l1.1-0.3c0.3,1,0.5,2.2,0.6,3L111.1,24.9z M113.4,21.1c0.5,1,0.9,2.2,1,3l-1,0.5
		c-0.1-0.8-0.5-2.1-0.9-3.1L113.4,21.1z"/>
	<path class="st0" d="M139.2,15.3v1.9h-20.9v-1.9h9.5c-0.2-0.6-0.5-1.4-0.7-2l2.3-0.5c0.3,0.8,0.7,1.7,0.9,2.5H139.2z M138.5,32.7
		c0,1.1-0.3,1.5-1,1.8s-1.8,0.3-3.5,0.3c-0.1-0.5-0.4-1.2-0.7-1.7c1,0,2.2,0,2.5,0s0.4-0.1,0.4-0.4v-6.5h-15.1v8.7h-2.2V24.4h19.5
		v8.3H138.5z M136.1,18.3v4.9h-14.4v-4.9H136.1z M125.6,32.5v1.1h-2.1v-6.2h10.2v5.1C133.7,32.5,125.6,32.5,125.6,32.5z M133.7,19.9
		h-9.8v1.8h9.8V19.9z M125.6,29v1.8h6.1V29H125.6z"/>
	<path class="st0" d="M146.8,16.4c-0.7,1.1-1.5,2-2.3,2.8c-0.3-0.4-1.1-1.2-1.5-1.5c1.5-1.2,2.9-3.1,3.6-4.9l2,0.6
		c-0.2,0.4-0.4,0.8-0.6,1.2h5.8v1.9h-4c0.7,0.6,1.5,1.3,1.9,1.9l-1.4,1.3c-0.5-0.6-1.6-1.7-2.4-2.4l0.8-0.7h-1.9L146.8,16.4
		L146.8,16.4z M159.8,27.3h4.6v1.8h-4.6v3.6c0,1.1-0.3,1.7-1.2,1.9c-0.9,0.3-2.3,0.3-4.3,0.3c-0.1-0.6-0.4-1.3-0.6-1.8
		c1.4,0.1,2.9,0,3.3,0c0.4,0,0.5-0.1,0.5-0.5v-3.5h-8.6c1.3,1,3,2.5,3.8,3.4l-1.7,1.3c-0.8-0.9-2.5-2.5-3.8-3.6l1.5-1.1h-5.4v-1.8
		h14.2v-1.5h2.3V27.3z M164.9,14.5v1.9h-4.8c0.7,0.7,1.5,1.5,1.9,2.1l-1.5,1.3c-0.4-0.7-1.4-1.8-2.2-2.6l1-0.8h-2.2
		c-0.6,1.1-1.3,2.1-2,2.9l-0.1-0.1v0.7h8.6v1.9h-8.5v1.8h7.2v1.8h-16.8v-1.8h7.3v-1.8h-8.5v-1.9h8.5v-1.3h1.5
		c-0.3-0.2-0.6-0.5-0.8-0.6c1.3-1.3,2.4-3.3,3-5.3l2,0.5c-0.1,0.5-0.3,0.9-0.5,1.3H164.9z"/>
	<path class="st0" d="M172.6,23.8c-0.9-0.8-2.9-1.9-4.4-2.6l1.2-1.7c1.5,0.6,3.5,1.6,4.5,2.4L172.6,23.8z M169,33.1
		c1.3-1.8,3.1-4.9,4.5-7.6l1.6,1.5c-1.2,2.5-2.8,5.4-4.2,7.6L169,33.1z M170.8,13.1c1.5,0.6,3.5,1.7,4.5,2.4l-1.3,1.8
		c-0.9-0.8-2.9-2-4.5-2.7L170.8,13.1z M187.8,34.9c-0.2-0.6-0.5-1.4-1-2.3c-8.5,1-9.6,1.2-10.3,1.6c-0.1-0.5-0.5-1.6-0.8-2.2
		c0.5-0.1,1-0.7,1.5-1.6c0.5-0.7,1.9-3,3-5.5h-4.9v-2.1h5.9v-3.9h-4.9v-2.1h4.9v-3.9h2.3v3.9h5.1v2.1h-5.1v3.9h6v2.1h-6.6
		c-1.1,2.4-2.5,4.7-3.8,6.6l6.7-0.7c-0.6-1-1.2-1.9-1.9-2.8l1.8-0.9c1.7,2.1,3.4,4.9,4.1,6.8L187.8,34.9z"/>
	<path class="st0" d="M201.4,14.6c-0.7,2-1.5,4.3-2.2,6.2c1.6,2,1.9,3.7,1.9,5.1s-0.3,2.4-1,2.9c-0.4,0.3-0.8,0.4-1.3,0.5
		c-0.4,0-1,0-1.6,0c0-0.6-0.2-1.4-0.5-1.9c0.5,0,0.9,0,1.2,0s0.5-0.1,0.7-0.2c0.3-0.3,0.5-0.9,0.5-1.6c0-1.2-0.4-2.8-2-4.6
		c0.6-1.6,1.2-3.6,1.7-5.2h-2.6v19h-2v-21h5.4l0.3-0.1L201.4,14.6z M213.1,32.7c0.5,0,0.6-0.4,0.6-3c0.5,0.4,1.3,0.7,1.9,0.8
		c-0.2,3.2-0.7,4-2.2,4h-1.9c-1.8,0-2.3-0.6-2.3-2.6v-5.7h-2.1c-0.4,4.2-1.5,7-6.1,8.6c-0.2-0.6-0.8-1.4-1.3-1.8
		c4-1.3,4.9-3.4,5.2-6.8h-3.1v-2h13.5v2h-4v5.6c0,0.6,0.1,0.7,0.5,0.7h1.3L213.1,32.7L213.1,32.7z M203.5,20.2h-1.9v-4.4h5.8
		c-0.3-0.8-0.7-1.8-1.1-2.5l2.1-0.6c0.6,1,1.2,2.2,1.5,3.1h5.2v4.4h-1.9V22h-9.7V20.2L203.5,20.2z M203.7,17.7V20h9.3v-2.4h-9.3
		V17.7z"/>
</g>
<g>
	<path class="st0" d="M69,40.8v-1.1h6.2v1.1h-2.5V51h-1.2V40.8H69z"/>
	<path class="st0" d="M85.4,42.7v8.4h-1.1v-1.4c-0.5,0.6-1,1-1.5,1.2c-0.6,0.3-1.2,0.4-1.8,0.4c-1.2,0-2.2-0.4-3-1.3
		s-1.3-1.9-1.3-3.1c0-1.2,0.4-2.2,1.3-3.1c0.8-0.9,1.9-1.3,3.1-1.3c0.7,0,1.3,0.1,1.9,0.4c0.6,0.3,1,0.7,1.5,1.3v-1.5
		C84.5,42.7,85.4,42.7,85.4,42.7z M81.1,43.5c-0.6,0-1.2,0.1-1.7,0.4c-0.5,0.3-0.9,0.7-1.2,1.2c-0.3,0.5-0.5,1.1-0.5,1.7
		c0,0.6,0.2,1.2,0.5,1.7s0.7,1,1.2,1.3s1.1,0.5,1.6,0.5c0.6,0,1.2-0.1,1.7-0.4s0.9-0.7,1.2-1.2s0.4-1.1,0.4-1.7c0-1-0.3-1.8-1-2.4
		C82.8,43.8,82,43.5,81.1,43.5z"/>
	<path class="st0" d="M88.6,39.2c0.2,0,0.5,0.1,0.6,0.3c0.2,0.2,0.3,0.4,0.3,0.6c0,0.2-0.1,0.5-0.3,0.6c-0.1,0.2-0.3,0.3-0.6,0.3
		c-0.2,0-0.4-0.1-0.6-0.3s-0.3-0.4-0.3-0.6c0-0.2,0.1-0.5,0.3-0.6C88.2,39.3,88.4,39.2,88.6,39.2z M88.1,42.7h1.1v8.4h-1.1V42.7z"/>
	<path class="st0" d="M90.7,42.7h1.1l2.6,6.1l2.7-6.1h0.2l2.7,6.1l2.6-6.1h1.1l-3.6,8.4h-0.2l-2.7-6l-2.7,6h-0.2L90.7,42.7z"/>
	<path class="st0" d="M113.7,42.7v8.4h-1.1v-1.4c-0.5,0.6-1,1-1.5,1.2c-0.6,0.3-1.2,0.4-1.8,0.4c-1.2,0-2.2-0.4-3-1.3
		s-1.3-1.9-1.3-3.1c0-1.2,0.4-2.2,1.3-3.1c0.8-0.9,1.9-1.3,3.1-1.3c0.7,0,1.3,0.1,1.9,0.4c0.6,0.3,1,0.7,1.5,1.3v-1.5
		C112.8,42.7,113.7,42.7,113.7,42.7z M109.4,43.5c-0.6,0-1.2,0.1-1.7,0.4c-0.5,0.3-0.9,0.7-1.2,1.2c-0.3,0.5-0.5,1.1-0.5,1.7
		c0,0.6,0.2,1.2,0.5,1.7s0.7,1,1.2,1.3s1.1,0.5,1.6,0.5c0.6,0,1.2-0.1,1.7-0.4s0.9-0.7,1.2-1.2s0.4-1.1,0.4-1.7c0-1-0.3-1.8-1-2.4
		C111.1,43.8,110.3,43.5,109.4,43.5z"/>
	<path class="st0" d="M116.5,42.7h1.1v1.5c0.4-0.6,0.9-1,1.4-1.3s1.1-0.4,1.7-0.4s1.2,0.2,1.7,0.5s0.8,0.7,1.1,1.3s0.3,1.4,0.3,2.5
		v4.3h-1.1v-4c0-1,0-1.6-0.1-1.9c-0.1-0.6-0.4-1-0.7-1.3c-0.4-0.3-0.8-0.4-1.4-0.4c-0.7,0-1.2,0.2-1.8,0.6c-0.5,0.4-0.9,1-1,1.6
		c-0.1,0.4-0.2,1.2-0.2,2.3v3.1h-1.1L116.5,42.7L116.5,42.7z"/>
	<path class="st0" d="M131.5,39.7h1.1v4.8h5.8v-4.8h1.1V51h-1.1v-5.5h-5.8V51h-1.1V39.7z"/>
	<path class="st0" d="M142.9,39.2c0.2,0,0.5,0.1,0.6,0.3c0.2,0.2,0.3,0.4,0.3,0.6c0,0.2-0.1,0.5-0.3,0.6c-0.2,0.2-0.4,0.3-0.6,0.3
		c-0.2,0-0.4-0.1-0.6-0.3c-0.2-0.2-0.3-0.4-0.3-0.6c0-0.2,0.1-0.5,0.3-0.6C142.4,39.3,142.6,39.2,142.9,39.2z M142.3,42.7h1.1v8.4
		h-1.1V42.7z"/>
	<path class="st0" d="M153.3,42.7h1.1v6.7c0,1.2-0.1,2-0.3,2.6c-0.3,0.8-0.8,1.4-1.5,1.8c-0.7,0.4-1.5,0.6-2.5,0.6
		c-0.7,0-1.4-0.1-1.9-0.3c-0.6-0.2-1-0.5-1.4-0.8s-0.7-0.8-1-1.5h1.2c0.3,0.6,0.7,1,1.2,1.2c0.5,0.3,1.1,0.4,1.9,0.4
		c0.7,0,1.4-0.1,1.9-0.4c0.5-0.3,0.9-0.6,1.1-1c0.2-0.4,0.3-1.1,0.3-2v-0.4c-0.4,0.5-0.9,0.9-1.5,1.2s-1.2,0.4-1.9,0.4
		c-0.8,0-1.5-0.2-2.2-0.6c-0.7-0.4-1.2-0.9-1.6-1.5c-0.4-0.6-0.6-1.4-0.6-2.1c0-0.8,0.2-1.5,0.6-2.2c0.4-0.7,0.9-1.2,1.6-1.6
		c0.7-0.4,1.4-0.6,2.2-0.6c0.6,0,1.2,0.1,1.8,0.4c0.5,0.3,1.1,0.7,1.6,1.3v-1.6C153.4,42.7,153.3,42.7,153.3,42.7z M150.1,43.5
		c-0.6,0-1.2,0.1-1.7,0.4s-0.9,0.7-1.2,1.2s-0.4,1.1-0.4,1.7c0,0.9,0.3,1.7,0.9,2.3s1.4,0.9,2.4,0.9s1.8-0.3,2.4-0.9
		c0.6-0.6,0.9-1.4,0.9-2.4c0-0.6-0.1-1.2-0.4-1.7c-0.3-0.5-0.7-0.9-1.2-1.2C151.2,43.6,150.7,43.5,150.1,43.5z"/>
	<path class="st0" d="M157.1,39.4h1.1v4.7c0.4-0.6,0.9-1,1.4-1.3s1.1-0.4,1.7-0.4c0.6,0,1.2,0.2,1.7,0.5s0.8,0.7,1.1,1.3
		s0.3,1.4,0.3,2.5V51h-1.1v-4c0-1,0-1.6-0.1-1.9c-0.1-0.6-0.4-1-0.7-1.3c-0.4-0.3-0.8-0.4-1.4-0.4c-0.7,0-1.2,0.2-1.8,0.6
		c-0.5,0.4-0.9,1-1,1.6c-0.1,0.4-0.2,1.2-0.2,2.3V51h-1V39.4z"/>
	<path class="st0" d="M182.6,41.8l-0.9,0.7c-0.5-0.6-1.1-1.1-1.8-1.5c-0.7-0.3-1.5-0.5-2.3-0.5c-0.9,0-1.7,0.2-2.5,0.7
		s-1.4,1-1.8,1.8c-0.4,0.7-0.6,1.6-0.6,2.5c0,1.4,0.5,2.5,1.4,3.5s2.1,1.4,3.6,1.4c1.6,0,2.9-0.6,4-1.9l0.9,0.7
		c-0.6,0.7-1.3,1.3-2.1,1.7s-1.8,0.6-2.8,0.6c-2,0-3.6-0.7-4.7-2c-1-1.1-1.4-2.5-1.4-4c0-1.7,0.6-3.1,1.7-4.2s2.6-1.7,4.4-1.7
		c1.1,0,2,0.2,2.9,0.6C181.4,40.5,182.1,41.1,182.6,41.8z"/>
	<path class="st0" d="M189.1,42.5c1.3,0,2.4,0.5,3.2,1.4s1.2,1.9,1.2,3c0,1.2-0.4,2.2-1.2,3.1c-0.8,0.9-1.9,1.3-3.1,1.3
		c-1.3,0-2.3-0.4-3.2-1.3c-0.8-0.9-1.2-1.9-1.2-3.1c0-1.2,0.4-2.2,1.2-3C186.7,42.9,187.8,42.5,189.1,42.5z M189.1,43.5
		c-0.9,0-1.7,0.3-2.3,1s-1,1.5-1,2.4c0,0.6,0.1,1.2,0.4,1.7c0.3,0.5,0.7,0.9,1.2,1.2s1.1,0.4,1.6,0.4s1.1-0.1,1.6-0.4
		c0.5-0.3,0.9-0.7,1.2-1.2s0.4-1.1,0.4-1.7c0-0.9-0.3-1.7-1-2.4C190.8,43.9,190,43.5,189.1,43.5z"/>
	<path class="st0" d="M195.7,42.7h1.1v3.9c0,1,0.1,1.6,0.2,2c0.2,0.5,0.5,0.9,0.9,1.2s1,0.4,1.6,0.4s1.1-0.1,1.5-0.4
		c0.4-0.3,0.7-0.7,0.9-1.1c0.1-0.3,0.2-1,0.2-2.1v-3.9h1.1v4.1c0,1.2-0.1,2-0.4,2.6c-0.3,0.6-0.7,1-1.2,1.4c-0.5,0.3-1.2,0.5-2,0.5
		s-1.5-0.2-2-0.5s-1-0.8-1.2-1.4c-0.3-0.6-0.4-1.5-0.4-2.7v-4H195.7z"/>
	<path class="st0" d="M205.5,42.7h1.1v1.2c0.3-0.5,0.7-0.8,1-1.1s0.7-0.4,1.1-0.4c0.3,0,0.6,0.1,1,0.3l-0.6,0.9
		c-0.2-0.1-0.4-0.1-0.6-0.1c-0.4,0-0.7,0.1-1,0.4c-0.3,0.3-0.6,0.8-0.8,1.4c-0.1,0.5-0.2,1.4-0.2,2.9V51h-1.1v-8.3H205.5z"/>
	<path class="st0" d="M211.9,39.6h1.1v3.1h1.7v0.9H213v7.5h-1.1v-7.5h-1.5v-0.9h1.5V39.6z"/>
</g>
<path class="st1" d="M132.5,40.9"/>
<g>
	<circle class="st2" cx="31.1" cy="31.1" r="30.3"/>
</g>
<linearGradient id="SVGID_1_" gradientUnits="userSpaceOnUse" x1="31.045" y1="26.4714" x2="31.045" y2="3.2156" gradientTransform="matrix(1 0 0 1 0 34)">
	<stop  offset="0.6854" style="stop-color:#B7A246"/>
	<stop  offset="1" style="stop-color:#FFFFFF"/>
</linearGradient>
<path class="st3" d="M59.9,37.5c-3,13-14.9,23-28.8,23S5.2,50.3,2.2,37.2h7.4c2.8,9,11.5,16.1,21.5,16.1s18.6-6.8,21.4-15.8H59.9z"
	/>
<g>
	<path class="st4" d="M52,31c0,11.6-9.4,21-21,21s-21-9.4-21-21s9.4-21,21-21S52,19.4,52,31z"/>
</g>
<g>
	<path class="st2" d="M32.7,33.5h-0.5h-2.8v8.2c0,0.9,0.8,1.7,1.7,1.7s1.6-0.8,1.6-1.7V33.5z"/>
	<path class="st2" d="M34,43.7h-5.9c-0.4,0-0.8,0.3-0.8,0.6v0.8c0,0.4,0.3,0.7,0.8,0.7h5.8c0.4,0,0.8-0.3,0.8-0.7v-0.8
		C34.7,44,34.4,43.7,34,43.7z"/>
	<path class="st2" d="M35.1,46.6h-8c-0.6,0-1,0.3-1,0.7V48c0,0.4,0.4,0.7,1,0.7h8c0.6,0,1-0.3,1-0.7v-0.8
		C36.1,46.9,35.7,46.6,35.1,46.6z"/>
	<path class="st2" d="M47.3,23c0-0.3-0.2-0.5-0.4-0.6c-0.4-0.3-1-0.2-1.4,0.1c-1.1,1.1-2.7,1.7-4.4,1.7s-3.2-0.6-4.3-1.6
		c-1.5-1.3-3.5-2.1-5.7-2.1c-2.1,0-4.1,0.7-5.5,1.9l0,0l-0.2,0.2l0,0c-1.1,1.1-2.7,1.7-4.4,1.7c-1.7,0-3.3-0.6-4.4-1.7
		c-0.2-0.2-0.4-0.3-0.7-0.3c-0.2,0-0.5,0-0.7,0.2s-0.4,0.4-0.4,0.6l0,0v0.1c0,0.2,0.1,0.4,0.3,0.6c1.5,1.4,3.6,2.3,5.9,2.3
		c2.1,0,4-0.7,5.5-1.9l0,0l0,0l0.1-0.1c1.1-1.1,2.7-1.7,4.4-1.7c1.7,0,3.2,0.6,4.3,1.6c1.4,1.3,3.5,2.1,5.7,2.1
		c2.3,0,4.4-0.8,5.9-2.3C47.2,23.5,47.3,23.3,47.3,23L47.3,23z M47.3,23L47.3,23L47.3,23L47.3,23z"/>
	<path class="st2" d="M34.5,16.7c0,1.9-1.5,3.5-3.5,3.5c-1.9,0-3.4-1.5-3.4-3.5c0-1.9,1.5-3.5,3.4-3.5C33,13.3,34.5,14.8,34.5,16.7z
		"/>
	<path class="st2" d="M26,38.1l-5.3-12c-0.1-0.2-0.3-0.3-0.5-0.3s-0.4,0.1-0.5,0.4l0,0l-5.3,12c-0.1,0.2-0.1,0.4,0,0.6
		c1,1.9,3.3,3.2,5.8,3.2s4.8-1.2,5.8-3.2C26.1,38.5,26.1,38.3,26,38.1z M20.1,27.8c0.3,0.7,4.3,9.8,4.6,10.4h-9.2
		c0.2-0.5,3.1-7,3.1-7S19.9,28.5,20.1,27.8z"/>
	<path class="st2" d="M47.9,38.1l-5.3-12c-0.1-0.2-0.3-0.3-0.5-0.3s-0.4,0.1-0.5,0.4l0,0l-5.3,12c-0.1,0.2-0.1,0.4,0,0.6
		c1,1.9,3.3,3.2,5.8,3.2s4.8-1.2,5.8-3.2C48,38.5,48,38.3,47.9,38.1z M42.1,27.8c0.3,0.7,4.3,9.8,4.6,10.4h-9.2c0.2-0.4,2-4.5,2-4.5
		S41.8,28.5,42.1,27.8z"/>
	<path class="st2" d="M36.7,25.1c-1,0-0.9,0.9-0.9,0.9h-1.2v-0.5h-7V26h-1.2c0,0,0.1-0.9-0.9-0.9c0,0-0.8,0-0.8,1v4.4
		c0,1.1,0.8,1,0.8,1c1,0,0.9-0.9,0.9-0.9h1.2v0.5h1.8v1.6h3.3v-1.6h1.9v-0.5h1.2c0,0-0.1,0.9,0.9,0.9c0,0,0.8,0,0.8-1v-4.4
		C37.4,25.1,36.7,25.1,36.7,25.1z"/>
</g>
<g>
	<path class="st2" d="M16.7,55.5l-4.3-3.2l0.2-0.2l2,1.5l0.2-0.3L13,52l0.1-0.2l1.7,1.3l0.2-0.3c-0.2-0.2-0.8-0.6-1.5-1.1l0.1-0.2
		c0.3,0.2,0.7,0.3,1.1,0.3l-0.6-0.5l0.1-0.2l3,2.3l-0.1,0.2l-0.3-0.3c0.1,0.3,0.1,0.6,0.1,0.9h-0.3c0-0.1,0-0.3,0-0.4
		c-0.6-0.4-1-0.7-1.2-0.8l-0.2,0.3l1.7,1.3l-0.1,0.2l-1.7-1.3l-0.2,0.3l2,1.5L16.7,55.5z M17.7,54l-0.3-0.2l0.3-0.5l-3.6-2.7
		L13.9,51l-0.3-0.2l0.5-0.6l4.1,3.1L17.7,54z M16.6,53.5c0-0.1,0-0.2,0-0.3h0.2l-1.5-1.1c-0.3,0-0.6,0-0.8-0.1
		C14.8,52.3,15.5,52.8,16.6,53.5z M17.9,52.7l-3.2-2.4l0.5-0.7l3.2,2.4L17.9,52.7z M19.5,51.8l-2-1.5l-0.2,0.2l1.8,1.3L18.9,52
		l-3.8-2.8l0.2-0.2l1.8,1.3l0.2-0.2l-2-1.5l0.2-0.2l2,1.5l0.2-0.2l0.3,0.2l-0.2,0.2l2,1.5L19.5,51.8z M17.8,52.3L18,52l-2.6-2
		l-0.2,0.3L17.8,52.3z"/>
	<path class="st2" d="M19.9,55c-0.5,0.6-1,1-1.5,1.5l-0.2-0.3c0.5-0.4,1-0.9,1.5-1.5L19.9,55z M20.2,53.9L20,54
		c-0.1-0.3-0.3-0.6-0.5-1l0.3-0.1C20,53.3,20.1,53.6,20.2,53.9z M23.4,57.4l-0.3,0.5c0,0.1-0.1,0.1-0.2,0.2c-0.1,0-0.2,0-0.4,0
		l-1.3-0.5v-0.3l1.4,0.6c0.1,0,0.2,0,0.3-0.1l0.1-0.2l-3.4-1.3l0.6-0.7l2.9,1.1l0.1-0.3L20.1,55l0.1-0.2l3.5,1.4L23.3,57l-2.9-1.2
		l-0.3,0.3L23.4,57.4z M20.7,54.1c-0.1,0.2-0.3,0.4-0.4,0.5l-0.2-0.2c0.2-0.2,0.3-0.3,0.4-0.5L20.7,54.1z M20.9,52.6l-0.3,0.1
		c-0.1-0.3-0.3-0.6-0.5-1l0.3-0.1C20.6,51.9,20.7,52.2,20.9,52.6z M21.8,54.2h-0.3c0,0,0-0.1,0-0.2c-0.3-0.1-0.7-0.1-1-0.2v-0.2
		c0.4-0.2,0.7-0.3,0.9-0.4C21.1,53.1,21,53,20.9,53v-0.2c0.4-0.2,0.8-0.4,1-0.6l0.2,0.2c-0.2,0.2-0.5,0.3-0.8,0.5
		c0.2,0.1,0.3,0.1,0.5,0.1c0.1,0,0.2-0.1,0.3-0.2l0.2,0.2c-0.3,0.2-0.7,0.4-1.2,0.6c0.2,0,0.3,0.1,0.5,0.1c0-0.1,0-0.1,0-0.2h0.3
		C21.8,53.7,21.8,53.9,21.8,54.2z M20.9,54.8l-0.2-0.1c0.1-0.2,0.1-0.5,0.1-0.6l0.3,0.1C21,54.5,20.9,54.7,20.9,54.8z M21.4,54.9
		h-0.3c0-0.2,0.1-0.4,0.1-0.6h0.3C21.5,54.5,21.5,54.7,21.4,54.9z M22.6,55.5l-1-0.4l0.3-0.8l1,0.4L22.6,55.5z M22.5,55.1l0.1-0.4
		l-0.5-0.1L22,55L22.5,55.1z M23,54.4L22,54l0.1-0.2l1,0.4L23,54.4z M23.2,53.9l-1-0.4l0.1-0.2l1,0.4L23.2,53.9z M23.6,53.5L22.3,53
		l0.1-0.2L23,53c0-0.1,0-0.2,0-0.4h0.3c0,0.1,0,0.3,0,0.5l0.5,0.2L23.6,53.5z M23.3,55.1c-0.1,0.2-0.2,0.4-0.4,0.6l-0.2-0.2
		c0.1-0.1,0.3-0.3,0.4-0.6L23.3,55.1z M24.5,55.3h-0.3c0-0.1,0-0.1,0-0.2c-0.4-0.1-0.8-0.2-1.1-0.2v-0.2c0.3-0.1,0.6-0.2,0.9-0.4
		L23.5,54v-0.2c0.5-0.2,0.9-0.5,1.1-0.6l0.2,0.2c-0.2,0.2-0.5,0.3-0.9,0.5c0.2,0.1,0.4,0.1,0.5,0.1c0.1-0.1,0.2-0.2,0.3-0.2l0.2,0.2
		c-0.3,0.2-0.7,0.4-1.2,0.6c0.1,0,0.3,0.1,0.5,0.1c0-0.1,0-0.1,0-0.2h0.3C24.5,54.9,24.5,55.1,24.5,55.3z M23.7,55.9l-0.3-0.1
		c0.1-0.2,0.1-0.4,0.2-0.6l0.2,0.1C23.8,55.5,23.7,55.7,23.7,55.9z M24.2,56.1h-0.3c0-0.3,0-0.5,0-0.7h0.2
		C24.2,55.6,24.2,55.8,24.2,56.1z"/>
	<path class="st2" d="M30.1,58.9c0,0.1-0.1,0.2-0.2,0.3s-0.3,0.1-0.6,0.1c-0.1,0-0.2,0-0.3,0L28.9,59c0.3,0,0.4,0.1,0.5,0.1
		c0.2,0,0.3,0,0.3-0.2l0.2-1.7l-4.1-0.5l-0.2,2.2h-0.3l0.3-2.5l4.8,0.5L30.1,58.9z M30.8,55l-5.3-0.6v-0.3l2.5,0.3
		c0-0.1,0-0.3-0.1-0.5l0.3-0.1c0.1,0.1,0.1,0.3,0.1,0.6l2.5,0.3V55z M29.7,56.4L26.2,56l0.1-1.1l3.6,0.4L29.7,56.4z M29,58.6
		l-2.6-0.3l0.1-1.2l2.6,0.3L29,58.6z M29.4,56.1l0.1-0.5l-2.9-0.3l-0.1,0.5L29.4,56.1z M28.7,58.3l0.1-0.6l-1.9-0.2l-0.1,0.6
		L28.7,58.3z"/>
	<path class="st2" d="M34.1,54.7l-1.8,0.2c-0.2,0.3-0.4,0.5-0.6,0.7l-0.3-0.2c0.4-0.4,0.7-0.8,0.9-1.4l0.3,0.1
		c-0.1,0.2-0.1,0.3-0.2,0.5l1.6-0.2L34.1,54.7z M37.3,57.2l-1.2,0.2l0.1,0.9c0,0.2,0,0.4-0.1,0.5s-0.3,0.1-0.6,0.2
		c-0.1,0-0.3,0-0.5,0l-0.2-0.3c0.2,0,0.4,0,0.6-0.1c0.2,0,0.3,0,0.4-0.1s0.1-0.1,0.1-0.2l-0.1-1l-4,0.5v-0.3l4-0.5l-0.1-0.6L32.2,57
		v-0.3l2-0.2L34.1,56l-2.3,0.3V56l2.3-0.3v-0.4h0.3v0.4l2.3-0.3v0.3L34.4,56l0.1,0.5l2-0.2v0.3l-0.6,0.1l0.1,0.6l1.1-0.1L37.3,57.2z
		 M33.4,55.4l-0.3,0.2c-0.1-0.1-0.3-0.3-0.5-0.4l0.3-0.2C33.1,55.1,33.2,55.2,33.4,55.4z M34.3,58.6l-0.2,0.2
		c-0.4-0.3-0.7-0.5-1-0.7l0.2-0.2C33.7,58.2,34.1,58.4,34.3,58.6z M36.8,54.3l-2,0.2c-0.1,0.2-0.2,0.3-0.3,0.4l-0.3-0.1
		c0.3-0.4,0.5-0.7,0.7-1.1l0.3,0.1c-0.1,0.2-0.1,0.3-0.2,0.5l1.8-0.2V54.3z M36.1,55.1l-0.3,0.2c-0.1-0.1-0.3-0.3-0.5-0.4l0.3-0.2
		C35.8,54.8,36,54.9,36.1,55.1z"/>
	<path class="st2" d="M38.7,53.6l-0.1,0.3c-0.4-0.2-0.8-0.3-1.3-0.3l0.1-0.3C37.9,53.4,38.3,53.5,38.7,53.6z M39.1,55L39,55.3
		c-0.3-0.1-0.7-0.3-1.3-0.3l0.1-0.3C38.4,54.8,38.9,54.9,39.1,55z M39.5,55.9c0,0.9-0.1,1.7-0.3,2.3l-0.3-0.1
		c0.2-0.6,0.3-1.4,0.3-2.3L39.5,55.9z M43.2,53.9l-1.9,0.8c-0.1,1-0.3,1.8-0.5,2.4c0.8-0.4,1.6-0.9,2.2-1.3c-0.3-0.2-0.7-0.4-1-0.6
		l0.2-0.3c0.8,0.4,1.4,0.9,1.8,1.2l-0.2,0.3c-0.2-0.2-0.4-0.4-0.6-0.5c-0.8,0.5-1.7,1.1-2.7,1.6l-0.2-0.2c0.2-0.1,0.3-0.5,0.4-0.9
		c0.1-0.5,0.2-1,0.2-1.6l-1.5,0.6l-0.1-0.3l1.7-0.7l-0.4-1.1l-1.4,0.6l-0.1-0.3l1.4-0.6l-0.4-0.9l0.3-0.1l0.4,0.9l1.4-0.6l0.1,0.3
		l-1.4,0.6l0.4,1.1l1.7-0.7L43.2,53.9z"/>
	<path class="st2" d="M44.5,51.9c0.5,0.1,1,0.4,1.3,0.8c0.1,0.1,0.2,0.3,0.2,0.4c0,0.2-0.1,0.3-0.4,0.5c-0.1,0-0.1,0.1-0.2,0.1
		l-0.3-0.1l0.3-0.2c0.2-0.1,0.2-0.2,0.3-0.3c0-0.1,0-0.1-0.1-0.2c-0.3-0.4-0.7-0.6-1.3-0.7c-0.1-0.4-0.3-0.9-0.5-1.5l-0.7,0.6
		l2.9,3.8l-0.3,0.2l-3.1-4.1l1.3-1l0.2,0.2C44.2,51,44.4,51.4,44.5,51.9z M47.8,49.4l-0.3,0.2L47,48.9l-2.1,1.6l0.5,0.7l-0.3,0.2
		l-0.7-1l1.2-0.9c-0.1-0.1-0.3-0.2-0.5-0.3l0.2-0.3c0.2,0.1,0.4,0.2,0.6,0.4l1.2-0.9L47.8,49.4z M47.4,49.8l-1.7,1.3l-0.2-0.2
		l1.7-1.3L47.4,49.8z M49.3,51.1c0.2,0.3,0.3,0.5,0.4,0.6c0.1,0.2,0.1,0.3,0,0.4s-0.2,0.3-0.4,0.4c-0.3,0.2-0.5,0.2-0.7,0L47.5,51
		l-0.6,0.4c0.4,0.6,0.6,1,0.6,1.4s-0.1,0.8-0.4,1.3L46.7,54c0.3-0.4,0.4-0.8,0.4-1.2s-0.2-0.8-0.5-1.3l-0.8,0.6l-0.2-0.2l2.7-2
		l0.2,0.2l-0.8,0.6l1.1,1.4c0,0,0,0,0.1,0c0,0,0.1,0,0.3-0.1c0.1-0.1,0.2-0.2,0.2-0.2v-0.1c0,0,0-0.1-0.1-0.3
		c-0.1-0.1-0.2-0.3-0.3-0.4L49.3,51.1z"/>
</g>
<g>
	<path class="st5" d="M11.8,17.3l-0.3,0.4l-3-2.1l-0.4,0.6l-0.5-0.4l1.2-1.6l0.5,0.4l-0.4,0.6L11.8,17.3z"/>
	<path class="st5" d="M12.2,15.4l0.5,0.9l-0.4,0.4l-2.4-3.9l0.3-0.4l4.1,1.9l-0.4,0.5L13,14.4L12.2,15.4z M10.8,13.3l1,1.6l0.7-0.7
		L10.8,13.3z"/>
	<path class="st5" d="M15,13.8l-0.4,0.4l-2.9-3.1l0.4-0.4L15,13.8z"/>
	<path class="st5" d="M15.6,11.8l-1.3-3l0.2-0.2l2.5,2.1l-1.3-3l0.5-0.4l1.7,4.2l-0.3,0.3l-2.3-1.9l1.2,2.8l-0.4,0.2L12.7,10
		l0.5-0.4L15.6,11.8z"/>
	<path class="st5" d="M19.2,9.6l0.2,1l-0.5,0.3l-0.8-4.5l0.4-0.2l3.1,3.3l-0.5,0.3L20.4,9L19.2,9.6z M18.7,7.2L19.1,9L20,8.5
		L18.7,7.2z"/>
	<path class="st5" d="M20.5,5.2L20.9,5l2.8,2.4l-1-2.9l0.5-0.2l1.4,4.1l-0.4,0.1l-2.8-2.4l1,2.9l-0.5,0.2L20.5,5.2z"/>
	<path class="st5" d="M28.7,5.1l-0.2-1.7l0.6-0.1l0.5,4.2L29,7.6l-0.2-1.9l-1.4,0.2l0.2,1.9h-0.5l-0.5-4.2l0.6-0.1l0.2,1.7L28.7,5.1
		z"/>
	<path class="st5" d="M30.8,7.5h-0.6l-0.1-4.2h0.6L30.8,7.5z"/>
	<path class="st5" d="M34.5,5.4L34.5,5.4c0,0.8-0.2,1.3-0.5,1.7c-0.3,0.4-0.7,0.6-1.2,0.5c-0.5,0-0.8-0.3-1.1-0.7s-0.4-1-0.3-1.6
		c0-0.6,0.2-1.2,0.6-1.6c0.4-0.4,0.7-0.6,1.2-0.6c0.6,0,1,0.4,1.2,1.1l-0.5,0.3c-0.1-0.5-0.4-0.8-0.8-0.8c-0.3,0-0.6,0.1-0.8,0.4
		C32.1,4.6,32,5,31.9,5.4c0,0.4,0,0.8,0.2,1.1C32.3,6.8,32.5,7,32.8,7s0.5-0.1,0.6-0.3c0.2-0.2,0.3-0.5,0.3-0.8l-0.8-0.1V5.2
		L34.5,5.4z"/>
	<path class="st5" d="M37.2,5.7L37.6,4l0.5,0.1l-0.9,4.2l-0.5-0.1l0.4-1.9L35.7,6l-0.4,1.9l-0.6-0.1l0.9-4.2l0.6,0.1l-0.4,1.7
		L37.2,5.7z"/>
	<path class="st5" d="M43,7c-0.1-0.4-0.2-0.6-0.5-0.7s-0.6-0.1-0.9,0.1c-0.3,0.2-0.6,0.5-0.7,0.9c-0.2,0.4-0.2,0.7-0.2,1.1
		c0.1,0.4,0.2,0.6,0.5,0.7c0.3,0.1,0.6,0.1,0.9-0.1l-0.4,0.8c-0.3,0-0.6,0-0.8-0.1c-0.4-0.2-0.7-0.5-0.8-1.1c-0.1-0.5,0-1.1,0.2-1.6
		c0.3-0.6,0.6-1,1.1-1.3c0.5-0.3,0.9-0.3,1.3-0.1c0.2,0.1,0.4,0.3,0.6,0.5L43,7z"/>
	<path class="st5" d="M43.1,8.3c0.3-0.5,0.7-0.9,1.2-1.1c0.6-0.2,1-0.2,1.4,0.1s0.6,0.6,0.7,1.2c0,0.5-0.1,1.1-0.4,1.6
		c-0.3,0.5-0.7,0.9-1.2,1.1s-0.9,0.2-1.4-0.1c-0.4-0.3-0.6-0.6-0.7-1.2C42.7,9.4,42.8,8.9,43.1,8.3z M43.7,8.6
		c-0.2,0.4-0.3,0.7-0.3,1.1c0,0.4,0.1,0.6,0.4,0.8c0.3,0.2,0.6,0.2,0.9,0s0.6-0.4,0.8-0.8c0.2-0.4,0.3-0.7,0.3-1.1S45.6,8,45.4,7.8
		c-0.3-0.2-0.6-0.2-0.9,0C44.2,8,43.9,8.2,43.7,8.6z"/>
	<path class="st5" d="M47.9,8.9l0.4,0.4l-1.5,1.8c-0.6,0.7-0.7,1.2-0.4,1.5s0.8,0.1,1.4-0.6l1.5-1.8l0.4,0.4l-1.6,2
		c-0.8,0.9-1.5,1.1-2.1,0.6s-0.6-1.3,0.2-2.2L47.9,8.9z"/>
	<path class="st5" d="M49,15.7l-0.5-0.5l0.7-2l-1.4,1.3l-0.4-0.4l3.1-2.9l0.6,0.6c0.5,0.5,0.5,1.1-0.2,1.7c-0.2,0.2-0.5,0.4-0.7,0.4
		c-0.2,0.1-0.5,0-0.6-0.1L49,15.7z M49.5,13l0.1,0.1c0.3,0.3,0.7,0.3,1,0c0.4-0.3,0.4-0.7,0.1-1L50.6,12L49.5,13z"/>
	<path class="st5" d="M49.9,16.8l-0.3-0.4l2.9-2.2L52,13.6l0.5-0.4l1.2,1.6l-0.5,0.4l-0.5-0.6L49.9,16.8z"/>
</g>
<path class="st1" d="M1.4,41.8"/>
</svg>
