<?xml version="1.0" encoding="utf-8"?>
<!-- Generator: Adobe Illustrator 24.0.2, SVG Export Plug-In . SVG Version: 6.00 Build 0)  -->
<svg version="1.1" id="圖層_1" xmlns="http://www.w3.org/2000/svg" xmlns:xlink="http://www.w3.org/1999/xlink" x="0px" y="0px"
	 viewBox="0 0 30 30" style="enable-background:new 0 0 30 30;" xml:space="preserve">
<style type="text/css">
	.st0{fill:#FFFFFF;}
</style>
<g id="XMLID_75_">
	<g id="XMLID_607_">
		<g id="XMLID_608_">
			<g id="XMLID_623_">
				<g id="XMLID_625_">
					<path id="XMLID_1084_" class="st0" d="M2.8,15.4c-0.2,0-0.5-0.1-0.7-0.3l-1.9-1.9c-0.4-0.4-0.4-1,0-1.4l6.2-6.2
						c0.4-0.4,1-0.4,1.4,0l1.9,1.9C9.9,7.8,10,8,10,8.3c0,0.3-0.1,0.5-0.3,0.7l-6.2,6.2C3.3,15.3,3.1,15.4,2.8,15.4z M7.1,6.3
						C7.1,6.3,7.1,6.3,7.1,6.3l-6.2,6.2c0,0,0,0.1,0,0.1l1.9,1.9c0,0,0.1,0,0.1,0L9,8.3c0,0,0,0,0,0c0,0,0,0,0,0v0L7.1,6.3
						C7.2,6.3,7.1,6.3,7.1,6.3z"/>
				</g>
				<g id="XMLID_624_">
					<path id="XMLID_1083_" class="st0" d="M6.1,9.6c-0.1,0-0.2,0-0.3-0.1C5.6,9.3,5.6,9,5.8,8.8l1-1c0.2-0.2,0.5-0.2,0.6,0
						c0.2,0.2,0.2,0.5,0,0.6l-1,1C6.3,9.6,6.2,9.6,6.1,9.6z"/>
				</g>
			</g>
			<g id="XMLID_620_">
				<g id="XMLID_622_">
					<path id="XMLID_1080_" class="st0" d="M27.1,15.4c-0.2,0-0.5-0.1-0.7-0.3l-6.2-6.2C20.1,8.8,20,8.5,20,8.3
						c0-0.3,0.1-0.5,0.3-0.7l1.9-1.9c0.4-0.4,1-0.4,1.4,0l6.2,6.2c0.2,0.2,0.3,0.4,0.3,0.7c0,0.3-0.1,0.5-0.3,0.7l-1.9,1.9
						C27.6,15.3,27.4,15.4,27.1,15.4z M22.9,6.3C22.9,6.3,22.8,6.3,22.9,6.3L21,8.2c0,0,0,0,0,0c0,0,0,0,0,0l6.2,6.2
						c0,0,0.1,0,0.1,0l1.9-1.9c0,0,0,0,0,0c0,0,0,0,0,0L22.9,6.3C22.9,6.3,22.9,6.3,22.9,6.3z"/>
				</g>
				<g id="XMLID_621_">
					<path id="XMLID_1079_" class="st0" d="M23.9,9.6c-0.1,0-0.2,0-0.3-0.1l-1-1c-0.2-0.2-0.2-0.5,0-0.6c0.2-0.2,0.5-0.2,0.6,0l1,1
						c0.2,0.2,0.2,0.5,0,0.6C24.1,9.6,24,9.6,23.9,9.6z"/>
				</g>
			</g>
			<g id="XMLID_619_">
				<path id="XMLID_1078_" class="st0" d="M22.4,18l-6.7-5.9l-2.5,1.5c-0.8,0.8-2,1-3,0.5l-1.4-0.7l2-3.1c0.2-0.3,0.5-0.6,0.9-0.8
					L14,8.3C14.5,8,15.1,8,15.7,8.2l3.6,1.2l1-1c0.2-0.2,0.5-0.2,0.6,0s0.2,0.5,0,0.6l-1.4,1.4L15.4,9c-0.3-0.1-0.7-0.1-1,0.1
					l-2.3,1.2c-0.2,0.1-0.4,0.3-0.5,0.5L10.1,13l0.5,0.3c0.7,0.4,1.5,0.2,2-0.3l0.1-0.1l3.1-1.9l6.6,5.9l3.5-2.9
					c0.2-0.2,0.5-0.1,0.6,0.1c0.2,0.2,0.1,0.5-0.1,0.6L22.4,18z"/>
			</g>
			<g id="XMLID_618_">
				<path id="XMLID_1077_" class="st0" d="M12.8,9.9H10L9,8.9C8.9,8.8,8.9,8.5,9,8.3c0.2-0.2,0.5-0.2,0.6,0l0.6,0.6h2.4
					c0.3,0,0.5,0.2,0.5,0.5C13.2,9.7,13,9.9,12.8,9.9z"/>
			</g>
			<g id="XMLID_617_">
				<path id="XMLID_1076_" class="st0" d="M6.4,17.6c-0.1,0-0.2,0-0.3-0.1l-2.8-2.8c-0.2-0.2-0.2-0.5,0-0.6c0.2-0.2,0.5-0.2,0.6,0
					l2.8,2.8c0.2,0.2,0.2,0.5,0,0.6C6.7,17.6,6.5,17.6,6.4,17.6z"/>
			</g>
			<g id="XMLID_616_">
				<path id="XMLID_1073_" class="st0" d="M6.7,20.1c-0.4,0-0.8-0.1-1-0.4c-0.6-0.6-0.6-1.5,0-2.1l0.9-0.9c0.6-0.6,1.5-0.6,2.1,0v0
					c0.6,0.6,0.6,1.5,0,2.1l-0.9,0.9C7.5,19.9,7.1,20.1,6.7,20.1z M7.6,17.2c-0.1,0-0.3,0.1-0.4,0.2l-0.9,0.9
					c-0.2,0.2-0.2,0.6,0,0.8c0.2,0.2,0.6,0.2,0.8,0L8,18.1c0.2-0.2,0.2-0.6,0-0.8C7.9,17.2,7.7,17.2,7.6,17.2z"/>
			</g>
			<g id="XMLID_615_">
				<path id="XMLID_1070_" class="st0" d="M7.7,22c-0.4,0-0.8-0.2-1-0.4c-0.3-0.3-0.4-0.6-0.4-1c0-0.4,0.2-0.8,0.4-1l2.1-2.1
					c0.6-0.6,1.5-0.6,2.1,0l0,0l0,0c0.6,0.6,0.6,1.5,0,2.1l-2.1,2.1C8.4,21.8,8.1,22,7.7,22z M9.8,17.9c-0.2,0-0.3,0.1-0.4,0.2
					l-2.1,2.1c-0.1,0.1-0.2,0.2-0.2,0.4c0,0.2,0.1,0.3,0.2,0.4c0.2,0.2,0.6,0.2,0.8,0l2.1-2.1c0.1-0.1,0.2-0.2,0.2-0.4
					s-0.1-0.3-0.2-0.4l0,0C10,17.9,9.9,17.9,9.8,17.9z"/>
			</g>
			<g id="XMLID_614_">
				<path id="XMLID_1069_" class="st0" d="M16.1,24.6c-0.4,0-0.8-0.2-1.2-0.5L12.8,22c-0.2-0.2-0.2-0.5,0-0.6c0.2-0.2,0.5-0.2,0.6,0
					l2.1,2.1c0.3,0.3,0.7,0.3,1,0c0.3-0.3,0.3-0.7,0-1l-1.5-1.5c-0.2-0.2-0.2-0.5,0-0.6c0.2-0.2,0.5-0.2,0.6,0l1.5,1.5
					c0.6,0.6,0.6,1.7,0,2.3C17,24.4,16.6,24.6,16.1,24.6z"/>
			</g>
			<g id="XMLID_613_">
				<path id="XMLID_1068_" class="st0" d="M18.2,23.3c-0.4,0-0.8-0.2-1.2-0.5c-0.2-0.2-0.2-0.5,0-0.6c0.2-0.2,0.5-0.2,0.6,0
					c0.3,0.3,0.8,0.3,1,0c0.1-0.1,0.2-0.3,0.2-0.5c0-0.2-0.1-0.4-0.2-0.5c-0.2-0.2-0.2-0.5,0-0.6c0.2-0.2,0.5-0.2,0.6,0
					c0.6,0.6,0.6,1.7,0,2.3C19,23.1,18.6,23.3,18.2,23.3z"/>
			</g>
			<g id="XMLID_612_">
				<path id="XMLID_1067_" class="st0" d="M20.6,22.3c-0.4,0-0.8-0.2-1.2-0.5L17,19.4c-0.2-0.2-0.2-0.5,0-0.6c0.2-0.2,0.5-0.2,0.6,0
					l2.4,2.4c0.3,0.3,0.8,0.3,1,0c0.1-0.1,0.2-0.3,0.2-0.5c0-0.2-0.1-0.4-0.2-0.5l-2.4-2.4c-0.2-0.2-0.2-0.5,0-0.6
					c0.2-0.2,0.5-0.2,0.6,0l2.4,2.4c0.6,0.6,0.6,1.7,0,2.3C21.4,22.1,21,22.3,20.6,22.3z"/>
			</g>
			<g id="XMLID_611_">
				<path id="XMLID_1066_" class="st0" d="M21.5,19.9c-0.4,0-0.8-0.2-1.2-0.5c-0.2-0.2-0.2-0.5,0-0.6c0.2-0.2,0.5-0.2,0.6,0
					c0.3,0.3,0.7,0.3,1,0c0.1-0.1,0.2-0.3,0.2-0.5c0-0.2-0.1-0.4-0.2-0.5c-0.2-0.2-0.2-0.5,0-0.6c0.2-0.2,0.5-0.2,0.6,0
					c0.3,0.3,0.5,0.7,0.5,1.2s-0.2,0.8-0.5,1.2C22.4,19.7,22,19.9,21.5,19.9z"/>
			</g>
			<g id="XMLID_610_">
				<path id="XMLID_1063_" class="st0" d="M9.6,23c-0.4,0-0.8-0.2-1-0.4c-0.3-0.3-0.4-0.6-0.4-1c0-0.4,0.2-0.8,0.4-1l1.3-1.3
					c0.6-0.6,1.5-0.6,2.1,0l0,0c0.6,0.6,0.6,1.5,0,2.1l-1.3,1.3C10.4,22.8,10,23,9.6,23z M10.9,19.6c-0.2,0-0.3,0.1-0.4,0.2
					l-1.3,1.3C9.1,21.2,9,21.4,9,21.5c0,0.1,0.1,0.3,0.2,0.4c0.2,0.2,0.6,0.2,0.8,0l1.3-1.3c0.2-0.2,0.2-0.6,0-0.8
					C11.2,19.7,11.1,19.6,10.9,19.6z"/>
			</g>
			<g id="XMLID_609_">
				<path id="XMLID_1060_" class="st0" d="M11.3,24.2c-0.4,0-0.8-0.2-1-0.4c-0.6-0.6-0.6-1.5,0-2.1l0.9-0.9c0.6-0.6,1.5-0.6,2.1,0
					l0,0c0.6,0.6,0.6,1.5,0,2.1l-0.9,0.9C12,24.1,11.7,24.2,11.3,24.2z M12.2,21.3c-0.2,0-0.3,0.1-0.4,0.2l-0.9,0.9
					c-0.2,0.2-0.2,0.6,0,0.8c0.2,0.2,0.6,0.2,0.8,0l0.9-0.9c0.2-0.2,0.2-0.6,0-0.8C12.4,21.4,12.3,21.3,12.2,21.3z"/>
			</g>
		</g>
	</g>
	<g id="XMLID_71_">
		<g id="XMLID_70_">
			<path id="XMLID_1059_" class="st0" d="M15,5.9c-0.3,0-0.5-0.2-0.5-0.5V3.1c0-0.3,0.2-0.5,0.5-0.5s0.5,0.2,0.5,0.5v2.4
				C15.4,5.7,15.2,5.9,15,5.9z"/>
		</g>
		<g id="XMLID_72_">
			<path id="XMLID_1058_" class="st0" d="M18.2,7.2c-0.1,0-0.2,0-0.3-0.1c-0.2-0.2-0.2-0.5,0-0.6l1.7-1.7c0.2-0.2,0.5-0.2,0.6,0
				c0.2,0.2,0.2,0.5,0,0.6l-1.7,1.7C18.4,7.2,18.3,7.2,18.2,7.2z"/>
		</g>
		<g id="XMLID_78_">
			<path id="XMLID_1057_" class="st0" d="M11.8,7.3c-0.1,0-0.2,0-0.3-0.1L9.8,5.5C9.6,5.3,9.6,5,9.8,4.8c0.2-0.2,0.5-0.2,0.6,0
				l1.7,1.7c0.2,0.2,0.2,0.5,0,0.6C12,7.3,11.9,7.3,11.8,7.3z"/>
		</g>
	</g>
	<g id="XMLID_74_">
		<g id="XMLID_73_">
			<path id="XMLID_1056_" class="st0" d="M27.3,7.7c-0.2,0-0.3-0.1-0.4-0.2C24.3,3.4,19.9,0.9,15,0.9c-4.9,0-9.3,2.5-11.9,6.6
				C3,7.7,2.7,7.8,2.5,7.6C2.2,7.5,2.2,7.2,2.3,7C5.1,2.6,9.8,0,15,0c5.2,0,9.9,2.6,12.7,7c0.1,0.2,0.1,0.5-0.1,0.6
				C27.5,7.7,27.4,7.7,27.3,7.7z"/>
		</g>
		<g id="XMLID_69_">
			<path id="XMLID_1055_" class="st0" d="M15,30C7.2,30,0.8,24.1,0.1,16.4c0-0.2,0.2-0.5,0.4-0.5c0.2,0,0.5,0.2,0.5,0.4
				c0.7,7.3,6.7,12.8,14,12.8c7.3,0,13.4-5.5,14-12.8c0-0.3,0.2-0.4,0.5-0.4c0.2,0,0.4,0.2,0.4,0.5C29.2,24.1,22.8,30,15,30z"/>
		</g>
	</g>
</g>
</svg>
