<?xml version="1.0" encoding="utf-8"?>
<!-- Generator: Adobe Illustrator 24.0.2, SVG Export Plug-In . SVG Version: 6.00 Build 0)  -->
<svg version="1.1" id="圖層_1" xmlns="http://www.w3.org/2000/svg" xmlns:xlink="http://www.w3.org/1999/xlink" x="0px" y="0px"
	 viewBox="0 0 30 30" style="enable-background:new 0 0 30 30;" xml:space="preserve">
<style type="text/css">
	.st0{fill:#FFFFFF;}
</style>
<g id="XMLID_638_">
	<g id="XMLID_518_">
		<g id="XMLID_519_">
			<g id="XMLID_531_">
				<g id="XMLID_533_">
					<path id="XMLID_796_" class="st0" d="M20.3,23.8H5.5v-2.1c0-1,0.8-1.9,1.9-1.9h11c1,0,1.9,0.8,1.9,1.9V23.8z M6.4,22.9h13v-1.2
						c0-0.5-0.4-1-1-1h-11c-0.5,0-1,0.4-1,1V22.9z"/>
				</g>
				<g id="XMLID_532_">
					<path id="XMLID_793_" class="st0" d="M18.5,20.7H7.3v-1.4c0-1,0.8-1.8,1.8-1.8h7.7c1,0,1.8,0.8,1.8,1.8V20.7z M8.2,19.8h9.4
						v-0.5c0-0.5-0.4-0.9-0.9-0.9H9.1c-0.5,0-0.9,0.4-0.9,0.9V19.8z"/>
				</g>
			</g>
			<g id="XMLID_525_">
				<g id="XMLID_530_">
					<path id="XMLID_790_" class="st0" d="M15.3,15.8L9.4,9.9l1.1-1.1c0.4-0.4,1-0.6,1.6-0.6c0.3,0,0.6-0.1,0.8-0.3l3-3
						c0.3-0.3,0.4-0.6,0.4-1c0-0.6,0.2-1.2,0.7-1.6l1-1l5.9,5.9l-1,1c-0.4,0.4-1,0.7-1.6,0.7c-0.4,0-0.7,0.2-1,0.4l-3,3
						c-0.2,0.2-0.3,0.5-0.3,0.8c0.1,0.6-0.1,1.2-0.6,1.6L15.3,15.8z M10.7,9.9l4.6,4.6l0.5-0.4c0.2-0.2,0.3-0.5,0.3-0.8
						c-0.1-0.6,0.1-1.2,0.6-1.6l3-3C20,8.3,20.6,8,21.2,8c0.4,0,0.7-0.1,1-0.4l0.3-0.3l-4.6-4.6L17.6,3c-0.3,0.3-0.4,0.6-0.4,1
						c0,0.6-0.2,1.2-0.7,1.6l-3,3c-0.4,0.4-1,0.6-1.6,0.6c-0.3,0-0.6,0.1-0.8,0.3L10.7,9.9z"/>
				</g>
				<g id="XMLID_529_">
					<path id="XMLID_787_" class="st0" d="M25.1,19.2l-8-8l2.1-2.1l8,8L25.1,19.2z M18.4,11.2l6.7,6.7l0.8-0.8l-6.7-6.7L18.4,11.2z"
						/>
				</g>
				<g id="XMLID_528_">
					<path id="XMLID_784_" class="st0" d="M27.1,22c-0.3,0-0.5-0.1-0.7-0.3l-1.9-1.9c-0.2-0.2-0.3-0.4-0.3-0.7
						c0-0.3,0.1-0.5,0.3-0.7l1.9-1.9c0.4-0.4,1-0.4,1.4,0l1.9,1.9c0.2,0.2,0.3,0.4,0.3,0.7c0,0.3-0.1,0.5-0.3,0.7l-1.9,1.9
						C27.6,21.9,27.4,22,27.1,22z M27.1,17.1C27.1,17.1,27.1,17.1,27.1,17.1l-2,1.9c0,0,0,0,0,0.1c0,0,0,0,0,0.1l1.9,1.9
						c0,0,0.1,0,0.1,0l1.9-1.9c0,0,0,0,0-0.1c0,0,0,0,0-0.1L27.1,17.1C27.2,17.1,27.1,17.1,27.1,17.1z"/>
				</g>
				<g id="XMLID_527_">
					<path id="XMLID_783_" class="st0" d="M21.2,8.9c-0.1,0-0.2,0-0.3-0.1l-2.2-2.2c-0.2-0.2-0.2-0.5,0-0.6c0.2-0.2,0.5-0.2,0.6,0
						l2.2,2.2c0.2,0.2,0.2,0.5,0,0.6C21.4,8.9,21.3,8.9,21.2,8.9z"/>
				</g>
				<g id="XMLID_526_">
					<path id="XMLID_782_" class="st0" d="M16.5,14.4c-0.1,0-0.2,0-0.3-0.1l-3.6-3.6c-0.2-0.2-0.2-0.5,0-0.6c0.2-0.2,0.5-0.2,0.6,0
						l3.6,3.6c0.2,0.2,0.2,0.5,0,0.6C16.8,14.3,16.7,14.4,16.5,14.4z"/>
				</g>
			</g>
			<g id="XMLID_520_">
				<g id="XMLID_524_">
					<path id="XMLID_781_" class="st0" d="M6.9,14.5c-0.3,0-0.5-0.2-0.5-0.5v-3.7c0-0.3,0.2-0.5,0.5-0.5c0.3,0,0.5,0.2,0.5,0.5v3.7
						C7.3,14.3,7.1,14.5,6.9,14.5z"/>
				</g>
				<g id="XMLID_523_">
					<path id="XMLID_780_" class="st0" d="M2.3,21.8c-0.1,0-0.2,0-0.3-0.1c-0.2-0.2-0.2-0.5,0-0.6l2.6-2.6c0.2-0.2,0.5-0.2,0.6,0
						c0.2,0.2,0.2,0.5,0,0.6l-2.6,2.6C2.5,21.7,2.4,21.8,2.3,21.8z"/>
				</g>
				<g id="XMLID_522_">
					<path id="XMLID_779_" class="st0" d="M4.2,17.2H0.4C0.2,17.2,0,17,0,16.8s0.2-0.5,0.5-0.5h3.7c0.3,0,0.5,0.2,0.5,0.5
						S4.4,17.2,4.2,17.2z"/>
				</g>
				<g id="XMLID_521_">
					<path id="XMLID_778_" class="st0" d="M5,15.3c-0.1,0-0.2,0-0.3-0.1L2,12.5c-0.2-0.2-0.2-0.5,0-0.6c0.2-0.2,0.5-0.2,0.6,0
						l2.6,2.6c0.2,0.2,0.2,0.5,0,0.6C5.2,15.3,5.1,15.3,5,15.3z"/>
				</g>
			</g>
		</g>
	</g>
	<g id="XMLID_605_">
		<path id="XMLID_775_" class="st0" d="M30,27.7H0v-4.8h30V27.7z M0.9,26.8h28.2v-3H0.9V26.8z"/>
	</g>
</g>
</svg>
