<?xml version="1.0" encoding="utf-8"?>
<!-- Generator: Adobe Illustrator 24.0.2, SVG Export Plug-In . SVG Version: 6.00 Build 0)  -->
<svg version="1.1" id="圖層_1" xmlns="http://www.w3.org/2000/svg" xmlns:xlink="http://www.w3.org/1999/xlink" x="0px" y="0px"
	 viewBox="0 0 30 30" style="enable-background:new 0 0 30 30;" xml:space="preserve">
<style type="text/css">
	.st0{fill:#FFFFFF;}
</style>
<g id="XMLID_432_">
	<g id="XMLID_393_">
		<g id="XMLID_392_">
			<path id="XMLID_833_" class="st0" d="M22.1,24.3c-0.2,0-0.4-0.2-0.5-0.4c0-0.3,0.2-0.5,0.4-0.5c1.7-0.1,4.3-0.6,6.7-2
				c0.3-0.2,0.4-0.5,0.3-0.8c-0.2-0.6-0.3-1.2-0.3-1.7l0-0.1c0-3.4-0.8-11.4-9-13.1c-7.1,1.4-8.7,7.7-9,11.3c0,0.3-0.2,0.4-0.5,0.4
				c-0.3,0-0.4-0.2-0.4-0.5c0.3-3.9,2-10.7,9.8-12.2l0.1,0l0.1,0c8.9,1.7,9.9,10.4,9.9,14l0,0.1c0,0.4,0.1,0.9,0.3,1.4
				c0.2,0.7,0,1.5-0.7,1.9C26.7,23.6,24,24.1,22.1,24.3C22.1,24.3,22.1,24.3,22.1,24.3z"/>
		</g>
		<g id="XMLID_394_">
			<path id="XMLID_832_" class="st0" d="M14.8,10.4c-0.1,0-0.2,0-0.3-0.1c-0.2-0.2-0.2-0.5,0-0.6c1.3-1.5,3-2.5,5.2-2.9
				c0.2-0.1,0.5,0.1,0.5,0.3c0.1,0.2-0.1,0.5-0.3,0.5c-1.9,0.4-3.5,1.3-4.7,2.7C15,10.3,14.9,10.4,14.8,10.4z"/>
		</g>
		<g id="XMLID_391_">
			<path id="XMLID_831_" class="st0" d="M13.2,13c-0.1,0-0.1,0-0.2,0c-0.2-0.1-0.3-0.4-0.2-0.6c0.3-0.6,0.6-1.2,0.9-1.7
				c0.1-0.2,0.4-0.3,0.6-0.1c0.2,0.1,0.3,0.4,0.1,0.6c-0.3,0.5-0.6,1-0.8,1.6C13.5,12.9,13.3,13,13.2,13z"/>
		</g>
		<g id="XMLID_390_">
			<path id="XMLID_830_" class="st0" d="M17.8,6.2c-0.2,0-0.3-0.1-0.4-0.2L15,1.9L15,1.7c0.2-0.7,0.8-1.2,1.7-1.5
				c1.2-0.4,2.9-0.3,3.5,0.1c0.5,0.3,2.4,0.6,3.6,0.8l0.7,0.1l-3,4.7C21.5,6.1,21.2,6.2,21,6c-0.2-0.1-0.3-0.4-0.1-0.6L23,2
				c-1-0.1-2.7-0.4-3.4-0.8c-0.3-0.2-1.7-0.4-2.7,0c-0.4,0.1-0.8,0.3-1,0.7l2.2,3.7c0.1,0.2,0.1,0.5-0.2,0.6
				C17.9,6.2,17.8,6.2,17.8,6.2z"/>
		</g>
		<g id="XMLID_389_">
			<path id="XMLID_829_" class="st0" d="M20.3,3.6c-0.3,0-0.5-0.2-0.5-0.5V1c0-0.3,0.2-0.5,0.5-0.5c0.3,0,0.5,0.2,0.5,0.5v2.2
				C20.8,3.4,20.6,3.6,20.3,3.6z"/>
		</g>
	</g>
	<g id="XMLID_395_">
		<g id="XMLID_400_">
			<path id="XMLID_826_" class="st0" d="M18.8,30H0v-9.8h18.8V30z M0.9,29.1h16.9v-8H0.9V29.1z"/>
		</g>
		<g id="XMLID_399_">
			<path id="XMLID_825_" class="st0" d="M20.8,28h-2.5c-0.3,0-0.5-0.2-0.5-0.5c0-0.3,0.2-0.5,0.5-0.5h1.6v-8H3v1.4
				c0,0.3-0.2,0.5-0.5,0.5c-0.3,0-0.5-0.2-0.5-0.5v-2.3h18.8V28z"/>
		</g>
		<g id="XMLID_397_">
			<path id="XMLID_822_" class="st0" d="M15.8,28.7H3v-0.5C3,27.5,2.5,27,1.8,27H1.3v-3.8h0.5C2.5,23.2,3,22.6,3,22v-0.5h12.7V22
				c0,0.7,0.5,1.2,1.2,1.2h0.5V27H17c-0.7,0-1.2,0.5-1.2,1.2V28.7z M3.9,27.7h11c0.2-0.8,0.8-1.4,1.6-1.6V24
				c-0.8-0.2-1.4-0.8-1.6-1.6h-11c-0.2,0.8-0.8,1.4-1.6,1.6v2.1C3.1,26.3,3.7,26.9,3.9,27.7z"/>
		</g>
		<g id="XMLID_396_">
			<path id="XMLID_819_" class="st0" d="M9.4,27.2c-1.2,0-2.1-1-2.1-2.1c0-1.2,1-2.1,2.1-2.1c1.2,0,2.1,1,2.1,2.1
				C11.5,26.3,10.6,27.2,9.4,27.2z M9.4,23.9c-0.7,0-1.2,0.5-1.2,1.2c0,0.7,0.5,1.2,1.2,1.2c0.7,0,1.2-0.5,1.2-1.2
				C10.6,24.4,10.1,23.9,9.4,23.9z"/>
		</g>
	</g>
	<g id="XMLID_427_">
		<g id="XMLID_428_">
			<g id="XMLID_431_">
				<path id="XMLID_818_" class="st0" d="M19.6,16.2c-0.3,0-0.7-0.1-1.1-0.2c-0.2-0.1-0.3-0.4-0.3-0.6c0.1-0.2,0.4-0.3,0.6-0.3
					c0.5,0.2,0.9,0.2,1.1,0.1c0.2-0.1,0.3-0.3,0.3-0.3c0-0.1,0-0.4-0.6-0.6c-0.8-0.3-1.3-0.7-1.3-1.3c0-0.5,0.2-0.8,0.4-0.9
					c0.6-0.4,1.7,0,1.9,0c0.2,0.1,0.3,0.4,0.2,0.6c-0.1,0.2-0.4,0.3-0.6,0.3c-0.4-0.1-0.9-0.2-1-0.1c0,0,0,0.1,0,0.2
					c0,0.1,0.2,0.3,0.7,0.4c1.2,0.4,1.3,1.3,1.2,1.7c0,0.1-0.2,0.6-0.7,0.9C20.2,16.2,19.9,16.2,19.6,16.2z"/>
			</g>
			<g id="XMLID_430_">
				<path id="XMLID_817_" class="st0" d="M19.6,17c-0.3,0-0.5-0.2-0.5-0.5v-0.7c0-0.3,0.2-0.5,0.5-0.5c0.3,0,0.5,0.2,0.5,0.5v0.7
					C20.1,16.7,19.9,17,19.6,17z"/>
			</g>
			<g id="XMLID_429_">
				<path id="XMLID_816_" class="st0" d="M19.6,12.9c-0.3,0-0.5-0.2-0.5-0.5v-0.7c0-0.3,0.2-0.5,0.5-0.5c0.3,0,0.5,0.2,0.5,0.5v0.7
					C20.1,12.7,19.9,12.9,19.6,12.9z"/>
			</g>
		</g>
	</g>
</g>
</svg>
